<?xml version="1.0" encoding="utf-8"?>
<!-- Generator: Adobe Illustrator 19.2.0, SVG Export Plug-In . SVG Version: 6.00 Build 0)  -->
<svg version="1.1" id="Layer_1" xmlns="http://www.w3.org/2000/svg" xmlns:xlink="http://www.w3.org/1999/xlink" x="0px" y="0px"
	 width="141px" height="27.3px" viewBox="0 0 141 27.3" style="enable-background:new 0 0 141 27.3;" xml:space="preserve">
<style type="text/css">
	.st0{fill:#1B4776;}
</style>
<polygon class="st0" points="15.6,9.9 25,9.9 17.6,15.7 20.4,24.7 12.6,19.4 5,24.9 7.6,15.9 0,10.2 9.4,9.9 12.4,1 "/>
<polygon class="st0" points="131.6,9.9 141,9.9 133.6,15.7 136.4,24.7 128.6,19.4 121,24.9 123.6,15.9 116,10.2 125.4,9.9 128.4,1 
	"/>
<polygon class="st0" points="44.6,9.9 54,9.9 46.6,15.7 49.4,24.7 41.6,19.4 34,24.9 36.6,15.9 29,10.2 38.4,9.9 41.4,1 "/>
<polygon class="st0" points="73.6,9.9 83,9.9 75.6,15.7 78.4,24.7 70.6,19.4 63,24.9 65.6,15.9 58,10.2 67.4,9.9 70.4,1 "/>
<polygon class="st0" points="102.6,9.9 112,9.9 104.6,15.7 107.4,24.7 99.6,19.4 92,24.9 94.6,15.9 87,10.2 96.4,9.9 99.4,1 "/>
</svg>
