<?xml version="1.0" encoding="utf-8"?>
<!-- Generator: Adobe Illustrator 16.0.0, SVG Export Plug-In . SVG Version: 6.00 Build 0)  -->
<!DOCTYPE svg PUBLIC "-//W3C//DTD SVG 1.1//EN" "http://www.w3.org/Graphics/SVG/1.1/DTD/svg11.dtd">
<svg version="1.1" id="Layer_1" xmlns="http://www.w3.org/2000/svg" xmlns:xlink="http://www.w3.org/1999/xlink" x="0px" y="0px"
	 width="141.047px" height="27.341px" viewBox="0 0 141.047 27.341" enable-background="new 0 0 141.047 27.341"
	 xml:space="preserve">
<polygon fill="#AFAFAF" points="15.614,9.871 25.047,9.948 17.599,15.737 20.438,24.73 12.633,19.436 4.958,24.912 7.581,15.854 
	0,10.246 9.427,9.944 12.416,1 "/>
<polygon fill="#AFAFAF" points="131.614,9.871 141.047,9.948 133.599,15.737 136.438,24.73 128.633,19.436 120.958,24.912 
	123.581,15.854 116,10.246 125.427,9.944 128.416,1 "/>
<polygon fill="#AFAFAF" points="44.614,9.871 54.047,9.948 46.599,15.737 49.438,24.73 41.633,19.436 33.958,24.912 36.581,15.854 
	29,10.246 38.427,9.944 41.416,1 "/>
<polygon fill="#AFAFAF" points="73.614,9.871 83.047,9.948 75.599,15.737 78.438,24.73 70.633,19.436 62.958,24.912 65.581,15.854 
	58,10.246 67.427,9.944 70.416,1 "/>
<polygon fill="#AFAFAF" points="102.614,9.871 112.047,9.948 104.599,15.737 107.438,24.73 99.633,19.436 91.958,24.912 
	94.581,15.854 87,10.246 96.427,9.944 99.416,1 "/>
</svg>
