<svg xmlns="http://www.w3.org/2000/svg" viewBox="0 0 274 247"><defs><style>.a{fill:#dcf5fc;}.b{fill:#36cccc;}.c{fill:#1cb1bb;}.d{fill:#3edadd;}.e{fill:#ddd;}.f{fill:none;}</style></defs><title>Asset 5</title><circle class="a" cx="139.5" cy="123.5" r="97.54"/><path class="a" d="M81,50.3a13.1,13.1,0,0,0-7,1.36V50.34a20,20,0,0,0-20-20h0a20,20,0,0,0-19.63,16.3,13.14,13.14,0,0,0-8.09-2.13A13.39,13.39,0,0,0,14.08,58v5.74A11.46,11.46,0,0,0,25.54,75.21H81.69A11.46,11.46,0,0,0,93.15,63.75h0A13.4,13.4,0,0,0,81,50.3Z"/><path class="b" d="M93.15,63.75h0A13.72,13.72,0,0,0,91,56.37C89.45,72,78,70.66,78,70.66H27.4a52.25,52.25,0,0,1-12-1.61,11.44,11.44,0,0,0,10.15,6.16H81.69A11.46,11.46,0,0,0,93.15,63.75Z"/><path class="c" d="M81.69,76.14H25.54A12.41,12.41,0,0,1,13.15,63.75V58a14.3,14.3,0,0,1,13.18-14.4,14,14,0,0,1,7.51,1.6,20.91,20.91,0,0,1,41.17,5,14.11,14.11,0,0,1,6.11-.86h0a14.35,14.35,0,0,1,13,14.37A12.41,12.41,0,0,1,81.69,76.14ZM27.26,45.44l-.81,0A12.44,12.44,0,0,0,15,58v5.74A10.54,10.54,0,0,0,25.54,74.28H81.69A10.54,10.54,0,0,0,92.22,63.75,12.49,12.49,0,0,0,81,51.23h0a12.27,12.27,0,0,0-6.47,1.26.92.92,0,0,1-.91,0,.94.94,0,0,1-.44-.79V50.34a19,19,0,0,0-37.76-3.5.92.92,0,0,1-1.42.61A12.16,12.16,0,0,0,27.26,45.44Z"/><path class="c" d="M28.33,59.68a.94.94,0,0,1-.93-.94A14.89,14.89,0,0,1,52.82,48.22a.93.93,0,0,1-1.31,1.31,13,13,0,0,0-22.25,9.21A.93.93,0,0,1,28.33,59.68Z"/><path class="a" d="M133.51,199.29h0A42.84,42.84,0,0,0,155,206l23.19.83v-23.1l-23.19.83a42.94,42.94,0,0,0-21.5,6.67h0a8.72,8.72,0,0,0,0,8.1Z"/><path class="c" d="M178.2,207.72h0L155,206.89a43.92,43.92,0,0,1-22-6.81,1,1,0,0,1-.33-.36,9.71,9.71,0,0,1,0-9,1,1,0,0,1,.33-.36,44,44,0,0,1,22-6.81l23.19-.83a.91.91,0,0,1,.68.26.94.94,0,0,1,.29.67v23.1a.92.92,0,0,1-.29.67A.9.9,0,0,1,178.2,207.72Zm-44-9.07A42.11,42.11,0,0,0,155,205l22.23.8V184.65l-22.23.8a42,42,0,0,0-20.82,6.39A7.89,7.89,0,0,0,134.22,198.65Z"/><path class="b" d="M183.16,195.24c0,6.38-2.22,11.55-5,11.55s-5-5.17-5-11.55,2.22-11.55,5-11.55S183.16,188.86,183.16,195.24Z"/><path class="c" d="M178.2,207.72c-3.36,0-5.89-5.36-5.89-12.48s2.53-12.48,5.89-12.48,5.89,5.36,5.89,12.48S181.55,207.72,178.2,207.72Zm0-23.1c-1.91,0-4,4.54-4,10.62s2.12,10.62,4,10.62,4-4.54,4-10.62S180.1,184.62,178.2,184.62Z"/><path class="a" d="M174.73,191.83a6,6,0,0,0-1.29.14,26.83,26.83,0,0,0,0,6.54,6,6,0,0,0,1.29.14c2.52,0,4.56-1.53,4.56-3.41S177.25,191.83,174.73,191.83Z"/><path class="c" d="M174.73,199.58a6.8,6.8,0,0,1-1.49-.16.94.94,0,0,1-.72-.79,26.23,26.23,0,0,1,0-6.78.94.94,0,0,1,.72-.79,6.8,6.8,0,0,1,1.49-.16c3,0,5.49,1.95,5.49,4.34S177.76,199.58,174.73,199.58Zm-.44-1.88a3.17,3.17,0,0,0,.44,0c2,0,3.63-1.13,3.63-2.48s-1.66-2.48-3.63-2.48l-.44,0c-.08.81-.12,1.64-.12,2.46S174.21,196.89,174.29,197.7Z"/><path class="a" d="M179.17,187.48a9.17,9.17,0,0,0-5.44,3.44"/><path class="c" d="M173.73,191.85a1,1,0,0,1-.51-.15.93.93,0,0,1-.27-1.29,10,10,0,0,1,6.06-3.84.93.93,0,1,1,.33,1.83h0a8.26,8.26,0,0,0-4.83,3A.94.94,0,0,1,173.73,191.85Z"/><path class="a" d="M178.61,202.37s-4-.79-5.17-3.86"/><path class="c" d="M178.61,203.3l-.18,0c-.18,0-4.51-.92-5.86-4.44a.93.93,0,1,1,1.74-.66c1,2.54,4.45,3.27,4.48,3.27a.93.93,0,0,1,.73,1.1A.92.92,0,0,1,178.61,203.3Z"/><path class="d" d="M146,129.6l-5.4-15.23a2.32,2.32,0,0,1,2.18-3.09H152A15.82,15.82,0,0,1,162.2,115l20.94,17.65Z"/><path class="c" d="M183.14,133.58h-.08l-37.18-3a.93.93,0,0,1-.8-.61l-5.39-15.23a3.25,3.25,0,0,1,3.05-4.33H152a16.79,16.79,0,0,1,10.79,3.94l20.94,17.65a.93.93,0,0,1-.6,1.64Zm-36.51-4.86,33.68,2.76L161.6,115.71a15,15,0,0,0-9.59-3.5h-9.27a1.39,1.39,0,0,0-1.13.59,1.38,1.38,0,0,0-.17,1.26Z"/><path class="d" d="M223,126.18h0l-8.58-6.67a17.38,17.38,0,0,0-10.66-3.66h-6.86a76.26,76.26,0,0,0-37.66,9.94l-.68.39H67.1L50.94,104.5A18.26,18.26,0,0,0,36.3,97.16H24.66a4.91,4.91,0,0,0-4.58,6.72l18.1,46a15.81,15.81,0,0,0,10.34,9.4l47.83,13.81A132.29,132.29,0,0,0,133,178.23h71.52a100.1,100.1,0,0,0,35.73-6.59l8.48-3.23a17.35,17.35,0,0,0,11.16-16.2h0A17.35,17.35,0,0,0,248.76,136Z"/><polygon class="b" points="198.69 159.71 203.84 164.33 193.69 164.64 198.69 159.71"/><path class="c" d="M204.55,179.16H133a132.92,132.92,0,0,1-36.93-5.22l-47.84-13.8a16.9,16.9,0,0,1-10.95-10l-18.1-45.95a5.86,5.86,0,0,1,5.45-8H36.3a19.26,19.26,0,0,1,15.38,7.71l15.89,21.31h90.78l.46-.27a77.4,77.4,0,0,1,38.12-10.06h6.86A18.43,18.43,0,0,1,215,118.77l8.47,6.59,25.6,9.78a18.27,18.27,0,0,1,0,34.14l-8.47,3.23A100.63,100.63,0,0,1,204.55,179.16ZM24.66,98.09a4,4,0,0,0-3.72,5.45l18.11,46a15,15,0,0,0,9.73,8.85l47.83,13.8A131.18,131.18,0,0,0,133,177.3h71.52a98.87,98.87,0,0,0,35.4-6.52l8.48-3.24a16.41,16.41,0,0,0,0-30.67l-25.74-9.82a1.49,1.49,0,0,1-.24-.14l-8.57-6.67a16.54,16.54,0,0,0-10.09-3.46h-6.86a75.46,75.46,0,0,0-37.2,9.82l-.68.39a.93.93,0,0,1-.46.12H67.1a.91.91,0,0,1-.74-.38L50.19,105.05a17.39,17.39,0,0,0-13.89-7Z"/><path class="a" d="M259.92,152.21a17.35,17.35,0,0,0-10-15.7,37.15,37.15,0,0,0-8.87,10c-6.16,9.69-14.79,15.67-19.54,17.08s-105.83,2.82-128-2.46S55.42,144,41.62,141.4a51.8,51.8,0,0,0-7.09-.84l3.65,9.28a15.81,15.81,0,0,0,10.34,9.4l47.83,13.81A132.29,132.29,0,0,0,133,178.23h71.52a100.1,100.1,0,0,0,35.73-6.59l8.48-3.23a17.35,17.35,0,0,0,11.16-16.2Z"/><polygon class="b" points="62.47 134.85 69.94 152.79 56.11 146.42 52.23 145.03 62.47 134.85"/><path class="b" d="M45.41,150.61s4.79,5.41,8.21,5.5,16.32.4,16.32-1.46v-1.86L52.23,145Z"/><polygon class="b" points="223.61 176.5 203.84 164.33 193.69 164.64 179.17 178.23 202.22 178.2 214 177.66 223.61 176.5"/><path class="c" d="M204.55,179.16H133a132.92,132.92,0,0,1-36.93-5.22l-47.84-13.8a16.9,16.9,0,0,1-10.95-10l-3.65-9.28a.93.93,0,0,1,.92-1.27,55.71,55.71,0,0,1,7.22.85c6.51,1.25,13.31,4.42,21.19,8.09,8.88,4.14,18.93,8.83,30.74,11.64,23.34,5.56,124,3.54,127.53,2.48,4-1.19,12.71-6.77,19-16.69a38.11,38.11,0,0,1,9.09-10.23.92.92,0,0,1,1-.1,18.27,18.27,0,0,1-1.25,33.61l-8.47,3.23A100.63,100.63,0,0,1,204.55,179.16ZM35.93,141.59l3.12,7.91a15,15,0,0,0,9.73,8.85l47.83,13.8A131.18,131.18,0,0,0,133,177.3h71.52a98.87,98.87,0,0,0,35.4-6.52l8.48-3.24a16.41,16.41,0,0,0,1.62-29.94,36.79,36.79,0,0,0-8.19,9.4c-5.94,9.33-14.59,15.85-20.07,17.47-5.74,1.7-106.93,2.69-128.5-2.45-12-2.85-22.13-7.58-31.09-11.76-7.76-3.62-14.47-6.75-20.75-7.95A48.39,48.39,0,0,0,35.93,141.59Z"/><path class="a" d="M33.37,137.47,22,151a1.66,1.66,0,0,0,1.27,2.73H34.43a21.23,21.23,0,0,0,14.72-5.93L61.31,136.1a1,1,0,0,0-.49-1.68l-5.93-1.17a31.45,31.45,0,0,0-12.89.13L39,134A10.33,10.33,0,0,0,33.37,137.47Z"/><path class="c" d="M34.43,154.65H23.29a2.58,2.58,0,0,1-2-4.25l11.35-13.53a11.19,11.19,0,0,1,6.18-3.74l3-.66a32.42,32.42,0,0,1,13.27-.14L61,133.51a1.92,1.92,0,0,1,1,3.26L49.79,148.46A22.07,22.07,0,0,1,34.43,154.65Zm14.34-21.08a30.47,30.47,0,0,0-6.57.72l-3,.65a9.37,9.37,0,0,0-5.15,3.13h0L22.73,151.59a.71.71,0,0,0-.1.78.7.7,0,0,0,.66.42H34.43a20.19,20.19,0,0,0,14.07-5.67l12.17-11.69,0-.1-5.93-1.17A30.6,30.6,0,0,0,48.77,133.57Zm-15.4,3.9h0Z"/><path class="d" d="M139.65,163.45l-35,42.86a3,3,0,0,0,2.36,5h19.17a41.3,41.3,0,0,0,27.65-10.62l43.53-39.25a1.49,1.49,0,0,0-.63-2.55h0a90.58,90.58,0,0,0-34.08-1.95l-14.77,2A12.77,12.77,0,0,0,139.65,163.45Z"/><path class="c" d="M126.16,212.2H107a4,4,0,0,1-3.07-6.48l35-42.86a13.71,13.71,0,0,1,8.81-4.92l14.76-2a91,91,0,0,1,34.43,2,2.42,2.42,0,0,1,1,4.15l-43.53,39.24A42.17,42.17,0,0,1,126.16,212.2ZM174.62,157a89.41,89.41,0,0,0-11.87.79l-14.76,2a11.84,11.84,0,0,0-7.62,4.25l-35,42.85a2.12,2.12,0,0,0,1.63,3.45h19.18a40.34,40.34,0,0,0,27-10.38l43.53-39.25a.57.57,0,0,0,.17-.55.58.58,0,0,0-.41-.41A89.48,89.48,0,0,0,174.62,157Zm-35,6.42h0Z"/><path class="e" d="M214.45,119.51l-2.22,1a1,1,0,0,0-.41,1.54l3,4.16a1,1,0,0,0,.89.42l7.28-.45Z"/><path class="c" d="M215.68,127.56a1.93,1.93,0,0,1-1.57-.8l-3-4.16a2,2,0,0,1-.31-1.66,1.94,1.94,0,0,1,1.09-1.28l2.22-1a.93.93,0,0,1,1,.11l8.58,6.67a.94.94,0,0,1-.52,1.67l-7.27.45Zm-1.36-7-1.71.77a.08.08,0,0,0-.05.06.15.15,0,0,0,0,.08l3,4.16a.09.09,0,0,0,.08,0l4.82-.3Z"/><path class="e" d="M208.52,121.74l2.15,3.43a1.28,1.28,0,0,1-1.08,2h-5.26a1.28,1.28,0,0,1-1.27-1.1l-.47-3.43a1.28,1.28,0,0,1,1.27-1.45h3.58A1.27,1.27,0,0,1,208.52,121.74Z"/><path class="c" d="M209.59,128.06h-5.26a2.22,2.22,0,0,1-2.19-1.91l-.47-3.43a2.19,2.19,0,0,1,.52-1.75,2.22,2.22,0,0,1,1.67-.76h3.58a2.21,2.21,0,0,1,1.87,1h0l2.15,3.43a2.21,2.21,0,0,1-1.87,3.38Zm-5.73-6a.35.35,0,0,0-.26.11.35.35,0,0,0-.09.28l.47,3.43a.36.36,0,0,0,.35.3h5.26a.35.35,0,0,0,.29-.53l-2.15-3.43a.34.34,0,0,0-.29-.16Z"/><path class="e" d="M89.11,147.73h0a2.64,2.64,0,0,1-2.64-2.64v-1.58a2.64,2.64,0,0,1,2.64-2.64h0a2.64,2.64,0,0,1,2.64,2.64v1.58A2.64,2.64,0,0,1,89.11,147.73Z"/><path class="c" d="M89.42,148.66h-.63a3.26,3.26,0,0,1-3.25-3.25v-2.22a3.26,3.26,0,0,1,3.25-3.25h.63a3.26,3.26,0,0,1,3.26,3.25v2.22A3.26,3.26,0,0,1,89.42,148.66Zm-.63-6.86a1.39,1.39,0,0,0-1.39,1.39v2.22a1.39,1.39,0,0,0,1.39,1.39h.63a1.4,1.4,0,0,0,1.4-1.39v-2.22a1.4,1.4,0,0,0-1.4-1.39Z"/><path class="e" d="M97.65,147.73h0A2.64,2.64,0,0,1,95,145.09v-1.58a2.64,2.64,0,0,1,2.64-2.64h0a2.64,2.64,0,0,1,2.64,2.64v1.58A2.64,2.64,0,0,1,97.65,147.73Z"/><path class="c" d="M98,148.66h-.63a3.26,3.26,0,0,1-3.25-3.25v-2.22a3.26,3.26,0,0,1,3.25-3.25H98a3.26,3.26,0,0,1,3.26,3.25v2.22A3.26,3.26,0,0,1,98,148.66Zm-.63-6.86a1.39,1.39,0,0,0-1.39,1.39v2.22a1.39,1.39,0,0,0,1.39,1.39H98a1.4,1.4,0,0,0,1.4-1.39v-2.22A1.4,1.4,0,0,0,98,141.8Z"/><path class="e" d="M106.58,147.73h0a2.64,2.64,0,0,1-2.64-2.64v-1.58a2.64,2.64,0,0,1,2.64-2.64h0a2.64,2.64,0,0,1,2.64,2.64v1.58A2.64,2.64,0,0,1,106.58,147.73Z"/><path class="c" d="M106.9,148.66h-.64a3.26,3.26,0,0,1-3.25-3.25v-2.22a3.26,3.26,0,0,1,3.25-3.25h.64a3.26,3.26,0,0,1,3.25,3.25v2.22A3.26,3.26,0,0,1,106.9,148.66Zm-.64-6.86a1.39,1.39,0,0,0-1.39,1.39v2.22a1.39,1.39,0,0,0,1.39,1.39h.64a1.39,1.39,0,0,0,1.39-1.39v-2.22a1.39,1.39,0,0,0-1.39-1.39Z"/><path class="e" d="M115.12,147.73h0a2.64,2.64,0,0,1-2.64-2.64v-1.58a2.64,2.64,0,0,1,2.64-2.64h0a2.64,2.64,0,0,1,2.64,2.64v1.58A2.64,2.64,0,0,1,115.12,147.73Z"/><path class="c" d="M115.44,148.66h-.64a3.26,3.26,0,0,1-3.25-3.25v-2.22a3.26,3.26,0,0,1,3.25-3.25h.64a3.26,3.26,0,0,1,3.25,3.25v2.22A3.26,3.26,0,0,1,115.44,148.66Zm-.64-6.86a1.39,1.39,0,0,0-1.39,1.39v2.22a1.39,1.39,0,0,0,1.39,1.39h.64a1.39,1.39,0,0,0,1.39-1.39v-2.22a1.39,1.39,0,0,0-1.39-1.39Z"/><path class="e" d="M124,147.73h0a2.64,2.64,0,0,1-2.64-2.64v-1.58a2.64,2.64,0,0,1,2.64-2.64h0a2.65,2.65,0,0,1,2.65,2.64v1.58A2.65,2.65,0,0,1,124,147.73Z"/><path class="c" d="M124.29,148.66h-.63a3.26,3.26,0,0,1-3.26-3.25v-2.22a3.26,3.26,0,0,1,3.26-3.25h.63a3.26,3.26,0,0,1,3.26,3.25v2.22A3.26,3.26,0,0,1,124.29,148.66Zm-.63-6.86a1.4,1.4,0,0,0-1.4,1.39v2.22a1.4,1.4,0,0,0,1.4,1.39h.63a1.4,1.4,0,0,0,1.4-1.39v-2.22a1.4,1.4,0,0,0-1.4-1.39Z"/><path class="e" d="M132.51,147.73h0a2.64,2.64,0,0,1-2.64-2.64v-1.58a2.64,2.64,0,0,1,2.64-2.64h0a2.65,2.65,0,0,1,2.65,2.64v1.58A2.65,2.65,0,0,1,132.51,147.73Z"/><path class="c" d="M132.83,148.66h-.63a3.26,3.26,0,0,1-3.26-3.25v-2.22a3.26,3.26,0,0,1,3.26-3.25h.63a3.26,3.26,0,0,1,3.26,3.25v2.22A3.26,3.26,0,0,1,132.83,148.66Zm-.63-6.86a1.4,1.4,0,0,0-1.4,1.39v2.22a1.4,1.4,0,0,0,1.4,1.39h.63a1.4,1.4,0,0,0,1.4-1.39v-2.22a1.4,1.4,0,0,0-1.4-1.39Z"/><path class="e" d="M141.45,147.73h0a2.65,2.65,0,0,1-2.65-2.64v-1.58a2.65,2.65,0,0,1,2.65-2.64h0a2.64,2.64,0,0,1,2.64,2.64v1.58A2.64,2.64,0,0,1,141.45,147.73Z"/><path class="c" d="M141.76,148.66h-.63a3.26,3.26,0,0,1-3.26-3.25v-2.22a3.26,3.26,0,0,1,3.26-3.25h.63a3.26,3.26,0,0,1,3.26,3.25v2.22A3.26,3.26,0,0,1,141.76,148.66Zm-.63-6.86a1.4,1.4,0,0,0-1.4,1.39v2.22a1.4,1.4,0,0,0,1.4,1.39h.63a1.4,1.4,0,0,0,1.4-1.39v-2.22a1.4,1.4,0,0,0-1.4-1.39Z"/><path class="e" d="M150,147.73h0a2.65,2.65,0,0,1-2.65-2.64v-1.58a2.65,2.65,0,0,1,2.65-2.64h0a2.64,2.64,0,0,1,2.64,2.64v1.58A2.64,2.64,0,0,1,150,147.73Z"/><path class="c" d="M150.3,148.66h-.63a3.26,3.26,0,0,1-3.26-3.25v-2.22a3.26,3.26,0,0,1,3.26-3.25h.63a3.26,3.26,0,0,1,3.26,3.25v2.22A3.26,3.26,0,0,1,150.3,148.66Zm-.63-6.86a1.4,1.4,0,0,0-1.4,1.39v2.22a1.4,1.4,0,0,0,1.4,1.39h.63a1.4,1.4,0,0,0,1.4-1.39v-2.22a1.4,1.4,0,0,0-1.4-1.39Z"/><path class="e" d="M159.43,147.73h0a2.64,2.64,0,0,1-2.64-2.64v-1.58a2.64,2.64,0,0,1,2.64-2.64h0a2.64,2.64,0,0,1,2.64,2.64v1.58A2.64,2.64,0,0,1,159.43,147.73Z"/><path class="c" d="M159.74,148.66h-.63a3.26,3.26,0,0,1-3.25-3.25v-2.22a3.26,3.26,0,0,1,3.25-3.25h.63a3.26,3.26,0,0,1,3.26,3.25v2.22A3.26,3.26,0,0,1,159.74,148.66Zm-.63-6.86a1.39,1.39,0,0,0-1.39,1.39v2.22a1.39,1.39,0,0,0,1.39,1.39h.63a1.4,1.4,0,0,0,1.4-1.39v-2.22a1.4,1.4,0,0,0-1.4-1.39Z"/><rect class="e" x="165.33" y="140.87" width="5.28" height="6.87" rx="2.64"/><path class="c" d="M168.28,148.66h-.63a3.26,3.26,0,0,1-3.25-3.25v-2.22a3.26,3.26,0,0,1,3.25-3.25h.63a3.26,3.26,0,0,1,3.26,3.25v2.22A3.26,3.26,0,0,1,168.28,148.66Zm-.63-6.86a1.39,1.39,0,0,0-1.39,1.39v2.22a1.39,1.39,0,0,0,1.39,1.39h.63a1.4,1.4,0,0,0,1.4-1.39v-2.22a1.4,1.4,0,0,0-1.4-1.39Z"/><path class="e" d="M176.9,147.73h0a2.64,2.64,0,0,1-2.64-2.64v-1.58a2.64,2.64,0,0,1,2.64-2.64h0a2.64,2.64,0,0,1,2.64,2.64v1.58A2.64,2.64,0,0,1,176.9,147.73Z"/><path class="c" d="M177.21,148.66h-.63a3.26,3.26,0,0,1-3.25-3.25v-2.22a3.26,3.26,0,0,1,3.25-3.25h.63a3.26,3.26,0,0,1,3.26,3.25v2.22A3.26,3.26,0,0,1,177.21,148.66Zm-.63-6.86a1.39,1.39,0,0,0-1.39,1.39v2.22a1.39,1.39,0,0,0,1.39,1.39h.63a1.4,1.4,0,0,0,1.4-1.39v-2.22a1.4,1.4,0,0,0-1.4-1.39Z"/><path class="e" d="M185.44,147.73h0a2.64,2.64,0,0,1-2.64-2.64v-1.58a2.64,2.64,0,0,1,2.64-2.64h0a2.64,2.64,0,0,1,2.64,2.64v1.58A2.64,2.64,0,0,1,185.44,147.73Z"/><path class="c" d="M185.75,148.66h-.63a3.26,3.26,0,0,1-3.25-3.25v-2.22a3.26,3.26,0,0,1,3.25-3.25h.63a3.26,3.26,0,0,1,3.26,3.25v2.22A3.26,3.26,0,0,1,185.75,148.66Zm-.63-6.86a1.39,1.39,0,0,0-1.39,1.39v2.22a1.39,1.39,0,0,0,1.39,1.39h.63a1.4,1.4,0,0,0,1.4-1.39v-2.22a1.4,1.4,0,0,0-1.4-1.39Z"/><path class="a" d="M233.26,50.05a10.17,10.17,0,0,0-6.77,2.57,12,12,0,0,0-23.93,1.51v5.93a10.58,10.58,0,0,0,10.58,10.57h21.34a9,9,0,0,0,9-9V60.28A10.23,10.23,0,0,0,233.26,50.05Z"/><path class="b" d="M202.86,62.51a10.56,10.56,0,0,0,10.28,8.12h21.34a9,9,0,0,0,9-9V60.28a10.22,10.22,0,0,0-.44-3c-2.8,9.34-9,8.86-9,8.86H212.38A15,15,0,0,1,202.86,62.51Z"/><path class="c" d="M234.48,71.56H213.14a11.52,11.52,0,0,1-11.51-11.5V54.13A12.95,12.95,0,0,1,227.13,51a11.15,11.15,0,0,1,17.29,9.32v1.34A10,10,0,0,1,234.48,71.56ZM214.58,43a11.1,11.1,0,0,0-11.09,11.09v5.93a9.65,9.65,0,0,0,9.65,9.64h21.34a8.09,8.09,0,0,0,8.08-8.08V60.28a9.29,9.29,0,0,0-15.45-7,1,1,0,0,1-1,.17.92.92,0,0,1-.59-.76A11.1,11.1,0,0,0,214.58,43Z"/><path class="c" d="M231.83,59.17a.92.92,0,0,1-.89-.64,6.92,6.92,0,0,0-11-3.19.93.93,0,1,1-1.18-1.44A8.78,8.78,0,0,1,232.71,58a.94.94,0,0,1-.6,1.18A.9.9,0,0,1,231.83,59.17Z"/><path class="f" d="M274,247H0V0H274ZM3.33,244H270.67V3H3.33Z"/></svg>