   <svg class="go-premium-svg amex" xmlns="http://www.w3.org/2000/svg" viewBox="0 0 27.82 20">
                    <path d="M1.74,0H26.09a1.74,1.74,0,0,1,1.74,1.74V18.26A1.74,1.74,0,0,1,26.09,20H1.74A1.74,1.74,0,0,1,0,18.26V1.74A1.74,1.74,0,0,1,1.74,0Z" style="fill:#26a6d1"></path>
                    <path d="M4.49,7L1.74,13H5l0.41-1H6.37l0.41,1H10.4V12.3L10.72,13h1.87l0.32-.76V13h7.53l0.92-.94L22.22,13h3.87l-2.76-3L26.09,7H22.28l-0.89.93L20.56,7H12.36l-0.7,1.57L10.94,7H7.66V7.67L7.29,7H4.49ZM5.12,7.82h1.6l1.82,4.12V7.82h1.76l1.41,3,1.3-3h1.75v4.36H13.7V8.76l-1.55,3.42h-1L9.63,8.76v3.42H7.44L7,11.2H4.78l-0.41,1H3.2Zm10.61,0h4.32l1.32,1.43,1.37-1.43h1.32l-2,2.19,2,2.17H22.68l-1.32-1.45L20,12.18H15.73V7.82h0ZM5.9,8.56L5.17,10.3H6.64ZM16.8,8.72v0.8h2.36v0.89H16.8v0.87h2.65L20.67,10,19.5,8.72H16.8Z" style="fill:#fff"></path>
                  </svg>