<svg xmlns="http://www.w3.org/2000/svg" viewBox="0 0 144.27 125.79"><defs><style>.a{fill:none;stroke:#344154;stroke-miterlimit:10;stroke-width:3px;}.b{fill:#1cb1bb;}</style></defs><title>breifcase</title><path class="a" d="M138.33,60.65V118.7a5.58,5.58,0,0,1-5.58,5.59H11.52a5.58,5.58,0,0,1-5.58-5.59v-58"/><path class="a" d="M63.92,65.93A409.17,409.17,0,0,1,3.58,60.25,2.49,2.49,0,0,1,1.5,57.79V25.24a5.59,5.59,0,0,1,5.59-5.59H137.18a5.59,5.59,0,0,1,5.59,5.59V57.79a2.49,2.49,0,0,1-2.08,2.46,409.17,409.17,0,0,1-60.34,5.68"/><rect class="a" x="63.92" y="57.8" width="16.42" height="16.42" rx="1.59"/><line class="a" x1="69.51" y1="66.01" x2="74.76" y2="66.01"/><line class="a" x1="63.92" y1="81.19" x2="80.35" y2="81.19"/><path class="a" d="M102.92,19.65V8A6.54,6.54,0,0,0,96.38,1.5H47.88A6.54,6.54,0,0,0,41.34,8V19.65"/><path class="a" d="M51,19.65V10.87a.75.75,0,0,1,.76-.73H92.56a.75.75,0,0,1,.76.73v8.78"/><path class="b" d="M11.62,104.18V118.6h121V104.18A771.21,771.21,0,0,1,11.62,104.18Z"/></svg>