<svg class="go-premium-svg discover" xmlns="http://www.w3.org/2000/svg" viewBox="0 0 58 20">
                    <circle cx="30.54" cy="6.3" r="4.22" style="fill:#ef9122"></circle>
                    <path d="M26.32,6.3a4.22,4.22,0,1,1,4.22,4.22" style="fill:#f26e21"></path>
                    <path d="M27.62,3.3a4.19,4.19,0,0,1,5.93,5.93" style="fill:#f44500"></path>
                    <path d="M6.1,2.32H3.82v8H6.1a4.41,4.41,0,0,0,2.84-.89A4,4,0,0,0,10.4,6.3C10.4,3.95,8.7,2.32,6.1,2.32ZM8,8.34A3.12,3.12,0,0,1,5.85,9H5.37V3.71H5.77a2.76,2.76,0,0,1,2.11.65A2.59,2.59,0,0,1,8.78,6.3,2.43,2.43,0,0,1,8,8.34Z" style="fill:#595a5b"></path>
                    <rect x="11.13" y="2.32" width="1.54" height="7.96" style="fill:#595a5b"></rect>
                    <path d="M16.57,5.41c-1-.32-1.22-0.57-1.22-1a1,1,0,0,1,1.14-.89,1.57,1.57,0,0,1,1.3.65L18.6,3.14a3.54,3.54,0,0,0-2.36-.89,2.38,2.38,0,0,0-2.52,2.27c0,1.14.49,1.62,1.95,2.19a3.16,3.16,0,0,1,1.06.49,0.89,0.89,0,0,1,.49.81A1.13,1.13,0,0,1,16,9.15,1.89,1.89,0,0,1,14.3,8.09l-1,1a3.18,3.18,0,0,0,2.76,1.54A2.56,2.56,0,0,0,18.85,8C18.85,6.63,18.36,6.06,16.57,5.41Z" style="fill:#595a5b"></path>
                    <path d="M19.34,6.3a4.13,4.13,0,0,0,4.22,4.14A4.59,4.59,0,0,0,25.51,10V8.09A2.53,2.53,0,0,1,23.64,9,2.62,2.62,0,0,1,21,6.22a2.66,2.66,0,0,1,2.6-2.76,2.56,2.56,0,0,1,1.95.89V2.49A4.08,4.08,0,0,0,23.56,2,4.49,4.49,0,0,0,19.34,6.3Z" style="fill:#3b3d3f"></path>
                    <polygon points="38.26 7.68 36.15 2.33 34.44 2.33 37.77 10.53 38.66 10.53 42.16 2.33 40.45 2.33 38.26 7.68"></polygon>
                    <polygon points="42.81 10.28 47.27 10.28 47.27 8.98 44.43 8.98 44.43 6.79 47.19 6.79 47.19 5.41 44.43 5.41 44.43 3.71 47.27 3.71 47.27 2.33 42.81 2.33 42.81 10.28"></polygon>
                    <path d="M51.66,7a2.14,2.14,0,0,0,1.87-2.27c0-1.46-1.06-2.36-2.84-2.36H48.33v8h1.54V7.12h0.24l2.19,3.17h1.87Zm-1.3-1H49.87V3.54h0.49c1,0,1.54.41,1.54,1.22S51.34,6,50.36,6Z" style="fill:#595a5b"></path>
                    <path d="M6.1,2.32H3.82v8H6.1a4.41,4.41,0,0,0,2.84-.89A4,4,0,0,0,10.4,6.3C10.4,3.95,8.7,2.32,6.1,2.32ZM8,8.34A3.12,3.12,0,0,1,5.85,9H5.37V3.71H5.77a2.76,2.76,0,0,1,2.11.65A2.59,2.59,0,0,1,8.78,6.3,2.43,2.43,0,0,1,8,8.34Z" style="fill:#595a5b"></path>
                    <rect x="11.13" y="2.32" width="1.54" height="7.96" style="fill:#595a5b"></rect>
                    <path d="M16.57,5.41c-1-.32-1.22-0.57-1.22-1a1,1,0,0,1,1.14-.89,1.57,1.57,0,0,1,1.3.65L18.6,3.14a3.54,3.54,0,0,0-2.36-.89,2.38,2.38,0,0,0-2.52,2.27c0,1.14.49,1.62,1.95,2.19a3.16,3.16,0,0,1,1.06.49,0.89,0.89,0,0,1,.49.81A1.13,1.13,0,0,1,16,9.15,1.89,1.89,0,0,1,14.3,8.09l-1,1a3.18,3.18,0,0,0,2.76,1.54A2.56,2.56,0,0,0,18.85,8C18.85,6.63,18.36,6.06,16.57,5.41Z" style="fill:#595a5b"></path>
                    <path d="M23.64,10.45A4.59,4.59,0,0,0,25.59,10V8.09A2.53,2.53,0,0,1,23.72,9,2.62,2.62,0,0,1,21,6.22a3,3,0,0,1,.81-2L20.8,3.14a4.23,4.23,0,0,0-1.38,3.09A4.05,4.05,0,0,0,23.64,10.45Z" style="fill:#595a5b"></path>
                    <path d="M51.66,7a2.14,2.14,0,0,0,1.87-2.27c0-1.46-1.06-2.36-2.84-2.36H48.33v8h1.54V7.12h0.24l2.19,3.17h1.87Zm-1.3-1H49.87V3.54h0.49c1,0,1.54.41,1.54,1.22S51.34,6,50.36,6Z"></path>
                    <path d="M15.27,17.68V13.21l3.09,3.17V13.45H19v4.47l-3.09-3.17v2.92H15.27Z" style="fill:#f26e21"></path>
                    <path d="M22.26,14.1H20.55v1h1.62v0.65H20.55v1.38h1.71v0.57H19.9V13.45h2.36V14.1Z" style="fill:#f26e21"></path>
                    <path d="M24.29,14.1v3.57H23.64V14.1h-1V13.53h2.6V14.1h-1Z" style="fill:#f26e21"></path>
                    <path d="M26.24,13.53l1.06,2.84,1.14-3,1.06,3,1.14-2.84h0.81L29.57,18l-1.06-3-1.14,3-1.79-4.47h0.65Z" style="fill:#f26e21"></path>
                    <path d="M31.52,15.56a2.18,2.18,0,1,1,2.19,2.19,2,2,0,0,1-1.46-.57A1.94,1.94,0,0,1,31.52,15.56Zm0.65,0a1.47,1.47,0,0,0,.49,1.14,1.43,1.43,0,0,0,1.06.49,1.6,1.6,0,0,0,1.14-.49,1.57,1.57,0,0,0,0-2.27,1.47,1.47,0,0,0-1.14-.49,1.6,1.6,0,0,0-1.14.49A1.94,1.94,0,0,0,32.17,15.56Z" style="fill:#f26e21"></path>
                    <path d="M38.18,15.89l1.3,1.79H38.66L37.45,16H37.37v1.71H36.72V13.45h0.73a1.69,1.69,0,0,1,1.22.32,1.3,1.3,0,0,1,.41.89,1,1,0,0,1-.24.73A0.76,0.76,0,0,1,38.18,15.89Zm-0.81-.49h0.16a0.68,0.68,0,1,0,0-1.3H37.28v1.3h0.08Z" style="fill:#f26e21"></path>
                    <path d="M40.7,15.16l1.62-1.71h0.81l-1.87,1.87,1.87,2.27H42.32l-1.54-1.87-0.16.16v1.71H40V13.37h0.65v1.79H40.7Z" style="fill:#f26e21"></path>
                    <polygon points="45.89 8.98 44.43 8.98 44.43 7.52 42.81 5.9 42.81 10.28 47.19 10.28 45.89 8.98" style="fill:#3b3d3f"></polygon>
                    <polygon points="40.05 3.14 38.26 7.68 36.15 2.33 34.44 2.33 37.77 10.53 38.66 10.53 41.26 4.36 40.05 3.14" style="fill:#3b3d3f"></polygon>
                  </svg>