<svg xmlns="http://www.w3.org/2000/svg" viewBox="0 0 99.95 125.95"><defs><style>.a{fill:#b9e793;}.b{fill:none;stroke:#344154;stroke-miterlimit:10;stroke-width:3px;}.c{fill:#1cb1bb;}</style></defs><title>lamp</title><path class="a" d="M67.12,46.15a10.74,10.74,0,0,1-4.21-.85l14.2-14.19a10.84,10.84,0,0,1-10,15Z"/><path class="b" d="M63,8.45,40.26,31.16l-1.52-1.52a16.06,16.06,0,0,1,0-22.71h0a16,16,0,0,1,22.71,0Z"/><path class="c" d="M40.37,25.27A12,12,0,0,1,57.09,8.56Z"/><path class="b" d="M61.75,9.67,51.62,19.81,41.48,29.94S26.73,43.85,36.87,65.56L67.12,35.31,97.38,5.06C75.66-5.08,61.75,9.67,61.75,9.67Z"/><path class="b" d="M56.57,45.86a14.92,14.92,0,1,0,21.1-21.1"/><path class="b" d="M34.8,25.59,9.12,51.26a26,26,0,0,0,0,36.81l23.2,23.2"/><path class="b" d="M84.19,111.27H14.68A13.18,13.18,0,0,0,1.5,124.45H97.38A13.19,13.19,0,0,0,84.19,111.27Z"/><path class="b" d="M80.73,111.27V106.6a2.34,2.34,0,0,0-3-2.26l-6.92,1.87-6.93-1.87A2.34,2.34,0,0,0,61,106.6v4.67"/></svg>