<svg xmlns="http://www.w3.org/2000/svg" viewBox="0 0 119.33 130.13"><defs><style>.a,.c{fill:none;stroke:#344154;stroke-linecap:round;stroke-width:3px;}.a{stroke-miterlimit:10;}.b{fill:#1cb1bb;}.c{stroke-linejoin:round;}</style></defs><title>manager</title><polyline class="a" points="9.79 128.63 9.79 104.01 109.54 104.01 109.54 128.63"/><path class="a" d="M44.39,90.75H9.63A8.13,8.13,0,0,0,1.5,98.88V104H117.83V98.88a8.13,8.13,0,0,0-8.12-8.13H74.83"/><polygon class="b" points="63.04 66.76 68.83 88.15 59.67 96.59 50.51 88.15 56.3 66.76 59.67 69.3 63.04 66.76"/><path class="a" d="M100.45,85,97.31,70.81a9.22,9.22,0,0,0-1.19-2.89,14.62,14.62,0,0,0-6.73-5.87,18.52,18.52,0,0,0-2.74-1L73,57.08a2.92,2.92,0,0,1-.84-.39,3,3,0,0,1-1.28-2.11l-.63-5.39a23.24,23.24,0,0,0,8-12.55c2.43-.22,4.3-2.92,4.3-6.33,0-3.16-1.58-5.7-3.75-6.25"/><path class="a" d="M40.4,24.1c-2.11.6-3.63,3.11-3.63,6.21,0,3.41,1.85,6.11,4.28,6.33a23.34,23.34,0,0,0,8,12.55l-.62,5.39a2.94,2.94,0,0,1-1.29,2.11,3,3,0,0,1-.83.39L32.73,61a11.85,11.85,0,0,0-1.48.46,15.41,15.41,0,0,0-8,6.38,9.39,9.39,0,0,0-1.25,3L19.08,85"/><path class="a" d="M78.82,24.06S79.94,1.5,59.66,1.5,40.4,24.1,40.4,24.1"/><path class="a" d="M41.84,14.4a7.28,7.28,0,0,1,4-3.48c2.75-1,5.83-.2,8.49,1,3.84,1.75,7.19,3.81,11.5,4.29a19.74,19.74,0,0,0,11.55-1.88"/><polyline class="c" points="70.77 53.31 59.67 63.26 48.56 53.31"/><line class="c" x1="76.09" y1="76.86" x2="88.85" y2="76.1"/></svg>