  <svg class="go-premium-svg mastercard" xmlns="http://www.w3.org/2000/svg" viewBox="0 0 36 20">
                    <path d="M22,10A10,10,0,1,1,12,0,10,10,0,0,1,22,10Z" style="fill:#e2574c"></path>
                    <path d="M24,0a9.94,9.94,0,0,0-6,2h0a8.57,8.57,0,0,1,1,.9l-2.08,0A10.28,10.28,0,0,0,16,4h3.67a9.29,9.29,0,0,1,.77,1h-5.1a10,10,0,0,0-.51,1H21a8.52,8.52,0,0,1,.43,1h-7A9.63,9.63,0,0,0,14.2,8h7.56c0.07,0.35.13,0.67,0.17,1H14.05c0,0.33-.05.66-0.05,1h8a8.78,8.78,0,0,1-.06,1H14.05q0.05,0.51.15,1h7.55c-0.08.32-.17,0.65-0.28,1h-7a9.71,9.71,0,0,0,.38,1H21a9.11,9.11,0,0,1-.58,1H15.34A9.73,9.73,0,0,0,16,16L19.69,16a9.73,9.73,0,0,1-1.08.93S18,17,16.82,17A10,10,0,1,0,24,0Z" style="fill:#f4b459"></path>
                  </svg>