<svg xmlns="http://www.w3.org/2000/svg" viewBox="0 0 247 247"><defs><style>.a{fill:#dcf5fc;}.b{fill:#36cccc;}.c{fill:#1cb1bb;}.d{fill:#3edadd;}.e{fill:none;}</style></defs><title>Asset 6</title><circle class="a" cx="128.93" cy="124.3" r="97.54"/><polygon class="b" points="95.78 190.63 202.66 103.91 107.25 156.22 95.78 190.63"/><path class="c" d="M95.78,191.55a.92.92,0,0,1-.52-.17.91.91,0,0,1-.35-1l11.47-34.41a.87.87,0,0,1,.43-.51l95.41-52.31a.93.93,0,0,1,1.21.29.92.92,0,0,1-.19,1.22L96.36,191.34A.9.9,0,0,1,95.78,191.55ZM108,156.85,97.65,187.93,194.2,109.6Z"/><path class="d" d="M48.94,138.82l40,8.23,18.35,9.17L132.05,185a11,11,0,0,0,17.24-.81L210,98.42,49,129.82A4.59,4.59,0,0,0,48.94,138.82Z"/><path class="c" d="M140.34,189.77a11.79,11.79,0,0,1-9-4.13L106.67,157l-18.07-9-39.85-8.2h0a5.51,5.51,0,0,1,.06-10.8l161-31.4a.94.94,0,0,1,.95.4.92.92,0,0,1,0,1L150,184.76a11.81,11.81,0,0,1-9.13,5ZM49.12,137.92l40,8.23a.9.9,0,0,1,.23.08l18.35,9.17a1,1,0,0,1,.28.22l24.8,28.83a10.06,10.06,0,0,0,15.81-.75l59.38-83.94-158.77,31a3.67,3.67,0,0,0,0,7.2Z"/><polygon class="b" points="95.78 190.63 88.9 147.05 195.54 105.87 107.25 156.22 95.78 190.63"/><path class="c" d="M95.78,191.55H95.7a.91.91,0,0,1-.83-.77L88,147.19a.94.94,0,0,1,.58-1L195.21,105a.92.92,0,0,1,.79,1.66l-88,50.18L96.65,190.92A.92.92,0,0,1,95.78,191.55Zm-5.86-43.91,6.18,39.13,10.28-30.84a.92.92,0,0,1,.41-.5l77.68-44.3Z"/><path class="a" d="M93.34,63.45a14.29,14.29,0,0,0-7.61,1.49V63.5A21.82,21.82,0,0,0,63.92,41.68h0A21.83,21.83,0,0,0,42.47,59.49a14.32,14.32,0,0,0-8.83-2.33A14.62,14.62,0,0,0,20.19,71.87v6.28A12.52,12.52,0,0,0,32.7,90.66H94.05a12.51,12.51,0,0,0,12.51-12.51h0A14.64,14.64,0,0,0,93.34,63.45Z"/><path class="b" d="M106.56,78.15h0a15,15,0,0,0-2.37-8.07C102.53,87.14,90,85.7,90,85.7H34.75a57.38,57.38,0,0,1-13.13-1.76A12.51,12.51,0,0,0,32.7,90.66H94.05A12.51,12.51,0,0,0,106.56,78.15Z"/><path class="c" d="M94.05,91.67H32.7A13.54,13.54,0,0,1,19.18,78.15V71.87A15.63,15.63,0,0,1,33.57,56.14a15.3,15.3,0,0,1,8.21,1.76,22.83,22.83,0,0,1,45,5.49,15.3,15.3,0,0,1,6.67-1h0a15.68,15.68,0,0,1,14.16,15.71A13.54,13.54,0,0,1,94.05,91.67ZM34.59,58.14c-.29,0-.59,0-.88,0a13.59,13.59,0,0,0-12.5,13.7v6.28A11.5,11.5,0,0,0,32.7,89.64H94.05a11.51,11.51,0,0,0,11.5-11.49A13.63,13.63,0,0,0,93.26,64.47h0a13.31,13.31,0,0,0-7.07,1.38,1,1,0,0,1-1,0,1,1,0,0,1-.48-.86V63.5a20.8,20.8,0,0,0-41.25-3.83,1,1,0,0,1-1.55.66A13.31,13.31,0,0,0,34.59,58.14Z"/><path class="c" d="M35.76,73.69a1,1,0,0,1-1-1A16.26,16.26,0,0,1,62.51,61.17a1,1,0,0,1-1.44,1.44A14.23,14.23,0,0,0,36.78,72.68,1,1,0,0,1,35.76,73.69Z"/><path class="a" d="M215.63,189.77a11.12,11.12,0,0,0-7.39,2.81,13.12,13.12,0,0,0-26.14,1.65v6.48a11.55,11.55,0,0,0,11.55,11.55H217a9.84,9.84,0,0,0,9.85-9.84V201A11.19,11.19,0,0,0,215.63,189.77Z"/><path class="b" d="M182.42,203.39a11.56,11.56,0,0,0,11.23,8.87H217a9.84,9.84,0,0,0,9.85-9.84V201a11.05,11.05,0,0,0-.48-3.22c-3.07,10.2-9.79,9.68-9.79,9.68H192.83A16.47,16.47,0,0,1,182.42,203.39Z"/><path class="c" d="M217,213.28H193.65a12.59,12.59,0,0,1-12.57-12.57v-6.48a14.14,14.14,0,0,1,27.85-3.46A12.19,12.19,0,0,1,227.82,201v1.47A10.87,10.87,0,0,1,217,213.28Zm-21.74-31.16a12.13,12.13,0,0,0-12.11,12.11v6.48a10.55,10.55,0,0,0,10.54,10.54H217a8.84,8.84,0,0,0,8.83-8.83V201a10.15,10.15,0,0,0-16.88-7.61,1,1,0,0,1-1.68-.63A12.12,12.12,0,0,0,195.22,182.12Z"/><path class="c" d="M214.06,199.74a1,1,0,0,1-1-.7,7.57,7.57,0,0,0-12-3.49,1,1,0,0,1-1.43-.14,1,1,0,0,1,.15-1.43A9.59,9.59,0,0,1,215,198.41a1,1,0,0,1-.65,1.28A.86.86,0,0,1,214.06,199.74Z"/><path class="e" d="M247,247H0V0H247ZM3,244H244V3H3Z"/></svg>