<?xml version="1.0" encoding="utf-8"?>
<!-- Generator: Adobe Illustrator 23.0.2, SVG Export Plug-In . SVG Version: 6.00 Build 0)  -->
<svg version="1.1" id="Isolation_Mode" xmlns="http://www.w3.org/2000/svg" xmlns:xlink="http://www.w3.org/1999/xlink" x="0px"
	 y="0px" width="295.2px" height="376px" viewBox="0 0 295.2 376" style="enable-background:new 0 0 295.2 376;"
	 xml:space="preserve">
<style type="text/css">
	.st0{fill:#1CB1BB;}
	.st1{fill:#344154;}
</style>
<g>
	<g>
		<path class="st0" d="M47.6,99.5c0,2.9,2.3,5.2,5.2,5.2h189.5c2.9,0,5.2-2.3,5.2-5.2c0-2.9-2.3-5.2-5.2-5.2H52.8
			C50,94.2,47.6,96.6,47.6,99.5z"/>
		<path class="st0" d="M51.4,65.4h137.8c2.1,0,3.8-2.3,3.8-5.2s-1.7-5.2-3.8-5.2H51.4c-2.1,0-3.8,2.3-3.8,5.2
			C47.6,63.1,49.3,65.4,51.4,65.4z"/>
		<path class="st1" d="M284.8,60.2v0.2l-49.6-49.6h0.2L224.9,0.4h-0.2c-0.6-0.6-1.7-0.5-2.9,0H21c-11.6,0-21,9.4-21,21V355
			c0,11.6,9.4,21,21,21h253.3c11.6,0,21-9.4,21-21V70.7L284.8,60.2z M224.1,14.6l53.5,53.5h-53.5V14.6z M284.8,355
			c0,5.8-4.7,10.5-10.5,10.5H21c-5.8,0-10.5-4.7-10.5-10.5V21.4c0-5.8,4.7-10.5,10.5-10.5h192.6v62.4c0,0.2,0,0.4,0,0.5
			c0.3,2.6,2.5,4.7,5.2,4.7h65.9L284.8,355L284.8,355z"/>
		<path class="st0" d="M242.4,132.7H52.8c-2.9,0-5.2,2.3-5.2,5.2s2.3,5.2,5.2,5.2h189.5c2.9,0,5.2-2.3,5.2-5.2
			C247.6,135,245.3,132.7,242.4,132.7z"/>
		<path class="st0" d="M242.4,171.6H52.8c-2.9,0-5.2,2.3-5.2,5.2s2.3,5.2,5.2,5.2h189.5c2.9,0,5.2-2.3,5.2-5.2
			C247.6,174,245.3,171.6,242.4,171.6z"/>
		<path class="st0" d="M242.4,246.2H52.8c-2.9,0-5.2,2.3-5.2,5.2s2.3,5.2,5.2,5.2h189.5c2.9,0,5.2-2.3,5.2-5.2
			C247.6,248.6,245.3,246.2,242.4,246.2z"/>
		<path class="st0" d="M242.4,284.7H52.8c-2.9,0-5.2,2.3-5.2,5.2c0,2.9,2.3,5.2,5.2,5.2h189.5c2.9,0,5.2-2.3,5.2-5.2
			C247.6,287,245.3,284.7,242.4,284.7z"/>
		<path class="st0" d="M242.4,323.6H52.8c-2.9,0-5.2,2.3-5.2,5.2s2.3,5.2,5.2,5.2h189.5c2.9,0,5.2-2.3,5.2-5.2
			S245.3,323.6,242.4,323.6z"/>
		<path class="st0" d="M242.4,210H52.8c-2.9,0-5.2,2.3-5.2,5.2s2.3,5.2,5.2,5.2h189.5c2.9,0,5.2-2.3,5.2-5.2
			C247.6,212.4,245.3,210,242.4,210z"/>
	</g>
</g>
</svg>
