   <svg class="go-premium-svg paypal" xmlns="http://www.w3.org/2000/svg" viewBox="0 0 100 28">
                    <path d="M76.15,7.78H70.66a1.07,1.07,0,0,0-.81.65L67.59,22.64a0.43,0.43,0,0,0,.48.48H71a0.43,0.43,0,0,0,.48-0.48l0.65-4A0.74,0.74,0,0,1,72.92,18H74.7q5.57,0,6.3-5.33a4.23,4.23,0,0,0-.65-3.55,6.51,6.51,0,0,0-4.2-1.29m0.65,5.33C76.47,15,75,15,73.57,15h-1l0.65-3.71A0.41,0.41,0,0,1,73.73,11h0.32c1,0,1.94,0,2.42.65,0.32,0.16.32,0.65,0.32,1.45" style="fill:#139ad6"></path>
                    <path d="M36.59,7.78H31.1a1.07,1.07,0,0,0-.81.65L28,22.64a0.43,0.43,0,0,0,.48.48H31.1a1.07,1.07,0,0,0,.81-0.65l0.65-3.88A0.74,0.74,0,0,1,33.36,18h1.78q5.57,0,6.3-5.33a4.23,4.23,0,0,0-.65-3.55,6.21,6.21,0,0,0-4.2-1.29m0.65,5.33C36.91,15,35.46,15,34,15H33.19l0.65-3.71A0.41,0.41,0,0,1,34.33,11h0.32c1,0,1.94,0,2.42.65a1.73,1.73,0,0,1,.16,1.45" style="fill:#263b80"></path>
                    <path d="M53.22,13H50.64a0.55,0.55,0,0,0-.48.32L50,14.08l-0.16-.32a3.8,3.8,0,0,0-3.07-1.13,6.21,6.21,0,0,0-6,5.33,4.81,4.81,0,0,0,1,4,4.07,4.07,0,0,0,3.39,1.29,5.16,5.16,0,0,0,3.71-1.45l-0.16.81a0.43,0.43,0,0,0,.48.48H51.6a1.07,1.07,0,0,0,.81-0.65l1.45-9A1.69,1.69,0,0,0,53.22,13m-3.71,5.17a3.12,3.12,0,0,1-3.07,2.58,2.58,2.58,0,0,1-1.78-.65,3.44,3.44,0,0,1-.48-1.94,2.88,2.88,0,0,1,4.68-1.94,2.82,2.82,0,0,1,.65,1.94" style="fill:#263b80"></path>
                    <path d="M92.62,13H90a0.55,0.55,0,0,0-.48.32l-0.16.81-0.16-.32a3.8,3.8,0,0,0-3.07-1.13,6.21,6.21,0,0,0-6,5.33,4.81,4.81,0,0,0,1,4,4.07,4.07,0,0,0,3.39,1.29,5.16,5.16,0,0,0,3.71-1.45l-0.16.81a0.43,0.43,0,0,0,.48.48H91a1.07,1.07,0,0,0,.81-0.65l1.45-9A1,1,0,0,0,92.62,13m-3.71,5.17a3.12,3.12,0,0,1-3.07,2.58,2.58,2.58,0,0,1-1.78-.65,3.44,3.44,0,0,1-.48-1.94,2.88,2.88,0,0,1,4.68-1.94,1.85,1.85,0,0,1,.65,1.94" style="fill:#139ad6"></path>
                    <path d="M67.27,13H64.52a0.84,0.84,0,0,0-.65.32l-3.55,5.49L58.71,13.6a0.75,0.75,0,0,0-.81-0.48H55.32a0.56,0.56,0,0,0-.48.65l2.91,8.56L55,26.19a0.55,0.55,0,0,0,.32.81H57.9a0.84,0.84,0,0,0,.65-0.32l8.88-12.76c0.48-.48.16-1-0.16-1" style="fill:#263b80"></path>
                    <path d="M95.69,8.27L93.43,22.8a0.43,0.43,0,0,0,.48.48h2.26A1.07,1.07,0,0,0,97,22.64L99.24,8.43a0.43,0.43,0,0,0-.48-0.48H96.18c-0.16-.16-0.32,0-0.48.32" style="fill:#139ad6"></path>
                    <path d="M19.33,2.94C18.2,1.65,16.1,1,13.19,1H5.12A1.39,1.39,0,0,0,4,2L0.76,23.12a0.74,0.74,0,0,0,.65.81h5L7.7,16v0.32a1.39,1.39,0,0,1,1.13-1h2.42c4.68,0,8.24-1.94,9.37-7.27V7.62h0a5.64,5.64,0,0,0-1.29-4.68" style="fill:#263b80"></path>
                    <path d="M20.46,7.62h0V8.11c-1.13,5.49-4.68,7.27-9.37,7.27H8.67a1.39,1.39,0,0,0-1.13,1L5.92,26.19a0.59,0.59,0,0,0,.65.65h4.2a0.9,0.9,0,0,0,1-.81V25.87l0.81-5V20.54a0.9,0.9,0,0,1,1-.81h0.65c4,0,7.27-1.61,8.07-6.46,0.32-1.94.16-3.71-.81-4.84a1.65,1.65,0,0,0-1-.81" style="fill:#139ad6"></path>
                    <path d="M19.33,7.14C19.17,7.14,19,7,18.84,7a0.59,0.59,0,0,1-.48-0.16,8.53,8.53,0,0,0-2.1-.16H10a0.59,0.59,0,0,0-.48.16A0.89,0.89,0,0,0,9,7.62L7.7,16v0.32a1.39,1.39,0,0,1,1.13-1h2.42c4.68,0,8.24-1.94,9.37-7.27a0.59,0.59,0,0,1,.16-0.48A1.71,1.71,0,0,0,20,7.3a1.61,1.61,0,0,0-.65-0.16" style="fill:#232c65"></path>
                  </svg>