<svg xmlns="http://www.w3.org/2000/svg" viewBox="0 0 109.72 130.26"><defs><style>.a{fill:#1cb1bb;}.b,.c{fill:none;stroke:#344154;stroke-linecap:round;stroke-width:3px;}.b{stroke-miterlimit:10;}.c{stroke-linejoin:round;}</style></defs><title>student</title><path class="a" d="M72.42,86.28a3.71,3.71,0,0,1-1-.46l-.21,0L54.87,103.09,44,91.51l-5.52-5.73-.11,0a4,4,0,0,1-1,.46l-10.44,3,28,28.57,28-28.54Z"/><path class="b" d="M78.89,34.37c-7,3.22-16,4.82-24.17,4.83s-17.21-1.61-24.16-4.83"/><path class="b" d="M80.13,43.29c2.75.79,4.73,4.07,4.73,8.1,0,4.44-2.42,8-5.59,8.25A30.36,30.36,0,0,1,68.86,76l.81,7a3.84,3.84,0,0,0,1.67,2.76,3.69,3.69,0,0,0,1.08.51l17.69,5.14A16.8,16.8,0,0,1,97,95.05a20.5,20.5,0,0,1,7,11.74l4.14,20.78a1,1,0,0,1-.2.83,1,1,0,0,1-.77.36h-19l-85.75,0a1,1,0,0,1-.78-.36,1,1,0,0,1-.2-.83l4.16-20.78a20.41,20.41,0,0,1,7-11.73,16.77,16.77,0,0,1,6.94-3.63l17.68-5.12A3.89,3.89,0,0,0,40.09,83l.82-7A30.33,30.33,0,0,1,30.5,59.62c-3.16-.29-5.58-3.81-5.58-8.25,0-4,2-7.31,4.74-8.1"/><path class="b" d="M30.55,34.37a39.25,39.25,0,0,0-.89,8.9"/><path class="b" d="M79.73,43.25a38.67,38.67,0,0,0-.83-8.87"/><line class="b" x1="38.41" y1="85.76" x2="54.75" y2="102.7"/><line class="b" x1="71.09" y1="85.77" x2="54.75" y2="102.7"/><line class="b" x1="78.9" y1="34.39" x2="78.9" y2="18.22"/><line class="b" x1="30.56" y1="18.21" x2="30.55" y2="34.37"/><polyline class="c" points="54.91 1.5 94.97 12.24 54.73 24.37 54.73 24.37 14.5 12.21 54.91 1.5"/><line class="c" x1="94.96" y1="18.5" x2="94.97" y2="32.55"/><line class="b" x1="74.34" y1="113.86" x2="89.77" y2="113.87"/><path class="c" d="M98.49,36.86a5,5,0,0,1-7,0"/></svg>