<?xml version="1.0" encoding="utf-8"?>
<!-- Generator: Adobe Illustrator 23.0.2, SVG Export Plug-In . SVG Version: 6.00 Build 0)  -->
<svg version="1.1" id="Isolation_Mode" xmlns="http://www.w3.org/2000/svg" xmlns:xlink="http://www.w3.org/1999/xlink" x="0px"
	 y="0px" width="295.2px" height="376px" viewBox="0 0 295.2 376" style="enable-background:new 0 0 295.2 376;"
	 xml:space="preserve">
<style type="text/css">
	.st0{fill:#1CB1BB;}
	.st1{fill:#344154;}
</style>
<g>
	<g>
		<path class="st0" d="M40.2,99.5c0,2.9,2.3,5.2,5.2,5.2h87.5c2.9,0,5.2-2.3,5.2-5.2c0-2.9-2.3-5.2-5.2-5.2H45.5
			C42.6,94.2,40.2,96.6,40.2,99.5z"/>
		<path class="st0" d="M44.1,65.4h145.1c2.1,0,3.8-2.3,3.8-5.2s-1.7-5.2-3.8-5.2H44.1c-2.1,0-3.8,2.3-3.8,5.2
			C40.3,63.1,42,65.4,44.1,65.4z"/>
		<path class="st1" d="M284.8,60.2v0.2l-49.6-49.6h0.2L224.9,0.4h-0.2c-0.6-0.6-1.7-0.5-2.9,0H21c-11.6,0-21,9.4-21,21V355
			c0,11.6,9.4,21,21,21h253.3c11.6,0,21-9.4,21-21V70.7L284.8,60.2z M224.1,14.6l53.5,53.5h-53.5V14.6z M284.8,355
			c0,5.8-4.7,10.5-10.5,10.5H21c-5.8,0-10.5-4.7-10.5-10.5V21.4c0-5.8,4.7-10.5,10.5-10.5h192.6v62.4c0,0.2,0,0.4,0,0.5
			c0.3,2.6,2.5,4.7,5.2,4.7h65.9L284.8,355L284.8,355z"/>
		<path class="st0" d="M132.9,132.7H45.5c-2.9,0-5.2,2.3-5.2,5.2s2.3,5.2,5.2,5.2H133c2.9,0,5.2-2.3,5.2-5.2
			S135.8,132.7,132.9,132.7z"/>
		<path class="st0" d="M132.9,171.6H45.5c-2.9,0-5.2,2.3-5.2,5.2s2.3,5.2,5.2,5.2H133c2.9,0,5.2-2.3,5.2-5.2
			C138.2,174,135.8,171.6,132.9,171.6z"/>
		<path class="st0" d="M132.9,246.2H45.5c-2.9,0-5.2,2.3-5.2,5.2s2.3,5.2,5.2,5.2H133c2.9,0,5.2-2.3,5.2-5.2
			C138.2,248.6,135.8,246.2,132.9,246.2z"/>
		<path class="st0" d="M132.9,284.7H45.5c-2.9,0-5.2,2.3-5.2,5.2c0,2.9,2.3,5.2,5.2,5.2H133c2.9,0,5.2-2.3,5.2-5.2
			S135.8,284.7,132.9,284.7z"/>
		<path class="st0" d="M132.9,323.6H45.5c-2.9,0-5.2,2.3-5.2,5.2s2.3,5.2,5.2,5.2H133c2.9,0,5.2-2.3,5.2-5.2
			S135.8,323.6,132.9,323.6z"/>
		<path class="st0" d="M132.9,210H45.5c-2.9,0-5.2,2.3-5.2,5.2s2.3,5.2,5.2,5.2H133c2.9,0,5.2-2.3,5.2-5.2
			C138.2,212.4,135.8,210,132.9,210z"/>
		<path class="st0" d="M160.9,99.5c0,2.9,2.3,5.2,5.2,5.2h87.5c2.9,0,5.2-2.3,5.2-5.2c0-2.9-2.3-5.2-5.2-5.2h-87.5
			C163.3,94.2,160.9,96.6,160.9,99.5z"/>
		<path class="st0" d="M253.6,132.7h-87.5c-2.9,0-5.2,2.3-5.2,5.2s2.3,5.2,5.2,5.2h87.5c2.9,0,5.2-2.3,5.2-5.2
			C258.9,135,256.5,132.7,253.6,132.7z"/>
		<path class="st0" d="M253.6,171.6h-87.5c-2.9,0-5.2,2.3-5.2,5.2s2.3,5.2,5.2,5.2h87.5c2.9,0,5.2-2.3,5.2-5.2
			C258.9,174,256.5,171.6,253.6,171.6z"/>
		<path class="st0" d="M253.6,246.2h-87.5c-2.9,0-5.2,2.3-5.2,5.2s2.3,5.2,5.2,5.2h87.5c2.9,0,5.2-2.3,5.2-5.2
			C258.9,248.6,256.5,246.2,253.6,246.2z"/>
		<path class="st0" d="M253.6,284.7h-87.5c-2.9,0-5.2,2.3-5.2,5.2c0,2.9,2.3,5.2,5.2,5.2h87.5c2.9,0,5.2-2.3,5.2-5.2
			C258.9,287,256.5,284.7,253.6,284.7z"/>
		<path class="st0" d="M253.6,323.6h-87.5c-2.9,0-5.2,2.3-5.2,5.2s2.3,5.2,5.2,5.2h87.5c2.9,0,5.2-2.3,5.2-5.2
			S256.5,323.6,253.6,323.6z"/>
		<path class="st0" d="M253.6,210h-87.5c-2.9,0-5.2,2.3-5.2,5.2s2.3,5.2,5.2,5.2h87.5c2.9,0,5.2-2.3,5.2-5.2
			C258.9,212.4,256.5,210,253.6,210z"/>
	</g>
</g>
</svg>
