<svg class="go-premium-svg verisign" version="1.1" xmlns="http://www.w3.org/2000/svg" x="0px" y="0px" viewBox="0 0 326 160" style="enable-background:new 0 0 326 160;" xml:space="preserve">
                    <g>
                      <path style="fill:#9B0033;" d="M112,40.6h154.2c15.5,0,28.4,4.9,39.3,14.9c10.7,10,15.9,21.8,16.1,36.2h2.2h-2.2c-0.2,14.1-5.4,25.9-16.1,36
                                l0,0c-10.9,10.1-23.8,15.1-39.3,15.1H112c-1.2,0-2.2,1-2.2,2.2s1,2.2,2.2,2.2h154.2c16.4,0,30.6-5.5,42.3-16.3l0,0
                                c11.5-10.7,17.4-23.9,17.5-39.1l0,0c0.1-15.1-6.3-29.4-17.5-39.4c-11.6-10.9-25.8-16.2-42.2-16.2H112c-1.2-0.1-2.3,0.8-2.3,2.1
                                c-0.1,1.2,0.8,2.3,2.1,2.4C111.8,40.6,111.9,40.6,112,40.6z M112,40.6h154.2c15.5,0,28.4,4.9,39.3,14.9
                                c10.7,10,15.9,21.8,16.1,36.2h2.2h-2.2c-0.2,14.1-5.4,25.9-16.1,36l0,0c-10.9,10.1-23.8,15.1-39.3,15.1H112c-1.2,0-2.2,1-2.2,2.2
                                s1,2.2,2.2,2.2h154.2c16.4,0,30.6-5.5,42.3-16.3l0,0c11.5-10.7,17.4-23.9,17.5-39.1l0,0c0.1-15.1-6.3-29.4-17.5-39.4
                                c-11.6-10.9-25.8-16.2-42.2-16.2H112c-1.2-0.1-2.3,0.8-2.3,2.1c-0.1,1.2,0.8,2.3,2.1,2.4C111.8,40.6,111.9,40.6,112,40.6z"></path>
                      <path style="fill:#9B0033;" d="M99.3,39.4c8.7,5,15.9,12.2,21,20.8c5.1,8.9,7.8,19.1,7.8,29.4c0,10.3-2.7,20.5-7.8,29.4
                                c-5.1,8.7-12.3,15.9-21,21c-27.6,16.2-63,7-79.2-20.6c-0.1-0.1-0.1-0.2-0.2-0.4c-5.3-8.7-7.8-18.4-8-29.4c0-10.3,2.7-20.5,8-29.4
                                c5-8.7,12.1-15.9,20.8-20.8C58.8,28.7,81.3,28.7,99.3,39.4 M70,19.6c-12.4,0-24.6,3.3-35.3,9.6C24.4,35.3,15.8,44,9.5,54.2
                                c-12.7,21.9-12.7,48.9,0,70.8c6.2,10.4,14.8,19.1,25.1,25.4c10.8,6.2,22.9,9.5,35.3,9.6c13.1-0.1,24.9-3.3,35.5-9.6
                                c10.4-6.2,19.1-15,25.2-25.4c6.2-10.8,9.5-23,9.6-35.4c0-12.4-3.3-24.7-9.6-35.4c-6.2-10.4-14.9-19-25.2-25.1
                                C94.9,22.8,83.1,19.7,70,19.6z"></path>
                      <path style="fill:#9B0033;" d="M298.7,34.3h6.1v1.4h-2.1v5.9H301v-5.9h-2.3V34.3 M313.9,34.3v7.3h-1.7v-4.7l-1.9,3.1h-0.3l-1.8-3.1v4.7h-1.7
                                v-7.3h1.8l2,3.1l1.9-3.1H313.9z"></path>
                      <path d="M111.6,55.8h-5.3v5.4h5.3V55.8z M106.3,42.1h5.3v5.3h-5.3V42.1z M120,28.1h-5.4v-5.3h5.4C120,22.8,120,28.1,120,28.1z
                                M130.5,17.2h10.4v-5.8h-10.4v16.7H120v5.4h-8.9v3.7h-4.7v4.9h-5.7v8.4h-5.4v5.3h-3.6v5.4h-4c-7.6,11.1-13.9,22.9-18.8,35.4
                                c-10.3-14.4-19.8-23-28.6-25.9c-2.4-0.7-4.1-0.1-5.1,2c-1,2.1-0.1,4.8,2.9,8c8.9,9.8,17.2,23.8,24.8,41.7c1.1,2.9,3.7,4.4,7.8,4.8
                                c3.8,0.3,6.4-1.1,7.6-4.3c5.6-14.7,11.9-27.3,19.4-38v-6.1h4.3v-5.3h4.6v-6.4h5.3v-6h5.4v-5.4h4.3v-6.6h4.7v-4.4h4.6V33.5h5.3v-5.4
                                h6.1v-5.4h-6.1v5.4h-5.3v5.4h-5.3v5.3h-5.3v-5.3h5.3V17.1L130.5,17.2L130.5,17.2z"></path>
                      <rect x="130.6" y="17.1" style="fill:#A10045;" width="5.3" height="5.6"></rect>
                      <rect x="106.3" y="42.1" style="fill:#FFFFFF;" width="5.3" height="5.3"></rect>
                      <rect x="146.9" y="11.4" style="fill:#9B0033;" width="5.7" height="5.7"></rect>
                      <polyline points="147.1,11.4 147.1,5.7 141.4,5.7 141.4,11.4 	"></polyline>
                      <rect x="146.9" style="fill:#9B0033;" width="5.7" height="5.7"></rect>
                      <path style="fill:#9B0033;" d="M164.5,84.8l-8.1-20.8h5.6l5.3,15.3l5.3-15.3h5.4L170,84.8H164.5z"></path>
                      <path style="fill:#9B0033;" d="M194.2,78.2h-11.2c0.3,1.8,1.9,3.1,3.8,3c1.4,0,2.8-0.6,3.8-1.6l2.7,2.6c-1.8,1.9-4.3,2.9-7,2.8
                                c-5.2,0-8.5-3.3-8.5-8.1s3.4-8.2,8.3-8.2C191.7,68.7,194.5,72.4,194.2,78.2z M189.3,75.5c0.1-1.6-1.1-3.1-2.7-3.2
                                c-0.1,0-0.2,0-0.4,0c-1.8,0-3,1.3-3.3,3.2H189.3z"></path>
                      <path style="fill:#9B0033;" d="M203,71.6c1-1.9,3-3,5.2-3v4.6c-3-0.3-4.9,1.1-5.2,3.4v8.2h-5.1V68.9h5.1V71.6z"></path>
                      <path style="fill:#9B0033;" d="M216.6,64.3c0,1.5-1.2,2.7-2.7,2.7c-1.5,0-2.7-1.2-2.7-2.7c0-1.5,1.2-2.7,2.7-2.7l0,0c1.4-0.1,2.6,1.1,2.7,2.5
                                C216.6,64.1,216.6,64.2,216.6,64.3z M211.4,84.8v-16h5.1v16H211.4z"></path>
                      <path style="fill:#9B0033;" d="M237.6,66.1l-2,4.1c-2-1.2-4.3-2-6.6-2.2c-1.4,0-2.3,0.5-2.3,1.5c0,3.6,10.9,1.5,10.9,9c0,4.2-3.7,6.4-8.3,6.4
                                c-3.4,0-6.8-1.2-9.5-3.3l2-4.1c2.1,1.8,4.7,2.9,7.5,3.1c1.7,0,2.7-0.6,2.7-1.8c0-3.7-10.9-1.5-10.9-8.8c0-3.8,3.3-6.3,8.3-6.3
                                C232.4,63.8,235.2,64.6,237.6,66.1z"></path>
                      <path style="fill:#9B0033;" d="M246.7,64.3c0,1.5-1.2,2.7-2.7,2.7c-1.5,0-2.7-1.2-2.7-2.7c0-1.5,1.2-2.7,2.7-2.7l0,0c1.4-0.1,2.6,1.1,2.7,2.5
                                C246.7,64.1,246.7,64.2,246.7,64.3z M241.4,84.8v-16h5.1v16H241.4L241.4,84.8z"></path>
                      <path style="fill:#9B0033;" d="M266.8,83.4c0,4.5-3.5,7.4-8.6,7.4c-2.5,0-5-0.7-7.1-2.1l1.8-3.5c1.5,1,3.2,1.6,5,1.6c2.5,0,4-1.3,4-3.3v-1.7
                                c-1.1,1.4-2.8,2.2-4.6,2.1c-4,0-6.9-3.1-6.9-7.7s2.8-7.6,6.7-7.6c1.8-0.1,3.6,0.7,4.7,2.1v-2h5.1L266.8,83.4L266.8,83.4z
                                M261.7,76.4c0-2.3-1.3-3.9-3.3-3.9c-2,0-3.4,1.5-3.4,3.9c0,2.4,1.4,3.9,3.4,3.9C260.4,80.3,261.7,78.7,261.7,76.4L261.7,76.4z"></path>
                      <path style="fill:#9B0033;" d="M287.9,74.8v10.1h-5.1v-8.7c0.1-1.5-1-2.8-2.5-3c-0.1,0-0.2,0-0.4,0c-1.8,0-3.2,1.4-3.3,3.2v8.5h-5.1v-16h5.1
                                v2.6c1.1-1.8,3.2-2.9,5.3-2.8C285.6,68.6,287.9,71,287.9,74.8z"></path>
                      <path style="fill:#9B0033;" d="M168.1,101.3v16.6h-5.3v-16.5h-6.2V97h17.8v4.3L168.1,101.3L168.1,101.3z"></path>
                      <path style="fill:#9B0033;" d="M184.2,104.5c1.1-1.9,3-3,5.2-2.9v4.6c-3-0.3-4.9,1.1-5.2,3.4v8.3H179v-16h5.1V104.5z"></path>
                      <path style="fill:#9B0033;" d="M210.2,117.8h-5.1v-2.7c-1,1.9-3.1,3-5.2,2.8c-3.5,0-5.7-2.4-5.7-6.1v-10.1h5.1v8.6c0,1.9,1,3.1,2.7,3.1
                                c2,0,3.1-1.6,3.1-3.8v-7.9h5.2V117.8z"></path>
                      <path style="fill:#9B0033;" d="M229.5,103.4l-1.7,3.3c-1.5-0.9-3.3-1.5-5-1.6c-0.9,0-1.6,0.4-1.6,1.1c0,2.2,8.4,1.1,8.4,6.7
                                c0,3.3-2.9,5.1-6.7,5.1c-2.6,0.1-5.1-0.7-7.2-2.3l1.6-3.3c1.6,1.2,3.6,1.9,5.7,2c1,0,1.7-0.4,1.7-1.1c0-2.3-8.3-1.1-8.2-6.7
                                c0-3.3,2.8-5.1,6.5-5.1C225.3,101.6,227.5,102.2,229.5,103.4z"></path>
                      <path style="fill:#9B0033;" d="M245.7,116.9c-1.3,0.7-2.8,1.1-4.3,1.1c-3.1,0-5.3-1.8-5.3-5.1v-7.1h-2.2v-3.4h2.2v-4.5h5.1v4.4h4.2v3.4h-4.2
                                v6.3c0,1.2,0.5,1.8,1.5,1.8c0.7-0.1,1.4-0.2,2-0.5L245.7,116.9z"></path>
                      <path style="fill:#9B0033;" d="M266.2,111.2H255c0.3,1.8,1.9,3.1,3.8,3c1.4,0,2.8-0.6,3.8-1.6l2.7,2.6c-1.8,1.9-4.3,2.9-7,2.8
                                c-5.2,0-8.5-3.3-8.5-8.1s3.4-8.2,8.3-8.2C263.8,101.6,266.5,105.3,266.2,111.2z M261.3,108.4c0.1-1.6-1.1-3.1-2.7-3.2
                                c-0.1,0-0.2,0-0.4,0c-1.8,0-3,1.3-3.3,3.2H261.3z"></path>
                      <path style="fill:#9B0033;" d="M288,117.8h-5.1v-2.1c-1.1,1.5-2.9,2.4-4.8,2.3c-4.5,0-7.5-3.3-7.5-8.3s2.9-8.1,7.3-8.1
                                c1.9-0.1,3.7,0.8,4.9,2.3v-8.1h5.1V117.8z M282.9,109.9c0-2.5-1.4-4.2-3.6-4.2c-2.1,0-3.6,1.7-3.6,4.2s1.5,4.2,3.6,4.2
                                C281.5,114.1,282.9,112.3,282.9,109.9z"></path>
                    </g>
                  </svg>