  <svg class="go-premium-svg visa" xmlns="http://www.w3.org/2000/svg" viewBox="0 0 62 20">
                    <path d="M20,2L15.81,12.85l-0.45-2.38s0-.12,0-0.13L13.94,3.82A2.52,2.52,0,0,0,11.19,2H4.62A16.37,16.37,0,0,1,9,3.73a1.62,1.62,0,0,1,.74,1L13.29,18h4.47L24.42,2H20Z" style="fill:#2e3b94"></path>
                    <path d="M26.14,2L23.5,18h4.22L30.36,2H26.14Z" style="fill:#2e3b94"></path>
                    <path d="M53.94,2H50.67c-1,0-1.77.07-2.21,1.1L42.16,18h4.45l1.23-2.82h5L53.45,18h3.93Zm-4.89,9.41c0.09,0,1.7-5.34,1.7-5.34L52,11.41h-3Z" style="fill:#2e3b94"></path>
                    <path d="M38.85,8.52c-1.44-.7-2.32-1.19-2.32-1.91s0.74-1.33,2.37-1.33a7,7,0,0,1,3.06.6L42.33,6l0.56-3.35A10.32,10.32,0,0,0,39.2,2c-4.06,0-6.92,2.11-6.94,5.13,0,2.23,2.05,3.46,3.6,4.2S38,12.57,38,13.26c0,1-1.28,1.51-2.48,1.51a8.38,8.38,0,0,1-3.86-.83l-0.54-.25-0.58,3.48a13,13,0,0,0,4.58.83c4.32,0,7.11-2.07,7.15-5.3C42.31,11,41.22,9.62,38.85,8.52Z" style="fill:#2e3b94"></path>
                  </svg>