<svg xmlns="http://www.w3.org/2000/svg" viewBox="0 0 103.63 130.72"><defs><style>.a,.b{fill:none;stroke:#344154;stroke-linecap:round;stroke-width:3px;}.a{stroke-linejoin:round;}.b{stroke-miterlimit:10;}.c{fill:#1cb1bb;}</style></defs><title>worker</title><path class="a" d="M59.31,79.74l-2.39,2.34a7.28,7.28,0,0,1-10.2,0l-2.4-2.34"/><polyline class="b" points="55.53 83.44 63.97 115.24 51.81 128.5 39.67 115.24 48.1 83.44"/><path class="b" d="M75.44,113.93l26.43-5.47L98,88.91a19.32,19.32,0,0,0-6.61-11,15.72,15.72,0,0,0-6.47-3.39L68.2,69.63a3.45,3.45,0,0,1-1-.47,3.64,3.64,0,0,1-1.58-2.6L64.84,60a28.42,28.42,0,0,0,9.78-15.39c3-.26,5.27-3.58,5.27-7.76,0-3.86-1.94-7-4.6-7.65"/><path class="b" d="M28.2,29.2c-2.59.74-4.46,3.82-4.46,7.61C23.74,41,26,44.3,29,44.57A28.6,28.6,0,0,0,38.79,60L38,66.56a3.58,3.58,0,0,1-2.59,3.07L18.79,74.46a16,16,0,0,0-6.52,3.41,19.21,19.21,0,0,0-6.6,11L1.76,108.46l26.43,5.47"/><path class="b" d="M75.29,29.16S76.67,1.5,51.81,1.5,28.2,29.2,28.2,29.2"/><path class="b" d="M30,17.32a8.9,8.9,0,0,1,4.93-4.27c3.37-1.22,7.15-.24,10.41,1.24C50,16.44,54.13,19,59.41,19.55a24.16,24.16,0,0,0,14.16-2.3"/><rect class="b" x="34.25" y="28.24" width="13.14" height="8.41" rx="1.28"/><rect class="b" x="56.24" y="28.24" width="13.13" height="8.41" rx="1.28"/><line class="b" x1="47.39" y1="31.34" x2="56.24" y2="31.34"/><line class="b" x1="28.19" y1="28.24" x2="34.25" y2="30.95"/><line class="b" x1="69.38" y1="30.95" x2="75.31" y2="28.24"/><polyline class="a" points="65.43 65.02 51.82 77.21 38.2 65.02"/><line class="a" x1="73.56" y1="97.78" x2="88.97" y2="94.88"/><path class="c" d="M46.39,113.59l5.42,5.92,5.43-5.92-2.59-9.77a32.7,32.7,0,0,1-6.45,3Z"/></svg>