<svg xmlns="http://www.w3.org/2000/svg" viewBox="0 0 247 247"><defs><style>.a{fill:#dcf5fc;}.b{fill:#36cccc;}.c{fill:#1cb1bb;}.d{fill:#3edadd;}.e{fill:#91e1ff;}.f{fill:none;}</style></defs><title>Asset 4</title><circle class="a" cx="129.84" cy="126.73" r="97.54"/><path class="a" d="M86.69,207.42a12.36,12.36,0,0,0-6.57,1.28v-1.24a18.85,18.85,0,0,0-18.85-18.85h0A18.85,18.85,0,0,0,42.74,204a12.41,12.41,0,0,0-7.63-2,12.63,12.63,0,0,0-11.62,12.71v5.42A10.81,10.81,0,0,0,34.3,230.92h53a10.8,10.8,0,0,0,10.8-10.81h0A12.63,12.63,0,0,0,86.69,207.42Z"/><path class="b" d="M98.11,220.11h0a12.92,12.92,0,0,0-2-7c-1.44,14.73-12.28,13.49-12.28,13.49H36.07a49.48,49.48,0,0,1-11.34-1.52,10.78,10.78,0,0,0,9.57,5.8h53A10.8,10.8,0,0,0,98.11,220.11Z"/><path class="c" d="M87.31,231.8h-53a11.7,11.7,0,0,1-11.68-11.69v-5.42A13.5,13.5,0,0,1,35.05,201.1a13.14,13.14,0,0,1,7.09,1.52A19.73,19.73,0,0,1,81,207.36a13.28,13.28,0,0,1,5.76-.82h0A13.55,13.55,0,0,1,99,220.11,11.7,11.7,0,0,1,87.31,231.8Zm-51.38-29-.76,0a11.75,11.75,0,0,0-10.8,11.84v5.42A9.94,9.94,0,0,0,34.3,230h53a9.94,9.94,0,0,0,9.93-9.93,11.8,11.8,0,0,0-10.62-11.82h0a11.56,11.56,0,0,0-6.11,1.2.89.89,0,0,1-.85,0,.88.88,0,0,1-.42-.75v-1.24a18,18,0,0,0-35.63-3.31.91.91,0,0,1-.52.65.88.88,0,0,1-.83-.08A11.51,11.51,0,0,0,35.93,202.83Z"/><path class="c" d="M36.94,216.26a.87.87,0,0,1-.87-.87,14.05,14.05,0,0,1,24-9.94.88.88,0,0,1,0,1.24.89.89,0,0,1-1.25,0,12.3,12.3,0,0,0-21,8.7A.87.87,0,0,1,36.94,216.26Z"/><path class="d" d="M131.7,155.76h-9.39L98.94,175.24s-6.73-17-4.1-34.23S122,110.28,122,110.28h9.73Z"/><path class="d" d="M98.94,176.12a.83.83,0,0,1-.22,0,.89.89,0,0,1-.6-.52c-.07-.17-6.79-17.4-4.15-34.7,1.13-7.37,6.12-14.9,14.85-22.37a85.1,85.1,0,0,1,12.73-9,.91.91,0,0,1,.42-.11h9.73a.87.87,0,0,1,.88.88v45.48a.87.87,0,0,1-.88.88h-9.07L99.5,175.92A.89.89,0,0,1,98.94,176.12Zm23.26-65a84.9,84.9,0,0,0-12.26,8.7c-5.76,4.93-12.91,12.64-14.23,21.28-2.18,14.3,2.21,28.55,3.63,32.63l22.41-18.68a.89.89,0,0,1,.56-.2h8.51V111.16Z"/><path class="b" d="M131.7,155.76h9.39l23.37,19.48s6.74-17,4.1-34.23-27.13-30.73-27.13-30.73H131.7Z"/><path class="c" d="M164.46,176.12a.89.89,0,0,1-.56-.2l-23.13-19.28H131.7a.88.88,0,0,1-.88-.88V110.28a.88.88,0,0,1,.88-.88h9.73a.88.88,0,0,1,.42.11,85.1,85.1,0,0,1,12.73,9c8.73,7.47,13.72,15,14.85,22.37,2.64,17.3-4.08,34.53-4.15,34.7a.87.87,0,0,1-.6.52A.78.78,0,0,1,164.46,176.12Zm-31.88-21.23h8.51a.89.89,0,0,1,.56.2l22.42,18.68c1.41-4.08,5.8-18.35,3.62-32.63-1.32-8.65-8.48-16.36-14.25-21.3a83.49,83.49,0,0,0-12.24-8.68h-8.62Z"/><path class="a" d="M204.77,195.36a9.63,9.63,0,0,0-6.39,2.43,11.33,11.33,0,0,0-22.58,1.42v5.6a10,10,0,0,0,10,10h20.14a8.5,8.5,0,0,0,8.5-8.5V205A9.66,9.66,0,0,0,204.77,195.36Z"/><path class="c" d="M176.08,207.13a10,10,0,0,0,9.7,7.66h20.14a8.5,8.5,0,0,0,8.5-8.5V205a9.44,9.44,0,0,0-.41-2.78c-2.65,8.81-8.46,8.36-8.46,8.36H185.07A14.25,14.25,0,0,1,176.08,207.13Z"/><path class="c" d="M205.92,215.67H185.78a10.87,10.87,0,0,1-10.86-10.86v-5.6a12.21,12.21,0,0,1,24.06-3A10.52,10.52,0,0,1,215.3,205v1.27A9.39,9.39,0,0,1,205.92,215.67Zm-18.78-26.92a10.48,10.48,0,0,0-10.47,10.46v5.6a9.12,9.12,0,0,0,9.11,9.11h20.14a7.64,7.64,0,0,0,7.62-7.63V205A8.76,8.76,0,0,0,199,198.45a.88.88,0,0,1-1.45-.55A10.47,10.47,0,0,0,187.14,188.75Z"/><path class="c" d="M203.41,204a.89.89,0,0,1-.83-.61,6.54,6.54,0,0,0-10.35-3,.88.88,0,0,1-1.11-1.36,8.29,8.29,0,0,1,13.13,3.83.87.87,0,0,1-.56,1.1A.92.92,0,0,1,203.41,204Z"/><path class="a" d="M131.7,16.25S103.85,45.61,104.79,72s17.52,83.81,17.52,83.81h18.78S157.67,98.28,158.61,72,131.7,16.25,131.7,16.25Z"/><path class="d" d="M131.7,16.25s-13.77,14.51-21.61,32.28h43.23C145.47,30.76,131.7,16.25,131.7,16.25Z"/><circle class="e" cx="131.7" cy="77.39" r="14.22" transform="translate(-16.15 115.79) rotate(-45)"/><path class="c" d="M131.7,92.48a15.1,15.1,0,1,1,15.1-15.09A15.12,15.12,0,0,1,131.7,92.48Zm0-28.44A13.35,13.35,0,1,0,145,77.39,13.36,13.36,0,0,0,131.7,64Z"/><circle class="d" cx="131.7" cy="77.39" r="9.73" transform="translate(-16.15 115.79) rotate(-45)"/><path class="d" d="M143.1,165.25c-3.91-5.86-11.4-6.25-11.4-6.25s-7.49.39-11.39,6.25S115,180.66,115,180.66l5.46-1.95v20.68l5.66-4.1,5.54,17.36,5.54-17.36,5.66,4.1V178.71l5.46,1.95S147,171.1,143.1,165.25Z"/><path class="c" d="M131.7,213.53h0a.89.89,0,0,1-.84-.61l-5.17-16.21L121,200.1a.9.9,0,0,1-.92.07.88.88,0,0,1-.48-.78V180l-4.29,1.53a.87.87,0,0,1-.85-.14.91.91,0,0,1-.31-.81c.06-.39,1.44-9.82,5.41-15.77,4.09-6.15,11.75-6.62,12.08-6.63h.09c.32,0,8,.48,12.08,6.63h0c4,6,5.35,15.38,5.4,15.77a.87.87,0,0,1-1.16.95L143.78,180v19.44a.88.88,0,0,1-1.39.71l-4.68-3.39-5.17,16.21A.89.89,0,0,1,131.7,213.53Zm-5.54-19.12a1.26,1.26,0,0,1,.27,0,.86.86,0,0,1,.56.57l4.71,14.74L136.41,195a.86.86,0,0,1,.56-.57.89.89,0,0,1,.79.13l4.26,3.09v-19a.86.86,0,0,1,.38-.72.85.85,0,0,1,.8-.11l4,1.44c-.54-2.86-2-9.31-4.87-13.59h0c-3.46-5.19-10.05-5.8-10.67-5.85s-7.21.68-10.66,5.85c-2.86,4.28-4.33,10.73-4.88,13.59l4-1.44a.85.85,0,0,1,.8.11.88.88,0,0,1,.37.72v19l4.26-3.09A.92.92,0,0,1,126.16,194.41Z"/><path class="a" d="M70,19.57l-.57,2a10.13,10.13,0,0,1-6,6.53L60.8,29.11l1,.28A10.13,10.13,0,0,1,69,37.07l1,4.6,1.29-5.25a10.13,10.13,0,0,1,6.58-7.17l2.73-.92L78,27.82a10.11,10.11,0,0,1-7.63-6.88Z"/><path class="c" d="M70,42.55h0a.9.9,0,0,1-.85-.7l-1-4.61a9.22,9.22,0,0,0-6.58-7l-1-.27a.88.88,0,0,1-.09-1.66l2.63-1.05a9.18,9.18,0,0,0,5.43-6l.58-2a.88.88,0,0,1,.83-.63h0a.89.89,0,0,1,.84.61l.43,1.38a9.25,9.25,0,0,0,7,6.28l2.53.51a.88.88,0,0,1,.11,1.69l-2.73.92a9.19,9.19,0,0,0-6,6.55l-1.3,5.25A.88.88,0,0,1,70,42.55ZM63.4,29a11,11,0,0,1,6.46,7.87l.17.82.37-1.5a11,11,0,0,1,6.84-7.68A11,11,0,0,1,70,22.41a10.93,10.93,0,0,1-6.25,6.47Z"/><path class="a" d="M194.75,59.42l-.58,2a10.08,10.08,0,0,1-5.94,6.54l-2.64,1,1,.28a10.13,10.13,0,0,1,7.21,7.67l1,4.61L196,76.27a10.14,10.14,0,0,1,6.58-7.16l2.73-.92-2.53-.52a10.11,10.11,0,0,1-7.64-6.87Z"/><path class="c" d="M194.75,82.41h0a.9.9,0,0,1-.85-.7l-1-4.61a9.2,9.2,0,0,0-6.58-7l-1-.27a.88.88,0,0,1-.09-1.66l2.63-1.06a9.16,9.16,0,0,0,5.43-6l.58-2a.86.86,0,0,1,.83-.63h0a.88.88,0,0,1,.84.61l.43,1.38a9.24,9.24,0,0,0,7,6.27l2.53.52a.88.88,0,0,1,.11,1.69l-2.73.92a9.18,9.18,0,0,0-6,6.54l-1.3,5.26A.88.88,0,0,1,194.75,82.41Zm-6.56-13.53a11,11,0,0,1,6.46,7.86l.17.83.37-1.51A11,11,0,0,1,202,68.39a11,11,0,0,1-7.22-6.12,10.94,10.94,0,0,1-6.25,6.46Z"/><path class="a" d="M34,75l-.58,2a10.1,10.1,0,0,1-5.94,6.54l-2.64,1,1,.27A10.14,10.14,0,0,1,33,92.45l1,4.61,1.29-5.26a10.14,10.14,0,0,1,6.58-7.16l2.73-.92-2.54-.52a10.11,10.11,0,0,1-7.63-6.87Z"/><path class="c" d="M34,97.94h0a.88.88,0,0,1-.84-.7l-1-4.61a9.2,9.2,0,0,0-6.58-7l-1-.27a.88.88,0,0,1-.09-1.67l2.63-1.05a9.16,9.16,0,0,0,5.43-6l.58-2a.89.89,0,0,1,.83-.63h0a.89.89,0,0,1,.84.62l.43,1.38a9.24,9.24,0,0,0,7,6.27l2.53.51a.88.88,0,0,1,.11,1.7l-2.73.92a9.21,9.21,0,0,0-6,6.54l-1.29,5.26A.88.88,0,0,1,34,97.94ZM27.44,84.41a11,11,0,0,1,6.46,7.86l.17.83.37-1.51a10.92,10.92,0,0,1,6.83-7.67,11,11,0,0,1-7.21-6.12,11,11,0,0,1-6.26,6.46Z"/><path class="d" d="M158.61,72c.28-7.87-2-16-5.35-23.54l-8.22.12a181.17,181.17,0,0,1,3.32,31.76c.07,16.09-9.72,42.09-9.72,42.09l-6.06-5.47v38.85h8.51S157.67,98.28,158.61,72Z"/><path class="a" d="M138.71,169.34a11.6,11.6,0,0,0-5.28-5.17,3.71,3.71,0,0,0-3.46,0,11.53,11.53,0,0,0-5.27,5.17c-1.86,4.2,1.85,13.85,1.85,13.85l1.36-4.19,3.79,12.48L135.49,179l1.36,4.19S140.56,173.54,138.71,169.34Z"/><path class="c" d="M141.09,156.64H122.31a.88.88,0,0,1-.84-.63c0-.15-4.2-14.59-8.42-32.07-3.9-16.16-8.65-38.29-9.14-52-.94-26.4,26-55.13,27.15-56.34a.91.91,0,0,1,1.28,0c1.15,1.21,28.09,29.94,27.15,56.34-.49,13.67-5.24,35.8-9.14,52-4.22,17.48-8.38,31.92-8.42,32.07A.88.88,0,0,1,141.09,156.64ZM123,154.89h17.45c1.8-6.36,16.43-58.53,17.3-83,.48-13.37-6.78-27.62-13-37.22A139.44,139.44,0,0,0,131.7,17.54a138.45,138.45,0,0,0-13.08,17.18c-6.17,9.59-13.43,23.83-13,37.19C106.54,96.36,121.17,148.53,123,154.89Z"/><path class="c" d="M131.7,176.12a.88.88,0,0,1-.88-.88V116.91a.88.88,0,0,1,1.76,0v58.33A.87.87,0,0,1,131.7,176.12Z"/><path class="b" d="M145,48.53a164.79,164.79,0,0,0-5.62-16.13,87.14,87.14,0,0,0-7.72-14.86l7.53,7.29,10.7,16.84,3.33,6.74Z"/><path class="c" d="M153.32,49.41H110.09a.88.88,0,0,1-.81-1.23c7.82-17.71,21.65-32.39,21.78-32.54a.91.91,0,0,1,1.28,0c.14.15,14,14.83,21.78,32.54a.88.88,0,0,1-.8,1.23Zm-41.88-1.75H152c-6.79-14.73-17.55-27.11-20.26-30.12C129,20.55,118.23,32.93,111.44,47.66Z"/><path class="a" d="M137.71,69.74,124.06,83.39a10.13,10.13,0,0,0,1.52,1.55l13.68-13.67A9.75,9.75,0,0,0,137.71,69.74Z"/><path class="a" d="M123.22,82.14,136.45,68.9a9.63,9.63,0,0,0-4.17-1.21L122,78A9.72,9.72,0,0,0,123.22,82.14Z"/><path class="c" d="M131.7,88a10.61,10.61,0,1,1,10.61-10.6A10.61,10.61,0,0,1,131.7,88Zm0-19.45a8.85,8.85,0,1,0,8.85,8.85A8.86,8.86,0,0,0,131.7,68.54Z"/><path class="f" d="M247,247H0V0H247ZM3,244H244V3H3Z"/></svg>