<?xml version="1.0" encoding="utf-8"?>
<!-- Generator: Adobe Illustrator 22.0.1, SVG Export Plug-In . SVG Version: 6.00 Build 0)  -->
<svg version="1.1" id="Layer_1" xmlns="http://www.w3.org/2000/svg" xmlns:xlink="http://www.w3.org/1999/xlink" x="0px" y="0px"
	 width="112.6px" height="30px" viewBox="0 0 112.6 30" style="enable-background:new 0 0 112.6 30;" xml:space="preserve">
<g>
	<path d="M13.9,22.2c-1.2-0.7-2.2-1.5-2.8-2.6s-1-2.3-1-3.7c0-1.4,0.4-2.7,1.1-3.8c0.7-1.1,1.7-1.9,3-2.5C15.5,9,17,8.7,18.6,8.7
		c0.8,0,1.5,0.1,2.2,0.2c0.7,0.1,1.3,0.3,1.7,0.6c0.1,0.1,0.2,0.1,0.2,0.1c0,0,0,0.2,0.1,0.3l0.3,2.7c0,0,0,0.1-0.1,0.1
		c-0.1,0-0.1,0-0.1,0c-0.3-1.1-0.9-2-1.7-2.7c-0.8-0.7-1.8-1-3.1-1c-1.1,0-2.2,0.3-3.1,0.8c-0.9,0.5-1.6,1.3-2.2,2.3
		S12,14.3,12,15.6c0,1.3,0.3,2.5,0.8,3.6c0.5,1.1,1.3,2,2.3,2.7c1,0.7,2.2,1,3.7,1c1,0,1.7-0.2,2.2-0.6c0.4-0.4,0.6-1.1,0.6-2.1
		c0-0.8,0-1.3-0.1-1.6c-0.1-0.3-0.3-0.5-0.6-0.6c-0.3-0.1-0.9-0.2-1.7-0.2c-0.1,0-0.1-0.1-0.1-0.2c0,0,0-0.1,0-0.1s0-0.1,0.1-0.1
		c1.2,0.1,2.2,0.1,2.9,0.1c0.7,0,1.4,0,2.2-0.1c0.1,0,0.1,0.1,0.1,0.2c0,0.1,0,0.2-0.1,0.2c-0.4,0-0.6,0-0.7,0.1
		c-0.1,0.1-0.2,0.3-0.3,0.7c0,0.3-0.1,0.9-0.1,1.8c0,0.7,0,1.1,0.1,1.4c0.1,0.3,0.1,0.5,0.1,0.5c0,0.1,0,0.1,0,0.2
		c0,0-0.1,0.1-0.2,0.1c-1.8,0.4-3.4,0.6-4.8,0.6C16.6,23.2,15.1,22.9,13.9,22.2z"/>
	<path d="M34.3,21.7c0.1,0,0.1,0,0.1,0.1c0,0.1,0,0.1-0.1,0.1l-2.3,1.1c-0.1,0-0.1,0-0.2,0c-0.2,0-0.4-0.1-0.5-0.4
		c-0.2-0.3-0.3-0.6-0.3-1.1l-1.1,0.7c-0.4,0.3-0.7,0.4-1,0.5c-0.3,0.1-0.6,0.2-0.9,0.2c-0.6,0-1-0.1-1.3-0.4s-0.5-0.7-0.5-1.1
		c0-0.5,0.2-0.9,0.6-1.2c0.4-0.3,1-0.6,1.8-0.9l2.4-0.9v-1.5c0-0.9-0.1-1.5-0.3-1.9c-0.2-0.4-0.6-0.6-1-0.6c-0.5,0-0.9,0.2-1.1,0.5
		c-0.3,0.3-0.4,0.7-0.5,1.2c-0.1,0.7-0.4,1-0.9,1c-0.3,0-0.5-0.1-0.6-0.2c-0.1-0.1-0.2-0.3-0.2-0.5c0-0.4,0.2-0.7,0.7-1.1
		c0.5-0.4,1-0.7,1.7-0.9c0.7-0.2,1.2-0.4,1.8-0.4c0.6,0,1.1,0.2,1.4,0.6c0.3,0.4,0.5,1,0.5,1.7v4.1c0,0.5,0.1,0.9,0.2,1.1
		c0.1,0.2,0.4,0.4,0.7,0.4C33.5,22,33.9,21.9,34.3,21.7L34.3,21.7z M31,21.3v-0.1v-2.3l-1.9,0.8c-0.4,0.1-0.7,0.3-0.9,0.5
		c-0.2,0.2-0.3,0.5-0.3,0.8c0,0.4,0.1,0.7,0.3,0.9c0.2,0.2,0.5,0.3,0.9,0.3c0.3,0,0.6-0.1,1-0.3L31,21.3z"/>
	<path d="M41.6,14.4c0.3,0.2,0.5,0.4,0.5,0.7c0,0.2-0.1,0.4-0.2,0.5c-0.1,0.1-0.3,0.2-0.6,0.2c-0.1,0-0.3,0-0.4-0.1
		c-0.1-0.1-0.2-0.1-0.4-0.3c-0.1-0.1-0.3-0.2-0.4-0.3c-0.1-0.1-0.2-0.1-0.4-0.1c-0.2,0-0.4,0.1-0.6,0.2c-0.2,0.1-0.5,0.5-1,1v4.8
		c0,0.4,0.1,0.8,0.2,1c0.1,0.2,0.3,0.4,0.6,0.4s0.8,0.1,1.4,0.1c0,0,0.1,0,0.1,0.1c0,0.1,0,0.1-0.1,0.1c-0.5,0-0.9,0-1.2,0l-1.7,0
		l-1.2,0c-0.2,0-0.5,0-0.8,0c0,0-0.1,0-0.1-0.1c0-0.1,0-0.1,0.1-0.1c0.4,0,0.7,0,0.9-0.1c0.2-0.1,0.3-0.2,0.4-0.4s0.1-0.5,0.1-1
		v-4.4c0-0.5-0.1-0.8-0.2-1.1c-0.1-0.2-0.3-0.3-0.6-0.3c-0.2,0-0.6,0.1-1.2,0.3h0c-0.1,0-0.1,0-0.1-0.1c0-0.1,0-0.1,0-0.1l2.7-1.3
		l0.1,0c0.1,0,0.3,0.2,0.4,0.5c0.1,0.3,0.2,0.8,0.2,1.3c0.6-0.7,1.1-1.2,1.5-1.4c0.4-0.3,0.7-0.4,1-0.4C41,14.1,41.3,14.2,41.6,14.4
		z"/>
	<path d="M51.6,21.7c0.1,0,0.1,0,0.1,0.1c0,0.1,0,0.1-0.1,0.1l-2.3,1.1c-0.1,0-0.1,0-0.2,0c-0.2,0-0.4-0.1-0.5-0.4
		c-0.2-0.3-0.3-0.6-0.3-1.1l-1.1,0.7c-0.4,0.3-0.7,0.4-1,0.5s-0.6,0.2-0.9,0.2c-0.6,0-1-0.1-1.3-0.4s-0.5-0.7-0.5-1.1
		c0-0.5,0.2-0.9,0.6-1.2s1-0.6,1.8-0.9l2.4-0.9v-1.5c0-0.9-0.1-1.5-0.3-1.9c-0.2-0.4-0.6-0.6-1-0.6c-0.5,0-0.9,0.2-1.1,0.5
		s-0.4,0.7-0.5,1.2c-0.1,0.7-0.4,1-0.9,1c-0.3,0-0.5-0.1-0.6-0.2s-0.2-0.3-0.2-0.5c0-0.4,0.2-0.7,0.7-1.1c0.5-0.4,1-0.7,1.7-0.9
		c0.7-0.2,1.2-0.4,1.8-0.4c0.6,0,1.1,0.2,1.4,0.6c0.3,0.4,0.5,1,0.5,1.7v4.1c0,0.5,0.1,0.9,0.2,1.1s0.4,0.4,0.7,0.4
		C50.7,22,51.1,21.9,51.6,21.7L51.6,21.7z M48.2,21.3v-0.1v-2.3l-1.9,0.8c-0.4,0.1-0.7,0.3-0.9,0.5c-0.2,0.2-0.3,0.5-0.3,0.8
		c0,0.4,0.1,0.7,0.3,0.9c0.2,0.2,0.5,0.3,0.9,0.3c0.3,0,0.6-0.1,1-0.3L48.2,21.3z"/>
	<path d="M68.4,22.8c0,0.1,0,0.1-0.1,0.1c-0.3,0-0.6,0-0.8,0l-1.3,0l-1.2,0c-0.2,0-0.5,0-0.9,0c0,0,0,0,0-0.1c0-0.1,0-0.1,0-0.1
		c0.6,0,0.9-0.1,1.1-0.3s0.3-0.6,0.3-1.2v-3.5c0-0.9-0.2-1.5-0.5-1.9c-0.3-0.4-0.8-0.6-1.4-0.6c-0.4,0-0.9,0.1-1.3,0.4
		c-0.4,0.2-0.8,0.6-1.2,1v0.3v4.4c0,0.6,0.1,1,0.3,1.2s0.6,0.3,1.1,0.3c0,0,0,0,0,0.1c0,0.1,0,0.1,0,0.1c-0.4,0-0.7,0-0.9,0l-1.2,0
		l-1.2,0c-0.2,0-0.5,0-0.8,0c0,0-0.1,0-0.1-0.1c0-0.1,0-0.1,0.1-0.1c0.5,0,0.9-0.1,1.1-0.3s0.3-0.6,0.3-1.2v-3.5
		c0-0.9-0.2-1.5-0.5-1.9c-0.3-0.4-0.8-0.6-1.4-0.6c-0.4,0-0.9,0.1-1.3,0.3c-0.4,0.2-0.8,0.5-1.2,0.9v4.8c0,0.4,0,0.8,0.1,1
		c0.1,0.2,0.2,0.4,0.4,0.4s0.5,0.1,0.9,0.1c0,0,0.1,0,0.1,0.1c0,0.1,0,0.1-0.1,0.1c-0.4,0-0.7,0-0.9,0l-1.2,0l-1.2,0
		c-0.2,0-0.5,0-0.8,0c0,0-0.1,0-0.1-0.1c0-0.1,0-0.1,0.1-0.1c0.4,0,0.7,0,0.9-0.1c0.2-0.1,0.3-0.2,0.4-0.4c0.1-0.2,0.1-0.5,0.1-1
		v-4.4c0-0.5-0.1-0.8-0.2-1.1c-0.1-0.2-0.3-0.3-0.6-0.3c-0.2,0-0.6,0.1-1.2,0.3h0c-0.1,0-0.1,0-0.1-0.1c0-0.1,0-0.1,0-0.1l2.7-1.3
		l0.1,0c0.1,0,0.3,0.2,0.4,0.5s0.2,0.8,0.2,1.3c1-1.3,2.1-1.9,3.3-1.9c0.7,0,1.2,0.2,1.6,0.5c0.4,0.3,0.7,0.8,0.8,1.5
		c0.6-0.7,1.1-1.2,1.7-1.5c0.6-0.3,1.1-0.5,1.7-0.5c0.8,0,1.4,0.2,1.8,0.7c0.4,0.5,0.6,1.1,0.6,2.1v4.3c0,0.4,0,0.8,0.1,1
		s0.2,0.4,0.4,0.4s0.5,0.1,0.9,0.1C68.3,22.7,68.4,22.7,68.4,22.8z"/>
	<path d="M71.6,22.6c-0.7-0.4-1.2-1-1.5-1.7c-0.4-0.7-0.5-1.5-0.5-2.4c0-1,0.2-1.8,0.7-2.5s1.1-1.2,1.8-1.5c0.7-0.3,1.5-0.5,2.3-0.5
		c0.9,0,1.6,0.2,2.3,0.6s1.2,1,1.5,1.7s0.5,1.5,0.5,2.2c0,0.9-0.2,1.7-0.6,2.4s-1,1.2-1.7,1.6s-1.5,0.6-2.4,0.6
		C73,23.2,72.3,23,71.6,22.6z M76.4,21.9c0.4-0.6,0.6-1.5,0.6-2.7c0-0.9-0.1-1.8-0.4-2.5s-0.7-1.3-1.2-1.7c-0.5-0.4-1.1-0.6-1.7-0.6
		c-0.8,0-1.3,0.3-1.8,0.8c-0.4,0.6-0.6,1.4-0.6,2.5c0,0.9,0.1,1.8,0.4,2.5s0.7,1.4,1.2,1.8c0.5,0.4,1.1,0.7,1.7,0.7
		C75.3,22.8,75.9,22.5,76.4,21.9z"/>
	<path d="M90.7,22.8c0,0.1,0,0.1-0.1,0.1c-0.4,0-0.7,0-0.9,0l-1.2,0l-1.2,0c-0.2,0-0.5,0-0.8,0c0,0-0.1,0-0.1-0.1
		c0-0.1,0-0.1,0.1-0.1c0.4,0,0.7,0,0.9-0.1s0.3-0.2,0.4-0.4s0.1-0.5,0.1-1v-3.6c0-0.9-0.2-1.5-0.5-1.9c-0.3-0.4-0.8-0.6-1.5-0.6
		c-0.4,0-0.9,0.1-1.3,0.3c-0.5,0.2-0.9,0.5-1.2,0.9v4.8c0,0.4,0,0.8,0.1,1c0.1,0.2,0.2,0.4,0.4,0.4s0.5,0.1,0.9,0.1
		c0,0,0.1,0,0.1,0.1c0,0.1,0,0.1-0.1,0.1c-0.4,0-0.7,0-0.9,0l-1.2,0l-1.2,0c-0.2,0-0.5,0-0.8,0c0,0-0.1,0-0.1-0.1
		c0-0.1,0-0.1,0.1-0.1c0.4,0,0.7,0,0.9-0.1c0.2-0.1,0.3-0.2,0.4-0.4c0.1-0.2,0.1-0.5,0.1-1v-4.4c0-0.5-0.1-0.8-0.2-1.1
		c-0.1-0.2-0.3-0.3-0.6-0.3c-0.2,0-0.6,0.1-1.2,0.3h0c-0.1,0-0.1,0-0.1-0.1c0-0.1,0-0.1,0-0.1l2.7-1.3l0.1,0c0.1,0,0.3,0.2,0.4,0.5
		s0.2,0.8,0.2,1.3c1.1-1.3,2.2-1.9,3.4-1.9c0.8,0,1.5,0.2,1.9,0.7c0.5,0.5,0.7,1.2,0.7,2v4.4c0,0.4,0,0.8,0.1,1
		c0.1,0.2,0.2,0.4,0.4,0.4s0.5,0.1,0.9,0.1C90.7,22.7,90.7,22.7,90.7,22.8z"/>
	<path d="M102.4,21.7c0,0,0.1,0,0.1,0.1c0,0.1,0,0.1,0,0.1l-2.6,1.2c-0.1,0-0.1,0-0.2,0c-0.2,0-0.4-0.2-0.5-0.5
		C99.1,22.4,99,22,99,21.4c-0.5,0.6-1.1,1-1.7,1.3c-0.6,0.3-1.2,0.5-2,0.5c-0.6,0-1.2-0.2-1.7-0.5c-0.5-0.3-1-0.9-1.3-1.5
		c-0.3-0.7-0.5-1.4-0.5-2.3c0-1.1,0.3-2,0.8-2.7c0.5-0.7,1.2-1.3,2-1.7S96.2,14,97,14c0.8,0,1.4,0.2,2.1,0.5V9.6
		c0-0.5-0.1-0.9-0.2-1.1c-0.1-0.2-0.3-0.3-0.6-0.3c-0.2,0-0.5,0.1-1,0.3h0c-0.1,0-0.1,0-0.1-0.1s0-0.1,0-0.1l2.9-1.4
		c0,0,0.1,0,0.1,0s0.1,0,0.1,0.1c0.1,0,0.1,0.1,0.1,0.1v13.5c0,0.5,0.1,0.9,0.2,1.2c0.1,0.2,0.3,0.3,0.6,0.3
		C101.6,22,102,21.9,102.4,21.7L102.4,21.7z M97.7,22c0.4-0.2,0.9-0.6,1.3-1v-5c-0.3-0.5-0.7-0.8-1.1-1.1c-0.4-0.3-0.9-0.4-1.5-0.4
		c-0.9,0-1.6,0.3-2.2,1c-0.5,0.6-0.8,1.6-0.8,2.8c0,1.2,0.3,2.2,0.8,3s1.2,1.1,2,1.1C96.8,22.4,97.3,22.3,97.7,22z"/>
</g>
</svg>
