<?xml version="1.0" encoding="utf-8"?>
<!-- Generator: Adobe Illustrator 22.0.1, SVG Export Plug-In . SVG Version: 6.00 Build 0)  -->
<svg version="1.1" id="Layer_1" xmlns="http://www.w3.org/2000/svg" xmlns:xlink="http://www.w3.org/1999/xlink" x="0px" y="0px"
	 width="56.5px" height="30px" viewBox="0 0 56.5 30" style="enable-background:new 0 0 56.5 30;" xml:space="preserve">
<g>
	<path d="M3,22c0.5,0,0.9-0.1,1.1-0.4c0.2-0.2,0.3-0.5,0.4-0.8s0-0.8,0-1.6V9.6c0-0.6,0-1.2,0.1-1.6L3,8.1v-1h5v0.7
		C7.5,7.8,7.2,8,6.9,8.2S6.6,8.7,6.6,9c0,0.3,0,0.8,0,1.6v9.6c0,0.8,0,1.4-0.1,1.7l4.2-0.1c1,0,1.7-0.3,2.1-0.9
		c0.5-0.6,0.7-1.5,0.7-2.8h0.8l-0.1,4.6H3V22z"/>
	<path d="M18.4,22.3c-0.9-0.5-1.5-1.2-2-2c-0.5-0.9-0.7-1.8-0.7-2.9c0-1.2,0.2-2.2,0.7-3.2c0.5-0.9,1.2-1.7,2-2.2
		c0.9-0.5,1.8-0.8,2.8-0.8c1,0,2,0.2,2.8,0.7c0.9,0.5,1.5,1.2,2,2c0.5,0.9,0.7,1.8,0.7,2.9c0,1.1-0.2,2.2-0.7,3.1
		c-0.5,1-1.2,1.7-2,2.3s-1.8,0.8-2.8,0.8C20.2,23.1,19.3,22.8,18.4,22.3z M23.8,20.8c0.5-0.9,0.8-2,0.8-3.3c0-1.5-0.3-2.8-0.8-3.9
		S22.3,12,21.2,12c-1.1,0-1.9,0.5-2.5,1.4c-0.6,0.9-0.8,2-0.8,3.3c0,1,0.1,1.8,0.4,2.7c0.3,0.8,0.7,1.5,1.2,2
		c0.5,0.5,1.2,0.8,1.9,0.8C22.5,22.2,23.3,21.7,23.8,20.8z"/>
	<path d="M28.8,22c0.4,0,0.7-0.1,0.9-0.3c0.2-0.2,0.3-0.5,0.3-0.8s0.1-0.9,0.1-1.6v-5.1c0-0.6,0-1.1,0.1-1.5l-1.6,0.1v-0.9h0.7
		c0.6,0,1,0,1.2-0.1c0.3-0.1,0.5-0.2,0.7-0.5h0.6c0.1,0.6,0.1,1.3,0.1,2.2c0.4-0.6,0.9-1.2,1.6-1.6c0.7-0.5,1.4-0.7,2.2-0.7
		c0.4,0,0.8,0.1,1.1,0.4c0.3,0.2,0.4,0.6,0.4,1c0,0.2-0.1,0.5-0.3,0.7c-0.2,0.2-0.5,0.4-0.8,0.4c-0.3,0-0.6-0.1-0.8-0.4
		c-0.2-0.2-0.3-0.5-0.2-0.9c-0.6,0-1.1,0.2-1.7,0.6c-0.6,0.4-1.1,1-1.5,1.8l0,5.5c0,0.7,0,1.2-0.1,1.5l1.4-0.1v0.9h-4.6V22z"/>
	<path d="M38.9,22.3c-0.6-0.5-0.9-1.1-0.9-1.9c0-0.9,0.3-1.6,1-2.2c0.7-0.6,1.6-1,2.6-1.3c1-0.3,2.1-0.4,3.2-0.4v-1.4
		c0-1-0.1-1.7-0.4-2.3c-0.3-0.5-0.9-0.8-1.8-0.8c-0.5,0-0.9,0.1-1.3,0.3c-0.4,0.2-0.7,0.5-0.9,0.9c0.2,0.2,0.3,0.5,0.3,0.8
		c0,0.2-0.1,0.4-0.2,0.6S40,15,39.7,15s-0.6-0.1-0.7-0.3s-0.3-0.5-0.3-0.8c0-0.5,0.2-0.9,0.6-1.4c0.4-0.4,0.9-0.7,1.6-1
		c0.7-0.2,1.4-0.4,2.3-0.4c1.2,0,2.2,0.3,2.8,1c0.6,0.7,0.9,1.7,0.9,3.1l0,5c0,0.5,0,1-0.1,1.5l1.6-0.1v0.9h-3.2
		c0-0.2-0.1-0.6-0.2-1.3c-1.1,1.1-2.3,1.6-3.5,1.6C40.3,23.1,39.5,22.8,38.9,22.3z M43.4,21.5c0.5-0.2,0.9-0.5,1.4-1
		c0-0.2,0-0.6,0-1.1l0-2.1c-1.2,0-2.3,0.3-3.3,0.7c-1,0.5-1.4,1.2-1.4,2.1c0,0.6,0.2,1,0.5,1.3c0.3,0.3,0.7,0.4,1.2,0.4
		C42.5,21.8,43,21.7,43.4,21.5z"/>
</g>
</svg>
