<?xml version="1.0" encoding="utf-8"?>
<!-- Generator: Adobe Illustrator 22.0.1, SVG Export Plug-In . SVG Version: 6.00 Build 0)  -->
<svg version="1.1" id="Layer_1" xmlns="http://www.w3.org/2000/svg" xmlns:xlink="http://www.w3.org/1999/xlink" x="0px" y="0px"
	 width="87.3px" height="30px" viewBox="0 0 87.3 30" style="enable-background:new 0 0 87.3 30;" xml:space="preserve">
<g>
	<path d="M7.5,7.3l2.7-0.1l0.2,0.9C9.5,8.2,9,8.3,8.8,8.4C8.7,8.5,8.6,8.7,8.6,9v11.1c0,0.6,0.1,1,0.4,1.2c0.2,0.2,0.6,0.3,1.1,0.3
		h2.1c1.1,0,1.9-0.3,2.6-0.8c0.6-0.5,1.1-1.3,1.5-2.4l0.7,0.1c0,0.3-0.2,1-0.6,2.2c-0.4,1.2-0.6,1.8-0.8,1.8l-5.5,0l-2.6,0L5,22.6
		l-0.2-0.9c0.8-0.1,1.3-0.2,1.5-0.3s0.3-0.3,0.3-0.6V9c0-0.3-0.1-0.5-0.3-0.6C6.1,8.3,5.7,8.2,4.9,8.2L4.7,7.2L7.5,7.3z"/>
	<path d="M22,22.8c-2,0-3.1-1.1-3.1-3.2v-4.8c0-0.2-0.1-0.4-0.2-0.5c-0.1-0.1-0.5-0.2-1-0.2l-0.2-0.8c0.4,0,0.9,0.1,1.6,0.1
		c0.7,0,1.2,0,1.6-0.1v5.6c0,1.7,0.8,2.5,2.3,2.5c0.4,0,0.8-0.1,1.2-0.2c0.4-0.2,0.7-0.4,1-0.6v-5.7c0-0.3-0.1-0.4-0.2-0.5
		s-0.4-0.2-0.9-0.2l-0.2-0.8c0.4,0,0.9,0.1,1.6,0.1c0.7,0,1.2,0,1.6-0.1v6.9c0,0.5,0.1,0.8,0.2,1c0.2,0.2,0.4,0.3,0.7,0.3h0.8
		l0.2,0.7c-0.2,0-0.5,0.1-0.9,0.1c-0.5,0.1-0.8,0.1-0.9,0.1c-0.2,0-0.4,0.1-0.7,0.2c-0.3,0.1-0.5,0.2-0.7,0.2
		c-0.2,0-0.3-0.1-0.3-0.2l-0.1-1.3c-0.2,0.2-0.4,0.4-0.5,0.4c-0.1,0.1-0.2,0.2-0.4,0.3c-0.2,0.1-0.3,0.2-0.5,0.3
		c-0.2,0.1-0.4,0.1-0.6,0.2C23,22.7,22.5,22.8,22,22.8z"/>
	<path d="M33.5,21.8c1.2,0,1.8-0.5,1.8-1.4c0-0.4-0.2-0.7-0.5-1c-0.4-0.3-0.8-0.5-1.3-0.7c-0.5-0.2-1-0.4-1.5-0.6
		c-0.5-0.2-0.9-0.5-1.3-1c-0.4-0.4-0.5-1-0.5-1.7c0-0.7,0.3-1.3,1-1.8c0.6-0.5,1.4-0.7,2.3-0.7s1.9,0.2,2.9,0.5
		c0.1,0.1,0.2,0.4,0.2,0.9c0,0.5,0,1-0.1,1.5l-0.9-0.1c-0.1-0.6-0.3-1-0.7-1.4c-0.4-0.4-0.8-0.5-1.4-0.5s-1,0.1-1.3,0.3
		c-0.3,0.2-0.5,0.5-0.5,0.9c0,0.4,0.2,0.7,0.5,0.9c0.4,0.3,0.8,0.5,1.3,0.6c0.5,0.2,1,0.3,1.5,0.5c0.5,0.2,0.9,0.5,1.3,1
		c0.4,0.4,0.5,1,0.5,1.8S36.6,21.4,36,22c-0.6,0.5-1.4,0.8-2.4,0.8c-1,0-2-0.2-3.2-0.6c-0.1,0-0.1-0.4-0.2-1
		c-0.1-0.6-0.1-1.1-0.1-1.5v-0.1l1-0.1C31.3,21,32.1,21.8,33.5,21.8z"/>
	<path d="M41.1,22.5l-2.3,0.1l-0.2-0.9c0.7-0.1,1.1-0.1,1.2-0.2S40,21.3,40,21v-5.5c0-0.7-0.4-1.1-1.1-1.1c-0.2,0-0.3,0-0.4,0
		l-0.2-0.6c0.9-0.2,1.5-0.4,1.8-0.5l1.3-0.5c0.2,0,0.3,0,0.3,0.1s0.1,0.1,0.1,0.3V21c0,0.3,0.1,0.4,0.2,0.5c0.1,0.1,0.4,0.2,0.9,0.2
		l0.2,0.9L41.1,22.5z M40.9,10.3c-0.4,0-0.7-0.1-0.9-0.3c-0.2-0.2-0.4-0.5-0.4-0.9s0.1-0.7,0.4-0.9c0.2-0.3,0.5-0.4,0.9-0.4
		s0.7,0.1,0.9,0.3c0.2,0.2,0.4,0.5,0.4,0.9s-0.1,0.7-0.4,0.9C41.6,10.2,41.3,10.3,40.9,10.3z"/>
	<path d="M47.4,20.5c0,0,0.1,0.2,0.4,0.5c0.2,0.4,0.6,0.5,1,0.5c0.4,0,0.8-0.1,1.2-0.3c0.1,0,0.1,0,0.2,0l0.4,0.6
		c-0.8,0.6-1.6,0.9-2.4,0.9c-0.8,0-1.5-0.3-1.9-0.8c-0.4-0.5-0.6-1.1-0.6-1.9v-5.4c0-0.2,0-0.3-0.1-0.3c0,0-0.1-0.1-0.2-0.1h-0.8
		l-0.2-0.6c0.6-0.2,1.1-0.5,1.5-0.9c0.4-0.4,0.7-1,1.1-1.7h0.2c0.1,0,0.2,0,0.2,0.1l0.1,1.7c0,0.2,0.1,0.3,0.3,0.3h2.4l0.2,1.1h-2.7
		c-0.1,0-0.2,0.1-0.2,0.3v0v0l0,4.7C47.4,20.2,47.4,20.5,47.4,20.5z"/>
	<path d="M59.8,21.4h0.5c0.1,0,0.1,0,0.2,0c0.1,0.4,0.1,0.6,0.2,0.7c-0.2,0.1-0.6,0.2-1.2,0.4s-1.1,0.3-1.3,0.3
		c-0.3,0-0.5-0.1-0.6-0.3c-0.1-0.2-0.2-0.6-0.3-1.1c-0.2,0.3-0.6,0.7-1.1,0.9s-1,0.4-1.4,0.5h-0.1c-0.7,0-1.3-0.2-1.8-0.6
		c-0.5-0.4-0.7-0.9-0.7-1.7c0-0.7,0.3-1.3,1-1.7c0.7-0.4,2-0.8,4-1.1v-1.3c0-1.5-0.6-2.3-1.7-2.3c-0.4,0-0.8,0.1-1.1,0.3v1.5
		c0,0.1-0.2,0.1-0.6,0.2c-0.4,0.1-0.6,0.1-0.8,0.1c-0.1,0-0.2,0-0.4,0c-0.1-0.1-0.2-0.4-0.2-0.8c0-0.4,0.1-0.7,0.3-1
		c0.2-0.3,0.7-0.6,1.5-0.9c0.8-0.3,1.5-0.5,1.9-0.5c1.8,0,2.7,1,2.7,3v4.3c0,0.5,0.1,0.8,0.3,0.9C59.3,21.4,59.5,21.4,59.8,21.4z
		 M55.4,21.6c0.7,0,1.3-0.2,1.6-0.7v-2.4c-1.2,0.2-2.1,0.5-2.5,0.7c-0.4,0.3-0.6,0.6-0.6,1.1c0,0.4,0.2,0.8,0.5,1
		C54.7,21.5,55,21.6,55.4,21.6z"/>
	<path d="M61.8,14.6l-0.3,0L61.3,14c1-0.2,1.7-0.5,2.2-0.7s0.7-0.4,0.8-0.4c0.2,0,0.3,0,0.3,0c0.1,0.1,0.1,0.5,0.1,1.4
		c0.7-0.4,1.3-0.7,1.8-0.9c0.5-0.2,1.1-0.3,1.7-0.3c2,0,3,1.1,3,3.2V21c0,0.3,0.1,0.4,0.2,0.5c0.1,0.1,0.4,0.2,0.9,0.2l0.2,0.9
		l-2.1-0.1l-2.3,0.1L68,21.7c0.7-0.1,1.1-0.1,1.2-0.2c0.1-0.1,0.2-0.2,0.2-0.5v-4c0-0.9-0.2-1.6-0.5-1.9c-0.4-0.4-0.9-0.5-1.7-0.5
		c-0.8,0-1.6,0.2-2.4,0.6V21c0,0.3,0.1,0.4,0.2,0.5c0.1,0.1,0.4,0.2,0.9,0.2l0.2,0.9L64,22.5l-2.3,0.1l-0.2-0.9
		c0.7-0.1,1.1-0.1,1.2-0.2S63,21.3,63,21v-5c0-0.5-0.1-0.9-0.3-1.1C62.5,14.7,62.2,14.6,61.8,14.6z"/>
	<path d="M81.8,21.4h0.5c0.1,0,0.1,0,0.2,0c0.1,0.4,0.1,0.6,0.2,0.7c-0.2,0.1-0.6,0.2-1.2,0.4s-1.1,0.3-1.3,0.3
		c-0.3,0-0.5-0.1-0.6-0.3c-0.1-0.2-0.2-0.6-0.3-1.1c-0.2,0.3-0.6,0.7-1.1,0.9s-1,0.4-1.4,0.5h-0.1c-0.7,0-1.3-0.2-1.8-0.6
		c-0.5-0.4-0.7-0.9-0.7-1.7c0-0.7,0.3-1.3,1-1.7c0.7-0.4,2-0.8,4-1.1v-1.3c0-1.5-0.6-2.3-1.7-2.3c-0.4,0-0.8,0.1-1.1,0.3v1.5
		c0,0.1-0.2,0.1-0.6,0.2c-0.4,0.1-0.6,0.1-0.8,0.1c-0.1,0-0.2,0-0.4,0c-0.1-0.1-0.2-0.4-0.2-0.8c0-0.4,0.1-0.7,0.3-1
		c0.2-0.3,0.7-0.6,1.5-0.9c0.8-0.3,1.5-0.5,1.9-0.5c1.8,0,2.7,1,2.7,3v4.3c0,0.5,0.1,0.8,0.3,0.9C81.3,21.4,81.5,21.4,81.8,21.4z
		 M77.5,21.6c0.7,0,1.3-0.2,1.6-0.7v-2.4c-1.2,0.2-2.1,0.5-2.5,0.7c-0.4,0.3-0.6,0.6-0.6,1.1c0,0.4,0.2,0.8,0.5,1
		C76.7,21.5,77.1,21.6,77.5,21.6z"/>
</g>
</svg>
