<?xml version="1.0" encoding="utf-8"?>
<!-- Generator: Adobe Illustrator 22.0.1, SVG Export Plug-In . SVG Version: 6.00 Build 0)  -->
<svg version="1.1" id="Layer_1" xmlns="http://www.w3.org/2000/svg" xmlns:xlink="http://www.w3.org/1999/xlink" x="0px" y="0px"
	 width="130px" height="30px" viewBox="0 0 130 30" style="enable-background:new 0 0 130 30;" xml:space="preserve">
<g>
	<path d="M5.6,9.9l-2-0.2V8.8h4.9l2.6,8.3l0.6,2.3l0.6-2.3l2.6-8.3h4.8v0.9l-2,0.2l1.5,11.4l1.6,0.2v0.9h-5.3v-0.9l1.7-0.2l-0.8-8.3
		l-0.4-3.6l-0.8,2.6L12,21.8h-1.2l-3-8.8L6.8,9.5l-0.3,3.6l-0.7,8.3l1.8,0.2v0.9H2.7v-0.9l1.6-0.2L5.6,9.9z"/>
	<path d="M22.8,21.2c-0.8-1-1.2-2.3-1.2-3.9c0-1.1,0.2-2,0.6-2.8c0.4-0.8,1-1.4,1.7-1.9c0.7-0.4,1.6-0.7,2.5-0.7
		c1.1,0,2,0.3,2.7,0.9c0.6,0.6,1,1.5,1,2.7c0,0.7,0,1.3-0.1,1.7h-6.3c0,1.2,0.3,2.2,0.8,2.9s1.3,1.1,2.3,1.1c0.5,0,1-0.1,1.5-0.3
		s0.9-0.4,1.2-0.6l0.3,0.8c-0.4,0.4-0.9,0.7-1.6,1c-0.7,0.3-1.4,0.4-2.1,0.4C24.7,22.6,23.6,22.2,22.8,21.2z M28,16.3
		c0-0.3,0.1-0.5,0.1-0.8c0-0.8-0.2-1.4-0.5-1.9S26.8,13,26.1,13c-0.7,0-1.3,0.3-1.7,0.8s-0.7,1.4-0.7,2.6H28z"/>
	<path d="M31.7,21.5l1.4-0.1v-7.8l-1.3-0.3v-1l2.5-0.3h0l0.4,0.3v0.3l-0.1,1.4h0.1c0.1-0.2,0.3-0.5,0.7-0.8c0.3-0.3,0.7-0.6,1.2-0.9
		c0.5-0.3,1-0.4,1.6-0.4c0.2,0,0.4,0,0.6,0.1v2.1c-0.1-0.1-0.2-0.1-0.4-0.2s-0.4-0.1-0.6-0.1c-1,0-2,0.3-2.8,0.9v6.6l2.3,0.1v0.9
		h-5.6V21.5z"/>
	<path d="M40.1,21.5l1.4-0.1v-7.8l-1.3-0.3v-1l2.5-0.3h0l0.4,0.3v0.3l-0.1,1.4h0.1c0.1-0.2,0.3-0.5,0.7-0.8c0.3-0.3,0.7-0.6,1.2-0.9
		c0.5-0.3,1-0.4,1.6-0.4c0.2,0,0.4,0,0.6,0.1v2.1c-0.1-0.1-0.2-0.1-0.4-0.2s-0.4-0.1-0.6-0.1c-1,0-2,0.3-2.8,0.9v6.6l2.3,0.1v0.9
		h-5.6V21.5z"/>
	<path d="M49.9,13.6l-1.4-0.3v-1l2.9-0.3h0l0.4,0.3v9.1l1.5,0.1v0.9h-4.9v-0.9l1.5-0.2V13.6z M49.8,10c-0.2-0.2-0.3-0.5-0.3-0.8
		c0-0.4,0.1-0.7,0.4-1s0.6-0.4,1-0.4s0.7,0.1,0.9,0.3s0.3,0.5,0.3,0.8c0,0.4-0.1,0.7-0.4,1c-0.2,0.2-0.6,0.4-1,0.4h0
		C50.3,10.4,50,10.3,49.8,10z"/>
	<path d="M53.7,12.2H58v0.9l-1.4,0.2l1.5,5.4l0.5,2.3l0.5-2.4l1.8-6.5h1.8l1.8,6.5l0.5,2.4l0.6-2.4l1.5-5.4l-1.4-0.2v-0.9h3.7v0.9
		l-1,0.2l-2.9,9.3H64l-2-6.5l-0.5-2.3l-0.4,2.3l-1.9,6.5h-1.7l-2.9-9.3l-0.9-0.2V12.2z"/>
	<path d="M71.2,21.2c-0.8-1-1.2-2.3-1.2-3.9c0-1.1,0.2-2,0.6-2.8c0.4-0.8,1-1.4,1.7-1.9c0.7-0.4,1.6-0.7,2.5-0.7
		c1.1,0,2,0.3,2.7,0.9c0.6,0.6,1,1.5,1,2.7c0,0.7,0,1.3-0.1,1.7H72c0,1.2,0.3,2.2,0.8,2.9s1.3,1.1,2.3,1.1c0.5,0,1-0.1,1.5-0.3
		c0.5-0.2,0.9-0.4,1.2-0.6l0.3,0.8c-0.4,0.4-0.9,0.7-1.6,1s-1.4,0.4-2.1,0.4C73.1,22.6,72,22.2,71.2,21.2z M76.5,16.3
		c0-0.3,0.1-0.5,0.1-0.8c0-0.8-0.2-1.4-0.5-1.9S75.2,13,74.5,13c-0.7,0-1.3,0.3-1.7,0.8c-0.4,0.5-0.7,1.4-0.7,2.6H76.5z"/>
	<path d="M81.8,17.1c1.2-0.5,2.6-0.8,4.4-0.9v-0.5c0-0.6-0.1-1-0.2-1.4c-0.1-0.3-0.3-0.6-0.6-0.7c-0.3-0.2-0.7-0.2-1.3-0.2
		c-0.6,0-1.2,0.1-1.7,0.3s-1,0.4-1.5,0.7l-0.5-1c0.2-0.1,0.5-0.3,0.9-0.5s0.9-0.4,1.5-0.6c0.6-0.2,1.1-0.3,1.7-0.3
		c0.9,0,1.6,0.1,2.1,0.4c0.5,0.2,0.9,0.6,1.1,1.2c0.2,0.5,0.3,1.2,0.3,2.1v5.9h1.1v0.8c-0.2,0.1-0.6,0.1-0.9,0.2s-0.7,0.1-1,0.1
		c-0.3,0-0.6-0.1-0.7-0.2c-0.1-0.1-0.2-0.3-0.2-0.7v-0.6c-0.4,0.4-0.8,0.7-1.4,1c-0.5,0.3-1.1,0.5-1.8,0.5c-0.9,0-1.6-0.3-2.2-0.8
		c-0.6-0.5-0.9-1.2-0.9-2.2C80.1,18.5,80.7,17.7,81.8,17.1z M85.1,21.1c0.4-0.2,0.8-0.4,1.1-0.7v-3.2c-1.3,0-2.3,0.2-3,0.6
		c-0.7,0.4-1,0.9-1,1.6c0,0.7,0.2,1.2,0.5,1.5c0.3,0.3,0.8,0.5,1.3,0.5C84.3,21.4,84.6,21.3,85.1,21.1z"/>
	<path d="M92,22.1c-0.3-0.3-0.5-0.9-0.5-1.6v-7.1h-1.3v-0.8c0.1,0,0.2-0.1,0.5-0.1c0.3-0.1,0.5-0.1,0.6-0.2c0.2-0.1,0.3-0.3,0.5-0.7
		c0.1-0.2,0.2-0.6,0.3-1.1s0.2-0.8,0.2-0.9h1.1l0,2.7h3.1v1.2h-3.1v5.6c0,0.7,0,1.2,0.1,1.5c0,0.3,0.1,0.5,0.3,0.6
		c0.1,0.1,0.4,0.1,0.7,0.1c0.3,0,0.7,0,1.1-0.1c0.4-0.1,0.7-0.2,0.9-0.3l0.3,0.8c-0.3,0.2-0.8,0.4-1.4,0.6c-0.7,0.2-1.3,0.3-1.8,0.3
		C92.9,22.6,92.3,22.5,92,22.1z"/>
	<path d="M98.9,8.7l-1.5-0.2V7.7l3-0.3h0l0.4,0.3v4.3l-0.1,1.6c0.4-0.4,0.9-0.7,1.6-1c0.7-0.3,1.4-0.5,2.1-0.5
		c0.8,0,1.4,0.1,1.8,0.4c0.4,0.3,0.7,0.7,0.9,1.4c0.2,0.6,0.3,1.4,0.3,2.5v5.1l1.3,0.2v0.9h-4.4v-0.9l1.2-0.2v-5.2
		c0-0.7,0-1.3-0.1-1.7c-0.1-0.4-0.3-0.7-0.6-0.9c-0.3-0.2-0.7-0.3-1.2-0.3c-0.4,0-0.9,0.1-1.4,0.3s-0.9,0.5-1.3,0.8v7l1.3,0.2v0.9
		h-4.3v-0.9l1.1-0.1V8.7z"/>
	<path d="M111.2,21.2c-0.8-1-1.2-2.3-1.2-3.9c0-1.1,0.2-2,0.6-2.8c0.4-0.8,1-1.4,1.7-1.9c0.7-0.4,1.6-0.7,2.5-0.7
		c1.1,0,2,0.3,2.7,0.9c0.6,0.6,1,1.5,1,2.7c0,0.7,0,1.3-0.1,1.7H112c0,1.2,0.3,2.2,0.8,2.9s1.3,1.1,2.3,1.1c0.5,0,1-0.1,1.5-0.3
		c0.5-0.2,0.9-0.4,1.2-0.6l0.3,0.8c-0.4,0.4-0.9,0.7-1.6,1s-1.4,0.4-2.1,0.4C113.1,22.6,111.9,22.2,111.2,21.2z M116.4,16.3
		c0-0.3,0.1-0.5,0.1-0.8c0-0.8-0.2-1.4-0.5-1.9s-0.8-0.7-1.5-0.7c-0.7,0-1.3,0.3-1.7,0.8c-0.4,0.5-0.7,1.4-0.7,2.6H116.4z"/>
	<path d="M120.1,21.5l1.4-0.1v-7.8l-1.3-0.3v-1l2.5-0.3h0l0.4,0.3v0.3l-0.1,1.4h0.1c0.1-0.2,0.3-0.5,0.7-0.8
		c0.3-0.3,0.7-0.6,1.2-0.9c0.5-0.3,1-0.4,1.6-0.4c0.2,0,0.4,0,0.6,0.1v2.1c-0.1-0.1-0.2-0.1-0.4-0.2s-0.4-0.1-0.6-0.1
		c-1,0-2,0.3-2.8,0.9v6.6l2.3,0.1v0.9h-5.6V21.5z"/>
</g>
</svg>
