<?xml version="1.0" encoding="utf-8"?>
<!-- Generator: Adobe Illustrator 22.0.1, SVG Export Plug-In . SVG Version: 6.00 Build 0)  -->
<svg version="1.1" id="Layer_1" xmlns="http://www.w3.org/2000/svg" xmlns:xlink="http://www.w3.org/1999/xlink" x="0px" y="0px"
	 width="96.1px" height="30px" viewBox="0 0 96.1 30" style="enable-background:new 0 0 96.1 30;" xml:space="preserve">
<g>
	<path d="M10.7,20.7c-1.1,0-2.1-0.2-3-0.7c-0.9-0.5-1.5-1.1-2-1.8c-0.5-0.8-0.8-1.6-1.1-2.5c-0.2-0.9-0.3-1.8-0.3-2.8
		s0.1-1.9,0.3-2.8c0.2-0.9,0.6-1.7,1.1-2.5c0.5-0.8,1.1-1.4,2-1.8c0.9-0.5,1.8-0.7,3-0.7c0.9,0,1.7,0.2,2.5,0.5
		c0.7,0.3,1.3,0.7,1.8,1.2c0.5,0.5,0.9,1.1,1.2,1.8c0.3,0.7,0.6,1.4,0.7,2.1c0.1,0.7,0.2,1.5,0.2,2.2s-0.1,1.5-0.2,2.2
		c-0.1,0.7-0.4,1.4-0.7,2.1c-0.3,0.7-0.7,1.3-1.2,1.8c-0.5,0.5-1.1,0.9-1.8,1.2C12.4,20.6,11.6,20.7,10.7,20.7z M8.6,18.5
		c0.6,0.3,1.3,0.5,2.1,0.5s1.5-0.2,2.1-0.5c0.6-0.4,1.1-0.8,1.4-1.5c0.3-0.6,0.6-1.2,0.7-1.9s0.2-1.4,0.2-2.1c0-1.1-0.1-2-0.4-2.9
		S14,8.5,13.3,7.8c-0.7-0.6-1.6-0.9-2.6-0.9c-0.8,0-1.5,0.2-2.1,0.5C8,7.8,7.5,8.3,7.2,8.9c-0.3,0.6-0.6,1.2-0.7,1.9
		c-0.2,0.7-0.2,1.4-0.2,2.1c0,0.8,0.1,1.5,0.2,2.2s0.4,1.3,0.7,1.9C7.5,17.6,8,18.1,8.6,18.5z"/>
	<path d="M23.2,20.5l-4-11h1.9l2.6,7.3c0.2,0.5,0.3,0.9,0.3,1.1c0-0.2,0.2-0.5,0.3-1.1L27,9.5h1.9l-4,11H23.2z"/>
	<path d="M35.5,20.7c-1.5,0-2.7-0.5-3.6-1.6c-0.9-1.1-1.3-2.5-1.3-4.2c0-1.8,0.4-3.2,1.3-4.2c0.9-1,2.1-1.5,3.5-1.5
		c1.3,0,2.4,0.4,3.3,1.3c0.9,0.9,1.3,2.2,1.3,3.9c0,0.4,0,0.8-0.1,1.2h-7.4c0.1,1,0.4,1.8,0.9,2.4s1.2,0.9,2.1,0.9
		c0.9,0,1.7-0.3,2.4-1l1.1,1.3C38.1,20.3,36.9,20.7,35.5,20.7z M32.5,14.1h5.6c0-1.1-0.3-2-0.8-2.5c-0.5-0.5-1.1-0.8-1.8-0.8
		c-0.8,0-1.5,0.3-2.1,0.8C32.9,12.2,32.6,13,32.5,14.1z"/>
	<path d="M42.8,20.5v-11h1.9v1.4c0.5-1.1,1.4-1.7,2.6-1.7c0.7,0,1.3,0.2,1.7,0.6l-0.3,1.8c-0.5-0.3-1-0.5-1.6-0.5
		c-0.6,0-1.2,0.3-1.7,0.8c-0.5,0.5-0.7,1.3-0.7,2.4v6.2H42.8z"/>
	<path d="M55.9,20.7c-1.1,0-2.1-0.4-2.8-1.3v4.5l-1.9,0.9V9.5h1.9v0.9c0.8-0.8,1.7-1.2,2.8-1.2c1.4,0,2.5,0.5,3.3,1.5
		c0.8,1,1.2,2.4,1.2,4.2c0,1.8-0.4,3.2-1.2,4.2C58.3,20.2,57.2,20.7,55.9,20.7z M55.6,19c0.9,0,1.6-0.3,2.1-1s0.7-1.7,0.7-3
		c0-1.2-0.3-2.2-0.8-2.9c-0.5-0.7-1.2-1.1-2.1-1.1c-1.2,0-2,0.5-2.6,1.5v5.1C53.8,18.5,54.7,19,55.6,19z"/>
	<path d="M69.6,20.5v-1c-0.9,0.8-1.9,1.3-3.1,1.3c-1.2,0-2.1-0.3-2.8-1c-0.7-0.6-1-1.5-1-2.7s0.4-2.1,1.2-2.7
		c0.8-0.6,1.8-0.9,2.9-0.9c1.1,0,2,0.2,2.8,0.7v-0.8c0-0.9-0.2-1.6-0.6-1.9c-0.4-0.4-1-0.5-1.8-0.5c-1.1,0-2.2,0.4-3.2,1.1l-0.5-1.6
		c1.2-0.8,2.5-1.2,4-1.2c2.6,0,3.9,1.3,3.9,4v7.3H69.6z M66.8,19.1c1.1,0,2-0.5,2.8-1.4v-1.9C68.8,15.3,68,15,67,15
		c-0.8,0-1.4,0.2-1.9,0.5c-0.5,0.3-0.7,0.8-0.7,1.5c0,0.6,0.2,1.1,0.6,1.5S66,19.1,66.8,19.1z"/>
	<path d="M77.9,20.7c-0.8,0-1.5-0.2-2.2-0.5s-1.3-0.8-1.7-1.3l1.3-1.1c0.8,0.9,1.7,1.3,2.7,1.3c0.6,0,1.1-0.1,1.5-0.4
		c0.4-0.2,0.6-0.6,0.6-1c0-0.3-0.1-0.7-0.4-0.9c-0.3-0.3-0.6-0.5-0.8-0.6c-0.3-0.1-0.7-0.3-1.3-0.5c-1.1-0.4-2-0.9-2.5-1.4
		c-0.6-0.5-0.9-1.2-0.9-2c0-0.9,0.3-1.6,1-2.1s1.6-0.8,2.7-0.8c1.5,0,2.8,0.6,3.7,1.7L80.1,12c-0.7-0.7-1.5-1.1-2.4-1.1
		c-0.6,0-1,0.1-1.3,0.3c-0.3,0.2-0.5,0.5-0.5,0.9c0,0.2,0.1,0.4,0.2,0.6s0.3,0.3,0.6,0.5c0.3,0.2,0.5,0.3,0.7,0.4
		c0.2,0.1,0.5,0.2,0.9,0.4c1.2,0.4,2,0.9,2.7,1.4s0.9,1.3,0.9,2.2c0,1-0.4,1.7-1.1,2.3C80,20.5,79.1,20.7,77.9,20.7z"/>
	<path d="M87.9,20.7c-0.8,0-1.5-0.2-2.2-0.5s-1.3-0.8-1.7-1.3l1.3-1.1c0.8,0.9,1.7,1.3,2.7,1.3c0.6,0,1.1-0.1,1.5-0.4
		c0.4-0.2,0.6-0.6,0.6-1c0-0.3-0.1-0.7-0.4-0.9c-0.3-0.3-0.6-0.5-0.8-0.6c-0.3-0.1-0.7-0.3-1.3-0.5c-1.1-0.4-2-0.9-2.5-1.4
		c-0.6-0.5-0.9-1.2-0.9-2c0-0.9,0.3-1.6,1-2.1s1.6-0.8,2.7-0.8c1.5,0,2.8,0.6,3.7,1.7L90.2,12c-0.7-0.7-1.5-1.1-2.4-1.1
		c-0.6,0-1,0.1-1.3,0.3c-0.3,0.2-0.5,0.5-0.5,0.9c0,0.2,0.1,0.4,0.2,0.6s0.3,0.3,0.6,0.5c0.3,0.2,0.5,0.3,0.7,0.4
		c0.2,0.1,0.5,0.2,0.9,0.4c1.2,0.4,2,0.9,2.7,1.4s0.9,1.3,0.9,2.2c0,1-0.4,1.7-1.1,2.3C90.1,20.5,89.1,20.7,87.9,20.7z"/>
</g>
</svg>
