<?xml version="1.0" encoding="utf-8"?>
<!-- Generator: Adobe Illustrator 22.0.1, SVG Export Plug-In . SVG Version: 6.00 Build 0)  -->
<svg version="1.1" id="Layer_1" xmlns="http://www.w3.org/2000/svg" xmlns:xlink="http://www.w3.org/1999/xlink" x="0px" y="0px"
	 width="112.6px" height="30px" viewBox="0 0 112.6 30" style="enable-background:new 0 0 112.6 30;" xml:space="preserve">
<g>
	<path d="M18.7,22.3c0.2,0.2,0.3,0.4,0.3,0.7c0,0.4-0.2,0.8-0.7,1.1s-1.1,0.6-1.7,0.9c-0.7,0.2-1.3,0.3-1.9,0.3
		c-0.9,0-1.6-0.1-2.2-0.3c-0.6-0.2-1.2-0.4-1.8-0.8c-0.5-0.3-0.8-0.4-1.1-0.5c-0.3-0.1-0.6-0.2-1-0.2c-0.2,0-0.3,0-0.5,0.1
		c-0.2,0.1-0.3,0.1-0.5,0.2c-0.4,0.2-0.7,0.3-1,0.3c-0.3,0-0.5-0.1-0.7-0.3c-0.2-0.2-0.3-0.5-0.3-0.7c0-0.5,0.2-0.8,0.6-0.9l2.5-0.9
		c-1.2-0.2-2.3-0.7-3.2-1.4c-0.9-0.7-1.7-1.7-2.2-2.8c-0.5-1.1-0.8-2.4-0.8-3.7c0-1.5,0.3-2.9,1-4.1C4.1,8,5,7.1,6.1,6.4
		C7.3,5.7,8.6,5.3,10,5.3c1.4,0,2.7,0.4,3.9,1.1c1.1,0.7,2,1.7,2.7,2.9c0.6,1.2,1,2.6,1,4.1c0,1.3-0.2,2.5-0.7,3.6
		c-0.5,1.1-1.2,2-2.1,2.8s-1.9,1.2-3.1,1.5l-1.7,0.6c0.4,0,0.7,0.1,1,0.3c0.3,0.1,0.7,0.3,1.1,0.5c0.5,0.3,1,0.5,1.4,0.6
		s0.8,0.2,1.3,0.2c0.4,0,0.8-0.1,1.1-0.2c0.3-0.1,0.6-0.3,0.9-0.5c0.1-0.1,0.3-0.2,0.4-0.3c0.2-0.1,0.3-0.2,0.4-0.3
		c0.1-0.1,0.3-0.1,0.4-0.1C18.3,22,18.5,22.1,18.7,22.3z M5.4,16.4c0.4,0.9,1.1,1.6,1.9,2.1C8.1,19,9,19.3,10,19.3
		c1,0,1.9-0.3,2.7-0.8c0.8-0.5,1.4-1.2,1.9-2.1c0.4-0.9,0.7-1.9,0.7-3s-0.2-2.1-0.7-3c-0.4-0.9-1.1-1.6-1.9-2.1
		C11.9,7.7,11,7.4,10,7.4c-1,0-1.9,0.3-2.7,0.8c-0.8,0.5-1.4,1.2-1.9,2.1c-0.4,0.9-0.7,1.9-0.7,3C4.8,14.5,5,15.5,5.4,16.4z"/>
	<path d="M29.6,9.8c0.2,0.2,0.3,0.5,0.3,0.8v5.9c0,1.5-0.4,2.8-1.3,3.6c-0.9,0.9-2.1,1.3-3.6,1.3c-1.5,0-2.7-0.4-3.6-1.3
		c-0.8-0.9-1.3-2.1-1.3-3.6v-5.9c0-0.3,0.1-0.6,0.3-0.8c0.2-0.2,0.5-0.3,0.7-0.3c0.3,0,0.6,0.1,0.8,0.3c0.2,0.2,0.3,0.5,0.3,0.8v5.9
		c0,2,0.9,2.9,2.7,2.9c0.9,0,1.6-0.2,2.1-0.7s0.7-1.2,0.7-2.2v-5.9c0-0.3,0.1-0.6,0.3-0.8c0.2-0.2,0.5-0.3,0.7-0.3
		C29.2,9.5,29.4,9.6,29.6,9.8z"/>
	<path d="M33.1,7.6c-0.2-0.2-0.3-0.4-0.3-0.7V6.5c0-0.4,0.1-0.6,0.3-0.8c0.2-0.1,0.5-0.2,0.9-0.2c0.4,0,0.7,0.1,0.9,0.2
		c0.2,0.2,0.3,0.4,0.3,0.7v0.4c0,0.4-0.1,0.6-0.3,0.8S34.4,7.9,34,7.9C33.6,7.9,33.3,7.8,33.1,7.6z M34.8,20.8
		c-0.2,0.2-0.5,0.3-0.8,0.3c-0.3,0-0.5-0.1-0.7-0.3c-0.2-0.2-0.3-0.5-0.3-0.8v-9.7c0-0.3,0.1-0.6,0.3-0.8s0.5-0.3,0.7-0.3
		c0.3,0,0.6,0.1,0.8,0.3c0.2,0.2,0.3,0.5,0.3,0.8v9.7C35.1,20.4,35,20.6,34.8,20.8z"/>
	<path d="M46.2,9.7c0.8,0.4,1.2,0.8,1.2,1.4c0,0.3-0.1,0.5-0.2,0.7c-0.2,0.2-0.4,0.3-0.6,0.3c-0.2,0-0.3,0-0.5-0.1
		c-0.1-0.1-0.3-0.2-0.5-0.3c-0.1-0.1-0.2-0.2-0.4-0.3c-0.2-0.1-0.4-0.2-0.8-0.2c-0.3-0.1-0.6-0.1-0.9-0.1c-0.8,0-1.5,0.2-2.1,0.5
		c-0.6,0.4-1.1,0.9-1.4,1.5c-0.3,0.6-0.5,1.3-0.5,2.1c0,0.8,0.2,1.5,0.5,2.1c0.3,0.6,0.8,1.1,1.4,1.5c0.6,0.4,1.2,0.5,2,0.5
		c0.8,0,1.4-0.1,1.9-0.4c0.1-0.1,0.2-0.2,0.4-0.3c0.1-0.1,0.3-0.2,0.4-0.3c0.1-0.1,0.2-0.1,0.4-0.1c0.3,0,0.5,0.1,0.7,0.3
		c0.2,0.2,0.3,0.4,0.3,0.7c0,0.3-0.2,0.6-0.6,0.9c-0.4,0.3-0.9,0.6-1.6,0.7s-1.4,0.3-2.1,0.3c-1.1,0-2.1-0.3-3-0.8s-1.5-1.3-2-2.2
		c-0.5-0.9-0.7-2-0.7-3.1s0.2-2.2,0.7-3.1c0.5-0.9,1.2-1.7,2.1-2.2c0.9-0.5,1.9-0.8,3-0.8C44.4,9.2,45.4,9.4,46.2,9.7z"/>
	<path d="M59.5,20.1c0,0.3-0.1,0.5-0.3,0.7c-0.2,0.2-0.5,0.3-0.7,0.3c-0.3,0-0.6-0.1-0.8-0.4l-4.4-4.7l-1.3,1.2v2.8
		c0,0.3-0.1,0.6-0.3,0.8c-0.2,0.2-0.5,0.3-0.7,0.3c-0.3,0-0.6-0.1-0.8-0.3c-0.2-0.2-0.3-0.5-0.3-0.8V5.7c0-0.3,0.1-0.6,0.3-0.8
		c0.2-0.2,0.5-0.3,0.8-0.3c0.3,0,0.5,0.1,0.7,0.3c0.2,0.2,0.3,0.5,0.3,0.8v9.1l5.5-5c0.3-0.2,0.5-0.3,0.8-0.3c0.3,0,0.5,0.1,0.7,0.3
		c0.2,0.2,0.3,0.4,0.3,0.7c0,0.3-0.1,0.6-0.4,0.8l-3.9,3.4l4.3,4.6C59.4,19.5,59.5,19.8,59.5,20.1z"/>
	<path d="M61,18.7c0-0.3,0.2-0.6,0.5-0.8c0.1-0.1,0.3-0.2,0.5-0.2c0.3,0,0.5,0.1,0.7,0.3c0.4,0.5,0.9,0.9,1.4,1.1
		c0.5,0.3,1.1,0.4,1.8,0.4c0.6,0,1.1-0.1,1.5-0.4c0.4-0.2,0.6-0.6,0.6-1.2c0-0.5-0.2-0.9-0.7-1.2c-0.4-0.3-1.1-0.5-1.9-0.7
		c-0.8-0.2-1.5-0.5-2.1-0.7c-0.6-0.2-1-0.6-1.4-1.1c-0.4-0.5-0.6-1.1-0.6-1.8c0-0.7,0.2-1.3,0.6-1.8c0.4-0.5,0.9-0.9,1.5-1.2
		c0.6-0.3,1.3-0.4,2.1-0.4c0.7,0,1.4,0.1,2.1,0.4c0.7,0.3,1.3,0.7,1.7,1.2c0.2,0.2,0.3,0.4,0.3,0.6c0,0.2-0.1,0.5-0.4,0.7
		c-0.1,0.1-0.3,0.2-0.6,0.2c-0.3,0-0.5-0.1-0.6-0.3c-0.3-0.4-0.7-0.6-1.1-0.8c-0.5-0.2-1-0.3-1.5-0.3c-0.6,0-1,0.1-1.4,0.3
		c-0.4,0.2-0.6,0.6-0.6,1.2c0,0.5,0.2,0.9,0.7,1.2c0.4,0.3,1.1,0.5,2,0.7c0.8,0.2,1.4,0.4,2,0.7s1,0.6,1.3,1.1s0.5,1.1,0.5,1.8
		c0,0.7-0.2,1.3-0.6,1.8c-0.4,0.5-0.9,0.9-1.6,1.2s-1.3,0.4-2.1,0.4c-0.9,0-1.8-0.2-2.6-0.5c-0.8-0.3-1.5-0.8-2-1.6
		C61.1,19.1,61,18.9,61,18.7z"/>
	<path d="M83,9.6c0.2,0.2,0.3,0.5,0.3,0.8v9.7c0,0.3-0.1,0.6-0.3,0.8c-0.2,0.2-0.5,0.3-0.8,0.3s-0.6-0.1-0.8-0.3
		c-0.2-0.2-0.3-0.5-0.3-0.8v-0.6c-0.4,0.5-0.9,1-1.6,1.3c-0.7,0.4-1.4,0.5-2.2,0.5c-1,0-1.9-0.3-2.8-0.8c-0.8-0.5-1.5-1.2-1.9-2.2
		s-0.7-2-0.7-3.1c0-1.2,0.2-2.2,0.7-3.1s1.1-1.7,1.9-2.2c0.8-0.5,1.7-0.8,2.7-0.8c0.8,0,1.5,0.2,2.2,0.5c0.7,0.3,1.2,0.7,1.6,1.3
		v-0.5c0-0.3,0.1-0.6,0.3-0.8s0.4-0.3,0.8-0.3S82.8,9.4,83,9.6z M79.5,18.9c0.5-0.4,1-0.8,1.3-1.5c0.3-0.6,0.5-1.3,0.5-2.1
		c0-0.8-0.2-1.5-0.5-2.1c-0.3-0.6-0.7-1.1-1.3-1.5c-0.5-0.4-1.2-0.5-1.9-0.5c-0.7,0-1.3,0.2-1.9,0.5c-0.5,0.4-1,0.8-1.3,1.5
		s-0.5,1.3-0.5,2.1c0,0.8,0.2,1.5,0.5,2.1c0.3,0.6,0.7,1.1,1.3,1.5c0.5,0.4,1.2,0.5,1.9,0.5C78.4,19.4,79,19.2,79.5,18.9z"/>
	<path d="M96.4,14v6.1c0,0.3-0.1,0.6-0.3,0.8c-0.2,0.2-0.5,0.3-0.8,0.3c-0.3,0-0.5-0.1-0.7-0.3c-0.2-0.2-0.3-0.5-0.3-0.8V14
		c0-0.9-0.2-1.6-0.6-2.1c-0.4-0.5-1.1-0.8-2-0.8c-0.6,0-1.1,0.1-1.6,0.4c-0.5,0.3-0.9,0.6-1.1,1c-0.3,0.4-0.4,0.9-0.4,1.4v6.1
		c0,0.3-0.1,0.6-0.3,0.8c-0.2,0.2-0.5,0.3-0.8,0.3s-0.6-0.1-0.8-0.3c-0.2-0.2-0.3-0.5-0.3-0.8v-9.6c0-0.3,0.1-0.6,0.3-0.8
		c0.2-0.2,0.5-0.3,0.7-0.3c0.3,0,0.6,0.1,0.8,0.3c0.2,0.2,0.3,0.5,0.3,0.8v0.8c0.4-0.6,0.9-1.1,1.6-1.5c0.7-0.4,1.4-0.6,2.2-0.6
		C95.1,9.2,96.4,10.8,96.4,14z"/>
	<path d="M109.9,4.9c0.2,0.2,0.3,0.5,0.3,0.8v14.4c0,0.3-0.1,0.6-0.3,0.8c-0.2,0.2-0.5,0.3-0.8,0.3s-0.6-0.1-0.8-0.3
		c-0.2-0.2-0.3-0.5-0.3-0.8v-0.6c-0.4,0.5-0.9,1-1.6,1.4c-0.7,0.4-1.4,0.6-2.2,0.6c-1,0-1.9-0.3-2.7-0.8c-0.8-0.5-1.5-1.2-1.9-2.2
		s-0.7-2-0.7-3.1c0-1.2,0.2-2.2,0.7-3.1s1.1-1.7,1.9-2.2c0.8-0.5,1.7-0.8,2.7-0.8c0.8,0,1.5,0.2,2.2,0.5c0.7,0.3,1.2,0.8,1.6,1.3
		V5.7c0-0.3,0.1-0.6,0.3-0.8c0.2-0.2,0.4-0.3,0.8-0.3S109.7,4.7,109.9,4.9z M106.4,18.9c0.5-0.4,1-0.8,1.3-1.5
		c0.3-0.6,0.5-1.3,0.5-2.1c0-0.8-0.2-1.5-0.5-2.1c-0.3-0.6-0.7-1.1-1.3-1.5c-0.5-0.4-1.2-0.5-1.9-0.5c-0.7,0-1.3,0.2-1.9,0.5
		c-0.5,0.4-1,0.9-1.3,1.5c-0.3,0.6-0.5,1.3-0.5,2.1c0,0.8,0.2,1.5,0.5,2.1c0.3,0.6,0.7,1.1,1.3,1.5c0.5,0.4,1.2,0.5,1.9,0.5
		C105.2,19.4,105.9,19.2,106.4,18.9z"/>
</g>
</svg>
