<?xml version="1.0" encoding="utf-8"?>
<!-- Generator: Adobe Illustrator 22.0.1, SVG Export Plug-In . SVG Version: 6.00 Build 0)  -->
<svg version="1.1" id="Layer_1" xmlns="http://www.w3.org/2000/svg" xmlns:xlink="http://www.w3.org/1999/xlink" x="0px" y="0px"
	 width="91.1px" height="30px" viewBox="0 0 91.1 30" style="enable-background:new 0 0 91.1 30;" xml:space="preserve">
<g>
	<path d="M2.6,20.6V4.8h6.8c0.7,0,1.3,0.1,1.9,0.4c0.6,0.3,1.1,0.7,1.5,1.2s0.8,1,1,1.6c0.2,0.6,0.4,1.2,0.4,1.8
		c0,0.6-0.1,1.1-0.2,1.6c-0.2,0.5-0.4,1-0.7,1.4c-0.3,0.4-0.6,0.8-1,1.1c-0.4,0.3-0.9,0.5-1.4,0.6l3.8,6.1h-2.3l-3.6-5.7H4.6v5.7
		H2.6z M4.6,13.2h4.8c0.4,0,0.8-0.1,1.1-0.3c0.3-0.2,0.6-0.4,0.9-0.7c0.2-0.3,0.4-0.7,0.6-1.1c0.1-0.4,0.2-0.8,0.2-1.3
		c0-0.4-0.1-0.9-0.2-1.3c-0.2-0.4-0.4-0.7-0.6-1S10.7,7,10.3,6.8C10,6.7,9.6,6.6,9.2,6.6H4.6V13.2z"/>
	<path d="M19.9,20.9c-0.6,0-1.1-0.1-1.6-0.3c-0.5-0.2-0.9-0.4-1.3-0.8c-0.4-0.3-0.6-0.7-0.8-1.1c-0.2-0.4-0.3-0.9-0.3-1.4
		c0-0.6,0.1-1.1,0.4-1.5c0.2-0.5,0.6-0.8,1-1.2s1-0.6,1.6-0.7c0.6-0.2,1.3-0.3,2-0.3c0.6,0,1.1,0.1,1.7,0.2c0.6,0.1,1.1,0.2,1.5,0.4
		v-0.9c0-1-0.3-1.7-0.8-2.2c-0.5-0.5-1.3-0.8-2.3-0.8c-1.2,0-2.4,0.5-3.7,1.4l-0.6-1.3c0.8-0.5,1.5-0.9,2.3-1.1
		c0.7-0.3,1.5-0.4,2.3-0.4c1.5,0,2.7,0.4,3.5,1.2c0.9,0.8,1.3,2,1.3,3.5v4.8c0,0.5,0.2,0.7,0.6,0.7v1.7c-0.1,0-0.3,0.1-0.4,0.1
		c-0.1,0-0.3,0-0.4,0c-0.3,0-0.6-0.1-1-0.3c-0.3-0.2-0.5-0.5-0.5-0.9l0-0.8c-0.3,0.4-0.6,0.7-0.9,0.9s-0.7,0.5-1.1,0.7
		s-0.8,0.3-1.2,0.4C20.7,20.8,20.3,20.9,19.9,20.9z M20.4,19.4c0.6,0,1.2-0.1,1.8-0.4c0.6-0.3,1.1-0.6,1.4-1
		c0.3-0.3,0.4-0.6,0.4-0.9v-1.7c-0.5-0.2-0.9-0.3-1.5-0.4s-1-0.1-1.5-0.1c-1,0-1.8,0.2-2.4,0.6s-0.9,1-0.9,1.7
		c0,0.3,0.1,0.6,0.2,0.9s0.3,0.5,0.5,0.7c0.2,0.2,0.5,0.4,0.8,0.5C19.6,19.3,20,19.4,20.4,19.4z"/>
	<path d="M29.3,4.3h2v13.3c0,0.4,0.1,0.8,0.3,1c0.2,0.2,0.6,0.4,1,0.4c0.2,0,0.4,0,0.6-0.1c0.2-0.1,0.4-0.1,0.6-0.2l0.3,1.6
		c-0.3,0.1-0.7,0.2-1.2,0.3c-0.4,0.1-0.8,0.1-1.2,0.1c-0.8,0-1.4-0.2-1.8-0.6c-0.4-0.4-0.7-1-0.7-1.8V4.3z"/>
	<path d="M40.7,20.9c-0.9,0-1.7-0.2-2.4-0.5s-1.4-0.8-1.9-1.3c-0.5-0.5-0.9-1.2-1.2-1.9c-0.3-0.7-0.4-1.5-0.4-2.3
		c0-0.8,0.1-1.6,0.4-2.3c0.3-0.7,0.7-1.4,1.2-1.9c0.5-0.6,1.2-1,1.9-1.3c0.7-0.3,1.5-0.5,2.4-0.5c0.9,0,1.7,0.2,2.4,0.5
		c0.7,0.3,1.3,0.8,1.8,1.3c0.5,0.5,0.9,1.2,1.2,1.9c0.3,0.7,0.4,1.5,0.4,2.2c0,0.2,0,0.3,0,0.4c0,0.1,0,0.2,0,0.3h-9.7
		c0,0.6,0.2,1.1,0.4,1.6c0.2,0.5,0.5,0.9,0.9,1.2c0.4,0.3,0.8,0.6,1.2,0.8c0.5,0.2,0.9,0.3,1.4,0.3c0.4,0,0.7,0,1-0.1
		c0.3-0.1,0.7-0.2,1-0.4s0.6-0.4,0.8-0.6c0.2-0.2,0.4-0.5,0.5-0.8l1.7,0.5c-0.2,0.4-0.5,0.8-0.8,1.2s-0.7,0.7-1.2,0.9
		c-0.4,0.3-0.9,0.5-1.5,0.6C41.8,20.8,41.3,20.9,40.7,20.9z M44.7,14c0-0.6-0.2-1.1-0.4-1.5c-0.2-0.5-0.5-0.9-0.9-1.2
		c-0.4-0.3-0.8-0.6-1.2-0.8c-0.5-0.2-1-0.3-1.5-0.3s-1,0.1-1.5,0.3c-0.5,0.2-0.9,0.4-1.2,0.8s-0.6,0.7-0.8,1.2
		c-0.2,0.5-0.3,1-0.4,1.5H44.7z"/>
	<path d="M63,9h1.9l-5,11.7h-1.6l-2.3-5.7l-2.3,5.7H52L47,9h1.9l4,9.7l2-4.8l-2-4.8h1.6l1.4,3.7L57.4,9H59l-2,4.8l2,4.8L63,9z"/>
	<path d="M69.5,20.9c-0.6,0-1.1-0.1-1.6-0.3c-0.5-0.2-0.9-0.4-1.3-0.8c-0.4-0.3-0.6-0.7-0.8-1.1c-0.2-0.4-0.3-0.9-0.3-1.4
		c0-0.6,0.1-1.1,0.4-1.5c0.2-0.5,0.6-0.8,1-1.2s1-0.6,1.6-0.7c0.6-0.2,1.3-0.3,2-0.3c0.6,0,1.1,0.1,1.7,0.2c0.6,0.1,1.1,0.2,1.5,0.4
		v-0.9c0-1-0.3-1.7-0.8-2.2c-0.5-0.5-1.3-0.8-2.3-0.8c-1.2,0-2.4,0.5-3.7,1.4l-0.6-1.3c0.8-0.5,1.5-0.9,2.3-1.1
		c0.7-0.3,1.5-0.4,2.3-0.4c1.5,0,2.7,0.4,3.5,1.2c0.9,0.8,1.3,2,1.3,3.5v4.8c0,0.5,0.2,0.7,0.6,0.7v1.7c-0.1,0-0.3,0.1-0.4,0.1
		c-0.1,0-0.3,0-0.4,0c-0.3,0-0.6-0.1-1-0.3S74,20,74,19.5l0-0.8c-0.3,0.4-0.6,0.7-0.9,0.9c-0.3,0.3-0.7,0.5-1.1,0.7
		s-0.8,0.3-1.2,0.4C70.3,20.8,69.9,20.9,69.5,20.9z M70,19.4c0.6,0,1.2-0.1,1.8-0.4c0.6-0.3,1.1-0.6,1.4-1c0.3-0.3,0.4-0.6,0.4-0.9
		v-1.7c-0.5-0.2-0.9-0.3-1.5-0.4s-1-0.1-1.5-0.1c-1,0-1.8,0.2-2.4,0.6s-0.9,1-0.9,1.7c0,0.3,0.1,0.6,0.2,0.9
		c0.1,0.3,0.3,0.5,0.5,0.7c0.2,0.2,0.5,0.4,0.8,0.5C69.2,19.3,69.6,19.4,70,19.4z"/>
	<path d="M78.9,23.8c0.4,0,0.8,0.1,1.1,0.1c0.1,0,0.3,0,0.4-0.1s0.3-0.2,0.4-0.4c0.1-0.2,0.3-0.6,0.5-1s0.4-1,0.7-1.8L77.1,9h2
		l4,9.9L86.7,9h1.9l-5.7,14.7c-0.3,0.7-0.7,1.2-1.2,1.5c-0.5,0.3-1.1,0.5-1.8,0.5c-0.2,0-0.3,0-0.5,0c-0.2,0-0.3,0-0.5-0.1V23.8z"/>
</g>
</svg>
