<?xml version="1.0" encoding="utf-8"?>
<!-- Generator: Adobe Illustrator 22.0.1, SVG Export Plug-In . SVG Version: 6.00 Build 0)  -->
<svg version="1.1" id="Layer_1" xmlns="http://www.w3.org/2000/svg" xmlns:xlink="http://www.w3.org/1999/xlink" x="0px" y="0px"
	 width="91.1px" height="30px" viewBox="0 0 91.1 30" style="enable-background:new 0 0 91.1 30;" xml:space="preserve">
<g>
	<path d="M12.6,15.8v6.9h-2.1V6.8h5.7c1.7,0,3.1,0.4,4,1.2c0.9,0.8,1.4,1.9,1.4,3.4c0,0.8-0.2,1.5-0.6,2.1c-0.4,0.6-1,1.1-1.9,1.4
		c0.9,0.3,1.5,0.7,1.9,1.4c0.4,0.6,0.6,1.4,0.6,2.4v1.5c0,0.5,0.1,0.9,0.2,1.3c0.1,0.4,0.3,0.7,0.6,1v0.3H20
		c-0.3-0.2-0.5-0.6-0.5-1.1c-0.1-0.5-0.1-1-0.1-1.5v-1.5c0-0.9-0.3-1.5-0.8-2.1s-1.2-0.8-2-0.8H12.6z M12.6,14.1H16
		c1.2,0,2.1-0.2,2.6-0.7c0.5-0.5,0.8-1.2,0.8-2.1c0-0.9-0.3-1.6-0.8-2.1c-0.5-0.5-1.3-0.7-2.4-0.7h-3.6V14.1z"/>
	<path d="M24.3,16.7c0-1.7,0.5-3.2,1.4-4.3c0.9-1.1,2.2-1.7,3.8-1.7c1.6,0,2.9,0.6,3.9,1.7c0.9,1.1,1.4,2.6,1.4,4.3v0.2
		c0,1.8-0.5,3.2-1.4,4.3c-0.9,1.1-2.2,1.7-3.9,1.7c-1.6,0-2.9-0.6-3.9-1.7c-0.9-1.1-1.4-2.6-1.4-4.3V16.7z M26.5,16.9
		c0,1.2,0.3,2.3,0.8,3.1c0.5,0.8,1.3,1.2,2.3,1.2c1,0,1.8-0.4,2.3-1.2c0.5-0.8,0.8-1.8,0.8-3.1v-0.2c0-1.2-0.3-2.3-0.8-3.1
		c-0.5-0.8-1.3-1.2-2.3-1.2c-1,0-1.8,0.4-2.3,1.2c-0.5,0.8-0.8,1.8-0.8,3.1V16.9z"/>
	<path d="M47.6,17.3c0,1.7-0.4,3.1-1.2,4.1c-0.8,1-1.9,1.6-3.4,1.6c-0.8,0-1.5-0.2-2-0.5s-1.1-0.7-1.4-1.3l-0.3,1.6h-1.8v-17h2.1
		v6.6c0.4-0.5,0.8-0.9,1.4-1.2c0.5-0.3,1.2-0.4,1.9-0.4c1.5,0,2.6,0.6,3.4,1.7c0.8,1.2,1.2,2.7,1.2,4.6V17.3z M45.5,17
		c0-1.4-0.2-2.5-0.7-3.3c-0.5-0.9-1.3-1.3-2.3-1.3c-0.7,0-1.2,0.2-1.7,0.5c-0.5,0.3-0.8,0.8-1.1,1.3v5.1c0.3,0.6,0.6,1,1.1,1.4
		s1,0.5,1.7,0.5c1,0,1.8-0.4,2.3-1.1s0.7-1.7,0.7-2.9V17z"/>
	<path d="M49.7,16.7c0-1.7,0.5-3.2,1.4-4.3c0.9-1.1,2.2-1.7,3.8-1.7c1.6,0,2.9,0.6,3.9,1.7c0.9,1.1,1.4,2.6,1.4,4.3v0.2
		c0,1.8-0.5,3.2-1.4,4.3c-0.9,1.1-2.2,1.7-3.9,1.7s-2.9-0.6-3.9-1.7c-0.9-1.1-1.4-2.6-1.4-4.3V16.7z M51.9,16.9
		c0,1.2,0.3,2.3,0.8,3.1c0.5,0.8,1.3,1.2,2.3,1.2c1,0,1.8-0.4,2.3-1.2c0.5-0.8,0.8-1.8,0.8-3.1v-0.2c0-1.2-0.3-2.3-0.8-3.1
		S56,12.4,55,12.4c-1,0-1.8,0.4-2.3,1.2c-0.5,0.8-0.8,1.8-0.8,3.1V16.9z"/>
	<path d="M65.7,8.1v2.8H68v1.6h-2.2v7.2c0,0.6,0.1,0.9,0.3,1.2c0.2,0.2,0.5,0.3,0.9,0.3c0.1,0,0.3,0,0.4,0s0.3-0.1,0.4-0.1l0.3,1.5
		c-0.2,0.1-0.4,0.2-0.7,0.3c-0.3,0.1-0.6,0.1-0.9,0.1c-0.9,0-1.6-0.3-2.1-0.8c-0.5-0.5-0.8-1.4-0.8-2.5v-7.2h-1.9v-1.6h1.9V8.1H65.7
		z"/>
	<path d="M70.1,16.7c0-1.7,0.5-3.2,1.4-4.3c0.9-1.1,2.2-1.7,3.8-1.7c1.6,0,2.9,0.6,3.9,1.7c0.9,1.1,1.4,2.6,1.4,4.3v0.2
		c0,1.8-0.5,3.2-1.4,4.3c-0.9,1.1-2.2,1.7-3.9,1.7s-2.9-0.6-3.9-1.7c-0.9-1.1-1.4-2.6-1.4-4.3V16.7z M72.3,16.9
		c0,1.2,0.3,2.3,0.8,3.1c0.5,0.8,1.3,1.2,2.3,1.2c1,0,1.8-0.4,2.3-1.2c0.5-0.8,0.8-1.8,0.8-3.1v-0.2c0-1.2-0.3-2.3-0.8-3.1
		s-1.3-1.2-2.3-1.2c-1,0-1.8,0.4-2.3,1.2c-0.5,0.8-0.8,1.8-0.8,3.1V16.9z"/>
</g>
</svg>
