<?xml version="1.0" encoding="utf-8"?>
<!-- Generator: Adobe Illustrator 22.0.1, SVG Export Plug-In . SVG Version: 6.00 Build 0)  -->
<svg version="1.1" id="Layer_1" xmlns="http://www.w3.org/2000/svg" xmlns:xlink="http://www.w3.org/1999/xlink" x="0px" y="0px"
	 width="84.5px" height="30px" viewBox="0 0 84.5 30" style="enable-background:new 0 0 84.5 30;" xml:space="preserve">
<g>
	<path d="M2.7,21.3h2V9.7h-2V8.3h7.6c1.5,0,2.7,0.3,3.6,1c0.9,0.6,1.3,1.6,1.3,2.8c0,2.2-1.2,3.5-3.7,3.8l3.3,5.4h2.1v1.4h-3.5
		l-3.9-6.6H7.7v-1.4h2.2c1.1,0,1.9-0.3,2.4-0.8c0.5-0.5,0.7-1.1,0.7-1.8c0-0.7-0.2-1.3-0.7-1.7c-0.5-0.5-1.2-0.7-2.1-0.7H6.8v11.7h2
		v1.4H2.7V21.3z"/>
	<path d="M20.7,22.3c-0.8-0.4-1.5-1.1-1.9-1.9c-0.5-0.8-0.7-1.7-0.7-2.8c0-1.1,0.2-2,0.7-2.8c0.5-0.8,1.1-1.4,1.9-1.9
		c0.8-0.4,1.8-0.7,2.8-0.7c1.1,0,2,0.2,2.8,0.7c0.8,0.4,1.5,1.1,1.9,1.9c0.5,0.8,0.7,1.7,0.7,2.8c0,1.1-0.2,2-0.7,2.8
		c-0.5,0.8-1.1,1.4-1.9,1.9c-0.8,0.4-1.8,0.7-2.8,0.7C22.5,23,21.5,22.8,20.7,22.3z M26.1,20.4c0.6-0.7,1-1.6,1-2.8
		c0-1.1-0.3-2.1-1-2.7c-0.6-0.7-1.5-1-2.6-1s-1.9,0.3-2.5,1c-0.6,0.7-0.9,1.6-0.9,2.8c0,1.2,0.3,2.1,1,2.8c0.6,0.7,1.5,1.1,2.5,1.1
		C24.6,21.5,25.4,21.1,26.1,20.4z"/>
	<path d="M30.3,22.7v-1.4h1.9V9.4h-1.8V8h3.7v9.3l4.3-3.3h-1.9v-1.4h5.3V14h-1.5L36,17.4l3.9,3.9h2v1.4H39l-4.9-4.9v3.6h1.6v1.4
		H30.3z"/>
	<path d="M43,22.7v-1.4h1.9V9.4h-1.8V8h3.7v9.3l4.3-3.3h-1.9v-1.4h5.3V14h-1.5l-4.3,3.4l3.9,3.9h2v1.4h-2.9l-4.9-4.9v3.6h1.6v1.4H43
		z"/>
	<path d="M55.6,22.7v-1.4h1.9V14h-1.9v-1.4h3.8v8.7h1.8v1.4H55.6z M57.3,10.1c-0.3-0.2-0.4-0.6-0.4-0.9c0-0.4,0.1-0.7,0.4-0.9
		c0.3-0.2,0.6-0.4,1-0.4s0.7,0.1,1,0.4c0.3,0.2,0.4,0.6,0.4,0.9c0,0.4-0.1,0.7-0.4,0.9c-0.3,0.2-0.6,0.4-1,0.4S57.5,10.3,57.3,10.1z
		"/>
	<path d="M64,19.7V14h-1.7v-1.4H64V9.2l1.9-0.7v4.2h2.7V14h-2.7v5.6c0,0.6,0.1,1.1,0.3,1.3c0.2,0.3,0.6,0.4,1,0.4h1.5v1.4H67
		C65,22.7,64,21.7,64,19.7z"/>
	<path d="M71.7,19.7V14h-1.7v-1.4h1.7V9.2l1.9-0.7v4.2h2.7V14h-2.7v5.6c0,0.6,0.1,1.1,0.3,1.3c0.2,0.3,0.6,0.4,1,0.4h1.5v1.4h-1.9
		C72.7,22.7,71.7,21.7,71.7,19.7z"/>
</g>
</svg>
