<?xml version="1.0" encoding="utf-8"?>
<!-- Generator: Adobe Illustrator 22.0.1, SVG Export Plug-In . SVG Version: 6.00 Build 0)  -->
<svg version="1.1" id="Layer_1" xmlns="http://www.w3.org/2000/svg" xmlns:xlink="http://www.w3.org/1999/xlink" x="0px" y="0px"
	 width="80px" height="30px" viewBox="0 0 80 30" style="enable-background:new 0 0 80 30;" xml:space="preserve">
<g>
	<path d="M9.7,23.8c-1,0-1.9-0.2-2.6-0.5c-0.7-0.3-1.4-0.7-1.8-1.3c-0.5-0.5-0.8-1.2-1.1-1.9c-0.2-0.7-0.3-1.5-0.3-2.4V8H6v9.5
		c0,1.5,0.3,2.7,1,3.4c0.7,0.7,1.6,1,2.7,1c0.6,0,1.1-0.1,1.5-0.3s0.8-0.4,1.2-0.8c0.3-0.4,0.6-0.8,0.8-1.4c0.2-0.6,0.3-1.2,0.3-2V8
		h2.2v9.7c0,0.9-0.1,1.7-0.3,2.4c-0.2,0.7-0.6,1.4-1.1,1.9c-0.5,0.5-1.1,1-1.8,1.3S10.7,23.8,9.7,23.8z"/>
	<path d="M21.2,12.4c0.3-0.2,0.6-0.3,1.2-0.5c0.5-0.2,1.1-0.3,1.8-0.3c0.8,0,1.6,0.1,2.2,0.4c0.6,0.3,1.2,0.7,1.6,1.3
		c0.4,0.5,0.8,1.2,1,1.9c0.2,0.7,0.3,1.6,0.3,2.5c0,0.9-0.1,1.8-0.4,2.5c-0.3,0.8-0.7,1.4-1.2,1.9c-0.5,0.5-1.1,0.9-1.8,1.2
		c-0.7,0.3-1.5,0.4-2.4,0.4c-1,0-1.8-0.1-2.6-0.2c-0.7-0.1-1.4-0.3-1.8-0.4V6.5l2.1-0.4V12.4z M21.2,21.7c0.2,0.1,0.5,0.1,0.9,0.2
		c0.4,0.1,0.9,0.1,1.4,0.1c1.1,0,2-0.4,2.7-1.1c0.7-0.7,1-1.8,1-3.1c0-0.6-0.1-1.2-0.2-1.7c-0.1-0.5-0.3-1-0.6-1.4
		c-0.3-0.4-0.6-0.7-1-0.9c-0.4-0.2-0.9-0.3-1.5-0.3c-0.6,0-1.1,0.1-1.6,0.3s-0.8,0.4-1.1,0.6V21.7z"/>
	<path d="M41.5,23.2c-0.5,0.1-1.1,0.2-1.9,0.4c-0.8,0.1-1.7,0.2-2.7,0.2c-0.9,0-1.6-0.1-2.3-0.4c-0.6-0.3-1.1-0.6-1.5-1.1
		c-0.4-0.5-0.6-1-0.8-1.7c-0.2-0.6-0.2-1.4-0.2-2.2v-6.5h2.1V18c0,1.4,0.2,2.4,0.7,3c0.4,0.6,1.2,0.9,2.3,0.9c0.2,0,0.5,0,0.7,0
		c0.2,0,0.5,0,0.7-0.1c0.2,0,0.4,0,0.6-0.1c0.2,0,0.3,0,0.4-0.1v-9.8h2.1V23.2z"/>
	<path d="M45.1,12.2c0.5-0.1,1.1-0.2,1.9-0.4c0.8-0.1,1.7-0.2,2.7-0.2c0.9,0,1.7,0.1,2.3,0.4c0.6,0.3,1.1,0.6,1.5,1.1
		c0.4,0.5,0.6,1,0.8,1.7s0.2,1.4,0.2,2.2v6.5h-2.1v-6.1c0-0.7,0-1.3-0.1-1.8c-0.1-0.5-0.3-0.9-0.5-1.2s-0.5-0.5-0.9-0.7
		c-0.4-0.1-0.8-0.2-1.4-0.2c-0.2,0-0.5,0-0.7,0c-0.2,0-0.5,0-0.7,0.1c-0.2,0-0.4,0-0.6,0.1s-0.3,0.1-0.4,0.1v9.8h-2.1V12.2z"/>
	<path d="M59.9,11.9h4.4v1.7h-4.4V19c0,0.6,0,1.1,0.1,1.4c0.1,0.4,0.2,0.7,0.4,0.9s0.4,0.4,0.7,0.5c0.3,0.1,0.6,0.1,0.9,0.1
		c0.6,0,1.1-0.1,1.5-0.2c0.4-0.1,0.6-0.2,0.8-0.3l0.4,1.7c-0.2,0.1-0.6,0.2-1.1,0.4c-0.5,0.2-1.1,0.2-1.8,0.2c-0.8,0-1.4-0.1-2-0.3
		s-0.9-0.5-1.2-0.9c-0.3-0.4-0.5-0.9-0.7-1.5c-0.1-0.6-0.2-1.3-0.2-2V8.6l2.1-0.4V11.9z"/>
	<path d="M76.2,23.2c-0.5,0.1-1.1,0.2-1.9,0.4c-0.8,0.1-1.7,0.2-2.7,0.2c-0.9,0-1.6-0.1-2.3-0.4c-0.6-0.3-1.1-0.6-1.5-1.1
		s-0.6-1-0.8-1.7c-0.2-0.6-0.2-1.4-0.2-2.2v-6.5h2.1V18c0,1.4,0.2,2.4,0.7,3c0.4,0.6,1.2,0.9,2.3,0.9c0.2,0,0.5,0,0.7,0
		c0.2,0,0.5,0,0.7-0.1c0.2,0,0.4,0,0.6-0.1c0.2,0,0.3,0,0.4-0.1v-9.8h2.1V23.2z"/>
</g>
</svg>
