<?xml version="1.0" encoding="utf-8"?>
<!-- Generator: Adobe Illustrator 19.2.0, SVG Export Plug-In . SVG Version: 6.00 Build 0)  -->
<svg version="1.1" id="Layer_1_copy_4" xmlns="http://www.w3.org/2000/svg" xmlns:xlink="http://www.w3.org/1999/xlink" x="0px"
	 y="0px" width="940px" height="1329.4px" viewBox="0 0 940 1329.4" style="enable-background:new 0 0 940 1329.4;"
	 xml:space="preserve">
<style type="text/css">
	.st0{fill:#D9D9D9;}
</style>
<g>
	<g>
		<g>
			<path class="st0" d="M940,161.1c-142.2-44.9-300.4-41.5-474,10.4C230.8,242,113,272.4,0,276.9v-1.4
				c116.2-4.7,239.1-37.3,465.7-105.1c67.6-20.2,133.7-33.3,196.4-39c24.2-2.2,48.1-3.3,71.8-3.3c35.1,0,69.5,2.4,102.9,7.2
				c35.1,5.1,69.7,12.9,103.2,23.3V161.1z"/>
		</g>
		<g>
			<path class="st0" d="M940,165.4c-138.8-45.7-294.3-44.8-467.7,2.1c-34.3,9.3-65.6,17.8-95.9,26.1
				c-173.7,47.5-275,75.2-376.4,81.2v-1.3c102-6,204.2-34,376.1-81c30.3-8.3,61.6-16.9,95.9-26.1c66.6-18,131.5-29.3,193-33.5
				c18.9-1.3,37.5-1.9,56-1.9c39.5,0,78,3,115.1,8.8c35.4,5.6,70.2,14,103.9,25.1V165.4z"/>
		</g>
		<g>
			<path class="st0" d="M940,173.1c-73.1-25.7-151.1-38.6-234.1-38.6c-71.9,0-147.6,9.6-227.2,28.8
				c-80.4,19.4-146.4,36.9-204.6,52.4C160.3,245.9,81.4,266.9,0,273.2v-1.1c81.3-6.3,160.2-27.3,273.8-57.5
				c58.2-15.5,124.2-33,204.6-52.4c65.5-15.8,129.3-25.2,189.5-28.1c13.2-0.6,26.3-0.9,39.2-0.9c44.2,0,87.2,3.6,128.3,10.8
				c35.7,6.2,70.7,15.3,104.5,27L940,173.1L940,173.1z"/>
		</g>
		<g>
			<path class="st0" d="M940,177.8C864,149.8,782.2,136,694,136c-66.1,0-135.8,7.8-209.2,23.3c-110.3,23.3-195.6,46.5-264.2,65.2
				c-84.5,23-150.9,41.1-220.8,47.8V271c69.9-6.6,135.5-24.4,220.5-47.6c68.6-18.7,153.9-41.9,264.2-65.2
				c64.5-13.6,127-21.2,186-22.7c7.1-0.2,14.2-0.3,21.2-0.3c49.4,0,97.3,4.4,142.7,13c36.1,6.9,71.4,16.6,105.3,29v0.6H940z"/>
		</g>
		<g>
			<path class="st0" d="M940,186.4c-121.4-47.3-268.7-63.7-448.7-31.3C361,178.6,267.4,205.6,192,227.4
				C120.9,248,62.9,264.7,0,271.7v-1.1c62.8-7,120.8-23.7,191.8-44.2c75.3-21.8,169.1-48.8,299.3-72.3
				c63.4-11.4,124.7-17.3,182.4-17.4c0.6,0,1.2,0,1.8,0c55.2,0,108.5,5.3,158.5,15.6c36.5,7.6,72.1,18,106.2,31.2V186.4z"/>
		</g>
		<g>
			<path class="st0" d="M940,190.7c-85.2-35.1-178.8-52.2-281.9-52.2c-51.1,0-104.6,4.2-160.4,12.5
				c-143.8,21.4-241.9,52.1-320.8,76.7C113.4,247.5,59.6,264.3,0,271.6v-1.2c59.9-7.3,113.7-24.1,176.5-43.7
				c78.9-24.6,177.1-55.3,321-76.7c55.1-8.2,108.6-12.4,159.2-12.4c6.6,0,13.1,0.1,19.5,0.2c54.7,1.2,107.4,7.4,156.7,18.5
				c36.9,8.3,72.8,19.5,107.1,33.5V190.7z"/>
		</g>
		<g>
			<path class="st0" d="M638.9,138.7c-43.1,0-88.1,2.8-134.9,8.3c-153.4,17.9-249.7,50.7-334.6,79.6c-58.9,20-110.6,37.6-169.3,45.4
				v-1c58.6-7.8,110.2-25.3,169-45.3c85-28.9,181.4-61.7,334.8-79.6c45.3-5.3,89.3-8,131.4-8c14.8,0,29.3,0.3,43.6,1
				c45.7,2.1,89.9,7.6,131.7,16.4C756.5,144.2,699.5,138.7,638.9,138.7z"/>
		</g>
		<g>
			<path class="st0" d="M940,205.2c-92.5-42.1-202-66.6-333.2-66.6c-30.9,0-63.1,1.4-96.5,4.2c-160.3,13.5-257.6,49.7-343.5,81.6
				c-56.6,21-107.4,39.9-166.7,48.2v-1.1c59.2-8.3,109.9-27.1,166.4-48.1c85.9-31.9,183.4-68.2,343.8-81.7
				c34.3-2.9,67.6-4.3,99.9-4.3c124.4,0,233.7,21.5,329.9,65.1L940,205.2L940,205.2z"/>
		</g>
		<g>
			<path class="st0" d="M940,209.9C837.4,160.2,719.7,137,582.8,137c-21.6,0-43.7,0.6-66.2,1.7c-165.4,8.4-263.1,48-349.2,83
				C111.1,244.5,60.7,265,0,273.6v-1.3c61.2-8.6,111.9-29.2,167-51.6c86.2-35,183.9-74.7,349.5-83.1c21.8-1.1,43.2-1.7,64.2-1.7
				c35.8,0,70.4,1.6,103.4,4.8c51.3,5,100.3,14,145.7,26.8c38.8,10.9,75.4,24.6,110.2,41.2L940,209.9L940,209.9z"/>
		</g>
		<g>
			<path class="st0" d="M940,216.5c-105.6-53.1-234.1-82.1-394.7-82.1c-7.4,0-14.9,0.1-22.4,0.2c-169.3,2.8-266.7,45.9-352.7,83.9
				c-35.6,15.7-69.1,30.6-105.4,41.7c-22,6.7-43.3,11.5-64.8,14.6V274c63-9.1,114.1-31.7,169.8-56.3c86-38.1,183.6-81.2,353.1-84
				c7.8-0.1,15.5-0.2,23.1-0.2c106.2,0,198.9,12.4,282.7,37.8c39.4,11.9,76.3,26.6,111.3,44.2L940,216.5L940,216.5z"/>
		</g>
		<g>
			<path class="st0" d="M940,222.7c-107.8-57-241-89.1-410.8-92.2C357,127.3,260.1,173.9,174.7,215C119.5,241.5,66.9,266.8,0,276.1
				V275c66.9-9.2,119.1-34.3,174.3-60.8c43.8-21.1,89.1-42.8,145.4-59.2c59.3-17.2,122.5-25.6,192.7-25.6c5.6,0,11.2,0.1,16.9,0.2
				c113.8,2.1,211.4,16.9,298.3,45.1c40,13,77.3,28.7,112.4,47.4L940,222.7L940,222.7z"/>
		</g>
		<g>
			<path class="st0" d="M940,229.1C834.9,170.5,704,135.6,535.5,126.4c-174.5-9.5-266.4,38.4-355.3,84.7
				C124.1,240.3,70.6,268.2,0,277.6v-0.8c70.1-9.4,123.4-37.1,179.9-66.6c43.6-22.7,88.7-46.2,145-63c51.8-15.4,107.1-23,168-23
				c13.9,0,28.2,0.4,42.7,1.2c111.7,6.1,206.8,23.3,290.8,52.5c40.6,14.1,78.3,31,113.6,50.8L940,229.1L940,229.1z"/>
		</g>
		<g>
			<path class="st0" d="M940,238C837,176.6,708.5,137.5,541.9,122.3c-176.1-16.1-267.1,35.1-355.1,84.6
				c-57.4,32.3-112,63-186.8,72.3v-1.4c75.4-9.2,130.2-40.1,186.4-71.7c43.4-24.4,88.2-49.7,144.2-66.7c45.9-14,94.9-21,148.5-21
				c20.3,0,41.2,1,62.9,3c109.6,10,202.3,29.6,283.2,59.7c41.2,15.3,79.3,33.4,114.8,54.5V238z"/>
		</g>
		<g>
			<path class="st0" d="M940,244.8c-100.3-63.1-226.4-105.2-391.8-126.6c-177.4-23-267.3,31.5-354.2,84.2
				C135.3,238,79.6,271.8,0,280.7v-1c79.7-9,135.9-43.1,193.6-78c73-44.2,148-89.8,275.1-89.8c24.5,0,50.9,1.7,79.6,5.4
				C655.8,131.2,746,153.1,824,184.1c41.9,16.7,80.3,36,116,58.4V244.8z"/>
		</g>
		<g>
			<path class="st0" d="M940,251c-101.3-68.3-225.3-110-385.5-137c-178.2-30-266.9,27.8-352.7,83.6c-30.9,20.1-62.8,40.9-98.1,56.7
				C70,269.5,35.9,278.6,0,282.3v-0.6c84.4-8.5,142.1-46.1,201.4-84.7c69.6-45.4,141.2-92,260.9-92c27.9,0,58.5,2.5,92.3,8.2
				C660,131,747.9,155.1,822.9,187c42.6,18.1,81.4,38.8,117.1,62.6V251z"/>
		</g>
		<g>
			<path class="st0" d="M560.8,110C382,72.8,294.6,133.7,210,192.7c-30.5,21.2-62,43.2-97.2,60.1c-36.5,17.5-73.5,27.7-113,31.1
				v-0.8c90.5-7.9,151.1-50.1,209.7-91c42.2-29.5,85.9-59.9,140.6-77.8c29.5-9.6,59.7-14.9,92.3-16.2c5.1-0.2,10.2-0.3,15.4-0.3
				c32.1,0,65.9,3.8,102.9,11.5c86.4,18,160.1,39.3,224,64.9C719.8,148.3,645.8,127.7,560.8,110z"/>
		</g>
		<g>
			<path class="st0" d="M567.2,105.8c-179-44.7-265,19.5-348.2,81.5c-60.1,44.8-122.3,91.1-219,97.9v-0.8
				c96.5-6.8,158.5-53,218.5-97.7c41.8-31.1,85-63.3,139.1-81.4c29.2-9.7,59.1-14.7,91.6-15.3c2.1,0,4.1-0.1,6.2-0.1
				c34.6,0,71.3,5,112,15.1c101.5,25.3,184.3,53.9,253.4,87.2c4.5,2.2,8.9,4.3,13.3,6.6C759.5,161.5,672.2,132.1,567.2,105.8z"/>
		</g>
		<g>
			<path class="st0" d="M940,272.1c-91.7-73.3-207.5-123.9-366.5-170.3c-178.9-52.3-259.8,12-345.4,80
				c-62,49.2-125,99.3-228.1,104.9v-0.8c102.9-5.6,165.8-55.5,227.6-104.7c43.2-34.3,83.9-66.7,137.5-84.9
				c28.3-9.6,57.4-14.3,89-14.3c0.6,0,1.2,0,1.7,0c36.2,0.2,74.7,6.4,117.8,19C737.9,149,852,201.7,940,271.7V272.1z"/>
		</g>
		<g>
			<path class="st0" d="M940,280.5C851.2,204.7,738,150.8,579.8,97.6c-178.5-60-258,7.2-342.2,78.3C178.3,226,117,277.9,17.5,286.7
				c-5.7,0.5-11.6,0.9-17.5,1.1v-0.7c5.9-0.2,11.7-0.5,17.4-1.1c99.3-8.8,160.6-60.6,219.8-110.6c42.6-36,82.9-70,135.8-88.3
				c25.9-8.9,52.6-13.3,81.3-13.3c2.8,0,5.7,0,8.5,0.1C498.5,75,537,82.5,580,97c99,33.3,174.9,65.1,238.8,100.3
				c45.5,25,85.5,52.2,121.1,82.4v0.8H940z"/>
		</g>
		<g>
			<path class="st0" d="M940,289.4c-85.8-78.5-196.2-135.8-353.8-195.9c-177.9-67.9-256,2.2-338.6,76.3
				c-59,52.8-119.8,107.4-220.6,117.5c-8.8,0.9-17.8,1.4-27,1.6v-0.7c9.2-0.2,18.2-0.7,26.9-1.5c100.5-10.1,161.3-64.6,220.2-117.4
				c59.2-53.1,116-104,208.6-104c37,0,79.8,8.2,130.8,27.6c97.1,37,170.7,70.9,231.7,106.7c46.3,27.1,86.5,56.2,121.9,88.2v1.6H940z
				"/>
		</g>
		<g>
			<path class="st0" d="M940,296.9c-82.2-80.3-189.4-139.8-347.5-207.5c-177-75.8-253.6-3-334.7,74c-58.5,55.6-119,113-221,124.5
				c-11.9,1.3-24.2,2-36.7,2v-0.7c12.6,0,24.8-0.6,36.7-2c101.8-11.4,162.2-68.8,220.6-124.3c41.4-39.4,80.6-76.6,132-94.8
				c21.8-7.7,44.3-11.6,68.3-11.6c6.4,0,12.9,0.3,19.5,0.8c35.1,2.9,72.9,13.1,115.7,31.4c168,72,270.3,132.6,347.3,207.5v0.7H940z"
				/>
		</g>
		<g>
			<path class="st0" d="M940,306.9c-79.3-83.7-183.5-146.4-341.2-221.6C423,1.4,347.9,76.9,268.2,156.8
				C203,222.4,132.6,293.1,0,290.7V290c132.3,2.3,202.6-68.2,267.9-133.8c40.8-41,79.4-79.7,130-97.9c20-7.2,40.7-10.8,62.7-10.8
				c7.8,0,15.8,0.4,23.9,1.3c34.7,3.8,72.1,15.5,114.6,35.7c93.4,44.5,162.6,82.4,217.8,119.2c48.6,32.4,88.5,65.2,123.1,101.4
				L940,306.9L940,306.9z"/>
		</g>
		<g>
			<path class="st0" d="M940,315.8C864.2,229.5,763.5,164.7,605,81.2C525.5,39.1,462.5,29,407,49.1c-49.6,18-87.6,58.2-127.7,100.7
				c-28.4,30.1-57.7,61.1-93.1,86.6c-40.1,28.8-82.4,46-129.2,52.4c-18.2,2.5-37.1,3.4-56.9,2.7v-0.7c19.8,0.7,38.8-0.1,56.8-2.6
				c104.5-14.2,164.2-77.5,222-138.8C319,106.8,357,66.6,406.7,48.5c18.4-6.7,37.4-10,57.5-10c9,0,18.3,0.7,27.8,2
				c34.2,4.8,71.3,17.9,113.4,40.1c92.8,48.9,157.9,87.6,211,125.4c49.5,35.2,89.3,70.3,123.5,109L940,315.8L940,315.8z"/>
		</g>
	</g>
	<g>
		<g>
			<path class="st0" d="M0.1,1151.5c132.2,70.5,288.3,77.7,472.8,22.5c88.1-26.4,167.8-40.5,243.6-43.1
				c66.3-2.3,121.5,4.5,170.3,10.5c18.2,2.2,35.8,4.4,53.4,6v1c-17.4-1.7-35.1-3.8-53.5-6.1c-101.3-12.5-216.1-26.6-413.5,32.5
				c-67.4,20.2-131.8,32.2-191.4,35.7c-12.7,0.8-25.2,1.1-37.6,1.1c-43.2,0-84.7-4.6-123.8-13.6c-41.9-9.7-82.2-24.9-120.2-45.2
				l0-1.3H0.1z"/>
		</g>
		<g>
			<path class="st0" d="M0.1,1149.4c130.5,76.4,285.5,86.1,470.4,30.1c200.2-60.9,313.5-52.4,413.5-44.9c19.1,1.5,37.6,2.9,56.1,3.7
				v0.9c-18.4-0.9-36.9-2.2-56.2-3.7c-99.9-7.5-213.1-16-413.1,44.8c-63.3,19.2-123.9,30.8-180,34.7c-13.9,0.9-27.6,1.4-41.2,1.4
				c-38.6,0-75.8-3.8-111-11.4c-49.1-10.6-95-28.6-138.5-54.1L0.1,1149.4L0.1,1149.4z"/>
		</g>
		<g>
			<path class="st0" d="M0.1,1147c128.7,84,279.7,95.8,468,38.1c204.1-63.1,316.1-60.2,414.9-57.7c19.2,0.5,38.1,1,57.1,0.9v0.9
				c-19.1,0-37.9-0.4-57.1-0.9c-98.7-2.5-210.7-5.4-414.6,57.6c-59.7,18.3-116.7,29.6-169.6,33.6c-14.9,1.1-29.6,1.7-44.1,1.7
				c-34.6,0-67.9-3.2-99.5-9.7c-55.5-11.3-106.8-32.3-155-63.5L0.1,1147L0.1,1147z"/>
		</g>
		<g>
			<path class="st0" d="M0.1,1143.3c127,91.1,276.5,106,465.6,47.3c94.1-29.5,176.3-49,251.3-59.4c66.1-9.2,118.2-10.5,168.5-11.7
				c18.4-0.4,36.4-0.9,54.6-1.7v0.9c-18.3,0.8-36.3,1.3-54.6,1.7c-98,2.4-209.1,5.1-419.5,71.1c-56.4,17.5-110.4,28.5-160.4,32.7
				c-15.6,1.3-31,1.9-46.1,1.9c-31.2,0-61.3-2.8-89.9-8.3c-61.3-11.8-117.2-36-169.5-73.4L0.1,1143.3z"/>
		</g>
		<g>
			<path class="st0" d="M0.1,1139.1c125.2,99.1,273.2,117.2,463.3,57.1c221.7-70.2,328-78.1,430.8-85.8c15.3-1.1,30.4-2.3,45.9-3.6
				v0.9c-15.6,1.3-30.8,2.5-45.8,3.6c-102.7,7.7-209,15.6-430.7,85.7c-53.5,16.9-104.6,27.7-152,32c-16.3,1.5-32.3,2.2-48,2.2
				c-28.1,0-55.2-2.4-81-7.1C116,1211.9,56,1184.4,0,1140.1L0.1,1139.1L0.1,1139.1z"/>
		</g>
		<g>
			<path class="st0" d="M266.2,1235.7c57.7,0,122.2-10.7,194.8-34c246.1-78.9,345.1-90.7,459.8-104.4c6.4-0.8,12.8-1.5,19.3-2.3v0.9
				c-6.5,0.8-12.9,1.5-19.2,2.3c-114.6,13.7-213.6,25.4-459.6,104.4c-50.9,16.3-99.5,26.8-144.4,31.2c-16.5,1.6-32.8,2.4-48.8,2.4
				c-25.6,0-50.3-2.1-73.9-6.2c-31-5.4-60.6-14.4-88.9-27C152.8,1224,205.8,1235.7,266.2,1235.7z"/>
			<path class="st0" d="M0.1,1134.6c6.1,5.3,12.2,10.5,18.5,15.5c-5.8-4.6-11.6-9.4-17.4-14.4C0.8,1135.3,0.5,1135,0.1,1134.6
				L0.1,1134.6z"/>
			<path class="st0" d="M105.3,1203c-1.6-0.7-3.1-1.4-4.6-2.1C102.2,1201.6,103.8,1202.3,105.3,1203z"/>
		</g>
		<g>
			<path class="st0" d="M0.1,1126.6c7,6.8,14.1,13.3,21.4,19.6c116.7,100.7,255.6,120.1,437.1,61c265.1-86.2,354-105.6,481.5-124.5
				v0.9c-127.4,19-216.2,38.3-481.2,124.5c-48.5,15.8-94.7,26-137.5,30.4c-16.7,1.7-33.1,2.6-49.1,2.6c-23.4,0-46-1.8-67.6-5.5
				c-67.7-11.4-127.8-40.5-183.8-88.8c-7.1-6.1-14-12.4-20.8-19L0.1,1126.6L0.1,1126.6z"/>
		</g>
		<g>
			<path class="st0" d="M0.1,1118.2c105.2,113.2,240.8,165.6,456.2,94.6c43-14.2,81.6-27,115.7-38.4
				c181.9-60.5,257.5-85.7,368.1-104.6v0.9c-110.5,18.8-186.1,44-367.9,104.5c-34.1,11.3-72.7,24.2-115.7,38.4
				c-67.4,22.3-127,32.4-180.4,32.4c-117,0-203.7-48.9-276-126.5L0.1,1118.2z"/>
		</g>
		<g>
			<path class="st0" d="M0.1,1108.2c17.9,21.4,36.6,40.9,56.5,58.1c105.3,91,231.6,107.5,397.3,52.1
				c107.8-36.1,184.9-64.8,246.8-87.9c96.6-36.2,156.4-58.5,239.4-73.8v0.8c-82.5,15.3-142.4,37.6-239.1,73.7
				c-61.9,23.1-139,51.9-246.8,88c-63.6,21.3-121,31.8-173.7,31.8c-19.8,0-39-1.5-57.6-4.5c-61.5-9.8-116.1-35.9-166.7-79.6
				c-19.7-17-38.2-36.3-55.9-57.4l0-1.3H0.1z"/>
		</g>
		<g>
			<path class="st0" d="M0.1,1096.1c22.5,30,46.4,56.8,72.3,79.3c100,86.9,220.5,102.3,379.1,48.5
				c130.6-44.3,214.3-80.5,281.6-109.6c77.8-33.6,131.2-56.7,207-71.1v1c-76.2,14.5-130.4,37.9-206.6,70.9
				c-67.3,29.1-151.1,65.2-281.7,109.6c-61.6,20.9-116.9,31.2-167.7,31.2c-18.4,0-36.1-1.4-53.3-4c-58.7-9.2-110.7-34-158.9-75.8
				c-25.7-22.3-49.4-48.8-71.8-78.5L0.1,1096.1L0.1,1096.1z"/>
		</g>
		<g>
			<path class="st0" d="M449.1,1229.4c141.3-48.6,226.5-91.1,294.9-125.2c69.5-34.6,121.3-60.3,196.1-74.6v1.1
				c-75.1,14.2-126.8,40-195.7,74.3c-68.5,34.1-153.6,76.5-295,125.2c-59.6,20.5-113,30.7-161.9,30.7c-17,0-33.5-1.2-49.5-3.7
				c-20.4-3.1-40-8.3-58.8-15.5C250,1268.6,336.7,1268.1,449.1,1229.4z"/>
			<path class="st0" d="M93.1,1190.3c1.2,1,2.5,2.1,3.8,3.1C95.6,1192.3,94.4,1191.3,93.1,1190.3z"/>
			<path class="st0" d="M0.1,1082.6c28.4,42.2,58.7,78.8,93,107.7c-2.2-1.8-4.3-3.6-6.4-5.5c-29.8-26.1-57.9-58.9-86.6-101.2
				L0.1,1082.6z"/>
		</g>
		<g>
			<path class="st0" d="M0.1,1064.9c30.6,50.3,63.4,94.2,101.1,127.6c90,79.9,199.9,93.4,345.6,42.5
				c147.3-51.5,232.1-99.9,300.3-138.7c67-38.2,116.7-66.5,193-80.3v1c-76.5,13.9-126.8,42.6-192.5,80
				c-68.2,38.9-153.2,87.3-300.5,138.7c-57.3,20-109.1,30.1-156.4,30.1c-73.1,0-135.2-24.1-190.1-72.8
				c-34.6-30.7-66.8-71.1-100.5-126.4L0.1,1064.9z"/>
		</g>
		<g>
			<path class="st0" d="M0.1,1045.3c34.2,62.4,70.3,115.6,114.2,155.1c85.4,76.9,190.3,89.6,330.1,40.1
				c150.9-53.5,234.8-107.6,302.2-151.2c63.4-41,114.1-73.7,193.5-87v0.5c-78.4,13.2-128,45.2-193,87.2
				c-67.4,43.6-151.4,97.8-302.4,151.3c-55.4,19.6-105.3,29.5-150.8,29.5c-69.5,0-128.4-23.1-180.2-69.7
				c-35.4-31.9-68.1-74.7-102.7-134.8c-3.7-6.4-7.3-12.8-10.9-19.4L0.1,1045.3z"/>
		</g>
		<g>
			<path class="st0" d="M0.1,1021.9c94.2,188.6,197.5,312,441.9,224.1c153.3-55.1,235.8-115,302-163.1c63.4-46,112.8-81.9,196-94.1
				v0.9c-83,12.2-132.3,48-195.5,93.9c-66.3,48.2-148.9,108.1-302.3,163.2c-53.4,19.3-101.6,28.9-145.2,28.9
				c-66.1,0-122-22.2-170.9-67c-33.6-30.8-64.5-72.3-97.2-130.5c-9.8-17.4-19.3-35.6-28.8-54.5L0.1,1021.9z"/>
		</g>
		<g>
			<path class="st0" d="M0.1,995.2c41.9,91.3,83.1,168.8,138.3,220.4c76.5,71.5,172.3,82.9,301.3,35.9
				c154.8-56.5,235.7-122,300.7-174.7c62.1-50.4,111.2-90.2,198-101.2c0.6-0.1,1.2-0.1,1.8-0.2v0.8c-0.6,0.1-1.1,0.1-1.7,0.2
				c-86.5,10.9-135.5,50.7-197.6,101c-65,52.7-146,118.4-300.9,174.9c-53.3,19.4-99.5,28.3-140.2,28.3
				c-151.1,0-225.6-122.7-299.7-283.4L0.1,995.2z"/>
		</g>
		<g>
			<path class="st0" d="M0.1,965c46.3,107.7,88.7,200,149.4,257.9c72.4,69.2,163.9,80.1,287.8,34.2
				c155.9-57.7,235-128.9,298.6-186.1c60.3-54.3,108-97.2,195.3-107.7c3-0.4,6-0.7,9-0.9v0.8c-3,0.3-6,0.6-8.9,0.9
				c-87,10.5-134.6,53.3-194.8,107.5c-63.6,57.3-142.8,128.6-298.8,186.3c-50.3,18.6-94.8,27.8-134.9,27.8
				c-12.1,0-23.8-0.8-35.2-2.5c-44.6-6.6-83.4-26.1-118.5-59.6c-60.6-57.8-102.9-149.4-149-256.5L0.1,965z"/>
		</g>
		<g>
			<path class="st0" d="M0.1,931.7c2.7,6.5,5.3,12.9,7.9,19.3c48.1,117,89.6,217.9,152.1,279.1c68.4,66.9,155.7,77.3,274.8,32.5
				c156.5-58.7,233.8-135.5,295.9-197.3C789.4,1007,835.7,961,923.6,950.9c5.4-0.6,10.9-1.1,16.5-1.4v0.8
				c-5.6,0.3-11.1,0.8-16.4,1.4c-87.5,10-133.8,56-192.3,114.1c-62.2,61.8-139.5,138.7-296.2,197.5c-48.6,18.2-91.4,27.3-130,27.3
				c-11.4,0-22.4-0.8-33-2.4c-42.6-6.3-79.5-25.1-112.7-57.6C96.9,1169.3,55.4,1068.3,7.3,951.3c-2.4-5.8-4.8-11.6-7.2-17.5
				L0.1,931.7L0.1,931.7z"/>
		</g>
		<g>
			<path class="st0" d="M0.1,896c9.4,23.2,18.5,46.3,27.4,69.1c44.8,114.1,83.5,212.6,142.6,272c64.6,64.8,147.9,74.7,262.4,31.1
				c156.9-59.8,232.3-142.2,292.9-208.4c57-62.3,102-111.5,190.4-121.1c7.8-0.8,15.9-1.4,24.3-1.6v0.8c-8.4,0.2-16.4,0.7-24.2,1.6
				c-88.1,9.6-133,58.7-189.9,120.9c-60.6,66.2-136.1,148.7-293.2,208.5c-46.9,17.9-88.2,26.7-125.1,26.7c-10.7,0-21-0.7-31-2.2
				c-40.7-6-75.7-24.2-107.1-55.8c-59.2-59.5-97.9-158-142.8-272.2c-8.7-22.1-17.5-44.5-26.7-67.2L0.1,896L0.1,896z"/>
		</g>
		<g>
			<path class="st0" d="M0.1,859.3c16.9,41.2,32,81.6,46.2,119.6c26.6,71.2,51.8,138.5,81.2,191.8c32.7,59.2,67.3,95.5,109.1,114.3
				c51.2,23,114.5,19.3,193.5-11.2c157.1-60.8,230.5-148.7,289.6-219.4c26.8-32.1,52.2-62.5,81.3-85.2c32.1-25,66.1-38.6,106.9-42.9
				c10.2-1.1,20.9-1.5,32.2-1.4v0.8c-11.2-0.1-21.9,0.3-32.1,1.4c-88.7,9.2-132.4,61.5-187.7,127.7
				c-29.6,35.4-63.1,75.6-108.4,113.9c-52.1,44-111.4,78.6-181.4,105.7c-45.1,17.4-85.1,26.1-120.6,26.1c-26.9,0-51.3-5-73.5-14.9
				c-42-18.8-76.7-55.3-109.5-114.6c-29.5-53.4-54.6-120.7-81.3-192c-14.4-38.4-29.2-78-45.4-117.9l0-1.8H0.1z"/>
		</g>
		<g>
			<path class="st0" d="M0.1,822.3C24.9,880.7,45.5,938.7,64.4,992c24.7,69.6,48,135.4,75.5,187.4c30.5,57.7,63.2,93,103,111.2
				c48.6,22.2,109.1,18.5,184.9-11.3c157.1-61.7,228.6-155.2,286-230.3c26.1-34.1,50.7-66.3,79.3-90.2
				c31.8-26.5,65.7-40.7,106.8-44.7c12.6-1.2,26-1.5,40.2-0.8v0.8c-14.2-0.7-27.6-0.5-40.1,0.8c-89.2,8.8-131.7,64.3-185.5,134.6
				c-28.8,37.7-61.5,80.4-106.1,120.8c-51.3,46.3-110.3,82.2-180.3,109.7c-43.5,17.1-82,25.6-116.1,25.6c-25.5,0-48.6-4.8-69.5-14.3
				c-39.9-18.2-72.8-53.6-103.4-111.4c-27.6-52.1-50.9-117.9-75.6-187.5C44.8,939.6,24.6,882.6,0,824.7L0.1,822.3L0.1,822.3z"/>
		</g>
		<g>
			<path class="st0" d="M0.1,786.4c33.6,74.6,58.8,150.2,81.6,218.2c22.8,68.1,44.2,132.4,69.9,183.2
				c28.4,56.2,59.3,90.5,97.1,108.1c46.1,21.4,103.9,17.8,176.8-11.1c156.8-62.8,226.2-161.7,282-241.2
				c25.3-36.1,49.3-70.1,77.5-95.4c31.3-27.9,65.1-42.7,106.5-46.6c15-1.4,31.2-1.3,48.5,0.2v0.8c-17.3-1.6-33.5-1.6-48.5-0.3
				c-89.9,8.3-131.2,67.2-183.5,141.6c-28,39.9-59.8,85.2-103.7,127.5c-50.2,48.9-108.6,86.1-178.6,114.1
				c-41.9,16.6-78.8,24.9-111.4,24.9c-24.3,0-46.2-4.6-66-13.8c-38-17.7-68.9-52.1-97.4-108.4c-25.7-50.8-47.2-115.1-70-183.3
				C58.3,937.3,33.4,862.8,0.1,788.6L0.1,786.4L0.1,786.4z"/>
		</g>
		<g>
			<path class="st0" d="M0.1,752.4c43.5,89.6,72.6,182.5,98.4,264.9c20.9,66.7,40.6,129.7,64.5,179.2
				c26.4,54.8,55.4,88.2,91.4,105.2c43.6,20.6,98.7,16.9,168.7-11.4c156.8-63.6,224.2-168,278.4-251.9c24.6-38,47.8-74,75.6-100.5
				c30.8-29.4,64.6-44.8,106.3-48.5c17.3-1.5,36.2-1,56.7,1.7v0.8c-20.5-2.6-39.3-3.2-56.6-1.7c-90.4,8-130.6,70.1-181.3,148.7
				c-27.2,42.2-58.1,90-101.3,134.3c-49.6,50.9-107.6,89.5-177.6,117.9c-40.4,16.3-76,24.5-107.2,24.5c-22.9,0-43.6-4.4-62.1-13.2
				c-36.1-17.1-65.3-50.6-91.7-105.5c-23.9-49.6-43.6-112.6-64.5-179.3c-25.7-82-54.4-173.7-97.6-263.1l0-2.1H0.1z"/>
		</g>
		<g>
			<path class="st0" d="M0.1,720.9c54.6,103.3,86.5,212.5,114.6,308.7c19.1,65.3,37.1,127.1,59.2,175.4
				c24.4,53.4,51.7,85.9,85.9,102.3c41.2,19.9,93.8,16.1,160.9-11.4c156.6-64.4,222.1-174.3,274.7-262.6
				c42.7-71.8,79.7-133.8,151.9-151.6c26.5-6.5,57.2-6.9,92.8-1v0.8c-35.5-5.9-66.1-5.6-92.6,1c-72,17.7-108.8,79.6-151.5,151.3
				c-26.4,44.4-56.4,94.7-98.9,141.1c-48.7,53.2-106.3,93-176.2,121.8c-39,16-73.2,24-103.1,24c-21.6,0-41.1-4.2-58.5-12.6
				c-34.3-16.5-61.7-49.1-86.2-102.7c-22.2-48.4-40.2-110.1-59.3-175.5C85.8,934.1,54.1,825.5,0,722.6L0.1,720.9L0.1,720.9z"/>
		</g>
	</g>
</g>
</svg>
