<svg xmlns="http://www.w3.org/2000/svg" viewBox="0 0 133.9 39.99"><defs><style>.a{fill:#fff;}</style></defs><title>editor-logo-ar</title><path class="a" d="M36,35.59a1.55,1.55,0,0,0-.6-.4,1.72,1.72,0,0,0-.72-.15,1.75,1.75,0,0,0-.72.15,1.73,1.73,0,0,0-.6.39,1.89,1.89,0,0,0-.42.62,1.74,1.74,0,0,0-.15.71,1.86,1.86,0,0,0,.15.75,2,2,0,0,0,.42.63,1.79,1.79,0,0,0,.59.39,1.83,1.83,0,0,0,.73.15,1.72,1.72,0,0,0,.72-.15,1.64,1.64,0,0,0,.6-.39,2,2,0,0,0,.42-.63,1.86,1.86,0,0,0,.15-.75A1.87,1.87,0,0,0,36,35.59Z"/><path class="a" d="M42.88,35.57a1.63,1.63,0,0,0-.57-.38,2,2,0,0,0-1.51,0,1.47,1.47,0,0,0-.56.38,1.85,1.85,0,0,0-.4.61,1.79,1.79,0,0,0-.14.73,1.82,1.82,0,0,0,.53,1.38,1.91,1.91,0,0,0,2.66,0,1.86,1.86,0,0,0,.53-1.38,1.9,1.9,0,0,0-.54-1.34Z"/><path class="a" d="M124.84,0a1.76,1.76,0,0,0-1.33.53A1.83,1.83,0,0,0,123,1.89a1.86,1.86,0,0,0,.54,1.38,1.88,1.88,0,0,0,2.64,0,1.86,1.86,0,0,0,.54-1.38,1.83,1.83,0,0,0-.53-1.36A1.76,1.76,0,0,0,124.84,0Z"/><path class="a" d="M131.77,0a1.8,1.8,0,0,0-1.36.54,1.83,1.83,0,0,0-.54,1.35,1.83,1.83,0,0,0,.55,1.37,1.75,1.75,0,0,0,1.35.55,1.73,1.73,0,0,0,1.32-.54,1.86,1.86,0,0,0,.54-1.38A1.83,1.83,0,0,0,133.1.53,1.76,1.76,0,0,0,131.77,0Z"/><path class="a" d="M133.87,10.15h-1.55a2.07,2.07,0,0,0-.88.25,2.18,2.18,0,0,0-.67.57,2.09,2.09,0,0,0-.37.8,2.79,2.79,0,0,0-.06,1V25.13H115.87v-15H95.35a9,9,0,0,0-2.1.25,6,6,0,0,0-2,1,10.63,10.63,0,0,0-2.18,2.21,20.72,20.72,0,0,0-2.24,3.94l-2.06,4.53,0-5,0-6.93H83.23a1.51,1.51,0,0,0-1.18.55,3.59,3.59,0,0,0-.68,1.75v2.78c0,1,0,2,0,3s0,2,0,3.05v3.84H71.06v-15H53.3c-.82.06-1.68.41-1.87,2.33l-.06,11.6v1.05H39.63v-15H38.1a1.93,1.93,0,0,0-1.4.84,2.94,2.94,0,0,0-.5,1.91V25.13H24.79v-15h-15a5.89,5.89,0,0,0-2,.63A6.13,6.13,0,0,0,6.14,12a5.48,5.48,0,0,0-1,1.54,5.76,5.76,0,0,0-.44,1.76c-.06,1.51-.06,3,0,4.5s.07,3.07.07,4.63-.07,3-.2,4.53a21.16,21.16,0,0,1-.89,4.52,18.8,18.8,0,0,1-2,4.35A15.7,15.7,0,0,1,0,40H3a14.6,14.6,0,0,0,2-1.94A14.75,14.75,0,0,0,6.59,35.6a16.73,16.73,0,0,0,1.16-2.81,29.54,29.54,0,0,0,.79-3.27l.16-.87H129.84a3.53,3.53,0,0,0,1.49-.32,3.64,3.64,0,0,0,1.3-1,5.37,5.37,0,0,0,.91-1.77A8.09,8.09,0,0,0,133.9,23V18.49c0-1,0-2.28,0-3.79C133.87,13.56,133.87,12.12,133.87,10.15ZM21.25,14.55V25.13H8.58V13.55H9.64l10.54-.06h1.07Zm46.36,0V25.13H54.91V13.48h12.7Zm44.77,0V25.13H84.27l.67-1.5a31.41,31.41,0,0,1,2.93-5.29,13.63,13.63,0,0,1,3-3.14,8.46,8.46,0,0,1,3.17-1.44,13.56,13.56,0,0,1,2.77-.28h15.54Z"/></svg>