<svg xmlns="http://www.w3.org/2000/svg" viewBox="0 0 133.09 31.71"><defs><style>.a{fill:#fff;}</style></defs><title>editor-logo-en</title><path class="a" d="M13,11.07H12.4a.84.84,0,0,1-.88-.93V7.09c0-3.41-1.24-4.92-4.57-4.92S2.39,3.68,2.39,7.09V9.26c0,2.3.8,2.92,3.15,4.16L10.28,16C12.45,17.18,14,18.91,14,21.26v4c0,4.42-2.26,6.46-7,6.46H7c-4.69,0-6.95-2-6.95-6.46V21.13a.86.86,0,0,1,.93-.93h.58a.84.84,0,0,1,.88.93v3.41c0,3.36,1.24,5,4.61,5s4.6-1.64,4.6-5V22.06c0-2.31-.93-3.1-3.27-4.43L3.68,15.1C1.11,13.64,0,12.45,0,10V6.38C0,2.13,2.66,0,6.91,0H7c4.25,0,6.91,2.13,6.91,6.38v3.76A.86.86,0,0,1,13,11.07Z"/><path class="a" d="M34.28,1.24v.4a.86.86,0,0,1-.93.93H28.43v27.9a.83.83,0,0,1-.93.89h-.57a.8.8,0,0,1-.89-.89V2.57H21.13a.86.86,0,0,1-.93-.93v-.4a.83.83,0,0,1,.93-.89H33.35A.83.83,0,0,1,34.28,1.24Z"/><path class="a" d="M48.81,30.47a.8.8,0,0,1-.89.89H47.3a.79.79,0,0,1-.88-.89V19.27L39.9,1.37c-.22-.66.05-1,.71-1h.62a1.07,1.07,0,0,1,1.07.76l5.31,15.32L53,1.11a1,1,0,0,1,1-.76h.62c.66,0,.93.36.71,1l-6.51,17.9Z"/><path class="a" d="M74.89,30v.44a.83.83,0,0,1-.93.89H64.17a.83.83,0,0,1-.93-.89V1.24a.83.83,0,0,1,.93-.89h.58a.8.8,0,0,1,.89.89v27.9H74A.83.83,0,0,1,74.89,30Z"/><path class="a" d="M83.93,31.36h-.58a.83.83,0,0,1-.93-.89V1.24a.83.83,0,0,1,.93-.89h.58a.79.79,0,0,1,.88.89V30.47A.79.79,0,0,1,83.93,31.36Z"/><path class="a" d="M95.84,31.36h-.49a.83.83,0,0,1-.93-.89V1.24a.83.83,0,0,1,.93-.89h.8a1,1,0,0,1,1,.71l9.88,24.63V1.24a.79.79,0,0,1,.88-.89h.49a.83.83,0,0,1,.93.89V30.47a.83.83,0,0,1-.93.89h-.66a.93.93,0,0,1-1-.71l-10-24.8V30.47A.8.8,0,0,1,95.84,31.36Z"/><path class="a" d="M133.09,16.87v8.29c0,4.43-2.39,6.55-7.09,6.55h-.35c-4.7,0-7.09-2.08-7.09-6.55V6.56C118.56,2.3,121,0,125.65,0H126c4.7,0,7.09,2.3,7.09,6.56V9.7a.86.86,0,0,1-.93.93h-.58a.82.82,0,0,1-.88-.93V7.35c0-3.67-1.38-5.14-4.87-5.14S121,3.68,121,7.35v17c0,3.68,1.38,5.14,4.88,5.14s4.87-1.46,4.87-5.14v-6.2h-4.17a.79.79,0,0,1-.88-.89v-.4a.81.81,0,0,1,.88-.88h5.63A.85.85,0,0,1,133.09,16.87Z"/></svg>