<svg xmlns="http://www.w3.org/2000/svg" viewBox="0 0 395.33 100"><defs><style>.cls-1{fill:#151413;}.cls-2{fill:#1cb1bb;}.cls-3{fill:#fff;}</style></defs><title>Asset 31</title><g id="Layer_2" data-name="Layer 2"><g id="Layer_3" data-name="Layer 3"><path class="cls-1" d="M26.45,40.25H25.28a1.73,1.73,0,0,1-1.81-1.89V32.13c0-7-2.53-10-9.3-10s-9.3,3.07-9.3,10v4.42c0,4.69,1.63,6,6.41,8.49l9.66,5.32c4.43,2.35,7.59,5.87,7.59,10.65v8.13c0,9-4.61,13.18-14.18,13.18h-.18C4.6,82.32,0,78.26,0,69.14v-8.4a1.75,1.75,0,0,1,1.9-1.89H3.07a1.73,1.73,0,0,1,1.8,1.89v6.95c0,6.86,2.53,10.2,9.39,10.2s9.39-3.34,9.39-10.2v-5c0-4.7-1.9-6.32-6.68-9L7.49,48.47C2.26,45.49,0,43.05,0,38V30.68c0-8.66,5.42-13,14.08-13h.18c8.67,0,14.08,4.34,14.08,13v7.68A1.75,1.75,0,0,1,26.45,40.25Z"/><path class="cls-1" d="M69.87,20.21V21a1.76,1.76,0,0,1-1.9,1.9H58V79.79a1.68,1.68,0,0,1-1.89,1.8H54.88a1.62,1.62,0,0,1-1.8-1.8V22.92h-10a1.76,1.76,0,0,1-1.9-1.9v-.81a1.69,1.69,0,0,1,1.9-1.8H68A1.69,1.69,0,0,1,69.87,20.21Z"/><path class="cls-1" d="M99.48,79.79a1.62,1.62,0,0,1-1.81,1.8H96.41a1.62,1.62,0,0,1-1.81-1.8V57L81.33,20.48c-.45-1.35.09-2.07,1.45-2.07H84a2.16,2.16,0,0,1,2.17,1.53L97,51.17,108,19.94A2,2,0,0,1,110,18.41h1.26c1.36,0,1.9.72,1.45,2.07L99.48,57Z"/><path class="cls-1" d="M152.64,78.89v.9a1.68,1.68,0,0,1-1.89,1.8H130.8a1.69,1.69,0,0,1-1.9-1.8V20.21a1.69,1.69,0,0,1,1.9-1.8H132a1.62,1.62,0,0,1,1.81,1.8V77.08h17A1.69,1.69,0,0,1,152.64,78.89Z"/><path class="cls-1" d="M171.06,81.59h-1.18a1.68,1.68,0,0,1-1.89-1.8V20.21a1.68,1.68,0,0,1,1.89-1.8h1.18a1.62,1.62,0,0,1,1.8,1.8V79.79A1.62,1.62,0,0,1,171.06,81.59Z"/><path class="cls-1" d="M195.34,81.59h-1a1.69,1.69,0,0,1-1.9-1.8V20.21a1.69,1.69,0,0,1,1.9-1.8H196a2,2,0,0,1,2.08,1.44L218.18,70V20.21a1.62,1.62,0,0,1,1.8-1.8h1a1.68,1.68,0,0,1,1.89,1.8V79.79a1.68,1.68,0,0,1-1.89,1.8h-1.36a1.9,1.9,0,0,1-2.07-1.44L197.14,29.6V79.79A1.62,1.62,0,0,1,195.34,81.59Z"/><path class="cls-1" d="M271.26,52.08V69c0,9-4.88,13.36-14.45,13.36h-.72c-9.57,0-14.44-4.25-14.44-13.36V31c0-8.66,4.87-13.36,14.44-13.36h.72c9.57,0,14.45,4.7,14.45,13.36v6.41a1.76,1.76,0,0,1-1.9,1.9h-1.17a1.69,1.69,0,0,1-1.81-1.9V32.67c0-7.49-2.8-10.47-9.93-10.47s-9.93,3-9.93,10.47V67.33c0,7.49,2.8,10.47,9.93,10.47s9.93-3,9.93-10.47V54.69H257.9a1.62,1.62,0,0,1-1.81-1.8v-.81a1.66,1.66,0,0,1,1.81-1.81h11.46A1.74,1.74,0,0,1,271.26,52.08Z"/><rect class="cls-2" x="295.33" width="100" height="100" rx="9.07"/><path class="cls-3" d="M311.24,50.66a21.53,21.53,0,0,0,34,17.65,19.13,19.13,0,0,0,4.1-4l-6.49-8.63a11.22,11.22,0,1,1-10-16.24A10.63,10.63,0,0,1,341,43c3.71,4.46,13.91,18.58,13.91,18.58l1.7,2.29,5.63-8.21S346.32,34.13,345.11,33c-3.07-3-7.73-3.89-12.32-3.89a21.56,21.56,0,0,0-21.55,21.59"/><polygon class="cls-3" points="371.13 27.1 361 42.21 366.52 49.39 381.79 27.1 381.79 27.1 371.13 27.1"/></g></g></svg>