<svg xmlns="http://www.w3.org/2000/svg" viewBox="0 0 487.55 100"><defs><style>.a{fill:#151413;}</style></defs><title>StylingCV-logo-ar-dark</title><path class="a" d="M336.18,75.26a2.93,2.93,0,0,0-3.17-.62,2.92,2.92,0,0,0-1.57,1.57,2.54,2.54,0,0,0-.23,1.09,3.05,3.05,0,0,0,.23,1.17,3.13,3.13,0,0,0,.65,1,2.87,2.87,0,0,0,.92.62,3,3,0,0,0,1.12.22,3,3,0,0,0,1.12-.22,2.79,2.79,0,0,0,.92-.61,3,3,0,0,0,.88-2.14,2.69,2.69,0,0,0-.22-1.09A3.2,3.2,0,0,0,336.18,75.26Z"/><path class="a" d="M346.88,75.23a2.62,2.62,0,0,0-.88-.59,2.89,2.89,0,0,0-1.16-.22,2.94,2.94,0,0,0-1.17.22,2.72,2.72,0,0,0-.88.59,2.93,2.93,0,0,0-.61,1A2.8,2.8,0,0,0,342,77.3a2.86,2.86,0,0,0,.82,2.14,3,3,0,0,0,4.11,0,2.86,2.86,0,0,0,.82-2.14,2.8,2.8,0,0,0-.22-1.12A2.93,2.93,0,0,0,346.88,75.23Z"/><path class="a" d="M473.55,20.26a2.69,2.69,0,0,0-2.05.82,2.82,2.82,0,0,0-.82,2.1,2.89,2.89,0,0,0,.83,2.14,2.93,2.93,0,0,0,4.09,0,2.93,2.93,0,0,0,.83-2.14,2.82,2.82,0,0,0-.82-2.1A2.71,2.71,0,0,0,473.55,20.26Z"/><path class="a" d="M484.26,20.26a2.85,2.85,0,0,0-2.93,2.92,2.81,2.81,0,0,0,.85,2.12,2.95,2.95,0,0,0,4.12,0,2.89,2.89,0,0,0,.83-2.14,2.82,2.82,0,0,0-.82-2.1A2.69,2.69,0,0,0,484.26,20.26Z"/><path class="a" d="M487.5,35.94h-2.39a3.23,3.23,0,0,0-2.39,1.28,3.11,3.11,0,0,0-.58,1.23,4.22,4.22,0,0,0-.08,1.55V59.1H459.68V35.94H428a14,14,0,0,0-3.24.4,9,9,0,0,0-3.09,1.49,16.07,16.07,0,0,0-3.36,3.42,31.86,31.86,0,0,0-3.48,6.09l-3.17,7,0-7.68,0-10.72h-2.46a2.34,2.34,0,0,0-1.81.85,5.51,5.51,0,0,0-1.06,2.71v4.3c0,1.52,0,3.07,0,4.66s0,3.15,0,4.71V59.1H390.43V35.94H363c-1.27.1-2.59.63-2.89,3.61L360,57.47V59.1H341.85V35.94H339.5a3,3,0,0,0-2.17,1.3,4.51,4.51,0,0,0-.77,3V59.1H318.92V35.94H295.67a9.55,9.55,0,0,0-3.15,1,9.37,9.37,0,0,0-2.41,1.84,8.17,8.17,0,0,0-1.54,2.38,9.06,9.06,0,0,0-.68,2.72c-.09,2.34-.1,4.67,0,7S288,55.56,288,58s-.1,4.7-.3,7a33.3,33.3,0,0,1-1.39,7,29,29,0,0,1-3.12,6.73,26.93,26.93,0,0,1-2.56,3.39h4.6a23.52,23.52,0,0,0,3.05-3,22.26,22.26,0,0,0,2.53-3.78,25.14,25.14,0,0,0,1.8-4.35,46.12,46.12,0,0,0,1.22-5.05l.25-1.35H481.29a5.47,5.47,0,0,0,2.3-.5,5.58,5.58,0,0,0,2-1.57A8.42,8.42,0,0,0,487,59.73a12.82,12.82,0,0,0,.55-3.89v-7c0-1.56,0-3.51,0-5.85C487.51,41.21,487.5,39,487.5,35.94Zm-174,6.8V59.1H293.87V41.2h1.64l16.29-.09h1.65Zm71.65,0V59.1H365.48v-18H385.1Zm69.2,0V59.1H410.85l1-2.31a47.36,47.36,0,0,1,4.53-8.19,21.34,21.34,0,0,1,4.67-4.85A13.13,13.13,0,0,1,426,41.52a21.88,21.88,0,0,1,4.28-.43h24Z"/><polygon class="a" points="100.31 59.1 101.95 59.1 101.95 57.46 101.95 42.74 101.95 41.1 100.31 41.1 83.98 41.1 82.33 41.1 82.33 42.74 82.33 57.46 82.33 59.1 83.98 59.1 100.31 59.1"/><path class="a" d="M246.93,0H9.07A9.07,9.07,0,0,0,0,9.07V90.93A9.07,9.07,0,0,0,9.07,100H246.93A9.07,9.07,0,0,0,256,90.93V9.07A9.07,9.07,0,0,0,246.93,0ZM90,21.1a2.87,2.87,0,0,1,2.12-.84,2.75,2.75,0,0,1,1.08.22,2.9,2.9,0,0,1,.92.61,3.25,3.25,0,0,1,.65,1A2.82,2.82,0,0,1,95,23.18a2.75,2.75,0,0,1-.23,1.13,3.13,3.13,0,0,1-.65,1,3.07,3.07,0,0,1-1,.65,2.39,2.39,0,0,1-1,.23,2.94,2.94,0,0,1-3-3A2.74,2.74,0,0,1,90,21.1ZM24.11,78.51a2.62,2.62,0,0,1-.6.92,2.81,2.81,0,0,1-.93.62,3.07,3.07,0,0,1-1.16.22,2.72,2.72,0,0,1-2.06-.83,2.86,2.86,0,0,1-.82-2.14,2.77,2.77,0,0,1,.82-2.06,2.71,2.71,0,0,1,2.06-.82,2.8,2.8,0,0,1,2.09.83,2.72,2.72,0,0,1,.83,2A3.07,3.07,0,0,1,24.11,78.51Zm10.71,0a2.79,2.79,0,0,1-.61.92,2.71,2.71,0,0,1-.93.62,3.07,3.07,0,0,1-1.16.22A3,3,0,0,1,31,80.05a2.79,2.79,0,0,1-.92-.61,3.3,3.3,0,0,1-.65-1,3,3,0,0,1-.23-1.17,2.66,2.66,0,0,1,.22-1.09,3.22,3.22,0,0,1,.66-1,3,3,0,0,1,4.13,0,2.72,2.72,0,0,1,.83,2A3.25,3.25,0,0,1,34.82,78.51Zm72.56-19a5.43,5.43,0,0,1-.37,2.14,3.85,3.85,0,0,1-1,1.4,5.4,5.4,0,0,1-1.66,1,10.21,10.21,0,0,1-2.3.54H63.38a5,5,0,0,1-4.17-1.87c-1.15-1.4-1.73-3.8-1.73-7.14l.05-12.78V41.09H55.87l-11.9,0H42.33v1.64c0,2.52,0,4.59,0,6.17s0,2.88,0,3.89v2.9a13.2,13.2,0,0,1-.55,4,8.25,8.25,0,0,1-1.42,2.76,5.43,5.43,0,0,1-4.29,2.07h-24a1.65,1.65,0,0,1-1.22-.35,3,3,0,0,1-.43-2.08v-3H37V39.36c.3-3,1.56-3.42,2.88-3.42H62.91V59.1H77V39.5a5.31,5.31,0,0,1,1.08-2.68,2.41,2.41,0,0,1,1.79-.88h27.51Zm29.09,19a2.77,2.77,0,0,1-.6.92,2.81,2.81,0,0,1-.93.62,3.07,3.07,0,0,1-1.16.22,2.71,2.71,0,0,1-2.06-.83,2.86,2.86,0,0,1-.82-2.14,2.77,2.77,0,0,1,.82-2.06,2.7,2.7,0,0,1,2.06-.82,2.82,2.82,0,0,1,2.09.83,2.76,2.76,0,0,1,.83,2A3.26,3.26,0,0,1,136.47,78.51Zm10.7,0a2.62,2.62,0,0,1-.6.92,2.81,2.81,0,0,1-.93.62,3.07,3.07,0,0,1-1.16.22,3,3,0,0,1-1.12-.22,2.79,2.79,0,0,1-.92-.61,3.12,3.12,0,0,1-.65-1,2.84,2.84,0,0,1-.23-1.17,2.66,2.66,0,0,1,.22-1.09,3.22,3.22,0,0,1,.66-1,3,3,0,0,1,4.13,0,2.72,2.72,0,0,1,.83,2A3.07,3.07,0,0,1,147.17,78.51Zm98.45-23.13v.42a12.9,12.9,0,0,1-.54,3.92,8.39,8.39,0,0,1-1.42,2.75,5.5,5.5,0,0,1-2,1.57,5.4,5.4,0,0,1-2.3.5H175.74a5.07,5.07,0,0,1-4.18-1.87c-1.14-1.4-1.72-3.8-1.72-7.14l0-12.78V41.09h-1.66l-11.9,0h-1.64v1.64c0,2.51,0,4.59,0,6.17s0,2.88,0,3.89v2.9a13.2,13.2,0,0,1-.55,4,8.44,8.44,0,0,1-1.42,2.76,5.43,5.43,0,0,1-4.29,2.07h-24a1.63,1.63,0,0,1-1.22-.35,3,3,0,0,1-.43-2.08v-3h26.53V39.36c.29-3,1.55-3.42,2.87-3.42h23.09V59.1h16.57V40.23a5.38,5.38,0,0,1,.18-1.62,3.72,3.72,0,0,1,1.64-2.23,3.25,3.25,0,0,1,1.26-.44h2.26V59.1H216v-19a6.18,6.18,0,0,1,.13-1.79,3.55,3.55,0,0,1,.57-1.31,2.83,2.83,0,0,1,.9-.82,2.38,2.38,0,0,1,1.19-.27h2.6V59.1h18.75V40a4.39,4.39,0,0,1,.12-1.55,3.27,3.27,0,0,1,.56-1.19,3.57,3.57,0,0,1,1-.89,3.69,3.69,0,0,1,1.37-.45h2.26c0,1.72,0,3.27,0,4.67,0,1.83,0,3.43,0,4.81s0,2.6,0,3.6,0,1.85,0,2.58c0,.9,0,1.63,0,2.15s0,.86,0,1.13Z"/></svg>