<?xml version="1.0" encoding="utf-8"?>
<!-- Generator: Adobe Illustrator 19.2.0, SVG Export Plug-In . SVG Version: 6.00 Build 0)  -->
<svg version="1.1" id="Layer_1" xmlns="http://www.w3.org/2000/svg" xmlns:xlink="http://www.w3.org/1999/xlink" x="0px" y="0px"
	 width="650px" height="562.4px" viewBox="0 0 650 562.4" style="enable-background:new 0 0 650 562.4;" xml:space="preserve">
<style type="text/css">
	.st0{fill:#E8E8E8;}
</style>
<g>
	<g>
		<g>
			<path class="st0" d="M649.9,100.9c-98.3-31-207.7-28.7-327.7,7.2c-162.6,48.7-244,69.7-322.1,72.9v-1
				c80.3-3.2,165.3-25.8,321.9-72.7c46.7-14,92.4-23,135.8-27c16.7-1.5,33.2-2.3,49.6-2.3c24.3,0,48,1.7,71.1,5
				c24.3,3.5,48.2,8.9,71.3,16.1V100.9z"/>
		</g>
		<g>
			<path class="st0" d="M649.9,103.8c-95.9-31.6-203.4-31-323.3,1.5c-23.7,6.4-45.3,12.3-66.3,18c-120.1,32.8-190.1,52-260.2,56.1
				v-0.9c70.5-4.1,141.2-23.5,260-56c20.9-5.7,42.6-11.7,66.3-18c46-12.4,90.9-20.3,133.4-23.2c13.1-0.9,25.9-1.3,38.7-1.3
				c27.3,0,53.9,2.1,79.6,6.1c24.5,3.9,48.5,9.7,71.8,17.4V103.8z"/>
		</g>
		<g>
			<path class="st0" d="M649.9,109.2C599.3,91.4,545.4,82.5,488,82.5c-49.7,0-102,6.6-157.1,19.9c-55.6,13.4-101.2,25.5-141.4,36.2
				C110.9,159.5,56.3,174,0.1,178.3v-0.8c56.2-4.4,110.7-18.9,189.3-39.7c40.2-10.7,85.9-22.8,141.4-36.2
				c45.3-10.9,89.4-17.4,131-19.4c9.1-0.4,18.2-0.6,27.1-0.6c30.6,0,60.3,2.5,88.7,7.5c24.7,4.3,48.9,10.6,72.2,18.7L649.9,109.2
				L649.9,109.2z"/>
		</g>
		<g>
			<path class="st0" d="M649.9,112.4c-52.5-19.4-109.1-28.9-170-28.9c-45.7,0-93.9,5.4-144.6,16.1c-76.2,16.1-135.2,32.1-182.6,45.1
				C94.2,160.6,48.3,173.1,0,177.7v-0.9c48.3-4.6,93.7-16.9,152.4-32.9c47.4-12.9,106.4-29,182.6-45.1
				c44.6-9.4,87.8-14.7,128.6-15.7c4.9-0.1,9.8-0.2,14.7-0.2c34.1,0,67.3,3,98.6,9c25,4.8,49.4,11.5,72.8,20v0.4H649.9z"/>
		</g>
		<g>
			<path class="st0" d="M649.9,118.3c-83.9-32.7-185.7-44-310.2-21.6c-90,16.2-154.8,34.9-206.8,50c-49.2,14.2-89.3,25.8-132.8,30.6
				v-0.8c43.4-4.8,83.5-16.4,132.6-30.6c52.1-15.1,116.9-33.7,206.9-50c43.8-7.9,86.2-12,126.1-12c0.4,0,0.8,0,1.2,0
				c38.2,0,75,3.7,109.6,10.8c25.2,5.3,49.8,12.4,73.4,21.6V118.3z"/>
		</g>
		<g>
			<path class="st0" d="M649.9,121.3C591,97.1,526.3,85.2,455,85.2c-35.3,0-72.3,2.9-110.9,8.6c-99.4,14.8-167.2,36-221.8,53
				c-43.9,13.7-81.1,25.3-122.3,30.3v-0.8c41.4-5,78.6-16.7,122-30.2c54.5-17,122.4-38.2,221.9-53c38.1-5.7,75.1-8.6,110-8.6
				c4.6,0,9.1,0.1,13.5,0.1c37.8,0.8,74.2,5.1,108.3,12.8c25.5,5.7,50.3,13.5,74,23.2V121.3z"/>
		</g>
		<g>
			<path class="st0" d="M441.7,85.4c-29.8,0-60.9,1.9-93.3,5.7c-106,12.4-172.6,35-231.3,55c-40.7,13.8-76.5,26-117,31.4v-0.7
				c40.5-5.4,76.2-17.5,116.8-31.3c58.8-20,125.4-42.7,231.4-55c31.3-3.7,61.7-5.5,90.8-5.5c10.2,0,20.3,0.2,30.1,0.7
				c31.6,1.5,62.1,5.3,91,11.3C523.1,89.2,483.6,85.4,441.7,85.4z"/>
		</g>
		<g>
			<path class="st0" d="M649.9,131.3c-63.9-29.1-139.6-46-230.3-46c-21.4,0-43.6,1-66.7,2.9c-110.8,9.3-178.1,34.4-237.5,56.4
				c-39.1,14.5-74.2,27.6-115.2,33.3v-0.8c40.9-5.7,76-18.7,115-33.3c59.4-22.1,126.8-47.1,237.7-56.5c23.7-2,46.7-3,69.1-3
				c86,0,161.5,14.9,228,45L649.9,131.3L649.9,131.3z"/>
		</g>
		<g>
			<path class="st0" d="M649.9,134.6c-70.9-34.4-152.3-50.4-246.9-50.4c-14.9,0-30.2,0.4-45.8,1.2c-114.3,5.8-181.9,33.2-241.4,57.4
				C76.9,158.5,42,172.7,0.1,178.6v-0.9c42.3-5.9,77.4-20.2,115.4-35.7c59.6-24.2,127.1-51.6,241.6-57.4c15.1-0.8,29.9-1.2,44.4-1.2
				c24.7,0,48.7,1.1,71.5,3.3c35.5,3.5,69.3,9.7,100.7,18.5c26.8,7.5,52.1,17,76.2,28.5V134.6L649.9,134.6z"/>
		</g>
		<g>
			<path class="st0" d="M649.9,139.2C576.9,102.4,488,82.4,377,82.4c-5.1,0-10.3,0.1-15.5,0.1c-117,1.9-184.4,31.7-243.8,58
				c-24.6,10.9-47.8,21.2-72.9,28.8c-15.2,4.6-29.9,7.9-44.8,10.1v-0.6c43.5-6.3,78.9-21.9,117.4-38.9
				c59.4-26.3,126.9-56.1,244.1-58.1c5.4-0.1,10.7-0.1,16-0.1c73.4,0,137.5,8.6,195.4,26.1c27.2,8.2,52.7,18.4,76.9,30.6
				L649.9,139.2L649.9,139.2z"/>
		</g>
		<g>
			<path class="st0" d="M649.9,143.4c-74.5-39.4-166.6-61.6-284-63.7c-119-2.2-186,30-245.1,58.4c-38.2,18.3-74.5,35.8-120.8,42.2
				v-0.8c46.2-6.4,82.3-23.7,120.5-42c30.3-14.6,61.6-29.6,100.5-40.9c41-11.9,84.7-17.7,133.2-17.7c3.9,0,7.7,0.1,11.7,0.1
				c78.7,1.5,146.1,11.7,206.2,31.2c27.7,9,53.4,19.8,77.7,32.8V143.4L649.9,143.4z"/>
		</g>
		<g>
			<path class="st0" d="M649.9,147.9c-72.7-40.5-163.1-64.6-279.6-71c-120.6-6.6-184.2,26.5-245.6,58.6
				c-38.8,20.2-75.8,39.5-124.6,46v-0.6c48.5-6.5,85.3-25.6,124.4-46c30.1-15.7,61.3-31.9,100.2-43.5c35.8-10.6,74-15.9,116.1-15.9
				c9.6,0,19.5,0.3,29.5,0.8c77.2,4.2,143,16.1,201,36.3c28.1,9.7,54.1,21.4,78.5,35.1L649.9,147.9L649.9,147.9z"/>
		</g>
		<g>
			<path class="st0" d="M649.9,154c-71.1-42.4-160-69.5-275.2-80C252.9,62.9,190,98.3,129.2,132.5c-39.7,22.3-77.4,43.5-129.1,50v-1
				c52.1-6.4,90-27.7,128.9-49.6c30-16.9,61-34.4,99.7-46.1c31.7-9.7,65.6-14.5,102.7-14.5c14,0,28.5,0.7,43.5,2.1
				c75.8,6.9,139.8,20.5,195.8,41.3c28.5,10.6,54.8,23.1,79.4,37.7V154z"/>
		</g>
		<g>
			<path class="st0" d="M649.9,158.7C580.5,115.1,493.4,86,379,71.2C256.4,55.3,194.2,93,134.2,129.4c-40.6,24.6-79.1,48-134.1,54.1
				v-0.7c55.1-6.2,93.9-29.8,133.8-53.9c50.5-30.6,102.3-62.1,190.2-62.1c16.9,0,35.2,1.2,55,3.7c74.3,9.6,136.7,24.7,190.6,46.2
				c29,11.5,55.5,24.9,80.2,40.4V158.7z"/>
		</g>
		<g>
			<path class="st0" d="M649.9,163c-70-47.2-155.7-76-266.5-94.7c-123.2-20.7-184.5,19.2-243.8,57.8c-21.4,13.9-43.4,28.3-67.8,39.2
				c-23.3,10.5-46.9,16.8-71.7,19.4v-0.4c58.3-5.9,98.2-31.9,139.2-58.6c48.1-31.4,97.6-63.6,180.4-63.6c19.3,0,40.4,1.7,63.8,5.7
				c72.9,12.3,133.6,29,185.5,51c29.4,12.5,56.3,26.8,80.9,43.3V163z"/>
		</g>
		<g>
			<path class="st0" d="M387.7,65.5c-123.5-25.7-183.9,16.4-242.4,57.2c-21.1,14.7-42.9,29.9-67.2,41.5
				C52.9,176.3,27.3,183.4,0,185.7v-0.6c62.6-5.5,104.5-34.6,145-62.9c29.2-20.4,59.4-41.4,97.2-53.8c20.4-6.6,41.3-10.3,63.8-11.2
				c3.5-0.1,7.1-0.2,10.6-0.2c22.2,0,45.6,2.6,71.1,7.9c59.7,12.4,110.7,27.2,154.8,44.9C497.6,92,446.5,77.8,387.7,65.5z"/>
		</g>
		<g>
			<path class="st0" d="M392.2,62.6C268.4,31.7,209,76.1,151.5,119c-41.5,31-84.5,63-151.4,67.7v-0.6c66.7-4.7,109.6-36.6,151-67.5
				c28.9-21.5,58.8-43.8,96.2-56.3c20.2-6.7,40.9-10.2,63.3-10.6c1.5,0,2.8-0.1,4.3-0.1c23.9,0,49.3,3.5,77.4,10.4
				c70.2,17.5,127.4,37.3,175.2,60.3c3.1,1.5,6.2,3,9.2,4.6C525.2,101.1,464.8,80.8,392.2,62.6z"/>
		</g>
		<g>
			<path class="st0" d="M649.9,177.6c-63.4-50.7-143.4-85.6-253.4-117.7c-123.7-36.2-179.6,8.3-238.8,55.3
				c-42.9,34-86.4,68.6-157.7,72.5v-0.6c71.1-3.9,114.6-38.4,157.3-72.4c29.9-23.7,58-46.1,95-58.7c19.6-6.6,39.7-9.9,61.5-9.9
				c0.4,0,0.8,0,1.2,0c25,0.1,51.6,4.4,81.4,13.1c113.6,33.2,192.5,69.6,253.3,118V177.6z"/>
		</g>
		<g>
			<path class="st0" d="M649.9,183.4C588.5,131,510.3,93.7,400.9,57c-123.4-41.5-178.3,5-236.6,54.1c-41,34.6-83.4,70.5-152.1,76.6
				c-3.9,0.3-8,0.6-12.1,0.8V188c4.1-0.1,8.1-0.3,12-0.8c68.6-6.1,111-41.9,151.9-76.5c29.4-24.9,57.3-48.4,93.9-61
				c17.9-6.2,36.4-9.2,56.2-9.2c1.9,0,3.9,0,5.9,0.1c24.7,0.8,51.3,5.9,81,16c68.4,23,120.9,45,165.1,69.3
				c31.5,17.3,59.1,36.1,83.7,57L649.9,183.4L649.9,183.4z"/>
		</g>
		<g>
			<path class="st0" d="M649.9,189.5c-59.3-54.3-135.6-93.9-244.6-135.4c-123-46.9-177,1.5-234.1,52.7
				c-40.8,36.5-82.8,74.2-152.5,81.2c-6.1,0.6-12.3,1-18.7,1.1v-0.5c6.4-0.1,12.6-0.5,18.6-1c69.5-7,111.5-44.7,152.2-81.2
				c40.9-36.7,80.2-71.9,144.2-71.9c25.6,0,55.2,5.7,90.4,19.1c67.1,25.6,118,49,160.2,73.8c32,18.7,59.8,38.8,84.3,61L649.9,189.5
				L649.9,189.5z"/>
		</g>
		<g>
			<path class="st0" d="M649.9,194.7C593,139.2,518.9,98.1,409.6,51.3c-122.4-52.4-175.3-2.1-231.4,51.2
				c-40.4,38.4-82.3,78.1-152.8,86.1c-8.2,0.9-16.7,1.4-25.4,1.4v-0.5c8.7,0,17.1-0.4,25.4-1.4c70.4-7.9,112.1-47.6,152.5-85.9
				c28.6-27.2,55.7-53,91.2-65.5c15.1-5.3,30.6-8,47.2-8c4.4,0,8.9,0.2,13.5,0.6c24.3,2,50.4,9.1,80,21.7
				c116.1,49.8,186.8,91.7,240.1,143.4v0.5H649.9z"/>
		</g>
		<g>
			<path class="st0" d="M649.9,201.6C595,143.8,523,100.4,414,48.5c-121.5-58-173.4-5.8-228.5,49.4c-45.1,45.3-93.8,94.2-185.5,92.6
				V190c91.5,1.6,140.1-47.1,185.2-92.5c28.2-28.3,54.9-55.1,89.9-67.7c13.8-5,28.1-7.5,43.3-7.5c5.4,0,10.9,0.3,16.5,0.9
				c24,2.6,49.8,10.7,79.2,24.7c64.6,30.8,112.4,57,150.6,82.4c33.6,22.4,61.2,45.1,85.1,70.1L649.9,201.6L649.9,201.6z"/>
		</g>
		<g>
			<path class="st0" d="M649.9,207.8c-52.4-59.7-121.9-104.5-231.5-162.2c-55-29.1-98.6-36.1-136.9-22.2
				c-34.3,12.4-60.6,40.2-88.3,69.6c-19.6,20.8-39.9,42.2-64.4,59.9c-27.7,19.9-57,31.8-89.3,36.2c-12.6,1.7-25.6,2.4-39.3,1.9v-0.5
				c13.7,0.5,26.8-0.1,39.3-1.8c72.2-9.8,113.5-53.6,153.5-95.9c27.7-29.4,54-57.2,88.3-69.7c12.7-4.6,25.9-6.9,39.7-6.9
				c6.2,0,12.7,0.5,19.2,1.4c23.6,3.3,49.3,12.4,78.4,27.7c64.1,33.8,109.2,60.6,145.9,86.7c34.2,24.3,61.7,48.6,85.4,75.3
				L649.9,207.8L649.9,207.8z"/>
		</g>
	</g>
	<g>
		<g>
			<path class="st0" d="M649.9,116.4C558.5,67.7,450.6,62.7,323,100.9c-60.9,18.2-116,28-168.4,29.8c-45.8,1.6-84-3.1-117.7-7.3
				c-12.6-1.5-24.7-3-36.9-4.1v-0.7c12,1.2,24.3,2.6,37,4.2c70,8.6,149.4,18.4,285.8-22.5c46.6-14,91.1-22.3,132.3-24.7
				c8.8-0.6,17.4-0.8,26-0.8c29.9,0,58.6,3.2,85.6,9.4c29,6.7,56.8,17.2,83.1,31.2L649.9,116.4L649.9,116.4z"/>
		</g>
		<g>
			<path class="st0" d="M649.9,117.9C559.7,65,452.5,58.3,324.7,97.1c-138.4,42.1-216.7,36.2-285.8,31c-13.2-1-26-2-38.8-2.6v-0.6
				c12.7,0.6,25.5,1.5,38.8,2.6c69.1,5.2,147.3,11.1,285.6-31c43.8-13.3,85.6-21.3,124.4-24c9.6-0.6,19.1-1,28.5-1
				c26.7,0,52.4,2.6,76.7,7.9c33.9,7.3,65.7,19.8,95.7,37.4V117.9L649.9,117.9z"/>
		</g>
		<g>
			<path class="st0" d="M649.9,119.5c-89-58.1-193.3-66.2-323.5-26.3c-141.1,43.6-218.5,41.6-286.8,39.9
				c-13.3-0.3-26.3-0.7-39.5-0.6v-0.6c13.2,0,26.2,0.3,39.5,0.6c68.2,1.7,145.7,3.7,286.6-39.8c41.3-12.7,80.7-20.5,117.2-23.2
				c10.3-0.8,20.5-1.2,30.5-1.2c23.9,0,46.9,2.2,68.8,6.7c38.4,7.8,73.8,22.3,107.1,43.9L649.9,119.5L649.9,119.5z"/>
		</g>
		<g>
			<path class="st0" d="M649.9,122.1c-87.8-63-191.1-73.3-321.9-32.7c-65,20.4-121.9,33.9-173.7,41.1c-45.7,6.4-81.7,7.3-116.5,8.1
				c-12.7,0.3-25.2,0.6-37.7,1.2v-0.6c12.7-0.6,25.1-0.9,37.7-1.2c67.7-1.7,144.5-3.5,290-49.1c39-12.1,76.3-19.7,110.9-22.6
				c10.8-0.9,21.4-1.3,31.9-1.3c21.6,0,42.4,1.9,62.1,5.7c42.4,8.2,81,24.9,117.2,50.7V122.1z"/>
		</g>
		<g>
			<path class="st0" d="M649.9,125C563.3,56.5,461,44,329.6,85.5c-153.3,48.5-226.7,54-297.8,59.3c-10.6,0.8-21,1.6-31.7,2.5v-0.6
				c10.8-0.9,21.3-1.7,31.7-2.5c71-5.3,144.5-10.8,297.7-59.2c37-11.7,72.3-19.1,105.1-22.1c11.3-1,22.3-1.5,33.2-1.5
				c19.4,0,38.2,1.7,56,4.9c46,8.4,87.5,27.4,126.2,58.1L649.9,125L649.9,125z"/>
		</g>
		<g>
			<path class="st0" d="M465.9,58.2c-39.9,0-84.5,7.4-134.7,23.5c-170.1,54.5-238.6,62.7-317.8,72.2c-4.4,0.6-8.8,1-13.3,1.6v-0.6
				c4.5-0.6,8.9-1,13.3-1.6C92.6,143.8,161,135.7,331,81.1c35.2-11.3,68.8-18.5,99.8-21.6c11.4-1.1,22.7-1.7,33.7-1.7
				c17.7,0,34.8,1.5,51.1,4.3c21.4,3.7,41.9,10,61.5,18.7C544.3,66.3,507.7,58.2,465.9,58.2z"/>
			<path class="st0" d="M649.9,128.1c-4.2-3.7-8.4-7.3-12.8-10.7c4,3.2,8,6.5,12,10C649.4,127.6,649.6,127.8,649.9,128.1
				L649.9,128.1z"/>
			<path class="st0" d="M577.1,80.8c1.1,0.5,2.1,1,3.2,1.5C579.3,81.8,578.2,81.3,577.1,80.8z"/>
		</g>
		<g>
			<path class="st0" d="M649.9,133.6c-4.8-4.7-9.7-9.2-14.8-13.5c-80.7-69.6-176.7-83-302.2-42.2C149.7,137.5,88.2,150.9,0.1,164
				v-0.6c88.1-13.1,149.5-26.5,332.6-86.1c33.5-10.9,65.5-18,95-21c11.5-1.2,22.9-1.8,33.9-1.8c16.2,0,31.8,1.2,46.7,3.8
				c46.8,7.9,88.3,28,127.1,61.4c4.9,4.2,9.7,8.6,14.4,13.1L649.9,133.6L649.9,133.6z"/>
		</g>
		<g>
			<path class="st0" d="M649.9,139.4C577.1,61.2,483.4,25,334.5,74c-29.7,9.8-56.4,18.7-80,26.5c-125.7,41.8-178,59.2-254.5,72.3
				v-0.6c76.4-13,128.6-30.4,254.3-72.2c23.6-7.8,50.3-16.7,80-26.5c46.6-15.4,87.8-22.4,124.7-22.4c80.9,0,140.8,33.8,190.8,87.4
				V139.4z"/>
		</g>
		<g>
			<path class="st0" d="M649.9,146.3c-12.4-14.8-25.3-28.3-39.1-40.2c-72.8-62.9-160.1-74.3-274.6-36
				c-74.5,25-127.8,44.8-170.6,60.8c-66.8,25-108.1,40.4-165.5,51v-0.6c57-10.6,98.4-26,165.3-50.9c42.8-16,96.1-35.9,170.6-60.8
				c44-14.7,83.6-22,120.1-22c13.7,0,27,1,39.8,3.1c42.5,6.8,80.3,24.8,115.2,55c13.6,11.8,26.4,25.1,38.6,39.7v0.9H649.9z"/>
		</g>
		<g>
			<path class="st0" d="M649.9,154.7c-15.6-20.7-32.1-39.3-50-54.8c-69.1-60.1-152.4-70.7-262.1-33.5
				C247.5,97,189.7,122,143.2,142.1c-53.8,23.2-90.7,39.2-143.1,49.1v-0.7c52.7-10,90.1-26.2,142.8-49
				c46.5-20.1,104.5-45.1,194.7-75.8c42.6-14.4,80.8-21.6,115.9-21.6c12.7,0,25,1,36.8,2.8c40.6,6.4,76.5,23.5,109.8,52.4
				c17.8,15.4,34.1,33.7,49.6,54.3L649.9,154.7L649.9,154.7z"/>
		</g>
		<g>
			<path class="st0" d="M339.5,62.6c-97.7,33.6-156.6,63-203.9,86.5c-48,23.9-83.9,41.7-135.6,51.6v-0.8
				c51.9-9.8,87.7-27.7,135.3-51.4C182.7,125,241.5,95.7,339.3,62c41.2-14.2,78.1-21.2,111.9-21.2c11.8,0,23.2,0.8,34.2,2.6
				c14.1,2.1,27.7,5.7,40.6,10.7C477.1,35.5,417.2,35.8,339.5,62.6z"/>
			<path class="st0" d="M585.6,89.6c-0.8-0.7-1.7-1.5-2.6-2.1C583.8,88.2,584.7,88.9,585.6,89.6z"/>
			<path class="st0" d="M649.9,164c-19.6-29.2-40.6-54.5-64.3-74.4c1.5,1.2,3,2.5,4.4,3.8c20.6,18,40,40.7,59.9,70V164z"/>
		</g>
		<g>
			<path class="st0" d="M649.9,176.3c-21.2-34.8-43.8-65.1-69.9-88.2c-62.2-55.2-138.2-64.6-238.9-29.4
				c-101.8,35.6-160.4,69.1-207.6,95.9c-46.3,26.4-80.7,46-133.4,55.5v-0.7c52.9-9.6,87.7-29.4,133.1-55.3
				c47.1-26.9,105.9-60.3,207.7-95.9c39.6-13.8,75.4-20.8,108.1-20.8c50.5,0,93.5,16.7,131.4,50.3c23.9,21.2,46.2,49.1,69.5,87.4
				V176.3z"/>
		</g>
		<g>
			<path class="st0" d="M649.9,189.8c-23.6-43.1-48.6-79.9-78.9-107.2c-59-53.2-131.5-61.9-228.2-27.7
				c-104.3,37-162.3,74.4-208.9,104.5C90,187.7,55,210.4,0.1,219.5v-0.3c54.2-9.1,88.5-31.2,133.4-60.3
				c46.6-30.1,104.7-67.6,209-104.6c38.3-13.5,72.8-20.4,104.2-20.4c48,0,88.8,16,124.6,48.2c24.5,22.1,47.1,51.6,71,93.2
				c2.6,4.4,5,8.8,7.5,13.4V189.8z"/>
		</g>
		<g>
			<path class="st0" d="M649.9,206C584.7,75.6,513.3-9.7,344.4,51.1c-106,38.1-163,79.5-208.8,112.7c-43.8,31.8-78,56.6-135.5,65
				v-0.6c57.4-8.4,91.5-33.2,135.1-64.9c45.8-33.3,102.9-74.7,209-112.8c36.9-13.3,70.2-20,100.4-20c45.7,0,84.3,15.3,118.1,46.3
				c23.2,21.3,44.6,50,67.2,90.2c6.8,12,13.3,24.6,19.9,37.7V206z"/>
		</g>
		<g>
			<path class="st0" d="M649.9,224.5c-29-63.1-57.4-116.7-95.6-152.4C501.4,22.7,435.2,14.8,346,47.3C239,86.3,183,131.6,138.1,168
				c-42.9,34.8-76.9,62.4-136.9,70c-0.4,0.1-0.8,0.1-1.2,0.1v-0.6c0.4-0.1,0.8-0.1,1.2-0.1c59.8-7.5,93.7-35,136.6-69.8
				c44.9-36.4,100.9-81.8,208-120.9c36.8-13.4,68.8-19.6,96.9-19.6c104.5,0,156,84.8,207.2,195.9V224.5z"/>
		</g>
		<g>
			<path class="st0" d="M649.9,245.3c-32-74.4-61.3-138.3-103.3-178.3c-50-47.8-113.3-55.4-198.9-23.6
				c-107.8,39.9-162.4,89.1-206.4,128.6c-41.7,37.5-74.7,67.2-135,74.4c-2.1,0.3-4.1,0.5-6.2,0.6v-0.6c2.1-0.2,4.1-0.4,6.2-0.6
				c60.1-7.3,93-36.8,134.7-74.3c44-39.6,98.7-88.9,206.6-128.8c34.8-12.9,65.5-19.2,93.3-19.2c8.4,0,16.5,0.6,24.3,1.7
				c30.8,4.6,57.7,18,81.9,41.2c41.9,40,71.1,103.3,103,177.3V245.3z"/>
		</g>
		<g>
			<path class="st0" d="M649.9,268.4c-1.9-4.5-3.7-8.9-5.5-13.3c-33.2-80.9-61.9-150.6-105.1-192.9C492,15.8,431.6,8.6,349.3,39.6
				C241.1,80.2,187.7,133.3,144.8,176c-40.5,40.3-72.5,72.1-133.3,79.1c-3.7,0.4-7.5,0.8-11.4,1v-0.6c3.9-0.2,7.7-0.6,11.3-1
				c60.5-6.9,92.5-38.7,132.9-78.9c43-42.7,96.4-95.9,204.8-136.5c33.6-12.6,63.2-18.9,89.9-18.9c7.9,0,15.5,0.6,22.8,1.7
				c29.4,4.4,55,17.4,77.9,39.8c43.3,42.4,72,112.2,105.2,193.1c1.7,4,3.3,8,5,12.1V268.4L649.9,268.4z"/>
		</g>
		<g>
			<path class="st0" d="M649.9,293c-6.5-16-12.8-32-18.9-47.8c-31-78.9-57.7-147-98.6-188C487.7,12.4,430.1,5.6,351,35.7
				C242.5,77.1,190.4,134,148.5,179.8c-39.4,43.1-70.5,77.1-131.6,83.7c-5.4,0.6-11,1-16.8,1.1v-0.6c5.8-0.1,11.3-0.5,16.7-1.1
				c60.9-6.6,91.9-40.6,131.3-83.6C190,133.6,242.2,76.6,350.7,35.3c32.4-12.4,61-18.5,86.5-18.5c7.4,0,14.5,0.5,21.4,1.5
				c28.1,4.1,52.3,16.7,74,38.6c40.9,41.1,67.7,109.2,98.7,188.2c6,15.3,12.1,30.8,18.5,46.5L649.9,293L649.9,293z"/>
		</g>
		<g>
			<path class="st0" d="M649.9,318.4c-11.7-28.5-22.1-56.4-31.9-82.7c-18.4-49.2-35.8-95.7-56.1-132.6c-22.6-40.9-46.5-66-75.4-79
				C451,8.2,407.2,10.8,352.6,31.9C244,73.9,193.3,134.7,152.4,183.5c-18.5,22.2-36.1,43.2-56.2,58.9
				c-22.2,17.3-45.7,26.7-73.9,29.7c-7.1,0.8-14.4,1-22.3,1v-0.6c7.7,0.1,15.1-0.2,22.2-1c61.3-6.4,91.5-42.5,129.8-88.3
				c20.5-24.5,43.6-52.3,74.9-78.7c36-30.4,77-54.3,125.4-73.1c31.2-12,58.8-18,83.4-18c18.6,0,35.5,3.5,50.8,10.3
				c29,13,53,38.2,75.7,79.2c20.4,36.9,37.7,83.4,56.2,132.7c10,26.5,20.2,53.9,31.4,81.5L649.9,318.4L649.9,318.4z"/>
		</g>
		<g>
			<path class="st0" d="M649.9,344c-17.1-40.4-31.4-80.5-44.4-117.3c-17.1-48.1-33.2-93.6-52.2-129.5
				c-21.1-39.9-43.7-64.3-71.2-76.9c-33.6-15.3-75.4-12.8-127.8,7.8c-108.6,42.7-158,107.3-197.7,159.2c-18,23.6-35,45.8-54.8,62.4
				c-22,18.3-45.4,28.1-73.8,30.9c-8.7,0.8-18,1-27.8,0.6v-0.6c9.8,0.5,19.1,0.3,27.7-0.6c61.7-6.1,91-44.4,128.2-93
				c19.9-26.1,42.5-55.6,73.3-83.5c35.5-32,76.2-56.8,124.6-75.8c30.1-11.8,56.7-17.7,80.3-17.7c17.6,0,33.6,3.3,48,9.9
				c27.6,12.6,50.3,37.1,71.5,77c19.1,36,35.2,81.5,52.3,129.6c12.9,36.5,26.9,75.9,43.9,115.9L649.9,344L649.9,344z"/>
		</g>
		<g>
			<path class="st0" d="M649.9,368.8C626.6,317.2,609.2,265,593.5,218c-15.8-47.1-30.6-91.5-48.3-126.6
				c-19.6-38.8-41-62.6-67.1-74.7c-31.9-14.8-71.8-12.3-122.2,7.7C247.4,67.7,199.4,136,160.9,191c-17.5,25-34.1,48.5-53.6,65.9
				c-21.6,19.3-45,29.5-73.6,32.2c-10.4,1-21.6,0.9-33.5-0.1v-0.6c12,1.1,23.2,1.1,33.5,0.2c62.1-5.7,90.7-46.5,126.8-97.9
				c19.4-27.6,41.3-58.9,71.7-88.1c34.7-33.8,75.1-59.5,123.5-78.9c29-11.5,54.5-17.2,77-17.2c16.8,0,31.9,3.2,45.6,9.5
				c26.3,12.2,47.6,36,67.3,74.9c17.8,35.1,32.6,79.6,48.4,126.7c15.6,46.7,32.8,98.2,55.9,149.5V368.8L649.9,368.8z"/>
		</g>
		<g>
			<path class="st0" d="M649.9,392.3c-30.1-61.9-50.2-126.2-68-183.1c-14.4-46.1-28.1-89.7-44.6-123.9c-18.2-37.9-38.3-61-63.2-72.7
				c-30.1-14.2-68.2-11.7-116.6,7.9c-108.4,44-155,116.1-192.4,174.1c-17,26.3-33,51.2-52.3,69.5c-21.3,20.3-44.7,31-73.5,33.5
				c-12,1-25,0.7-39.2-1.2v-0.6c14.2,1.8,27.2,2.2,39.1,1.2c62.5-5.5,90.3-48.5,125.3-102.8c18.8-29.2,40.2-62.2,70-92.8
				c34.3-35.2,74.4-61.9,122.8-81.5C385.2,8.6,409.9,3,431.4,3c15.8,0,30.1,3,42.9,9.1c25,11.8,45.1,35,63.4,72.9
				c16.5,34.3,30.1,77.8,44.6,123.9c17.8,56.7,37.6,120.1,67.5,181.9L649.9,392.3L649.9,392.3z"/>
		</g>
		<g>
			<path class="st0" d="M649.9,414.1c-37.7-71.4-59.8-146.9-79.2-213.4c-13.2-45.1-25.6-87.9-40.9-121.2
				C512.9,42.5,494,20,470.3,8.7C441.9-5,405.5-2.4,359.1,16.6C250.9,61.1,205.6,137.1,169.2,198.1c-29.5,49.6-55.1,92.5-105,104.8
				c-18.3,4.5-39.5,4.8-64.1,0.7v-0.6c24.5,4.1,45.7,3.9,64-0.7c49.8-12.2,75.2-55,104.7-104.6c18.2-30.7,39-65.5,68.4-97.5
				C270.8,63.5,310.7,35.9,359,16c27-11.1,50.6-16.6,71.3-16.6c14.9,0,28.4,2.9,40.4,8.7c23.7,11.4,42.7,33.9,59.6,71
				c15.3,33.5,27.8,76.1,41,121.3c19.4,66.2,41.3,141.3,78.7,212.4L649.9,414.1L649.9,414.1z"/>
		</g>
	</g>
</g>
</svg>
