<?xml version="1.0" encoding="utf-8"?>
<!-- Generator: Adobe Illustrator 19.2.0, SVG Export Plug-In . SVG Version: 6.00 Build 0)  -->
<svg version="1.1" id="Layer_1_copy" xmlns="http://www.w3.org/2000/svg" xmlns:xlink="http://www.w3.org/1999/xlink" x="0px"
	 y="0px" viewBox="0 0 940 1329.4" style="enable-background:new 0 0 940 1329.4;" xml:space="preserve">
<g style="opacity: 0.15">
	<path d="M489.1,54.6c-3.1,0-6.3-0.2-9.4-0.6c-7-0.8-13.7-2.6-20.3-5c-21.6-7.9-40.7-23.2-60.2-38c-5-3.8-9.9-7.5-14.9-11.1h-1.7
		c5.4,3.8,10.7,7.8,16.1,11.9C418.1,26.7,437.3,42,459,50c6.6,2.4,13.4,4.2,20.5,5c3.2,0.4,6.4,0.6,9.6,0.6
		c34.9,0,68.2-22.2,91.3-48.5c2.1-2.3,4-4.7,6-7.1h-1.3c-1.8,2.2-3.6,4.3-5.5,6.5C556.6,32.6,523.6,54.7,489.1,54.6z"/>
	<path d="M398.3,30.9c19.5,12.3,37.8,23.8,58.8,29.3c6.3,1.7,12.9,2.8,19.8,3.1c1.4,0.1,2.9,0.1,4.3,0.1c35.8,0,71.7-21.3,96.5-45.5
		c5.9-5.7,11.3-11.7,16.5-17.8h-1.3c-5,5.9-10.2,11.6-15.9,17.1c-24.8,24.1-60.4,45.3-95.8,45.3c-1.4,0-2.8,0-4.2-0.1
		c-6.8-0.3-13.3-1.4-19.6-3.1c-20.8-5.4-39-16.9-58.5-29.1c-17.4-11-35.2-22.9-54.5-28.3C341.9,1,339.5,0.5,337,0h-7.1
		c4.8,0.5,9.5,1.4,14.2,2.7C363.1,8,380.9,19.8,398.3,30.9z"/>
	<path d="M870.8,84.7C859.5,58.3,852.9,28.5,846.1,0h-1c6.8,28.5,13.4,58.5,24.8,85.1c10,23.2,23.8,43.2,44.3,57.7
		c8,5.7,16.9,10.4,25.8,15.1v-1.1c-8.7-4.6-17.4-9.3-25.2-14.8C894.4,127.6,880.8,107.8,870.8,84.7z"/>
	<path d="M827.7,139.4c9.8,22.9,24.2,39.4,43.8,51.9c13.4,8.5,28.5,15.1,41.1,25.2c10.5,8.4,19.8,17.1,25,29.3
		c1,2.3,1.8,4.7,2.4,7.1v-3.5c-0.4-1.3-0.9-2.7-1.5-4c-5.3-12.4-14.7-21.3-25.3-29.7c-12.7-10.2-27.9-16.8-41.2-25.3
		c-19.4-12.3-33.6-28.7-43.4-51.4c-12-28-17.6-59.6-23.5-89.4C801.9,33.1,797.2,16,791,0H790c6.2,16.1,10.9,33.2,14.2,49.8
		C810.1,79.6,815.6,111.3,827.7,139.4z"/>
	<path d="M836.1,128.5c9.9,23,24.1,40.2,43.9,53c13.5,8.8,28.9,15.5,41.9,25.3c6.8,5.1,13,10.4,18.1,16.7V222
		c-5-5.9-11.1-11-17.5-15.9c-13.1-9.9-28.5-16.7-41.9-25.4c-19.6-12.7-33.7-29.8-43.5-52.6c-12.1-28.3-17.9-60.3-24.2-90.3
		c-2.6-12.5-6.1-25.3-10.4-37.8h-1.1c4.3,12.5,7.8,25.4,10.4,38C818.2,68,823.9,100.1,836.1,128.5z"/>
	<path d="M874.3,64.3c10.3,27.3,24.8,51.8,48.4,68.8c5.4,3.9,11.3,7.3,17.3,10.6v-1.1c-5.8-3.2-11.5-6.5-16.7-10.3
		c-23.4-16.8-37.8-41.2-48-68.3c-7.7-20.4-13.2-42.4-18.4-63.9h-1C861.1,21.6,866.6,43.7,874.3,64.3z"/>
	<path d="M457.8,56.8c6.4,1.9,13.1,3.2,20,3.8c2.1,0.1,4.1,0.2,6.2,0.2c35.5,0,70.4-21.6,94.6-46.5c4.5-4.6,8.7-9.4,12.7-14.2h-1.3
		c-3.9,4.6-7.9,9.2-12.2,13.6c-24.1,24.8-58.8,46.2-93.9,46.2c-2,0-4.1-0.1-6.1-0.2c-6.9-0.5-13.5-1.8-19.8-3.7
		c-21.1-6.2-39.6-19-59.1-32.1C386.3,15.1,373.4,6.3,359.9,0h-2.4c14.1,6.3,27.6,15.5,40.9,24.5C417.9,37.6,436.5,50.5,457.8,56.8z"
		/>
	<path d="M419.4,22c18.8,14.5,38.4,27.1,61,30.3c3.7,0.5,7.4,0.8,11,0.8c34.7,0,67.2-22.5,89.8-49.6c1-1.2,1.9-2.4,2.9-3.6h-1.3
		c-0.8,1-1.6,2-2.4,2.9c-22.5,26.9-54.8,49.2-89,49.2c-3.6,0-7.3-0.2-10.9-0.8c-29.7-4.2-54.5-25.1-79.1-44.9
		c-2.7-2.2-5.4-4.3-8.1-6.4h-1.6C400.9,7.2,410.1,14.8,419.4,22z"/>
	<path d="M96.1,289.8c-2.5,0.2-5,0.2-7.5,0.2c-0.9,0-1.7,0-2.6,0c-31.5-0.7-62-13-86-30.7v1.2c24,17.6,54.4,29.8,85.9,30.5
		c0.9,0,1.8,0,2.6,0c2.5,0,5-0.1,7.5-0.2c20.7-1.3,41.1-7.6,58.9-18.1c-18.7,12-40.7,19.2-63,20.5c-2.2,0.1-4.4,0.2-6.5,0.2
		c-1.2,0-2.4,0-3.5-0.1c-30.1-0.9-59.1-12.7-81.9-29.5v1.2c22.9,16.8,51.8,28.4,81.8,29.3c1.2,0,2.4,0.1,3.6,0.1
		c2.2,0,4.4-0.1,6.6-0.2c21-1.2,41.8-7.6,59.7-18.3c-18.9,12.2-41.2,19.5-63.9,20.6c-1.9,0.1-3.7,0.1-5.6,0.1c-1.5,0-3,0-4.4-0.1
		c-28.6-1.1-56.1-12.3-77.8-28.3v1.2c21.7,15.9,49.2,26.9,77.8,28c1.5,0.1,3,0.1,4.5,0.1c1.9,0,3.8,0,5.7-0.1
		c21.4-1.1,42.4-7.5,60.7-18.5c-19.2,12.5-41.8,19.8-64.8,20.8c-1.6,0.1-3.1,0.1-4.7,0.1c-1.8,0-3.5,0-5.3-0.1
		c-27-1.3-53.1-11.8-73.7-26.9v1.2c20.7,15,46.6,25.3,73.7,26.6c1.8,0.1,3.5,0.1,5.3,0.1c1.6,0,3.2,0,4.8-0.1
		c21.6-0.9,42.8-7.4,61.3-18.4c-19.4,12.6-42.2,20-65.4,20.8c-1.3,0-2.6,0.1-3.9,0.1c-2,0-4.1-0.1-6.1-0.2
		c-25.5-1.4-50-11.2-69.6-25.4v1.2c19.6,14,44.1,23.7,69.6,25.1c2,0.1,4.1,0.2,6.2,0.2c1.3,0,2.6,0,3.9-0.1
		c21.8-0.8,43.3-7.3,61.9-18.4c-19.6,12.7-42.6,20.1-66,20.8c-1,0-2,0-3,0c-2.3,0-4.6-0.1-6.9-0.2c-23.9-1.6-47-10.7-65.5-23.8v1.2
		c18.6,13,41.6,22,65.5,23.6c2.3,0.1,4.6,0.2,7,0.2c1,0,2,0,3.1,0c22.3-0.6,44.2-7.4,63.1-18.8c-19.9,13-43.4,20.7-67.3,21.2
		c-0.7,0-1.5,0-2.2,0c-2.6,0-5.1-0.1-7.7-0.3c-22.4-1.6-43.9-10-61.4-22.2v1.2c17.6,12,39.1,20.3,61.4,21.9c2.6,0.2,5.1,0.3,7.7,0.3
		c0.8,0,1.5,0,2.3,0c22.5-0.5,44.7-7.3,63.8-18.9c-20.1,13.1-43.8,20.9-68,21.2c-0.5,0-1,0-1.5,0c-2.8,0-5.6-0.1-8.4-0.3
		c-20.8-1.7-40.8-9.4-57.4-20.5v1.2c16.6,11,36.5,18.6,57.3,20.3c2.8,0.2,5.6,0.3,8.5,0.3c0.5,0,1,0,1.5,0
		c22.8-0.3,45.2-7.2,64.6-18.9c-20.3,13.3-44.3,21.1-68.7,21.3c-0.2,0-0.5,0-0.7,0c-3,0-6.1-0.1-9.1-0.4
		c-19.2-1.7-37.7-8.7-53.3-18.8v1.2c15.6,10,34,16.8,53.2,18.6c3.1,0.3,6.1,0.4,9.2,0.4c0.2,0,0.5,0,0.8,0
		c23.3-0.2,46.1-7.2,65.9-19.3c-20.7,13.6-45.1,21.7-70,21.7h0c-3.3,0-6.5-0.2-9.8-0.5c-17.6-1.8-34.6-8-49.2-17.1v1.2
		c14.6,9,31.5,15.1,49.1,16.9c3.3,0.3,6.6,0.5,9.9,0.5l0,0c23.6,0,46.7-7.1,66.7-19.4c-20.7,13.6-45.1,21.7-70,21.7
		c-0.3,0-0.5,0-0.8,0c-3.3,0-6.5-0.2-9.8-0.6C29,321.2,13.5,315.6,0,307.6v1.2c13.5,7.9,29,13.4,45,15.2c3.3,0.4,6.6,0.5,9.9,0.6
		c0.3,0,0.5,0,0.8,0c23.6,0,46.8-7.2,66.9-19.6c-20.8,13.7-45.3,21.9-70.2,21.9c-0.5,0-1.1,0-1.6,0c-3.3,0-6.5-0.3-9.7-0.6
		c-14.5-1.7-28.6-6.6-41-13.6v1.1c12.4,7,26.4,11.8,40.9,13.5c3.3,0.4,6.6,0.6,9.9,0.6c0.5,0,1.1,0,1.6,0c23.9,0,47.3-7.4,67.5-20
		c-21,13.9-45.6,22.4-70.8,22.4c-0.8,0-1.6,0-2.4,0c-3.3-0.1-6.5-0.3-9.7-0.7c-13-1.6-25.6-5.9-36.9-12v1.1
		c11.3,6,23.9,10.2,36.8,11.9c3.3,0.4,6.5,0.7,9.8,0.7c0.8,0,1.6,0,2.4,0c23.9,0,47.4-7.5,67.6-20.2c-21,14-45.7,22.5-71,22.5
		c-1.1,0-2.1,0-3.2,0c-3.2-0.1-6.5-0.4-9.7-0.8c-11.5-1.6-22.6-5.2-32.8-10.4v1.1c10.2,5.1,21.3,8.7,32.7,10.2
		c3.2,0.4,6.5,0.7,9.8,0.8c1.1,0,2.1,0,3.2,0c24.2,0,47.9-7.8,68.4-20.7C92.9,328.2,67.9,337,42.4,337c-1.3,0-2.6,0-4-0.1
		c-3.2-0.1-6.5-0.4-9.7-0.9c-10-1.4-19.7-4.5-28.7-8.8v1.1c9,4.2,18.7,7.2,28.6,8.7c3.2,0.5,6.5,0.8,9.8,0.9c1.3,0,2.7,0.1,4,0.1
		c24.4,0,48.1-7.9,68.7-20.9c-21.4,14.4-46.4,23.3-72.1,23.3c-1.6,0-3.1,0-4.7-0.1c-3.2-0.1-6.4-0.5-9.6-0.9
		c-8.5-1.3-16.8-3.8-24.7-7.3v1.1c7.8,3.4,16.1,5.9,24.5,7.2c3.2,0.5,6.5,0.8,9.7,1c1.6,0.1,3.2,0.1,4.8,0.1
		c24.6,0,48.7-8.2,69.5-21.4c-21.6,14.6-46.9,23.8-72.9,23.8c-1.8,0-3.7,0-5.5-0.1c-3.2-0.2-6.4-0.5-9.6-1c-7.1-1.2-14-3.1-20.6-5.8
		v1.1c6.6,2.6,13.4,4.6,20.4,5.7c3.2,0.5,6.5,0.9,9.7,1c1.8,0.1,3.7,0.1,5.5,0.1c24.9,0,49.2-8.4,70.2-21.9
		c-21.9,14.8-47.4,24.3-73.6,24.3c-2.1,0-4.2-0.1-6.2-0.2c-3.2-0.2-6.4-0.6-9.6-1.1c-5.6-1-11.1-2.5-16.5-4.5v1.1
		c5.3,1.9,10.8,3.4,16.3,4.4c3.2,0.6,6.4,0.9,9.7,1.1c2.1,0.1,4.2,0.2,6.3,0.2c25.3,0,49.9-8.7,71.3-22.6
		c-22.2,15.2-48.1,25-74.7,25c-2.3,0-4.6-0.1-7-0.2c-3.2-0.2-6.4-0.6-9.5-1.2c-4.2-0.8-8.3-1.9-12.4-3.2v1.1c4,1.3,8.1,2.4,12.2,3.1
		c3.2,0.6,6.4,1,9.6,1.2c2.4,0.2,4.7,0.2,7,0.2c25.6,0,50.6-9,72.2-23.1C78.6,343.9,52.4,354,25.5,354c-2.6,0-5.1-0.1-7.7-0.3
		c-3.2-0.2-6.4-0.7-9.5-1.3c-2.8-0.5-5.6-1.2-8.3-2v1c2.7,0.8,5.4,1.4,8.1,2c3.2,0.6,6.4,1,9.6,1.3c2.6,0.2,5.2,0.3,7.8,0.3
		c26.2,0,51.6-9.5,73.7-24.1c-22.9,15.9-49.6,26.5-77,26.5c-2.8,0-5.6-0.1-8.4-0.3c-3.2-0.3-6.3-0.7-9.5-1.3c-1.4-0.3-2.8-0.6-4.2-1
		v1c1.3,0.3,2.7,0.6,4,0.9c3.2,0.6,6.4,1.1,9.6,1.3c2.8,0.2,5.7,0.3,8.5,0.3c26.8,0,52.8-10,75.4-25.1
		c-23.4,16.4-50.7,27.6-78.8,27.6c-3,0-6.1-0.1-9.2-0.4c-3.2-0.3-6.3-0.8-9.4-1.4c0,0-0.1,0-0.1,0v1c3.1,0.7,6.3,1.1,9.5,1.4
		c3.1,0.3,6.2,0.4,9.2,0.4c27.6,0,54.3-10.6,77.5-26.4c-24,17-52,28.9-80.9,28.9c-3.3,0-6.6-0.2-9.9-0.5c-1.8-0.2-3.6-0.4-5.5-0.7v1
		c1.8,0.3,3.6,0.5,5.4,0.7c3.3,0.3,6.7,0.5,10,0.5c28.7,0,56.4-11.6,80.4-28.3c-24.9,17.9-53.8,30.7-83.8,30.7
		c-3.5,0-7-0.2-10.6-0.5c-0.4,0-0.9-0.1-1.3-0.2v1c0.4,0,0.8,0.1,1.2,0.1c3.6,0.4,7.1,0.5,10.7,0.5c29.9,0,58.7-12.6,83.5-30.3
		c-0.5,0.4-1,0.7-1.5,1.1C68.5,357.8,39,371.2,8.5,371.2c-2.8,0-5.7-0.1-8.5-0.4v1c2.8,0.2,5.7,0.3,8.5,0.3
		c30.8,0,60.5-13.5,86-31.8c2.1-1.5,4.2-3.1,6.2-4.6c-27.8,21.7-61.1,38.9-95.6,38.9c-1.7,0-3.4-0.1-5.1-0.1v1
		c1.7,0.1,3.4,0.1,5.1,0.1c37.1,0,72.7-19.6,101.7-43.5c32.1-26.4,59.4-58.5,93.5-82.1c39.2-27.1,86.8-42,134.4-42
		c0.9,0,1.8,0,2.7,0c7.2,0.1,14.5,0.5,21.9,0.5c12.6,0,25-1.1,36.2-6.9c10.2-5.3,17.7-13.7,24.4-22.9c6.8-9.2,12.8-19.3,19.9-28.1
		c20.8-25.6,53.9-40.4,86.8-40.4c9.3,0,18.5,1.2,27.5,3.6c40.8,11.1,73.6,47.7,80,89.5c1,6.3,1.4,12.5,1.4,18.9
		c0,24.7-6.6,49.8-13.2,74.6c-6.6,24.9-13.2,49.6-13.3,73.6c0,13.8,2.2,27.3,7.8,40.5c4,9.4,9.7,14.5,16,17.4
		c9.5,4.4,20.4,4,29.4,6.2c4.5,1.1,8.5,2.9,11.7,6.2c3.2,3.3,5.5,8.1,6.7,15.5c0.9,6.1,1.4,11.8,1.4,17.1c0,14.1-3,25.7-7.4,37.8
		c-4.4,12.1-10.1,24.6-15.5,40.2c-2.2,6.4-3.3,12.3-3.3,17.8c0,13.3,6,23.8,15,32c13.5,12.3,33.6,19.6,50.3,23.9
		c16.7,4.2,30.1,5.4,30.1,5.4c0,0,1.4,0.1,4,0.4c18.1,1.7,93,9,132.6,16.5c18.2,3.4,35.8,9.5,52.3,17.8V664
		c-16.5-8.2-34.1-14.3-52.2-17.7c-45.3-8.5-136.7-16.8-136.7-16.8c0,0-0.4,0-1.1-0.1c-5.2-0.6-28.6-3.4-50.8-12.3
		c-11.1-4.4-21.8-10.4-29.7-18.2c-7.9-7.8-13.1-17.6-13.1-29.7c0-5.3,1-11.2,3.2-17.5c5.4-15.6,11.2-28,15.5-40.2
		c4.4-12.2,7.4-24,7.4-38.2c0-5.4-0.4-11.1-1.4-17.3c-1.5-10-5.4-15.7-10.6-19c-3.9-2.5-8.4-3.6-13.2-4.4
		c-7.2-1.2-15.1-1.6-22.1-4.2c-7.1-2.7-13.4-7.5-17.8-17.8c-5.6-13.1-7.7-26.5-7.7-40.1c0-23.8,6.6-48.5,13.2-73.3
		c6.6-24.9,13.2-50,13.3-74.9c0-6.4-0.4-12.7-1.4-19c-6.5-42.2-39.5-79.1-80.8-90.3c-9-2.5-18.4-3.6-27.7-3.6
		c-33.2,0-66.5,14.9-87.6,40.8c-7.2,8.8-13.2,19-19.9,28.1c-6.7,9.2-14.1,17.4-24.1,22.6c-10.9,5.7-23.2,6.8-35.7,6.8
		c-7.3,0-14.6-0.4-21.8-0.5c-0.9,0-1.8,0-2.8,0c-47.9,0-95.6,14.9-135,42.1c-28.7,19.9-52.6,45.8-78.5,69.2
		c23.7-21.8,45.1-46.1,69.8-66.2c3.5-2.8,7-5.5,10.6-8.2c31.3-22.9,68.5-37.8,107.4-42.2c8-0.9,16-1.3,24-1.3c1.6,0,3.2,0,4.7,0.1
		c8.3,0.2,16.8,0.8,25.2,0.8c11.4,0,22.6-1.1,32.7-6c10.1-4.9,17.7-12.7,24.6-21.4c6.9-8.7,13-18.3,20.3-26.6
		c4.2-4.8,8.9-9.3,14-13.4c21.2-16.9,48.8-26.4,75.9-26.4c8.3,0,16.5,0.9,24.5,2.7c25,5.8,46.9,20.3,62,40
		c9.5,12.4,16.3,26.7,19.4,42c1.7,8.2,2.4,16.6,2.4,25.1c0,0.8,0,1.6,0,2.4c-0.5,36.7-14.7,75.8-19.9,113.6c-1.1,8-1.8,16-1.8,23.9
		c0,14.5,2.2,28.9,8.2,42.8c4.6,10.7,11.3,16.1,18.8,19c7.4,2.9,15.5,3.5,22.8,5c5.4,1.1,10.4,2.6,14.4,5.9c4,3.3,7,8.4,8.6,16.7
		c1.4,7.4,2,14.2,2,20.5c0,2.9-0.1,5.7-0.4,8.4c-2.1,22.3-12.6,40.6-22.5,67.1c-2.6,7.1-3.8,13.6-3.8,19.6c0,8.8,2.6,16.4,7,22.9
		c4.4,6.5,10.4,11.9,17.4,16.3c13.1,8.5,29.1,13.8,41.9,17.2c6.4,1.7,11.9,2.8,15.9,3.7c2,0.4,3.6,0.7,4.6,1
		c0.5,0.1,0.9,0.2,1.2,0.3c0.1,0,0.1,0.1,0.2,0.1c0,0,0,0,0,0c0.1,0.1,0.2,0.2,0.3,0.2c0.1,0.1,0.3,0.1,0.5,0.2
		c0.8,0.2,2.3,0.5,4.4,0.8c15,2.4,61.9,7.8,100.3,13.4c10.9,1.6,21,3.2,29.6,4.8c18,3.3,35.4,9.1,51.7,17.3v-1.1
		c-16.3-8.1-33.7-13.8-51.6-17.1c-8.6-1.6-18.8-3.2-29.7-4.8c-23.2-3.4-49.5-6.7-70-9.3c-10.2-1.3-19-2.4-25.3-3.3
		c-3.1-0.4-5.6-0.8-7.3-1.1c-0.8-0.1-1.5-0.3-1.9-0.4c-0.2,0-0.3-0.1-0.4-0.1c0,0,0-0.1,0-0.1c-0.1-0.1-0.2-0.2-0.4-0.2
		c-0.3-0.1-0.6-0.2-1-0.3c-1.7-0.4-5-1.1-9.3-2c-13.1-2.8-35.8-8.5-53.2-19.8c-6.8-4.4-12.8-9.7-17.1-16.1
		c-4.3-6.3-6.8-13.7-6.8-22.3c0-5.8,1.2-12.2,3.8-19.2c9.9-26.4,20.3-44.7,22.5-67.3c0.3-2.8,0.4-5.6,0.4-8.5c0-6.4-0.7-13.2-2-20.7
		c-1.6-8.4-4.7-13.8-8.9-17.3c-4.2-3.5-9.3-5.1-14.8-6.1c-7.4-1.5-15.4-2.1-22.6-4.9c-7.2-2.9-13.7-7.9-18.2-18.4
		c-5.9-13.8-8.1-27.9-8.1-42.4c0-7.8,0.7-15.8,1.7-23.7c5.1-37.6,19.3-76.8,19.9-113.7c0-0.8,0-1.6,0-2.4c0-8.6-0.7-17-2.4-25.3
		c-3.2-15.5-10.1-29.9-19.6-42.4c-15.2-19.8-37.3-34.5-62.5-40.4c-8.1-1.9-16.4-2.8-24.7-2.8c-27.4,0-55.2,9.6-76.6,26.6
		c-5.1,4.1-9.9,8.6-14.1,13.5c-7.3,8.4-13.5,18-20.3,26.6c-6.8,8.7-14.3,16.4-24.3,21.2c-9.9,4.7-20.9,5.9-32.3,5.9
		c-8.3,0-16.8-0.6-25.2-0.8c-1.6,0-3.2-0.1-4.8-0.1c-8,0-16.1,0.4-24.1,1.4c-39,4.4-76.4,19.4-107.8,42.4c-3.6,2.6-7.2,5.4-10.6,8.2
		c-20.8,16.9-39.1,36.7-58.5,55.5c20.4-20.3,39.2-42.1,60.7-60.6c3.4-2.9,6.8-5.7,10.3-8.4c30.5-23.6,67.3-39.5,106.2-43.9
		c7.4-0.8,14.9-1.3,22.3-1.3c2.2,0,4.3,0,6.5,0.1c9.3,0.3,18.9,1.2,28.3,1.2c10.3,0,20.3-1,29.5-5c10.1-4.5,17.8-11.8,24.8-20
		c7-8.2,13.3-17.2,20.6-25.1c4.3-4.6,9.1-8.8,14.2-12.7c22.3-16.8,51.3-26.5,79.3-26.5c7.2,0,14.3,0.6,21.2,1.9
		c25,4.7,46.7,17.5,62.1,35.5c9.7,11.3,16.9,24.6,20.7,39.1c2.2,8.5,3.3,17.3,3.7,26.3c0.1,1.9,0.1,3.7,0.1,5.6
		c0,34.2-11.6,72-15.8,108.3c-0.9,7.5-1.4,15-1.4,22.4c0,15.4,2.3,30.5,8.6,45.2c4.6,10.8,11.3,16.3,18.7,19.4
		c7.4,3.2,15.5,4,22.9,5.7c5.5,1.2,10.5,2.9,14.7,6.2c4.1,3.3,7.3,8.4,9.1,16.5c1.9,8.6,2.8,16.2,2.8,23.6c0,1.8-0.1,3.6-0.2,5.4
		c-1.5,22.6-12.3,41.5-22.7,67.9c-3.1,7.9-4.5,15-4.5,21.5c0,16.5,9.1,28.5,21.3,37.2c12.1,8.7,27.2,14.3,39.2,18
		c6,1.9,11.2,3.2,15,4.3c1.9,0.5,3.4,1,4.4,1.4c0.5,0.2,0.9,0.4,1.1,0.5c0.1,0.1,0.2,0.1,0.2,0.1c0,0.1,0.1,0.2,0.1,0.3
		c0.1,0.2,0.3,0.3,0.5,0.4c0.4,0.2,0.9,0.4,1.6,0.6c2.6,0.8,7.7,1.7,14.5,2.9c20.4,3.4,56.4,8.3,87.2,13c10.8,1.6,21,3.2,29.6,4.8
		c17.8,3.2,35.1,8.7,51.1,16.7v-1.1c-16-7.9-33.3-13.4-50.9-16.6c-8.6-1.6-18.8-3.1-29.6-4.8c-23-3.5-48.8-7.1-68.9-10.1
		c-10.1-1.5-18.7-2.9-24.8-4c-3-0.6-5.5-1.1-7.1-1.5c-0.8-0.2-1.4-0.4-1.8-0.6c-0.2-0.1-0.3-0.2-0.4-0.2c0-0.2-0.1-0.3-0.2-0.4
		c-0.2-0.3-0.5-0.4-0.9-0.6c-1.5-0.7-4.5-1.5-8.6-2.6c-12.3-3.4-34.1-9.5-50.4-21.1c-12.1-8.6-20.9-20.3-20.9-36.4
		c0-6.3,1.4-13.3,4.4-21.1c10.4-26.3,21.2-45.3,22.8-68.2c0.1-1.8,0.2-3.6,0.2-5.4c0-7.4-0.9-15.1-2.8-23.8
		c-1.8-8.3-5.1-13.6-9.4-17.1c-4.3-3.5-9.5-5.2-15.1-6.4c-7.5-1.7-15.5-2.5-22.8-5.6c-7.2-3.1-13.7-8.4-18.2-18.9
		c-6.2-14.5-8.5-29.5-8.5-44.8c0-7.4,0.5-14.8,1.4-22.3c4.2-36.3,15.8-74.1,15.8-108.5c0-1.9,0-3.8-0.1-5.6
		c-0.4-9.1-1.5-18-3.7-26.5c-3.8-14.7-11.1-28.1-20.9-39.5c-15.5-18.2-37.4-31-62.7-35.8c-7-1.3-14.2-2-21.4-2
		c-28.2,0-57.4,9.7-79.9,26.7c-5.2,3.9-10,8.2-14.4,12.8c-7.4,8-13.7,17-20.7,25.2c-6.9,8.1-14.5,15.3-24.4,19.7
		c-9,3.9-18.9,5-29.1,5c-9.3,0-18.9-0.9-28.2-1.2c-2.2-0.1-4.4-0.1-6.5-0.1c-7.5,0-14.9,0.4-22.4,1.3
		c-39.2,4.4-76.1,20.4-106.7,44.1c-3.5,2.7-7,5.5-10.3,8.4c-17.9,15.4-33.8,32.9-50.3,50c17.5-18.7,33.9-38.2,52.6-55.1
		c3.3-2.9,6.6-5.8,10-8.6c29.7-24.2,66-41.1,105.1-45.6c6.9-0.8,13.9-1.2,20.8-1.2c2.7,0,5.4,0.1,8,0.2c10.3,0.4,20.9,1.6,31.2,1.6
		c9.2,0,18.1-0.9,26.4-4.2c10.1-4,17.9-10.8,25-18.5c7.1-7.6,13.5-16.1,21-23.6c4.4-4.3,9.2-8.4,14.4-12.1
		c23.5-16.8,54.1-26.6,83-26.6c5.9,0,11.8,0.4,17.5,1.3c25,3.7,46.6,14.6,62.2,31c9.8,10.3,17.5,22.5,21.9,36.2
		c2.6,8,4.2,16.4,5,25.2c0.4,4.4,0.6,9,0.6,13.6c0,31.4-8.8,66.7-12.1,100.7c-0.7,6.9-1.1,13.8-1.1,20.7c0,16.3,2.4,32.3,9,47.8
		c4.6,10.8,11.3,16.5,18.7,19.9c7.4,3.4,15.5,4.6,23,6.4c5.5,1.3,10.7,3.1,14.9,6.4c4.2,3.4,7.6,8.4,9.6,16.4
		c2.4,9.5,3.6,17.9,3.6,26.1c0,1,0,1.9-0.1,2.9c-0.9,22.9-12,42.5-23,68.7c-3.7,8.7-5.3,16.6-5.3,23.5c0,15.2,7.7,26.5,18.4,35
		c11.1,8.8,25.2,14.7,36.5,18.7c5.6,2,10.6,3.6,14.1,4.9c1.8,0.6,3.2,1.2,4.1,1.7c0.5,0.2,0.8,0.5,1,0.7c0.1,0.1,0.2,0.2,0.2,0.2
		l0,0.1l0,0l0,0l0,0.1c0,0.3,0.1,0.5,0.3,0.7c0.3,0.3,0.8,0.6,1.4,0.9c2.3,1,7.1,2.2,13.7,3.6c19.8,4.1,55.7,9.6,86.7,14.4
		c10.7,1.7,20.9,3.3,29.6,4.8c17.6,3.1,34.7,8.3,50.5,16.2v-1.1c-15.8-7.8-32.9-12.9-50.3-16c-8.7-1.5-18.9-3.1-29.6-4.8
		c-22.7-3.5-48.1-7.4-67.9-10.9c-9.9-1.7-18.3-3.3-24.2-4.7c-3-0.7-5.3-1.3-6.9-1.9c-0.8-0.3-1.4-0.5-1.8-0.8
		c-0.2-0.1-0.3-0.2-0.4-0.3l0,0l0,0c0-0.2-0.1-0.4-0.2-0.6c-0.2-0.3-0.5-0.6-0.9-0.8c-0.7-0.5-1.8-1-3.2-1.5
		c-4.8-1.9-13.5-4.5-23.1-8.3c-9.6-3.8-20.3-8.9-29-15.9c-10.5-8.4-18-19.3-18-34.2c0-6.8,1.6-14.5,5.2-23.2
		c11-26.1,22.2-45.8,23.1-69c0-1,0.1-2,0.1-2.9c0-8.3-1.3-16.8-3.7-26.3c-2-8.2-5.5-13.4-9.9-16.9c-4.4-3.5-9.7-5.3-15.3-6.6
		c-7.6-1.8-15.6-3-22.9-6.3c-7.2-3.3-13.7-8.8-18.2-19.4c-6.5-15.3-8.9-31.3-8.9-47.4c0-6.8,0.4-13.7,1.1-20.6
		c3.3-33.9,12.1-69.2,12.2-100.8c0-4.7-0.2-9.2-0.6-13.7c-0.8-8.8-2.4-17.3-5.1-25.4c-4.4-13.8-12.2-26.2-22.1-36.6
		c-15.8-16.5-37.6-27.5-62.8-31.3c-5.8-0.9-11.6-1.3-17.6-1.3c-29.2,0-59.9,9.9-83.6,26.8c-5.3,3.7-10.1,7.8-14.6,12.2
		c-7.6,7.6-14,16.1-21,23.7c-7,7.6-14.7,14.3-24.6,18.2c-8.1,3.2-16.9,4.1-26,4.1c-10.2,0-20.8-1.2-31.2-1.6
		c-2.7-0.1-5.4-0.2-8.1-0.2c-7,0-13.9,0.4-20.9,1.2c-39.3,4.5-75.8,21.4-105.6,45.8c-0.7,0.6-1.4,1.2-2.2,1.8
		c3.6-3.7,6.9-7.7,9.9-11.9c27.9-22.4,61.6-38.3,98.2-42.5c6.5-0.7,13-1.1,19.5-1.1c3.1,0,6.3,0.1,9.4,0.2
		c11.3,0.6,22.9,2.1,34.1,2.1c8.1,0,16-0.8,23.4-3.4c10.1-3.6,17.9-9.9,25.1-17c7.2-7.1,13.8-15.1,21.4-22.2
		c4.4-4.1,9.4-7.9,14.7-11.5c25-16.8,57.3-26.9,87.3-26.9c4.5,0,8.9,0.2,13.2,0.7c25,2.7,46.4,11.8,62.3,26.4
		c10,9.3,18.1,20.5,23.1,33.3c3,7.5,5,15.5,6.3,24c1.1,7.1,1.6,14.5,1.6,22.2c0,28.7-6.4,61.1-8.9,92.3c-0.5,6.2-0.8,12.5-0.8,18.7
		c0,17.3,2.4,34.4,9.4,50.8c4.6,10.8,11.3,16.7,18.7,20.4c7.4,3.6,15.5,5.1,23.2,7.1c5.6,1.5,10.8,3.3,15.2,6.7
		c4.3,3.4,7.9,8.4,10.1,16.2c2.9,10.2,4.6,19.3,4.6,28.2c0,0.3,0,0.5,0,0.8c-0.2,23.2-11.7,43.4-23.3,69.5
		c-4.3,9.7-6.2,18.2-6.2,25.8c0,13.9,6.4,24.5,15.6,32.6c10.1,9,23.2,15.1,33.8,19.5c5.3,2.2,9.9,4,13.2,5.5c1.6,0.8,3,1.5,3.8,2.1
		c0.4,0.3,0.8,0.6,1,0.8c0.2,0.3,0.3,0.4,0.3,0.6l0,0l0,0l0,0.1c0,0.3,0.1,0.5,0.2,0.7c0.3,0.4,0.7,0.7,1.3,1.1
		c1.1,0.7,2.9,1.3,5.1,2.1c7.9,2.5,22.3,5.6,39.3,8.8c16.9,3.2,36.4,6.4,54.3,9.3c10.7,1.7,20.9,3.3,29.6,4.8
		c17.3,3,34.3,8,49.9,15.6v-1.1c-15.6-7.6-32.5-12.5-49.7-15.5c-8.7-1.5-18.9-3.1-29.6-4.8c-22.5-3.6-47.5-7.8-66.8-11.7
		c-9.7-1.9-17.9-3.8-23.7-5.4c-2.9-0.8-5.2-1.6-6.8-2.3c-0.8-0.3-1.4-0.7-1.7-1c-0.2-0.1-0.3-0.3-0.4-0.4c-0.1-0.1-0.1-0.1-0.1-0.2
		l0,0l0-0.1c0-0.4-0.2-0.8-0.5-1.2c-0.5-0.7-1.4-1.3-2.6-2c-4.2-2.3-12.4-5.2-21.6-9.4c-9.2-4.1-19.4-9.5-27.6-16.8
		c-9-8-15.3-18.3-15.3-31.9c0-7.4,1.8-15.8,6.1-25.4c11.6-26,23.1-46.4,23.4-69.9c0-0.3,0-0.5,0-0.8c0-9.1-1.7-18.2-4.6-28.5
		c-2.2-8-5.9-13.2-10.4-16.7c-4.5-3.5-9.9-5.4-15.5-6.9c-7.7-2-15.7-3.5-23-7c-7.2-3.6-13.7-9.2-18.2-19.9
		c-6.9-16.2-9.3-33.2-9.3-50.4c0-6.2,0.3-12.4,0.8-18.6c2.6-31.1,8.9-63.6,8.9-92.4c0-7.8-0.5-15.3-1.6-22.4
		c-1.3-8.6-3.4-16.6-6.4-24.2c-5.1-13-13.2-24.3-23.4-33.7c-16.1-14.8-37.7-24-62.9-26.7c-4.4-0.5-8.8-0.7-13.3-0.7
		c-30.2,0-62.7,10.2-87.8,27c-5.3,3.6-10.3,7.4-14.8,11.6c-7.7,7.1-14.3,15.1-21.4,22.2c-7.1,7.1-14.8,13.2-24.8,16.7
		c-7.2,2.6-15,3.4-23.1,3.4c-11.1,0-22.7-1.5-34-2.1c-3.1-0.2-6.3-0.2-9.4-0.2c-6.5,0-13.1,0.4-19.6,1.1
		c-35.7,4.1-68.7,19.2-96.2,40.7c0.6-1,1.3-2,1.9-3c1-1.6,1.9-3.3,2.9-5c26.1-20.7,57.5-35.6,91.7-39.5c6.2-0.7,12.3-1,18.4-1
		c3.5,0,7,0.1,10.6,0.3c12.2,0.7,24.8,2.7,36.8,2.7c7.1,0,14-0.7,20.5-2.7c10.1-3.1,18-8.9,25.3-15.5c7.3-6.6,14-14.1,21.8-20.7
		c4.5-3.9,9.5-7.5,14.9-10.8c26.6-16.8,61.1-27.3,92.1-27.3c2.8,0,5.7,0.1,8.4,0.3c25,1.6,46.2,8.9,62.5,21.9
		c10.2,8.2,18.7,18.4,24.4,30.4c3.3,7.1,5.8,14.6,7.6,22.9c2.2,9.8,3,20.4,3,31.7c0,26-4.4,55.2-6.2,83.2
		c-0.4,5.5-0.6,10.9-0.6,16.4c0,18.4,2.4,36.6,9.8,54.1c4.6,10.9,11.3,16.9,18.6,20.8c7.4,3.9,15.5,5.6,23.3,7.8
		c5.6,1.6,10.9,3.5,15.4,7c4.5,3.4,8.2,8.3,10.6,16.1c3.3,10.4,5.4,19.6,5.5,29c0,0.4,0,0.7,0,1.1c0,23-11.6,43.7-23.6,69.2
		c-5,10.8-7.2,20.1-7.2,28.2c0,12.6,5.2,22.3,12.9,30c9.1,9.1,21.2,15.5,31.1,20.3c4.9,2.4,9.3,4.4,12.4,6.2
		c1.5,0.9,2.8,1.7,3.6,2.4c0.4,0.4,0.7,0.7,0.9,1c0.2,0.3,0.3,0.6,0.3,0.8l0,0.1l0,0l0,0.1c0,0.6,0.3,1,0.8,1.5
		c0.9,0.8,2.3,1.6,4.4,2.5c7.1,3,21.3,6.5,38.3,10.1c17,3.6,36.8,7.1,55.1,10.1c10.6,1.8,20.8,3.3,29.6,4.8
		c17.1,2.9,33.9,7.6,49.3,15.1v-1.1c-15.4-7.4-32.1-12.1-49.1-15c-8.8-1.5-18.9-3-29.6-4.8c-22.3-3.7-46.8-8.2-65.7-12.4
		c-9.5-2.1-17.5-4.2-23.2-6.1c-2.8-1-5.1-1.9-6.6-2.7c-0.8-0.4-1.3-0.8-1.7-1.2c-0.4-0.3-0.5-0.6-0.5-0.8l0,0l0,0l0-0.1
		c0-0.5-0.2-0.9-0.4-1.4c-0.5-0.8-1.3-1.6-2.5-2.3c-2-1.4-4.9-2.9-8.4-4.6c-10.5-5.1-26.2-12.1-37.2-23.2
		c-7.6-7.6-12.6-17.1-12.7-29.3c0-8,2.1-17.2,7.1-27.8c11.9-25.5,23.7-46.3,23.7-69.6c0-0.4,0-0.7,0-1.1c-0.2-9.5-2.3-18.8-5.6-29.3
		c-2.5-7.9-6.3-13-10.9-16.6c-4.6-3.5-10.1-5.5-15.7-7.1c-7.8-2.2-15.9-3.9-23.1-7.7c-7.2-3.8-13.6-9.7-18.2-20.3
		c-7.4-17.3-9.8-35.3-9.8-53.7c0-5.4,0.2-10.9,0.6-16.3c1.8-28,6.2-57.1,6.2-83.3c0-11.3-0.8-22-3-31.9c-1.8-8.3-4.3-15.9-7.7-23.1
		c-5.7-12.2-14.3-22.4-24.6-30.7C605,104,583.6,96.7,558.4,95c-2.8-0.2-5.6-0.3-8.5-0.3c-31.2,0-65.8,10.5-92.6,27.4
		c-5.4,3.4-10.4,7-15,10.9c-7.8,6.7-14.5,14.1-21.8,20.7c-7.2,6.6-15,12.2-24.9,15.3c-6.4,2-13.2,2.7-20.2,2.7
		c-11.9,0-24.5-1.9-36.8-2.7c-3.5-0.2-7.1-0.3-10.6-0.3c-6.1,0-12.3,0.3-18.5,1.1c-33.7,3.9-64.6,18.2-90.4,38.3
		c1.2-2.3,2.3-4.6,3.3-7c24.8-19.9,54.6-34.3,87.4-38.1c5.8-0.7,11.6-1,17.4-1c3.9,0,7.7,0.1,11.6,0.4c13.2,0.9,26.7,3.3,39.5,3.3
		c6.1,0,12-0.5,17.7-2.1c10.1-2.7,18.1-7.9,25.5-14c7.4-6.1,14.3-13,22.1-19.2c4.6-3.6,9.7-7,15.1-10.2
		c28.5-16.9,65.5-27.9,97.5-27.9c1,0,2,0,3,0c25.1,0.6,46.1,6.1,62.6,17.4c10.4,7.2,19.3,16.3,25.6,27.5c3.7,6.6,6.6,13.7,8.9,21.7
		c3.6,12.5,4.9,26.9,4.9,42.3c0,23.1-2.7,48.4-3.9,72.9c-0.2,4.5-0.3,9.1-0.3,13.6c0,19.6,2.4,39.2,10.3,57.8
		c4.6,10.9,11.2,17.2,18.6,21.3c7.4,4.1,15.5,6.1,23.4,8.5c5.7,1.8,11.1,3.8,15.7,7.2c4.6,3.5,8.4,8.3,11.1,15.9
		c3.6,10.3,6.1,19.5,6.5,29c0,0.9,0.1,1.8,0.1,2.7c0,22.7-11.7,43.6-23.9,68.4c-5.9,12-8.4,22.1-8.4,30.9c0,11.1,4.1,20,10.5,27.3
		c8.1,9.2,19.2,15.9,28.3,21c4.6,2.6,8.6,4.8,11.5,6.8c1.4,1,2.6,1.9,3.4,2.8c0.8,0.9,1.1,1.6,1.1,2.3l0,0.1h0l0,0.1
		c0,0.6,0.3,1.1,0.7,1.7c0.8,1,2.3,1.9,4.3,2.9c7,3.4,20.8,7.4,37.5,11.2c16.7,3.9,36.1,7.6,54.2,10.7c10.6,1.8,20.7,3.4,29.5,4.8
		c16.9,2.8,33.5,7.3,48.7,14.6v-1.1c-15.2-7.2-31.7-11.6-48.5-14.4c-8.8-1.5-19-3-29.5-4.8c-22-3.7-46.1-8.5-64.6-13.2
		c-9.3-2.3-17.2-4.7-22.7-6.8c-2.8-1.1-5-2.1-6.4-3.1c-0.7-0.5-1.3-0.9-1.6-1.3c-0.3-0.4-0.5-0.8-0.5-1l0,0l0,0l0-0.2
		c0-1-0.5-2-1.4-3c-1.5-1.7-4.1-3.4-7.3-5.3c-9.7-5.8-25.5-13.4-35.9-25.3c-6.2-7.2-10.2-15.7-10.2-26.6c0-8.6,2.5-18.6,8.3-30.4
		c12.2-24.8,24-45.8,24-68.8c0-0.9,0-1.8-0.1-2.8c-0.4-9.6-2.9-18.9-6.6-29.3c-2.7-7.7-6.7-12.8-11.4-16.4c-4.7-3.6-10.2-5.6-16-7.4
		c-7.9-2.4-16-4.4-23.2-8.4c-7.2-4-13.6-10.1-18.2-20.8c-7.8-18.4-10.2-37.8-10.2-57.4c0-4.5,0.1-9.1,0.3-13.6
		c1.2-24.4,3.9-49.8,3.9-72.9c0-15.4-1.2-29.9-4.9-42.6c-2.3-8-5.3-15.2-9-21.9c-6.4-11.3-15.4-20.6-25.9-27.8
		c-16.8-11.5-38-17-63.2-17.6c-1,0-2,0-3.1,0c-32.2,0-69.3,11-98,28c-5.5,3.2-10.6,6.6-15.2,10.3c-7.9,6.2-14.8,13.2-22.2,19.2
		c-7.3,6-15.2,11.1-25.1,13.8c-5.5,1.5-11.4,2-17.4,2c-12.7,0-26.2-2.4-39.4-3.3c-3.9-0.3-7.8-0.4-11.7-0.4c-5.8,0-11.7,0.3-17.5,1
		c-32.4,3.7-61.8,17.8-86.5,37.2c0.9-2.1,1.7-4.3,2.5-6.4c23.8-19.5,52.5-33.8,84.3-37.5c5.5-0.6,11.1-1,16.5-1
		c4.2,0,8.4,0.2,12.5,0.5c14.1,1.1,28.6,4.1,42.2,4.1c5.1,0,10.1-0.4,14.9-1.5c10.1-2.3,18.1-7,25.6-12.5
		c7.5-5.5,14.5-11.9,22.5-17.7c4.7-3.4,9.8-6.5,15.3-9.6c29.8-16.5,68.2-28,100.6-28.7c1.5,0,3,0,4.5,0c23.1,0,42.5,3.8,58.3,13
		c10.6,6.1,19.9,14.2,26.8,24.6c4.1,6.1,7.5,12.8,10.3,20.5c5.6,15.4,7.2,34.4,7.2,54.8c0,19.6-1.4,40.4-2.1,60.7
		c-0.1,3.4-0.2,6.9-0.2,10.3c0,21.1,2.4,42.2,10.9,62c4.7,10.9,11.2,17.4,18.6,21.7c7.4,4.3,15.6,6.6,23.5,9.2
		c5.7,1.9,11.2,4,15.9,7.5c4.7,3.5,8.7,8.3,11.6,15.8c3.9,10.3,6.8,19.4,7.5,29c0.1,1.4,0.1,2.8,0.1,4.2c0,22.4-11.7,43.6-24.3,67.7
		c-6.9,13.3-9.9,24.3-9.9,33.8c0,9.6,3.1,17.5,8.2,24.3c7,9.3,17.2,16.2,25.6,21.8c4.2,2.8,8,5.2,10.6,7.4c1.3,1.1,2.4,2.2,3.1,3.1
		c0.7,1,1.1,1.9,1.1,2.7l0,0.2h0l0,0.2c0,0.6,0.3,1.3,0.7,1.8c0.8,1.1,2.2,2.2,4.2,3.3c6.8,3.9,20.4,8.2,36.7,12.3
		c16.3,4.2,35.5,8.1,53.4,11.3c10.5,1.9,20.7,3.4,29.5,4.8c16.7,2.7,33.1,6.9,48.1,14V630c-15-7-31.3-11.2-47.9-13.9
		c-8.9-1.4-19-3-29.5-4.8c-21.8-3.9-45.4-8.9-63.6-14c-9.1-2.5-16.8-5.1-22.2-7.5c-2.7-1.2-4.8-2.4-6.3-3.5
		c-0.7-0.5-1.2-1.1-1.6-1.5c-0.3-0.5-0.5-0.9-0.5-1.3l0-0.1l0,0c0-0.1,0-0.2,0-0.3c0-1.1-0.5-2.2-1.3-3.3c-1.4-1.9-3.8-3.8-6.8-6
		c-9-6.4-23.6-14.4-32.6-26.4c-5-6.6-8-14.2-8-23.6c0-9.2,2.9-20.1,9.7-33.3c12.5-24.1,24.4-45.4,24.4-68.2c0-1.4,0-2.9-0.1-4.3
		c-0.7-9.8-3.6-19-7.5-29.3c-2.9-7.6-7.1-12.6-11.9-16.2c-4.9-3.6-10.4-5.7-16.2-7.6c-8-2.6-16.1-4.9-23.3-9.1
		c-7.2-4.3-13.6-10.5-18.2-21.3c-8.4-19.7-10.8-40.6-10.8-61.6c0-3.4,0.1-6.9,0.2-10.3c0.7-20.2,2.1-41.1,2.1-60.7
		c0-20.5-1.6-39.6-7.3-55.2c-2.8-7.8-6.2-14.6-10.4-20.7c-7-10.5-16.4-18.7-27.1-24.9c-16.1-9.2-35.6-13.1-58.8-13.1
		c-1.5,0-3,0-4.5,0c-32.6,0.7-71.1,12.2-101,28.8c-5.5,3.1-10.7,6.2-15.4,9.6c-8.1,5.8-15.1,12.2-22.5,17.7
		c-7.5,5.5-15.4,10.1-25.2,12.3c-4.7,1.1-9.6,1.5-14.7,1.5c-13.4,0-27.9-2.9-42.1-4.1c-4.2-0.3-8.4-0.5-12.6-0.5
		c-5.5,0-11.1,0.3-16.7,1c-31.5,3.7-59.9,17.6-83.6,36.7c0.7-2,1.3-4,1.9-6.1c23-19.4,50.8-33.8,82-37.4c5.3-0.6,10.5-0.9,15.8-0.9
		c4.5,0,8.9,0.2,13.4,0.6c15.1,1.4,30.5,4.9,44.8,4.9c4.1,0,8.2-0.3,12.1-1c10.1-1.9,18.2-6,25.8-11c7.6-5,14.7-10.9,22.9-16.2
		c4.8-3.1,10-6.1,15.5-8.9C490.6,99.3,529,87.4,561,85.4c5.3-0.3,10.4-0.5,15.3-0.5c18.4,0,34.1,2.5,47.6,8.9
		c10.8,5.1,20.5,12.2,28,21.7c4.5,5.6,8.3,11.9,11.6,19.4c8.3,18.7,10.1,43.7,10.1,70.4c0,14.9-0.6,30.4-0.8,45.5
		c0,2-0.1,4.1-0.1,6.1c0,22.8,2.3,45.7,11.5,67.2c4.7,10.9,11.2,17.6,18.6,22.2c7.4,4.6,15.6,7.1,23.6,9.9c5.8,2,11.3,4.2,16.2,7.8
		c4.8,3.5,9,8.3,12.1,15.6c4.3,10.2,7.6,19.3,8.5,29c0.2,1.9,0.3,3.7,0.3,5.6c0,22.2-11.9,43.6-24.7,67.1
		c-8,14.8-11.5,26.7-11.5,36.8c0,8.1,2.3,15,6.1,21.1c6,9.4,15.2,16.5,22.9,22.5c3.8,3,7.3,5.6,9.8,8.1c1.2,1.2,2.2,2.4,2.9,3.5
		c0.7,1.1,1,2.2,1,3.2c0,0.1,0,0.2,0,0.3h0l0,0.2c0,0.7,0.2,1.4,0.6,2c0.8,1.2,2.2,2.4,4.1,3.7c6.7,4.3,19.9,9,35.9,13.5
		c16,4.5,34.8,8.6,52.5,11.9c10.5,1.9,20.6,3.4,29.5,4.9c16.5,2.6,32.6,6.6,47.4,13.5v-1.1c-14.8-6.8-30.9-10.7-47.3-13.4
		c-8.9-1.4-19-2.9-29.5-4.9c-21.6-3.9-44.7-9.3-62.5-14.8c-8.9-2.8-16.4-5.5-21.7-8.2c-2.6-1.3-4.7-2.6-6.1-3.8
		c-0.7-0.6-1.2-1.2-1.6-1.7c-0.3-0.5-0.5-1-0.5-1.5l0-0.1l0,0c0-0.1,0-0.2,0-0.4c0-1.2-0.4-2.5-1.2-3.7c-1.3-2.1-3.5-4.3-6.3-6.6
		c-8.3-6.9-21.6-15.4-29.3-27.5c-3.8-5.9-6-12.6-6-20.5c0-9.8,3.4-21.6,11.4-36.3c12.8-23.5,24.8-45,24.8-67.6
		c0-1.9-0.1-3.8-0.3-5.7c-0.9-9.9-4.2-19.1-8.5-29.3c-3.1-7.4-7.4-12.4-12.4-16c-5-3.6-10.6-5.9-16.4-7.9
		c-8.1-2.8-16.2-5.3-23.4-9.8c-7.2-4.5-13.6-11-18.2-21.7c-9.1-21.3-11.4-44.1-11.4-66.8c0-2,0-4.1,0.1-6.1
		c0.2-15.1,0.8-30.5,0.8-45.5c0-26.7-1.7-51.8-10.2-70.8c-3.3-7.5-7.2-13.9-11.7-19.6c-7.7-9.6-17.5-16.8-28.4-22
		c-13.7-6.5-29.6-9-48-9c-4.9,0-10,0.2-15.4,0.5c-32.2,2-70.7,13.9-101,29.6c-5.6,2.9-10.8,5.8-15.6,9c-8.2,5.4-15.3,11.2-22.9,16.2
		c-7.6,5-15.5,9.1-25.4,10.9c-3.8,0.7-7.8,1-11.9,1c-14.2,0-29.6-3.5-44.7-4.9c-4.5-0.4-9-0.6-13.5-0.6c-5.3,0-10.6,0.3-15.9,0.9
		c-30.9,3.6-58.5,17.6-81.4,36.7c0.5-1.9,1-3.8,1.4-5.7c22.3-19.5,49.4-34.1,80.2-37.7c5.1-0.6,10.1-0.9,15.1-0.9
		c4.7,0,9.5,0.3,14.1,0.7c16,1.6,32.3,5.8,47.4,5.8c3.2,0,6.3-0.2,9.3-0.6c10-1.4,18.2-5,26-9.5c7.7-4.5,15-9.8,23.3-14.7
		c4.8-2.9,10.1-5.6,15.8-8.3c30.6-14.7,69-27,100.6-30.4c9.7-1,18.7-1.7,27-1.7c13.4,0,25.3,1.6,36,5.5c11,4,21.1,10.1,29.3,18.8
		c4.8,5.1,9.1,11,12.9,18.2c12.3,23.2,13.5,58.3,13.5,93.8c0,7.5-0.1,15-0.1,22.4c0,0.2,0,0.3,0,0.5c0,24.9,2.1,50.2,12.1,73.7
		c4.7,11,11.2,17.8,18.6,22.6c7.4,4.8,15.6,7.6,23.7,10.6c5.8,2.2,11.5,4.5,16.4,8c5,3.6,9.3,8.3,12.6,15.5
		c4.6,10.1,8.3,19.1,9.4,29c0.3,2.3,0.4,4.6,0.4,6.8c0,22.1-12,43.7-25.1,66.7c-9.3,16.4-13.4,29.2-13.4,40c0,6.6,1.5,12.4,4.3,17.7
		c4.9,9.5,13.2,16.8,20.2,23.1c3.5,3.1,6.7,6,8.9,8.7c2.3,2.7,3.6,5.2,3.6,7.5c0,0.1,0,0.3,0,0.4l0,0l0,0.3c0,1.5,0.9,2.9,2.3,4.4
		c2.5,2.5,7,5.1,12.9,7.7c17.7,7.9,48.1,15.9,76.2,21.2c10.4,2,20.5,3.5,29.5,4.9c16.3,2.6,32.2,6.3,46.8,13v-1.1
		c-14.6-6.6-30.5-10.3-46.7-12.8c-9-1.4-19.1-2.9-29.5-4.9c-21.3-4-44.1-9.7-61.4-15.6c-8.7-3-16-6-21.2-8.9
		c-2.6-1.5-4.6-2.9-5.9-4.2c-1.4-1.4-2-2.6-2-3.7l0-0.2l0,0c0-0.2,0-0.3,0-0.5c0-2.7-1.5-5.4-3.9-8.2c-3.5-4.1-8.9-8.6-14.4-13.7
		c-5.5-5.1-10.9-11-14.6-17.9c-2.7-5.2-4.2-10.8-4.2-17.3c0-10.5,4-23.2,13.3-39.5c13.1-23,25.2-44.7,25.2-67.2
		c0-2.3-0.1-4.6-0.4-6.9c-1.2-10.1-4.9-19.2-9.5-29.3c-3.3-7.3-7.8-12.2-12.9-15.9c-5.1-3.6-10.8-6-16.7-8.1
		c-8.2-3-16.3-5.8-23.5-10.5c-7.2-4.7-13.6-11.4-18.2-22.2c-10-23.3-12-48.5-12-73.4c0-0.2,0-0.3,0-0.5c0-7.4,0.1-14.9,0.1-22.4
		c0-35.6-1.1-70.7-13.6-94.3c-3.8-7.2-8.1-13.2-13-18.4c-8.3-8.8-18.6-14.9-29.7-19c-10.9-4-22.9-5.6-36.4-5.6
		c-8.4,0-17.4,0.6-27.2,1.7c-31.8,3.4-70.3,15.7-100.9,30.5c-5.7,2.7-11,5.5-15.8,8.4c-8.3,4.9-15.6,10.3-23.2,14.7
		c-7.7,4.4-15.7,8-25.6,9.4c-3,0.4-6.1,0.6-9.2,0.6c-14.9,0-31.2-4.1-47.3-5.7c-4.7-0.5-9.5-0.7-14.2-0.7c-5,0-10.1,0.3-15.2,0.9
		c-30.6,3.6-57.5,17.9-79.7,37c0.4-1.8,0.8-3.7,1.2-5.5c21.7-19.8,48.3-34.7,78.9-38.3c4.9-0.6,9.7-0.8,14.4-0.8
		c5,0,9.9,0.3,14.8,0.8c17,1.9,34.3,6.7,50.1,6.7c2.2,0,4.4-0.1,6.5-0.3c10-1,18.3-4.1,26.1-8c7.8-4,15.2-8.8,23.6-13.3
		c4.9-2.6,10.3-5.1,16-7.7c30.9-13.8,69.3-26.5,100.6-31.2c14.2-2.1,26.9-3.6,38.3-3.6c8.9,0,17.1,0.9,24.9,3
		c11.2,3,21.7,8,30.5,15.9c5.2,4.7,9.9,10.2,14.2,17c8.4,13.5,12.7,31.8,14.9,52.2c2.2,20.3,2.4,42.7,2.7,64.3
		c0.4,25.4,2.6,51.2,12.8,75.2c4.7,11,11.2,18,18.5,23.1c7.4,5.1,15.6,8.1,23.9,11.3c5.9,2.3,11.6,4.7,16.7,8.3
		c5.1,3.6,9.6,8.3,13.1,15.3c5,10,9,19,10.4,29.1c0.4,2.7,0.5,5.3,0.5,8c0,22.1-12.1,43.9-25.5,66.3c-10.8,18.1-15.6,31.7-15.6,43.2
		c0,5.2,1,9.9,2.8,14.4c3.9,9.5,11.2,17.1,17.4,23.8c3.1,3.3,6,6.4,8.1,9.4c2.1,2.9,3.3,5.7,3.3,8.3c0,0.2,0,0.4,0,0.6l0,0
		c0,0.1,0,0.2,0,0.3c0,1.6,0.8,3.2,2.2,4.8c2.5,2.8,6.8,5.6,12.6,8.4c17.3,8.5,47,17,74.8,22.4c10.4,2,20.5,3.5,29.5,4.9
		c16,2.5,31.8,6,46.2,12.4v-1.1c-14.4-6.4-30.1-9.9-46.1-12.3c-9-1.4-19.1-2.9-29.4-4.9c-21.1-4.1-43.4-10-60.4-16.3
		c-8.5-3.2-15.7-6.4-20.7-9.6c-2.5-1.6-4.5-3.1-5.8-4.6c-1.3-1.5-2-2.9-2-4.1l0-0.2l0,0c0-0.2,0-0.4,0-0.6c0-3-1.4-5.9-3.5-8.9
		c-3.2-4.5-8.1-9.3-13-14.6c-4.8-5.4-9.6-11.4-12.4-18.3c-1.8-4.3-2.7-8.9-2.7-14c0-11.2,4.7-24.7,15.5-42.7
		c13.4-22.5,25.7-44.4,25.7-66.9c0-2.7-0.2-5.4-0.6-8.1c-1.4-10.2-5.5-19.4-10.5-29.4c-3.5-7.1-8.2-12-13.4-15.7
		c-5.2-3.7-11-6.1-16.9-8.4c-8.3-3.2-16.4-6.3-23.6-11.2c-7.2-5-13.5-11.8-18.2-22.7c-10.2-23.8-12.4-49.5-12.8-74.8
		c-0.3-21.6-0.5-44-2.7-64.4c-2.2-20.4-6.5-38.9-15-52.6c-4.3-7-9.1-12.5-14.4-17.3c-8.9-8-19.6-13.1-30.9-16.1
		c-7.9-2.1-16.2-3-25.1-3c-11.6,0-24.2,1.5-38.5,3.6c-31.4,4.7-69.9,17.4-100.9,31.3c-5.7,2.5-11.1,5.1-16.1,7.7
		c-8.4,4.5-15.8,9.3-23.6,13.2c-7.8,3.9-15.9,7-25.8,7.9c-2.1,0.2-4.3,0.3-6.4,0.3c-15.6,0-32.9-4.8-50-6.7
		c-4.9-0.6-9.9-0.9-14.9-0.9c-4.8,0-9.7,0.3-14.6,0.8c-30.4,3.6-56.8,18.2-78.5,37.6c0.3-1.8,0.6-3.5,0.9-5.3
		c21.2-20.2,47.4-35.5,77.9-39.1c4.7-0.6,9.3-0.8,13.9-0.8c5.2,0,10.3,0.3,15.4,1c18,2.2,36.2,7.8,52.7,7.8c1.3,0,2.5,0,3.8-0.1
		c10-0.6,18.3-3.1,26.3-6.5c7.9-3.4,15.5-7.7,24-11.8c5-2.4,10.4-4.7,16.2-7.1c31.3-12.9,69.7-26,100.6-32
		c18.5-3.6,34.2-6.4,48.3-6.4c5.2,0,10.2,0.4,15.1,1.2c11.4,2,22.3,6,31.7,13c5.6,4.2,10.7,9.3,15.5,15.9
		c9.4,13,14.5,31.2,17.4,51.7c2.9,20.5,3.7,43.2,4.3,65.1c0.7,25.6,3.2,51.9,13.5,76.2c4.7,11,11.2,18.3,18.5,23.5
		c7.4,5.3,15.6,8.7,24,12.1c5.9,2.4,11.8,4.9,17,8.5c5.2,3.6,9.9,8.3,13.5,15.2c5.3,9.9,9.7,18.9,11.4,29.1c0.5,3,0.7,6.1,0.7,9.1
		c0,22.1-12.2,44.1-26,66.1c-12.4,19.8-18.1,34.2-18.1,46.5c0,3.8,0.6,7.4,1.6,10.9c2.9,9.4,9.2,17.3,14.7,24.4
		c2.8,3.5,5.3,6.8,7.2,10c1.9,3.2,3,6.2,3,9.1c0,0.3,0,0.5,0,0.8l0,0c0,0.1,0,0.3,0,0.4c0,1.7,0.8,3.5,2.2,5.2
		c2.4,3,6.7,6.1,12.3,9.1c16.8,9.1,45.9,18.1,73.4,23.6c10.3,2.1,20.4,3.6,29.5,4.9c15.8,2.4,31.4,5.7,45.6,11.9v-1.1
		c-14.2-6.2-29.8-9.5-45.5-11.8c-9.1-1.3-19.1-2.8-29.4-4.9c-20.9-4.2-42.7-10.4-59.3-17.1c-8.3-3.4-15.3-6.9-20.2-10.3
		c-2.4-1.7-4.4-3.4-5.6-5c-1.3-1.6-1.9-3.1-1.9-4.6c0-0.1,0-0.2,0-0.3l0,0c0-0.3,0-0.5,0-0.8c0-3.2-1.3-6.4-3.2-9.7
		c-2.9-4.9-7.3-10-11.5-15.6c-4.2-5.6-8.2-11.7-10.3-18.6c-1-3.4-1.6-6.9-1.6-10.6c0-12,5.6-26.2,18-45.9
		c13.7-22,26.1-44.2,26.1-66.6c0-3.1-0.2-6.2-0.7-9.2c-1.7-10.4-6.2-19.5-11.5-29.4c-3.7-7-8.5-11.8-13.9-15.5
		c-5.3-3.7-11.2-6.2-17.2-8.6c-8.4-3.4-16.5-6.7-23.8-11.9c-7.2-5.2-13.5-12.2-18.2-23.1c-10.3-24.1-12.7-50.2-13.5-75.8
		c-0.6-21.9-1.4-44.7-4.3-65.2c-2.9-20.6-8.1-38.9-17.6-52.1c-4.8-6.7-10-11.9-15.7-16.1c-9.6-7.1-20.7-11.2-32.2-13.2
		c-4.9-0.8-10-1.2-15.2-1.2c-14.3,0-30,2.8-48.5,6.4c-31,6-69.5,19.2-100.8,32.1c-5.8,2.4-11.2,4.7-16.3,7.1
		c-8.6,4.1-16.1,8.4-24,11.8c-7.9,3.4-16.1,5.9-25.9,6.5c-1.2,0.1-2.5,0.1-3.7,0.1c-16.3,0-34.5-5.6-52.6-7.8
		c-5.1-0.6-10.3-1-15.6-1c-4.6,0-9.3,0.3-14,0.8c-30.3,3.6-56.4,18.6-77.5,38.5c0.3-1.7,0.5-3.4,0.7-5.1
		c20.7-20.7,46.6-36.5,77.1-40.1c4.5-0.5,9-0.8,13.4-0.8c5.4,0,10.7,0.4,16,1.1c19,2.5,38.1,9,55.4,9c0.3,0,0.6,0,0.9,0
		c20-0.3,33.6-8.1,50.8-15.3c5.1-2.1,10.6-4.2,16.4-6.4c31.7-12,70.1-25.6,100.6-32.9c22.4-5.4,40.4-9.9,56.9-9.9
		c2.2,0,4.4,0.1,6.6,0.3c11.5,0.9,23,3.9,33,10.1c6,3.7,11.6,8.4,16.8,14.7c10.3,12.4,16.3,30.6,20,51.2c3.7,20.6,4.9,43.7,5.9,65.9
		c1.1,25.9,3.8,52.6,14.3,77.1c4.7,11.1,11.1,18.5,18.5,24c7.3,5.5,15.6,9.2,24.1,12.8c6,2.5,11.9,5.2,17.2,8.8
		c5.3,3.6,10.2,8.3,14,15c5.7,9.8,10.5,18.8,12.3,29.1c0.6,3.4,0.9,6.7,0.9,10.1c0,22.1-12.4,44.3-26.4,65.8
		c-14.1,21.6-20.9,36.5-20.9,49.8c0,2.5,0.3,5,0.8,7.5c1.9,9.4,7.2,17.5,12,24.9c4.8,7.4,9.1,14.2,9,20.6c0,0.3,0,0.7,0,1l0,0
		c0,0.2,0,0.3,0,0.5c0,1.8,0.7,3.7,2.1,5.6c2.3,3.3,6.5,6.5,12,9.8c16.4,9.8,44.9,19.2,72,24.8c10.3,2.1,20.4,3.6,29.5,4.9
		c15.6,2.3,31,5.4,45,11.4v-1.1c-14-6-29.4-9.1-44.8-11.3c-9.1-1.3-19.2-2.8-29.4-4.9c-20.6-4.2-42-10.7-58.2-17.9
		c-8.1-3.6-14.9-7.3-19.7-10.9c-2.4-1.8-4.2-3.6-5.5-5.4c-1.3-1.7-1.9-3.4-1.9-5c0-0.1,0-0.3,0-0.4l0,0c0-0.4,0-0.7,0-1.1
		c0-6.9-4.4-13.7-9.2-21.2c-4.8-7.4-10-15.4-11.9-24.6c-0.5-2.4-0.7-4.8-0.7-7.3c0-12.9,6.7-27.6,20.8-49.2
		c14.1-21.6,26.6-43.9,26.6-66.4c0-3.4-0.3-6.9-0.9-10.3c-1.9-10.5-6.8-19.6-12.5-29.4c-4-6.8-8.9-11.6-14.3-15.3
		c-5.4-3.7-11.4-6.3-17.4-8.9c-8.5-3.6-16.6-7.2-23.9-12.6c-7.2-5.4-13.5-12.7-18.2-23.6c-10.4-24.3-13.1-50.9-14.2-76.8
		c-0.9-22.2-2.2-45.3-5.9-66c-3.7-20.7-9.7-39-20.2-51.7c-5.3-6.4-11-11.2-17-14.9c-10.2-6.3-21.8-9.3-33.4-10.2
		c-2.2-0.2-4.4-0.3-6.7-0.3c-16.7,0-34.8,4.6-57.2,10c-30.6,7.3-69.1,20.9-100.8,32.9c-5.8,2.2-11.4,4.3-16.5,6.4
		c-17.3,7.3-30.7,15-50.4,15.3c-0.3,0-0.6,0-0.9,0c-17,0-36.2-6.5-55.3-9c-5.3-0.7-10.7-1.1-16.1-1.1c-4.5,0-8.9,0.3-13.5,0.8
		c-30.3,3.6-56.1,19.1-76.8,39.5c0.2-1.6,0.4-3.3,0.6-4.9c20.2-21.3,45.9-37.7,76.5-41.4c4.3-0.5,8.6-0.8,12.9-0.8
		c5.6,0,11.1,0.4,16.5,1.2c19.3,2.7,38.7,9.8,56.2,10.3c0.8,0,1.6,0,2.4,0c18.7,0,32.1-6.3,48.9-12.4c5.2-1.9,10.8-3.8,16.7-5.8
		c32-11.1,70.5-25.1,100.7-33.7c25.5-7.3,45-14,63.7-14.2c0.3,0,0.7,0,1,0c11.4,0,22.9,2,33.2,7.2c6.3,3.2,12.4,7.5,18.1,13.6
		c11.3,11.9,18.2,30,22.5,50.8c4.4,20.8,6.2,44.2,7.5,66.7c1.5,26.2,4.4,53.3,15,78.1c4.7,11.1,11.1,18.7,18.5,24.4
		c7.3,5.8,15.6,9.7,24.2,13.5c12.1,5.4,23.9,10.8,32,23.9c6,9.7,11.2,18.6,13.3,29.1c0.8,3.7,1.1,7.4,1.1,11.1
		c0,22.1-12.6,44.5-26.9,65.7c-7.9,11.7-13.9,21.3-18,29.9c-4,8.5-6.1,16-6.1,23.2c0,1.3,0.1,2.7,0.2,4c1,9.3,5.3,17.6,9.4,25.4
		c4.1,7.8,7.8,15,7.8,22.1c0,0.4,0,0.9,0,1.3l0,0c0,0.2,0,0.4,0,0.5c0,2,0.7,4,2,6c2.3,3.5,6.3,7,11.6,10.5
		c16,10.4,43.8,20.3,70.6,26c10.2,2.2,20.3,3.6,29.4,4.9c15.4,2.2,30.6,5.1,44.4,10.9V601c-13.8-5.8-29-8.6-44.2-10.8
		c-9.1-1.3-19.2-2.8-29.4-4.9c-20.4-4.3-41.3-11.1-57.1-18.6c-7.9-3.8-14.5-7.7-19.2-11.6c-2.3-2-4.1-3.9-5.3-5.8
		c-1.2-1.9-1.8-3.7-1.8-5.4c0-0.2,0-0.3,0-0.5l0,0c0-0.5,0-0.9,0-1.4c0-7.4-3.9-14.7-7.9-22.5c-4.1-7.8-8.3-16-9.3-25.1
		c-0.1-1.3-0.2-2.6-0.2-3.9c0-7.1,2-14.3,6-22.8c4-8.4,10-18.1,17.9-29.7c14.4-21.2,27.1-43.7,27.1-66.2c0-3.8-0.4-7.5-1.1-11.3
		c-2.2-10.7-7.4-19.7-13.5-29.4c-8.3-13.4-20.4-18.9-32.5-24.3c-8.6-3.8-16.8-7.7-24-13.3c-7.2-5.7-13.5-13.1-18.2-24.1
		c-10.5-24.6-13.4-51.5-14.9-77.7c-1.3-22.5-3.1-46-7.5-66.9c-4.4-20.8-11.3-39.1-22.8-51.2c-5.8-6.2-11.9-10.5-18.4-13.8
		c-10.5-5.3-22.1-7.3-33.6-7.3c-0.3,0-0.7,0-1,0c-18.9,0.2-38.5,7-63.9,14.2c-30.2,8.6-68.7,22.7-100.7,33.7
		c-5.9,2-11.5,3.9-16.7,5.8c-16.9,6.2-30.2,12.3-48.6,12.3c-0.8,0-1.6,0-2.4,0c-17.3-0.5-36.6-7.5-56.1-10.3
		c-5.5-0.8-11.1-1.2-16.7-1.2c-4.3,0-8.6,0.2-13,0.8c-30.4,3.6-56,19.7-76.2,40.7c0-0.1,0-0.2,0-0.3c0.1-1.5,0.3-3,0.4-4.5
		c19.8-22,45.3-39.1,76.1-42.8c4.2-0.5,8.4-0.7,12.5-0.7c5.7,0,11.4,0.5,17,1.3c19.3,2.9,38.5,10.3,56,11.6c2.2,0.2,4.4,0.2,6.5,0.2
		c16.6,0,29.6-4.7,45.4-9.6c5.3-1.6,10.9-3.3,16.9-5.2c32.4-10.2,70.9-24.7,100.7-34.5c25.6-8.4,44.8-16.9,63.8-18.7
		c3.1-0.3,6.1-0.5,9.2-0.5c8.9,0,17.9,1.4,26.2,4.7c6.7,2.7,13.2,6.6,19.4,12.4c12.2,11.4,20,29.4,25.1,50.3
		c5.1,20.9,7.5,44.7,9.1,67.5c1.9,26.5,5,54,15.7,79c4.8,11.1,11.1,18.9,18.4,24.9c7.3,6,15.6,10.2,24.3,14.2
		c12.2,5.6,24.3,11.2,32.8,24c6.4,9.6,11.9,18.5,14.3,29.1c0.9,4,1.3,8,1.3,12c0,22.2-12.7,44.8-27.4,65.6
		c-8.9,12.6-15.8,22.7-20.4,31.7c-4.7,9-7.1,16.9-7.1,24.9c0,0.1,0,0.2,0,0.4c0.1,9.2,3.5,17.7,6.8,25.9c3.3,8.1,6.6,15.9,6.6,23.5
		c0,0.6,0,1.2-0.1,1.7c0,0.2,0,0.4,0,0.6c0,4.2,2.7,8.5,7.3,12.7c6.9,6.4,18.1,12.7,31.4,18.2c13.3,5.6,28.6,10.4,43.8,13.7
		c10.2,2.2,20.2,3.7,29.4,4.9c15.1,2.1,30.1,4.8,43.8,10.4v-1.1c-13.7-5.6-28.6-8.2-43.6-10.3c-9.2-1.3-19.2-2.7-29.3-4.9
		c-20.1-4.4-40.6-11.4-56.1-19.4c-7.7-4-14.2-8.1-18.6-12.3c-2.2-2.1-4-4.1-5.2-6.2c-1.2-2-1.8-4-1.8-5.8c0-0.2,0-0.4,0-0.6
		c0-0.6,0.1-1.2,0.1-1.8c0-7.9-3.3-15.7-6.6-23.8c-3.3-8.1-6.6-16.5-6.7-25.5c0-0.1,0-0.2,0-0.3c0-7.8,2.4-15.5,7-24.4
		c4.6-8.9,11.5-19,20.4-31.6c14.7-20.8,27.6-43.6,27.6-66.1c0-4.1-0.4-8.2-1.3-12.2c-2.4-10.8-8-19.8-14.4-29.5
		c-8.7-13.1-21-18.8-33.2-24.4c-8.7-4-16.9-8.1-24.1-14c-7.2-5.9-13.5-13.5-18.2-24.5c-10.7-24.9-13.8-52.2-15.6-78.7
		c-1.6-22.9-4-46.7-9.1-67.7c-5.1-21-12.9-39.2-25.4-50.8c-6.3-5.9-12.9-9.8-19.7-12.6c-8.5-3.4-17.6-4.8-26.6-4.8
		c-3.1,0-6.2,0.2-9.3,0.5c-19.3,1.9-38.5,10.4-64.1,18.8c-29.8,9.8-68.3,24.4-100.7,34.5c-6,1.9-11.6,3.5-16.9,5.2
		c-15.8,4.9-28.6,9.6-45.1,9.6c-2.1,0-4.2-0.1-6.4-0.2c-17.3-1.2-36.5-8.6-56-11.6c-5.6-0.9-11.4-1.3-17.2-1.3
		c-4.2,0-8.4,0.2-12.6,0.8c-30.6,3.7-56.1,20.5-75.8,42.1c0.1-1.5,0.2-3,0.3-4.5c19.3-22.8,44.8-40.6,75.8-44.3
		c4.1-0.5,8.1-0.7,12.1-0.7c5.9,0,11.7,0.5,17.5,1.5c19.3,3.1,38.4,10.8,55.9,12.8c3.9,0.5,7.7,0.7,11.3,0.7
		c14.5,0,26.7-3.3,41.1-7.1c5.3-1.4,11.1-2.8,17.1-4.5c32.8-9.2,71.3-24.3,100.7-35.4c25.6-9.6,44.7-19.8,64-23.3
		c5.4-1,10.9-1.6,16.5-1.6c6.8,0,13.7,0.9,20.2,2.9c7.1,2.2,14,5.7,20.7,11.2c13.2,10.8,21.8,28.8,27.6,49.8
		c5.8,21,8.8,45.1,10.7,68.3c2.2,26.8,5.5,54.6,16.4,80c4.8,11.2,11.1,19.1,18.4,25.4c7.3,6.2,15.6,10.7,24.4,14.9
		c12.3,5.9,24.6,11.6,33.5,24.1c6.8,9.5,12.6,18.4,15.3,29.1c1,4.3,1.5,8.6,1.5,12.9c0,22.3-12.9,45.1-27.9,65.5
		c-9.2,12.6-16.7,22.6-22,31.5c-5.3,9-8.5,16.9-9.2,25.2c-0.1,1.2-0.1,2.4-0.1,3.5c0,8.4,2.4,16.5,4.8,24.4
		c2.4,7.9,4.8,15.6,4.8,23.1c0,0.8,0,1.5-0.1,2.3c0,0.2,0,0.5,0,0.7c0,4.5,2.6,9,7.1,13.5c6.7,6.7,17.6,13.4,30.6,19.2
		c13,5.8,28,10.8,43,14.1c10.1,2.3,20.2,3.7,29.4,5c14.9,2,29.7,4.5,43.2,9.9v-1.1c-13.5-5.3-28.2-7.8-43-9.9
		c-9.2-1.2-19.3-2.7-29.3-4.9c-19.9-4.4-39.9-11.8-55-20.1c-7.5-4.2-13.8-8.6-18.1-13c-4.4-4.4-6.8-8.8-6.8-12.8c0-0.2,0-0.5,0-0.7
		c0.1-0.8,0.1-1.6,0.1-2.4c0-7.8-2.4-15.5-4.8-23.4c-2.4-7.9-4.8-15.9-4.8-24.1c0-1.1,0-2.3,0.1-3.4c0.7-8.1,3.8-15.9,9.1-24.8
		c5.3-8.9,12.7-18.9,21.9-31.4c15.1-20.5,28.1-43.4,28.1-66.1c0-4.4-0.5-8.8-1.6-13.1c-2.7-11-8.7-19.9-15.4-29.5
		c-9.1-12.8-21.6-18.6-33.9-24.5c-8.7-4.2-17-8.6-24.2-14.8c-7.2-6.1-13.4-14-18.2-25c-10.8-25.2-14.1-52.9-16.3-79.7
		c-1.9-23.2-4.9-47.3-10.7-68.5c-5.8-21.1-14.5-39.3-28-50.3c-6.8-5.6-13.8-9.2-21-11.4c-6.7-2.1-13.6-3-20.5-3
		c-5.6,0-11.2,0.6-16.6,1.6c-19.6,3.6-38.6,13.7-64.2,23.3C537.4,70.6,499,85.7,466.3,94.9c-6,1.7-11.8,3.1-17.1,4.5
		c-14.4,3.8-26.5,7-40.9,7c-3.6,0-7.3-0.2-11.2-0.6c-17.3-2-36.4-9.7-55.8-12.8c-5.8-0.9-11.7-1.5-17.6-1.5c-4,0-8.1,0.2-12.2,0.7
		c-30.9,3.7-56.2,21.3-75.6,43.7c0.1-1.4,0.2-2.9,0.3-4.4c6.7-8.4,14.3-16.2,22.6-22.9c15.1-12.1,32.8-20.7,53-23.2
		c4-0.5,7.9-0.7,11.7-0.7c6.1,0,12,0.6,17.9,1.6c19.2,3.3,38.2,11.4,55.7,14.1c6,0.9,11.6,1.4,17,1.4c12.2,0,23.3-2.1,36-4.8
		c5.4-1.1,11.2-2.4,17.3-3.9C500.5,84.9,539,69.2,568.1,57c25.7-10.8,44.5-22.6,64.1-27.8c7.4-2,15.2-3.2,23-3.2
		c5,0,10.1,0.5,15,1.7c7.5,1.7,14.8,4.8,22,10.1c14.2,10.3,23.7,28.2,30.2,49.4c6.5,21.2,10,45.6,12.3,69.1
		c2.6,27.1,6.1,55.3,17.1,80.9c9.6,22.4,25.2,32.6,42.9,41.4c12.4,6.2,25,11.9,34.3,24.3c7.1,9.4,13.3,18.2,16.2,29.2
		c1.2,4.5,1.8,9.1,1.8,13.8c0,11.9-3.7,24-9.5,35.7c-0.4,0.8-0.8,1.5-1.2,2.3c-4.9,9.5-11.1,18.7-17.7,27.4
		c-9.5,12.5-17.5,22.3-23.4,31.2c-6,8.9-9.9,16.8-11.5,25.4c-0.5,2.7-0.7,5.4-0.7,8.1c0,15,6.3,29.8,6.3,44.3c0,1.1,0,2.1-0.1,3.2
		c0,0.3,0,0.6,0,0.9c0,4.7,2.5,9.6,6.9,14.3c6.5,7.1,17.1,14.1,29.8,20.2c12.7,6.1,27.5,11.2,42.3,14.6c10.1,2.3,20.1,3.8,29.4,5
		c14.7,2,29.3,4.3,42.5,9.5v-1.1c-13.3-5.1-27.8-7.4-42.4-9.4c-9.3-1.2-19.3-2.7-29.3-5c-19.7-4.5-39.2-12.1-53.9-20.8
		c-7.3-4.4-13.4-9-17.6-13.6c-4.2-4.6-6.6-9.3-6.6-13.6c0-0.3,0-0.5,0-0.8c0.1-1.1,0.1-2.2,0.1-3.2c0-14.8-6.3-29.5-6.3-44.3
		c0-2.6,0.2-5.3,0.7-7.9c1.5-8.4,5.4-16.2,11.3-25c5.9-8.8,13.9-18.7,23.4-31.2c4.6-6,8.9-12.2,12.8-18.6c-0.3,0.8-0.6,1.6-0.9,2.4
		c-0.6,1.5-1.2,3-1.8,4.6c-0.3,0.8-0.7,1.6-1,2.3c-9.8,12.3-18.2,22-24.8,30.8c-6.6,8.8-11.4,16.8-13.7,25.6
		c-1.2,4.6-1.7,9.3-1.7,14c0,13,3.4,26.2,3.4,39.3c0,1.5,0,3-0.1,4.5c0,0.3,0,0.7,0,1c0,5,2.4,10.1,6.6,15.1
		c6.3,7.5,16.6,14.8,29,21.1c12.4,6.3,26.9,11.6,41.5,15.1c10,2.4,20,3.8,29.4,5c14.5,1.9,28.9,4.1,41.9,9v-1.1
		c-13.1-4.9-27.4-7.1-41.8-8.9c-9.3-1.2-19.3-2.6-29.3-5c-19.4-4.6-38.6-12.5-52.8-21.6c-7.1-4.6-13-9.4-17.1-14.3
		c-4.1-4.9-6.4-9.8-6.4-14.4c0-0.3,0-0.6,0-0.9c0.1-1.5,0.2-3.1,0.2-4.6c0-13.2-3.4-26.5-3.4-39.3c0-4.6,0.4-9.2,1.7-13.8
		c2.3-8.6,7-16.4,13.6-25.2c6.1-8.1,13.7-17,22.6-28c-0.1,0.2-0.1,0.3-0.2,0.5c-0.1,0.3-0.2,0.5-0.4,0.8c-0.2,0.4-0.5,0.8-0.8,1.2
		c-0.3,0.4-0.6,0.9-0.9,1.4c-4.6,5.2-8.8,10-12.5,14.5c-7.2,8.8-12.8,16.7-16,25.7c-2.6,7.3-3.3,14.8-3.3,22.5
		c0,10,1.2,20.2,1.2,30.5c0,2.4-0.1,4.7-0.2,7.1c0,0.4,0,0.8,0,1.2c0,5.2,2.3,10.6,6.4,15.8c12.2,15.7,40,30.6,69,37.6
		c10,2.4,20,3.8,29.4,5c14.3,1.8,28.4,3.8,41.3,8.6v-1.1c-12.9-4.7-27.1-6.7-41.2-8.5c-9.4-1.2-19.4-2.6-29.2-5
		c-19.2-4.6-37.9-12.8-51.7-22.3c-6.9-4.7-12.7-9.8-16.7-15c-4-5.1-6.2-10.3-6.2-15.2c0-0.4,0-0.7,0-1.1c0.2-2.4,0.2-4.8,0.2-7.2
		c0-10.3-1.2-20.6-1.2-30.5c0-7.6,0.7-15,3.3-22.2c2.4-6.6,6.1-12.8,10.8-19.1c-2.1,3.2-3.9,6.4-5.4,9.9
		c-5.5,12.3-5.8,25.9-5.8,39.8c0,2.1,0,4.3,0,6.4c0,5.4-0.1,10.7-0.4,16.1c0,0.4,0,0.9,0,1.3c0,5.5,2.3,11.1,6.2,16.6
		c11.8,16.5,38.8,31.9,67.4,39c9.9,2.5,19.9,3.9,29.3,5c14,1.7,28,3.6,40.7,8.1v-1.1c-12.7-4.5-26.7-6.3-40.6-8
		c-9.4-1.1-19.4-2.5-29.2-5c-18.9-4.7-37.2-13.1-50.7-23c-6.7-4.9-12.3-10.2-16.2-15.6c-3.9-5.4-6-10.8-6-16c0-0.4,0-0.8,0-1.3
		c0.4-5.4,0.4-10.8,0.4-16.2c0-2.1,0-4.3,0-6.4c0-13.9,0.4-27.3,5.7-39.4c1.8-4.1,4.1-8,6.8-11.8c-0.5,0.8-0.9,1.6-1.4,2.5
		c-10,19-8.6,41.8-10.1,64.6c0,0.5-0.1,1-0.1,1.5c0,5.8,2.2,11.6,6,17.4c11.4,17.2,37.6,33.2,65.8,40.4c9.8,2.5,19.9,3.9,29.3,5
		c13.8,1.7,27.6,3.4,40.1,7.7v-1.1c-12.6-4.3-26.3-5.9-40-7.6c-9.5-1.1-19.4-2.5-29.2-5c-18.7-4.8-36.5-13.4-49.6-23.7
		c-6.6-5.1-11.9-10.7-15.7-16.3c-3.7-5.6-5.8-11.3-5.8-16.8c0-0.5,0-1,0-1.5c1.5-22.9,0.2-45.5,10-64.2c1-1.9,2.1-3.8,3.3-5.6
		c-9.6,18.4-10.4,40.6-11.9,63c0,0.6-0.1,1.2-0.1,1.7c0,12,8.3,24.5,21.1,35.3c12.9,10.7,30.3,19.7,48.9,24.6c9.8,2.6,19.8,4,29.3,5
		c13.6,1.6,27.1,3.1,39.5,7.2v-1.1c-12.4-4.1-25.9-5.6-39.4-7.2c-9.5-1.1-19.5-2.5-29.2-5c-18.4-4.8-35.8-13.8-48.5-24.4
		c-12.7-10.6-20.8-23-20.8-34.5c0-0.6,0-1.1,0.1-1.7c1.6-23.8,2.4-47.1,13.6-65.9c-8.5,17.5-10.8,38.1-12.2,59.1
		c0,0.7-0.1,1.3-0.1,2c0,12.5,8,25.6,20.4,36.7c12.5,11.1,29.5,20.4,47.8,25.3c9.7,2.6,19.7,4,29.3,5.1c13.4,1.5,26.7,2.9,38.9,6.8
		v-1c-12.2-3.9-25.5-5.3-38.8-6.8c-9.5-1.1-19.5-2.4-29.1-5c-18.2-4.9-35.1-14.1-47.4-25.1c-12.4-11-20.1-23.8-20.1-35.9
		c0-0.6,0-1.3,0.1-1.9c1.5-21.5,3.8-42.5,12.7-60.1c-7.1,16.1-10,34.5-11.3,53.3c-0.1,0.7-0.1,1.5-0.1,2.2
		c0,13.1,7.6,26.6,19.7,38.1c12.1,11.5,28.7,21,46.8,26c9.7,2.7,19.7,4,29.3,5.1c13.1,1.5,26.3,2.7,38.3,6.4v-1
		c-12-3.6-25.1-4.9-38.1-6.4c-9.6-1-19.5-2.4-29.1-5c-17.9-5-34.4-14.4-46.4-25.8c-12-11.4-19.4-24.7-19.4-37.3c0-0.7,0-1.4,0.1-2.1
		c1.2-17.7,3.9-35,10.1-50.2c-5,13.5-7.7,28.3-8.7,43.5c-0.1,0.8-0.1,1.7-0.1,2.5c0,13.6,7.3,27.6,19,39.4
		c11.7,11.9,27.9,21.6,45.7,26.7c9.6,2.7,19.6,4.1,29.3,5.1c12.9,1.4,25.8,2.6,37.6,6v-1c-11.9-3.4-24.7-4.6-37.5-6
		c-9.6-1-19.6-2.3-29.1-5.1c-17.7-5-33.7-14.7-45.3-26.4c-11.6-11.7-18.7-25.5-18.7-38.7c0-0.8,0-1.6,0.1-2.4
		c0.9-12.8,2.9-25.4,6.6-37.2c-2.8,9.8-4.5,20-5.2,30.4c-0.1,0.9-0.1,1.9-0.1,2.8c0,14.1,7,28.5,18.3,40.8
		c11.3,12.2,27.1,22.2,44.7,27.3c9.6,2.8,19.5,4.1,29.3,5.1c12.7,1.3,25.4,2.4,37,5.6v-1c-11.7-3.2-24.3-4.3-36.9-5.6
		c-9.7-1-19.6-2.3-29.1-5.1c-17.4-5.1-33-15-44.2-27.1c-11.2-12.1-18-26.4-18-40.1c0-0.9,0-1.8,0.1-2.8c0.7-9.7,2.2-19.2,4.6-28.3
		c-1.6,7-2.7,14.3-3.2,21.6c-0.1,1.1-0.1,2.1-0.1,3.2c0,14.6,6.6,29.5,17.6,42.1c11,12.6,26.2,22.8,43.6,28
		c9.5,2.8,19.5,4.1,29.2,5.1c12.5,1.3,25,2.2,36.4,5.3v-1c-11.5-3.1-24-4-36.3-5.2c-9.7-1-19.6-2.3-29-5.1
		c-17.2-5.1-32.3-15.3-43.1-27.7c-10.8-12.4-17.4-27.2-17.3-41.4c0-1,0-2.1,0.1-3.1c0.5-8.1,1.8-16,3.7-23.7
		c-1.2,5.5-1.9,11.2-2.3,16.9c-0.1,1.2-0.1,2.4-0.1,3.6c0,15.1,6.3,30.5,16.9,43.4c10.6,12.9,25.4,23.4,42.5,28.6
		c9.5,2.9,19.4,4.2,29.2,5.1c11,1.1,22,1.8,32.2,4.1c1.2,0.3,2.4,0.5,3.6,0.8v-1c-1.1-0.3-2.2-0.5-3.4-0.8
		c-10.4-2.2-21.4-3-32.3-4.1c-9.8-0.9-19.7-2.2-29-5.1c-16.9-5.1-31.6-15.5-42-28.3c-10.5-12.8-16.7-28-16.7-42.8
		c0-1.2,0-2.3,0.1-3.5c0.5-7.3,1.6-14.4,3.4-21.4c-1,4.8-1.6,9.7-2,14.7c-0.1,1.3-0.1,2.7-0.1,4c0,31.1,23.9,63.4,57.6,73.9
		c9.4,3,19.4,4.2,29.2,5.1c11,1,22,1.7,32.3,3.9c1,0.2,2,0.4,2.9,0.7v-1c-0.9-0.2-1.8-0.4-2.7-0.6c-10.4-2.2-21.4-2.9-32.4-3.9
		c-9.8-0.9-19.7-2.2-29-5.1c-33.3-10.4-57-42.4-56.9-73c0-1.3,0-2.6,0.1-3.9c0.5-6.7,1.5-13.3,3.1-19.8c-0.8,4.3-1.4,8.6-1.7,13
		c-0.1,1.5-0.2,3-0.2,4.5c0,32.1,22.7,65.1,55.9,75.8c9.4,3,19.3,4.3,29.2,5.2c11,1,22,1.6,32.3,3.7c0.8,0.2,1.5,0.3,2.3,0.5v-1
		c-0.7-0.2-1.4-0.3-2.1-0.4c-10.4-2.1-21.5-2.8-32.4-3.8c-9.9-0.9-19.7-2.1-29-5.1c-32.7-10.5-55.2-43.2-55.2-74.8
		c0-1.5,0-3,0.1-4.4c0.4-6.3,1.4-12.5,2.9-18.6c-0.7,3.9-1.3,7.9-1.5,11.9c-0.1,1.7-0.2,3.4-0.2,5c0,33,21.4,66.8,54.1,77.5
		c9.3,3.1,19.2,4.3,29.2,5.2c11,1,22.1,1.5,32.4,3.6c0.5,0.1,1.1,0.2,1.6,0.3v-1c-0.5-0.1-0.9-0.2-1.4-0.3
		c-10.4-2.1-21.5-2.6-32.5-3.6c-9.9-0.9-19.8-2.1-28.9-5.1c-32.2-10.6-53.4-44-53.4-76.6c0-1.7,0.1-3.3,0.2-5
		c0.4-6,1.4-11.9,2.8-17.7c-0.7,3.6-1.1,7.3-1.4,10.9c-0.1,1.9-0.2,3.8-0.2,5.7c0,33.9,20.2,68.4,52.4,79.3
		c14.8,5,31.4,5.1,47.2,6.6c5.2,0.5,10.4,1.1,15.3,2.2v-1c-4.9-1-10.1-1.6-15.2-2.1c-15.8-1.5-32.3-1.6-46.9-6.6
		c-31.6-10.6-51.7-44.8-51.7-78.3c0-1.9,0.1-3.7,0.2-5.6c0.3-5,1.1-10,2.2-14.9c4.9-5.1,10.4-10.4,16.2-16.3
		c4.6-4.3,9.5-8.9,14.6-13.9c4.3-3.8,8.8-7.9,13.3-12.4c4.2-3.6,8.4-7.4,12.7-11.6c4.1-3.4,8.2-7.1,12.3-11.1
		c3.8-3.2,7.7-6.6,11.5-10.2c0.1-0.1,0.3-0.3,0.4-0.4c3.2-2.6,6.4-5.4,9.5-8.3c0.8-0.7,1.6-1.5,2.3-2.2c2.6-2.1,5.1-4.3,7.6-6.5
		c1.3-1.2,2.6-2.4,3.9-3.7c2-1.6,4.1-3.3,6-5.1c0.3-0.3,0.6-0.6,1-0.9v-4.2c-1,0.7-2.1,1.3-3.1,2c0.8-1.2,1.7-2.5,2.4-3.7
		c0.2-0.1,0.4-0.3,0.7-0.4V297c-0.4,0.7-0.9,1.5-1.4,2.2c-2,1.2-4.1,2.3-6.2,3.4c3.2-5.9,5.8-12.1,7.5-18.3v-4
		c-1.8,7.9-5,15.7-9.2,23.2c-2.2,1.2-4.4,2.4-6.6,3.6c4.9-10.4,7.9-21.3,7.9-32c0-6.8-1.2-13.6-3.9-20.1
		c-5-12.3-14.1-21.1-24.3-29.7c-12.4-10.4-27.3-17-40.5-25.2c-19.2-11.9-33.6-27.6-43.3-50.2c-11.9-27.7-17.3-58.9-22.7-88.4
		c-3.9-20.7-9.8-42.2-18.2-61.5h-1.1c8.5,19.3,14.4,40.9,18.4,61.6c5.5,29.4,10.8,60.7,22.8,88.6c9.8,22.8,24.4,38.7,43.7,50.7
		c13.3,8.2,28.1,14.8,40.3,25.1c10.1,8.5,19.1,17.2,24,29.3c2.6,6.4,3.8,13,3.8,19.7c0,11-3.2,22.2-8.4,32.8
		c-2.4,1.3-4.7,2.5-7.1,3.8c3.8-9.1,6-18.5,6-27.7c0-6.6-1.1-13.1-3.6-19.4c-4.8-12.2-13.5-21-23.3-29.6
		c-12-10.7-26.7-17.2-39.7-25.1c-19-11.5-33.5-26.5-43.2-49.1c-11.8-27.4-16.8-58.3-22-87.4C785.3,48.3,778.1,22,767,0h-1.1
		c11.2,21.9,18.4,48.3,22.9,73.5c5.2,29.1,10.3,60.1,22.1,87.6c9.8,22.8,24.5,37.9,43.6,49.5c13.1,8,27.7,14.5,39.6,25
		c9.7,8.7,18.4,17.4,23,29.3c2.4,6.2,3.5,12.6,3.5,19c0,9.5-2.4,19.2-6.4,28.5c-2.5,1.4-5.1,2.7-7.6,4.1c2.8-7.8,4.4-15.8,4.4-23.7
		c0-6.3-1-12.6-3.3-18.7c-4.5-12-12.9-20.8-22.3-29.6c-11.7-10.9-26-17.3-39-25c-18.8-11.2-33.4-25.4-43.1-47.9
		c-11.7-27.1-16.5-57.6-21.3-86.5c-4.2-25.3-11.1-52-22-74.1c-1.9-3.8-3.9-7.5-6-11h-1.2c2.2,3.6,4.3,7.5,6.2,11.4
		c10.8,22,17.7,48.6,21.9,73.8c4.8,28.8,9.7,59.4,21.4,86.7c9.7,22.7,24.6,37.2,43.5,48.4c13,7.7,27.3,14.1,38.8,24.9
		c9.4,8.8,17.6,17.5,22.1,29.2c2.2,6,3.3,12.1,3.3,18.3c0,8.1-1.8,16.4-4.8,24.5c-2.7,1.5-5.4,3-8,4.6c2.1-6.7,3.2-13.5,3.2-20.2
		c0-6.1-1-12.1-3.1-18c-4.3-11.9-12.3-20.7-21.3-29.6c-11.3-11.2-25.4-17.5-38.3-24.9c-18.6-10.8-33.4-24.3-43-46.7
		c-11.5-26.9-16.2-56.9-20.6-85.5c-3.9-25-10.2-51.3-20.4-73.3C749.9,15,745.3,7,740.1,0h-1.3c5.4,7.1,10.1,15.2,14.2,24
		c10.1,21.9,16.4,48.1,20.3,73c4.4,28.6,9.1,58.7,20.7,85.7c9.7,22.7,24.7,36.4,43.4,47.2c12.9,7.5,26.9,13.8,38.1,24.8
		c9,8.9,16.9,17.6,21.1,29.2c2.1,5.7,3,11.7,3,17.6c0,7-1.3,14-3.5,21c-2.8,1.7-5.6,3.4-8.4,5.2c1.6-5.8,2.4-11.6,2.4-17.4
		c0-5.8-0.9-11.6-2.8-17.2c-4-11.7-11.7-20.6-20.4-29.6c-10.9-11.5-24.8-17.7-37.6-24.9c-18.4-10.4-33.3-23.2-42.9-45.6
		c-11.4-26.6-15.8-56.3-19.9-84.5c-3.6-24.7-9.3-50.6-18.7-72.5C741.6,21.9,733.8,9.3,724,0h-1.4c10,9.3,18,22,24.3,36.7
		c9.4,21.7,15.1,47.6,18.7,72.3c4.1,28.3,8.5,58,20,84.8c9.7,22.6,24.8,35.7,43.3,46.1c12.8,7.2,26.6,13.4,37.3,24.7
		c8.6,9,16.2,17.7,20.1,29.2c1.9,5.5,2.7,11.2,2.7,16.9c0,6-1,12.2-2.7,18.2c-2.7,1.8-5.3,3.6-7.9,5.5c-0.3,0.2-0.6,0.4-0.9,0.7
		c1.3-5.2,2-10.4,2-15.6c0-5.5-0.8-11-2.5-16.4c-3.7-11.6-11.1-20.4-19.4-29.6c-10.6-11.7-24.1-17.9-36.8-24.8
		c-18.3-10-33.2-22.1-42.8-44.4c-11.3-26.3-15.5-55.6-19.2-83.6c-3.2-24.4-8.4-50-17.1-71.7C733,27.2,720.7,9.3,703.4,0.4
		c-0.3-0.1-0.5-0.3-0.8-0.4h-2.3c0.9,0.4,1.8,0.8,2.6,1.3c17,8.7,29.2,26.4,37.8,48c8.7,21.6,13.8,47.1,17.1,71.5
		c3.7,28,7.9,57.4,19.2,83.8c9.7,22.6,24.9,34.9,43.2,44.9c12.7,6.9,26.2,13,36.6,24.6c8.2,9.1,15.5,17.9,19.2,29.2
		c1.7,5.3,2.5,10.7,2.5,16.1c0,5.5-0.8,11-2.2,16.6c-3.2,2.4-6.2,5-9.2,7.7c1.2-5.1,1.9-10.3,1.9-15.5c0-5.3-0.7-10.5-2.3-15.7
		c-3.5-11.4-10.5-20.3-18.4-29.5c-10.2-12-23.5-18-36.1-24.7c-18.1-9.6-33.1-21-42.7-43.2c-11.2-26-15.1-54.9-18.5-82.6
		c-2.9-24.1-7.5-49.3-15.5-70.9c-8-21.6-19.3-39.5-35.7-49c-8.3-4.8-16.6-7.1-25-7.9c-2-0.2-4.1-0.3-6.1-0.3
		c-11.9,0-23.9,3.1-34.8,7.7C613.4,20.6,595,35.7,569.4,49c-28.3,14.7-66.7,31.3-100.5,37.8c-6.2,1.2-12.1,2-17.7,2.6
		c-7.7,0.9-14.8,1.4-21.9,1.4c-10.1,0-20.2-1.1-31.7-3.9c-17.4-4.2-36.1-13-55.5-16.7c-6.2-1.2-12.4-1.9-18.8-1.9
		c-3.7,0-7.4,0.2-11.2,0.7c-20.5,2.5-38.2,11.7-53,24.6c-8.3,7.2-15.6,15.5-22.1,24.5c0.1-1.2,0.1-2.5,0.2-3.7
		c6.6-10,14.3-19.3,23-27.2c14.5-13.1,31.9-22.5,52.3-25c3.7-0.4,7.3-0.7,10.8-0.7c6.5,0,12.8,0.7,19,2c19.2,3.8,37.8,13,55.3,18
		c15,4.3,27.7,6,41.3,6c4.3,0,8.7-0.2,13.3-0.5c5.7-0.4,11.7-1,18-2c34.3-5.6,72.7-22.9,100.8-38.7c25.7-14.6,44-31.2,64.6-41.4
		c3.7-1.8,7.5-3.4,11.4-4.9h-2.8c-3.1,1.2-6.1,2.5-9,4c-20.8,10.3-39,27-64.6,41.4c-28,15.8-66.3,33.1-100.4,38.6
		c-6.3,1-12.3,1.6-17.9,2c-4.6,0.3-8.9,0.5-13.2,0.5c-13.5,0-26.1-1.7-41-5.9c-17.4-5-36-14.1-55.4-18c-6.3-1.3-12.7-2-19.2-2
		c-3.6,0-7.2,0.2-10.9,0.7c-20.6,2.5-38.2,12-52.8,25.2c-8.4,7.6-15.8,16.5-22.3,26c0.1-1.2,0.1-2.4,0.2-3.5
		c6.5-10.6,14.3-20.5,23.2-28.9c14.3-13.5,31.6-23.1,52-25.6c3.6-0.4,7.1-0.6,10.6-0.6c6.6,0,13,0.7,19.3,2.1
		c19.2,4,37.7,13.5,55.2,19.3c18.2,6,33.4,8.5,50.8,8.5c1.4,0,2.9,0,4.3,0c5.8-0.1,11.8-0.5,18.3-1.4c34.7-4.7,73-22.5,100.8-39.6
		C595.1,28.3,612.3,11.8,631,0h-1.9c-18.3,11.8-35.2,27.8-58,41.9c-27.7,17-66,34.8-100.4,39.4c-6.4,0.8-12.4,1.2-18.1,1.3
		c-1.4,0-2.9,0-4.3,0c-17.3,0-32.3-2.5-50.5-8.5c-17.4-5.7-36-15.2-55.3-19.3c-6.4-1.4-12.9-2.1-19.5-2.1c-3.5,0-7.1,0.2-10.7,0.7
		c-20.7,2.5-38.2,12.3-52.6,25.8c-8.6,8.1-16,17.5-22.4,27.6c0-1.1,0.1-2.2,0.2-3.3c6.5-11.2,14.2-21.8,23.3-30.7
		c14.1-13.8,31.4-23.6,51.8-26.2c3.5-0.4,6.9-0.6,10.3-0.6c6.7,0,13.2,0.8,19.6,2.2c19.1,4.2,37.6,14,55,20.5
		c19.6,7.3,36.1,11,55.6,11.4c1.2,0,2.4,0,3.6,0c4.8,0,9.7-0.2,14.9-0.8c35-3.7,73.3-22.2,100.8-40.4c19.2-12.8,34.1-27.1,49.2-39.2
		h-1.6c-14.9,11.9-29.5,25.9-48.2,38.3c-27.4,18.2-65.6,36.6-100.3,40.3c-5.1,0.5-10.1,0.7-14.8,0.7c-1.2,0-2.4,0-3.6,0
		c-19.4-0.4-35.7-4.1-55.3-11.4c-17.4-6.5-35.9-16.3-55.2-20.6c-6.5-1.4-13.1-2.3-19.8-2.3c-3.4,0-6.9,0.2-10.4,0.6
		c-20.7,2.6-38.2,12.5-52.4,26.4c-8.7,8.5-16.2,18.5-22.5,29.2c0-1,0.1-2,0.1-3c6.4-12,14.2-23.2,23.5-32.6
		c13.9-14.1,31.1-24.2,51.6-26.8c3.4-0.4,6.8-0.6,10.1-0.6c6.8,0,13.4,0.8,19.9,2.4c19.1,4.4,37.4,14.6,54.9,21.8
		c19.6,8.1,36.4,13.1,56.2,14.4c2.9,0.2,5.9,0.3,9,0.3c3.2,0,6.4-0.1,9.7-0.4C508,74,546.2,55,573.4,35.6c16-11.4,28.9-24,41.6-35.6
		h-1.5c-12.4,11.4-25.1,23.7-40.7,34.8c-27.1,19.3-65.2,38.3-100.3,41.1c-3.3,0.3-6.5,0.4-9.6,0.4c-3.1,0-6-0.1-8.9-0.3
		c-19.6-1.3-36.3-6.2-55.8-14.3c-17.4-7.2-35.8-17.4-55.1-21.9c-6.5-1.5-13.2-2.4-20.1-2.4c-3.4,0-6.8,0.2-10.2,0.6
		c-20.8,2.6-38.2,12.8-52.2,27c-8.9,9-16.5,19.7-22.7,31c0-0.9,0.1-1.8,0.1-2.7c6.3-12.7,14.1-24.7,23.7-34.7
		c13.7-14.4,30.8-24.8,51.4-27.4c3.3-0.4,6.6-0.6,9.9-0.6c6.9,0,13.6,0.9,20.2,2.5c19.1,4.6,37.3,15.1,54.8,23.1
		c19.6,9,36.7,15.3,56.7,17.4c4.2,0.4,8.6,0.7,13.1,0.7c1.9,0,3.9,0,5.8-0.1c35.8-1.9,73.9-21.5,100.8-42.1
		c13.3-10.2,24.5-21.3,35.2-32h-1.4c-10.5,10.5-21.4,21.3-34.4,31.3c-26.8,20.5-64.8,40-100.2,41.9c-2,0.1-3.9,0.1-5.8,0.1
		c-4.5,0-8.8-0.3-13-0.7c-19.9-2.1-36.8-8.3-56.4-17.3c-17.4-8-35.7-18.5-54.9-23.1c-6.6-1.6-13.4-2.5-20.4-2.5
		c-3.3,0-6.6,0.2-10,0.6c-20.8,2.6-38.1,13.1-52,27.7c-9.1,9.6-16.7,20.9-22.8,32.9c0-0.8,0.1-1.6,0.2-2.4c6.1-13.5,14-26.3,23.8-37
		c13.5-14.8,30.5-25.4,51.1-28c3.3-0.4,6.5-0.6,9.7-0.6c7,0,13.8,0.9,20.4,2.6c19.1,4.8,37.2,15.6,54.6,24.4
		c19.6,9.8,36.9,17.4,57.2,20.3c5.3,0.8,10.7,1.2,16.5,1.2c0.9,0,1.8,0,2.7,0c36.1-1,74.2-21.2,100.8-42.9
		c11.1-9.1,20.7-18.8,29.8-28.5h-1.4c-8.9,9.4-18.2,18.9-29,27.7C548,49.3,510.1,69.5,474.3,70.4c-0.9,0-1.8,0-2.7,0
		c-5.7,0-11.1-0.5-16.3-1.2c-20.1-2.9-37.4-10.5-56.9-20.2c-17.4-8.7-35.6-19.6-54.8-24.4c-6.7-1.7-13.6-2.7-20.7-2.7
		c-3.2,0-6.5,0.2-9.8,0.6c-20.9,2.6-38.1,13.4-51.8,28.3c-9.3,10.1-16.9,22.1-22.9,34.9c0-0.7,0.1-1.3,0.1-2
		c6-14.4,13.9-28,23.9-39.3c13.3-15.1,30.2-26,50.9-28.6c3.2-0.4,6.4-0.6,9.5-0.6c7.1,0,14,1,20.7,2.8c19.1,5,37,16.1,54.5,25.6
		c19.5,10.6,37.2,19.5,57.8,23.3c6.2,1.1,12.6,1.8,19.3,1.8l0,0c36.5-0.1,74.5-20.9,100.8-43.8C585.1,17,593.2,8.5,600.9,0h-1.3
		c-7.5,8.3-15.3,16.5-24.2,24.2c-26.2,22.8-64,43.5-100.2,43.5l0,0c-6.7,0-13-0.7-19.2-1.8c-20.4-3.8-37.9-12.6-57.5-23.2
		c-17.4-9.5-35.4-20.7-54.7-25.7c-6.8-1.8-13.7-2.8-20.9-2.8c-3.2,0-6.4,0.2-9.6,0.6c-21,2.6-38.1,13.6-51.5,28.9
		c-9.4,10.7-17,23.5-22.9,36.9c0-0.5,0.1-1,0.1-1.5c5.8-15.3,13.7-29.9,23.9-41.9c13.1-15.4,30-26.5,50.7-29.1
		c3.2-0.4,6.3-0.6,9.3-0.6c7.2,0,14.1,1,20.9,2.9c19,5.2,36.9,16.7,54.3,26.9c19.5,11.5,37.5,21.6,58.3,26.3
		c6.3,1.4,12.8,2.3,19.6,2.5c0.7,0,1.5,0,2.2,0c36.2,0,73-21.1,98.6-44.6c7.4-6.8,14.1-14,20.5-21.4h-1.3
		c-6.2,7.1-12.7,14-19.9,20.6C550.7,44.1,514,65,478.2,65c-0.7,0-1.4,0-2.2,0c-6.8-0.2-13.2-1.1-19.4-2.5
		c-20.6-4.6-38.5-14.7-58-26.2c-17.4-10.2-35.3-21.8-54.6-27c-6.8-1.9-13.9-2.9-21.2-2.9c-3.1,0-6.3,0.2-9.5,0.6
		c-21,2.6-38.1,13.9-51.3,29.5c-9.6,11.3-17.1,24.8-22.8,38.9c0-0.3,0.1-0.6,0.1-0.8c5.5-16.2,13.4-31.9,23.9-44.6
		C276.3,14.2,293,2.9,313.8,0.2c0.7-0.1,1.4-0.2,2.1-0.2H309c-18.9,3.7-34.4,14.6-46.5,29.3c-9.6,11.7-17,25.7-22.5,40.4
		c5.2-17,13.1-33.5,23.7-46.9c7.5-9.5,16.4-17.4,26.6-22.8h-2.1c-9.7,5.5-18.1,13.1-25.3,22.2c-9,11.3-16,24.8-21.1,39
		c4.9-16.5,12.3-32.5,22.3-45.5c4.5-5.9,9.5-11.2,15.1-15.7h-1.6c-5.2,4.4-10,9.5-14.3,15.1c-8.4,11-15,24.1-19.8,37.7
		c4.6-16,11.6-31.5,21-44.3c2.2-3,4.6-5.8,7-8.5h-1.3c-2.3,2.5-4.4,5.1-6.5,7.9c-7.8,10.6-14,23.1-18.5,36.2
		c3.7-13.1,8.9-25.7,15.8-36.8c1.6-2.5,3.2-5,4.9-7.3h-1.2c-1.6,2.2-3.1,4.5-4.5,6.8c-10,16.2-16.5,35.6-20,54.7
		c-0.5,2.1-0.9,4.1-1.4,6.2c-0.1,0.7-0.3,1.4-0.4,2.1c-0.3,1.3-0.6,2.7-0.9,4c-0.3,1.6-0.7,3.1-1,4.7c-0.1,0.5-0.2,0.9-0.4,1.4
		c-0.6,2.4-1.1,4.8-1.6,7.2c-0.7,2.8-1.4,5.5-2,8.2c-0.8,2.8-1.5,5.7-2.1,8.5c-0.7,2.5-1.4,5-2,7.5c-0.1,0.3-0.2,0.7-0.2,1
		c-0.5,1.6-0.9,3.2-1.4,4.8c-0.3,1.3-0.7,2.5-1,3.8c-0.2,0.7-0.4,1.4-0.6,2.1c-0.7,2.3-1.3,4.6-1.9,6.9c-1,3-1.9,6.1-2.8,9.2
		c-1,3.1-2,6.2-3,9.3c-1.1,3.1-2.1,6.2-3.2,9.4c-1.2,3.1-2.3,6.3-3.4,9.5c-1.2,3.2-2.5,6.4-3.7,9.7c-1.3,3.3-2.7,6.5-4,9.8
		c-1.4,3.3-2.9,6.6-4.3,9.9c-1.6,3.4-3.1,6.9-4.7,10.3c-1.7,3.5-3.4,7-5.1,10.5c-1.9,3.6-3.8,7.2-5.7,10.8
		c-2.1,3.9-4.3,7.7-6.5,11.6c-2.6,4.3-5.2,8.7-7.9,12.9c-0.8,1.3-1.7,2.6-2.6,3.9c-17.5,8.5-37,13.2-56.4,13.8
		c-1.4,0-2.7,0.1-4.1,0.1c-37.7,0-74.6-14-106.4-34.7v1.2c31.8,20.6,68.6,34.5,106.4,34.5c1.4,0,2.8,0,4.1-0.1
		c19-0.5,38.1-5,55.3-13.1c-0.2,0.2-0.3,0.5-0.5,0.7c-15.1,7.7-31.8,12.5-48.7,14.1c-3.4,0.3-6.8,0.5-10.2,0.6c-0.9,0-1.9,0-2.8,0
		c-37.1,0-73.2-14-103.6-34.4v1.2c30.4,20.3,66.5,34.2,103.6,34.2c0.9,0,1.9,0,2.8,0c3.4-0.1,6.9-0.3,10.3-0.6
		c16.4-1.6,32.7-6.1,47.5-13.4c-0.1,0.2-0.3,0.4-0.4,0.6c-15.8,8.4-33.4,13.6-51.3,15.2c-3.4,0.3-6.8,0.5-10.2,0.5c-0.5,0-1,0-1.5,0
		c-36.3,0-71.6-13.8-100.8-34v1.2c29.2,20,64.4,33.8,100.8,33.8c0.5,0,1,0,1.6,0c3.4,0,6.9-0.2,10.3-0.5c17.4-1.6,34.5-6.5,50-14.4
		c-0.1,0.2-0.2,0.3-0.3,0.5c-16.4,9.1-35,14.7-53.8,16.3c-3.4,0.3-6.8,0.4-10.2,0.4c-0.1,0-0.2,0-0.4,0c-35.5,0-69.9-13.6-97.9-33.4
		v1.2c28,19.7,62.4,33.2,97.9,33.2c0.1,0,0.2,0,0.4,0c3.4,0,6.8-0.2,10.3-0.4c18.3-1.5,36.4-6.8,52.5-15.5c-0.1,0.1-0.2,0.2-0.3,0.4
		c-17.1,9.9-36.6,16-56.5,17.5c-3.2,0.2-6.3,0.4-9.5,0.4c-0.2,0-0.4,0-0.7,0C59.9,283.3,26.6,270,0,250.8v1.2
		c26.6,19.1,59.8,32.2,94.1,32.4c0.2,0,0.4,0,0.7,0c3.2,0,6.4-0.1,9.6-0.4c19.3-1.5,38.3-7.2,55-16.5c-0.1,0.1-0.1,0.2-0.2,0.2
		c-17.7,10.7-38.2,17.2-59,18.7c-2.8,0.2-5.6,0.3-8.5,0.3c-0.6,0-1.1,0-1.7,0c-32.9-0.5-64.8-13.3-90-31.8v1.2
		c25.3,18.4,57.1,31.1,90,31.5c0.6,0,1.1,0,1.7,0c2.8,0,5.7-0.1,8.5-0.3c20.2-1.4,40.1-7.5,57.5-17.7c0,0,0,0.1-0.1,0.1
		C139.4,281.5,117.9,288.5,96.1,289.8z M184.7,242.9c0.3-0.5,0.6-1.1,0.9-1.6c0.1-0.1,0.1-0.1,0.2-0.2
		C185.4,241.7,185,242.3,184.7,242.9z M184.8,240.7c-0.1,0.1-0.1,0.1-0.2,0.2c0.9-1.5,1.7-3.1,2.5-4.7c0.2-0.2,0.4-0.4,0.5-0.6
		c-0.6,1.1-1.2,2.2-1.9,3.4C185.5,239.6,185.1,240.1,184.8,240.7z M189.2,237.3c0.1-0.1,0.3-0.3,0.4-0.4c-0.8,1.4-1.7,2.7-2.5,4
		C187.8,239.7,188.5,238.5,189.2,237.3z M233.6,119.7c-0.1,1.1-0.1,2.3-0.2,3.4c-0.4,0.6-0.8,1.1-1.1,1.7c0.1-1.1,0.2-2.2,0.3-3.3
		C232.9,120.9,233.2,120.3,233.6,119.7z M232.7,119.2c0.1-1,0.2-2,0.3-3.1c0.3-0.6,0.6-1.1,1-1.7c-0.1,1-0.1,2.1-0.2,3.1
		C233.4,118.1,233.1,118.7,232.7,119.2z M233.2,125.1c-0.1,1.2-0.2,2.4-0.3,3.6c-0.4,0.6-0.8,1.2-1.3,1.8c0.1-1.2,0.2-2.4,0.3-3.6
		C232.4,126.3,232.8,125.7,233.2,125.1z M232.9,130.7c-0.1,1.3-0.2,2.6-0.3,3.8c-0.5,0.6-0.9,1.2-1.4,1.8c0.1-1.3,0.2-2.5,0.3-3.8
		C232,131.9,232.4,131.3,232.9,130.7z M228.6,151.6c-0.2,1.4-0.4,2.9-0.5,4.3c-0.5,0.6-1,1.2-1.5,1.8c0.2-1.4,0.4-2.8,0.6-4.2
		C227.6,152.9,228.1,152.3,228.6,151.6z M227.4,151.6c0.2-1.3,0.3-2.7,0.5-4c0.5-0.6,0.9-1.2,1.4-1.9c-0.1,1.4-0.3,2.7-0.5,4.1
		C228.3,150.4,227.8,151,227.4,151.6z M227.8,157.8c-0.2,1.5-0.4,3-0.7,4.5c-0.5,0.6-1.1,1.2-1.6,1.8c0.2-1.5,0.5-3,0.7-4.4
		C226.7,159,227.3,158.4,227.8,157.8z M222.7,173.9c-0.3,1.6-0.7,3.2-1,4.8c-0.5,0.6-1.1,1.1-1.6,1.7c0.4-1.6,0.7-3.1,1-4.7
		C221.7,175,222.2,174.4,222.7,173.9z M221.6,173.7c0.3-1.5,0.6-3,0.9-4.5c0.5-0.6,1-1.2,1.5-1.8c-0.3,1.5-0.5,3-0.8,4.5
		C222.6,172.5,222.1,173.1,221.6,173.7z M221.3,180.5c-0.4,1.7-0.8,3.4-1.2,5c-0.5,0.5-1.1,1.1-1.6,1.6c0.4-1.6,0.8-3.3,1.2-4.9
		C220.2,181.7,220.8,181.1,221.3,180.5z M219.6,187.5c-0.5,1.8-1,3.5-1.5,5.3c-0.5,0.5-1,1-1.6,1.5c0.5-1.7,1-3.4,1.5-5.1
		C218.5,188.6,219,188,219.6,187.5z M217.4,194.7c-0.6,1.9-1.2,3.7-1.9,5.6c-0.5,0.5-1,0.9-1.5,1.4c0.6-1.8,1.3-3.6,1.8-5.4
		C216.4,195.7,216.9,195.2,217.4,194.7z M217.1,188.6c-0.5,0.5-1,1.1-1.5,1.6c0.4-1.6,0.8-3.1,1.2-4.7c0.5-0.6,1-1.1,1.5-1.7
		C217.9,185.4,217.5,187,217.1,188.6z M216.5,190.7c-0.5,1.7-1,3.4-1.5,5.1c-0.5,0.5-1,1-1.5,1.5c0.5-1.6,1-3.3,1.5-4.9
		C215.5,191.8,216,191.2,216.5,190.7z M214.3,197.9c-0.6,1.8-1.2,3.6-1.9,5.4c-0.5,0.5-1,0.9-1.4,1.4c0.6-1.7,1.2-3.5,1.8-5.2
		C213.3,198.9,213.8,198.4,214.3,197.9z M211.9,198.9c-0.5,0.5-1,1-1.4,1.5c0.5-1.6,1-3.2,1.5-4.8c0-0.1,0.1-0.1,0.1-0.2
		c0.4-0.5,0.9-1,1.3-1.5C213,195.6,212.4,197.3,211.9,198.9z M210.8,201.5c0.1-0.1,0.3-0.3,0.4-0.4c-0.6,1.8-1.2,3.5-1.9,5.2
		c-0.2,0.2-0.4,0.4-0.5,0.5c-0.3,0.3-0.5,0.6-0.8,0.9c0.6-1.7,1.2-3.4,1.8-5.1C210.1,202.3,210.4,201.9,210.8,201.5z M208.4,208.7
		c-0.7,1.9-1.5,3.8-2.3,5.6c-0.4,0.4-0.8,0.8-1.2,1.2c0.8-1.8,1.5-3.6,2.2-5.4C207.5,209.6,207.9,209.2,208.4,208.7z M210.2,206.9
		c0.5-0.5,0.9-1,1.4-1.4c-0.8,2-1.6,3.9-2.4,5.8c-0.4,0.4-0.9,0.8-1.3,1.2C208.7,210.6,209.5,208.8,210.2,206.9z M213.3,203.8
		c0.5-0.5,1-0.9,1.5-1.4c-0.7,1.9-1.5,3.9-2.3,5.8c0,0.1-0.1,0.1-0.1,0.2c-0.4,0.4-0.9,0.8-1.3,1.2
		C211.8,207.7,212.6,205.8,213.3,203.8z M216.4,200.9c0.5-0.5,1-0.9,1.5-1.4c-0.5,1.4-1.1,2.9-1.7,4.3c-0.3,0.6-0.5,1.2-0.8,1.8
		c-0.5,0.4-0.9,0.8-1.4,1.2C214.9,204.9,215.7,202.9,216.4,200.9z M217.1,198.9c0.6-1.8,1.2-3.7,1.8-5.6c0.5-0.5,1.1-1,1.6-1.5
		c-0.6,1.9-1.2,3.8-1.9,5.8C218.1,197.9,217.6,198.4,217.1,198.9z M219.5,191.3c0.5-1.7,1-3.5,1.4-5.3c0.6-0.6,1.1-1.1,1.7-1.6
		c-0.5,1.8-1,3.6-1.5,5.4C220.6,190.3,220.1,190.8,219.5,191.3z M221.5,184.2c0.4-1.7,0.8-3.4,1.2-5.1c0.6-0.6,1.1-1.1,1.7-1.7
		c-0.4,1.7-0.8,3.5-1.2,5.2C222.6,183.1,222,183.6,221.5,184.2z M223.1,177.3c0.3-1.6,0.7-3.2,1-4.8c0.5-0.6,1.1-1.2,1.6-1.8
		c-0.3,1.6-0.6,3.3-1,4.9C224.2,176.1,223.6,176.7,223.1,177.3z M224.4,170.6c0.3-1.5,0.6-3.1,0.8-4.6c0.5-0.6,1.1-1.2,1.6-1.8
		c-0.3,1.6-0.5,3.1-0.8,4.7C225.5,169.4,224.9,170,224.4,170.6z M225.3,159.2c-0.5,0.6-0.9,1.2-1.4,1.8c0.2-1.3,0.4-2.7,0.6-4
		c0.5-0.6,0.9-1.2,1.4-1.8C225.7,156.5,225.5,157.8,225.3,159.2z M225,161.2c-0.2,1.4-0.5,2.9-0.7,4.3c-0.5,0.6-1,1.2-1.5,1.7
		c0.3-1.4,0.5-2.8,0.7-4.2C224,162.4,224.5,161.8,225,161.2z M222.6,162.6c-0.4,0.6-0.9,1.1-1.3,1.7c0.2-1.3,0.5-2.5,0.7-3.8
		c0.4-0.6,0.8-1.2,1.3-1.8C223,160,222.8,161.3,222.6,162.6z M222.2,164.7c-0.2,1.4-0.5,2.8-0.7,4.1c-0.5,0.6-0.9,1.1-1.4,1.7
		c0.3-1.3,0.5-2.7,0.8-4C221.3,165.8,221.8,165.2,222.2,164.7z M221.1,170.8c-0.3,1.5-0.6,2.9-0.9,4.3c-0.5,0.6-1,1.1-1.5,1.7
		c0.3-1.4,0.6-2.8,0.9-4.2C220.2,172,220.6,171.4,221.1,170.8z M219.8,177.2c-0.3,1.5-0.7,3.1-1,4.6c-0.5,0.5-1,1.1-1.5,1.6
		c0.4-1.5,0.7-3,1-4.5C218.8,178.4,219.3,177.8,219.8,177.2z M217.4,178.5c-0.5,0.5-0.9,1.1-1.3,1.6c0.3-1.3,0.6-2.7,0.9-4
		c0.4-0.6,0.9-1.2,1.3-1.7C218,175.7,217.7,177.1,217.4,178.5z M216.9,180.6c-0.3,1.5-0.7,2.9-1.1,4.4c-0.5,0.5-0.9,1.1-1.4,1.6
		c0.4-1.4,0.7-2.8,1.1-4.3C216,181.8,216.5,181.2,216.9,180.6z M215.3,187.2c-0.4,1.6-0.8,3.1-1.3,4.6c-0.5,0.5-1,1-1.4,1.6
		c0.4-1.5,0.9-3,1.3-4.5C214.4,188.3,214.8,187.7,215.3,187.2z M213,188.4c-0.1,0.1-0.2,0.2-0.3,0.3c-0.3,0.4-0.7,0.8-1,1.2
		c0.4-1.3,0.7-2.7,1.1-4c0.4-0.6,0.9-1.1,1.3-1.7C213.7,185.6,213.3,187,213,188.4z M212.3,190.7c-0.4,1.5-0.8,2.9-1.2,4.4
		c-0.5,0.5-0.9,1-1.3,1.6c0.4-1.4,0.8-2.9,1.2-4.3C211.4,191.8,211.9,191.3,212.3,190.7z M210.4,197.5c-0.5,1.6-1,3.1-1.5,4.7
		c-0.4,0.5-0.9,1-1.3,1.5c0.5-1.5,1-3,1.5-4.6C209.5,198.5,209.9,198,210.4,197.5z M208,204.5c-0.6,1.7-1.2,3.4-1.9,5
		c-0.4,0.4-0.8,0.9-1.3,1.3c0.6-1.6,1.2-3.2,1.8-4.9C207.1,205.5,207.6,205,208,204.5z M205.8,205.5c-0.4,0.5-0.8,1-1.2,1.4
		c0.5-1.4,1-2.9,1.5-4.3c0.4-0.5,0.8-1,1.3-1.6C206.8,202.5,206.3,204,205.8,205.5z M204.9,208.1c-0.6,1.6-1.2,3.2-1.8,4.8
		c-0.4,0.4-0.8,0.9-1.2,1.3c0.6-1.5,1.2-3.1,1.8-4.6C204.1,209,204.5,208.6,204.9,208.1z M203.9,213.4c0.4-0.5,0.9-0.9,1.3-1.4
		c-0.7,1.8-1.5,3.6-2.3,5.4c-0.4,0.4-0.8,0.8-1.2,1.2C202.5,216.9,203.2,215.1,203.9,213.4z M201.9,221.8c0.6-1.3,1.2-2.6,1.8-3.8
		c0.4-0.4,0.8-0.8,1.2-1.1c0,0,0,0.1-0.1,0.1c-0.9,2-2,4-3,6c-0.3,0.3-0.6,0.6-0.9,0.9C201.3,223.2,201.6,222.5,201.9,221.8z
		 M205.7,217.4c0.4-0.8,0.8-1.7,1.1-2.5c0.4-0.4,0.8-0.8,1.3-1.2c-1,2.2-2,4.3-3.2,6.4c-0.3,0.3-0.7,0.6-1,0.9
		C204.6,219.8,205.2,218.6,205.7,217.4z M209.5,213c0.2-0.4,0.3-0.8,0.5-1.1c0.4-0.4,0.9-0.8,1.3-1.2c-1,2.2-2.1,4.4-3.2,6.6
		c-0.3,0.3-0.7,0.6-1,0.9C208,216.4,208.8,214.7,209.5,213z M213.2,209c0.4-0.4,0.9-0.8,1.3-1.2c-1,2.3-2.1,4.5-3.3,6.7
		c-0.3,0.3-0.7,0.6-1,0.9C211.2,213.3,212.2,211.2,213.2,209z M216.3,206.2c0.4-0.4,0.9-0.8,1.3-1.1c-1.1,2.3-2.2,4.6-3.4,6.9
		c-0.3,0.3-0.7,0.6-1,0.9C214.3,210.7,215.3,208.5,216.3,206.2z M217.2,204.2C217.2,204.2,217.2,204.2,217.2,204.2
		c0.8-2,1.6-4.1,2.3-6.1c0.5-0.5,1-0.9,1.6-1.4c-0.3,0.9-0.7,1.8-1,2.7c-0.5,1.2-1,2.4-1.5,3.6C218.1,203.4,217.6,203.8,217.2,204.2
		z M220.2,196.1c0.7-1.9,1.3-3.8,1.9-5.8c0.6-0.5,1.1-1,1.7-1.5c-0.6,2-1.3,4-2,5.9C221.2,195.2,220.7,195.7,220.2,196.1z
		 M222.5,188.5c0.5-1.8,1-3.6,1.5-5.4c0.6-0.5,1.1-1.1,1.7-1.6c-0.5,1.9-1,3.7-1.5,5.6C223.7,187.5,223.1,188,222.5,188.5z
		 M224.4,181.3c0.4-1.7,0.8-3.5,1.2-5.2c0.6-0.6,1.2-1.1,1.7-1.7c-0.4,1.8-0.8,3.6-1.2,5.3C225.6,180.2,225,180.8,224.4,181.3z
		 M226,174.3c0.3-1.7,0.7-3.3,1-5c0.6-0.6,1.1-1.2,1.7-1.8c-0.3,1.7-0.6,3.4-1,5.1C227.1,173.2,226.6,173.8,226,174.3z M227.3,167.5
		c0.3-1.6,0.5-3.2,0.8-4.8c0.6-0.6,1.1-1.2,1.7-1.8c-0.2,1.6-0.5,3.3-0.8,4.9C228.4,166.4,227.8,167,227.3,167.5z M228.3,161
		c0.2-1.5,0.4-3.1,0.6-4.6c0.5-0.6,1.1-1.3,1.6-1.9c-0.2,1.6-0.4,3.1-0.6,4.7C229.4,159.8,228.9,160.4,228.3,161z M229.2,154.6
		c0.2-1.5,0.4-2.9,0.5-4.4c0.5-0.6,1-1.3,1.6-1.9c-0.2,1.5-0.3,3-0.5,4.5C230.3,153.4,229.8,154,229.2,154.6z M230,148.4
		c0.2-1.4,0.3-2.8,0.5-4.2c0.5-0.6,1-1.3,1.5-1.9c-0.1,1.4-0.3,2.9-0.4,4.3C231,147.1,230.5,147.7,230,148.4z M230.6,142.3
		c0.1-1.3,0.3-2.7,0.4-4c0.5-0.6,0.9-1.3,1.4-1.9c-0.1,1.4-0.2,2.7-0.3,4.1C231.6,141,231.1,141.7,230.6,142.3z M231.1,126.6
		c-0.3,0.5-0.7,1.1-1,1.6c0.1-1,0.2-2,0.3-3.1c0.3-0.5,0.6-1.1,0.9-1.6C231.3,124.5,231.2,125.6,231.1,126.6z M230.9,128.8
		c-0.1,1.1-0.2,2.3-0.3,3.4c-0.4,0.6-0.8,1.1-1.1,1.7c0.1-1.1,0.2-2.2,0.4-3.3C230.2,130,230.5,129.4,230.9,128.8z M230.4,134.3
		c-0.1,1.2-0.2,2.4-0.3,3.6c-0.4,0.6-0.8,1.2-1.2,1.7c0.1-1.2,0.3-2.4,0.4-3.6C229.6,135.5,230,134.9,230.4,134.3z M229.9,139.9
		c-0.1,1.3-0.3,2.6-0.4,3.9c-0.5,0.6-0.9,1.2-1.3,1.8c0.2-1.3,0.3-2.5,0.4-3.8C229,141.1,229.4,140.5,229.9,139.9z M228.2,135.7
		c-0.3,0.5-0.7,1-1,1.5c0.1-1,0.3-2,0.4-3.1c0.3-0.5,0.6-1.1,0.9-1.6C228.5,133.7,228.4,134.7,228.2,135.7z M228,138
		c-0.1,1.1-0.3,2.3-0.4,3.4c-0.4,0.5-0.8,1.1-1.1,1.6c0.1-1.1,0.3-2.2,0.4-3.3C227.3,139.1,227.6,138.6,228,138z M227.4,143.5
		c-0.1,1.2-0.3,2.4-0.4,3.7c-0.4,0.6-0.8,1.1-1.2,1.7c0.2-1.2,0.3-2.4,0.5-3.6C226.6,144.7,227,144.1,227.4,143.5z M226.7,149.2
		c-0.2,1.3-0.3,2.6-0.5,3.9c-0.4,0.6-0.9,1.2-1.3,1.7c0.2-1.3,0.4-2.5,0.6-3.8C225.8,150.4,226.2,149.8,226.7,149.2z M225.2,144.9
		c-0.3,0.5-0.7,1-1,1.5c0.2-1,0.3-2,0.5-3.1c0.3-0.5,0.6-1,0.9-1.6C225.5,142.9,225.4,143.9,225.2,144.9z M224.9,147.3
		c-0.2,1.1-0.3,2.3-0.5,3.4c-0.4,0.5-0.7,1.1-1.1,1.6c0.2-1.1,0.4-2.2,0.5-3.3C224.2,148.4,224.5,147.8,224.9,147.3z M224.1,152.9
		c-0.2,1.2-0.4,2.4-0.5,3.7c-0.4,0.5-0.8,1.1-1.2,1.6c0.2-1.2,0.4-2.4,0.6-3.6C223.3,154,223.7,153.5,224.1,152.9z M222,154.2
		c-0.3,0.5-0.6,1-1,1.4c0.2-1,0.4-2,0.6-3c0.3-0.5,0.6-1,0.9-1.5C222.3,152.2,222.1,153.2,222,154.2z M221.6,156.7
		c-0.2,1.1-0.4,2.3-0.6,3.4c-0.4,0.5-0.7,1-1.1,1.5c0.2-1.1,0.4-2.2,0.6-3.3C220.9,157.7,221.2,157.2,221.6,156.7z M220.6,162.4
		c-0.2,1.2-0.4,2.4-0.7,3.7c-0.4,0.5-0.8,1.1-1.2,1.6c0.2-1.2,0.5-2.4,0.7-3.6C219.8,163.5,220.2,162.9,220.6,162.4z M219.5,168.3
		c-0.2,1.3-0.5,2.6-0.8,3.9c-0.4,0.5-0.9,1.1-1.3,1.6c0.3-1.3,0.5-2.5,0.8-3.8C218.7,169.4,219.1,168.8,219.5,168.3z M217.3,169.6
		c-0.2,0.3-0.5,0.7-0.7,1c-0.1,0.2-0.2,0.3-0.3,0.5c0.2-1.1,0.5-2.2,0.7-3.3c0.3-0.5,0.7-1,1-1.6
		C217.8,167.3,217.6,168.5,217.3,169.6z M216.8,172c-0.3,1.2-0.5,2.4-0.8,3.6c-0.2,0.3-0.5,0.6-0.7,1c-0.1,0.2-0.3,0.4-0.4,0.6
		c0.3-1.2,0.5-2.3,0.8-3.5C216.1,173.1,216.4,172.6,216.8,172z M215.5,178c-0.3,1.3-0.6,2.6-0.9,3.9c-0.2,0.3-0.4,0.5-0.6,0.8
		c-0.2,0.3-0.4,0.5-0.6,0.8c0.3-1.3,0.6-2.5,0.9-3.8C214.7,179.1,215.1,178.6,215.5,178z M213.4,179.3c-0.3,0.5-0.7,0.9-1,1.4
		c0.3-1.1,0.5-2.2,0.8-3.3c0.3-0.5,0.7-1,1-1.5C213.9,177,213.6,178.2,213.4,179.3z M212.7,181.8c-0.3,1.2-0.6,2.4-0.9,3.7
		c-0.4,0.5-0.7,1-1.1,1.4c0.3-1.2,0.6-2.4,0.9-3.5C212,182.9,212.4,182.3,212.7,181.8z M211.2,188c-0.4,1.3-0.7,2.6-1.1,3.9
		c-0.4,0.5-0.8,1-1.2,1.4c0.4-1.3,0.7-2.5,1.1-3.8C210.4,189,210.8,188.5,211.2,188z M209.4,194.3c-0.4,1.4-0.8,2.8-1.3,4.2
		c-0.4,0.5-0.8,0.9-1.2,1.4c0.4-1.3,0.8-2.7,1.2-4C208.6,195.4,209,194.9,209.4,194.3z M207.3,195.5c-0.4,0.4-0.7,0.9-1,1.4
		c0.4-1.2,0.7-2.4,1.1-3.6c0.3-0.5,0.7-0.9,1-1.4C208,193.1,207.6,194.3,207.3,195.5z M206.4,198.2c-0.4,1.3-0.8,2.6-1.3,3.9
		c-0.4,0.4-0.7,0.9-1.1,1.3c0.4-1.3,0.8-2.5,1.3-3.8c0-0.1,0.1-0.1,0.1-0.2C205.8,199,206.1,198.6,206.4,198.2z M204.3,204.8
		c-0.5,1.4-1,2.8-1.5,4.2c-0.4,0.4-0.7,0.8-1.1,1.3c0.5-1.3,1-2.7,1.5-4.1c0.2-0.3,0.5-0.6,0.7-0.9
		C204,205.1,204.1,204.9,204.3,204.8z M202.2,205.7c-0.3,0.4-0.6,0.8-1,1.3c0.4-1.2,0.8-2.3,1.2-3.5c0.3-0.4,0.6-0.9,1-1.3
		C203,203.4,202.6,204.6,202.2,205.7z M201.7,211.7c-0.6,1.5-1.2,3-1.8,4.5c0,0,0,0.1-0.1,0.1c-0.3,0.4-0.7,0.8-1,1.2
		c0.6-1.5,1.2-2.9,1.7-4.4C201,212.7,201.4,212.2,201.7,211.7z M199.7,212.6c-0.3,0.4-0.7,0.8-1,1.2c0.5-1.3,1-2.5,1.4-3.8
		c0.3-0.4,0.7-0.9,1-1.3C200.7,210.1,200.2,211.4,199.7,212.6z M200.8,216.8c0.4-0.4,0.8-0.9,1.2-1.3c-0.7,1.7-1.5,3.5-2.3,5.2
		c-0.3,0.4-0.7,0.7-1,1.1C199.4,220.2,200.1,218.5,200.8,216.8z M200.5,221.3c0.4-0.4,0.7-0.8,1.1-1.1c-0.2,0.4-0.4,0.8-0.6,1.2
		c-0.8,1.6-1.6,3.2-2.4,4.8c-0.3,0.3-0.6,0.6-0.9,0.8c0.1-0.3,0.3-0.5,0.4-0.8C199,224.6,199.7,223,200.5,221.3z M197.2,225.8
		c-0.6,1.2-1.3,2.5-1.9,3.7c-0.3,0.3-0.5,0.5-0.8,0.8c1-1.8,1.9-3.6,2.8-5.5c0.3-0.4,0.7-0.7,1-1.1
		C197.9,224.4,197.6,225.1,197.2,225.8z M193.4,230.2c-0.5,0.9-1,1.9-1.5,2.8c-0.2,0.2-0.4,0.4-0.6,0.7c0.9-1.7,1.8-3.5,2.7-5.3
		c0.3-0.3,0.6-0.7,0.9-1C194.4,228.3,193.9,229.3,193.4,230.2z M189.6,234.6c-0.4,0.7-0.8,1.4-1.2,2.2c-0.1,0.1-0.3,0.3-0.4,0.4
		c0.9-1.6,1.8-3.3,2.6-5c0.2-0.3,0.5-0.6,0.7-0.8C190.8,232.4,190.2,233.5,189.6,234.6z M192.7,233.6c0.2-0.2,0.4-0.4,0.6-0.7
		c-1.3,2.2-2.6,4.3-4,6.4C190.5,237.4,191.6,235.5,192.7,233.6z M192.3,236.6C192.3,236.6,192.3,236.6,192.3,236.6
		c1.3-2.1,2.6-4.3,3.8-6.6c0.2-0.2,0.5-0.5,0.7-0.7C195.4,231.8,193.9,234.2,192.3,236.6z M195.5,233.5c1.4-2.2,2.7-4.4,3.9-6.7
		c0.3-0.3,0.5-0.5,0.8-0.8c-1.4,2.5-2.9,4.9-4.5,7.3C195.6,233.4,195.6,233.4,195.5,233.5z M198.8,230.4c-0.1,0.1-0.1,0.1-0.2,0.2
		c1.4-2.3,2.8-4.6,4-7c0.3-0.3,0.6-0.5,0.8-0.8C202,225.4,200.5,227.9,198.8,230.4z M201.9,227.7c-0.1,0.1-0.1,0.1-0.2,0.2
		c1.5-2.3,2.8-4.7,4.1-7.2c0.3-0.3,0.6-0.6,0.9-0.8c-1.4,2.5-2.9,4.9-4.5,7.3C202.1,227.4,202,227.5,201.9,227.7z M204.9,225
		C204.9,225,204.9,225,204.9,225c-0.1,0.1-0.1,0.1-0.2,0.2c1.5-2.4,2.9-4.8,4.2-7.3c0.3-0.3,0.6-0.5,0.9-0.8c-1.1,2-2.3,4-3.6,6
		C205.8,223.7,205.3,224.4,204.9,225z M207.7,222.6c0,0-0.1,0.1-0.2,0.1c1.6-2.5,3-5,4.4-7.5c0.3-0.3,0.6-0.5,0.9-0.8
		c-0.9,1.5-1.7,3-2.7,4.5C209.4,220.1,208.6,221.4,207.7,222.6z M214.2,214.7c-1.2,1.9-2.4,3.8-3.7,5.6c0,0-0.1,0-0.1,0.1
		c0.2-0.3,0.4-0.6,0.6-1c1.4-2.2,2.7-4.5,3.9-6.8c0.3-0.2,0.6-0.5,0.8-0.7C215.3,212.9,214.8,213.8,214.2,214.7z M217.1,209.6
		c-0.3,0.3-0.7,0.5-1,0.8c1.1-2.2,2.2-4.5,3.2-6.8c0.4-0.4,0.9-0.7,1.3-1.1C219.6,204.9,218.4,207.3,217.1,209.6z M221.6,200.5
		c-0.5,0.4-0.9,0.7-1.4,1.1c0.3-0.6,0.5-1.3,0.8-1.9c0.6-1.5,1.1-2.9,1.6-4.4c0.5-0.4,1-0.9,1.6-1.3
		C223.4,196.2,222.5,198.4,221.6,200.5z M224.8,192.2c-0.5,0.4-1.1,0.9-1.6,1.3c0.7-2,1.3-3.9,1.9-5.9c0.6-0.5,1.1-1,1.7-1.5
		C226.2,188.1,225.5,190.2,224.8,192.2z M227.3,184.4c-0.6,0.5-1.1,1-1.7,1.5c0.5-1.8,1-3.7,1.4-5.6c0.6-0.5,1.2-1.1,1.8-1.6
		C228.4,180.6,227.9,182.5,227.3,184.4z M229.2,176.9c-0.6,0.5-1.2,1.1-1.8,1.6c0.4-1.8,0.8-3.6,1.2-5.4c0.6-0.6,1.2-1.1,1.8-1.7
		C230.1,173.3,229.7,175.1,229.2,176.9z M230.8,169.8c-0.6,0.6-1.2,1.1-1.8,1.7c0.3-1.7,0.6-3.4,0.9-5.2c0.6-0.6,1.2-1.2,1.8-1.8
		C231.4,166.3,231.1,168,230.8,169.8z M232,162.9c-0.6,0.6-1.2,1.1-1.8,1.7c0.3-1.6,0.5-3.3,0.7-4.9c0.6-0.6,1.2-1.2,1.8-1.8
		C232.5,159.5,232.2,161.2,232,162.9z M232.9,156.2c-0.6,0.6-1.2,1.2-1.7,1.8c0.2-1.6,0.4-3.2,0.6-4.8c0.6-0.6,1.1-1.3,1.7-1.9
		C233.3,153,233.1,154.6,232.9,156.2z M233.8,148.1c-0.1,0.5-0.1,1-0.2,1.6c-0.6,0.6-1.1,1.2-1.7,1.8c0.2-1.5,0.3-3,0.5-4.6
		c0.5-0.6,1.1-1.3,1.7-1.9C234,146.1,233.9,147.1,233.8,148.1z M234.3,143.4c-0.5,0.6-1.1,1.2-1.6,1.8c0.1-1.5,0.3-2.9,0.4-4.4
		c0.5-0.6,1-1.3,1.6-1.9C234.5,140.4,234.4,141.9,234.3,143.4z M234.8,137.2c-0.5,0.6-1,1.2-1.5,1.9c0.1-1.4,0.2-2.8,0.3-4.2
		c0.5-0.6,1-1.3,1.5-1.9C234.9,134.4,234.9,135.8,234.8,137.2z M235.1,131.2c-0.5,0.6-1,1.2-1.5,1.9c0.1-1.3,0.2-2.7,0.3-4
		c0.5-0.6,0.9-1.3,1.4-1.9C235.3,128.5,235.2,129.8,235.1,131.2z M235.5,125.3c-0.5,0.6-0.9,1.2-1.4,1.8c0.1-1.3,0.2-2.5,0.3-3.8
		c0.4-0.6,0.9-1.3,1.3-1.9C235.6,122.8,235.5,124.1,235.5,125.3z M235.7,119.6c-0.4,0.6-0.8,1.2-1.3,1.8c0.1-1.2,0.2-2.4,0.2-3.5
		c0.4-0.6,0.8-1.3,1.2-1.9C235.9,117.2,235.8,118.4,235.7,119.6z M236,114.1c-0.4,0.6-0.8,1.2-1.1,1.8c0.1-1.1,0.1-2.2,0.2-3.3
		c0.4-0.6,0.7-1.2,1.1-1.8C236.1,111.8,236,113,236,114.1z M848,345.7c0-4.7-0.6-9.4-1.8-14c-3-11.1-9.3-20-16.4-29.5
		c-9.5-12.6-22.3-18.4-34.7-24.5c-17.7-8.8-33-18.8-42.5-40.9c-10.9-25.5-14.4-53.6-17-80.7c-2.2-23.5-5.8-48-12.3-69.3
		c-6.6-21.3-16.1-39.3-30.6-49.9c-7.3-5.3-14.8-8.5-22.4-10.3c-5-1.2-10.1-1.7-15.2-1.7c-7.8,0-15.7,1.2-23.2,3.2
		c-19.9,5.2-38.7,17-64.3,27.9c-29.1,12.3-67.5,27.9-100.6,36.2c-6.1,1.5-11.9,2.7-17.3,3.9c-12.7,2.7-23.7,4.8-35.8,4.8
		c-5.3,0-10.8-0.4-16.8-1.3c-17.3-2.7-36.3-10.8-55.7-14.1c-5.9-1-11.9-1.6-18.1-1.6c-3.9,0-7.9,0.2-11.9,0.7
		c-20.4,2.5-38.3,11.2-53.5,23.4c-8,6.5-15.3,13.9-21.9,22c0.1-1.4,0.2-2.8,0.2-4.2c6.7-8.9,14.3-17.1,22.7-24.2
		c14.9-12.5,32.5-21.3,52.7-23.8c3.8-0.5,7.6-0.7,11.4-0.7c6.2,0,12.3,0.6,18.3,1.7c19.2,3.5,38.1,11.9,55.6,15.4
		c8.6,1.7,16.3,2.4,23.8,2.4c9.8,0,19.2-1.2,29.7-2.9c5.5-0.9,11.4-1.9,17.6-3.3c33.5-7.4,72-23.6,100.7-37.1
		c25.7-12.1,44.3-25.5,64.3-32.3c9.2-3.2,19.1-5.2,28.9-5.2c3.4,0,6.9,0.3,10.3,0.8c7.9,1.3,15.7,4,23.3,8.9
		c15.1,9.8,25.5,27.6,32.7,48.9c7.2,21.3,11.3,46.1,13.9,69.9c3,27.4,6.7,56,17.8,81.9c9.6,22.4,25.1,33.4,43,42.6
		c12.5,6.4,25.4,12.3,35.1,24.4c7.5,9.3,14.1,18.1,17.2,29.2c1.4,4.8,2,9.7,2,14.6c0,6.5-1.1,13.1-3.1,19.7
		c-4.4,5.2-8.5,10.6-12.1,16.3C845.9,364,848,354.8,848,345.7z M896.4,335.2c-2.2,1.3-4.4,2.7-6.5,4c0.7-1.4,1.5-2.8,2.2-4.2
		c2.3-1.4,4.6-2.8,6.9-4.1C898.2,332.4,897.3,333.8,896.4,335.2z M900.6,329.9c2.1-1.2,4.2-2.5,6.3-3.7c-0.9,1.4-1.8,2.8-2.7,4.2
		c-2,1.2-4,2.5-6,3.7C899.1,332.7,899.9,331.3,900.6,329.9z M888.2,340.4c-2.4,1.5-4.7,3-7.1,4.5c0.7-1.4,1.3-2.8,1.9-4.1
		c2.4-1.6,4.9-3.2,7.4-4.7C889.7,337.5,889,338.9,888.2,340.4z M887.1,342.2c-0.8,1.4-1.7,2.8-2.6,4.2c-2.2,1.4-4.4,2.9-6.6,4.3
		c0.8-1.3,1.5-2.7,2.2-4.1C882.5,345.2,884.8,343.7,887.1,342.2z M876.1,352c-2.4,1.6-4.8,3.3-7.2,5c0.7-1.3,1.3-2.6,2-3.9
		c2.5-1.8,5-3.6,7.5-5.3C877.7,349.2,876.9,350.6,876.1,352z M865.9,360.5c-0.8,1.3-1.6,2.7-2.4,4c-2.6,1.9-5.1,3.9-7.5,5.9
		c0.7-1.2,1.3-2.3,2-3.5C860.5,364.7,863.2,362.6,865.9,360.5z M859.2,364.6c0.6-1.2,1.1-2.3,1.7-3.5c2.7-2.3,5.5-4.6,8.3-6.7
		c-0.7,1.3-1.4,2.7-2.1,4C864.4,360.4,861.7,362.4,859.2,364.6z M867.8,359.1c2.3-1.7,4.7-3.4,7.1-5c-0.8,1.4-1.7,2.7-2.6,4.1
		c-2.3,1.6-4.5,3.2-6.7,4.8C866.4,361.6,867.1,360.3,867.8,359.1z M870.1,352.4c-2.8,2.1-5.6,4.2-8.3,6.5c0.5-1.1,1-2.3,1.4-3.4
		c1.1-0.9,2.1-1.8,3.2-2.7c1.8-1.5,3.6-2.9,5.5-4.3C871.3,349.8,870.7,351.1,870.1,352.4z M862.4,355c-3.4,3-6.6,6.2-9.7,9.5
		c0.3-0.8,0.6-1.6,0.9-2.4c3.1-3.6,6.5-7,10-10.3C863.2,352.8,862.8,353.9,862.4,355z M861.5,357.1c-0.5,1.1-1,2.3-1.5,3.4
		c-0.2,0.2-0.4,0.3-0.5,0.5c-3.2,2.8-6.2,5.7-9,8.8c0.4-0.8,0.8-1.7,1.1-2.5C854.7,363.7,858,360.3,861.5,357.1z M858.9,362.8
		c-0.6,1.2-1.2,2.3-1.8,3.5c-1.3,1.2-2.7,2.3-4,3.6c-1.9,1.7-3.7,3.6-5.4,5.4c0.4-0.8,0.8-1.6,1.2-2.4
		C852.1,369.3,855.4,365.9,858.9,362.8z M853.8,370.5c0.6-0.6,1.3-1.2,1.9-1.7c-0.7,1.2-1.4,2.4-2.1,3.6c-2.4,2-4.6,4.1-6.8,6.3
		c-0.9,0.9-1.7,1.7-2.5,2.6c0.5-0.8,0.9-1.5,1.3-2.3C848.3,376.1,851,373.2,853.8,370.5z M847.6,379.4c1.4-1.4,2.8-2.8,4.3-4.1
		c-0.7,1.2-1.5,2.3-2.3,3.5c-3.2,2.8-6.2,5.7-9.1,8.8c-0.1,0.1-0.2,0.2-0.2,0.3c0.3-0.5,0.7-1,1-1.6
		C843.3,383.9,845.4,381.6,847.6,379.4z M850.4,379.5c2.3-2,4.6-3.9,7-5.8c-0.9,1.2-1.8,2.5-2.7,3.7c-2.2,1.8-4.4,3.6-6.5,5.4
		C848.9,381.6,849.6,380.5,850.4,379.5z M852.3,376.4c0.7-1.1,1.4-2.3,2.1-3.4c2.4-2.1,4.9-4.1,7.5-6.1c-0.8,1.3-1.7,2.6-2.6,3.8
		C857,372.6,854.6,374.5,852.3,376.4z M860.1,371.5c1.9-1.5,3.8-2.9,5.8-4.4c-0.9,1.2-1.9,2.4-2.8,3.5c-1.8,1.4-3.6,2.8-5.4,4.2
		C858.5,373.7,859.3,372.6,860.1,371.5z M861.9,368.8c0.8-1.2,1.6-2.4,2.4-3.7c2.1-1.6,4.3-3.2,6.5-4.7c-0.9,1.3-1.8,2.6-2.7,3.8
		C865.9,365.8,863.9,367.3,861.9,368.8z M873,358.8c1.9-1.3,3.8-2.6,5.7-3.9c-0.9,1.2-1.8,2.4-2.8,3.6c-1.8,1.3-3.6,2.6-5.4,3.9
		C871.4,361.2,872.2,360,873,358.8z M874.5,356.6c0.8-1.3,1.6-2.6,2.4-3.9c2.1-1.4,4.2-2.8,6.4-4.2c-0.9,1.4-1.8,2.7-2.7,4
		C878.5,353.9,876.5,355.2,874.5,356.6z M885.3,347.1c1.9-1.2,3.8-2.5,5.7-3.7c-0.9,1.3-1.9,2.5-2.8,3.8c-1.8,1.2-3.6,2.5-5.4,3.7
		C883.7,349.7,884.5,348.4,885.3,347.1z M886.6,345.1c0.8-1.3,1.6-2.7,2.4-4.1c2.1-1.3,4.2-2.6,6.3-3.9c-0.9,1.4-1.8,2.7-2.7,4.1
		C890.5,342.5,888.5,343.8,886.6,345.1z M897.2,336c1.9-1.2,3.8-2.3,5.7-3.5c-0.9,1.3-1.8,2.6-2.8,3.8c-1.8,1.2-3.6,2.4-5.4,3.6
		C895.6,338.6,896.4,337.3,897.2,336z M905,331.1c1.7-1,3.3-2.1,5-3.2c-0.9,1.2-1.8,2.3-2.7,3.4c-1.6,1.1-3.2,2.2-4.7,3.3
		C903.4,333.5,904.2,332.3,905,331.1z M906.3,329.1c0.8-1.3,1.7-2.6,2.5-4c1.9-1.1,3.8-2.3,5.8-3.4c-0.9,1.3-1.8,2.6-2.8,3.9
		C910,326.8,908.2,328,906.3,329.1z M916.6,320.5c1.7-1,3.4-2.1,5.1-3.1c-0.9,1.2-1.8,2.3-2.7,3.5c-1.6,1.1-3.2,2.2-4.8,3.2
		C915,322.9,915.8,321.7,916.6,320.5z M917.8,318.6c0.8-1.3,1.7-2.7,2.4-4c1.9-1.1,3.9-2.2,5.8-3.3c-0.9,1.3-1.8,2.6-2.8,3.9
		C921.5,316.4,919.7,317.5,917.8,318.6z M915.9,319.8c-2,1.2-4,2.4-6,3.6c0.8-1.4,1.6-2.8,2.3-4.2c2.1-1.2,4.3-2.4,6.4-3.6
		C917.7,317,916.8,318.4,915.9,319.8z M908.1,324.4c-2.2,1.3-4.4,2.6-6.6,3.8c0.7-1.4,1.4-2.9,2.1-4.3c2.3-1.3,4.6-2.6,6.9-3.9
		C909.7,321.5,908.9,323,908.1,324.4z M899.9,329.2c-2.4,1.4-4.7,2.8-7.1,4.2c0.7-1.4,1.3-2.9,1.9-4.3c2.5-1.5,4.9-2.9,7.4-4.3
		C901.4,326.3,900.7,327.8,899.9,329.2z M891.3,334.4c-2.5,1.5-5.1,3.1-7.5,4.7c0.6-1.4,1.1-2.7,1.6-4.1c2.6-1.7,5.2-3.3,7.9-5
		C892.6,331.5,892,332.9,891.3,334.4z M882.2,340.1c-2.7,1.8-5.4,3.6-8.1,5.5c0.5-1.3,0.9-2.5,1.4-3.8c2.7-2,5.5-4,8.4-5.9
		C883.4,337.3,882.8,338.7,882.2,340.1z M881.5,341.8c-0.6,1.4-1.3,2.8-2,4.2c-2.6,1.7-5.1,3.5-7.6,5.3c0.6-1.3,1.2-2.6,1.7-3.9
		C876.1,345.4,878.8,343.6,881.5,341.8z M872.7,346.7c-2.3,1.7-4.6,3.5-6.9,5.3c-0.6,0.5-1.2,1-1.8,1.5c0.4-1.1,0.8-2.2,1.1-3.2
		c2.5-2.2,5-4.3,7.6-6.4c0.5-0.4,0.9-0.7,1.4-1.1C873.7,344.2,873.2,345.4,872.7,346.7z M864.3,349.8c-3.4,3.1-6.7,6.4-9.8,9.8
		c0.3-0.8,0.5-1.6,0.8-2.4c3.1-3.6,6.5-7.1,9.9-10.4C864.9,347.7,864.6,348.7,864.3,349.8z M853.6,359.1c-0.3,0.8-0.5,1.6-0.8,2.4
		c-4.4,5-8.4,10.3-11.9,15.9C844.5,371,848.8,364.9,853.6,359.1z M851.7,364.3c-0.3,0.8-0.7,1.6-1,2.4c-3.9,4.4-7.5,9.1-10.8,14.1
		C843.4,375,847.4,369.5,851.7,364.3z M849.3,369.9c-0.4,0.8-0.8,1.6-1.2,2.4c-3.1,3.5-6,7.2-8.7,11.1
		C842.4,378.7,845.7,374.2,849.3,369.9z M846.1,376.2c-0.4,0.7-0.8,1.5-1.2,2.2c-2,2.3-4,4.8-5.8,7.3
		C841.2,382.5,843.6,379.3,846.1,376.2z M841.4,384.2c-0.3,0.5-0.6,1-0.9,1.5c-0.7,0.8-1.3,1.6-2,2.5
		C839.5,386.8,840.4,385.5,841.4,384.2z M841.3,388.3c1.9-2,3.8-4,5.8-5.9c-0.8,1.1-1.6,2.2-2.4,3.3c-2.9,2.6-5.6,5.3-8.2,8.1
		C838.1,391.9,839.6,390.1,841.3,388.3z M835,397.1c1.8-2.1,3.7-4.2,5.7-6.2c-0.7,0.9-1.4,1.8-2.2,2.7c0,0,0,0.1-0.1,0.1
		c-1.3,1.3-2.6,2.6-3.8,3.9C834.7,397.4,834.9,397.3,835,397.1z M842.5,391.8c-1.6,1.4-3.1,2.8-4.6,4.2c0.5-0.5,0.9-1.1,1.4-1.6
		c1.7-1.7,3.5-3.3,5.4-5C843.9,390.2,843.2,391,842.5,391.8z M843.4,389.1c0.7-0.9,1.4-1.8,2.1-2.8c2.1-1.9,4.2-3.7,6.4-5.5
		c-0.9,1.1-1.8,2.2-2.8,3.3C847.1,385.8,845.2,387.5,843.4,389.1z M851.1,384.2c-0.9,0.8-1.9,1.6-2.8,2.4c0.3-0.4,0.6-0.7,1-1.1
		c0.2-0.2,0.3-0.4,0.5-0.6c1-0.8,2-1.7,3-2.5C852.2,383,851.7,383.6,851.1,384.2z M858,378.1c0,0,0.1-0.1,0.1-0.1
		c0.1-0.1,0.3-0.2,0.4-0.3C858.4,377.8,858.2,378,858,378.1z M858.5,376.1c-0.3,0.4-0.7,0.8-1,1.2c-1.4,1.2-2.9,2.4-4.3,3.5
		c0.7-0.9,1.5-1.9,2.2-2.8c1.6-1.3,3.2-2.5,4.8-3.8C859.6,374.8,859.1,375.5,858.5,376.1z M865,371.1c-1,0.8-2,1.6-3,2.4
		c0.6-0.7,1.2-1.4,1.8-2.2c1.1-0.8,2.2-1.7,3.3-2.5C866.4,369.6,865.7,370.3,865,371.1z M872,365.2c-0.3,0.3-0.7,0.6-1,0.9
		c0.2-0.2,0.4-0.4,0.5-0.6c0.3-0.3,0.7-0.5,1-0.8C872.3,364.8,872.2,365,872,365.2z M870.9,364.7c-1.5,1.2-3,2.3-4.5,3.4
		c0.8-1,1.6-2.1,2.3-3.1c1.6-1.2,3.2-2.3,4.8-3.5C872.7,362.6,871.8,363.6,870.9,364.7z M878.5,358.6c-0.2,0.2-0.3,0.3-0.5,0.5
		c-1.1,0.9-2.2,1.7-3.3,2.6c0.7-0.8,1.3-1.6,1.9-2.4c1.2-0.9,2.4-1.7,3.6-2.6C879.7,357.3,879.1,357.9,878.5,358.6z M884.7,353.6
		c-0.5,0.4-0.9,0.8-1.4,1.2c0.3-0.3,0.6-0.6,0.8-1c0.5-0.4,1-0.7,1.4-1.1C885.3,353,885,353.3,884.7,353.6z M883.4,353
		c-1.5,1.1-3.1,2.3-4.6,3.4c0.8-1.1,1.6-2.1,2.4-3.2c1.6-1.1,3.2-2.2,4.9-3.3C885.2,351,884.3,352,883.4,353z M890.4,347.7
		c-1.2,0.9-2.4,1.8-3.5,2.7c0.7-0.8,1.3-1.7,2-2.5c1.3-0.9,2.5-1.8,3.8-2.6C891.9,346.1,891.2,346.9,890.4,347.7z M897,342.5
		c-0.6,0.5-1.2,1-1.8,1.5c0.3-0.4,0.6-0.7,1-1.1c0.6-0.4,1.2-0.9,1.8-1.3C897.6,341.8,897.3,342.2,897,342.5z M895.5,342.1
		c-1.6,1.1-3.1,2.2-4.7,3.3c0.8-1.1,1.6-2.3,2.4-3.4c1.6-1.1,3.3-2.1,5-3.2C897.3,339.9,896.4,341,895.5,342.1z M902.4,337
		c-1.2,0.9-2.5,1.9-3.7,2.8c0.7-0.9,1.4-1.8,2.1-2.7c1.3-0.9,2.6-1.8,4-2.7C904,335.2,903.2,336.1,902.4,337z M908.9,331.8
		c-0.7,0.6-1.4,1.1-2.1,1.7c0.4-0.5,0.8-1,1.2-1.4c0.7-0.5,1.5-1,2.2-1.6C909.8,331,909.3,331.4,908.9,331.8z M914.2,326.4
		c-1.3,1-2.5,1.9-3.8,2.8c0.7-0.9,1.5-1.9,2.2-2.8c1.4-0.9,2.7-1.8,4.1-2.7C915.8,324.6,915,325.5,914.2,326.4z M920.7,321.3
		c-0.8,0.7-1.6,1.3-2.5,2c0.5-0.5,0.9-1.1,1.3-1.6c0.8-0.6,1.7-1.2,2.5-1.8C921.7,320.4,921.2,320.8,920.7,321.3z M925.8,316.1
		c-1.3,1-2.7,1.9-4,2.9c0.8-1,1.5-1.9,2.2-2.9c1.4-0.9,2.8-1.8,4.2-2.7C927.4,314.2,926.6,315.1,925.8,316.1z M925.5,313.8
		c0.8-1.2,1.7-2.4,2.5-3.7c1.7-1,3.5-2,5.2-3.1c-0.9,1.2-1.8,2.4-2.8,3.5C928.8,311.7,927.2,312.8,925.5,313.8z M932.3,311.1
		c-0.9,0.7-1.7,1.4-2.6,2c0.5-0.6,1-1.2,1.4-1.7c0.9-0.6,1.8-1.2,2.7-1.8C933.3,310.1,932.8,310.6,932.3,311.1z M939.7,303.1
		c-0.8,1-1.6,1.9-2.5,2.8c-1.3,1-2.7,1.9-4,2.8c0.8-1,1.5-2,2.3-3C936.9,304.9,938.3,304,939.7,303.1z M931.6,304.3
		c2-1.1,4-2.2,5.9-3.3c-0.9,1.4-1.8,2.7-2.7,4c-1.9,1.1-3.7,2.2-5.6,3.3C930,307,930.8,305.6,931.6,304.3z M923.5,308.6
		c2.1-1.1,4.3-2.3,6.4-3.4c-0.8,1.4-1.7,2.9-2.6,4.3c-2,1.2-4,2.3-6.1,3.5C922,311.5,922.8,310.1,923.5,308.6z M915,313.1
		c2.3-1.2,4.6-2.5,7-3.7c-0.8,1.5-1.6,3-2.4,4.4c-2.2,1.2-4.4,2.5-6.6,3.7C913.7,316.1,914.3,314.6,915,313.1z M906.1,318
		c2.5-1.4,5-2.7,7.4-4.1c-0.7,1.5-1.4,3-2.2,4.5c-2.4,1.3-4.7,2.6-7.1,4C904.9,320.9,905.5,319.5,906.1,318z M896.8,323.3
		c2.6-1.6,5.2-3.1,7.9-4.6c-0.6,1.5-1.2,3-1.9,4.5c-2.5,1.4-5,2.9-7.5,4.4C895.8,326.2,896.4,324.7,896.8,323.3z M887.2,329.4
		c2.7-1.8,5.5-3.6,8.3-5.3c-0.5,1.5-1,2.9-1.6,4.3c-2.7,1.6-5.4,3.3-8,5C886.4,332.1,886.8,330.7,887.2,329.4z M877.1,336.5
		c0.6-0.5,1.2-1,1.9-1.4c2.3-1.7,4.5-3.3,6.9-4.8c-0.4,1.4-0.9,2.7-1.4,4.1c-2.9,1.9-5.7,3.8-8.5,5.9
		C876.5,338.9,876.8,337.7,877.1,336.5z M875.8,337.5c-0.3,1.2-0.7,2.4-1.1,3.7c-0.9,0.7-1.7,1.3-2.6,2c-2.2,1.7-4.3,3.5-6.4,5.3
		c0.3-1,0.6-2.1,0.9-3.1C869.6,342.6,872.7,340,875.8,337.5z M259.6,94.4c14.7-12.8,32.2-21.9,52.5-24.4c3.7-0.5,7.4-0.7,11.1-0.7
		c6.3,0,12.5,0.7,18.6,1.8c19.2,3.7,38,12.4,55.5,16.7c11.6,2.8,21.8,3.9,32,3.9c7.1,0,14.3-0.5,22-1.4c5.6-0.6,11.5-1.4,17.8-2.6
		c33.9-6.5,72.3-23.2,100.7-37.9C595.6,36.5,614,21.5,634.3,13c10.8-4.5,22.6-7.6,34.4-7.6c2,0,4,0.1,6,0.3
		c8.3,0.8,16.5,3.1,24.6,7.8c16.1,9.3,27.3,27,35.3,48.4c7.9,21.5,12.6,46.6,15.5,70.7c3.3,27.7,7.3,56.7,18.5,82.9
		c9.6,22.5,25,34.1,43.1,43.7c12.6,6.7,25.8,12.7,35.8,24.5c7.9,9.2,14.8,18,18.2,29.2c1.5,5.1,2.2,10.2,2.2,15.4
		c0,5.5-0.8,11.1-2.3,16.7c-3.4,3.2-6.7,6.5-9.8,10c1.6-6,2.6-12,2.6-17.9c0-5-0.6-10-2-14.8c-3.2-11.3-9.9-20.2-17.4-29.5
		c-9.8-12.3-22.9-18.2-35.4-24.6c-17.9-9.2-33.1-19.9-42.6-42.1c-11-25.7-14.8-54.2-17.7-81.6c-2.6-23.8-6.7-48.7-13.9-70.1
		c-7.3-21.4-17.7-39.4-33.1-49.4c-7.8-5.1-15.7-7.8-23.7-9.1c-3.5-0.6-7-0.8-10.4-0.8c-9.9,0-19.9,2.1-29.2,5.3
		c-20.2,6.9-38.8,20.4-64.4,32.4C539.9,66,501.4,82.1,468,89.5c-6.2,1.4-12,2.4-17.5,3.2c-10.5,1.7-19.8,2.9-29.5,2.9
		c-7.4,0-15.1-0.7-23.6-2.4c-17.3-3.5-36.2-11.9-55.6-15.4c-6-1.1-12.2-1.7-18.5-1.7c-3.8,0-7.6,0.2-11.5,0.7
		c-20.5,2.5-38.3,11.4-53.3,24c-8.1,6.8-15.5,14.7-22,23.2c0.1-1.3,0.1-2.6,0.2-4C243.4,110.6,251,101.9,259.6,94.4z M237.5,83.1
		c0.1-0.2,0.1-0.3,0.2-0.5c0,0.3,0,0.5-0.1,0.8c-0.1,0.2-0.1,0.3-0.2,0.5C237.5,83.6,237.5,83.4,237.5,83.1z M237,87.6
		c0.1-0.3,0.2-0.6,0.4-0.9c0,0.5-0.1,1-0.1,1.5c-0.1,0.3-0.3,0.6-0.4,0.9C236.9,88.6,237,88.1,237,87.6z M236.6,92.3
		c0.2-0.4,0.3-0.8,0.5-1.2c0,0.7-0.1,1.3-0.1,2c-0.2,0.4-0.4,0.8-0.6,1.2C236.5,93.6,236.5,93,236.6,92.3z M236.2,97.1
		c0.2-0.5,0.5-1,0.7-1.5c0,0.8-0.1,1.6-0.1,2.4c-0.2,0.5-0.5,0.9-0.7,1.4C236.1,98.7,236.1,97.9,236.2,97.1z M236.6,100.5
		c0,0.9-0.1,1.9-0.1,2.8c-0.3,0.5-0.6,1-0.9,1.6c0.1-0.9,0.1-1.8,0.2-2.7C236.1,101.6,236.3,101,236.6,100.5z M235.5,91.6
		c0-0.1,0.1-0.3,0.1-0.4c0,0.3-0.1,0.6-0.1,0.8c-0.1,0.1-0.1,0.3-0.2,0.4C235.5,92.2,235.5,91.9,235.5,91.6z M236.4,105.5
		c0,1-0.1,2.1-0.1,3.1c-0.3,0.6-0.7,1.1-1,1.7c0.1-1,0.1-2.1,0.2-3.1C235.7,106.6,236.1,106.1,236.4,105.5z M235,96.2
		c0.1-0.3,0.2-0.6,0.3-0.8c0,0.5-0.1,1-0.1,1.5c-0.1,0.3-0.3,0.6-0.4,0.8C234.9,97.2,234.9,96.7,235,96.2z M234.5,101
		c0.2-0.4,0.3-0.8,0.5-1.2c-0.1,0.7-0.1,1.4-0.2,2c-0.2,0.4-0.4,0.8-0.6,1.2C234.3,102.3,234.4,101.6,234.5,101z M233.9,105.9
		c0.2-0.5,0.4-0.9,0.7-1.4c-0.1,0.8-0.1,1.6-0.2,2.4c-0.2,0.5-0.5,0.9-0.7,1.4C233.8,107.5,233.9,106.7,233.9,105.9z M233.5,100.2
		c0-0.1,0.1-0.2,0.1-0.3c0,0.3-0.1,0.5-0.1,0.8c0,0.1-0.1,0.2-0.1,0.3C233.4,100.8,233.4,100.5,233.5,100.2z M233.5,110.9
		c0.3-0.5,0.5-1.1,0.8-1.6c-0.1,1-0.1,1.9-0.2,2.9c-0.3,0.5-0.6,1-0.9,1.5C233.3,112.8,233.4,111.9,233.5,110.9z M232.8,104.9
		c0.1-0.3,0.2-0.5,0.3-0.8c0,0.5-0.1,1-0.1,1.5c-0.1,0.3-0.2,0.5-0.4,0.8C232.7,105.9,232.7,105.4,232.8,104.9z M232.2,109.7
		c0.2-0.4,0.3-0.7,0.5-1.1c-0.1,0.7-0.1,1.3-0.2,2c-0.2,0.4-0.4,0.7-0.6,1.1C232,111.1,232.1,110.4,232.2,109.7z M232.2,113.4
		c-0.1,0.8-0.1,1.7-0.2,2.5c-0.2,0.4-0.5,0.9-0.7,1.3c0.1-0.8,0.2-1.6,0.3-2.5C231.8,114.3,232,113.8,232.2,113.4z M231.2,108.9
		c0-0.1,0-0.1,0.1-0.2c0,0.2-0.1,0.5-0.1,0.7c0,0.1-0.1,0.2-0.1,0.2C231.1,109.4,231.2,109.2,231.2,108.9z M231.8,118.4
		c-0.1,0.9-0.2,1.9-0.2,2.8c-0.3,0.5-0.6,1-0.9,1.5c0.1-0.9,0.2-1.8,0.3-2.8C231.3,119.4,231.5,118.9,231.8,118.4z M230.5,113.7
		c0.1-0.2,0.2-0.5,0.3-0.7c-0.1,0.5-0.1,1-0.2,1.5c-0.1,0.2-0.2,0.5-0.3,0.7C230.3,114.7,230.4,114.2,230.5,113.7z M229.8,118.6
		c0.2-0.3,0.3-0.7,0.5-1c-0.1,0.7-0.2,1.4-0.2,2c-0.2,0.3-0.4,0.7-0.5,1C229.6,120,229.7,119.3,229.8,118.6z M228.9,117.7
		C228.9,117.7,228.9,117.6,228.9,117.7c0,0.2,0,0.4-0.1,0.6c0,0,0,0.1-0.1,0.1C228.8,118.2,228.8,117.9,228.9,117.7z M229,123.7
		c0.2-0.4,0.4-0.9,0.7-1.3c-0.1,0.8-0.2,1.6-0.3,2.4c-0.2,0.4-0.5,0.9-0.7,1.3C228.8,125.3,228.9,124.5,229,123.7z M229.2,127.4
		c-0.1,0.9-0.2,1.9-0.3,2.8c-0.3,0.5-0.6,1-0.9,1.4c0.1-0.9,0.2-1.8,0.4-2.8C228.6,128.4,228.9,127.9,229.2,127.4z M228,122.5
		c0.1-0.2,0.2-0.4,0.3-0.6c-0.1,0.5-0.1,1-0.2,1.5c-0.1,0.2-0.2,0.4-0.3,0.6C227.9,123.5,227.9,123,228,122.5z M227.2,127.6
		c0.2-0.3,0.3-0.7,0.5-1c-0.1,0.7-0.2,1.3-0.3,2c-0.2,0.3-0.3,0.7-0.5,1C227,128.9,227.1,128.2,227.2,127.6z M226.3,127
		c0,0.1,0,0.2-0.1,0.3c0,0,0,0,0,0C226.2,127.2,226.3,127.1,226.3,127z M226.4,132.7c0.2-0.4,0.4-0.8,0.6-1.3
		c-0.1,0.8-0.2,1.6-0.3,2.4c-0.2,0.4-0.5,0.8-0.7,1.2C226.1,134.3,226.2,133.5,226.4,132.7z M225.4,131.5c0.1-0.2,0.2-0.3,0.2-0.5
		c-0.1,0.5-0.1,0.9-0.2,1.4c-0.1,0.2-0.2,0.4-0.3,0.6C225.2,132.5,225.3,132,225.4,131.5z M225.5,138c0.3-0.5,0.5-0.9,0.8-1.4
		c-0.1,0.9-0.2,1.9-0.4,2.8c-0.3,0.5-0.6,0.9-0.8,1.4C225.3,139.8,225.4,138.9,225.5,138z M224.4,136.6c0.1-0.3,0.3-0.6,0.4-0.9
		c-0.1,0.6-0.2,1.3-0.3,1.9c-0.2,0.3-0.3,0.6-0.5,0.9C224.2,137.9,224.3,137.3,224.4,136.6z M223.5,141.8c0.2-0.4,0.4-0.7,0.5-1.1
		c0,0,0.1-0.1,0.1-0.1c-0.1,0.8-0.2,1.6-0.4,2.4c-0.2,0.4-0.4,0.8-0.7,1.2C223.2,143.4,223.4,142.6,223.5,141.8z M222.6,140.6
		c0.1-0.1,0.1-0.3,0.2-0.4c-0.1,0.4-0.2,0.9-0.2,1.3c-0.1,0.2-0.2,0.3-0.2,0.5C222.4,141.5,222.5,141,222.6,140.6z M222.5,147.2
		c0.1-0.1,0.1-0.2,0.2-0.3c0.2-0.3,0.4-0.7,0.6-1c-0.1,0.9-0.3,1.8-0.4,2.8c-0.3,0.4-0.6,0.9-0.8,1.3
		C222.2,149,222.4,148.1,222.5,147.2z M221.5,145.8c0.1-0.3,0.3-0.5,0.4-0.8c-0.1,0.6-0.2,1.3-0.3,1.9c-0.2,0.3-0.3,0.6-0.5,0.9
		C221.3,147.1,221.4,146.4,221.5,145.8z M220.4,151.1c0.2-0.4,0.4-0.7,0.6-1.1c-0.1,0.8-0.3,1.5-0.4,2.3c0,0,0,0.1-0.1,0.1
		c-0.2,0.3-0.4,0.7-0.6,1C220.1,152.7,220.3,151.9,220.4,151.1z M219.6,149.8c0-0.1,0.1-0.2,0.1-0.3c-0.1,0.4-0.2,0.9-0.3,1.3
		c-0.1,0.1-0.1,0.2-0.2,0.4C219.4,150.7,219.5,150.2,219.6,149.8z M219.3,156.5c0.2-0.4,0.5-0.9,0.8-1.3c-0.2,0.9-0.3,1.8-0.5,2.7
		c-0.1,0.2-0.2,0.4-0.4,0.6c-0.2,0.2-0.3,0.5-0.4,0.7C219,158.3,219.2,157.4,219.3,156.5z M218.4,155.1c0.1-0.3,0.2-0.5,0.4-0.8
		c-0.1,0.6-0.2,1.2-0.4,1.8c-0.1,0.2-0.3,0.5-0.4,0.7C218.1,156.3,218.2,155.7,218.4,155.1z M218.2,162.1c0.3-0.5,0.6-1,0.9-1.5
		c-0.2,1-0.4,2-0.6,3c-0.2,0.3-0.4,0.6-0.6,0.9c-0.1,0.2-0.2,0.4-0.4,0.5C217.8,164.1,218,163.1,218.2,162.1z M217.2,160.5
		c0.2-0.4,0.4-0.7,0.6-1.1c-0.2,0.8-0.3,1.6-0.5,2.3c-0.2,0.3-0.4,0.7-0.6,1C216.8,162,217,161.2,217.2,160.5z M216.4,159.1
		c0-0.1,0.1-0.1,0.1-0.2c-0.1,0.4-0.2,0.8-0.3,1.2c0,0.1-0.1,0.2-0.1,0.3C216.2,160,216.3,159.5,216.4,159.1z M216.6,164.7
		c-0.2,0.9-0.4,1.8-0.6,2.8c-0.3,0.4-0.5,0.8-0.8,1.2c0.2-0.9,0.4-1.8,0.6-2.6C216.1,165.5,216.4,165.1,216.6,164.7z M215,164.4
		c0-0.1,0.1-0.1,0.1-0.2c0.1-0.1,0.2-0.3,0.2-0.4c-0.1,0.6-0.3,1.2-0.4,1.8c-0.1,0.2-0.2,0.4-0.4,0.7
		C214.7,165.6,214.9,165,215,164.4z M215.4,170.2c-0.2,1-0.5,2.1-0.7,3.1c-0.3,0.4-0.6,0.9-0.9,1.3c0.2-1,0.5-2,0.7-3
		C214.9,171.1,215.1,170.7,215.4,170.2z M213.7,169.9c0.2-0.3,0.3-0.6,0.5-0.9c-0.2,0.7-0.3,1.5-0.5,2.2c-0.2,0.3-0.4,0.6-0.6,0.9
		C213.3,171.4,213.5,170.6,213.7,169.9z M212.9,168.7C212.9,168.7,212.9,168.7,212.9,168.7c-0.1,0.2-0.1,0.5-0.2,0.8
		c0,0,0,0.1-0.1,0.1C212.7,169.3,212.8,169,212.9,168.7z M212.9,174.4c-0.2,0.9-0.4,1.7-0.6,2.6c-0.2,0.4-0.5,0.8-0.7,1.1
		c0.2-0.9,0.5-1.8,0.7-2.6C212.4,175.1,212.7,174.7,212.9,174.4z M211.4,174.1c0.1-0.2,0.2-0.3,0.3-0.5c-0.1,0.5-0.3,1-0.4,1.6
		c-0.1,0.1-0.2,0.2-0.2,0.4c0,0-0.1,0.1-0.1,0.1C211.1,175.1,211.3,174.6,211.4,174.1z M211.5,180c-0.2,1-0.5,2-0.8,3
		c-0.3,0.4-0.6,0.8-0.9,1.3c0.3-1,0.5-2,0.8-3C210.9,180.8,211.2,180.4,211.5,180z M209.8,179.6c0.2-0.3,0.3-0.6,0.5-0.8
		c-0.2,0.7-0.4,1.4-0.6,2.1c-0.1,0.2-0.2,0.3-0.3,0.5c-0.1,0.1-0.1,0.2-0.2,0.3C209.4,181,209.6,180.3,209.8,179.6z M210,185.8
		c-0.3,1.1-0.6,2.2-0.9,3.3c-0.3,0.4-0.6,0.9-1,1.3c0.3-1.1,0.6-2.2,0.9-3.3C209.4,186.7,209.7,186.3,210,185.8z M208.8,184.3
		c-0.2,0.8-0.5,1.6-0.7,2.5c-0.1,0.1-0.2,0.3-0.3,0.4c-0.1,0.2-0.3,0.4-0.4,0.6c0.2-0.8,0.5-1.6,0.7-2.4
		C208.4,185,208.6,184.6,208.8,184.3z M207.5,183.8c0.1-0.1,0.1-0.2,0.2-0.3c-0.1,0.5-0.3,1-0.4,1.4c-0.1,0.1-0.2,0.3-0.2,0.4
		C207.2,184.8,207.3,184.3,207.5,183.8z M207.2,190c-0.3,0.9-0.5,1.9-0.8,2.8c0,0.1-0.1,0.1-0.1,0.2c-0.2,0.3-0.5,0.7-0.7,1
		c0.3-0.9,0.6-1.9,0.9-2.8C206.7,190.8,206.9,190.4,207.2,190z M205.7,189.5c0.1-0.2,0.3-0.5,0.4-0.7c-0.2,0.7-0.4,1.3-0.6,2
		c-0.1,0.2-0.3,0.4-0.4,0.7C205.3,190.8,205.5,190.2,205.7,189.5z M205.4,196c-0.3,1.1-0.7,2.1-1,3.2c-0.3,0.4-0.6,0.8-0.9,1.2
		c0.3-1,0.7-2.1,1-3.1C204.8,196.8,205.1,196.4,205.4,196z M203.8,195.3c0.2-0.3,0.4-0.6,0.6-0.9c-0.3,0.8-0.5,1.6-0.8,2.4
		c-0.2,0.3-0.4,0.6-0.6,0.8C203.3,196.9,203.6,196.1,203.8,195.3z M203.2,193.8c0-0.1,0.1-0.1,0.1-0.2c-0.1,0.4-0.3,0.8-0.4,1.3
		c0,0.1-0.1,0.1-0.1,0.2C202.9,194.7,203.1,194.2,203.2,193.8z M202.5,200.3c-0.3,0.9-0.6,1.9-0.9,2.8c-0.2,0.3-0.5,0.6-0.7,0.9
		c0.3-0.9,0.6-1.8,0.9-2.7C202,201,202.3,200.6,202.5,200.3z M201.2,199.6c0.1-0.2,0.2-0.3,0.3-0.5c-0.2,0.6-0.4,1.2-0.6,1.9
		c-0.1,0.2-0.2,0.3-0.3,0.5C200.8,200.8,201,200.2,201.2,199.6z M200.4,206.4c-0.4,1-0.7,2.1-1.1,3.1c-0.3,0.3-0.5,0.7-0.8,1
		c0.4-1,0.8-2,1.1-3C199.9,207.2,200.1,206.8,200.4,206.4z M198.5,215.7c-0.6,1.4-1.2,2.9-1.8,4.3c-0.3,0.4-0.6,0.7-0.9,1.1
		c0.6-1.4,1.1-2.7,1.7-4.1C197.9,216.5,198.2,216.1,198.5,215.7z M199.1,205.5c0.2-0.2,0.3-0.5,0.5-0.7c-0.3,0.8-0.6,1.5-0.8,2.3
		c-0.2,0.2-0.3,0.4-0.5,0.7C198.5,207,198.8,206.3,199.1,205.5z M196.6,216.4c-0.3,0.4-0.6,0.7-0.8,1.1c0.5-1.1,0.9-2.3,1.4-3.4
		c0.3-0.4,0.6-0.8,0.8-1.1C197.6,214.1,197.1,215.3,196.6,216.4z M197.3,210.9c-0.3,0.9-0.7,1.8-1,2.7c-0.2,0.3-0.4,0.5-0.6,0.7
		c0.3-0.9,0.7-1.7,1-2.6C196.9,211.5,197.1,211.2,197.3,210.9z M196.3,209.9c0-0.1,0.1-0.1,0.1-0.2c-0.2,0.5-0.4,1.1-0.6,1.6
		c-0.1,0.1-0.1,0.2-0.2,0.3C195.9,211,196.1,210.4,196.3,209.9z M197.6,220.5c0.4-0.4,0.7-0.8,1.1-1.2c-0.7,1.7-1.5,3.3-2.2,4.9
		c-0.3,0.3-0.6,0.7-1,1C196.2,223.7,196.9,222.1,197.6,220.5z M193.9,216.1c0.1-0.1,0.2-0.3,0.3-0.4c-0.3,0.7-0.6,1.4-0.9,2.1
		c-0.1,0.1-0.2,0.3-0.3,0.4C193.3,217.5,193.6,216.8,193.9,216.1z M194.2,218.2c0.2-0.3,0.4-0.6,0.6-0.9c-0.4,1-0.8,2-1.3,3.1
		c-0.2,0.3-0.4,0.5-0.6,0.8C193.3,220.2,193.7,219.2,194.2,218.2z M194.4,220.9c0.3-0.4,0.6-0.7,0.8-1.1c-0.6,1.3-1.1,2.6-1.7,3.9
		c-0.3,0.3-0.5,0.6-0.8,0.9C193.3,223.4,193.9,222.2,194.4,220.9z M194.4,224.3c0.3-0.4,0.6-0.8,0.9-1.1c-0.7,1.6-1.4,3.1-2.2,4.7
		c-0.3,0.3-0.6,0.6-0.8,0.9C193,227.3,193.7,225.8,194.4,224.3z M191.1,222.6c0.1-0.2,0.2-0.4,0.4-0.5c-0.4,0.9-0.7,1.7-1.1,2.6
		c-0.1,0.2-0.2,0.3-0.3,0.5C190.4,224.2,190.7,223.4,191.1,222.6z M191.2,225.1c0.2-0.3,0.4-0.6,0.6-0.9c-0.5,1.2-1,2.3-1.6,3.5
		c-0.2,0.2-0.4,0.5-0.6,0.7C190.2,227.3,190.7,226.2,191.2,225.1z M191.2,228.2c0.3-0.3,0.5-0.7,0.8-1c-0.7,1.5-1.4,2.9-2.1,4.4
		c-0.2,0.2-0.4,0.5-0.6,0.7C189.8,231,190.5,229.6,191.2,228.2z M188,227C188,227,188,227,188,227c-0.3,0.6-0.6,1.3-0.9,1.9
		c0,0,0,0,0,0C187.4,228.3,187.7,227.7,188,227z M188,229.4c0.1-0.2,0.3-0.4,0.4-0.5c-0.5,1-0.9,2-1.4,2.9c-0.1,0.1-0.2,0.3-0.3,0.4
		C187.1,231.3,187.6,230.4,188,229.4z M187.8,232.4c0.2-0.2,0.4-0.5,0.6-0.7c-0.7,1.3-1.3,2.7-2,4c-0.1,0.2-0.3,0.3-0.4,0.5
		C186.6,234.9,187.2,233.7,187.8,232.4z M184.7,234C184.7,234,184.7,234,184.7,234c-0.2,0.4-0.5,0.9-0.7,1.4
		C184.2,234.9,184.5,234.4,184.7,234z M184.4,236.8c0.1-0.1,0.2-0.2,0.3-0.3c-0.6,1.2-1.2,2.3-1.9,3.5c0,0-0.1,0.1-0.1,0.1
		C183.2,239,183.8,237.9,184.4,236.8z M183.6,240.6c0.1-0.1,0.2-0.2,0.3-0.3c-0.6,1.1-1.2,2.1-1.8,3.2c-0.1,0.2-0.3,0.4-0.4,0.6
		C182.3,242.9,183,241.7,183.6,240.6z M164.2,268.6c0.8-0.8,1.7-1.6,2.5-2.5c1.1-1,2.2-2.1,3.2-3.1c0.6-0.6,1.3-1.2,1.9-1.8
		c-7.4,7.9-14.7,15.9-22,24C154.7,279.6,159.4,274.1,164.2,268.6z"/>
	<path d="M835.1,2.6c7.4,30.9,13.8,64.1,26.4,93.4c9.9,23.1,23.9,42.4,44.2,56.5c10.7,7.4,22.9,13.2,34.3,19.7V171
		c-11.4-6.4-23.3-12.2-33.8-19.4c-20.1-14-33.9-33.1-43.8-56.1c-12.5-29.1-19-62.3-26.3-93.2c-0.2-0.8-0.4-1.6-0.6-2.3h-1
		C834.7,0.9,834.9,1.7,835.1,2.6z"/>
	<path d="M486.6,57.2c-2.6,0-5.2-0.1-7.8-0.4c-7-0.7-13.6-2.2-20-4.3c-21.3-7.1-40.2-21.1-59.6-35.1c-8.4-6-16.9-12.1-25.5-17.4
		h-1.9c9.1,5.5,18,11.8,26.9,18.2c19.5,13.9,38.4,28,59.9,35.2c6.5,2.2,13.2,3.7,20.3,4.4c2.7,0.3,5.3,0.4,7.9,0.4
		c35.2,0,69.2-21.9,92.9-47.5c3.2-3.5,6.3-7.1,9.3-10.7h-1.3c-2.8,3.4-5.7,6.7-8.7,10C555.2,35.5,521.4,57.2,486.6,57.2z"/>
	<path d="M844.6,117.7c9.9,23,24.1,40.9,44,54.2c13.6,9,29.3,15.8,42.6,25.4c3.1,2.2,6,4.5,8.8,6.8v-1.3c-2.6-2.2-5.4-4.3-8.2-6.3
		c-13.5-9.7-29.2-16.5-42.6-25.4c-19.8-13.2-33.8-30.9-43.6-53.8c-12.3-28.5-18.3-60.9-24.9-91.3c-1.9-8.6-4.2-17.3-6.9-26h-1
		c2.7,8.7,5,17.5,6.9,26.2C826.3,56.5,832.3,89,844.6,117.7z"/>
	<path d="M827.4,14.4c7,30.6,13.2,63.5,25.7,92.4c9.9,23.1,24,41.7,44.1,55.4c13.5,9.2,29.3,16,42.9,25.2v-1.2
		c-13.6-9.1-29.1-15.9-42.3-24.8c-19.9-13.6-33.9-32-43.7-54.9c-12.4-28.8-18.6-61.6-25.6-92.3c-1.1-4.7-2.3-9.4-3.6-14.2h-1
		C825.1,4.8,826.3,9.6,827.4,14.4z"/>
</g>
</svg>
