<?xml version="1.0" encoding="utf-8"?>
<!-- Generator: Adobe Illustrator 19.2.0, SVG Export Plug-In . SVG Version: 6.00 Build 0)  -->
<svg version="1.1" xmlns="http://www.w3.org/2000/svg" xmlns:xlink="http://www.w3.org/1999/xlink" x="0px" y="0px"
	 viewBox="0 0 940 1329" style="enable-background:new 0 0 940 1329;" xml:space="preserve">
<style type="text/css">
	.st0{fill:#E2E2E2;}
</style>
<g id="Layer_13">
	<path class="st0" d="M659.8,1064c0,0.5,2.1,0.5,4.5,0.1c2.4-0.4,4.4-1.1,4.3-1.6c-0.1-0.5-2.1-0.5-4.5-0.1
		C661.7,1062.8,659.8,1063.5,659.8,1064z"/>
	<path class="st0" d="M595.5,1080.7c3.5-0.1,6.3-0.8,6.4-1.5c0-0.7-2.7-1.2-6.2-1.1c-3.5,0.1-6.3,0.7-6.4,1.4
		C589.2,1080.2,592,1080.8,595.5,1080.7z"/>
	<path class="st0" d="M548.8,1079.8c3.1,0.2,5.8-0.2,5.9-0.9c0.1-0.6-2.4-1.3-5.5-1.5c-3.1-0.2-5.7,0.1-5.8,0.8
		C543.3,1078.9,545.7,1079.6,548.8,1079.8z"/>
	<path class="st0" d="M635.4,1076.6c0,0.8,3,1,6.6,0.6c3.7-0.5,6.5-1.5,6.5-2.2c0-0.8-3-0.9-6.6-0.5
		C638.3,1075,635.4,1075.9,635.4,1076.6z"/>
	<path class="st0" d="M457.8,1063.7c-2.1-0.6-4-0.6-4.1-0.2c-0.2,0.4,1.4,1.2,3.6,1.8c2.1,0.5,4,0.6,4.1,0.1
		C461.6,1065,460,1064.2,457.8,1063.7z"/>
	<path class="st0" d="M681.5,1069.5c0.1,0.8,3.1,0.8,6.8,0c3.6-0.8,6.5-2.1,6.4-2.9c-0.1-0.8-3.2-0.7-6.8,0.1
		C684.2,1067.5,681.4,1068.8,681.5,1069.5z"/>
	<path class="st0" d="M812.5,1063.4c6.2-2.9,10.6-6.6,9.9-8.2c-0.7-1.5-6.1-0.3-12.2,2.6c-6.1,2.9-10.6,6.3-10,7.9
		C800.8,1067.3,806.4,1066.3,812.5,1063.4z"/>
	<path class="st0" d="M503.2,1072.6c-2.6-0.4-4.9-0.3-5.1,0.2c-0.2,0.6,1.9,1.4,4.6,1.8c2.7,0.4,5,0.3,5.1-0.3
		C507.9,1073.8,505.8,1073,503.2,1072.6z"/>
	<path class="st0" d="M691.5,1091.4c5.9-1.3,10.4-3.5,10.2-4.9c-0.2-1.4-5.1-1.3-10.9-0.1c-5.9,1.3-10.4,3.3-10.3,4.6
		C680.6,1092.4,685.6,1092.7,691.5,1091.4z"/>
	<path class="st0" d="M563.4,1089.5c-0.1,1,3.3,1.9,7.6,1.9c4.3,0.1,7.9-0.7,8-1.7c0.1-0.9-3.3-1.7-7.6-1.8
		C567.1,1087.8,563.6,1088.5,563.4,1089.5z"/>
	<path class="st0" d="M758.1,1096.1c-0.5-2-7.1-1.5-14.6,0.8c-7.5,2.3-13.3,5.7-12.9,7.7c0.5,2.1,7.1,2,14.8-0.4
		C753,1101.9,758.7,1098.1,758.1,1096.1z"/>
	<path class="st0" d="M610.4,1088.8c0,1,3.7,1.6,8.3,1.3c4.6-0.3,8.3-1.5,8.3-2.5c0-1-3.7-1.5-8.3-1.1
		C614.2,1086.8,610.5,1087.8,610.4,1088.8z"/>
	<path class="st0" d="M657.5,1083.9c0.1,1.1,4,1.4,8.8,0.6c4.8-0.8,8.5-2.4,8.4-3.4c-0.1-1.1-4.1-1.2-8.8-0.4
		C661.1,1081.5,657.4,1082.9,657.5,1083.9z"/>
	<path class="st0" d="M523.5,1088.3c3.9,0.4,7.2,0,7.4-0.8c0.1-0.9-2.9-1.8-6.8-2.3c-3.9-0.4-7.1-0.1-7.4,0.7
		C516.6,1086.8,519.6,1087.9,523.5,1088.3z"/>
	<path class="st0" d="M239.5,1048.5c-2.9-2-5.9-3-6.7-2.1c-0.8,0.9,0.9,3.3,3.9,5.3c2.9,2.1,5.9,3,6.7,2.1
		C244.2,1052.9,242.4,1050.6,239.5,1048.5z"/>
	<path class="st0" d="M476.7,1080.8c3.2,0.6,6,0.6,6.2-0.2c0.2-0.7-2.2-1.7-5.4-2.4c-3.2-0.6-5.9-0.6-6.2,0.1
		C471.1,1079,473.5,1080.1,476.7,1080.8z"/>
	<path class="st0" d="M594.5,1098.1c-5.7,0.2-10.4,1.3-10.5,2.6c-0.1,1.4,4.5,2.4,10.3,2.3c5.7-0.2,10.5-1.5,10.5-2.9
		C604.8,1098.8,600.2,1097.9,594.5,1098.1z"/>
	<path class="st0" d="M331.7,1052.3c-2.4-1.2-4.7-1.8-5.1-1.1c-0.4,0.6,1.2,2.1,3.7,3.3c2.4,1.2,4.7,1.7,5.1,1.1
		C335.8,1055,334.1,1053.5,331.7,1052.3z"/>
	<path class="st0" d="M508.3,1056c0,0-0.3-0.2-0.8-0.3c-0.5-0.1-0.9,0-0.9,0s0.4,0.2,0.8,0.3C507.9,1056.1,508.3,1056,508.3,1056z"
		/>
	<path class="st0" d="M413,1052c1.5,0.5,2.8,0.7,2.9,0.4c0.1-0.3-0.9-1-2.4-1.5c-1.5-0.5-2.8-0.7-2.9-0.4
		C410.5,1050.8,411.6,1051.5,413,1052z"/>
	<path class="st0" d="M793.9,1055.7c-0.5-1.2-5.1-0.3-10.3,1.9c-5.2,2.2-9.2,4.8-8.8,6.1c0.4,1.3,5.1,0.6,10.4-1.6
		C790.5,1059.8,794.3,1056.9,793.9,1055.7z"/>
	<path class="st0" d="M271.5,1050.5c-2.5-1.6-5.1-2.3-5.6-1.6c-0.6,0.7,1,2.6,3.5,4.2c2.6,1.6,5.1,2.3,5.7,1.6
		C275.7,1053.9,274.1,1052.1,271.5,1050.5z"/>
	<path class="st0" d="M870.8,1064.5c7.1-4.2,11.8-9.4,10.7-11.4c-1.2-2-7.6,0-14.7,4.1c-7,4.1-11.9,8.9-10.9,11
		C856.9,1070.2,863.6,1068.7,870.8,1064.5z"/>
	<path class="st0" d="M841,1064.2c6.6-3.5,11.2-7.9,10.3-9.6c-0.9-1.7-6.8-0.1-13.3,3.3c-6.5,3.4-11.3,7.5-10.5,9.3
		C828.3,1068.9,834.4,1067.7,841,1064.2z"/>
	<path class="st0" d="M438,1049.3c0,0,0.4,0.3,0.9,0.5c0.5,0.2,1,0.1,1,0.1s-0.3-0.3-0.9-0.5C438.5,1049.2,438,1049.3,438,1049.3z"
		/>
	<path class="st0" d="M683.2,1050.9c0,0.2,1.1,0.2,2.4-0.1c1.3-0.3,2.3-0.7,2.2-0.9c0-0.2-1.1-0.2-2.4,0.1
		C684.1,1050.2,683.1,1050.7,683.2,1050.9z"/>
	<path class="st0" d="M302.4,1051.4c-3-1.7-5.9-2.5-6.5-1.7c-0.6,0.8,1.4,2.9,4.4,4.6c3,1.7,5.9,2.4,6.5,1.6
		C307.4,1055.1,305.4,1053.1,302.4,1051.4z"/>
	<path class="st0" d="M901.9,1064.1c7.1-4.7,11.7-10.4,10.3-12.5c-1.4-2.1-8.1,0.1-15.1,4.7c-7,4.6-11.8,9.9-10.6,12.1
		C887.8,1070.5,894.8,1068.7,901.9,1064.1z"/>
	<path class="st0" d="M383.8,1051.4c-0.2,0.4,1,1.2,2.7,1.9c1.7,0.7,3.2,0.9,3.4,0.5c0.2-0.4-1-1.2-2.7-1.9
		C385.5,1051.3,384,1051.1,383.8,1051.4z"/>
	<path class="st0" d="M360,1052.2c-2.5-1.1-4.7-1.6-5.1-1c-0.3,0.6,1.4,2,3.8,3.1c2.5,1.1,4.8,1.5,5.1,0.9
		C364.2,1054.7,362.5,1053.4,360,1052.2z"/>
	<path class="st0" d="M713.4,1052.4c-0.1-0.5-2.2-0.3-4.6,0.3c-2.4,0.6-4.3,1.5-4.3,2c0.1,0.5,2.2,0.4,4.6-0.3
		C711.6,1053.8,713.5,1052.9,713.4,1052.4z"/>
	<path class="st0" d="M468.7,1146.4c-0.7,2.6,5.4,6,13.8,7.3c8.4,1.3,15.7,0.1,16.3-2.6c0.6-2.6-5.6-5.5-13.9-6.8
		C476.7,1143.1,469.4,1143.9,468.7,1146.4z"/>
	<path class="st0" d="M205.2,1046.7c-2.2-1.7-4.5-2.4-5.2-1.7c-0.7,0.7,0.5,2.7,2.7,4.4c2.2,1.7,4.5,2.4,5.2,1.7
		C208.6,1050.2,207.4,1048.3,205.2,1046.7z"/>
	<path class="st0" d="M830.3,1220.2c-1.7-5.1-11.9-5.6-23-1.7c-11,4-19,11-17.6,16.2c1.4,5.4,12,6.8,23.4,2.7
		C824.5,1233.4,832.1,1225.5,830.3,1220.2z"/>
	<path class="st0" d="M565.5,1144.6c8.2,0.2,15.1-1.9,15.3-4.2c0.2-2.4-6.3-4.2-14.4-4.3c-8.1-0.2-15,1.4-15.3,3.8
		C550.8,1142.1,557.2,1144.4,565.5,1144.6z"/>
	<path class="st0" d="M606.9,1125.1c0.1-2-6.1-3.3-13.7-3.1c-7.6,0.2-13.9,1.8-14.1,3.9c-0.1,2.1,6,3.8,13.7,3.6
		C600.5,1129.3,606.8,1127.2,606.9,1125.1z"/>
	<path class="st0" d="M499.9,1135.2c-0.5,2.2,5.2,4.8,12.9,5.7c7.6,0.8,14.2-0.4,14.6-2.7c0.4-2.2-5.4-4.4-13-5.2
		C506.9,1132.1,500.4,1133,499.9,1135.2z"/>
	<path class="st0" d="M832.1,1254.3c1.9,5.7,12.5,7.1,23.6,2.5c11.1-4.5,18.1-13.2,15.9-18.7c-2.2-5.4-12.5-5.9-23.2-1.5
		C837.7,1241,830.3,1248.7,832.1,1254.3z"/>
	<path class="st0" d="M633.9,1137.5c-0.1-2.4-7-3.7-15.4-3.1c-8.4,0.6-15.4,2.9-15.5,5.3c-0.1,2.5,6.8,4.2,15.4,3.6
		C627.1,1142.7,634,1140,633.9,1137.5z"/>
	<path class="st0" d="M686.3,1129.8c-0.3-2.4-7.4-3-16-1.6c-8.5,1.5-15.3,4.3-15.2,6.8c0.2,2.5,7.3,3.6,16,2.2
		C679.9,1135.8,686.7,1132.3,686.3,1129.8z"/>
	<path class="st0" d="M723.7,1175.7c-0.7-3.8-9.8-4.7-20.4-2.4c-10.6,2.2-18.9,6.8-18.4,10.6c0.4,3.9,9.6,5.6,20.5,3.3
		C716.2,1184.9,724.4,1179.6,723.7,1175.7z"/>
	<path class="st0" d="M646.8,1182.6c-10.6,1.2-19.3,5-19.2,8.9c0,3.9,8.9,6.5,19.8,5.2c10.9-1.3,19.4-5.8,19.2-9.7
		C666.2,1183.1,657.4,1181.3,646.8,1182.6z"/>
	<path class="st0" d="M636.3,1170.9c-0.1-3.3-8.1-5.1-17.9-4.4c-9.8,0.7-17.9,3.6-18,6.9c-0.1,3.3,7.9,5.8,17.9,5.1
		C628.3,1177.8,636.3,1174.2,636.3,1170.9z"/>
	<path class="st0" d="M896.5,1226.5c2.4,5.3,12.7,5.6,23,0.2c10.2-5.4,16.2-14.2,13.5-19.3c-2.6-5-12.6-4.5-22.5,0.7
		C900.5,1213.3,894.2,1221.4,896.5,1226.5z"/>
	<path class="st0" d="M851.9,1211.3c1.9,5,12.3,5.4,23,0.4c10.7-5,17.4-13.4,15.1-18.3c-2.2-4.7-12.2-4.3-22.6,0.5
		C857.1,1198.9,850,1206.4,851.9,1211.3z"/>
	<path class="st0" d="M757.1,1189.4c-1-4.3-10.6-5-21.7-2.2c-11,2.9-19.5,8.3-18.8,12.7c0.8,4.5,10.6,6.1,22,3.2
		C749.9,1200.1,758.1,1193.8,757.1,1189.4z"/>
	<path class="st0" d="M792.1,1204.3c-1.3-4.7-11.2-5.3-22.2-1.9c-11,3.3-19.2,9.6-18.2,14.3c1.1,4.8,11.2,6.4,22.5,2.9
		C785.5,1216.1,793.5,1209,792.1,1204.3z"/>
	<path class="st0" d="M536,1099c-0.2,1.3,4,2.7,9.4,3c5.4,0.3,10-0.5,10.2-1.8c0.2-1.3-4.1-2.5-9.5-2.8
		C540.8,1097.1,536.2,1097.7,536,1099z"/>
	<path class="st0" d="M460.8,1099.9c-0.4,1.3,3.4,3.3,8.7,4.4c5.2,1.1,9.8,0.8,10.2-0.6c0.4-1.3-3.5-3.1-8.7-4.2
		C465.7,1098.5,461.2,1098.6,460.8,1099.9z"/>
	<path class="st0" d="M655.7,1107.3c0.1,1.7,5.9,2.4,12.8,1.2c6.9-1.1,12.3-3.7,12.1-5.4c-0.2-1.7-5.9-2-12.7-0.9
		C661.1,1103.4,655.6,1105.6,655.7,1107.3z"/>
	<path class="st0" d="M814,1169.8c-1.4-4.1-11-3.9-21.6-0.1c-10.6,3.8-18.4,9.9-17.3,14.1c1.2,4.3,11,5,21.9,1.1
		C807.9,1180.9,815.4,1174,814,1169.8z"/>
	<path class="st0" d="M632.3,1098.1c0,1.4,4.9,2.1,10.7,1.4c5.9-0.7,10.5-2.5,10.5-3.9c-0.1-1.4-4.9-1.8-10.7-1.1
		C637,1095.1,632.3,1096.7,632.3,1098.1z"/>
	<path class="st0" d="M488.9,1093c-0.3,1.1,3.3,2.8,8.2,3.5c4.9,0.7,9,0.4,9.3-0.8c0.3-1.1-3.4-2.6-8.2-3.3
		C493.3,1091.7,489.2,1091.9,488.9,1093z"/>
	<path class="st0" d="M729.5,1091.5c-0.4-1.7-6.2-1.5-12.9,0.3c-6.8,1.8-12,4.4-11.8,6.2c0.3,1.7,6.2,1.8,13,0
		C724.6,1096.2,729.8,1093.2,729.5,1091.5z"/>
	<path class="st0" d="M870.7,1171.7c1.9,4.2,11.6,3.8,21.5-1.4c9.9-5.2,16-13.1,13.9-17.2c-2.1-4-11.4-2.8-21.1,2.2
		C875.4,1160.5,868.9,1167.6,870.7,1171.7z"/>
	<path class="st0" d="M479.1,1117.1c-0.5,1.8,4.6,4.3,11.4,5.4c6.8,1,12.7,0.3,13.1-1.6c0.4-1.8-4.7-3.9-11.5-5
		C485.4,1114.9,479.6,1115.3,479.1,1117.1z"/>
	<path class="st0" d="M568.5,1115.6c6.4,0.1,11.7-1.2,11.9-2.9c0.1-1.6-4.9-2.8-11.3-3c-6.4-0.1-11.7,1-11.9,2.6
		C557,1114,562.1,1115.5,568.5,1115.6z"/>
	<path class="st0" d="M528.7,1123.8c-0.4,2,5.3,4.2,12.7,4.6c7.4,0.5,13.6-0.9,13.8-2.9c0.2-2-5.5-3.7-12.7-4.2
		C535.2,1120.8,529.1,1121.8,528.7,1123.8z"/>
	<path class="st0" d="M658.3,1120.1c-0.1-2.1-6.6-2.8-14.4-1.9c-7.8,0.9-14.1,3.2-14.1,5.3c0.1,2.1,6.5,3.3,14.5,2.4
		C652.2,1124.9,658.5,1122.2,658.3,1120.1z"/>
	<path class="st0" d="M638.8,1266.2c-0.2-5.3-9.5-8.7-20.9-7.9c-11.4,0.8-20.8,5.3-21,10.7c-0.2,5.5,9.2,9.7,21,9
		C629.6,1277.2,638.9,1271.7,638.8,1266.2z"/>
	<path class="st0" d="M553.5,1259.9c-11-0.3-20.5,3.3-21.2,8.5c-0.7,5.3,7.9,10.2,19.2,10.5c11.3,0.3,20.9-4.2,21.3-9.5
		C573.1,1264.3,564.5,1260.2,553.5,1259.9z"/>
	<path class="st0" d="M606.5,1112.1c0,1.7,5.4,2.8,12.1,2.3c6.8-0.5,12.2-2.4,12.2-4.1c0-1.7-5.5-2.5-12.1-2
		C612,1108.7,606.5,1110.4,606.5,1112.1z"/>
	<path class="st0" d="M508.5,1108.3c-0.3,1.5,4.2,3.3,10.1,4c5.9,0.7,10.9-0.2,11.2-1.7c0.3-1.5-4.3-3.1-10.2-3.7
		C513.9,1106.2,508.9,1106.8,508.5,1108.3z"/>
	<path class="st0" d="M229,1021.7c-1.4-1.1-2.9-1.7-3.3-1.3c-0.4,0.4,0.5,1.6,1.9,2.7c1.4,1.1,2.9,1.7,3.3,1.2
		C231.2,1024,230.4,1022.8,229,1021.7z"/>
	<path class="st0" d="M911.9,986.6c3.4-2.7,5.7-5.6,5-6.4c-0.6-0.8-3.8,0.8-7.2,3.5c-3.4,2.7-5.7,5.5-5.1,6.3
		C905.2,990.8,908.5,989.3,911.9,986.6z"/>
	<path class="st0" d="M889.1,1015.8c0.8,1.2,5.5-0.5,10.3-4c4.8-3.5,8-7.3,7.1-8.5c-0.9-1.2-5.3,0.8-10.1,4.2
		C891.6,1010.9,888.3,1014.6,889.1,1015.8z"/>
	<polygon class="st0" points="88.3,1000.5 88.4,1000.8 88.8,1000.9 88.7,1000.6 	"/>
	<path class="st0" d="M247.4,1000.7c0,0,0.2,0.5,0.7,0.9c0.5,0.4,1.1,0.5,1.1,0.5s-0.2-0.5-0.6-0.9
		C247.9,1000.9,247.4,1000.7,247.4,1000.7z"/>
	<polygon class="st0" points="303.2,1010.2 303.3,1010.3 303.4,1010.4 303.3,1010.3 	"/>
	<path class="st0" d="M643.4,1057.6c0-0.2-1-0.3-2.2-0.1c-1.2,0.2-2.2,0.5-2.2,0.7s1,0.3,2.2,0.2
		C642.4,1058.2,643.4,1057.9,643.4,1057.6z"/>
	<path class="st0" d="M878.3,1009c-0.6-0.9-4.3,0.5-8.4,3.2c-4.1,2.7-6.9,5.5-6.4,6.5c0.6,1,4.4-0.4,8.5-3
		C876.2,1012.9,879,1009.9,878.3,1009z"/>
	<path class="st0" d="M860.7,997.1c2.3-1.5,3.9-3.1,3.6-3.6c-0.3-0.5-2.4,0.4-4.7,1.9c-2.3,1.5-3.9,3.1-3.6,3.5
		C856.3,999.4,858.4,998.7,860.7,997.1z"/>
	<path class="st0" d="M188.2,988.8c0,0,0.1,0.5,0.5,0.9c0.4,0.4,1,0.5,1,0.5s-0.1-0.5-0.5-0.9C188.8,989,188.2,988.8,188.2,988.8z"
		/>
	<path class="st0" d="M156.2,981.3c-0.2,0.2,0.1,0.8,0.7,1.5c0.6,0.6,1.3,1,1.6,0.8c0.2-0.2-0.1-0.9-0.7-1.5
		C157.2,981.5,156.5,981.1,156.2,981.3z"/>
	<path class="st0" d="M850.3,981.7c0,0,0.3-0.1,0.7-0.3c0.3-0.2,0.5-0.5,0.5-0.5s-0.3,0-0.7,0.3
		C850.4,981.4,850.3,981.7,850.3,981.7z"/>
	<path class="st0" d="M838.8,998.8c-0.2-0.3-1.7,0.2-3.4,1.2c-1.7,1-2.9,2.1-2.7,2.4c0.2,0.3,1.7-0.2,3.4-1.2
		C837.8,1000.2,839,999.1,838.8,998.8z"/>
	<path class="st0" d="M739.6,1054.2c-0.2-0.7-3.2-0.4-6.7,0.7c-3.5,1.1-6.2,2.5-6,3.2c0.2,0.8,3.2,0.5,6.7-0.6
		C737.1,1056.4,739.8,1054.9,739.6,1054.2z"/>
	<path class="st0" d="M886,992.4c3.1-2.3,5.3-4.7,4.8-5.4c-0.5-0.7-3.4,0.7-6.5,2.9c-3.2,2.3-5.3,4.6-4.9,5.3
		C879.8,995.9,882.8,994.6,886,992.4z"/>
	<path class="st0" d="M217.5,994.4c-0.3,0.2,0.3,1.1,1.2,1.9c0.9,0.8,1.9,1.2,2.2,1c0.2-0.3-0.3-1.1-1.2-1.9
		C218.7,994.6,217.8,994.2,217.5,994.4z"/>
	<path class="st0" d="M813.2,1003.6c0,0-0.7,0.1-1.3,0.4c-0.6,0.4-1.1,0.9-1.1,0.9s0.6,0,1.3-0.4
		C812.8,1004.1,813.2,1003.6,813.2,1003.6z"/>
	<path class="st0" d="M85.2,1226.2c-2.9-2-6.4-2.3-8-0.5c-1.6,1.8-0.6,5,2.3,7c2.9,2.1,6.5,2.2,8.1,0.4
		C89.1,1231.3,88.1,1228.3,85.2,1226.2z"/>
	<path class="st0" d="M313.1,1221c1.6-3.2-2.7-8-9.5-10.8c-6.8-2.8-13.8-2.7-15.5,0.5c-1.8,3.2,2.4,8.3,9.3,11.2
		C304.4,1224.8,311.4,1224.3,313.1,1221z"/>
	<path class="st0" d="M144.5,1210.8c-3.4-2.2-7.4-2.5-8.9-0.6c-1.6,2-0.1,5.4,3.4,7.6c3.5,2.2,7.5,2.4,9,0.5
		C149.5,1216.4,148,1213,144.5,1210.8z"/>
	<path class="st0" d="M15.6,1246.2c-0.7-0.5-1.5-0.6-2-0.1c-0.5,0.5-0.3,1.3,0.4,1.8c0.7,0.5,1.6,0.6,2,0.1
		C16.4,1247.5,16.3,1246.7,15.6,1246.2z"/>
	<path class="st0" d="M211.8,1254.8c1.8-2.9-0.8-7.3-5.9-9.9c-5-2.7-10.6-2.6-12.5,0.2c-2,2.9,0.6,7.5,5.7,10.2
		C204.2,1258,209.9,1257.7,211.8,1254.8z"/>
	<path class="st0" d="M266.3,1237.7c2-3.4-2-8.6-8.6-11.7c-6.7-3.1-13.6-3.1-15.7,0.3c-2.1,3.4,1.6,8.9,8.4,12.1
		C257.1,1241.6,264.3,1241.2,266.3,1237.7z"/>
	<path class="st0" d="M88.3,1078.1c-1.1-1.1-2.5-1.5-3.1-1c-0.6,0.5-0.2,1.8,1,2.9c1.1,1.1,2.5,1.5,3.1,1
		C89.9,1080.5,89.5,1079.2,88.3,1078.1z"/>
	<path class="st0" d="M483,1060.1c-1.1-0.2-2.1,0-2.1,0c0,0.2,0.8,0.5,1.9,0.8c1.1,0.2,2,0.2,2.1,0
		C484.9,1060.9,484.1,1060.3,483,1060.1z"/>
	<path class="st0" d="M766.6,1055.2c-0.3-1-4.2-0.4-8.7,1.3c-4.5,1.7-8,3.7-7.7,4.7c0.3,1,4.2,0.6,8.8-1.1
		C763.5,1058.4,766.9,1056.2,766.6,1055.2z"/>
	<path class="st0" d="M553.2,1060.7c0,0-0.6-0.3-1.3-0.3c-0.8,0-1.4,0.2-1.4,0.2s0.5,0.3,1.3,0.3
		C552.5,1060.9,553.2,1060.7,553.2,1060.7z"/>
	<path class="st0" d="M598.5,1061.2c0-0.2-0.8-0.3-2-0.3c-1.1,0-2,0.2-2,0.4c0,0.2,0.9,0.4,2,0.3
		C597.6,1061.6,598.5,1061.2,598.5,1061.2z"/>
	<path class="st0" d="M214.5,1077.3c-3.6-2.5-7.4-3.6-8.5-2.3c-1.1,1.3,0.9,4.4,4.5,7c3.6,2.6,7.5,3.5,8.6,2.2
		C220.2,1082.9,218.1,1079.8,214.5,1077.3z"/>
	<path class="st0" d="M38.9,1077.8c-0.8-0.8-1.8-1.1-2.3-0.7c-0.5,0.4-0.3,1.4,0.5,2.1c0.8,0.8,1.8,1.1,2.3,0.7
		C39.9,1079.6,39.7,1078.6,38.9,1077.8z"/>
	<path class="st0" d="M134.2,1077.6c-2.5-2-5.3-3-6.4-2c-1.1,1,0,3.6,2.5,5.7c2.5,2.1,5.4,2.9,6.5,1.9
		C137.9,1082.2,136.7,1079.7,134.2,1077.6z"/>
	<path class="st0" d="M172.2,1081.4c2.6,2,5.4,2.7,6.3,1.8c0.9-1-0.4-3.3-3-5.3c-2.6-1.9-5.3-2.8-6.3-1.8
		C168.3,1077,169.6,1079.5,172.2,1081.4z"/>
	<path class="st0" d="M791.3,1024c0.2,0.4,2,0,4.1-1.1c2.1-0.9,3.7-2.1,3.5-2.6c-0.2-0.4-2,0.1-4.1,1.1
		C792.8,1022.4,791.2,1023.5,791.3,1024z"/>
	<path class="st0" d="M344.3,1033c-0.8-0.4-1.7-0.4-1.7-0.4s0.5,0.7,1.3,1.1c0.8,0.4,1.8,0.4,1.8,0.4S345.1,1033.4,344.3,1033z"/>
	<path class="st0" d="M370.7,1034.1c-0.8-0.3-1.6-0.3-1.6-0.3s0.5,0.6,1.2,0.9c0.8,0.4,1.6,0.3,1.6,0.3S371.5,1034.4,370.7,1034.1z"
		/>
	<path class="st0" d="M317.2,1030.9c-1.6-0.9-3.1-1.3-3.3-1c-0.2,0.4,0.8,1.4,2.4,2.3c1.6,0.9,3.1,1.3,3.3,0.9
		C319.9,1032.8,318.8,1031.8,317.2,1030.9z"/>
	<path class="st0" d="M288.9,1028.6c-1.4-0.9-2.8-1.3-3-1c-0.3,0.3,0.6,1.4,2,2.2c1.4,0.9,2.7,1.3,3,1
		C291.2,1030.4,290.2,1029.4,288.9,1028.6z"/>
	<path class="st0" d="M692.2,1162.6c-0.4-3.3-8.8-4.3-18.8-2.7c-10,1.7-17.9,5.4-17.7,8.7c0.2,3.4,8.7,5.2,18.9,3.5
		C684.8,1170.4,692.6,1166,692.2,1162.6z"/>
	<path class="st0" d="M837.3,1034.1c-0.6-1.1-4.8,0.1-9.6,2.7c-4.8,2.5-8.3,5.4-7.7,6.5c0.5,1.1,4.9,0.1,9.7-2.5
		C834.5,1038.3,837.9,1035.2,837.3,1034.1z"/>
	<path class="st0" d="M259.7,1025.2c-2-1.3-3.9-2-4.3-1.5c-0.5,0.5,0.7,2,2.7,3.4c2,1.4,3.9,2,4.4,1.5
		C262.9,1028.1,261.7,1026.6,259.7,1025.2z"/>
	<path class="st0" d="M731.1,1038.3c-0.1-0.2-1.1-0.1-2.3,0.3c-1.2,0.4-2.1,0.8-2,1.1c0,0.2,1.1,0.1,2.3-0.3
		C730.2,1039,731.2,1038.5,731.1,1038.3z"/>
	<polygon class="st0" points="705.8,1037.3 705.6,1037.4 705.8,1037.4 706,1037.3 	"/>
	<path class="st0" d="M89.1,1037.4c-1.2-1.2-2.6-1.8-3.2-1.3c-0.6,0.5-0.2,1.8,1,3c1.2,1.2,2.6,1.7,3.2,1.3
		C90.7,1039.9,90.2,1038.6,89.1,1037.4z"/>
	<path class="st0" d="M130.3,1041.2c-1.2-1.2-2.7-1.7-3.2-1.2c-0.5,0.5,0,1.8,1.3,2.9c1.3,1.1,2.7,1.7,3.2,1.2
		C132.2,1043.6,131.6,1042.3,130.3,1041.2z"/>
	<path class="st0" d="M795,1043.3c0.4,0.9,4.1,0.1,8.3-1.8c4.2-2,7.2-4.4,6.8-5.3c-0.4-0.9-4,0-8.2,2
		C797.7,1040.1,794.6,1042.4,795,1043.3z"/>
	<path class="st0" d="M748.6,1041.4c0.1,0.5,2.1,0.2,4.5-0.7c2.3-0.8,4.1-1.9,3.9-2.4c-0.2-0.5-2.1-0.1-4.4,0.7
		C750.2,1039.9,748.4,1040.9,748.6,1041.4z"/>
	<path class="st0" d="M771.5,1042.5c0.2,0.7,3,0.2,6.2-1.2c3.2-1.3,5.5-3,5.3-3.6c-0.2-0.6-3-0.1-6.2,1.3
		C773.7,1040.3,771.3,1041.9,771.5,1042.5z"/>
	<path class="st0" d="M197.2,1017c-1.8-1.5-3.7-2.3-4.3-1.8c-0.5,0.5,0.4,2.2,2.2,3.7c1.8,1.5,3.7,2.3,4.3,1.7
		C200,1020.2,199,1018.5,197.2,1017z"/>
	<path class="st0" d="M814.7,1022.7c0.3,0.6,2.7-0.1,5.5-1.6c2.7-1.4,4.7-3.1,4.4-3.7c-0.3-0.6-2.7,0.2-5.4,1.6
		C816.5,1020.6,814.5,1022.2,814.7,1022.7z"/>
	<path class="st0" d="M901.7,1039.8c1.2,1.8,7.4-0.2,13.7-4.8c6.4-4.5,10.3-9.8,9-11.6c-1.3-1.7-7.2,0.7-13.4,5.2
		C904.8,1033.1,900.6,1038,901.7,1039.8z"/>
	<path class="st0" d="M865.7,1031.1c-0.8-1.3-5.8,0.3-11.3,3.5c-5.5,3.2-9.4,6.8-8.7,8.2c0.7,1.4,5.9,0,11.4-3.2
		C862.7,1036.4,866.5,1032.5,865.7,1031.1z"/>
	<path class="st0" d="M894.2,1027.9c-0.9-1.5-6.3,0.5-12,4.2c-5.7,3.8-9.7,7.9-8.8,9.4c0.9,1.5,6.4-0.1,12.2-3.9
		C891.4,1033.8,895.2,1029.4,894.2,1027.9z"/>
	<polygon class="st0" points="662.5,1046.7 662.7,1046.7 662.8,1046.6 662.6,1046.7 	"/>
	<path class="st0" d="M771.4,1023.8c1-0.4,1.8-0.9,1.7-1.1c0,0-1,0-2,0.4c-1,0.4-1.7,1.1-1.7,1.1
		C769.5,1024.4,770.4,1024.3,771.4,1023.8z"/>
	<path class="st0" d="M169.4,1043.8c-2.3-1.9-4.8-2.9-5.7-2.1c-0.9,0.8,0.3,3.1,2.6,5c2.3,1.9,4.9,2.8,5.7,2
		C172.9,1047.9,171.7,1045.7,169.4,1043.8z"/>
	<polygon class="st0" points="748,1024.1 747.9,1024.1 748,1024.1 748.1,1024.1 	"/>
	<path class="st0" d="M127.5,1006.5c-1.1-1.1-2.4-1.7-2.8-1.3c-0.5,0.4,0,1.6,1.1,2.7c1.1,1.1,2.4,1.7,2.8,1.3
		C129.1,1008.8,128.6,1007.6,127.5,1006.5z"/>
	<path class="st0" d="M851.7,1013.3c-0.4-0.8-3.8,0.4-7.5,2.6c-3.7,2.2-6.4,4.6-6,5.4c0.4,0.8,3.8-0.2,7.6-2.4
		C849.5,1016.7,852.1,1014.1,851.7,1013.3z"/>
	<path class="st0" d="M163,1012.4c-1-0.9-2.1-1.4-2.4-1.1c-0.4,0.3,0.1,1.3,1.1,2.2c1,0.9,2.1,1.4,2.4,1.1
		C164.5,1014.3,164,1013.3,163,1012.4z"/>
	<path class="st0" d="M932.7,1036.8c0.9,1.2,3.7,0.7,7.3-1.1v-9.8C934.7,1030.4,931.4,1035,932.7,1036.8z"/>
	<polygon class="st0" points="329.6,1013.7 329.7,1013.7 329.6,1013.7 329.5,1013.6 	"/>
	<path class="st0" d="M274.9,1005.3c0,0,0.3,0.7,1.1,1.2c0.7,0.5,1.5,0.6,1.5,0.6s-0.3-0.7-1.1-1.2
		C275.8,1005.4,274.9,1005.3,274.9,1005.3z"/>
	<polygon class="st0" points="47.6,993.4 47.6,993.6 47.8,993.7 47.8,993.5 	"/>
	<path class="st0" d="M916.8,1011.6c1,1.3,5.9-0.7,10.8-4.6c4.9-3.9,8-8.2,7-9.5c-1-1.3-5.7,0.9-10.6,4.8
		C919.1,1006.1,915.9,1010.3,916.8,1011.6z"/>
	<polygon class="st0" points="89,965.6 89,965.8 89.2,965.9 89.1,965.7 	"/>
	<path class="st0" d="M430.2,1092.2c0.4-1.1-2.8-2.9-7.1-4.2c-4.3-1.3-8.2-1.5-8.7-0.5c-0.5,1.1,2.7,3.1,7,4.4
		C425.8,1093.2,429.7,1093.3,430.2,1092.2z"/>
	<path class="st0" d="M402.3,1097.7c0.6-1.4-3.1-3.8-8.1-5.6c-5.1-1.8-9.7-2.2-10.4-0.9c-0.7,1.4,2.9,4,8,5.8
		C397,1098.8,401.7,1099.1,402.3,1097.7z"/>
	<path class="st0" d="M371.3,1102.3c0.7-1.4-2.7-4-7.5-6c-4.8-1.9-9.3-2.5-10.1-1.1c-0.8,1.4,2.5,4.2,7.4,6.2
		C366,1103.3,370.6,1103.7,371.3,1102.3z"/>
	<path class="st0" d="M457.9,1086.8c0.3-1-2.8-2.6-7-3.7c-4.2-1-7.9-1.2-8.3-0.2c-0.4,1,2.7,2.7,7,3.8
		C453.8,1087.8,457.6,1087.8,457.9,1086.8z"/>
	<path class="st0" d="M250.4,1077.2c-3.5-2.2-7-3.1-7.9-2c-0.9,1.1,1.1,3.9,4.6,6.1c3.5,2.2,7.1,3,8,1.8
		C255.9,1082,253.9,1079.3,250.4,1077.2z"/>
	<path class="st0" d="M314,1079.3c3.8,2,7.5,2.6,8.2,1.5c0.7-1.1-1.8-3.5-5.6-5.4c-3.8-1.9-7.4-2.7-8.1-1.6
		C307.7,1074.8,310.2,1077.3,314,1079.3z"/>
	<path class="st0" d="M345,1077.7c4.2,1.9,8.1,2.4,8.7,1.3c0.6-1.1-2.2-3.4-6.4-5.3c-4.1-1.9-8-2.6-8.7-1.5
		C338,1073.3,340.8,1075.8,345,1077.7z"/>
	<path class="st0" d="M281.2,1080.8c4.2,2.4,8.4,3.2,9.3,1.9c0.9-1.3-1.8-4.2-5.9-6.6c-4.2-2.4-8.2-3.3-9.2-2.1
		C274.5,1075.4,277,1078.4,281.2,1080.8z"/>
	<path class="st0" d="M133.4,1122.2c2.6,2,5.5,2.6,6.6,1.4c1.1-1.1-0.1-3.7-2.6-5.6c-2.5-2-5.5-2.7-6.6-1.5
		C129.7,1117.7,130.9,1120.2,133.4,1122.2z"/>
	<path class="st0" d="M177.7,1119.7c3.9,2.8,8.3,3.6,9.6,1.9c1.4-1.7-0.6-5.2-4.5-7.9c-3.9-2.7-8.1-3.7-9.6-2.1
		C171.9,1113.3,173.8,1116.9,177.7,1119.7z"/>
	<path class="st0" d="M90.2,1127.1c1.1-1.1,0.2-3.4-1.9-5.3c-2.2-1.8-4.8-2.5-5.9-1.4c-1.1,1.1-0.3,3.5,1.8,5.4
		C86.3,1127.7,89.1,1128.2,90.2,1127.1z"/>
	<path class="st0" d="M219.5,1116.1c4,2.5,8.2,3.3,9.4,1.7c1.2-1.5-1.1-4.7-5-7.3c-3.9-2.5-8-3.3-9.3-1.8
		C213.4,1110.3,215.6,1113.6,219.5,1116.1z"/>
	<path class="st0" d="M328.5,1105.8c5.5,2.5,10.7,3,11.7,1.3c0.9-1.7-2.7-4.9-8.1-7.4c-5.4-2.4-10.5-3.2-11.5-1.6
		C319.5,1099.8,323,1103.3,328.5,1105.8z"/>
	<path class="st0" d="M294.4,1109.3c4.7,2.4,9.5,3,10.5,1.5c1-1.5-2.1-4.7-6.8-7.1c-4.7-2.4-9.3-3.2-10.3-1.7
		C286.8,1103.5,289.7,1106.9,294.4,1109.3z"/>
	<path class="st0" d="M257.9,1113.2c5,2.9,10.1,3.6,11.4,1.8c1.2-1.8-1.8-5.4-6.7-8.3c-4.9-2.8-9.9-3.8-11.2-2
		C250,1106.5,252.9,1110.3,257.9,1113.2z"/>
	<path class="st0" d="M374.9,1075.2c3.4,1.4,6.6,1.7,7.1,0.9c0.4-0.9-2-2.6-5.4-4c-3.4-1.4-6.6-1.8-7-1
		C369.1,1072,371.5,1073.9,374.9,1075.2z"/>
	<path class="st0" d="M837.9,1095.2c1.1,2.5,8.6,1.3,16.6-2.9c8-4.2,13.3-9.8,12.1-12.2c-1.2-2.4-8.5-0.7-16.3,3.4
		C842.4,1087.7,836.8,1092.8,837.9,1095.2z"/>
	<path class="st0" d="M807.7,1092c0.9,2.3,8,1.4,15.9-2.4c7.9-3.7,13.3-8.7,12.3-10.9c-1-2.2-8-0.8-15.7,2.9
		C812.5,1085.2,806.8,1089.8,807.7,1092z"/>
	<path class="st0" d="M753,1084.1c0.5,1.7,6.2,1.2,12.9-1.2c6.6-2.4,11.4-5.8,10.9-7.5c-0.6-1.6-6.2-0.8-12.7,1.5
		C757.6,1079.4,752.6,1082.5,753,1084.1z"/>
	<path class="st0" d="M779.8,1088.2c0.7,1.9,7.1,1.3,14.3-1.7c7.2-3,12.3-7.1,11.6-9c-0.8-1.9-7-0.8-14.1,2.1
		C784.4,1082.5,779.2,1086.3,779.8,1088.2z"/>
	<path class="st0" d="M787.8,1100.3c-0.8-2.3-8-1.6-16.1,1.4c-8.2,3-14.3,7-13.7,9.4c0.7,2.4,8,2.1,16.3-0.9
		C782.6,1107.2,788.6,1102.7,787.8,1100.3z"/>
	<path class="st0" d="M903.9,1100.6c1.7,2.9,9.9,1.3,18.1-4c8.2-5.3,13.2-12.2,11.3-15.1c-1.8-2.8-9.7-0.6-17.7,4.6
		C907.5,1091.4,902.3,1097.7,903.9,1100.6z"/>
	<path class="st0" d="M869.5,1098.3c1.4,2.8,9.5,1.3,17.9-3.6c8.3-4.9,13.7-11.4,12.1-14.1c-1.6-2.7-9.3-0.7-17.5,4.2
		C873.7,1089.7,868.1,1095.6,869.5,1098.3z"/>
	<path class="st0" d="M527.9,1066.8c-1.6-0.2-2.9-0.1-3,0.2c0,0.3,1.2,0.7,2.8,0.9c1.6,0.2,3,0,3-0.3
		C530.7,1067.3,529.5,1066.9,527.9,1066.8z"/>
	<path class="st0" d="M435.8,1069.4c0.2-0.5-1.6-1.6-4.1-2.3c-2.5-0.8-4.7-0.9-4.9-0.4c-0.2,0.5,1.6,1.6,4.1,2.4
		C433.4,1069.8,435.6,1070,435.8,1069.4z"/>
	<path class="st0" d="M573.2,1070.9c2.1,0,3.7-0.3,3.7-0.7c0.1-0.4-1.6-0.7-3.6-0.8c-2,0-3.7,0.2-3.7,0.6
		C569.5,1070.5,571.2,1070.8,573.2,1070.9z"/>
	<path class="st0" d="M410.2,1073.2c0.4-0.8-2.1-2.4-5.5-3.5c-3.4-1.2-6.4-1.5-6.8-0.8c-0.4,0.8,2,2.5,5.5,3.7
		C406.8,1073.8,409.9,1074,410.2,1073.2z"/>
	<path class="st0" d="M704.1,1074.7c0.2,1.1,4.2,1,9-0.3c4.7-1.3,8.4-3.2,8.2-4.3c-0.2-1.1-4.2-0.8-8.9,0.4
		C707.7,1071.9,704,1073.7,704.1,1074.7z"/>
	<path class="st0" d="M728.1,1079.6c0.3,1.3,5.2,1.1,10.9-0.7c5.7-1.8,9.9-4.4,9.6-5.7c-0.4-1.3-5.2-0.8-10.8,0.9
		C732.1,1075.8,727.8,1078.2,728.1,1079.6z"/>
	<path class="st0" d="M32.4,1127.4c-0.5-0.4-1.1-0.6-1.4-0.3c-0.3,0.3-0.2,0.8,0.3,1.3c0.5,0.4,1.1,0.5,1.4,0.3
		C33,1128.4,32.8,1127.8,32.4,1127.4z"/>
	<path class="st0" d="M614.7,1069.1c0,0.5,1.9,0.7,4.2,0.5c2.3-0.2,4.2-0.7,4.2-1.2c0-0.5-1.9-0.7-4.2-0.5
		C616.6,1068.1,614.7,1068.6,614.7,1069.1z"/>
	<path class="st0" d="M927,1140.8c1.6,2.7,6.8,2.8,13,0.4v-17.7c-0.3,0.2-0.7,0.4-1,0.6C930.3,1129.8,924.9,1137.1,927,1140.8z"/>
	<path class="st0" d="M266.8,1329h22.9c-1.5-1.2-3.3-2.2-5.4-3C277,1323.3,269.5,1324.6,266.8,1329z"/>
	<path class="st0" d="M787.2,1117.3c0.9,2.7,8.8,2.2,17.5-1.4c8.7-3.6,14.8-9,13.8-11.6c-1.1-2.6-8.7-1.6-17.3,2
		C792.7,1109.9,786.3,1114.7,787.2,1117.3z"/>
	<path class="st0" d="M940,1102.2v-2.1C939.8,1100.9,939.8,1101.6,940,1102.2z"/>
	<path class="st0" d="M405.4,1313.4c-9.2-2-18,0.4-19.7,5.6c-1.1,3.4,0.9,7.1,4.9,9.9h27.3c0.7-0.8,1.3-1.7,1.6-2.6
		C421,1321.1,414.6,1315.4,405.4,1313.4z"/>
	<path class="st0" d="M918.3,1068.4c1.6,2.5,9.2,0.4,16.7-5c1.9-1.4,3.6-2.8,5-4.2l0-10.5c-3.1,0.9-7,3-11.1,5.9
		C921.5,1059.8,916.7,1065.9,918.3,1068.4z"/>
	<path class="st0" d="M221.8,1310.6c2.2-3.8-1-9.1-6.9-11.9c-6-2.8-12.6-2.2-14.9,1.6c-2.3,3.8,0.7,9.3,6.7,12.3
		C212.8,1315.3,219.6,1314.4,221.8,1310.6z"/>
	<path class="st0" d="M348,1309.1c1.8-4.6-3.3-10.1-11.2-12.6c-7.9-2.5-15.9-1-17.9,3.5c-2,4.6,2.9,10.6,11,13.1
		C338.1,1315.6,346.2,1313.7,348,1309.1z"/>
	<path class="st0" d="M81.2,1290.8c-2.2-1.5-5-1.4-6.3,0.2c-1.3,1.6-0.5,4.1,1.7,5.6c2.3,1.5,5.1,1.4,6.4-0.2
		C84.2,1294.7,83.4,1292.2,81.2,1290.8z"/>
	<path class="st0" d="M935.7,935.9c-0.2-0.2-1.3,0.5-2.5,1.6c-1.1,1.1-1.9,2.2-1.7,2.4c0.2,0.2,1.4-0.4,2.5-1.6
		C935.1,937.2,935.9,936.1,935.7,935.9z"/>
	<path class="st0" d="M143,1329h5.7C146.7,1328.4,144.7,1328.4,143,1329z"/>
	<path class="st0" d="M911.8,945.5c-0.1-0.2-0.9,0.3-1.7,1c-0.8,0.7-1.2,1.5-1.2,1.5s0.9-0.3,1.7-1
		C911.4,946.4,911.8,945.5,911.8,945.5z"/>
	<path class="st0" d="M927.1,957.4c-0.5-0.5-2.8,0.8-5.2,2.9c-2.4,2.1-4.1,4.3-3.6,4.8c0.5,0.5,2.8-0.7,5.2-2.9
		C925.9,960.1,927.5,957.9,927.1,957.4z"/>
	<path class="st0" d="M335.4,1124.9c-1.1,2,2.9,5.7,8.9,8.2c6.1,2.5,11.9,2.7,12.9,0.7c1-2-3.1-5.5-9.1-7.9
		C342.2,1123.4,336.5,1122.9,335.4,1124.9z"/>
	<path class="st0" d="M929.9,984.7c0.8,1,4.9-1,9-4.5c0.4-0.4,0.8-0.7,1.1-1.1l0-5.7c-1.3,0.8-2.7,1.8-4.3,3.2
		C931.7,980.1,929,983.7,929.9,984.7z"/>
	<path class="st0" d="M901.3,966.3c-0.3-0.4-1.9,0.5-3.6,1.9c-1.7,1.4-3,2.8-2.7,3.1c0.3,0.4,1.9-0.5,3.7-1.8
		C900.4,968,901.6,966.6,901.3,966.3z"/>
	<path class="st0" d="M876.6,973.8c-0.2-0.2-1.3,0.3-2.6,1.2c-1.2,0.9-2.1,1.8-2,2.1c0.2,0.3,1.3-0.3,2.6-1.2
		C875.8,975,876.7,974,876.6,973.8z"/>
	<path class="st0" d="M298.3,1183.4c1.6-2.8-2.6-7.5-9.3-10.6c-6.7-3.1-13.4-3.5-15.2-0.7c-1.7,2.9,2.2,7.9,9.1,11
		C289.7,1186.3,296.7,1186.3,298.3,1183.4z"/>
	<path class="st0" d="M145.1,1169.3c1.5-1.8-0.1-5.3-3.7-7.8c-3.6-2.5-7.7-3.2-9.3-1.4c-1.6,1.8,0,5.4,3.6,8
		C139.3,1170.6,143.5,1171.1,145.1,1169.3z"/>
	<path class="st0" d="M86.5,1171.6c-1.8-1.4-4.1-1.8-5.1-0.8c-1,1.1-0.3,3.1,1.5,4.5c1.9,1.4,4.2,1.8,5.2,0.7
		C89.1,1175,88.3,1173,86.5,1171.6z"/>
	<path class="st0" d="M194.4,1161.4c1.4-1.8-0.7-5.3-4.6-7.8c-3.9-2.5-8.2-3.2-9.7-1.4c-1.5,1.8,0.5,5.4,4.5,8
		C188.6,1162.7,193,1163.3,194.4,1161.4z"/>
	<path class="st0" d="M322.1,1141.1c1.2-2.2-2.8-6.2-9-9.1c-6.2-2.8-12.3-3.5-13.6-1.3c-1.4,2.2,2.5,6.5,8.8,9.4
		C314.6,1143,320.8,1143.4,322.1,1141.1z"/>
	<path class="st0" d="M241.4,1155.1c1.6-2.3-1.5-6.5-6.8-9.6c-5.3-3-10.9-3.9-12.6-1.6c-1.7,2.3,1.3,6.7,6.7,9.8
		C234.1,1156.9,239.8,1157.4,241.4,1155.1z"/>
	<path class="st0" d="M270.1,1146.5c5.4,2.8,10.9,3.2,12.3,1.1c1.3-2.1-2-5.9-7.3-8.7c-5.3-2.7-10.7-3.4-12.1-1.4
		C261.6,1139.6,264.8,1143.7,270.1,1146.5z"/>
	<path class="st0" d="M148.3,1265.3c-4.3-2.5-9.4-2.5-11.4,0.2c-2,2.7-0.2,7.1,4.2,9.7c4.3,2.6,9.5,2.4,11.5-0.4
		C154.6,1272.1,152.6,1267.9,148.3,1265.3z"/>
	<path class="st0" d="M444.7,1302.1c10.5,1.7,20.2-1.6,21.4-7c1.2-5.3-6.2-10.7-16.4-12.4c-10.2-1.7-19.7,0.9-21.2,6.1
		C427,1294.3,434.2,1300.4,444.7,1302.1z"/>
	<path class="st0" d="M331,1263.1c1.8-4.2-3.2-9.7-11.2-12.5c-8-2.9-16-2.1-18,2c-2.1,4.1,2.8,10.1,10.9,13.1
		C320.8,1268.5,329.1,1267.3,331,1263.1z"/>
	<path class="st0" d="M278.5,1285.1c1.9-3.7-1.9-8.7-8.4-11.4c-6.5-2.7-13.2-2.1-15.2,1.6c-2.1,3.7,1.6,9,8.1,11.8
		C269.6,1289.8,276.5,1288.9,278.5,1285.1z"/>
	<path class="st0" d="M25.8,1182c-1.3-1.1-3-1.4-3.8-0.6c-0.8,0.8-0.5,2.4,0.8,3.5c1.3,1.1,3,1.4,3.9,0.5
		C27.4,1184.6,27,1183.1,25.8,1182z"/>
	<path class="st0" d="M346.1,1233c-1.7,3.9,3.6,9.3,12,12c8.4,2.6,16.6,1.3,18.1-2.7c1.5-3.9-4-8.9-12.2-11.4
		C355.7,1228.4,347.8,1229.2,346.1,1233z"/>
	<path class="st0" d="M252.4,1194c1.6-2.6-1.6-6.8-7-9.6c-5.4-2.8-11.1-3.2-12.8-0.7c-1.8,2.5,1.3,7,6.8,9.9
		C244.9,1196.5,250.7,1196.6,252.4,1194z"/>
	<path class="st0" d="M198.1,1196.2c-5.2-3-10.9-3.4-12.8-0.8c-2,2.6,0.6,7.4,5.9,10.5c5.3,3,11.1,3.3,13,0.6
		C206.1,1203.7,203.3,1199.2,198.1,1196.2z"/>
	<path class="st0" d="M368.1,1118.5c-1,2,3.5,5.6,10,7.9c6.5,2.3,12.6,2.4,13.5,0.3c0.8-2-3.7-5.3-10.1-7.6
		C375,1116.9,369.1,1116.5,368.1,1118.5z"/>
	<path class="st0" d="M850.3,1181.3c-1.8-4.4-11.4-4-21.9,0.2c-10.4,4.3-17.8,11-16.3,15.5c1.5,4.6,11.5,5.1,22.2,0.7
		C845,1193.4,852.1,1185.8,850.3,1181.3z"/>
	<path class="st0" d="M779.4,1159.4c-1.1-3.7-10.1-3.7-20.4-0.5c-10.2,3.2-18,8.4-17.2,12.2c0.8,3.8,10.1,4.6,20.7,1.4
		C772.9,1169.1,780.5,1163.1,779.4,1159.4z"/>
	<path class="st0" d="M746.9,1149.3c-0.8-3.3-9.3-3.5-19.2-0.9c-9.9,2.6-17.5,7-17,10.4c0.5,3.4,9.3,4.3,19.4,1.7
		C740.2,1157.8,747.7,1152.6,746.9,1149.3z"/>
	<path class="st0" d="M789.5,1280.8c11.8-3.6,19.7-11.8,18.1-17.7c-1.7-5.8-12.1-7.3-23.5-3.8c-11.4,3.5-19.6,10.7-18.3,16.6
		C767.2,1281.9,777.8,1284.4,789.5,1280.8z"/>
	<path class="st0" d="M715.9,1139.5c-0.5-2.9-8.4-3.3-17.6-1.3c-9.3,2-16.6,5.6-16.3,8.5c0.4,2.9,8.3,4,17.8,2
		C709.3,1146.7,716.4,1142.4,715.9,1139.5z"/>
	<path class="st0" d="M878.9,1276.2c2.4,6.2,13.3,7.5,24.2,2.5c10.9-5,17.3-14.4,14.5-20.5c-2.7-5.9-13.2-6.3-23.7-1.5
		C883.4,1261.6,876.6,1270.1,878.9,1276.2z"/>
	<path class="st0" d="M851.2,1287.5c-2.1-6.3-12.8-7.8-24-3.8c-11.2,4-19,12-17.2,18.5c1.8,6.6,12.8,9.1,24.4,5
		C846,1303,853.4,1294,851.2,1287.5z"/>
	<path class="st0" d="M683.9,1270.7c11.9-1.9,20.9-8.3,20.2-13.9c-0.7-5.4-10.5-7.8-22-6c-11.6,1.8-20.7,7.4-20.3,12.8
		C662,1269.2,672,1272.6,683.9,1270.7z"/>
	<path class="st0" d="M430.8,1106.2c-0.6,1.6,3.7,4.2,9.7,5.7c6,1.5,11.3,1.3,11.9-0.3c0.5-1.6-3.9-4-9.8-5.5
		C436.6,1104.7,431.4,1104.7,430.8,1106.2z"/>
	<path class="st0" d="M400.7,1112.6c-0.7,1.7,3.5,4.7,9.5,6.5c6,1.8,11.4,1.7,12.1,0c0.7-1.7-3.6-4.4-9.5-6.2
		C406.8,1111.1,401.5,1111,400.7,1112.6z"/>
	<path class="st0" d="M608.2,1155.4c0.1-2.9-7.3-4.7-16.5-4.5c-9.2,0.2-16.9,2.5-17.1,5.3c-0.2,2.9,7.1,5.3,16.5,5.1
		C600.4,1161.1,608.1,1158.3,608.2,1155.4z"/>
	<path class="st0" d="M800,1131c-1.1-3.1-9.6-2.6-19.1,0.9c-9.6,3.5-16.6,8.6-15.8,11.8c0.9,3.3,9.6,3.4,19.4-0.1
		C794.2,1140,801.1,1134.2,800,1131z"/>
	<path class="st0" d="M768.1,1124.3c-0.8-2.7-8.7-2.4-17.7,0.4c-9,2.8-15.8,7-15.2,9.9c0.6,2.8,8.6,3.1,17.8,0.3
		C762.1,1131.9,768.8,1127.1,768.1,1124.3z"/>
	<path class="st0" d="M708.8,1110.3c-0.4-2.1-6.9-2.2-14.7-0.5c-7.8,1.7-13.9,4.5-13.7,6.6c0.3,2.1,6.9,2.7,14.8,1
		C703.1,1115.7,709.2,1112.5,708.8,1110.3z"/>
	<path class="st0" d="M737.8,1117.4c-0.5-2.4-7.8-2.3-16.3-0.1c-8.5,2.2-15,5.8-14.6,8.2c0.4,2.5,7.8,2.9,16.4,0.7
		C731.9,1123.9,738.4,1119.8,737.8,1117.4z"/>
	<path class="st0" d="M662.4,1150c-0.2-2.9-7.9-4-17.2-2.9c-9.3,1.1-16.9,4-16.8,6.9c0,3,7.8,4.8,17.3,3.6
		C655.2,1156.5,662.7,1152.9,662.4,1150z"/>
	<path class="st0" d="M579.8,1173.9c0.2-3.2-7.3-5.6-16.8-5.8c-9.5-0.2-17.4,1.9-17.9,5.1c-0.4,3.2,7,6.3,16.7,6.5
		C571.5,1179.9,579.5,1177.2,579.8,1173.9z"/>
	<path class="st0" d="M457.4,1182.8c-0.9,3.4,5.9,7.7,15.4,9.2c9.5,1.5,17.8-0.3,18.6-3.8c0.7-3.4-6.2-7-15.5-8.5
		C466.6,1178.2,458.4,1179.5,457.4,1182.8z"/>
	<path class="st0" d="M505.7,1175.6c9.1,1,16.9-0.9,17.4-3.9c0.5-3-6.3-5.9-15.2-7c-8.9-1-16.6,0.3-17.3,3.3
		C489.9,1171.1,496.7,1174.6,505.7,1175.6z"/>
	<path class="st0" d="M437.3,1158.2c-0.9,2.7,5,6.5,13.2,8.2c8.2,1.7,15.6,0.6,16.4-2.1c0.8-2.7-5.2-6.1-13.3-7.7
		C445.4,1154.9,438.2,1155.5,437.3,1158.2z"/>
	<path class="st0" d="M449.6,1126c-0.6,2,4.4,4.9,11.3,6.3c6.9,1.4,13.1,0.8,13.7-1.2c0.5-2-4.6-4.6-11.4-6
		C456.2,1123.8,450.2,1124.1,449.6,1126z"/>
	<path class="st0" d="M530.5,1198.9c10.2,0.7,18.8-2,19.3-5.7c0.4-3.6-7.3-6.7-17.3-7.4c-9.9-0.7-18.5,1.4-19.1,5
		C512.7,1194.4,520.4,1198.2,530.5,1198.9z"/>
	<path class="st0" d="M536.5,1160.1c9,0.6,16.6-1.5,17-4.2c0.3-2.7-6.6-5.2-15.4-5.8c-8.8-0.6-16.4,0.9-16.9,3.6
		C520.7,1156.5,527.5,1159.5,536.5,1160.1z"/>
	<path class="st0" d="M539,1215c-0.6,4.2,7.6,8.1,18.3,8.4c10.7,0.2,19.6-3.3,19.9-7.5c0.3-4.1-7.9-7.3-18.3-7.5
		C548.4,1208.1,539.6,1210.9,539,1215z"/>
	<path class="st0" d="M628.1,1238.6c0.1,5,9.7,8.5,21.5,7.1c11.8-1.4,21-6.9,20.6-11.9c-0.4-4.9-9.9-7.4-21.4-6.1
		C637.3,1229,628,1233.6,628.1,1238.6z"/>
	<path class="st0" d="M608.4,1192.8c0.1-3.8-8.3-6.3-18.7-6c-10.4,0.3-19.1,3.2-19.4,6.9c-0.3,3.9,8,7.1,18.7,6.9
		C599.6,1200.3,608.3,1196.6,608.4,1192.8z"/>
	<path class="st0" d="M607.3,1240c0.1-4.8-8.9-8.1-20.1-7.9c-11.2,0.2-20.6,4-21.1,8.8c-0.4,4.9,8.6,9.1,20.1,8.9
		C597.8,1249.5,607.2,1244.9,607.3,1240z"/>
	<path class="st0" d="M690.1,1230.6c0.6,5,10.6,7.5,22.4,5.1c11.8-2.4,20.4-8.9,19.6-13.9c-0.9-4.9-10.8-6.4-22.2-4
		C698.4,1220.1,689.5,1225.6,690.1,1230.6z"/>
	<path class="st0" d="M657.6,1210.4c0.3,4.5,9.7,7,21.1,5.1c11.4-1.9,20.1-7.3,19.5-11.7c-0.6-4.3-9.9-6-21-4.2
		C666.1,1201.4,657.3,1206,657.6,1210.4z"/>
	<path class="st0" d="M768.2,1241.4c-1.2-5.3-11.4-6.8-22.8-3.9c-11.4,3-20.1,9.3-19.2,14.7c0.9,5.5,11.3,8,23.1,5
		C761,1254.1,769.4,1246.9,768.2,1241.4z"/>
	<path class="st0" d="M598.1,1215.4c-0.2,4.4,8.8,7.7,19.9,6.9c11.2-0.8,20.1-5.3,20-9.7c-0.1-4.3-9-6.7-19.9-6
		C607.3,1207.4,598.3,1211.1,598.1,1215.4z"/>
	<path class="st0" d="M847.8,1147.1c-9.9,4.6-16.8,11.2-15.3,15.1c1.5,4,11.1,3.7,21.3-1c10.1-4.8,16.7-12.1,15-16
		C866.9,1141.5,857.6,1142.5,847.8,1147.1z"/>
	<path class="st0" d="M456.5,1329h31.7c-3-2.3-7.5-4-12.7-4.7C467.4,1323.4,459.9,1325.3,456.5,1329z"/>
	<path class="st0" d="M617.5,1327.1c-3.4,0.2-6.6,0.9-9.5,1.9h23.1C627.4,1327.5,622.7,1326.8,617.5,1327.1z"/>
	<path class="st0" d="M688.4,1319.1c-8.6,1.4-15.8,5.3-18.9,9.9H711c0-0.5,0.2-1.1,0.1-1.6C710.2,1320.7,700.2,1317.2,688.4,1319.1z
		"/>
	<path class="st0" d="M899.3,1315.9c-2.6-6.6-13.1-8.2-23.6-3.9c-9.2,3.7-15.5,10.8-15.5,17h35.3
		C899.2,1324.7,900.8,1319.8,899.3,1315.9z"/>
	<path class="st0" d="M673.5,1295c-0.5-6.1-10.3-9.5-22-8.2c-11.7,1.3-21.3,6.9-21.2,13c0.1,6.2,10,10.7,22.1,9.3
		C664.5,1307.8,674,1301.2,673.5,1295z"/>
	<path class="st0" d="M782,1310.7c-1.5-6.5-11.9-9-23.4-6.1c-11.5,2.9-20,10.2-18.9,16.9c0.6,3.6,4,6.3,8.7,7.5h13.7
		c0.4-0.1,0.8-0.1,1.2-0.2C775.2,1325.7,783.5,1317.4,782,1310.7z"/>
	<path class="st0" d="M604.5,1301.5c0.2-5.9-9-10.2-20.5-9.9c-11.5,0.2-21.2,4.8-21.7,10.8c-0.5,6.1,8.6,11.2,20.5,11.1
		C594.6,1313.1,604.3,1307.6,604.5,1301.5z"/>
	<path class="st0" d="M535.2,1301.5c0.7-5.7-7.7-10.6-18.7-11.4c-11-0.8-20.7,2.8-21.7,8.4c-1.1,5.8,7.2,11.6,18.5,12.4
		C524.7,1311.8,534.5,1307.4,535.2,1301.5z"/>
	<path class="st0" d="M887.5,1135.3c1.9,3.7,11.1,2.5,20.4-3c9.3-5.5,15-13.1,13-16.6c-2.1-3.5-10.9-1.6-20,3.7
		C891.8,1124.8,885.7,1131.7,887.5,1135.3z"/>
	<path class="st0" d="M833,1138.1c-1.4-3.4-10.2-2.6-19.8,1.4c-9.6,4-16.6,9.8-15.5,13.3c1.2,3.6,10.2,3.5,20.1-0.6
		C827.7,1148.1,834.4,1141.6,833,1138.1z"/>
	<path class="st0" d="M851.9,1129.3c1.5,3.3,10.2,2.4,19.3-2.4c9.1-4.8,15-11.6,13.3-14.8c-1.7-3.2-10-1.6-19,3.1
		C856.7,1119.9,850.4,1126,851.9,1129.3z"/>
	<path class="st0" d="M818.1,1123.5c1.2,3.1,9.7,2.4,18.9-1.9c9.2-4.3,15.3-10.5,14-13.5c-1.4-2.9-9.6-1.6-18.6,2.6
		C823.4,1114.9,817,1120.5,818.1,1123.5z"/>
	<path class="st0" d="M932.9,1300.3c1.2,2.7,3.8,4.4,7.1,5.1v-21.5C933.8,1288.9,930.6,1295.4,932.9,1300.3z"/>
	<path class="st0" d="M912,1182c2.3,4.6,12.4,4,22.2-1.7c2.2-1.3,4.1-2.7,5.8-4.2V1159c-4.1,0.2-9.4,2-14.7,5.1
		C915.7,1169.7,909.7,1177.5,912,1182z"/>
	<path class="st0" d="M543.4,1329h3.8c-0.3,0-0.5-0.1-0.8-0.1C545.3,1328.9,544.3,1329,543.4,1329z"/>
	<path class="st0" d="M497,1218.7c10,1.2,18.7-1.4,19.4-5.4c0.7-3.9-6.8-7.6-16.6-8.7c-9.8-1.1-18.4,0.8-19.3,4.6
		C479.6,1213.1,486.9,1217.6,497,1218.7z"/>
	<path class="st0" d="M698.3,1291.1c0.7,6.2,11.1,9.7,23.2,7.2c12.1-2.5,21-10,19.8-16.2c-1.1-6-11.3-8.5-23.1-6.1
		C706.6,1278.5,697.7,1285,698.3,1291.1z"/>
	<path class="st0" d="M367.6,1182.7c-1.4,3.1,4,7.9,12.1,10.3c8,2.4,15.7,1.7,16.9-1.5c1.2-3.1-4.3-7.4-12.2-9.8
		C376.4,1179.3,368.9,1179.6,367.6,1182.7z"/>
	<path class="st0" d="M456.1,1205.3c1-3.6-5.6-7.7-14.6-9.6c-9-1.9-17.2-0.8-18.4,2.7c-1.1,3.6,5.2,8.3,14.4,10.2
		C446.7,1210.5,455.1,1208.9,456.1,1205.3z"/>
	<path class="st0" d="M328.4,1195.8c-1.7,3.5,3.4,8.8,11.6,11.8c8.2,2.9,16.2,2.2,17.7-1.3c1.5-3.4-3.8-8.4-11.8-11.2
		C337.8,1192.2,330.1,1192.4,328.4,1195.8z"/>
	<path class="st0" d="M314.1,1162.3c-1.4,2.6,2.8,7.1,9.6,9.9c6.8,2.8,13.4,2.7,14.7,0.1c1.3-2.6-3.1-6.8-9.7-9.5
		C322,1160.1,315.5,1159.8,314.1,1162.3z"/>
	<path class="st0" d="M385.4,1143.7c-1,2.4,3.9,6.2,11.1,8.4c7.2,2.2,13.8,1.8,14.8-0.6c0.9-2.4-4.1-5.9-11.2-8
		C393,1141.4,386.5,1141.4,385.4,1143.7z"/>
	<path class="st0" d="M350,1152.5c-1.3,2.7,3.6,7.2,11.2,9.9c7.6,2.7,14.8,2.4,16-0.3c1.2-2.7-3.9-6.9-11.4-9.5
		C358.3,1150,351.3,1149.8,350,1152.5z"/>
	<path class="st0" d="M433.8,1177.9c1-3.1-5.1-7.1-13.6-9.3c-8.5-2.2-16.3-1.7-17.5,1.3c-1.1,3.1,4.8,7.7,13.5,9.9
		C424.8,1182,432.8,1181,433.8,1177.9z"/>
	<path class="st0" d="M429.5,1142.5c7.5,1.9,14.4,1.4,15.1-1c0.8-2.3-4.7-5.5-12.1-7.4c-7.4-1.9-14.1-1.7-15,0.6
		C416.7,1137,422,1140.6,429.5,1142.5z"/>
	<path class="st0" d="M406.5,1250.2c-1.5,4.5,5,10,14.7,12.1c9.6,2,18.5-0.2,19.7-4.8c1.2-4.4-5.4-9.4-14.8-11.3
		C416.6,1244.1,407.9,1245.8,406.5,1250.2z"/>
	<path class="st0" d="M363.8,1273.4c-1.9,4.9,4.2,11.1,13.8,13.6c9.6,2.5,18.8,0.3,20.4-4.7c1.6-4.9-4.7-10.5-14.1-12.9
		C374.6,1267,365.6,1268.6,363.8,1273.4z"/>
	<path class="st0" d="M485.8,1273.6c10.6,1.3,20-2.1,20.8-7.1c0.8-4.9-6.9-9.5-17.2-10.7c-10.3-1.2-19.6,1.4-20.7,6.2
		C467.5,1267.1,475.1,1272.5,485.8,1273.6z"/>
	<path class="st0" d="M385.2,1214.8c-1.5,4,4.7,9.4,14.1,11.8c9.4,2.4,18.1,0.9,19.5-3.2c1.3-3.9-5.2-8.8-14.3-11.1
		C395.3,1209.9,386.8,1210.9,385.2,1214.8z"/>
	<path class="st0" d="M504.7,1237.6c-0.9,4.7,7.3,9.5,18.3,10.2c11,0.8,20.4-2.8,21-7.5c0.6-4.6-7.7-8.6-18.4-9.3
		C514.9,1230.3,505.6,1233,504.7,1237.6z"/>
	<path class="st0" d="M460.6,1240.1c10.3,1.7,19.4-0.9,20.4-5.3c1-4.3-6.4-8.8-16.4-10.4c-10-1.6-19,0.2-20.3,4.4
		C443.1,1233.2,450.3,1238.4,460.6,1240.1z"/>
	<path class="st0" d="M172.6,153.8c0.9,1.1,4.6-0.7,8.4-3.8c3.8-3.1,6.3-6.4,5.5-7.6c-0.8-1.1-4.7,0.4-8.6,3.5
		C174,149.1,171.7,152.7,172.6,153.8z"/>
	<path class="st0" d="M120,145c1.6,1.6,6.3-0.6,10.7-4.9c4.3-4.3,6.7-9,5.2-10.7c-1.6-1.8-6.6,0.2-11,4.5
		C120.4,138.3,118.3,143.4,120,145z"/>
	<path class="st0" d="M155.2,157.4c1,1.1,4.8-0.8,8.7-4.2c3.8-3.4,6.2-7,5.2-8.3c-1-1.2-5,0.5-8.9,3.9
		C156.4,152.3,154.2,156.2,155.2,157.4z"/>
	<path class="st0" d="M77.5,139.3c-4,4.7-5.4,10.2-3.2,12c2.1,1.8,6.8-0.7,10.7-5.3c3.9-4.6,5.6-9.8,3.6-11.6
		C86.5,132.5,81.5,134.6,77.5,139.3z"/>
	<path class="st0" d="M98.2,147.9c1.8,1.7,6.4-0.7,10.5-5c4-4.4,6-9.2,4.3-11c-1.8-1.8-6.7,0.2-10.8,4.7
		C98,141,96.3,146.2,98.2,147.9z"/>
	<path class="st0" d="M162.9,162.5c-0.9-1-4.4,0.8-7.8,4.1c-3.4,3.4-5.3,6.9-4.4,7.9c0.9,0.9,4.3-1.1,7.6-4.3
		C161.7,166.8,163.8,163.5,162.9,162.5z"/>
	<path class="st0" d="M178.9,159.1c-0.7-0.9-3.9,0.7-7.1,3.5c-3.2,2.9-5.1,6-4.4,6.8c0.7,0.8,3.8-0.9,7-3.7
		C177.5,162.9,179.6,160,178.9,159.1z"/>
	<path class="st0" d="M50.7,142.8c-3.5,4.5-4.3,9.7-2,11.4c2.2,1.7,6.7-0.6,10-5.1c3.4-4.4,4.5-9.3,2.4-11.1
		C58.9,136.2,54.2,138.3,50.7,142.8z"/>
	<path class="st0" d="M136.9,161.6c1.2,1.2,5.3-1,9.2-4.8c3.9-3.8,6.2-7.9,5.1-9.2c-1.2-1.4-5.5,0.6-9.5,4.5
		C137.7,156,135.6,160.3,136.9,161.6z"/>
	<path class="st0" d="M122,155.9c-3.8,4.1-5.6,8.7-4.2,10c1.4,1.3,5.5-1,9.2-5.1c3.8-4,5.8-8.3,4.5-9.7
		C130.2,149.7,125.8,151.7,122,155.9z"/>
	<path class="st0" d="M56.4,205.2c1.8,1.1,5.2-1.6,7.9-5.8c2.6-4.2,3.5-8.5,1.8-9.6c-1.7-1.2-5.5,1.3-8.2,5.6
		C55.3,199.7,54.6,204.1,56.4,205.2z"/>
	<path class="st0" d="M33.3,213.3c2,1.1,5.6-1.7,8.1-6.1c2.5-4.4,3-8.9,1.1-10.1c-2-1.2-5.8,1.4-8.4,5.9
		C31.5,207.6,31.3,212.2,33.3,213.3z"/>
	<path class="st0" d="M29.8,152.8c3.1-4.5,3.8-9.5,1.4-11.4c-2.5-1.9-7.3,0.3-10.5,4.9c-3.2,4.6-3.6,9.9-1,11.6
		C22.2,159.7,26.6,157.3,29.8,152.8z"/>
	<path class="st0" d="M79.7,188.2c-3.1,4.5-4.1,9.2-2.4,10.3c1.7,1.1,5.4-1.6,8.5-6c3-4.4,4.3-8.8,2.7-10.1
		C86.8,181.2,82.8,183.8,79.7,188.2z"/>
	<path class="st0" d="M15.6,215.4c2-3.8,2.1-7.7,0.1-8.7c-1.9-1-5.2,1.3-7.2,5.2c-2,3.9-1.9,7.9,0.1,8.8
		C10.6,221.6,13.7,219.2,15.6,215.4z"/>
	<path class="st0" d="M27.1,186.7c2.2,1.3,6-1.2,8.6-5.4c2.7-4.3,3.3-8.8,1.2-10.2c-2.1-1.4-6.2,0.9-8.9,5.2
		C25.2,180.7,24.9,185.4,27.1,186.7z"/>
	<path class="st0" d="M101,160c-3.8,4.5-5.3,9.4-3.6,10.8c1.7,1.4,5.9-1.1,9.6-5.5c3.7-4.4,5.5-9,3.9-10.5
		C109.3,153.3,104.8,155.6,101,160z"/>
	<path class="st0" d="M76,175.6c1.9,1.3,5.9-1.2,9.3-5.5c3.3-4.4,4.8-9,3-10.5c-1.8-1.5-6.1,0.8-9.6,5.3
		C75.2,169.4,74.1,174.2,76,175.6z"/>
	<path class="st0" d="M52.4,181.4c2.1,1.4,6.3-1.3,9.5-5.8c3.2-4.6,4.3-9.5,2.3-11c-2.1-1.5-6.6,0.9-9.8,5.6
		C51,174.9,50.2,180,52.4,181.4z"/>
	<path class="st0" d="M100.3,182c-3.2,4.2-4.4,8.4-3,9.5c1.5,1,5-1.4,8.1-5.5c3.1-4.1,4.6-8.2,3.3-9.3
		C107.3,175.6,103.5,177.9,100.3,182z"/>
	<path class="st0" d="M67.9,259.7c-1.6,3.5-1.8,6.7-0.7,7.2c1.1,0.5,3.2-2,4.7-5.4c1.6-3.4,2-6.6,0.9-7.1
		C71.8,253.9,69.5,256.2,67.9,259.7z"/>
	<path class="st0" d="M51.2,270.9c-1.2,3.1-1.3,6-0.2,6.4c1.1,0.4,2.9-1.8,4.2-4.9c1.2-3.1,1.4-5.9,0.3-6.4
		C54.4,265.6,52.5,267.8,51.2,270.9z"/>
	<path class="st0" d="M83.1,255.9c0.9,0.4,2.9-1.7,4.4-4.7c1.5-3,2.1-5.9,1.2-6.3c-0.9-0.5-3,1.6-4.5,4.7
		C82.7,252.6,82.2,255.5,83.1,255.9z"/>
	<path class="st0" d="M64.7,239.8c-1.9,3.7-2.2,7.2-0.9,7.8c1.3,0.6,3.7-1.9,5.5-5.5c1.8-3.6,2.4-7,1.1-7.7
		C69.2,233.8,66.6,236.2,64.7,239.8z"/>
	<path class="st0" d="M56.2,296.2c1,0.3,2.5-1.9,3.5-4.8c1-2.9,1.1-5.6,0.1-5.9c-1-0.3-2.6,1.8-3.7,4.8
		C55.2,293.2,55.3,295.9,56.2,296.2z"/>
	<path class="st0" d="M74.9,296.2c-0.8,2.3-0.9,4.4-0.2,4.6c0.6,0.2,1.8-1.5,2.6-3.8c0.8-2.3,0.9-4.3,0.3-4.5
		C76.9,292.2,75.7,293.9,74.9,296.2z"/>
	<path class="st0" d="M160,139.5c1.2,1.5,5.6-0.4,10-4c4.4-3.6,7.3-7.6,6.2-9.2c-1.1-1.6-5.7,0.1-10.3,3.7
		C161.5,133.7,158.9,138.1,160,139.5z"/>
	<path class="st0" d="M80.8,238.6c1.2,0.7,3.9-1.9,6-5.7c2.1-3.8,3-7.4,1.8-8.1c-1.2-0.7-4.1,1.7-6.2,5.6
		C80.3,234.2,79.6,237.9,80.8,238.6z"/>
	<path class="st0" d="M140.8,142c1.4,1.5,5.8-0.5,10.2-4.4c4.3-3.9,6.9-8.2,5.7-9.8c-1.3-1.6-6,0.1-10.4,4.1
		C141.7,135.8,139.4,140.5,140.8,142z"/>
	<path class="st0" d="M137.7,192.2c2.9-3.4,4.5-6.7,3.6-7.5c-0.9-0.9-4.1,1.1-7,4.6c-2.9,3.4-4.4,6.9-3.4,7.7
		C131.9,197.8,134.8,195.6,137.7,192.2z"/>
	<path class="st0" d="M145.8,166.7c-1-1.1-4.7,0.9-8,4.5c-3.3,3.6-5.1,7.4-4,8.4c1.1,1,4.5-1.2,7.8-4.7
		C144.8,171.4,146.8,167.7,145.8,166.7z"/>
	<path class="st0" d="M119.4,176.2c-3.4,4.1-5,8.4-3.7,9.5c1.3,1.1,5-1.4,8.3-5.4c3.4-4,5.2-8.1,4-9.2
		C126.8,169.9,122.9,172.2,119.4,176.2z"/>
	<path class="st0" d="M156.9,179.8c-0.7-0.7-3.6,1-6.3,3.9c-2.7,2.9-4.2,5.9-3.5,6.6c0.7,0.7,3.5-1.2,6.1-4
		C155.9,183.4,157.6,180.5,156.9,179.8z"/>
	<path class="st0" d="M61.2,218.3c-2.4,4.3-2.9,8.5-1.3,9.4c1.6,0.9,4.7-1.9,7.1-6.1c2.4-4.2,3.1-8.3,1.6-9.2
		C67,211.4,63.6,214.1,61.2,218.3z"/>
	<path class="st0" d="M81.1,210.1c-2.5,4-3.3,7.9-1.9,8.8c1.4,0.8,4.4-1.7,6.8-5.6c2.4-3.9,3.4-7.7,2.1-8.6
		C86.9,203.7,83.6,206.2,81.1,210.1z"/>
	<path class="st0" d="M119.1,216.2c2.3-3.3,3.5-6.5,2.6-7.2c-0.9-0.7-3.6,1.5-6,4.8c-2.4,3.4-3.4,6.7-2.4,7.3
		C114.2,221.8,116.8,219.5,119.1,216.2z"/>
	<path class="st0" d="M121.3,198.6c2.7-3.5,4.2-7,3.1-7.9c-1-0.9-4.2,1.3-6.9,4.9c-2.8,3.6-4,7.2-2.9,8
		C115.6,204.4,118.6,202.2,121.3,198.6z"/>
	<path class="st0" d="M90.2,301c-0.5,1.5-0.6,2.8-0.2,2.9c0.4,0.1,1.1-1,1.5-2.5c0.5-1.5,0.6-2.7,0.3-2.8
		C91.4,298.5,90.7,299.6,90.2,301z"/>
	<path class="st0" d="M99.7,202.4c-2.8,4-3.9,8.1-2.6,8.9c1.3,0.9,4.5-1.7,7.2-5.6c2.7-3.9,4-7.8,2.8-8.7
		C105.9,196,102.4,198.4,99.7,202.4z"/>
	<path class="st0" d="M105.4,216.9c-1-0.7-3.7,1.5-5.8,4.9c-2.2,3.4-3,6.7-2,7.4c1,0.6,3.5-1.7,5.6-5
		C105.3,220.8,106.3,217.5,105.4,216.9z"/>
	<path class="st0" d="M236.2,150c-0.2-0.4-1.8,0.2-3.6,1.3c-1.8,1.1-3.1,2.3-2.9,2.7c0.2,0.4,1.8-0.2,3.6-1.3
		C235.1,151.6,236.4,150.4,236.2,150z"/>
	<path class="st0" d="M259.2,149.2c0.1,0.1,0.7,0,1.3-0.4c0.7-0.3,1.2-0.7,1.1-0.8c-0.1-0.1-0.6,0-1.3,0.4
		C259.7,148.7,259.2,149,259.2,149.2z"/>
	<path class="st0" d="M236.7,161.7c0.1,0.1,0.6-0.1,1.2-0.5c0.6-0.4,1.1-0.8,1-0.9c-0.1-0.1-0.6,0.1-1.2,0.5
		C237.1,161.2,236.7,161.6,236.7,161.7z"/>
	<path class="st0" d="M249.2,148.8c-0.1-0.2-1.3,0.1-2.5,0.8c-1.3,0.7-2.2,1.5-2.1,1.8c0.1,0.2,1.3-0.1,2.5-0.8
		C248.4,149.8,249.3,149.1,249.2,148.8z"/>
	<path class="st0" d="M222.9,151.6c-0.3-0.5-2.4,0.3-4.8,1.8c-2.3,1.6-3.9,3.3-3.6,3.8c0.3,0.5,2.4-0.4,4.7-1.9
		C221.5,153.7,223.2,152.1,222.9,151.6z"/>
	<path class="st0" d="M194.3,156c-0.6-0.8-3.5,0.6-6.6,3c-3,2.5-5,5.2-4.4,5.9c0.6,0.7,3.4-0.7,6.5-3.2
		C192.8,159.4,194.8,156.8,194.3,156z"/>
	<path class="st0" d="M201.4,181.2c0.2,0.2,1.1-0.3,2.1-1.2c1-0.8,1.8-1.7,1.6-1.9c-0.2-0.2-1.1,0.3-2.2,1.1
		C201.9,180.1,201.2,181,201.4,181.2z"/>
	<path class="st0" d="M210.2,166.5c-1.6,1.2-2.7,2.5-2.4,2.8c0.2,0.3,1.7-0.4,3.3-1.5c1.6-1.2,2.7-2.4,2.5-2.7
		C213.3,164.7,211.8,165.3,210.2,166.5z"/>
	<path class="st0" d="M222.3,165.3c0.1,0.2,1.2-0.2,2.4-1c1.2-0.8,2-1.6,1.9-1.9c-0.1-0.2-1.2,0.2-2.4,1
		C223,164.2,222.2,165.1,222.3,165.3z"/>
	<path class="st0" d="M22.4,120.4c3.2-4.2,3.9-9.2,1.4-11.3c-2.6-2.2-7.5-0.5-10.8,3.8c-3.3,4.3-3.7,9.5-1,11.6
		C14.6,126.5,19.2,124.6,22.4,120.4z"/>
	<path class="st0" d="M211.5,124.8c-0.7-1.2-4.8-0.1-9,2.8c-4.2,2.8-6.9,6.2-6.1,7.4c0.7,1.2,4.7-0.2,8.8-3
		C209.3,129.2,212.2,126.1,211.5,124.8z"/>
	<path class="st0" d="M172.1,175.2c-0.6-0.7-3.3,0.8-5.9,3.4c-2.6,2.6-4.2,5.3-3.6,5.9c0.6,0.6,3.2-1,5.8-3.6
		C171,178.4,172.7,175.8,172.1,175.2z"/>
	<path class="st0" d="M227.7,124.6c-0.6-1.1-4.2-0.2-8.2,2.3c-3.9,2.4-6.6,5.3-6,6.4c0.6,1,4.2-0.2,8.1-2.5
		C225.5,128.4,228.2,125.7,227.7,124.6z"/>
	<path class="st0" d="M189.6,150.3c0.7,0.9,4-0.5,7.6-3.2c3.5-2.7,5.9-5.5,5.3-6.5c-0.6-1-4.1,0.3-7.7,2.9
		C191.2,146.3,189,149.3,189.6,150.3z"/>
	<path class="st0" d="M332.8,124.3c0,0,0.4,0.1,0.8,0c0.4-0.1,0.8-0.3,0.8-0.3s-0.4-0.1-0.8,0C333.2,124.1,332.8,124.3,332.8,124.3z
		"/>
	<path class="st0" d="M246.6,137.6c-0.2-0.6-2.5,0-5,1.4c-2.5,1.4-4.3,3-4,3.5c0.2,0.6,2.4-0.2,4.9-1.5
		C245.1,139.7,246.9,138.2,246.6,137.6z"/>
	<path class="st0" d="M232.6,138.3c-0.4-0.7-3.1,0.1-6,1.9c-2.9,1.8-4.9,3.8-4.5,4.5c0.4,0.7,3-0.2,5.9-2
		C230.9,140.9,233,139,232.6,138.3z"/>
	<path class="st0" d="M194.3,125.4c-0.9-1.4-5.2,0-9.6,3.2c-4.4,3.3-7,7.1-6.1,8.4c1,1.3,5.1-0.3,9.4-3.5
		C192.3,130.4,195.2,126.8,194.3,125.4z"/>
	<path class="st0" d="M55.6,120.2c3.9-4.6,5.2-10.1,2.8-12.4c-2.5-2.4-8-0.5-12.1,4.2c-4,4.8-5,10.6-2.3,12.7
		C46.6,126.9,51.7,124.8,55.6,120.2z"/>
	<path class="st0" d="M113.2,264c-0.7,1.4-1,2.7-0.7,2.9c0.3,0.2,1.2-0.9,1.9-2.3c0.7-1.5,1.1-2.7,0.7-2.9
		C114.8,261.5,113.9,262.5,113.2,264z"/>
	<path class="st0" d="M113,279.3c-0.4,0.9-0.6,1.7-0.4,1.8c0.2,0.1,0.7-0.6,1.1-1.5c0.4-0.9,0.6-1.7,0.4-1.8
		C113.9,277.7,113.4,278.4,113,279.3z"/>
	<path class="st0" d="M37.8,284.4c1.1-3.3,1.1-6.3-0.2-6.8c-1.3-0.4-3.3,1.9-4.5,5.3c-1.1,3.4-1,6.4,0.3,6.8
		C34.8,290.1,36.7,287.7,37.8,284.4z"/>
	<path class="st0" d="M88.1,284.7c-0.7,1.9-0.9,3.5-0.4,3.7c0.5,0.2,1.5-1.2,2.2-3.1c0.7-1.8,1-3.5,0.5-3.7
		C89.8,281.5,88.8,282.9,88.1,284.7z"/>
	<path class="st0" d="M71.1,283.9c0.8,0.3,2.2-1.6,3.3-4.3c1-2.6,1.3-5,0.5-5.3c-0.8-0.3-2.3,1.6-3.4,4.2
		C70.5,281.2,70.3,283.6,71.1,283.9z"/>
	<path class="st0" d="M187.4,186.4c0.2,0.3,1.5-0.5,2.8-1.7c1.3-1.2,2.2-2.4,2-2.6c-0.2-0.3-1.5,0.4-2.8,1.6
		C188.1,184.9,187.2,186.1,187.4,186.4z"/>
	<path class="st0" d="M51,252.3c1.7-3.8,2-7.4,0.6-8.1c-1.5-0.7-4.2,1.9-5.9,5.8c-1.7,3.9-1.9,7.6-0.4,8.2
		C46.8,258.8,49.3,256.2,51,252.3z"/>
	<path class="st0" d="M9.5,275.4c1.1-3.4,0.9-6.6-0.7-7.1c-1.6-0.5-3.8,1.8-5,5.3c-1.2,3.5-0.8,6.7,0.8,7.1
		C6.1,281.2,8.3,278.8,9.5,275.4z"/>
	<path class="st0" d="M23.9,240.6c1.8-4,1.9-7.9,0.1-8.7c-1.9-0.8-4.9,1.7-6.8,5.8c-1.9,4.1-1.7,8.1,0.2,8.8
		C19.2,247.2,22.1,244.6,23.9,240.6z"/>
	<path class="st0" d="M30.8,263.3c1.3-3.3,1.3-6.5-0.1-7c-1.4-0.6-3.7,1.7-5.1,5.1c-1.3,3.4-1.2,6.6,0.2,7.1
		C27.4,269,29.5,266.6,30.8,263.3z"/>
	<path class="st0" d="M101.8,289.9c-0.4,1-0.5,1.8-0.3,1.9c0.2,0.1,0.7-0.6,1.1-1.6c0.4-1,0.5-1.8,0.3-1.9
		C102.7,288.2,102.2,288.9,101.8,289.9z"/>
	<path class="st0" d="M182.1,198.8c0.1,0.1,0.9-0.4,1.7-1.2c0.8-0.8,1.4-1.6,1.2-1.7c-0.1-0.2-0.9,0.4-1.7,1.1
		C182.5,197.9,182,198.6,182.1,198.8z"/>
	<path class="st0" d="M165.6,191.2c-0.5-0.4-2.4,0.8-4.3,2.9c-1.9,2.1-3.1,4.1-2.6,4.6c0.5,0.4,2.3-0.9,4.2-3
		C164.8,193.7,166,191.6,165.6,191.2z"/>
	<path class="st0" d="M100.7,274c-0.9,1.9-1.2,3.7-0.7,3.9c0.5,0.2,1.5-1.2,2.4-3.2c0.9-1.9,1.2-3.7,0.7-3.9
		C102.7,270.6,101.5,272,100.7,274z"/>
	<path class="st0" d="M195.7,192.6c0,0,0.3-0.1,0.7-0.4c0.3-0.3,0.5-0.6,0.5-0.6s-0.4,0.1-0.7,0.4
		C195.9,192.2,195.7,192.6,195.7,192.6z"/>
	<path class="st0" d="M175.4,188.6c-1.8,1.8-2.9,3.5-2.5,3.9c0.4,0.4,2.1-0.7,3.8-2.5c1.8-1.7,2.9-3.5,2.6-3.9
		C179,185.7,177.2,186.8,175.4,188.6z"/>
	<path class="st0" d="M39.8,236.2c1.6,0.8,4.4-1.8,6.4-5.6c1.9-3.8,2.3-7.6,0.7-8.4c-1.6-0.8-4.6,1.6-6.6,5.5
		C38.3,231.6,38.1,235.4,39.8,236.2z"/>
	<path class="st0" d="M98,246.6c0.9,0.5,2.9-1.7,4.7-4.8c1.8-3.1,2.6-6,1.7-6.5c-0.9-0.5-3.1,1.6-4.9,4.7
		C97.8,243.1,97.1,246.1,98,246.6z"/>
	<path class="st0" d="M125.4,254.6c-0.7,1.3-1.1,2.5-0.8,2.6c0.3,0.2,1.1-0.8,1.8-2.1c0.7-1.3,1.1-2.4,0.8-2.6
		C126.9,252.4,126.1,253.3,125.4,254.6z"/>
	<path class="st0" d="M235.8,126.5c-3.6,2-6,4.4-5.6,5.3c0.5,0.9,3.6,0,7.2-2c3.5-2,6.1-4.2,5.7-5.1
		C242.6,123.8,239.4,124.5,235.8,126.5z"/>
	<path class="st0" d="M292.8,129.7c0.1,0.3,1.1,0.1,2.4-0.3c1.2-0.4,2.2-1,2.2-1.2c0-0.2-1.1-0.1-2.4,0.3
		C293.7,128.9,292.7,129.5,292.8,129.7z"/>
	<polygon class="st0" points="273.6,147.5 273.7,147.5 273.8,147.4 273.7,147.4 	"/>
	<path class="st0" d="M359,120.7c0.3,0,0.5-0.1,0.5-0.1s-0.2-0.1-0.5,0c-0.2,0-0.5,0.1-0.5,0.1S358.8,120.8,359,120.7z"/>
	<polygon class="st0" points="479.4,117.5 479.3,117.5 479.2,117.5 479.3,117.5 	"/>
	<polygon class="st0" points="464.2,119.3 464.2,119.3 464.1,119.3 464.2,119.3 	"/>
	<path class="st0" d="M494.9,116.2c0.5,0.2,1,0.1,1,0.1s-0.3-0.4-0.7-0.5c-0.5-0.2-1-0.1-1-0.1S494.4,116,494.9,116.2z"/>
	<polygon class="st0" points="605.1,112.4 605.1,112.4 605,112.3 605,112.4 	"/>
	<path class="st0" d="M344.4,117.3c0,0.2,0.7,0.2,1.7,0.1c0.9-0.1,1.6-0.4,1.6-0.6c0-0.2-0.8-0.2-1.7-0.1
		C345.1,116.9,344.4,117.1,344.4,117.3z"/>
	<path class="st0" d="M287.9,119.6c0.2,0.6,2.3,0.3,4.8-0.5c2.5-0.8,4.4-1.9,4.3-2.5c-0.2-0.6-2.3-0.4-4.8,0.4
		C289.6,117.9,287.7,119.1,287.9,119.6z"/>
	<path class="st0" d="M277.3,115.2c-3.2,1.2-5.5,2.9-5.3,3.7c0.2,0.7,3,0.3,6.1-0.9c3.2-1.2,5.5-2.8,5.4-3.5
		C283.2,113.7,280.4,114,277.3,115.2z"/>
	<path class="st0" d="M253.1,140.8c0.2,0.4,1.9-0.1,3.8-1c1.9-0.9,3.3-2,3.2-2.4c-0.1-0.4-1.9,0-3.8,0.9
		C254.3,139.2,252.9,140.4,253.1,140.8z"/>
	<path class="st0" d="M268.2,139.5c0.1,0.2,1.2,0,2.5-0.6c1.3-0.6,2.3-1.2,2.2-1.5c-0.1-0.3-1.2,0-2.5,0.5
		C269,138.5,268.1,139.2,268.2,139.5z"/>
	<path class="st0" d="M282.9,138.7c0,0.1,0.6,0,1.3-0.2c0.6-0.3,1.2-0.6,1.1-0.7c0-0.1-0.6-0.1-1.2,0.2
		C283.4,138.2,282.9,138.5,282.9,138.7z"/>
	<path class="st0" d="M218,139.2c-0.5-0.9-3.7,0.2-7,2.4c-3.4,2.3-5.6,4.9-5.1,5.7c0.5,0.8,3.6-0.4,6.9-2.6
		C216.2,142.5,218.5,140.1,218,139.2z"/>
	<path class="st0" d="M277.6,129.6c0.1,0.4,1.8,0.1,3.8-0.6c2-0.8,3.4-1.7,3.3-2.1c-0.2-0.4-1.8-0.2-3.8,0.6
		C279,128.3,277.5,129.2,277.6,129.6z"/>
	<path class="st0" d="M262.2,130c0.2,0.6,2.4,0.1,5-1c2.5-1.1,4.4-2.4,4.2-3c-0.2-0.6-2.4-0.2-5,0.9
		C263.9,127.9,262,129.4,262.2,130z"/>
	<path class="st0" d="M307.5,130.4c0,0.1,0.5,0.1,1.1-0.1c0.6-0.2,1.1-0.4,1.1-0.5c0-0.1-0.6-0.1-1.2,0.1
		C307.9,130,307.5,130.4,307.5,130.4z"/>
	<path class="st0" d="M246.4,130.7c0.3,0.7,3,0,6.1-1.5c3.1-1.5,5.3-3.3,5.1-4c-0.3-0.7-3.1-0.2-6.2,1.3
		C248.3,128.1,246.1,129.9,246.4,130.7z"/>
	<path class="st0" d="M73.1,123.8c2.3,2.1,7.3,0,11.4-4.5c4.2-4.5,5.9-9.8,3.8-11.9c-2.2-2.3-7.6-0.5-11.8,4.1
		C72.2,116.1,70.8,121.7,73.1,123.8z"/>
	<path class="st0" d="M303.1,120.8c0.1,0.4,1.7,0.3,3.6-0.3c1.9-0.5,3.5-1.3,3.4-1.7c-0.1-0.4-1.7-0.4-3.6,0.2
		C304.5,119.6,303,120.4,303.1,120.8z"/>
	<path class="st0" d="M589.7,49.6c0.8,0.4,1.6,0.5,1.9,0.1c0.2-0.4-0.2-1-1-1.5c-0.8-0.4-1.6-0.5-1.9-0.1
		C588.6,48.5,589,49.2,589.7,49.6z"/>
	<path class="st0" d="M564.4,112.9c0.4,0.3,0.9,0.4,1,0.2c0.1-0.1-0.2-0.5-0.6-0.7c-0.4-0.2-0.9-0.4-1-0.2
		C563.8,112.3,564,112.6,564.4,112.9z"/>
	<path class="st0" d="M450.5,47.1c-0.4,1.4,2.5,3.1,6.3,3.8c3.9,0.7,7.3,0.2,7.8-1.2c0.5-1.4-2.3-3.3-6.2-4
		C454.5,45,450.9,45.7,450.5,47.1z"/>
	<path class="st0" d="M617.4,42.8c0.6,0.3,1.1,0.4,1.4,0.1c0.2-0.3,0-0.8-0.6-1.1c-0.6-0.3-1.2-0.4-1.4-0.1
		C616.6,42,616.9,42.5,617.4,42.8z"/>
	<path class="st0" d="M499.5,72.8c2.2,0.7,4.3,0.7,4.7,0c0.4-0.8-1.2-2-3.4-2.8c-2.3-0.8-4.4-0.7-4.7,0.1
		C495.7,70.8,497.2,72,499.5,72.8z"/>
	<path class="st0" d="M7,187.8c2.4-4.2,2.6-8.7,0.2-10.1c-1.9-1.1-4.9,0.2-7.2,3v12.8C2.3,193.4,5.1,191.2,7,187.8z"/>
	<path class="st0" d="M532,42.9c2.5,1,5.1,0.9,5.6-0.2c0.6-1.1-1-2.8-3.6-3.8c-2.6-1-5.1-0.9-5.7,0.3C527.9,40.3,529.5,42,532,42.9z
		"/>
	<path class="st0" d="M421.6,15.8c-0.4,2.1,3.3,4.1,8.2,4.6c4.9,0.5,9.2-0.7,9.6-2.9c0.5-2.2-3.1-4.4-8.1-4.9
		C426.3,12.1,421.9,13.6,421.6,15.8z"/>
	<path class="st0" d="M614.1,14.2c0.3,0.2,0.7,0.2,0.8,0c0.2-0.2,0-0.5-0.3-0.7c-0.3-0.2-0.7-0.2-0.8,0
		C613.6,13.8,613.8,14.1,614.1,14.2z"/>
	<path class="st0" d="M509.6,50.4c2.5,0.8,4.9,0.7,5.4-0.3c0.5-1-1.2-2.6-3.7-3.4c-2.6-0.9-5-0.7-5.5,0.3
		C505.3,48.1,507,49.6,509.6,50.4z"/>
	<path class="st0" d="M356.3,110.3c0,0.3,1.3,0.5,2.8,0.3c1.5-0.1,2.8-0.5,2.8-0.8c0-0.3-1.3-0.5-2.8-0.4
		C357.5,109.6,356.3,110,356.3,110.3z"/>
	<path class="st0" d="M468.7,107.9c1,0.3,1.9,0.3,2,0.1c0.1-0.2-0.6-0.7-1.7-1c-1-0.3-1.9-0.3-2-0.1
		C466.9,107.2,467.7,107.6,468.7,107.9z"/>
	<path class="st0" d="M595,72.4c0.8,0.5,1.7,0.6,2,0.3c0.2-0.4-0.2-1.1-1-1.6c-0.8-0.5-1.7-0.6-2-0.2
		C593.8,71.2,594.2,71.9,595,72.4z"/>
	<path class="st0" d="M323.1,109.7c-0.1-0.6-2.1-0.6-4.5,0c-2.4,0.6-4.3,1.5-4.2,2c0.1,0.5,2.1,0.5,4.5-0.1
		C321.3,111.1,323.1,110.2,323.1,109.7z"/>
	<path class="st0" d="M412.1,110.3c0.9,0.1,1.6,0,1.6-0.2c0-0.2-0.7-0.4-1.5-0.5c-0.9-0.1-1.6,0-1.7,0.2
		C410.5,110,411.2,110.2,412.1,110.3z"/>
	<path class="st0" d="M474,94.4c2,0.5,3.6,0.6,3.8,0c0.2-0.5-1.1-1.4-3.1-1.9c-1.9-0.6-3.7-0.5-3.8,0
		C470.8,93.1,472.1,93.9,474,94.4z"/>
	<path class="st0" d="M310,106.3c-0.2-0.8-2.9-0.7-6,0.1c-3.2,0.9-5.6,2.3-5.5,3.1c0.2,0.8,2.9,0.6,6-0.3
		C307.7,108.3,310.2,107.1,310,106.3z"/>
	<polygon class="st0" points="600.6,92.9 600.5,92.7 600.3,92.7 600.4,92.9 	"/>
	<path class="st0" d="M177.6,210.6c0,0,0.2-0.1,0.3-0.3c0.2-0.2,0.2-0.4,0.2-0.4s-0.2,0.1-0.3,0.3
		C177.6,210.4,177.6,210.6,177.6,210.6z"/>
	<path class="st0" d="M27.6,317.6c0.7-2.6,0.4-5-0.6-5.2c-1-0.2-2.4,1.7-3.1,4.4c-0.6,2.7-0.3,5,0.7,5.2
		C25.7,322.2,27,320.2,27.6,317.6z"/>
	<path class="st0" d="M92.8,317.5c0,0,0.3-0.3,0.4-0.7c0.1-0.4,0-0.8,0-0.8s-0.3,0.3-0.4,0.7C92.7,317.1,92.8,317.5,92.8,317.5z"/>
	<path class="st0" d="M113.6,247.9c-1.3,2.3-1.8,4.4-1.3,4.7c0.6,0.3,2-1.3,3.3-3.6c1.3-2.3,1.9-4.3,1.4-4.7
		C116.5,244.1,114.9,245.6,113.6,247.9z"/>
	<path class="st0" d="M56.1,339.5c0.2-1.3,0.1-2.4-0.3-2.4c-0.4-0.1-0.9,0.9-1.1,2.2c-0.3,1.3-0.1,2.4,0.2,2.4
		C55.3,341.7,55.8,340.8,56.1,339.5z"/>
	<path class="st0" d="M103.4,253.7c-0.6-0.3-2.1,1.3-3.3,3.7c-1.2,2.3-1.6,4.5-1,4.8c0.6,0.3,2-1.4,3.2-3.7
		C103.5,256.2,104,254,103.4,253.7z"/>
	<path class="st0" d="M89.6,263.1c-0.8-0.4-2.5,1.6-3.7,4.4c-1.3,2.8-1.6,5.3-0.8,5.6c0.8,0.3,2.4-1.7,3.6-4.4
		C90,266,90.4,263.5,89.6,263.1z"/>
	<path class="st0" d="M208.8,153.7c-0.4-0.6-2.9,0.4-5.6,2.4c-2.6,2-4.4,4.1-4,4.7c0.4,0.6,2.9-0.5,5.5-2.5
		C207.4,156.4,209.2,154.3,208.8,153.7z"/>
	<path class="st0" d="M137.5,245.9c-0.5,0.8-0.8,1.5-0.6,1.6c0.2,0.1,0.7-0.5,1.2-1.2c0.5-0.8,0.7-1.5,0.6-1.6
		C138.5,244.6,138,245.1,137.5,245.9z"/>
	<path class="st0" d="M135.1,260.7c0,0,0.2-0.2,0.3-0.4c0.1-0.2,0.2-0.5,0.2-0.5s-0.2,0.2-0.3,0.4
		C135.2,260.4,135.1,260.7,135.1,260.7z"/>
	<path class="st0" d="M124.3,269.5c-0.2,0.4-0.2,0.8-0.2,0.8s0.3-0.2,0.5-0.7c0.2-0.4,0.2-0.8,0.2-0.8S124.5,269.1,124.3,269.5z"/>
	<path class="st0" d="M78.7,313c-0.4,1.4-0.4,2.5-0.1,2.6c0.4,0.1,1-0.9,1.3-2.3c0.4-1.3,0.4-2.5,0.1-2.6
		C79.7,310.6,79.1,311.6,78.7,313z"/>
	<path class="st0" d="M102.9,306c0,0,0.3-0.3,0.5-0.8c0.2-0.5,0.1-0.9,0.1-0.9s-0.3,0.3-0.5,0.8C102.9,305.6,102.9,306,102.9,306z"
		/>
	<path class="st0" d="M63.8,309.1c0.6-2,0.6-3.7,0-3.9c-0.6-0.2-1.6,1.3-2.2,3.3c-0.6,2-0.5,3.7,0.1,3.9
		C62.3,312.6,63.3,311.1,63.8,309.1z"/>
	<path class="st0" d="M43.9,303.9c0.7-2.4,0.6-4.6-0.2-4.8c-0.9-0.2-2.2,1.5-2.9,4c-0.7,2.4-0.6,4.6,0.3,4.8
		C42,308.1,43.2,306.3,43.9,303.9z"/>
	<path class="st0" d="M82.3,330.7c0.2,0.1,0.6-0.7,0.8-1.6c0.2-1,0.2-1.7,0-1.8c-0.2,0-0.6,0.7-0.8,1.6
		C82.1,329.9,82.1,330.7,82.3,330.7z"/>
	<path class="st0" d="M50.3,322.3c0.6-2.3,0.4-4.3-0.3-4.5c-0.8-0.2-1.9,1.6-2.4,3.9c-0.6,2.3-0.4,4.3,0.4,4.5
		C48.7,326.4,49.7,324.6,50.3,322.3z"/>
	<path class="st0" d="M9.4,332.3c0.3-1.8,0-3.3-0.7-3.5c-0.8-0.1-1.7,1.2-2,3c-0.3,1.8,0,3.4,0.8,3.5C8.2,335.5,9,334.1,9.4,332.3z"
		/>
	<path class="st0" d="M35.5,336.3c0.3-1.7,0.1-3.1-0.5-3.2c-0.6-0.1-1.4,1.2-1.7,2.9c-0.3,1.7-0.1,3.1,0.5,3.2
		C34.5,339.3,35.2,338,35.5,336.3z"/>
	<path class="st0" d="M68.4,326c0.4-1.7,0.4-3.1-0.1-3.2c-0.5-0.1-1.2,1.2-1.6,2.9c-0.4,1.7-0.3,3.1,0.2,3.2
		C67.3,329,68,327.7,68.4,326z"/>
	<path class="st0" d="M72.6,340.8c-0.2,0-0.4,0.5-0.6,1.2c-0.1,0.7-0.1,1.2,0.1,1.3c0.2,0,0.4-0.5,0.6-1.2
		C72.8,341.3,72.7,340.8,72.6,340.8z"/>
	<path class="st0" d="M170.2,202.8c-1.1,1.2-1.7,2.3-1.5,2.5c0.2,0.2,1.3-0.5,2.3-1.7c1.1-1.2,1.8-2.3,1.5-2.5
		C172.3,200.9,171.2,201.6,170.2,202.8z"/>
	<path class="st0" d="M148.8,202c2.2-2.6,3.5-5.1,2.9-5.7c-0.6-0.6-3,1.1-5.2,3.7c-2.2,2.6-3.4,5.2-2.8,5.8
		C144.4,206.3,146.6,204.6,148.8,202z"/>
	<path class="st0" d="M149.3,237.7c-0.3,0.5-0.4,1-0.4,1c0.1,0.1,0.4-0.3,0.8-0.8c0.4-0.5,0.5-1,0.5-1S149.7,237.2,149.3,237.7z"/>
	<path class="st0" d="M215.4,176.3c0,0,0.6-0.2,1.1-0.5c0.5-0.4,0.8-0.9,0.8-0.9c0-0.1-0.5,0.1-1,0.5
		C215.7,175.8,215.4,176.2,215.4,176.3z"/>
	<path class="st0" d="M156.7,209c-1.4,1.7-2.3,3.4-1.9,3.7c0.4,0.3,1.8-0.8,3.3-2.6c1.4-1.7,2.3-3.3,2-3.7
		C159.7,206.2,158.2,207.3,156.7,209z"/>
	<path class="st0" d="M181.3,174.1c-2.3,2.1-3.8,4.3-3.3,4.8c0.5,0.6,2.7-0.7,5-2.8c2.3-2.1,3.8-4.2,3.4-4.7
		C186,170.8,183.7,172,181.3,174.1z"/>
	<polygon class="st0" points="250.8,158.7 251,158.7 251.1,158.6 250.9,158.7 	"/>
	<path class="st0" d="M196,170c-2.1,1.7-3.4,3.5-3.1,3.9c0.3,0.5,2.3-0.6,4.3-2.2c2-1.7,3.5-3.4,3.1-3.9
		C200,167.4,198,168.3,196,170z"/>
	<polygon class="st0" points="229.2,172 229.3,172 229.3,171.9 229.3,172 	"/>
	<path class="st0" d="M18.5,297.3c0.7-2.6,0.5-5-0.6-5.3c-1.1-0.3-2.7,1.6-3.4,4.2c-0.8,2.6-0.4,5,0.7,5.3
		C16.3,301.8,17.8,299.9,18.5,297.3z"/>
	<path class="st0" d="M118.9,227.3c-0.7-0.5-2.7,1.3-4.3,4c-1.7,2.7-2.4,5.2-1.7,5.6c0.7,0.4,2.5-1.4,4.2-4.1
		C118.7,230.2,119.6,227.8,118.9,227.3z"/>
	<path class="st0" d="M152.8,223.6c-0.8,1-1.2,2-1.1,2.1c0.2,0.2,1-0.5,1.8-1.6c0.8-1,1.3-2,1.1-2.1
		C154.4,221.9,153.6,222.5,152.8,223.6z"/>
	<path class="st0" d="M140,231.1c-1.1,1.5-1.6,3-1.3,3.2c0.3,0.2,1.5-0.8,2.5-2.4c1.1-1.5,1.7-2.9,1.3-3.2
		C142.2,228.5,141.1,229.5,140,231.1z"/>
	<path class="st0" d="M127,239.2c-1.1,1.8-1.7,3.4-1.3,3.7c0.4,0.2,1.6-1,2.7-2.8c1.1-1.8,1.7-3.4,1.3-3.6
		C129.4,236.3,128.1,237.5,127,239.2z"/>
	<path class="st0" d="M165.4,216.6c-0.6,0.7-0.9,1.3-0.8,1.4c0.1,0.1,0.7-0.3,1.3-1c0.6-0.7,0.9-1.3,0.8-1.4
		C166.5,215.4,166,215.9,165.4,216.6z"/>
	<path class="st0" d="M133.3,219.4c-0.6-0.5-2.6,1.2-4.4,3.8c-1.8,2.5-2.7,5-2,5.4c0.6,0.4,2.5-1.3,4.3-3.9
		C132.9,222.2,133.9,219.9,133.3,219.4z"/>
	<path class="st0" d="M143.1,215.8c-1.5,2-2.4,3.9-1.9,4.3c0.5,0.3,2-1,3.5-3c1.5-2,2.4-3.9,2-4.2
		C146.2,212.5,144.6,213.9,143.1,215.8z"/>
	<path class="st0" d="M134.1,208.8c2.2-2.8,3.4-5.6,2.7-6.2c-0.7-0.6-3.2,1.2-5.4,4c-2.2,2.9-3.3,5.7-2.6,6.3
		C129.6,213.5,131.9,211.6,134.1,208.8z"/>
	<path class="st0" d="M453.3,110.6c0.5,0.1,1,0,1,0s-0.3-0.3-0.9-0.4c-0.5-0.1-1.1,0-1.1,0S452.7,110.4,453.3,110.6z"/>
	<path class="st0" d="M441.8,102c1.6,0.3,2.9,0.2,3-0.2c0.1-0.4-1-0.9-2.6-1.2c-1.5-0.3-2.9-0.2-3,0.2
		C439.1,101.2,440.2,101.7,441.8,102z"/>
	<path class="st0" d="M517.7,99.5c-0.1,0.3,0.5,0.8,1.5,1.2c1,0.4,1.8,0.5,2,0.2c0.2-0.3-0.5-0.8-1.4-1.3
		C518.8,99.3,517.9,99.2,517.7,99.5z"/>
	<path class="st0" d="M501.5,103.1c1.3,0.5,2.5,0.6,2.6,0.2c0.2-0.4-0.7-1-2-1.5c-1.3-0.5-2.5-0.6-2.6-0.2
		C499.4,101.9,500.3,102.6,501.5,103.1z"/>
	<path class="st0" d="M424.9,105.3c-0.1,0.2,0.7,0.5,1.8,0.7c1,0.1,1.9,0.1,1.9-0.2c0.1-0.2-0.7-0.6-1.7-0.7
		C425.9,105,425,105.1,424.9,105.3z"/>
	<path class="st0" d="M99,123.2c2,2.1,7.2,0,11.8-4.5c4.6-4.5,6.8-9.7,4.9-11.9c-2-2.2-7.5-0.5-12.2,4.1
		C98.8,115.5,96.9,121.1,99,123.2z"/>
	<path class="st0" d="M399.7,103.8c1.5,0.1,2.8-0.1,2.8-0.5c0-0.3-1.1-0.7-2.6-0.7c-1.5-0.1-2.7,0.2-2.8,0.5
		C397.1,103.4,398.2,103.7,399.7,103.8z"/>
	<path class="st0" d="M484.8,105.3c0.9,0.3,1.7,0.4,1.8,0.1c0.1-0.2-0.6-0.7-1.5-1c-0.9-0.3-1.7-0.3-1.8-0.1
		C483.3,104.6,483.9,105,484.8,105.3z"/>
	<path class="st0" d="M557.3,96.7c0.7,0.4,1.3,0.5,1.5,0.2c0.2-0.2-0.3-0.7-0.9-1.1c-0.7-0.4-1.3-0.5-1.5-0.2
		C556.2,95.9,556.6,96.4,557.3,96.7z"/>
	<path class="st0" d="M376.1,103c0-0.4-1.5-0.7-3.3-0.6c-1.9,0.1-3.4,0.5-3.4,1c0,0.4,1.5,0.7,3.4,0.6
		C374.5,103.9,376,103.5,376.1,103z"/>
	<path class="st0" d="M535.8,97.1c-0.2,0.4,0.5,1.2,1.8,1.7c1.2,0.6,2.4,0.8,2.6,0.4c0.2-0.4-0.5-1.2-1.7-1.8
		C537.2,96.9,536,96.8,535.8,97.1z"/>
	<path class="st0" d="M417.8,81.5c-3.1-0.3-5.8,0.2-6,1.1c-0.1,0.9,2.2,1.7,5.3,2c3.1,0.3,5.7-0.1,5.9-1
		C423.3,82.8,420.9,81.8,417.8,81.5z"/>
	<path class="st0" d="M446.6,85.7c-2.6-0.5-4.9-0.2-5.1,0.5c-0.2,0.7,1.7,1.6,4.3,2.1c2.6,0.5,4.8,0.3,5-0.4
		C451.1,87.2,449.2,86.2,446.6,85.7z"/>
	<path class="st0" d="M509.6,87.2c1.9,0.7,3.7,0.8,4,0.2c0.3-0.6-1-1.7-2.9-2.5c-1.9-0.7-3.7-0.8-4-0.2
		C506.4,85.5,507.7,86.5,509.6,87.2z"/>
	<path class="st0" d="M529,83.5c1.4,0.6,2.8,0.7,3.1,0.2c0.3-0.5-0.7-1.4-2.1-2c-1.5-0.6-2.9-0.7-3.2-0.2
		C526.5,81.9,527.5,82.9,529,83.5z"/>
	<path class="st0" d="M387,95.3c-2.5,0-4.6,0.5-4.7,1.1c0,0.6,1.9,1.1,4.4,1.1c2.5,0,4.6-0.4,4.7-1.1
		C391.5,95.8,389.5,95.3,387,95.3z"/>
	<path class="st0" d="M426.2,91.8c-0.1,0.6,1.5,1.2,3.6,1.5c2.1,0.3,3.9,0.1,4-0.4c0.1-0.5-1.5-1.2-3.6-1.5
		C428.2,91,426.4,91.2,426.2,91.8z"/>
	<path class="st0" d="M578,95c0.7,0.4,1.5,0.6,1.7,0.3c0.2-0.3-0.2-0.9-1-1.3c-0.8-0.5-1.6-0.6-1.8-0.3C576.8,94,577.2,94.6,578,95z
		"/>
	<polygon class="st0" points="624.4,91.2 624.3,91.1 624.2,91 624.3,91.1 	"/>
	<path class="st0" d="M491.4,90.6c1.6,0.6,3.2,0.6,3.4,0.1c0.2-0.5-0.9-1.3-2.6-1.9c-1.6-0.6-3.2-0.6-3.4-0.1
		C488.6,89.3,489.8,90.1,491.4,90.6z"/>
	<path class="st0" d="M203,107.7c-1-1.7-5.8-0.5-10.8,2.8c-5,3.3-8,7.5-6.9,9.2c1,1.6,5.7,0.1,10.5-3.2
		C200.7,113.2,203.9,109.3,203,107.7z"/>
	<path class="st0" d="M221,108.6c-0.8-1.5-5.3-0.5-10,2.3c-4.7,2.9-7.8,6.5-6.9,8c0.8,1.4,5.2,0.2,9.8-2.7
		C218.5,113.4,221.7,110.1,221,108.6z"/>
	<path class="st0" d="M238,109.7c-0.6-1.3-4.7-0.5-9.2,1.9c-4.5,2.5-7.5,5.6-6.9,6.9c0.7,1.3,4.7,0.2,9.1-2.2
		C235.4,113.9,238.5,111,238,109.7z"/>
	<path class="st0" d="M463.7,80.5c-2.4-0.6-4.6-0.4-4.8,0.3c-0.2,0.7,1.6,1.7,3.9,2.2c2.4,0.6,4.5,0.5,4.8-0.2
		C467.8,82.1,466.1,81.1,463.7,80.5z"/>
	<path class="st0" d="M183.5,107.2c-1.1-1.9-6.2-0.5-11.1,3.1c-4.9,3.7-7.8,8.2-6.5,9.9c1.3,1.7,6,0.1,10.8-3.5
		C181.5,113.1,184.6,109,183.5,107.2z"/>
	<path class="st0" d="M332.6,113.1c-1.8,0.3-3.2,0.9-3.1,1.3c0,0.4,1.5,0.4,3.3,0.1c1.8-0.3,3.2-0.9,3.1-1.3
		C335.8,112.8,334.4,112.7,332.6,113.1z"/>
	<path class="st0" d="M261.8,113.8c-3.7,1.6-6.4,3.8-6,4.7c0.4,0.9,3.6,0.3,7.2-1.3c3.6-1.6,6.4-3.6,6.1-4.5
		C268.8,111.7,265.5,112.1,261.8,113.8z"/>
	<path class="st0" d="M331.4,100.2c-3.1,0.6-5.5,1.7-5.4,2.4c0.1,0.7,2.6,0.8,5.7,0.2c3-0.6,5.5-1.6,5.4-2.3
		C337,99.8,334.5,99.6,331.4,100.2z"/>
	<path class="st0" d="M123,122.1c1.7,2,6.8,0,11.5-4.2c4.6-4.2,7.3-9.1,5.7-11.1c-1.6-2.1-7-0.5-11.8,3.8
		C123.5,114.8,121.2,120.1,123,122.1z"/>
	<path class="st0" d="M439.3,113.6c0,0-0.3-0.2-0.8-0.3c-0.5-0.1-0.9,0-0.9,0s0.3,0.2,0.8,0.3C438.9,113.7,439.3,113.6,439.3,113.6z
		"/>
	<path class="st0" d="M145,121.3c1.5,1.9,6.5,0,11.4-4c4.9-4,7.8-8.6,6.4-10.6c-1.4-2-6.7-0.5-11.7,3.5
		C146.1,114.4,143.5,119.4,145,121.3z"/>
	<path class="st0" d="M527.1,113.2c-0.1,0.2,0.3,0.6,0.9,0.9c0.6,0.3,1.3,0.4,1.3,0.2c0.1-0.2-0.3-0.5-0.9-0.9
		C527.8,113.2,527.2,113.1,527.1,113.2z"/>
	<path class="st0" d="M254,111c-0.5-1.1-4.2-0.5-8.4,1.5c-4.2,2.1-7.1,4.7-6.6,5.9c0.5,1.1,4.2,0.3,8.3-1.8
		C251.4,114.6,254.5,112.2,254,111z"/>
	<path class="st0" d="M545.5,112.8c0,0,0.1,0.3,0.4,0.4c0.2,0.2,0.6,0.1,0.6,0.1s-0.1-0.3-0.4-0.4
		C545.8,112.8,545.5,112.8,545.5,112.8z"/>
	<path class="st0" d="M385.6,109.3c1.2,0,2.3-0.2,2.3-0.5c0.1-0.3-0.9-0.5-2.2-0.5c-1.3,0-2.3,0.2-2.3,0.5
		C383.3,109.1,384.4,109.3,385.6,109.3z"/>
	<path class="st0" d="M372.1,114.8c0.6,0,1.2-0.3,1.2-0.3c0-0.1-0.5-0.2-1.2-0.2c-0.6,0-1.1,0.1-1.1,0.3
		C370.9,114.7,371.4,114.9,372.1,114.8z"/>
	<path class="st0" d="M318.3,122.3c0,0.2,1,0.2,2.1-0.1c1.1-0.3,2-0.7,2-0.9c-0.1-0.2-1-0.2-2.1,0.1
		C319.1,121.7,318.2,122.1,318.3,122.3z"/>
	<path class="st0" d="M511.2,114.9c0.3,0.1,0.7,0.1,0.7,0.1s-0.2-0.3-0.5-0.4c-0.3-0.1-0.7-0.1-0.7-0.1S510.9,114.8,511.2,114.9z"/>
	<path class="st0" d="M349.6,105.2c0-0.5-1.9-0.7-4.1-0.4c-2.2,0.3-4,1-4,1.5c0,0.5,1.9,0.6,4.1,0.3
		C347.8,106.3,349.6,105.7,349.6,105.2z"/>
	<path class="st0" d="M398.1,114.7c0.3,0,0.6-0.1,0.6-0.1s-0.2-0.1-0.5-0.1c-0.3-0.1-0.6,0.1-0.6,0.1S397.8,114.6,398.1,114.7z"/>
	<path class="st0" d="M62,353.9c-0.3,0-0.7,0.8-0.8,1.8c-0.2,1,0,1.9,0.2,1.9c0.3,0,0.6-0.8,0.8-1.8C62.4,354.8,62.3,353.9,62,353.9
		z"/>
	<path class="st0" d="M43.9,0H26.1c-0.2,2.2,0.3,4.3,1.6,5.9c2.9,3.3,8.6,3,12.7-0.7C42.1,3.7,43.3,1.9,43.9,0z"/>
	<path class="st0" d="M548.5,10.5c2.3,0.9,4.7,0.7,5.4-0.5c0.6-1.2-0.8-3-3.1-3.9c-2.4-0.9-4.8-0.6-5.4,0.6
		C544.7,7.9,546.1,9.6,548.5,10.5z"/>
	<path class="st0" d="M549.3,80.1c1.6,0.7,3.1,0.9,3.5,0.4c0.4-0.6-0.6-1.7-2.2-2.4c-1.6-0.8-3.1-0.9-3.5-0.3
		C546.8,78.3,547.8,79.3,549.3,80.1z"/>
	<path class="st0" d="M4.6,28.4c-1.2-1.2-2.9-1.8-4.6-1.8v16.2c1.2-0.6,2.4-1.4,3.4-2.5C6.9,36.6,7.5,31.3,4.6,28.4z"/>
	<path class="st0" d="M451.2,6c4.2,0.6,8.1-0.4,8.6-2.4c0.3-1.2-0.6-2.5-2.4-3.5h-12.2c-0.4,0.4-0.7,0.8-0.8,1.3
		C443.9,3.3,446.9,5.4,451.2,6z"/>
	<path class="st0" d="M489.3,6.3c-3.5-0.9-6.8-0.1-7.3,1.6c-0.5,1.6,1.8,3.6,5.3,4.4c3.4,0.8,6.6,0.2,7.2-1.4
		C495.1,9.2,492.8,7.1,489.3,6.3z"/>
	<path class="st0" d="M583.6,25.2c1.5,0.7,3,0.7,3.5,0c0.5-0.8-0.3-2-1.8-2.7c-1.5-0.8-3.1-0.7-3.5,0.1
		C581.4,23.3,582.2,24.4,583.6,25.2z"/>
	<path class="st0" d="M386.1,29.3c0.1-2.2-4.1-3.9-9.5-3.7c-5.4,0.2-9.8,2.3-9.9,4.5c-0.1,2.1,4.2,3.5,9.5,3.3
		C381.6,33.2,385.9,31.4,386.1,29.3z"/>
	<path class="st0" d="M518.9,17.9c-0.5,1.2,1.1,2.9,3.7,3.7c2.5,0.9,5.1,0.6,5.6-0.6c0.6-1.2-1.1-2.9-3.6-3.8
		C522,16.4,519.5,16.7,518.9,17.9z"/>
	<path class="st0" d="M20.4,351.6c0.3-1.8-0.1-3.3-0.8-3.4c-0.7-0.1-1.5,1.3-1.7,3.1c-0.3,1.8,0.1,3.3,0.8,3.4
		C19.4,354.8,20.2,353.4,20.4,351.6z"/>
	<path class="st0" d="M39.5,387.4c0.2,0,0.5-0.6,0.5-1.4c0-0.7-0.1-1.3-0.4-1.3c-0.2,0-0.5,0.6-0.5,1.3
		C39.1,386.8,39.3,387.4,39.5,387.4z"/>
	<path class="st0" d="M16.4,386.1c0-0.9-0.2-1.6-0.6-1.6c-0.3,0-0.7,0.7-0.7,1.6c-0.1,0.9,0.2,1.6,0.6,1.6
		C16,387.7,16.3,387,16.4,386.1z"/>
	<path class="st0" d="M77.3,356.8c0,0-0.2,0.2-0.2,0.5c0,0.3,0.1,0.6,0.1,0.6s0.2-0.2,0.2-0.5C77.4,357,77.3,356.8,77.3,356.8z"/>
	<path class="st0" d="M3.6,368c0.1-0.9-0.1-1.7-0.5-1.7c-0.4,0-0.8,0.7-0.9,1.6c-0.1,0.9,0.2,1.7,0.6,1.7C3.1,369.7,3.5,369,3.6,368
		z"/>
	<path class="st0" d="M58.6,386.6c0,0,0.2-0.2,0.2-0.5c0-0.3-0.1-0.5-0.1-0.5s-0.2,0.2-0.2,0.5C58.5,386.3,58.6,386.6,58.6,386.6z"
		/>
	<path class="st0" d="M43.7,353.9c0.2-1.5,0-2.8-0.5-2.8c-0.5-0.1-1.1,1.1-1.3,2.7c-0.2,1.5,0,2.8,0.5,2.9
		C42.9,356.6,43.5,355.4,43.7,353.9z"/>
	<path class="st0" d="M401.9,29.4c-0.2,1.9,3.4,3.5,8.2,3.8c4.8,0.2,8.9-1,9.2-2.9c0.3-1.9-3.3-3.8-8.1-4.1
		C406.3,26,402.2,27.4,401.9,29.4z"/>
	<path class="st0" d="M50.9,369.6c-0.2,0-0.3,0.4-0.3,0.9c-0.1,0.5,0,0.9,0.2,0.9c0.1,0,0.3-0.4,0.3-0.9
		C51.1,370,51.1,369.6,50.9,369.6z"/>
	<path class="st0" d="M30.2,369.4c0.1-0.9-0.1-1.6-0.4-1.6c-0.3,0-0.7,0.7-0.7,1.5c-0.1,0.9,0.1,1.6,0.4,1.6
		C29.8,371,30.1,370.3,30.2,369.4z"/>
	<path class="st0" d="M265.9,105.9c0.3,1.2,4.1,0.7,8.3-0.9c4.2-1.6,7.4-3.8,7.1-4.9c-0.3-1.2-4.1-0.9-8.4,0.7
		C268.6,102.3,265.5,104.7,265.9,105.9z"/>
	<path class="st0" d="M519.5,67.7c2.4,0.9,4.6,1,5.1,0.1c0.4-0.9-1.1-2.3-3.5-3.3c-2.4-0.9-4.7-0.9-5.1,0
		C515.5,65.4,517.1,66.8,519.5,67.7z"/>
	<path class="st0" d="M464.4,61.6c-0.4,1,1.8,2.3,4.7,3c3,0.7,5.6,0.5,6-0.5c0.4-1-1.7-2.4-4.7-3.1
		C467.4,60.3,464.7,60.6,464.4,61.6z"/>
	<path class="st0" d="M490.2,53.7c-3.2-0.9-6.2-0.6-6.6,0.6c-0.5,1.2,1.8,2.8,4.9,3.7c3.1,0.9,6.1,0.7,6.5-0.4
		C495.6,56.4,493.4,54.6,490.2,53.7z"/>
	<path class="st0" d="M439.2,54.7c-3.7-0.5-7,0.2-7.3,1.5c-0.3,1.2,2.5,2.6,6.1,3.1c3.7,0.5,6.9,0,7.2-1.3
		C445.7,56.8,442.9,55.3,439.2,54.7z"/>
	<path class="st0" d="M541.2,61.9c1.7,0.7,3.4,0.8,3.7,0.2c0.4-0.7-0.6-1.9-2.4-2.6c-1.7-0.7-3.4-0.8-3.8-0.1
		C538.4,60,539.5,61.2,541.2,61.9z"/>
	<path class="st0" d="M457.4,70.9c0.3-1.1-2.1-2.5-5.5-3.1c-3.4-0.6-6.4-0.2-6.7,0.9c-0.3,1.1,2.2,2.4,5.6,3
		C454.1,72.2,457.1,71.9,457.4,70.9z"/>
	<path class="st0" d="M571.5,76.1c0.9,0.5,1.7,0.6,2,0.2c0.2-0.3-0.2-1-1.1-1.5c-0.9-0.5-1.7-0.6-2-0.2
		C570.2,74.9,570.7,75.6,571.5,76.1z"/>
	<path class="st0" d="M476.3,75.3c-0.3,0.8,1.6,2.1,4.2,2.8c2.6,0.7,5.1,0.7,5.4-0.1c0.4-0.8-1.5-2.2-4.2-2.9
		C479.1,74.3,476.6,74.4,476.3,75.3z"/>
	<path class="st0" d="M404.5,71.7c-3.6-0.2-6.6,0.6-6.8,1.7c-0.1,1.1,2.7,2,6.2,2.1c3.5,0.2,6.6-0.5,6.8-1.5
		C410.8,72.9,408.1,71.9,404.5,71.7z"/>
	<path class="st0" d="M383.9,53.7c0.1-1.6-3.7-3-8.5-2.7c-4.8,0.2-8.8,1.8-8.8,3.5c-0.1,1.6,3.7,2.7,8.5,2.4
		C379.8,56.7,383.7,55.3,383.9,53.7z"/>
	<path class="st0" d="M445.3,30c-4.2-0.6-7.8,0.4-8.2,2c-0.3,1.6,2.7,3.3,6.8,3.9c4.1,0.6,7.7-0.2,8.2-1.8
		C452.4,32.5,449.5,30.6,445.3,30z"/>
	<path class="st0" d="M471.8,37.9c-0.4,1.3,1.9,3,5.3,3.8c3.4,0.8,6.4,0.4,7-0.9c0.5-1.4-1.9-3.2-5.3-4
		C475.3,36.1,472.2,36.6,471.8,37.9z"/>
	<path class="st0" d="M564.2,56.3c1.7,0.8,3.4,0.9,3.9,0.2c0.4-0.7-0.5-2-2.2-2.8c-1.7-0.8-3.4-0.9-3.9-0.2
		C561.6,54.2,562.6,55.5,564.2,56.3z"/>
	<path class="st0" d="M556.8,34.2c1.7,0.7,3.4,0.7,3.9-0.1c0.5-0.8-0.6-2.1-2.3-2.8c-1.7-0.7-3.4-0.7-3.9,0.1
		C554.1,32.2,555.1,33.4,556.8,34.2z"/>
	<path class="st0" d="M352.6,31.3c0-2.3-4.7-3.8-10.5-3c-5.7,0.7-10.3,3.4-10.1,5.7c0.2,2.2,4.8,3.2,10.4,2.5
		C348.1,35.8,352.6,33.5,352.6,31.3z"/>
	<path class="st0" d="M425.8,40.7c-4.6-0.4-8.6,0.7-8.9,2.4c-0.3,1.7,3.1,3.3,7.7,3.7c4.5,0.4,8.4-0.5,8.8-2.1
		C433.7,43,430.3,41.2,425.8,40.7z"/>
	<path class="st0" d="M399.3,53.8c-0.1,1.5,3.1,2.7,7.4,2.9c4.2,0.2,7.9-0.7,8.1-2.1c0.2-1.5-3-2.9-7.3-3.1
		C403.1,51.2,399.5,52.3,399.3,53.8z"/>
	<path class="st0" d="M493.6,28c-0.6,1.5,1.7,3.4,5.1,4.4c3.4,0.9,6.6,0.6,7.2-0.9c0.6-1.5-1.6-3.6-5.1-4.6
		C497.4,26,494.1,26.5,493.6,28z"/>
	<path class="st0" d="M295.9,103.1c-0.2-1-3.4-0.8-7.1,0.4c-3.7,1.2-6.4,3.1-6.2,4c0.2,1,3.4,0.6,7-0.6
		C293.3,105.7,296.1,104.1,295.9,103.1z"/>
	<path class="st0" d="M265.5,97.1c-0.4-1.4-4.6-1-9.3,1c-4.6,2-7.9,4.9-7.4,6.2c0.5,1.3,4.6,0.7,9.2-1.3
		C262.6,101,266,98.5,265.5,97.1z"/>
	<path class="st0" d="M201,81c1.2,2.3,6.7,1.3,12.4-1.8c5.8-3.2,9.7-7.4,8.7-9.7c-1-2.4-6.8-1.9-12.7,1.3
		C203.6,74,199.8,78.7,201,81z"/>
	<path class="st0" d="M155.8,74.1c1.7,2.6,7.5,1.5,13.1-2.3c5.6-3.8,9.1-8.8,7.5-11.5c-1.6-2.8-7.6-2.1-13.4,1.8
		C157.3,65.9,154.1,71.4,155.8,74.1z"/>
	<path class="st0" d="M221.6,84c0.9,2,6.1,1.2,11.7-1.5c5.6-2.7,9.6-6.4,8.8-8.5c-0.8-2.1-6.2-1.8-11.9,1
		C224.5,77.8,220.7,81.9,221.6,84z"/>
	<path class="st0" d="M288.9,79.2c0.4,1.6,4.8,1.6,9.9,0.2c5.1-1.4,9.1-3.7,8.8-5.4c-0.3-1.6-4.7-2-9.9-0.5
		C292.4,74.9,288.5,77.5,288.9,79.2z"/>
	<path class="st0" d="M241,86.9c0.7,1.8,5.5,1.2,10.8-1.1c5.4-2.3,9.3-5.5,8.7-7.3c-0.6-1.9-5.6-1.7-11,0.7
		C244.1,81.5,240.3,85.1,241,86.9z"/>
	<path class="st0" d="M271.1,74.5c0.5,1.8,5.2,1.7,10.6-0.1c5.4-1.8,9.5-4.5,9.1-6.4c-0.4-1.9-5.2-2.1-10.7-0.3
		C274.5,69.5,270.6,72.6,271.1,74.5z"/>
	<path class="st0" d="M231.9,64.8c0.9,2.3,6.4,2,12.3-0.6c5.9-2.5,10.2-6.3,9.4-8.7c-0.8-2.5-6.4-2.5-12.5,0.1
		C235.1,58.1,231,62.4,231.9,64.8z"/>
	<path class="st0" d="M210.5,59.5c1.2,2.6,6.9,2.1,12.9-0.9c6-2.9,10.3-7.2,9.2-9.9c-1-2.7-7-2.7-13.2,0.3
		C213.3,52,209.3,56.8,210.5,59.5z"/>
	<path class="st0" d="M251.9,69.8c0.7,2.1,5.9,1.8,11.6-0.4c5.8-2.2,10-5.5,9.5-7.6c-0.6-2.2-5.9-2.4-11.8-0.1
		C255.3,63.9,251.2,67.6,251.9,69.8z"/>
	<path class="st0" d="M382,81.8c-0.1,1,2.7,1.7,6.2,1.7c3.5,0,6.4-0.7,6.5-1.7c0.1-1-2.7-1.9-6.2-1.8C385,79.9,382,80.8,382,81.8z"
		/>
	<path class="st0" d="M314.2,79.2c-4.7,1.1-8.2,3.1-8,4.5c0.2,1.3,4.1,1.4,8.7,0.4c4.6-1,8.2-2.9,8-4.2
		C322.8,78.5,318.9,78.2,314.2,79.2z"/>
	<path class="st0" d="M352.1,75.3c0-1.3-3.6-2-8-1.4c-4.4,0.6-7.8,2.2-7.7,3.5c0.1,1.3,3.6,1.7,8,1.1
		C348.7,78,352.2,76.6,352.1,75.3z"/>
	<path class="st0" d="M259.4,89.8c0.5,1.6,5,1.1,10-0.8c5.1-1.9,8.9-4.6,8.4-6.2c-0.4-1.6-5-1.6-10.2,0.4
		C262.5,85.1,258.9,88.2,259.4,89.8z"/>
	<path class="st0" d="M434.3,74.8c-3-0.4-5.6,0-5.8,0.9c-0.2,0.9,2.1,1.9,5,2.3c3,0.4,5.6,0.1,5.8-0.8
		C439.6,76.3,437.3,75.2,434.3,74.8z"/>
	<path class="st0" d="M344.9,90.7c-3.4,0.5-6.1,1.6-6,2.5c0,0.9,2.8,1.1,6.2,0.7c3.3-0.5,6-1.5,6-2.4
		C351.1,90.7,348.3,90.3,344.9,90.7z"/>
	<path class="st0" d="M277,92.7c0.4,1.4,4.4,1.1,9-0.4c4.6-1.5,8.2-3.7,7.9-5.1c-0.3-1.4-4.4-1.4-9.1,0.1
		C280.1,88.9,276.7,91.4,277,92.7z"/>
	<path class="st0" d="M366.3,82.5c0-1.1-3.2-1.8-7.1-1.4c-4,0.4-7.2,1.6-7.1,2.7c0,1.1,3.2,1.6,7.1,1.2
		C363.1,84.6,366.2,83.5,366.3,82.5z"/>
	<path class="st0" d="M337.7,85.7c-0.1-1.1-3.5-1.6-7.7-0.8c-4.2,0.7-7.4,2.4-7.3,3.6c0.1,1.1,3.6,1.3,7.7,0.6
		C334.5,88.3,337.7,86.8,337.7,85.7z"/>
	<path class="st0" d="M256.3,21.7c0.8,2.9,6.5,3.5,12.8,1.5c6.3-2,10.9-5.9,10.3-8.9c-0.7-3.1-6.5-4.2-13-2.1
		C259.9,14.2,255.4,18.6,256.3,21.7z"/>
	<path class="st0" d="M310.3,99.1c0.2,0.9,3.2,0.9,6.8,0.1c3.5-0.9,6.4-2.2,6.3-3.1c-0.1-0.9-3.2-1.1-6.8-0.3
		C313,96.6,310.2,98.2,310.3,99.1z"/>
	<path class="st0" d="M364.2,97.3c0-0.7-2.3-1.1-5.1-0.8c-2.8,0.3-5.1,1.1-5.1,1.7c0,0.7,2.3,1,5.1,0.7
		C361.9,98.6,364.2,98,364.2,97.3z"/>
	<path class="st0" d="M293.8,95.9c0.2,1.1,3.8,1,8.1-0.2c4.2-1.2,7.5-3,7.3-4.1c-0.2-1.2-3.8-1.3-8.2-0.1
		C296.8,92.7,293.6,94.7,293.8,95.9z"/>
	<path class="st0" d="M218.5,0h-8.6C212.1,1,215.2,1,218.5,0z"/>
	<path class="st0" d="M187.6,53.6c1.4,2.8,7.3,2.2,13.3-1c6-3.3,9.9-8,8.7-10.9c-1.3-2.9-7.4-2.9-13.6,0.5
		C189.8,45.5,186.1,50.7,187.6,53.6z"/>
	<path class="st0" d="M367.8,90c0,0.8,2.4,1.2,5.5,1.1c3-0.1,5.5-0.8,5.6-1.6c0.1-0.8-2.4-1.4-5.4-1.2
		C370.4,88.4,367.9,89.2,367.8,90z"/>
	<path class="st0" d="M458.1,96.6c-1.5-0.3-2.9-0.3-3,0.1c-0.1,0.4,1,1,2.5,1.3c1.5,0.3,2.8,0.3,3-0.1
		C460.7,97.6,459.6,97,458.1,96.6z"/>
	<path class="st0" d="M397.1,89.5c-0.1,0.7,2,1.3,4.6,1.4c2.6,0.1,4.8-0.3,4.9-1c0.1-0.7-1.9-1.3-4.5-1.5
		C399.4,88.4,397.2,88.9,397.1,89.5z"/>
	<path class="st0" d="M232.9,10.4c1.1,3.3,7.1,3.8,13.5,1.5c6.3-2.4,10.8-6.8,10-10.2c-0.2-0.7-0.6-1.2-1.1-1.7h-13.6
		C235.7,2.6,231.9,7.2,232.9,10.4z"/>
	<path class="st0" d="M414.8,96.7c-2.1-0.2-3.8,0.1-3.9,0.6c-0.1,0.5,1.5,1,3.6,1.2c2,0.2,3.8,0,3.9-0.6
		C418.5,97.5,416.8,96.9,414.8,96.7z"/>
	<path class="st0" d="M264.2,51.4c0.7,2.4,6,2.5,11.9,0.6c6-1.9,10.5-5.3,9.9-7.7c-0.5-2.5-6-3.1-12.1-1.1
		C267.9,45.2,263.5,49,264.2,51.4z"/>
	<path class="st0" d="M230.5,25.4c-6.4,2.7-10.5,7.6-9.3,10.6c1.2,2.9,7,2.9,13.2,0.2c6.2-2.6,10.5-7,9.5-10
		C243,23.2,236.9,22.7,230.5,25.4z"/>
	<path class="st0" d="M243.3,44.1c0.9,2.7,6.6,2.7,12.8,0.4c6.2-2.3,10.8-6.2,10-9c-0.7-2.8-6.6-3.3-13-1
		C246.8,37,242.4,41.4,243.3,44.1z"/>
	<path class="st0" d="M162.5,47c1.8,3,7.8,2.3,13.6-1.2c5.9-3.5,9.5-8.7,7.9-11.8c-1.6-3.2-7.9-3.1-13.9,0.6
		C164.1,38.2,160.8,43.9,162.5,47z"/>
	<path class="st0" d="M381.5,73.4c0.1-1.2-3.1-2.1-7.2-1.9c-4.1,0.2-7.4,1.4-7.4,2.6c-0.1,1.2,3.2,1.9,7.2,1.7
		C378.1,75.6,381.4,74.5,381.5,73.4z"/>
	<path class="st0" d="M282.4,0h-8.8C275.8,0.8,279,0.8,282.4,0z"/>
	<path class="st0" d="M205.6,15.3c-6.4,3.1-10.3,8.5-8.8,11.8c1.5,3.2,7.5,3.1,13.7,0.2c6.2-3,10.3-7.8,9.1-11.2
		C218.3,12.7,212,12.2,205.6,15.3z"/>
	<path class="st0" d="M192.3,4.9c-1.6-3.6-8-4.1-14.2-0.8c-6.2,3.4-9.7,9.2-7.9,12.7c1.7,3.4,7.9,3.4,13.9,0.1
		C190.1,13.7,193.8,8.4,192.3,4.9z"/>
	<path class="st0" d="M179.4,77.6c1.4,2.4,7,1.4,12.6-2.1c5.7-3.4,9.4-8,8.2-10.5c-1.3-2.5-7.1-2-13,1.5
		C181.4,70.1,178,75.2,179.4,77.6z"/>
	<path class="st0" d="M87.5,43.8c-2.5-3.1-8.5-2.4-13.3,1.9c-4.8,4.2-6.4,10.3-3.8,13.3c2.6,2.9,8.3,1.8,12.9-2.4
		C87.9,52.5,89.9,46.8,87.5,43.8z"/>
	<path class="st0" d="M120.9,49.6c-2.2-3.1-8.5-2.3-13.9,2c-5.4,4.3-7.6,10.5-5.2,13.4c2.3,2.9,8.3,1.7,13.5-2.5
		C120.5,58.4,123.1,52.7,120.9,49.6z"/>
	<path class="st0" d="M49.6,36.5c-2.9-3.3-8.9-2.5-13.4,1.8c-4.4,4.3-5.5,10.5-2.4,13.6c2.9,3,8.7,2,13-2.2
		C51.1,45.4,52.4,39.6,49.6,36.5z"/>
	<path class="st0" d="M14.1,83.7c3.6-4.2,4.3-9.6,1.4-12.2c-2.9-2.7-8.4-1.5-12.1,2.9c-3.7,4.3-4.1,10-1.1,12.5
		C5.4,89.4,10.6,87.9,14.1,83.7z"/>
	<path class="st0" d="M143.5,67.4c5.4-4,8.4-9.3,6.6-12.2c-1.9-2.9-7.9-2.2-13.5,1.9c-5.5,4.1-8.2,9.9-6.2,12.7
		C132.3,72.6,138.1,71.4,143.5,67.4z"/>
	<path class="st0" d="M134.8,39.4c2.1,3.3,8.3,2.6,13.9-1.2c5.7-3.8,8.9-9.4,7-12.7c-2-3.4-8.4-3.3-14.3,0.6
		C135.5,30.1,132.7,36.1,134.8,39.4z"/>
	<path class="st0" d="M86.7,5C84,1.3,77.5,1.4,72.4,5.5c-5.1,4.1-6.8,10.6-4,14.2c2.8,3.5,8.9,3,13.8-1C87.3,14.7,89.3,8.7,86.7,5z"
		/>
	<path class="st0" d="M423.9,0l-17.2,0c1.2,1.5,4.2,2.7,7.8,2.9C418.9,3.1,422.8,1.9,423.9,0z"/>
	<path class="st0" d="M104,30.3c2.4,3.3,8.4,2.7,13.7-1.1c5.3-3.8,7.9-9.6,5.7-13.1c-2.3-3.5-8.6-3.4-14.1,0.6
		C103.9,20.7,101.6,26.9,104,30.3z"/>
	<path class="st0" d="M140.3,4.9c2.1,3.7,8.3,3.7,14.1,0.2c2.3-1.4,4.3-3.2,5.6-5.1h-20.1C139.4,1.8,139.5,3.5,140.3,4.9z"/>
	<path class="st0" d="M212.2,89.1c-1-2-6.3-1.2-11.7,2.1c-5.4,3.3-8.8,7.7-7.7,9.6c1.1,1.9,6.2,0.7,11.5-2.6
		C209.5,95.1,213.2,91.1,212.2,89.1z"/>
	<path class="st0" d="M191.7,86.7c-1.3-2.2-6.8-1.2-12.4,2.5c-5.5,3.7-8.7,8.6-7.3,10.8c1.3,2.1,6.7,0.7,12.1-3
		C189.4,93.3,192.9,88.8,191.7,86.7z"/>
	<path class="st0" d="M231.2,91.6c-0.8-1.8-5.8-1.1-11.1,1.8c-5.3,2.9-8.7,6.8-7.8,8.6c0.9,1.7,5.7,0.7,10.8-2.2
		C228.3,97,232,93.4,231.2,91.6z"/>
	<path class="st0" d="M54.2,74.8c-2.6-2.6-8.1-1.4-12.2,3c-4.1,4.4-5.1,10.1-2.3,12.6c2.7,2.5,7.9,0.9,11.9-3.4
		C55.4,82.9,56.7,77.4,54.2,74.8z"/>
	<path class="st0" d="M248.9,94.3c-0.6-1.6-5.2-1.1-10.2,1.4c-5,2.4-8.4,5.8-7.7,7.4c0.7,1.5,5.1,0.7,10.1-1.7
		C246,99,249.5,95.9,248.9,94.3z"/>
	<path class="st0" d="M118.1,79.8c-2-2.6-7.9-1.3-12.8,3.1c-5,4.4-7,10.2-4.8,12.7c2.2,2.4,7.7,0.7,12.5-3.5
		C117.7,87.7,120.1,82.4,118.1,79.8z"/>
	<path class="st0" d="M169.3,84.5c-1.5-2.4-7.1-1.2-12.5,2.7c-5.3,4-8.2,9.2-6.6,11.4c1.6,2.2,6.9,0.6,12.1-3.2
		C167.5,91.5,170.7,86.8,169.3,84.5z"/>
	<path class="st0" d="M88.4,77.1c-2.4-2.8-8.4-1.4-13.1,3.2C70.5,85,68.9,91,71.5,93.7c2.5,2.5,8.1,0.8,12.7-3.7
		C88.8,85.5,90.7,79.8,88.4,77.1z"/>
	<path class="st0" d="M145.1,82c-1.8-2.5-7.7-1.3-12.9,3c-5.3,4.3-7.8,9.9-5.9,12.3c1.9,2.4,7.4,0.7,12.5-3.5
		C143.9,89.7,146.8,84.5,145.1,82z"/>
	<path class="st0" d="M352.7,55.7c-0.1-1.8-4.3-2.8-9.5-2.1c-5.2,0.7-9.3,2.8-9.1,4.6c0.1,1.7,4.3,2.4,9.4,1.8
		C348.6,59.2,352.7,57.4,352.7,55.7z"/>
	<path class="st0" d="M319.4,71.3c0.2,1.6,4.4,2,9.4,1.1c5-0.9,9-2.8,8.9-4.4c-0.1-1.6-4.4-2.3-9.4-1.4
		C323.1,67.5,319.2,69.7,319.4,71.3z"/>
	<path class="st0" d="M336.8,46.2c-0.1-2.1-5-3.2-10.7-2.2c-5.8,1-10.2,3.8-9.9,5.9c0.2,2.1,5,2.7,10.6,1.7
		C332.5,50.6,336.9,48.3,336.8,46.2z"/>
	<path class="st0" d="M283.5,58.4c0.5,2.1,5.5,2.3,11.3,0.7c5.8-1.6,10.2-4.4,9.9-6.6c-0.3-2.2-5.5-2.8-11.4-1.2
		C287.4,52.9,283.1,56.2,283.5,58.4z"/>
	<path class="st0" d="M369.2,42.8c0.1-2-4.3-3.5-9.8-3c-5.5,0.5-9.9,2.7-9.9,4.7c0.1,2,4.5,3.1,9.9,2.6
		C364.7,46.6,369.1,44.8,369.2,42.8z"/>
	<path class="st0" d="M359.2,68c4.8-0.4,8.7-1.9,8.7-3.4c0-1.5-3.8-2.6-8.7-2.1c-4.9,0.4-8.8,2.2-8.7,3.7
		C350.6,67.7,354.4,68.5,359.2,68z"/>
	<path class="st0" d="M428,66.2c0.3-1.2-2.7-2.6-6.7-3c-4-0.3-7.3,0.5-7.6,1.7c-0.2,1.2,2.8,2.5,6.7,2.8
		C424.4,68,427.8,67.4,428,66.2z"/>
	<path class="st0" d="M377.8,3c4.1-0.1,7.6-1.4,9.3-3h-18.9C369.4,2,373.2,3.2,377.8,3z"/>
	<path class="st0" d="M390.4,61.4c-4.5,0-8.2,1.2-8.3,2.7c-0.1,1.4,3.4,2.4,7.8,2.4c4.4,0,8.1-1,8.3-2.4
		C398.3,62.7,394.8,61.4,390.4,61.4z"/>
	<path class="st0" d="M311.3,59.1c-5.4,1.3-9.5,3.9-9.2,5.7c0.3,1.8,4.8,2.1,10.2,0.9c5.3-1.2,9.5-3.5,9.3-5.3
		C321.3,58.6,316.8,57.9,311.3,59.1z"/>
	<path class="st0" d="M401.5,42.3c0.2-1.9-3.7-3.6-8.9-3.6c-5.1,0-9.4,1.6-9.6,3.5c-0.1,1.9,3.9,3.3,8.9,3.3
		C397,45.5,401.3,44.2,401.5,42.3z"/>
	<path class="st0" d="M370.1,15.3c0.1-2.6-4.7-4.5-10.6-4c-6,0.5-10.7,3.2-10.7,5.8c0.1,2.5,4.8,4,10.7,3.5
		C365.2,20.1,369.9,17.8,370.1,15.3z"/>
	<path class="st0" d="M315.4,5.5c-0.4-3-5.8-4.6-12.2-3.2c-6.4,1.4-11.1,5.2-10.6,8.2c0.5,2.9,5.9,4,12.1,2.6
		C311,11.8,315.7,8.5,315.4,5.5z"/>
	<path class="st0" d="M405,14.9c0.3-2.4-3.9-4.6-9.5-4.6c-5.6,0-10.2,2.1-10.4,4.5c-0.2,2.4,4.1,4.2,9.5,4.2
		C400,19,404.7,17.2,405,14.9z"/>
	<path class="st0" d="M307.8,34.2c-6,1.4-10.4,4.6-10.1,7c0.4,2.3,5.5,2.9,11.3,1.6c5.8-1.3,10.4-4.1,10.1-6.5
		C318.9,33.9,313.8,32.8,307.8,34.2z"/>
	<path class="st0" d="M341.1,6.5c6-0.8,10.7-3.5,10.7-6.4c0-0.1,0-0.1,0-0.1l-20.4,0c-0.9,1-1.4,2-1.3,2.9
		C330.2,5.8,335.2,7.2,341.1,6.5z"/>
	<path class="st0" d="M473.1,23.1c0.6-1.8-2.4-4.1-6.6-4.9c-4.2-0.8-8.1,0.1-8.6,2c-0.5,1.8,2.5,3.8,6.6,4.6
		C468.7,25.7,472.5,24.9,473.1,23.1z"/>
	<path class="st0" d="M277.5,31.9c0.6,2.7,6.1,3.3,12.3,1.6c6.2-1.7,11-5.1,10.6-7.8c-0.5-2.8-6.1-3.9-12.5-2.1
		C281.5,25.2,276.9,29.1,277.5,31.9z"/>
	<path class="st0" d="M335.1,18.9c-0.2-2.7-5.4-4.3-11.7-3.2c-6.2,1.1-11,4.4-10.7,7.1c0.3,2.7,5.5,3.7,11.6,2.6
		C330.5,24.4,335.3,21.5,335.1,18.9z"/>
</g>
<g id="Layer_2">
</g>
</svg>
