<?xml version="1.0" encoding="utf-8"?>
<!-- Generator: Adobe Illustrator 22.0.1, SVG Export Plug-In . SVG Version: 6.00 Build 0)  -->
<svg version="1.1" id="Layer_1" xmlns="http://www.w3.org/2000/svg" xmlns:xlink="http://www.w3.org/1999/xlink" x="0px" y="0px"
	 width="98.5px" height="30px" viewBox="0 0 98.5 30" style="enable-background:new 0 0 98.5 30;" xml:space="preserve">
<g>
	<path d="M15.6,14.8c-0.9-0.4-1.9-0.3-3.1,0.4c-0.7,0.5-1.2,1.2-1.4,2.1c0,0.2,0,0.4,0.1,0.5c0.4,0.7,1.4,1,2.8,1.1
		c1.5,0.1,2.3,0.4,2.5,0.9c0.3,1.1,0.2,1.9-0.5,2.5c-1.7,1.6-3.8,2.4-6.3,2.5c-3,0.1-4.9-1-5.6-3.4c-0.3-1.1-0.3-2.3,0.1-3.8
		c0.2-0.8,0.5-1.5,0.9-2.1c0.1-0.2,0.2-0.2,0.3,0c0.3,0.3,0.3,0.4,0.3,0.5c-1,1.9-1.2,3.5-0.5,4.7C6.1,22.3,7.6,23,9.7,23
		c2.6,0,4.6-0.7,6-2c0.1-0.1,0.1-0.2,0-0.3c-0.3-0.2-1.1-0.3-2.4-0.4c-1.4-0.1-2.2-0.4-2.5-1s-0.4-1.3-0.3-2c0.2-1.5,1-2.8,2.2-3.8
		c0.6-0.5,1.2-0.8,1.7-0.8c1.2-0.1,1.8,0.6,1.7,1.9C16,14.9,15.9,15,15.6,14.8z M11.9,26.8c0-0.1,0.1-0.1,0.2,0
		c0.6,0.2,1.1,0.5,1.6,0.9c0.1,0.1,0.1,0.1,0.1,0.2l-0.7,1.6c0,0.1-0.1,0.1-0.2,0s-0.5-0.3-1.3-0.7L11,30c0,0.1-0.1,0.1-0.2,0
		s-0.7-0.4-1.6-0.9c-0.1,0-0.1-0.1-0.1-0.1l0.7-1.5c0-0.1,0.1-0.1,0.2,0c0.5,0.2,0.9,0.4,1.4,0.7L11.9,26.8z"/>
	<path d="M17.6,23.9c-0.1-0.1-0.2-0.1-0.2-0.2s0-0.1,0-0.2c0,0,0.1,0,0.2,0c1.4,0.4,2.6,0.4,3.5,0c1.7-0.7,2.8-1.8,3.3-3.2
		c0-0.1,0-0.1,0-0.1c-0.1-0.5-0.6-1.2-1.4-2.1L22.9,18l0.2-2.1c0-0.2,0.2-0.1,0.7,0.5s0.8,1.3,1.1,2.2c0.1,0.4,0.2,1.1,0.2,1.9
		c0,0.9-0.4,1.8-1.1,2.8s-1.4,1.5-2.2,1.6C20.5,25.1,19.1,24.7,17.6,23.9z"/>
	<path d="M27,14.4c0.1,0,0.2,0.1,0.3,0.3c0.1,0.2,0.2,0.8,0.5,1.7s0.5,1.5,0.8,1.9c0.3,0.3,0.6,0.6,1.1,0.6c0.5,0.1,0.7,0.4,0.7,0.8
		c0,0.7-0.1,1.1-0.3,1.1c-0.9,0-1.5-0.4-2-1.2c-0.2-0.4-0.4-1-0.6-1.7s-0.3-1.1-0.3-1.2s0,0-0.1,0.1c-0.3,1.1-1,1.7-2.3,1.8
		c-0.6,0-0.9-0.2-1.1-0.8c-0.2-0.5-0.2-0.8-0.1-1s0.3-0.2,0.5-0.1s0.3,0.2,0.4,0.2c0.9,0.1,1.5-0.1,1.8-0.4c0.2-0.2,0.4-0.8,0.6-1.7
		C26.8,14.4,26.9,14.4,27,14.4z M28.4,22.4c0-0.1,0.1-0.1,0.2,0c0.6,0.2,1.1,0.5,1.6,0.9c0.1,0.1,0.1,0.1,0.1,0.2l-0.7,1.6
		c0,0.1-0.1,0.1-0.2,0s-0.5-0.3-1.3-0.7l-0.6,1.2c0,0.1-0.1,0.1-0.2,0s-0.7-0.4-1.6-0.9c-0.1,0-0.1-0.1-0.1-0.1l0.7-1.5
		c0-0.1,0.1-0.1,0.2,0c0.5,0.2,0.9,0.4,1.4,0.7L28.4,22.4z"/>
	<path d="M33.6,14.2c0.9,0,1.8,1.2,2.5,3.4c0,0.2,0,0.3,0,0.3l-0.9,1.4c-0.1,0.1-0.2,0.2-0.4,0.1c-1.1-0.3-2.1-0.8-3.1-1.5
		c-0.3,1.8-0.9,2.7-1.9,2.7c-0.1,0-0.2-0.1-0.4-0.4c-0.5-1-0.5-1.4,0.1-1.4s1.2-0.4,1.6-1.2c0.1-0.2,0.5-1,0.9-2.3
		C32.5,14.6,33,14.2,33.6,14.2z M32.5,16.2c0.6,0.5,1.3,0.8,2,1c-0.1-0.6-0.4-1-0.8-1.2C33.3,15.8,32.9,15.9,32.5,16.2z"/>
	<path d="M38.9,4.2c-0.7,0.1-1.2,0.3-1.5,0.4s-0.8,0.3-1.6,0.7c-0.2,0.1-0.3,0.1-0.4-0.1c-0.2-0.2,0-0.6,0.6-1
		c-0.6-0.3-0.9-0.5-1-0.9c-0.2-0.6-0.1-1.2,0.3-2s1-1.2,1.6-1.1c0.4,0,0.7,0.3,0.7,0.7s0,0.8-0.2,1.1s-0.3,0.3-0.5,0.1
		s-0.4-0.3-0.7-0.4c-0.3,0-0.5,0.1-0.6,0.2c-0.1,0.2-0.1,0.4,0.1,0.5c0.5,0.4,1.2,0.7,2.1,0.7c0.1,0,0.3,0,0.6-0.1s0.5-0.1,0.6-0.1
		s0.2,0,0.3,0.1c0.1,0.1,0.1,0.2,0.1,0.2C39.3,3.9,39.1,4.1,38.9,4.2z M43.6,19.6c2,0.2,3.3,0.2,3.8,0c-0.4-1.3-1.7-3.3-3.9-5.8
		c-1.6-1.8-2.8-3-3.6-3.6l-0.2,0.5c-0.2,0.1-0.3,0.1-0.5-0.1L37.5,9c-0.2-0.2-0.4-0.5-0.4-0.8V6.4c0-0.2,0-0.3,0.1-0.3
		c0.3,0,1.2,0.7,2.7,2.3c1.5,1.5,2.9,3,4,4.4c2.5,3,3.9,5.4,4.4,7.2c0.2,0.8,0.1,1.2-0.4,1.3c-1.2,0.3-2.6,0.4-4.2,0.1
		c-0.2,0-0.3-0.1-0.3-0.2c-0.4-0.6-0.4-1.1-0.2-1.5C43.4,19.6,43.5,19.5,43.6,19.6z"/>
	<path d="M46.1,19.7c-0.3,0.4-0.8,0.6-1.4,0.6c-0.4,0-0.6-0.1-0.6-0.2s0.1-0.3,0.4-0.5c2-1.2,2.9-3.5,2.6-6.8
		c-0.1-1.7-0.4-3.4-0.8-5.1c-0.1-0.5-0.2-0.9-0.1-1c0.2-0.5,0.3-0.8,0.4-0.9c0-0.1,0.1-0.1,0.2-0.1s0.1,0.1,0.2,0.1
		c0.4,0.8,0.6,1.3,0.9,1.6C48.1,7.6,48.2,7.8,48,8l-0.5,0.6c0.3,1.5,0.5,3.3,0.4,5.4C47.9,16.4,47.3,18.3,46.1,19.7z"/>
	<path d="M50.8,6.9c0.2-0.7,0.3-0.7,0.5-0.1l1.4,5.2c1.3,4.6,1.8,7.5,1.4,8.7c-0.1,0.2-0.1,0.2-0.2,0.1c-0.1-0.1-0.1-0.2-0.1-0.3
		c-0.2-1.2-0.5-2.5-0.9-3.9c0-0.1-0.4-1.4-1.1-3.9L50.7,9c-0.1-0.3-0.1-0.5,0-0.7L50.8,6.9z"/>
	<path d="M72.9,20.3c-0.6,0.3-1.8,0.4-3.6,0.5c-2.5,0.1-3.9,0.1-4.3-0.1c-0.7-0.4-1.4-1-2-1.8c-0.1-0.1-0.1-0.2,0.1-0.2
		c1.5,0.3,2.9,0.3,4.1,0.1l1.1-1.5c-0.1-1-0.4-2.5-0.9-4.5s-1-3.9-1.6-5.7l-0.3-1c0.1-0.5,0.2-0.9,0.3-1.2c0-0.1,0.1-0.1,0.2-0.1
		s0.2,0.1,0.3,0.3c0.3,0.6,0.6,1.1,1,1.4c0.2,0.2,0.3,0.4,0.2,0.5l-0.3,0.5c-0.1,0.1-0.1,0.2,0,0.4c0.9,3.5,1.5,5.6,1.5,6.3
		c0.1,0.6,0.1,1.6,0.1,2.7c1.1-1.1,2.3-2,3.5-2.6c0.7-0.4,1.3-0.5,1.7-0.3c0.6,0.2,1.2,0.7,1.7,1.5c0.1,0.1,0.1,0.3,0.1,0.6
		c0,1.2-0.4,2.1-1.1,2.7c1.1,0.2,1.9,0.2,2.5,0.2c0.2,0,0.3,0.1,0.5,0.4c0.2,0.5,0.3,0.9,0.2,1.2s-0.2,0.3-0.3,0.3
		C76.1,20.9,74.6,20.7,72.9,20.3z M72.2,16.1c-1.3,0.2-2.6,1-3.9,2.6c2.5-0.2,4.6-0.6,6.2-1.4C73.8,16.4,73,16,72.2,16.1z"/>
	<path d="M80,15.6c1.4,0.5,3,0.9,4.7,1.1s3.1,0.3,4,0.2c0.1,0,0.2,0,0.3,0.1s0.1,0.2,0,0.3l-0.4,1.1c0,0.1-0.2,0.2-0.3,0.2
		c-2.3-0.1-4.3,0.1-6.1,0.7c-0.1,0-0.8,0.3-2.1,0.8s-2.2,0.7-2.7,0.7c-0.2,0-0.4-0.2-0.5-0.7c-0.3-0.8-0.2-1.2,0.2-1.2
		s1.3-0.2,2.6-0.5s1.9-0.5,2-0.5s0.1,0,0.1,0c0.1,0,0.1-0.1,0-0.1c-0.7-0.3-1.4-0.5-2.3-0.6c-0.9-0.1-1.7-0.2-2.4-0.1
		c-0.1,0-0.2,0-0.2-0.1c0-0.3,0.1-0.6,0.3-0.9s0.4-0.5,0.6-0.6C78.4,15.2,79.1,15.3,80,15.6z M85.4,10.5c0-0.1,0.1-0.1,0.2,0
		c0.6,0.2,1.1,0.5,1.6,0.9c0.1,0.1,0.1,0.1,0.1,0.2l-0.7,1.6c0,0.1-0.1,0.1-0.2,0c-0.1-0.1-0.6-0.4-1.6-0.9c-0.1,0-0.1-0.1-0.1-0.1
		L85.4,10.5z"/>
	<path d="M81.1,14.1c-0.4-1.5-0.9-3.4-1.6-5.7l-0.4-0.8c0-0.2,0-0.3,0-0.4c0.1-0.1,0.2-0.4,0.4-0.9c0-0.1,0.1-0.1,0.2-0.1
		c0.1,0,0.1,0.1,0.2,0.2c0.2,0.5,0.6,1,1.2,1.5c0.1,0.1,0.2,0.3,0.1,0.4L80.7,9c-0.1,0.1,0,0.2,0,0.4c0.9,2.9,1.3,4.8,1.1,5.7
		c-0.2,1-1.4,1.6-3.7,1.7c-0.9,0.1-1.2-0.3-0.7-1c0.1-0.2,0.2-0.3,0.3-0.5c0.1-0.1,0.3-0.2,0.5-0.2c1,0,1.8-0.1,2.4-0.2
		C81.1,14.8,81.2,14.6,81.1,14.1z"/>
	<path d="M90,6.9c0.2-0.7,0.3-0.7,0.5-0.1l1.4,5.1c1.3,4.6,1.8,7.5,1.4,8.7c-0.1,0.2-0.1,0.2-0.2,0.1C93,20.6,93,20.5,93,20.4
		c-0.2-1.2-0.5-2.5-0.9-3.9c0-0.1-0.4-1.4-1.1-3.9l-1.3-3.8c-0.1-0.3-0.1-0.5,0-0.7L90,6.9z"/>
</g>
</svg>
