<?xml version="1.0" encoding="utf-8"?>
<!-- Generator: Adobe Illustrator 22.0.1, SVG Export Plug-In . SVG Version: 6.00 Build 0)  -->
<svg version="1.1" id="Layer_1" xmlns="http://www.w3.org/2000/svg" xmlns:xlink="http://www.w3.org/1999/xlink" x="0px" y="0px"
	 width="74.4px" height="30px" viewBox="0 0 74.4 30" style="enable-background:new 0 0 74.4 30;" xml:space="preserve">
<g>
	<path d="M9.7,7C9,7.1,8.3,7.3,7.5,7.4S6.2,7.7,5.4,7.8l1.3-2.7c1.6-0.3,3-0.5,4.3-0.8L9.7,7z"/>
	<path d="M9.7,11.2l0.4,5.9l-1.7,3.1L8.2,16c-0.5,0.5-1.1,0.9-1.8,1.1c-0.2,0.1-0.4,0.1-0.6,0.1c-0.5,0-1-0.2-1.4-0.6
		c-0.2-0.2-0.3-0.5-0.3-0.8c0-0.2,0-0.4,0.1-0.6c0.2-0.6,0.4-1.3,0.8-2c0.3-0.7,0.7-1.3,1.1-1.9c0.4-0.6,0.7-1,0.9-1.2
		c0.6-0.5,1.1-0.8,1.5-0.8c0.1,0,0.3,0,0.4,0.1C9.4,9.7,9.7,10.3,9.7,11.2z M7.3,12.1C7.2,12.1,7,12,6.9,12c-0.2,0-0.4,0.1-0.6,0.2
		c-0.3,0.2-0.5,0.4-0.7,0.7c-0.1,0.1-0.1,0.2-0.1,0.3s0,0.2,0.1,0.3c0.2,0.3,0.5,0.5,0.9,0.7c0.2,0.1,0.4,0.1,0.6,0.1s0.5,0,0.7-0.1
		c0-0.1,0-0.3,0-0.5s0-0.5-0.1-0.8C7.8,12.5,7.6,12.3,7.3,12.1z"/>
	<path d="M13.8,18.9c-0.5,0.2-1.3,0.4-2.3,0.7c-1.1,0.3-2.1,0.5-3.1,0.6l0.5-2.7l0,0l4.2-0.7l0.6-0.1l-0.4-1.5c0,0,0,0,0-0.1
		c0-0.2,0.3-0.7,0.8-1.4c0.6-0.7,1-1.1,1.1-1.2c0.3-0.1,0.8-0.1,1.3-0.1h0.2c0.6,0,1.1,0.1,1.3,0.4c0.2,0.2,0.3,0.4,0.3,0.7
		c0,0.1,0,0.3-0.1,0.4c-0.1,0.4-0.3,0.8-0.5,1l-1.1,1.8c-0.4,0.7-0.9,1.2-1.5,1.6S14.1,18.8,13.8,18.9z"/>
	<path d="M24.7,5.8c-0.7,0.1-1.4,0.3-2.2,0.4s-1.4,0.3-2.1,0.4l1.3-2.7c1.6-0.3,3-0.5,4.3-0.8L24.7,5.8z"/>
	<path d="M24.3,14.1c-0.4-1.1-0.6-1.5-0.7-1.4c-0.2,0.2-0.6,0.4-0.9,0.5s-0.7,0.1-1.1-0.1c-0.2-0.1-0.3-0.3-0.3-0.6s0-0.6,0.2-0.8
		c0.2-0.5,0.5-0.9,0.7-1.4s0.5-0.9,0.8-1.4c0.4-0.5,0.8-0.6,1.2-0.3c0.4,0.3,0.8,0.8,1.1,1.3c0.5,0.9,0.5,2,0.2,3.2
		s-0.8,2.2-1.4,2.9c-1,1.1-2.3,1.9-4,2.4s-3.2,0.6-4.7,0.5c-0.3,0-0.6-0.1-0.9-0.3c-0.3-0.2-0.4-0.4-0.4-0.7
		c0.3-1.1,0.6-2.1,0.9-2.9c0.2,0.6,0.7,1,1.6,1.1c0.9,0.1,1.9,0,2.9-0.2s2-0.5,3-0.9C23.4,14.7,24,14.4,24.3,14.1z"/>
	<path d="M32.7,17.1c-0.2,0.2-0.4,0.4-0.6,0.7c-0.2,0.3-0.3,0.6-0.5,0.9c-0.4,0.8-0.9,1.2-1.6,1.4c-0.5,0.1-1.2,0.1-2,0
		c-0.3-0.1-0.9-0.2-1.8-0.5s-1.6-0.5-1.7-0.7c-0.1-0.1-0.1-0.2,0.1-0.3c1-0.4,2.1-0.6,3.3-0.8c1.2-0.2,2.3-0.4,3.4-0.7
		c0.4-0.1,0.7-0.3,1-0.6l0,0c0.1-0.1,0.2-0.2,0.4-0.2c0.3,0,0.4,0.2,0.3,0.6C32.9,16.9,32.8,17,32.7,17.1z"/>
	<path d="M39.2,11.9c-0.3,1-0.7,1.9-1.4,2.7c-0.4,0.4-0.9,0.8-1.5,1c-0.4,0.2-0.8,0.3-1.3,0.5c-0.4,0.1-0.9,0.3-1.3,0.5
		c-0.7,0.3-1.2,0.6-1.6,1l0,0c-0.3,0.4-0.5,0.4-0.7,0.1s-0.1-0.6,0.2-1l0,0c0.2-0.7,0.4-1.2,0.5-1.6c0.3-0.5,0.8-0.9,1.4-1.1
		c0.6-0.2,1.6-0.5,3-0.8c0.2,0,0.4-0.1,0.6-0.1s0.4-0.1,0.6-0.2c0-1.1-0.1-2.3-0.1-3.5c-0.1-1.2-0.2-2.4-0.2-3.5l1.7-2.6l0.4,6.3
		c0,0.5,0,0.9,0,1.3C39.3,11.2,39.3,11.6,39.2,11.9z"/>
	<path d="M41.5,7.5l1.7-2.6l0.6,9.5L42.1,17L41.5,7.5z"/>
	<path d="M61.9,15.8c-0.9,1.2-1.9,2.1-3,2.7s-2.4,1.1-3.8,1.5c-0.7,0.2-1.4,0.3-1.9,0.3c-0.1,0-0.3,0-0.4,0c-1.5-0.3-2.8-1-3.9-2
		c0,0,0-0.1,0-0.2S49,18,49,18c0.4,0,0.7,0,1.1,0c0.8,0,1.5,0,2.2-0.1c1.1-0.1,2.1-0.2,3.1-0.4c0.6-0.7,1.3-1.5,2-2.2
		s1.4-1.4,2.1-2.1c0.7-0.6,1.4-0.8,1.9-0.8s1,0.2,1.3,0.6C63,13.7,62.8,14.6,61.9,15.8z M55.3,9.5L57,6.9l0.5,7.2l-1.7,2.6L55.3,9.5
		z M60.6,15.5c-0.1-0.2-0.4-0.4-0.8-0.5c-0.1,0-0.3-0.1-0.4-0.1c-0.2,0-0.4,0.1-0.6,0.2c-0.5,0.3-1,0.6-1.4,1
		c-0.4,0.4-0.8,0.8-1.2,1.2c0.8-0.2,1.6-0.3,2.3-0.5s1.4-0.4,2.1-0.7c0.1,0,0.1-0.1,0.1-0.2C60.7,15.8,60.7,15.6,60.6,15.5z"/>
	<path d="M67.7,12.8c-0.3,0.4-0.6,0.8-0.9,1.2c-0.3,0.4-0.6,0.8-0.9,1.1l-1.6-1.5c0.3-0.4,0.6-0.8,0.9-1.1c0.3-0.4,0.6-0.8,0.9-1.1
		L67.7,12.8z"/>
	<path d="M62.5,21.9c0.1-0.4,0.3-0.9,0.6-1.6s0.6-1.3,1-1.8c0.4-0.6,0.8-1,1.3-1.4c0.3-0.2,0.5-0.3,0.8-0.3c0.2,0,0.5,0.1,0.7,0.2
		c0.4,0.2,0.8,0.6,1,1s0.5,1,0.6,1.5c0.2,0.2,0.4,0.3,0.7,0.3c0.2,0,0.4-0.1,0.6-0.2l-1.4,3.1c-1.1,0.3-2.1,0.6-3.1,0.9
		c-1,0.2-2.1,0.5-3.3,0.8c-0.1,0.1-0.1,0.4-0.2,0.6c-0.1,0.3-0.2,0.4-0.4,0.5l0,0c-0.1,0-0.2,0-0.2-0.1c0,0,0,0,0-0.1s0-0.2,0.1-0.3
		s0.1-0.3,0.1-0.4c-0.9,0.2-2.1,0.4-3.4,0.7c-0.9,0.2-1.7,0.3-2.4,0.3c-0.4,0-0.7,0-1-0.1c-1-0.1-1.5-0.5-1.7-1.2
		c-0.1-0.2-0.1-0.5-0.1-0.8c0-0.4,0.1-0.9,0.2-1.4c0.2-0.8,0.6-1.6,1-2.3c0.4-0.8,0.8-1.3,1-1.6l0.1-0.1c0,0,0,0,0.1,0
		c0,0,0,0,0,0.1v0.1c-0.6,1.2-0.9,2.1-0.9,2.7c0,0.2,0,0.4,0.1,0.6c0.3,0.6,0.9,1,1.8,1c0.2,0,0.4,0,0.6,0c0.7,0,1.5-0.1,2.4-0.3
		C60.6,22.3,61.6,22.1,62.5,21.9z M66.3,21c-0.2-0.5-0.5-0.9-0.8-1.2c-0.2-0.2-0.4-0.3-0.7-0.3c-0.2,0-0.4,0.1-0.6,0.3
		c-0.3,0.3-0.5,0.6-0.7,0.9c-0.2,0.4-0.3,0.7-0.5,1.1l3.2-0.6C66.3,21.2,66.3,21.1,66.3,21C66.4,21.1,66.3,21,66.3,21z"/>
</g>
</svg>
