<?xml version="1.0" encoding="utf-8"?>
<!-- Generator: Adobe Illustrator 22.0.1, SVG Export Plug-In . SVG Version: 6.00 Build 0)  -->
<svg version="1.1" id="Layer_1" xmlns="http://www.w3.org/2000/svg" xmlns:xlink="http://www.w3.org/1999/xlink" x="0px" y="0px"
	 width="87.9px" height="30px" viewBox="0 0 87.9 30" style="enable-background:new 0 0 87.9 30;" xml:space="preserve">
<g>
	<path d="M11.1,9.3c0.9,0.1,1.7,0.2,2.3,0.4v8.7c0,1.2-0.1,2.3-0.3,3.3c-0.2,1-0.6,1.9-1.3,2.7c-0.7,0.8-1.6,1.2-3,1.2
		c-0.8,0-2-0.1-3.7-0.4v-2.6C6.8,22.9,8,23,8.5,23s0.8-0.1,1.1-0.2c0.3-0.2,0.4-0.4,0.6-0.8s0.2-0.9,0.2-1.6H7.9
		c-2.9,0-4.4-1.7-4.4-5c0-1.7,0.2-3,0.6-3.9S5,10,5.7,9.7s1.6-0.5,2.7-0.5C9.3,9.1,10.2,9.2,11.1,9.3z M6.9,16.9
		c0.3,0.5,0.9,0.7,1.9,0.7h1.8v-5.8c-0.5-0.1-1.1-0.1-1.6-0.1c-0.6,0-1.1,0.1-1.4,0.2c-0.4,0.2-0.6,0.5-0.8,1
		c-0.2,0.5-0.3,1.2-0.3,2.1C6.5,15.8,6.6,16.4,6.9,16.9z"/>
	<path d="M24,20.2h-3.5c0,1.7-0.3,3-0.9,3.9s-1.5,1.4-2.6,1.4c-0.2,0-0.7,0-1.6-0.1v-2.6h0.7c0.5,0,0.9-0.2,1.1-0.6s0.4-1,0.4-1.7
		v-11h2.9v8H24V20.2z"/>
	<path d="M30,9.6v10.6h-6v-2.6h3.2v-8H30z M25.9,21.9h2.2v2.7h-2.2V21.9z M29.1,21.9h2.2v2.7h-2.2V21.9z"/>
	<path d="M38.1,17.6v2.6h-4.9V5.3h2.9v12.3H38.1z"/>
	<path d="M48.9,10.8c0.6,0.6,1,1.3,1.2,2.1c0.2,0.8,0.3,1.5,0.3,2.1v5.2H38.1v-2.6h9.5V15c0-0.7-0.2-1.3-0.5-1.8s-0.8-0.7-1.2-0.7
		h-5.8l-1.5-2L39.9,8c0.3-0.6,0.7-1.2,1.1-1.8c0.5-0.6,0.9-1.2,1.4-1.7l2.1,1.2c-0.7,1-1.4,2.2-2.1,3.4l-0.3,0.8h4.2
		C47.4,9.9,48.3,10.2,48.9,10.8z"/>
	<path d="M73.7,17.6v2.6H56.6v-2.6h1.1V5.3h2.9V13c0.6-0.8,1.2-1.4,1.7-1.9s1.1-0.9,1.8-1.2c0.7-0.3,1.5-0.5,2.4-0.5
		c1.8,0,3.1,0.5,3.8,1.6s1.1,2.4,1.1,3.9v2.7C71.4,17.6,73.7,17.6,73.7,17.6z M63,13.4c-1,0.9-1.7,2-2.4,3.3v1h8v-2.2
		c0-1-0.2-1.8-0.7-2.5s-1.1-1-2-1C64.9,11.9,63.9,12.4,63,13.4z"/>
	<path d="M83.6,10.2c0.6,0.6,0.9,1.5,0.9,2.7v7.3H73.6v-2.6h8v-4c0-0.6-0.1-1.1-0.4-1.4c-0.3-0.3-0.7-0.5-1.4-0.5
		c-1.3,0-2.4,0.1-3.4,0.1h-1.1l-0.1-1.9c0.7-0.2,1.6-0.4,2.7-0.5c1-0.1,1.9-0.2,2.7-0.2C82.1,9.4,83,9.6,83.6,10.2z M78.8,4.8h2.6
		v2.8h-2.6V4.8z"/>
</g>
</svg>
