<?xml version="1.0" encoding="utf-8"?>
<!-- Generator: Adobe Illustrator 22.0.1, SVG Export Plug-In . SVG Version: 6.00 Build 0)  -->
<svg version="1.1" id="Layer_1" xmlns="http://www.w3.org/2000/svg" xmlns:xlink="http://www.w3.org/1999/xlink" x="0px" y="0px"
	 width="110px" height="30px" viewBox="0 0 110 30" style="enable-background:new 0 0 110 30;" xml:space="preserve">
<g>
	<path d="M11.3,22.9c0.8,0,1.3,0,1.7-0.1c0.4-0.1,0.7-0.2,0.9-0.3c0.2-0.2,0.3-0.4,0.3-0.7V6.3h1.7v14.2c0,1.2-0.1,2.1-0.4,2.7
		s-0.8,1-1.6,1.3s-2,0.4-3.6,0.4c-1.4,0-2.5-0.1-3.1-0.4s-1.1-0.7-1.4-1.4s-0.4-1.7-0.4-3c0-0.9,0.1-1.8,0.2-2.8s0.3-1.8,0.5-2.5
		L7.6,15c-0.3,1.7-0.5,3.2-0.5,4.7c0,1.3,0.1,2.4,0.3,3.2C7.4,22.9,11.3,22.9,11.3,22.9z"/>
	<path d="M20.2,6.3h1.7v11.5h2.6v1.9h-4.3C20.2,19.7,20.2,6.3,20.2,6.3z"/>
	<path d="M39.4,17.8v1.9H23.6v-1.9h11.5V13h-7.3c-1.3,0-2-0.6-2-1.8c0-0.6,0.1-1.3,0.4-2.1c0.3-0.8,0.7-1.6,1.2-2.4s1-1.5,1.6-2
		l1.4,0.8c-0.8,0.9-1.5,1.8-2,2.8s-0.9,2-1.1,2.9h7.1c0.6,0,1.1,0.1,1.4,0.2c0.3,0.1,0.6,0.4,0.7,0.7s0.2,0.8,0.2,1.4v4.3H39.4z"/>
	<path d="M46.2,17.8v1.9h-7.7v-1.9h3.4V9.7h1.7v8.1H46.2z M40.5,6.7c-0.3-0.3-0.4-0.5-0.4-0.8s0.1-0.5,0.4-0.7
		c0.3-0.3,0.5-0.4,0.8-0.4c0.2,0,0.5,0.2,0.8,0.4c0.3,0.3,0.4,0.5,0.4,0.7s-0.1,0.5-0.4,0.8s-0.5,0.4-0.7,0.4
		C41,7.2,40.8,7,40.5,6.7z M43.5,6.7c-0.3-0.3-0.4-0.5-0.4-0.8s0.1-0.5,0.4-0.7c0.3-0.3,0.5-0.4,0.8-0.4c0.2,0,0.5,0.2,0.8,0.4
		c0.3,0.3,0.4,0.5,0.4,0.7s-0.1,0.5-0.4,0.8s-0.5,0.4-0.7,0.4C44.1,7.2,43.8,7,43.5,6.7z"/>
	<path d="M45.3,17.8h3.4V9.7h1.7v10h-5.1V17.8z M48.8,23.3c-0.3-0.3-0.4-0.5-0.4-0.8c0-0.2,0.1-0.5,0.4-0.7c0.3-0.3,0.5-0.4,0.8-0.4
		c0.2,0,0.5,0.2,0.8,0.4c0.3,0.3,0.4,0.5,0.4,0.7s-0.1,0.5-0.4,0.8s-0.5,0.4-0.7,0.4C49.4,23.8,49.1,23.6,48.8,23.3z"/>
	<path d="M61.2,9.6c0.7,0.1,1.4,0.3,2.1,0.5v7.6c0,0.8-0.2,1.6-0.6,2.6c-0.4,1-1,1.9-1.7,2.8s-1.4,1.6-2.3,2.2L57.6,24
		c0.7-0.6,1.4-1.2,2-2c0.6-0.8,1.1-1.6,1.4-2.3h-3.7c-0.8,0-1.5-0.1-1.9-0.4s-0.7-0.8-0.9-1.5c-0.2-0.7-0.3-1.8-0.3-3.1
		c0-1.4,0.1-2.5,0.4-3.2c0.2-0.7,0.7-1.2,1.3-1.5s1.6-0.4,2.8-0.4C59.7,9.5,60.5,9.5,61.2,9.6z M60.6,17.8c0.4,0,0.6-0.1,0.8-0.2
		c0.1-0.1,0.2-0.4,0.2-0.8v-5.3h-4.4c-0.4,0-0.6,0.1-0.8,0.2s-0.2,0.5-0.2,0.9v5.2H60.6z"/>
	<path d="M67.5,6.3h1.7v13.4h-1.7V6.3z"/>
	<path d="M94.4,17.8v1.9H77.1v-1.9h2.6V6.3h1.7v7.3c0.5-1.3,1.3-2.3,2.6-3.1s2.8-1.1,4.6-1.1c0.8,0,1.5,0.1,2,0.2s0.8,0.4,1,0.8
		c0.2,0.4,0.3,0.9,0.3,1.5v5.7h2.5V17.8z M90.1,17.8v-6.1c-0.5-0.2-1.3-0.2-2.4-0.2c-2.1,0-3.6,0.5-4.6,1.6s-1.6,2.7-1.7,4.8h8.7
		V17.8z"/>
	<path d="M105.8,14v1.9h-1.9c-0.1,0-0.3,0-0.4,0c-1.4,2.6-3.5,3.9-6.5,3.9h-3.5v-1.9h4c1.1,0,2.1-0.3,2.9-1c0.8-0.6,1.4-1.4,1.9-2.4
		c-0.3-0.8-0.7-1.4-1.1-1.8c-0.4-0.4-0.9-0.8-1.6-0.9c-0.6-0.2-1.4-0.3-2.4-0.3c-0.6,0-1.2,0-1.8,0.1l-0.3-1.9
		c0.8-0.1,1.6-0.1,2.3-0.1c1.2,0,2.2,0.1,3,0.4s1.5,0.8,2,1.4c0.5,0.7,1,1.5,1.4,2.6H105.8z M98.3,6.7c-0.3-0.3-0.4-0.5-0.4-0.8
		s0.1-0.5,0.4-0.7c0.3-0.3,0.5-0.4,0.8-0.4c0.2,0,0.5,0.2,0.8,0.4c0.3,0.3,0.4,0.5,0.4,0.7s-0.1,0.5-0.4,0.8
		c-0.3,0.3-0.5,0.4-0.7,0.4C98.8,7.2,98.6,7,98.3,6.7z"/>
</g>
</svg>
