<?xml version="1.0" encoding="utf-8"?>
<!-- Generator: Adobe Illustrator 22.0.1, SVG Export Plug-In . SVG Version: 6.00 Build 0)  -->
<svg version="1.1" id="Layer_1" xmlns="http://www.w3.org/2000/svg" xmlns:xlink="http://www.w3.org/1999/xlink" x="0px" y="0px"
	 width="70.3px" height="30px" viewBox="0 0 70.3 30" style="enable-background:new 0 0 70.3 30;" xml:space="preserve">
<g>
	<path d="M14.5,24.6c0.2,0,0.3,0,0.3,0.1s-0.4,0.4-0.7,0.5c-1.2,0.5-3.1,1.3-5.1,1.3c-3.5,0-6.1-1.8-6.1-5.6c0-3.5,1.8-6.6,4.3-7.5
		c-0.7-0.1-1.2-0.2-1.7-0.2c-0.9,0-1.4,0.2-1.9,0.4c-0.4,0.2-0.5,0.2-0.6,0.2s-0.1,0-0.1-0.1c0-0.2,0.4-1.1,0.7-1.4
		c0.6-0.5,1.4-0.7,2.3-0.7c1.7,0,3.3,0.6,5.1,0.6c0.7,0,1.3-0.1,1.7-0.1c0.3,0,0.3,0,0.3,0.1c0,0.4-0.8,1.6-1,1.6
		c-0.4,0-0.8,0-1.2,0.1c0,0.4,0.1,0.7,0.4,0.9c0.2,0.2,0.8,0.3,1.8,0.3h0.7c0.6,0,0.8,0.3,0.8,0.9c0,0.6-0.3,1-0.8,1h-1.2
		c-0.7,0-1.3-0.2-1.7-0.6c-0.3-0.3-0.4-0.8-0.4-1.6c0-0.2,0-0.5,0-0.8c-0.6,0.1-1.3,0.2-1.9,0.4c-3.6,1.2-4.8,4.1-4.8,5.7
		c0,2.6,1.3,4.9,7.5,4.9C13,24.7,14.2,24.6,14.5,24.6z M9.1,7.9c0.1,0,0.1,0.1,0,0.2C8.9,8.4,8.3,9.1,8,9.4c-0.1,0.1-0.1,0.1-0.2,0
		C7.4,9.2,6.6,8.6,6.4,8.3c0-0.1,0-0.1,0-0.2c0.3-0.4,0.7-0.9,1-1.2c0.2-0.2,0.2-0.2,0.2-0.1C8,7,8.6,7.6,9.1,7.9z"/>
	<path d="M20.5,13c0.1,0,0.1,0.1,0.1,0.4c0,0.1,0,0.2,0,0.4c0,0.6,0.4,0.9,0.9,0.9c0.8,0,1.2-0.8,1.6-1.5c0-0.1,0.1-0.3,0.3-0.3
		c0.1,0,0.2,0.1,0.2,0.5c0.1,0.8,0.5,1.3,1.2,1.4H25c0.6,0,0.9,0.3,0.9,0.8c0,0.7-0.3,1-0.9,1h-0.2c-1,0-1.6-0.5-1.7-1.6
		c-0.3,0.8-0.9,1.6-1.8,1.6c-0.8,0-1.3-0.7-1.4-1.6c-0.3,0.9-1.2,1.5-2.1,1.5c-1,0-1.6-0.4-1.8-1.3c-0.1,0.3-0.3,0.6-0.7,0.9
		c-0.3,0.3-0.9,0.4-1.7,0.4h-0.2c-0.6,0-0.8-0.3-0.8-1c0-0.6,0.3-0.9,0.8-0.9h0.2c1.3,0,2.1-0.4,2.5-1.4c0-0.1,0.1-0.3,0.3-0.3
		c0.1,0,0.2,0.1,0.2,0.4c0,0.7,0.6,1.1,1.4,1.1c1,0,1.7-0.4,2.2-1.4C20.3,13.2,20.4,13,20.5,13z"/>
	<path d="M29.3,14.8L29.3,14.8c0.6,0,0.8,0.5,0.8,0.9c0,0.5-0.2,0.9-0.7,0.9h-0.1c-0.5,0-1,0-1.4-0.4c-0.6-0.5-0.9-1.4-0.9-1.5
		c-0.1,0.5-0.9,1.9-2.1,1.9h-0.1c-0.5,0-0.7-0.4-0.7-0.9s0.2-0.9,0.7-0.9h0.1c1,0,1.6-0.4,1.7-0.6v-0.1c0-0.2-0.3-2.1-0.3-2.2
		c0-0.1,0-0.2,0-0.3c0.1-0.3,0.3-0.8,0.4-1.1c0.1-0.2,0.1-0.3,0.2-0.3s0.1,0.1,0.2,0.3c0.2,0.8,0.4,2.5,0.6,3
		C28.2,14.4,29,14.8,29.3,14.8z M28.3,6c0.1,0,0.1,0.1,0,0.2c-0.2,0.3-0.8,1-1.1,1.3c-0.1,0.1-0.1,0.1-0.2,0
		c-0.4-0.2-1.2-0.8-1.4-1.2c-0.1-0.1-0.1-0.1,0-0.2c0.3-0.4,0.7-0.9,1-1.2c0.2-0.2,0.2-0.2,0.2-0.1C27.2,5.1,27.7,5.6,28.3,6z"/>
	<path d="M31.3,15.8c-0.4,0.5-0.9,0.8-1.8,0.8h-0.2c-0.5,0-0.8-0.3-0.8-1c0-0.6,0.3-0.9,0.8-0.9h0.2c0.4,0,0.8-0.1,1.2-0.2
		c0.3-0.1,0.5-0.2,0.6-0.3c0-1.4-0.5-4.3-0.7-7.1c0-0.3-0.2-1.3-0.3-1.7c0-0.1,0-0.1,0-0.2c0-0.2,0.3-0.8,0.4-1.1
		c0.2-0.4,0.4-0.7,0.6-0.7c0.1,0,0.1,0.1,0.1,0.2c0.2,0.8,0.5,1.2,0.7,1.5c0,0.1,0.1,0.2,0.1,0.2v0.1c-0.1,0.2-0.3,0.7-0.4,0.9
		c0.1,2.7,0.6,4.9,0.6,6.3C32.1,14,31.8,15,31.3,15.8z"/>
	<path d="M35.8,16.7c-0.1,0-0.1-0.1-0.1-0.5c0-2.4-0.9-9.1-0.9-10.2c0-0.5,0.4-1.4,0.7-2c0.1-0.2,0.3-0.4,0.4-0.4S36,3.8,36,4.2
		c0.1,1.7,0.6,5.8,0.6,8.8c0,1.2-0.1,2.2-0.3,2.8C36.1,16.4,35.9,16.7,35.8,16.7z"/>
	<path d="M49.5,10.9c0,0.9-0.1,1.5-0.3,2.2c1.7-1.4,3.3-2.4,4.1-2.4c0.4,0,1,0.1,1.5,0.3c0.8,0.3,1.1,0.8,1.1,1.2
		c0,0.7-0.6,2.2-1.3,2.8c0.5-0.1,1.1-0.2,1.9-0.2h0.3c0.6,0,0.8,0.3,0.8,0.9c0,0.6-0.3,0.9-0.8,0.9h-0.4c-0.6,0-1.3,0-1.9,0
		c-1.9,0-3.6,0-5.3,0.1c-0.8,0.1-1.5,0.1-2.1,0.1c-0.2,0-0.4,0-0.6,0c-0.5,0-2.4-0.8-3.3-1.5C43.1,15.2,43,15.1,43,15s0-0.1,0.2-0.1
		c0.4,0,1.9,0.3,2.9,0.3c0.3,0,0.5,0,0.8,0c0.4-0.4,0.8-0.8,1.9-1.7c0-0.3,0-0.6,0-0.9c0-2.2-0.4-4.9-0.6-5.8c0-0.3-0.3-1-0.3-1.3
		c0-0.1,0-0.1,0-0.2V5.2c0-0.1,0.1-0.3,0.3-0.7c0.2-0.4,0.5-0.8,0.6-0.8s0.1,0.1,0.1,0.2c0.2,0.8,0.4,1.1,0.6,1.4
		c0,0.1,0.1,0.1,0.1,0.2s0,0.1,0,0.2c-0.1,0.2-0.3,0.7-0.5,0.9C49.3,7.9,49.5,9.7,49.5,10.9z M52.3,12.5c-1.1,0-2.9,1.3-4.4,2.6
		c2.8-0.2,5.8-0.9,6.9-1.7C54.5,12.9,53,12.5,52.3,12.5z"/>
	<path d="M58.8,12.4c-0.2,0-0.4,0-0.5,0.1c-0.2,0.1-0.5,0.2-0.6,0.2s-0.2-0.1-0.2-0.2c0-0.3,0.5-1,1-1.5c0.4-0.3,0.8-0.5,1.1-0.5
		c0.1,0,0.3,0,0.4,0c1.5,0.3,3.3,1.1,4.8,1.4c1,0.2,2,0.3,2.7,0.3c0.1,0,0.3,0,0.4,0c0,0,0.1,0,0.1,0.1c0,0.3-0.5,1.2-0.9,1.5
		c-0.1,0.1-0.2,0.1-0.4,0.1c-0.4,0-1.3-0.1-1.5-0.1c-0.7,0-1.3,0.1-1.8,0.2c-0.3,0.1-1,0.4-1.8,0.8c-1.3,0.7-2.3,1.1-2.9,1.3
		c-0.6,0.2-1.3,0.4-2,0.4h-0.3c-0.6,0-0.9-0.3-0.9-1c0-0.6,0.3-0.9,0.9-0.9h0.2c1.1,0,2-0.1,2.8-0.3s1.8-0.6,3.2-1.2
		C61,12.9,59.7,12.4,58.8,12.4z M64.2,7.6c0.1,0,0.1,0.1,0,0.2c-0.2,0.3-0.8,1-1.1,1.3c-0.1,0.1-0.1,0.1-0.2,0
		c-0.4-0.2-1.2-0.8-1.4-1.2c-0.1-0.1-0.1-0.1,0-0.2c0.3-0.4,0.7-0.9,1-1.2c0.2-0.2,0.2-0.2,0.2-0.1C63.1,6.8,63.7,7.3,64.2,7.6z"/>
</g>
</svg>
