<?xml version="1.0" encoding="utf-8"?>
<!-- Generator: Adobe Illustrator 22.0.1, SVG Export Plug-In . SVG Version: 6.00 Build 0)  -->
<svg version="1.1" id="Layer_1" xmlns="http://www.w3.org/2000/svg" xmlns:xlink="http://www.w3.org/1999/xlink" x="0px" y="0px"
	 width="124px" height="30px" viewBox="0 0 124 30" style="enable-background:new 0 0 124 30;" xml:space="preserve">
<g>
	<path d="M19.9,14.1c0.8,0.4,1.2,1.2,1.2,2.4c0,1-0.3,1.9-0.9,2.8s-1.5,1.7-2.8,2.4c-1.3,0.6-2.8,0.9-4.6,0.9
		c-2.9,0-4.9-0.7-5.9-2.1s-1.5-2.9-1.5-4.6c0-1.1,0.2-2,0.6-2.7s0.9-1.1,1.6-1.1c0.3,0,0.5,0,0.7,0.1s0.3,0.2,0.4,0.3
		c-0.3,0.4-0.6,0.9-0.9,1.6c-0.3,0.7-0.4,1.5-0.4,2.3c0,1.4,0.4,2.5,1.3,3.4s2.3,1.3,4.3,1.3c1.6,0,2.8-0.3,3.7-0.8
		c0.9-0.5,1.6-1.1,1.9-1.8c0.4-0.7,0.6-1.3,0.6-1.9c0-1.1-0.8-1.7-2.3-1.7c-0.5,0-1.1,0.1-1.8,0.2c-0.5,0.1-0.8,0.1-0.9,0.1
		c-0.4,0-0.7-0.2-1-0.5c-0.2-0.4-0.4-1-0.4-1.8c0-1.1,0.2-2.1,0.7-2.9c0.5-0.8,1.1-1.5,1.9-1.9s1.6-0.7,2.5-0.7c0.6,0,1,0.1,1.4,0.3
		c0.3,0.2,0.6,0.4,0.7,0.7s0.2,0.5,0.1,0.8C19.9,9.1,19.7,9,19.3,9c-0.3,0-0.6-0.1-1-0.1c-1.4,0-2.4,0.4-3.1,1.3
		c-0.7,0.9-1,2.1-1,3.6c0,0.3,0,0.6,0,0.7l0.2-0.8c0.9-0.2,1.7-0.2,2.4-0.2C18.1,13.5,19.1,13.7,19.9,14.1z M10.6,26
		c-0.2-0.2-0.4-0.5-0.4-0.9c0-0.3,0.1-0.6,0.4-0.9s0.5-0.4,0.9-0.4c0.3,0,0.6,0.1,0.9,0.4c0.2,0.2,0.4,0.5,0.4,0.9
		c0,0.3-0.1,0.6-0.4,0.9c-0.2,0.2-0.5,0.4-0.9,0.4S10.8,26.3,10.6,26z M13.7,26c-0.2-0.2-0.4-0.5-0.4-0.9c0-0.3,0.1-0.6,0.4-0.9
		c0.2-0.2,0.5-0.4,0.9-0.4c0.3,0,0.6,0.1,0.9,0.4s0.4,0.5,0.4,0.9c0,0.3-0.1,0.6-0.4,0.9s-0.5,0.4-0.9,0.4S13.9,26.3,13.7,26z
		 M14.3,13.8l0.2-0.1l0,0L14.3,13.8z"/>
	<path d="M29.2,17.6h-2.1v1.6c0,0.4-0.1,0.9-0.3,1.4c-0.2,0.5-0.5,0.9-1,1.3s-1.1,0.6-1.9,0.6c-0.7,0-1.3-0.1-1.7-0.4
		c-0.4-0.3-0.7-0.5-0.8-0.7c0.4,0.1,0.9,0.2,1.3,0.2c0.6,0,1-0.1,1.4-0.3c0.4-0.2,0.6-0.5,0.8-0.8c0.2-0.3,0.2-0.6,0.2-1V8.4
		c0-0.6,0.3-0.9,1-0.9c0.3,0,0.5,0.1,0.7,0.2s0.3,0.4,0.3,0.7v7.9h2.1V17.6z"/>
	<path d="M36.2,16.2v1.5h-2c-0.5,0-0.9,0-1.2-0.1c-0.3-0.1-0.6-0.2-0.8-0.4c-0.5,0.3-1.1,0.5-1.8,0.6h-1.2v-1.5h1.2
		c0.4,0,0.8-0.1,1.2-0.3V8.4c0-0.7,0.3-1,1-1c0.7,0,1,0.3,1,1v6c0,0.5,0,0.9,0.1,1.3s0.2,0.5,0.5,0.5H36.2z M30.2,21.4
		c-0.2-0.2-0.4-0.5-0.4-0.9c0-0.3,0.1-0.6,0.4-0.9c0.2-0.2,0.5-0.4,0.9-0.4c0.3,0,0.6,0.1,0.9,0.4c0.2,0.2,0.4,0.5,0.4,0.9
		c0,0.3-0.1,0.6-0.4,0.9c-0.2,0.2-0.5,0.4-0.9,0.4S30.5,21.7,30.2,21.4z M33.3,21.4c-0.2-0.2-0.4-0.5-0.4-0.9c0-0.3,0.1-0.6,0.4-0.9
		c0.2-0.2,0.5-0.4,0.9-0.4c0.3,0,0.6,0.1,0.9,0.4c0.2,0.2,0.4,0.5,0.4,0.9c0,0.3-0.1,0.6-0.4,0.9c-0.2,0.2-0.5,0.4-0.9,0.4
		C33.9,21.8,33.6,21.7,33.3,21.4z"/>
	<path d="M52.7,16.2v1.5h-2.5c-0.8,0-1.4-0.2-2-0.5c-0.6,0.3-1.4,0.5-2.2,0.5h-9.7v-1.5h2.1V11c0-0.4-0.1-0.7-0.3-1.1
		c-0.3-0.4-0.6-0.7-0.8-0.9c0.1-0.1,0.3-0.2,0.5-0.3s0.5-0.1,0.7-0.1c0.6,0,1,0.2,1.3,0.7c0.5-0.5,1.1-0.9,2-1.3
		c0.9-0.4,1.8-0.6,2.8-0.6c0.9,0,1.8,0.2,2.7,0.5c0.9,0.3,1.6,0.9,2.2,1.7s0.9,1.8,0.9,3.1c0,0.6-0.1,1.2-0.2,1.8s-0.4,1.2-0.8,1.7
		C49.4,16.2,52.7,16.2,52.7,16.2z M47.7,15c0.5-0.8,0.7-1.6,0.7-2.4c0-0.9-0.2-1.6-0.7-2.1c-0.4-0.6-1-1-1.6-1.2s-1.3-0.4-2-0.4
		c-0.9,0-1.7,0.2-2.4,0.5c-0.7,0.3-1.2,0.7-1.5,1.1c0,0.1,0,0.2,0,0.4v5.2h4.9C46.4,16.2,47.3,15.8,47.7,15z"/>
	<path d="M63.9,16.2v1.5h-1.4c-0.8,0-1.4-0.2-1.9-0.5c-0.6,0.4-1.3,0.6-2.3,0.6c-0.9,0-1.6-0.2-2.3-0.5c-0.2,0.1-0.4,0.2-0.7,0.3
		c-0.3,0.1-0.6,0.1-1.1,0.1h-1.6v-1.5H54v-5.4c0-1.3,0.3-2.1,1-2.6s1.7-0.7,2.9-0.7c0.9,0,1.7,0.1,2.2,0.4c0.6,0.3,1,0.8,1.4,1.5
		s0.5,1.8,0.5,3.2c0,1.6-0.2,2.8-0.7,3.5L63.9,16.2L63.9,16.2z M59.7,15c0.3-0.8,0.5-1.6,0.5-2.4c0-2.4-0.8-3.7-2.3-3.7
		c-1.3,0-1.9,0.8-1.9,2.4v4.9h1.5C58.7,16.2,59.4,15.8,59.7,15z"/>
	<path d="M63.9,16.2h1.4c0.4,0,0.6-0.1,0.8-0.4c0.2-0.2,0.3-0.5,0.3-0.9c0-0.3,0.1-0.8,0.1-1.3V6.8c0-0.6-0.1-1.1-0.4-1.6
		c-0.2-0.5-0.5-0.8-0.8-1c0.1-0.1,0.3-0.2,0.5-0.4c0.3-0.1,0.6-0.2,0.9-0.2c0.5,0,0.9,0.2,1.2,0.5c0.3,0.4,0.5,1,0.5,1.8v7.6
		c0,1.4-0.3,2.4-0.9,3.1c-0.6,0.7-1.4,1-2.3,1H64v-1.4H63.9z"/>
	<path d="M72.2,17.3c-0.1-0.2-0.2-0.6-0.2-1V6.8c0-0.6-0.1-1.1-0.4-1.6c-0.2-0.5-0.5-0.8-0.8-1c0.1-0.1,0.3-0.2,0.5-0.4
		c0.3-0.1,0.6-0.2,0.9-0.2c0.5,0,0.9,0.2,1.2,0.5c0.3,0.4,0.5,1,0.5,1.8v10.3c0,0.5-0.1,0.8-0.2,1c-0.1,0.2-0.4,0.3-0.8,0.3
		C72.5,17.6,72.3,17.5,72.2,17.3z"/>
	<path d="M98.9,16.2v1.5H96c-0.8,0-1.4-0.2-1.9-0.5c-0.7,0.3-1.5,0.5-2.3,0.5H81.4c-0.2,0-0.3-0.1-0.4-0.2c-0.1-0.1-0.1-0.3-0.1-0.5
		s0-0.4,0.1-0.5s0.2-0.2,0.4-0.2H83V6.8c0-0.6-0.1-1.1-0.4-1.6c-0.2-0.5-0.5-0.8-0.8-1c0.1-0.1,0.3-0.2,0.5-0.4
		c0.3-0.1,0.6-0.2,0.9-0.2c0.5,0,0.9,0.2,1.2,0.5c0.3,0.4,0.5,1,0.5,1.8v5.3c0.3-0.6,0.7-1.2,1.2-1.8s1.2-1.1,2-1.5
		c0.8-0.4,1.6-0.6,2.6-0.6c0.9,0,1.8,0.2,2.7,0.6c0.9,0.4,1.6,1,2.1,1.9c0.6,0.8,0.8,1.9,0.8,3.1c0,1.3-0.3,2.4-0.9,3.2h3.5V16.2z
		 M93.5,15.2c0.5-0.7,0.8-1.4,0.8-2.3c0-0.9-0.2-1.6-0.6-2.2c-0.4-0.6-1-1-1.6-1.3S90.8,9,90.1,9c-1.2,0-2.3,0.4-3.2,1.2
		s-1.6,1.7-2.1,2.7v3.3h6.1C92.1,16.2,93,15.8,93.5,15.2z"/>
	<path d="M110.2,16.2v1.5h-1.1c-0.5,0-0.9,0-1.2-0.1s-0.6-0.2-0.8-0.4c-0.7,0.4-1.4,0.6-2.4,0.6h-5.8v-1.5h4.5c0.8,0,1.5,0,1.9-0.1
		c0.5-0.1,0.9-0.4,1.4-0.9c0.4-0.5,0.6-1.3,0.6-2.4c0-1.3-0.4-2.2-1.1-2.9c-0.7-0.6-2-1-3.8-1h-1.2c-0.4,0-0.8-0.1-1-0.3
		s-0.4-0.5-0.4-0.9c-0.1-0.4-0.1-0.6-0.1-0.8c0.2,0.1,0.4,0.3,0.6,0.4c0.2,0.1,0.5,0.1,0.9,0.1h0.6c0.3,0,0.8-0.1,1.3-0.1
		c2.1,0,3.7,0.4,4.6,1.3c1,0.9,1.5,2.2,1.5,3.9c0,1.4-0.3,2.6-1,3.5L110.2,16.2L110.2,16.2z M103.7,5.7c-0.2-0.2-0.4-0.5-0.4-0.9
		c0-0.3,0.1-0.6,0.4-0.9s0.5-0.4,0.9-0.4c0.3,0,0.6,0.1,0.9,0.4s0.4,0.5,0.4,0.9c0,0.3-0.1,0.6-0.4,0.9s-0.5,0.4-0.9,0.4
		C104.3,6.1,104,5.9,103.7,5.7z"/>
	<path d="M110.2,16.2h1.4c0.4,0,0.6-0.1,0.8-0.4c0.2-0.2,0.3-0.5,0.3-0.9c0-0.3,0.1-0.8,0.1-1.3V6.8c0-0.6-0.1-1.1-0.4-1.6
		c-0.2-0.5-0.5-0.8-0.8-1c0.1-0.1,0.3-0.2,0.5-0.4c0.3-0.1,0.6-0.2,0.9-0.2c0.5,0,0.9,0.2,1.2,0.5c0.3,0.4,0.5,1,0.5,1.8v7.6
		c0,1.4-0.3,2.4-0.9,3.1c-0.6,0.7-1.4,1-2.3,1h-1.2v-1.4H110.2z"/>
	<path d="M118.4,17.3c-0.1-0.2-0.2-0.6-0.2-1V6.8c0-0.6-0.1-1.1-0.4-1.6c-0.2-0.5-0.5-0.8-0.8-1c0.1-0.1,0.3-0.2,0.5-0.4
		c0.3-0.1,0.6-0.2,0.9-0.2c0.5,0,0.9,0.2,1.2,0.5c0.3,0.4,0.5,1,0.5,1.8v10.3c0,0.5-0.1,0.8-0.2,1c-0.1,0.2-0.4,0.3-0.8,0.3
		C118.8,17.6,118.5,17.5,118.4,17.3z"/>
</g>
</svg>
