<?xml version="1.0" encoding="utf-8"?>
<!-- Generator: Adobe Illustrator 22.0.1, SVG Export Plug-In . SVG Version: 6.00 Build 0)  -->
<svg version="1.1" id="Layer_1" xmlns="http://www.w3.org/2000/svg" xmlns:xlink="http://www.w3.org/1999/xlink" x="0px" y="0px"
	 width="91.5px" height="30px" viewBox="0 0 91.5 30" style="enable-background:new 0 0 91.5 30;" xml:space="preserve">
<g>
	<path d="M18.3,20.1c-0.2,0-0.4,0-0.7-0.1c-0.2-0.1-0.5-0.2-0.7-0.3c-0.2-0.1-0.5-0.2-0.7-0.4c-0.2-0.1-0.4-0.3-0.5-0.5
		c-0.5,0.3-1,0.5-1.5,0.7s-1.1,0.4-1.7,0.6s-1.2,0.3-1.7,0.3c-0.6,0.1-1.1,0.1-1.7,0.1c-0.5,0-1.1,0-1.7-0.1s-1.1-0.3-1.6-0.5
		s-0.9-0.6-1.2-1c-0.3-0.4-0.5-0.9-0.5-1.6c0-0.2,0-0.5,0.1-0.8s0.2-0.5,0.3-0.8c0.1-0.3,0.3-0.5,0.4-0.7c0.2-0.2,0.3-0.4,0.5-0.6
		h0.1v0.1c-0.1,0.1-0.1,0.2-0.2,0.3S5.2,15,5.1,15.1S5,15.3,5,15.5c0,0.1,0,0.3,0,0.4c0,0.3,0.1,0.6,0.2,0.9s0.3,0.5,0.6,0.6
		c0.2,0.2,0.5,0.3,0.8,0.4s0.6,0.2,0.9,0.3c0.3,0.1,0.6,0.1,1,0.1c0.3,0,0.6,0,0.9,0c0.4,0,0.8,0,1.3-0.1c0.5,0,0.9-0.1,1.4-0.2
		s1-0.2,1.4-0.3s0.9-0.2,1.3-0.4c-0.1-0.2-0.1-0.4-0.2-0.6s-0.1-0.4-0.1-0.6c0-0.2,0-0.4,0.1-0.7s0.2-0.5,0.3-0.8
		c0.1-0.3,0.3-0.6,0.4-0.9c0.2-0.3,0.3-0.5,0.5-0.8c0.2-0.2,0.4-0.4,0.6-0.5s0.5-0.2,0.7-0.2s0.3,0.1,0.5,0.2
		c0.1,0.2,0.2,0.4,0.3,0.6c0.1,0.2,0.1,0.5,0.2,0.7c0,0.2,0.1,0.4,0.1,0.6c0,0.5-0.1,1-0.3,1.5c-0.2,0.5-0.5,0.9-0.8,1.4
		c0.4,0.1,0.9,0.2,1.4,0.2s0.9,0.1,1.3,0.1c0.2,0,0.3,0.1,0.4,0.3c0.1,0.2,0.1,0.5,0.1,0.8s0,0.5-0.1,0.8c-0.1,0.2-0.2,0.3-0.4,0.3
		h-1.5V20.1z M17.3,16.1c0-0.1,0-0.3-0.1-0.4s-0.1-0.3-0.2-0.4c-0.1-0.1-0.2-0.2-0.3-0.3c0,0-0.2,0-0.3,0s-0.3,0-0.4,0.1
		c-0.2,0.1-0.3,0.2-0.4,0.3s-0.2,0.3-0.3,0.4c-0.1,0.1-0.1,0.3-0.1,0.4s0,0.2,0.1,0.4c0.1,0.1,0.1,0.2,0.2,0.3
		c0.1,0.1,0.2,0.2,0.3,0.2c0.1,0.1,0.2,0.1,0.3,0.2c0.1,0,0.2-0.1,0.4-0.2c0.1-0.1,0.3-0.2,0.4-0.3c0.1-0.1,0.3-0.2,0.4-0.3
		C17.3,16.3,17.3,16.2,17.3,16.1z M16.7,11.1l-1.3-1.3l1.3-1.3l1.2,1.3L16.7,11.1z"/>
	<path d="M18.8,20.1c-0.2,0-0.3-0.1-0.4-0.3c-0.1-0.2-0.1-0.5-0.1-0.8s0-0.5,0.1-0.8c0.1-0.2,0.2-0.3,0.4-0.3c0.2,0,0.4,0,0.6,0
		s0.4,0,0.6,0s0.4,0,0.6,0s0.3,0,0.5-0.1c0.2,0,0.3-0.1,0.4-0.3c0.1-0.1,0.2-0.3,0.3-0.5c0.1-0.2,0.1-0.4,0.2-0.5
		c0-0.2,0.1-0.3,0.2-0.5c0,0,0,0,0.1-0.1h0.1h0.1V16c0,0.1,0,0.3,0,0.4s0,0.2,0,0.3c0,0.3,0.1,0.5,0.3,0.7c0.2,0.2,0.4,0.3,0.7,0.4
		c0.3,0.1,0.6,0.1,0.9,0.1s0.6,0,0.8,0c0.2,0,0.4,0.1,0.5,0.3c0.1,0.2,0.2,0.5,0.2,0.8s-0.1,0.5-0.2,0.8c-0.1,0.2-0.3,0.3-0.5,0.3
		h-1.4c-0.2,0-0.3,0-0.5-0.1s-0.4-0.2-0.5-0.3c-0.2-0.1-0.3-0.3-0.5-0.4c-0.1-0.2-0.3-0.4-0.4-0.6c-0.1,0.1-0.2,0.3-0.3,0.5
		c-0.1,0.2-0.3,0.3-0.4,0.5c-0.2,0.1-0.3,0.3-0.5,0.4s-0.4,0.1-0.5,0.1h-1.4V20.1z M20.5,24.2l-1.3-1.3l1.3-1.3l1.3,1.3L20.5,24.2z
		 M23.1,24.2l-1.3-1.3l1.3-1.3l1.3,1.3L23.1,24.2z"/>
	<path d="M25.1,18l1.8-1.8v-7c-0.1-0.1-0.3-0.2-0.4-0.4s-0.2-0.3-0.2-0.5c0-0.1,0.1-0.3,0.2-0.5c0.1-0.3,0.3-0.5,0.4-0.8
		c0.2-0.3,0.3-0.5,0.5-0.7S27.7,6,27.7,6s0,0,0.1,0c0,0,0,0,0,0.1c0,0.2-0.1,0.3-0.1,0.4s0,0.2,0,0.4c0,0.1,0,0.3,0.1,0.4
		s0.1,0.3,0.2,0.4s0.2,0.2,0.4,0.3c0.1,0.1,0.3,0.1,0.4,0.2l-0.7,1.9L27.8,10v5.7c0.1-0.1,0.3-0.3,0.5-0.4c0.2-0.2,0.4-0.3,0.7-0.5
		c0.2-0.2,0.5-0.3,0.8-0.5s0.5-0.3,0.8-0.5c0.3-0.1,0.5-0.2,0.7-0.3s0.4-0.1,0.6-0.1c0.6,0,1.2,0.2,1.5,0.5c0.4,0.3,0.6,0.7,0.6,1.3
		c0,0.3-0.1,0.6-0.2,0.9c-0.1,0.3-0.3,0.6-0.4,0.9c-0.2,0.3-0.4,0.6-0.6,0.8c-0.2,0.3-0.4,0.5-0.6,0.7c0.3,0,0.5-0.1,0.8-0.1
		s0.5,0,0.8,0h2.1c0.1,0,0.3,0.1,0.3,0.3c0.1,0.2,0.1,0.5,0.1,0.8s0,0.5-0.1,0.8c-0.1,0.2-0.2,0.3-0.3,0.3H24.1
		c-0.2,0-0.3-0.1-0.4-0.3c-0.1-0.2-0.1-0.5-0.1-0.8s0-0.5,0.1-0.8c0.1-0.2,0.2-0.3,0.4-0.3h1V18z M26.3,17.9
		C26.3,18,26.3,18,26.3,17.9c0.1,0,0.2,0,0.2,0h0.1h0.1c0.2,0,0.4,0,0.8-0.1c0.4,0,0.7-0.1,1.2-0.2c0.4-0.1,0.9-0.2,1.3-0.3
		c0.5-0.1,0.9-0.2,1.3-0.4c0.4-0.1,0.7-0.3,0.9-0.5c0.2-0.2,0.4-0.4,0.4-0.6c0-0.1-0.1-0.2-0.2-0.3s-0.3-0.2-0.4-0.3
		c-0.2-0.1-0.4-0.2-0.6-0.2s-0.5-0.1-0.8-0.1s-0.7,0.1-1.1,0.3s-0.8,0.4-1.2,0.7c-0.4,0.3-0.8,0.6-1.1,0.9
		C26.8,17.4,26.5,17.7,26.3,17.9z"/>
	<path d="M34.8,20.1c-0.2,0-0.4-0.1-0.4-0.3c-0.1-0.2-0.1-0.5-0.1-0.8s0-0.5,0.1-0.8c0.1-0.2,0.2-0.3,0.4-0.3h0.7
		c0.5,0,0.8-0.1,1.1-0.4c0.3-0.3,0.4-0.7,0.4-1.3c0-0.1,0-0.2,0-0.3c0-0.1,0-0.3,0-0.5s0-0.5-0.1-0.8c0-0.4-0.1-0.8-0.1-1.4
		c0-0.6-0.1-1.3-0.1-2.2s-0.1-1.9-0.2-3.2l1.2-1.3l0.5,8.4c0,0.6,0.1,1,0.2,1.4c0.1,0.3,0.2,0.6,0.3,0.7c0.2,0.3,0.4,0.6,0.7,0.7
		c0.2,0.1,0.5,0.2,0.9,0.2h0.6c0.2,0,0.4,0.1,0.5,0.3c0.1,0.2,0.2,0.5,0.2,0.8s-0.1,0.5-0.2,0.8c-0.1,0.2-0.3,0.3-0.5,0.3h-1
		c-0.2,0-0.5-0.1-0.7-0.2c-0.2-0.2-0.5-0.4-0.7-0.6s-0.4-0.5-0.5-0.7c-0.1-0.3-0.2-0.5-0.3-0.6c-0.1,0.2-0.2,0.5-0.3,0.7
		c-0.1,0.3-0.3,0.5-0.4,0.7c-0.2,0.2-0.4,0.4-0.6,0.5s-0.5,0.2-0.8,0.2C35.6,20.1,34.8,20.1,34.8,20.1z"/>
	<path d="M40.1,20.1c-0.2,0-0.3-0.1-0.4-0.3c-0.1-0.2-0.1-0.5-0.1-0.8s0-0.5,0.1-0.8c0.1-0.2,0.2-0.3,0.4-0.3c0.4,0,0.8,0,1.1,0
		c0.3,0,0.5,0,0.7-0.1c0.2,0,0.4-0.1,0.6-0.1c0.2-0.1,0.4-0.1,0.6-0.2l-0.4-7.6c0,0-0.1-0.1-0.2-0.2c-0.1-0.1-0.2-0.2-0.2-0.3
		c-0.1-0.1-0.1-0.2-0.2-0.3C42,9,41.9,8.9,41.9,8.8c0-0.1,0.1-0.2,0.2-0.5c0.1-0.2,0.3-0.5,0.4-0.8C42.7,7.2,42.8,7,43,6.8
		s0.3-0.3,0.4-0.4h0.1c0,0,0,0,0,0.1c-0.1,0.2-0.1,0.4-0.1,0.6s0,0.3,0,0.5c0,0.1,0,0.2,0.1,0.4c0.1,0.1,0.2,0.2,0.3,0.4
		c0.1,0.1,0.2,0.2,0.3,0.3c0.1,0.1,0.2,0.2,0.3,0.3c0,0.1-0.1,0.2-0.1,0.3c0,0.2-0.1,0.3-0.1,0.5s-0.1,0.3-0.2,0.5s-0.1,0.3-0.2,0.4
		l-0.1-0.1c0,0.8,0.1,1.7,0.2,2.6s0.1,1.7,0.1,2.6c0,0.3,0,0.6-0.1,0.9c0,0.3-0.1,0.7-0.2,1s-0.2,0.6-0.3,1
		c-0.1,0.3-0.3,0.6-0.5,0.8c-0.2,0.2-0.4,0.4-0.7,0.6c-0.3,0.1-0.6,0.2-0.9,0.2h-1.2V20.1z"/>
	<path d="M47.6,6.5c0,1.5,0,3,0.1,4.4c0,1.5,0.1,3,0.1,4.4c0,0.8,0,1.5-0.1,2.2s-0.2,1.3-0.2,1.9c-0.1,0.1-0.2,0.2-0.3,0.4
		c-0.1,0.1-0.2,0.2-0.5,0.3v-1.8c0-0.9,0-1.8,0-2.6c0-0.8-0.1-1.6-0.1-2.4s-0.1-1.6-0.1-2.4c0-0.8,0-1.7,0-2.7L47.6,6.5z"/>
	<path d="M58.4,18.3l1.5-1.5V9.1c-0.1-0.1-0.3-0.2-0.4-0.4c-0.1-0.2-0.2-0.3-0.2-0.5c0-0.1,0.1-0.3,0.2-0.6c0.1-0.3,0.3-0.5,0.4-0.8
		c0.2-0.3,0.3-0.5,0.5-0.7s0.3-0.3,0.4-0.3c0,0,0,0,0,0.1s-0.1,0.3-0.1,0.4s0,0.2,0,0.3c0,0.1,0,0.3,0.1,0.4s0.1,0.3,0.2,0.4
		c0.1,0.1,0.2,0.2,0.4,0.3c0.1,0.1,0.3,0.1,0.4,0.2l-0.7,1.9l-0.3-0.1v6.4c0.2-0.1,0.4-0.3,0.6-0.4c0.2-0.2,0.5-0.4,0.8-0.5
		c0.3-0.2,0.6-0.4,0.9-0.6c0.3-0.2,0.6-0.4,0.9-0.5c0.3-0.2,0.6-0.3,0.8-0.4c0.3-0.1,0.5-0.1,0.7-0.1c0.3,0,0.6,0.1,0.9,0.2
		c0.3,0.1,0.5,0.2,0.7,0.4s0.4,0.4,0.5,0.6c0.1,0.2,0.2,0.5,0.2,0.7s-0.1,0.5-0.2,0.7s-0.2,0.5-0.4,0.8c-0.2,0.2-0.4,0.5-0.6,0.7
		c-0.2,0.2-0.4,0.4-0.6,0.6c0.3-0.1,0.6-0.1,0.8-0.2c0.3,0,0.5-0.1,0.7-0.1s0.5,0,0.7,0s0.5,0,0.8,0c0.2,0,0.4,0.1,0.5,0.3
		c0.1,0.2,0.2,0.5,0.2,0.8s-0.1,0.5-0.2,0.8c-0.1,0.2-0.3,0.3-0.5,0.3h-9.8c-0.5,0-1,0-1.4-0.1c-0.5,0-0.9-0.1-1.3-0.3
		c-0.4-0.2-0.8-0.4-1.1-0.7c-0.3-0.3-0.7-0.7-0.9-1.1L58.4,18.3z M64.2,15.6c-0.3,0-0.7,0.1-1.1,0.2c-0.4,0.1-0.7,0.3-1.1,0.5
		c-0.3,0.2-0.7,0.4-1,0.7c-0.3,0.2-0.6,0.5-0.8,0.7c0,0,0,0-0.1,0.1c0,0.1-0.1,0.1-0.1,0.2s-0.1,0.1-0.1,0.2s0,0.1,0,0.1
		c0.3,0,0.7,0,1.2,0c0.4,0,0.9-0.1,1.3-0.1c0.5-0.1,0.9-0.1,1.3-0.2c0.4-0.1,0.8-0.2,1.2-0.3c0.3-0.1,0.6-0.3,0.8-0.4
		c0.2-0.2,0.3-0.3,0.3-0.5s-0.1-0.4-0.2-0.5c-0.1-0.1-0.3-0.2-0.5-0.3c-0.2-0.1-0.4-0.1-0.7-0.2S64.3,15.6,64.2,15.6z"/>
	<path d="M68.4,20.1c-0.2,0-0.3-0.1-0.4-0.3c-0.1-0.2-0.1-0.5-0.1-0.8s0-0.5,0.1-0.8c0.1-0.2,0.2-0.3,0.4-0.3c0.5,0,0.9,0,1.4,0
		c0.4,0,0.9-0.1,1.3-0.2c0.4-0.1,0.9-0.3,1.3-0.5c0.4-0.2,0.9-0.5,1.3-0.9c-0.1-0.1-0.3-0.2-0.5-0.3c-0.2-0.1-0.4-0.2-0.6-0.2
		c-0.2-0.1-0.4-0.1-0.7-0.2c-0.2,0-0.4-0.1-0.6-0.1c-0.2,0-0.4,0-0.6,0.1c-0.2,0.1-0.4,0.2-0.6,0.3L70,16c0,0-0.1,0.1-0.2,0.1h-0.1
		V16c0-0.3,0.1-0.6,0.2-0.9c0.1-0.3,0.3-0.6,0.5-0.8s0.4-0.4,0.7-0.6c0.3-0.1,0.5-0.2,0.8-0.2c0.4,0,0.7,0.1,1.1,0.2
		c0.4,0.1,0.7,0.3,1.1,0.5s0.8,0.3,1.2,0.5c0.4,0.1,0.8,0.2,1.3,0.2c0.4,0,0.7,0,1.1-0.1c0.3,0,0.7-0.1,1.1-0.2l-0.4,1.9l-1.2,0.4
		c0,0.3,0.2,0.6,0.4,0.7c0.3,0.1,0.5,0.2,0.9,0.2H81c0.2,0,0.4,0.1,0.5,0.3c0.1,0.2,0.2,0.5,0.2,0.8s-0.1,0.5-0.2,0.8
		C81.4,19.9,81.2,20,81,20h-2c-0.4,0-0.8-0.1-1.1-0.3c-0.3-0.2-0.5-0.4-0.7-0.7c-0.2-0.3-0.3-0.6-0.4-1c-0.1-0.4-0.1-0.7-0.2-1.1
		c-0.7,0.1-1.3,0.4-1.9,0.7c-0.6,0.3-1.2,0.6-1.7,0.9c-0.6,0.3-1.1,0.6-1.6,0.9s-1.1,0.4-1.7,0.5h-1.3V20.1z M73.9,12.2l-1.3-1.3
		l1.3-1.3l1.3,1.3L73.9,12.2z"/>
	<path d="M79.9,20.1c-0.2,0-0.3-0.1-0.4-0.3c-0.1-0.2-0.1-0.5-0.1-0.8s0-0.5,0.1-0.8c0.1-0.2,0.2-0.3,0.4-0.3c0.4,0,0.8,0,1.1,0
		s0.5,0,0.7-0.1c0.2,0,0.4-0.1,0.6-0.1c0.2-0.1,0.4-0.1,0.6-0.2l-0.4-7.6c0,0-0.1-0.1-0.2-0.2c-0.1-0.1-0.2-0.2-0.2-0.3
		C82,9.3,82,9.2,81.9,9.1c-0.1-0.1-0.1-0.2-0.1-0.2c0-0.1,0.1-0.2,0.2-0.5c0.1-0.2,0.3-0.5,0.4-0.8c0.2-0.3,0.3-0.5,0.5-0.7
		s0.3-0.3,0.4-0.4h0.1c0,0,0,0,0,0.1c-0.1,0.2-0.1,0.4-0.1,0.6s0,0.3,0,0.5c0,0.1,0,0.2,0.1,0.4c0.1,0.1,0.2,0.2,0.3,0.4
		c0.1,0.1,0.2,0.2,0.3,0.3s0.2,0.2,0.3,0.3c0,0.1-0.1,0.2-0.1,0.3c0,0.2-0.1,0.3-0.1,0.5s-0.1,0.3-0.2,0.5c-0.1,0.2-0.1,0.3-0.2,0.4
		l-0.1-0.1c0,0.8,0.1,1.7,0.2,2.6c0.1,0.9,0.1,1.7,0.1,2.6c0,0.3,0,0.6-0.1,0.9s-0.1,0.7-0.2,1c-0.1,0.3-0.2,0.6-0.3,1
		c-0.1,0.3-0.3,0.6-0.5,0.8c-0.2,0.2-0.4,0.4-0.7,0.6c-0.3,0.1-0.6,0.2-0.9,0.2h-1.3V20.1z"/>
	<path d="M87.5,6.5c0,1.5,0,3,0.1,4.4c0,1.5,0.1,3,0.1,4.4c0,0.8,0,1.5-0.1,2.2s-0.2,1.3-0.2,1.9c-0.1,0.1-0.2,0.2-0.3,0.4
		c-0.1,0.1-0.2,0.2-0.5,0.3v-1.8c0-0.9,0-1.8,0-2.6c0-0.8-0.1-1.6-0.1-2.4s-0.1-1.6-0.1-2.4c0-0.8,0-1.7,0-2.7L87.5,6.5z"/>
</g>
</svg>
