<?xml version="1.0" encoding="utf-8"?>
<!-- Generator: Adobe Illustrator 22.0.1, SVG Export Plug-In . SVG Version: 6.00 Build 0)  -->
<svg version="1.1" id="Layer_1" xmlns="http://www.w3.org/2000/svg" xmlns:xlink="http://www.w3.org/1999/xlink" x="0px" y="0px"
	 width="121.4px" height="30px" viewBox="0 0 121.4 30" style="enable-background:new 0 0 121.4 30;" xml:space="preserve">
<g>
	<path d="M18,17.7h-1.8c-0.8,1.5-1.9,2.6-3.1,3.4c-1.3,0.8-2.8,1.2-4.5,1.2c-1.5,0-2.7-0.3-3.7-0.8c-1-0.6-1.8-1.3-2.3-2.2
		s-0.7-1.8-0.7-2.7c0-0.6,0.1-1.1,0.3-1.5c0.2-0.4,0.4-0.7,0.7-1c0.3-0.2,0.6-0.3,0.9-0.3c0.2,0,0.4,0,0.5,0.1
		c0.2,0.1,0.3,0.2,0.4,0.3s0.2,0.2,0.2,0.2c-0.1,0-0.2,0.2-0.3,0.4c-0.2,0.2-0.3,0.5-0.5,0.8c-0.1,0.3-0.2,0.7-0.2,1.1
		c0,0.7,0.2,1.3,0.6,1.9s1,1.1,1.7,1.5c0.8,0.4,1.7,0.6,2.7,0.6c1.1,0,2.2-0.3,3.2-0.8s1.7-1.3,2.4-2.3h-0.3c-0.6,0-1,0-1.3-0.1
		c-0.3,0-0.5-0.1-0.6-0.2s-0.2-0.3-0.2-0.5c0-0.3,0.1-0.7,0.3-1c0.7,0.1,1.4,0.2,2.3,0.2h3.6L18,17.7z M5.7,25.4
		c-0.2-0.2-0.3-0.4-0.3-0.7c0-0.4,0.1-0.7,0.4-0.9c0.3-0.2,0.6-0.3,1-0.3c0.3,0,0.6,0.1,0.7,0.2c0.2,0.2,0.3,0.4,0.3,0.6
		c0,0.4-0.1,0.7-0.4,0.9c-0.2,0.2-0.6,0.3-1,0.3C6.1,25.6,5.9,25.5,5.7,25.4z M8.3,25.4C8.1,25.2,8,25,8,24.8c0-0.4,0.1-0.7,0.4-0.9
		c0.3-0.2,0.6-0.3,1-0.3c0.3,0,0.6,0.1,0.7,0.2c0.2,0.2,0.3,0.4,0.3,0.6c0,0.4-0.1,0.7-0.4,0.9c-0.3,0.2-0.6,0.3-1,0.3
		C8.7,25.6,8.5,25.5,8.3,25.4z"/>
	<path d="M22.9,9.1c0.1,0.1,0.2,0.3,0.2,0.6c0,0.1-0.1,0.5-0.2,1.1C22.6,12,22.4,13,22.2,14c-0.2,0.9-0.3,1.8-0.3,2.5l-0.8,1.2h-3.2
		l0.2-1.6H20c0.1-0.9,0.5-2.8,1.1-5.8l-0.7-0.8C20.7,9.3,21,9.1,21.3,9s0.7-0.2,1-0.2C22.6,8.9,22.8,8.9,22.9,9.1z M21.6,7.2
		c-0.2-0.2-0.3-0.4-0.3-0.6c0-0.4,0.1-0.7,0.4-0.9c0.3-0.2,0.6-0.3,1-0.3c0.3,0,0.6,0.1,0.7,0.2c0.2,0.2,0.3,0.4,0.3,0.6
		c0,0.4-0.1,0.7-0.4,0.9c-0.2,0.2-0.6,0.3-1,0.3C22,7.4,21.7,7.4,21.6,7.2z"/>
	<path d="M34.5,17.7h-2.7c-0.4,1.7-1,3-1.7,4c-0.7,0.9-1.7,1.4-3,1.4c-0.7,0-1.2-0.1-1.5-0.4c-0.3-0.2-0.5-0.5-0.5-0.9
		c1.1,0,2-0.1,2.6-0.4s1.1-0.7,1.4-1.3c0.3-0.6,0.6-1.4,0.7-2.5h-1.5c-1.2,0-2.1-0.4-2.8-1.1c-0.7-0.7-1-1.8-1-3.1
		c0-1.1,0.2-2,0.6-2.9s1-1.6,1.8-2.1s1.7-0.8,2.8-0.8c0.8,0,1.5,0.1,2.1,0.4c0.6,0.3,1,0.6,1.2,1c0,0.3-0.1,1.2-0.3,2.6
		c-0.2,1.4-0.4,2.8-0.7,4.1V16h2.6L34.5,17.7z M27.3,15.4c0.5,0.5,1.1,0.7,1.9,0.7h1.1l1-6.7c-0.3-0.1-0.7-0.2-1.2-0.2
		c-0.8,0-1.4,0.2-1.9,0.5s-0.9,0.8-1.2,1.5c-0.3,0.6-0.4,1.3-0.4,2C26.6,14.2,26.8,14.9,27.3,15.4z"/>
	<path d="M46.7,16.1l-0.3,1.6h-8.6l-0.3-0.8h-0.1c-0.2,0.2-0.4,0.4-0.7,0.6c-0.3,0.2-0.6,0.3-0.9,0.3h-1.4l0.2-1.6h0.7
		c0.4,0,0.7-0.1,1-0.3s0.6-0.4,0.8-0.6c0.2-0.3,0.3-0.5,0.4-0.7l0.8-5.1c0.1-0.3,0.4-0.6,0.8-0.8c0.4-0.3,0.9-0.5,1.4-0.6
		c0.6-0.2,1.1-0.2,1.7-0.2c1.2,0,2.1,0.3,2.7,0.9c0.6,0.6,1,1.6,1,2.8c0,0.9-0.2,1.8-0.5,2.6c-0.3,0.8-0.8,1.5-1.4,2.1h2.7V16.1z
		 M42,15.5c0.6-0.4,1.1-1,1.4-1.7c0.4-0.7,0.5-1.4,0.5-2.2s-0.2-1.4-0.6-1.7c-0.4-0.4-0.9-0.6-1.6-0.6c-0.6,0-1.1,0.1-1.6,0.3
		l-1,6.5H40C40.8,16.1,41.4,15.9,42,15.5z"/>
	<path d="M46.4,20.8c-0.2-0.2-0.3-0.4-0.3-0.6c0-0.4,0.1-0.7,0.4-0.9c0.3-0.2,0.6-0.3,1-0.3c0.3,0,0.6,0.1,0.7,0.2
		c0.2,0.2,0.3,0.4,0.3,0.6c0,0.4-0.1,0.7-0.4,0.9c-0.2,0.2-0.6,0.3-1,0.3C46.9,21.1,46.6,21,46.4,20.8z M52.9,16.1l-0.2,1.6h-1.3
		c-0.6,0-1-0.3-1.3-0.8H50l-0.5,0.8h-3.1l0.2-1.6h1.8l0,0c0-0.2,0-0.5,0.1-0.8c0.1-0.4,0.1-0.7,0.2-0.9s0.1-0.5,0.1-0.6
		c0.3-1.5,0.5-2.6,0.5-3.2c0-0.4-0.1-0.8-0.2-1.2C49.6,9.1,50,9,50.4,9c0.6,0,0.8,0.3,0.8,1c0,0.3,0,0.5-0.1,0.9
		c-0.1,0.3-0.1,0.7-0.3,1.3c-0.1,0.5-0.2,1-0.3,1.3c-0.1,0.4-0.1,0.7-0.1,1c0,0.5,0.1,1,0.4,1.3c0.3,0.3,0.6,0.5,1.1,0.5h1V16.1z
		 M49,20.8c-0.2-0.2-0.3-0.4-0.3-0.6c0-0.4,0.1-0.7,0.4-0.9c0.3-0.2,0.6-0.3,1-0.3c0.3,0,0.6,0.1,0.7,0.2c0.2,0.2,0.3,0.4,0.3,0.6
		c0,0.4-0.1,0.7-0.4,0.9c-0.3,0.2-0.6,0.3-1,0.3C49.5,21.1,49.2,21,49,20.8z"/>
	<path d="M59.2,16.1L59,17.7h-1.2c-0.6,0-1.1-0.3-1.3-0.8h-0.1l-0.5,0.8h-3.2l0.3-1.6h1.9c0.1-0.7,0.2-2.1,0.5-4.1s0.6-3.8,0.9-5.6
		l-0.7-0.8c0.2-0.2,0.5-0.4,0.9-0.5c0.3-0.1,0.7-0.2,1-0.2c0.6,0,0.8,0.2,0.8,0.7c0,0.2,0,0.5-0.1,0.9S58.1,7.3,58,7.6
		c-0.1,0.3-0.1,0.6-0.1,0.7c-0.4,1.8-0.6,3.3-0.8,4.5v-0.1c-0.1,0.8-0.2,1.3-0.2,1.6c0,0.5,0.1,0.9,0.4,1.2s0.6,0.5,1.1,0.5h0.8
		V16.1z"/>
	<path d="M64.6,5.7c0,0.2,0,0.5-0.1,1s-0.2,1.1-0.3,1.7c-0.4,1.8-0.6,3.3-0.8,4.6c-0.2,1.2-0.3,2.4-0.3,3.5l-0.8,1.2h-3.2l0.3-1.6
		h1.9c0.1-0.7,0.2-2.1,0.5-4.1s0.6-3.8,0.9-5.6L62,5.6c0.2-0.2,0.5-0.4,0.9-0.5c0.3-0.1,0.7-0.2,1-0.2C64.3,5,64.6,5.2,64.6,5.7z"/>
	<path d="M69,6.8c-0.1,0.6-0.2,1.2-0.4,1.8c-0.3,1.8-0.6,3.2-0.8,4.4s-0.3,2.2-0.3,3c0,0.3,0,0.5,0.1,0.7c0,0.2,0.1,0.3,0.3,0.5
		c-0.3,0.3-0.7,0.4-1.2,0.4c-0.3,0-0.6-0.1-0.8-0.3c-0.2-0.2-0.3-0.5-0.3-0.9c0-0.6,0.2-1.9,0.5-4s0.7-4.1,1-6l-0.7-0.8
		c0.3-0.2,0.6-0.4,0.9-0.5C67.8,5,68.1,5,68.4,5c0.6,0,0.8,0.2,0.8,0.7C69.2,5.9,69.1,6.3,69,6.8z"/>
	<path d="M94.5,16.1l-0.3,1.6h-3.4c-0.4,0-0.8-0.1-1.1-0.4s-0.4-0.6-0.5-1c-0.5,0.4-1.1,0.8-1.9,1c-0.7,0.2-1.5,0.4-2.4,0.4h-8.8
		c-0.5,0-0.9,0-1.2-0.1c-0.3,0-0.5-0.1-0.6-0.2s-0.2-0.3-0.2-0.5c0-0.3,0.1-0.6,0.3-1c0.7,0.1,1.4,0.2,2.3,0.2h0.6
		c0-0.7,0.1-1.8,0.4-3.3c0.2-1.5,0.6-3.3,0.9-5.4l0.2-0.9l-0.7-0.8c0.3-0.2,0.6-0.4,0.9-0.5C79.3,5.1,79.7,5,79.9,5
		c0.3,0,0.5,0.1,0.6,0.2s0.2,0.3,0.2,0.6c0,0.2,0,0.5-0.1,1s-0.2,1-0.3,1.5c-0.1,0.2-0.1,0.6-0.3,1.2s-0.2,1.1-0.3,1.6
		C80.2,10.3,81,9.6,82,9c1-0.6,2.3-0.9,3.8-0.9c1.6,0,2.9,0.4,3.8,1.1c0.9,0.7,1.3,1.8,1.3,3.1l0,0c0,0.2,0,0.3,0,0.4
		c0,0.3-0.1,0.7-0.1,1.1c-0.1,0.4-0.1,0.7-0.1,1c0,0.4,0.1,0.7,0.3,1c0.2,0.3,0.4,0.3,0.8,0.3H94.5z M87.5,15.6
		c0.6-0.3,1.1-0.7,1.4-1.3c0.3-0.5,0.5-1.1,0.5-1.8c0-0.9-0.3-1.6-0.9-2.1c-0.6-0.5-1.5-0.7-2.7-0.7c-1.5,0-2.7,0.3-3.6,1
		s-1.7,1.5-2.2,2.5s-0.7,2-0.8,3h6.2C86.2,16.1,86.9,16,87.5,15.6z"/>
	<path d="M109.3,16.1l-0.3,1.6h-0.9c-0.6,0-1-0.3-1.3-0.8h-0.1l-0.5,0.8H94.1l0.2-1.6H105c0-0.9-0.2-1.8-0.6-2.5
		c-0.4-0.7-0.8-1.3-1.4-1.8c-0.5-0.5-1.1-0.8-1.7-1.1c-0.4,0.1-0.8,0.1-1.3,0.1c-1.1,0-2.1-0.1-3-0.4c-0.9-0.3-1.3-0.8-1.3-1.6
		c0-0.3,0.1-0.6,0.3-1c1.2,0.3,2.7,0.7,4.5,1s3.4,0.5,4.6,0.5c0.3,0,0.6,0,0.8-0.1s0.4-0.1,0.6-0.2c0.1,0.2,0.2,0.4,0.3,0.5
		s0.1,0.3,0.1,0.5c0,0.4-0.1,0.7-0.4,0.8c-0.3,0.2-0.7,0.2-1.2,0.2c-0.3,0-0.6,0-1.1-0.1c0.8,0.5,1.4,1.1,1.9,1.8s0.7,1.5,0.9,2.2
		c0.1,0.3,0.3,0.6,0.5,0.8s0.6,0.3,1,0.3h0.8V16.1z M101.1,6.7c-0.2-0.2-0.3-0.4-0.3-0.6c0-0.4,0.1-0.7,0.4-0.9
		c0.3-0.2,0.6-0.3,1-0.3c0.3,0,0.6,0.1,0.7,0.2c0.2,0.2,0.3,0.4,0.3,0.6c0,0.4-0.1,0.7-0.4,0.9c-0.2,0.2-0.6,0.3-1,0.3
		C101.6,7,101.3,6.9,101.1,6.7z"/>
	<path d="M114.7,5.7c0,0.2,0,0.5-0.1,1s-0.2,1.1-0.3,1.7c-0.4,1.8-0.6,3.3-0.8,4.6c-0.2,1.2-0.3,2.4-0.3,3.5l-0.8,1.2h-3.2l0.3-1.6
		h1.9c0.1-0.7,0.2-2.1,0.5-4.1s0.6-3.8,0.9-5.6l-0.7-0.8c0.2-0.2,0.5-0.4,0.9-0.5c0.3-0.1,0.7-0.2,1-0.2
		C114.4,5,114.7,5.2,114.7,5.7z"/>
	<path d="M119.1,6.8c-0.1,0.6-0.2,1.2-0.4,1.8c-0.3,1.8-0.6,3.2-0.8,4.4s-0.3,2.2-0.3,3c0,0.3,0,0.5,0.1,0.7c0,0.2,0.1,0.3,0.3,0.5
		c-0.3,0.3-0.7,0.4-1.2,0.4c-0.3,0-0.6-0.1-0.8-0.3c-0.2-0.2-0.3-0.5-0.3-0.9c0-0.6,0.2-1.9,0.5-4s0.7-4.1,1-6l-0.7-0.8
		c0.3-0.2,0.6-0.4,0.9-0.5c0.5-0.1,0.8-0.1,1-0.1c0.6,0,0.8,0.2,0.8,0.7C119.3,5.9,119.2,6.3,119.1,6.8z"/>
</g>
</svg>
