<?xml version="1.0" encoding="utf-8"?>
<!-- Generator: Adobe Illustrator 22.0.1, SVG Export Plug-In . SVG Version: 6.00 Build 0)  -->
<svg version="1.1" id="Layer_1" xmlns="http://www.w3.org/2000/svg" xmlns:xlink="http://www.w3.org/1999/xlink" x="0px" y="0px"
	 width="123.1px" height="30px" viewBox="0 0 123.1 30" style="enable-background:new 0 0 123.1 30;" xml:space="preserve">
<g>
	<path d="M7.7,24c-1.3,0-2.4-0.5-3.1-1.4c-0.8-0.9-1.1-2.2-1.1-3.7c0-0.7,0.1-1.4,0.2-2s0.3-1.2,0.6-1.8h1.6
		c-0.2,0.4-0.3,0.8-0.4,1.1c-0.1,0.4-0.1,0.7-0.2,1c0,0.3-0.1,0.8-0.1,1.5c0,1.1,0.2,2,0.7,2.6s1.2,0.9,2,0.9h3.9
		c1,0,1.8-0.2,2.5-0.6s1-0.8,1-1.3c0-0.3-0.1-0.5-0.4-0.7s-0.7-0.4-1.2-0.5c-1.1-0.3-1.8-0.6-2.2-0.8c-0.4-0.2-0.7-0.5-0.9-0.8
		c-0.2-0.3-0.3-0.7-0.3-1.2c0-0.8,0.2-1.6,0.7-2.4c0.5-0.8,1.1-1.4,1.9-1.8c0.8-0.5,1.5-0.7,2.3-0.7c0.5,0,0.9,0.1,1.3,0.3
		s0.7,0.4,1,0.7s0.7,0.9,1.2,1.6c0.6,1,1.1,1.6,1.3,2s0.5,0.6,0.7,0.7c0.2,0.2,0.4,0.3,0.7,0.4c0.2,0.1,0.5,0.1,0.7,0.1h0.1
		c0.1,0,0.1,0,0.1,0.1v1.5c0,0.1,0,0.1-0.1,0.1h-0.1c-0.6,0-1.2-0.1-1.7-0.4s-1.1-0.7-1.7-1.3c-0.2-0.2-0.5-0.7-1.1-1.5
		c-0.7-1-1.2-1.6-1.6-1.9c-0.4-0.3-0.8-0.5-1.1-0.5c-0.4,0-0.8,0.1-1.2,0.4c-0.4,0.3-0.8,0.7-1.1,1.1c-0.3,0.4-0.4,0.8-0.4,1.2
		c0,0.2,0.1,0.4,0.4,0.6s0.7,0.4,1.2,0.5c1,0.3,1.7,0.6,2.2,0.8c0.4,0.2,0.7,0.5,1,0.8c0.2,0.3,0.3,0.6,0.3,1c0,2.8-1.8,4.2-5.4,4.2
		L7.7,24L7.7,24z M8.3,28.3c-0.3,0-0.6-0.1-0.8-0.3c-0.2-0.2-0.3-0.5-0.3-1c0-0.4,0.1-0.8,0.3-1c0.2-0.2,0.5-0.3,0.8-0.3
		c0.4,0,0.6,0.1,0.9,0.3c0.2,0.2,0.3,0.5,0.3,0.9s-0.1,0.7-0.3,0.9C9,28.1,8.7,28.3,8.3,28.3z M12,28.3c-0.4,0-0.7-0.1-0.9-0.3
		c-0.2-0.2-0.3-0.5-0.3-0.9s0.1-0.7,0.3-0.9c0.2-0.2,0.5-0.3,0.9-0.3s0.7,0.1,0.9,0.3c0.2,0.2,0.3,0.5,0.3,0.9s-0.1,0.7-0.3,0.9
		C12.7,28.1,12.4,28.3,12,28.3z"/>
	<path d="M22.3,19c-0.1,0-0.1,0-0.1-0.1v-1.5c0-0.1,0-0.1,0.1-0.1h3.2c-0.4-0.4-0.6-0.9-0.8-1.5c-0.2-0.6-0.3-1.1-0.3-1.7
		c0-1.7,0.5-3,1.6-3.9c1-1,2.4-1.5,4.2-1.5H33V19H22.3z M31.2,17.3v-7h-0.9c-1.3,0-2.2,0.3-2.9,1c-0.7,0.7-1,1.6-1,2.8
		c0,2.1,1,3.2,2.9,3.2H31.2z M29,6.7c-0.4,0-0.7-0.1-0.9-0.3c-0.2-0.2-0.3-0.5-0.3-0.9s0.1-0.7,0.3-0.9c0.2-0.2,0.5-0.3,0.9-0.3
		s0.7,0.1,0.9,0.3c0.2,0.2,0.3,0.5,0.3,0.9s-0.1,0.6-0.3,0.8C29.7,6.6,29.4,6.7,29,6.7z"/>
	<path d="M44.9,19.5c0,1.4-0.4,2.6-1.3,3.4c-0.8,0.8-2.1,1.2-3.6,1.2c-1.4,0-2.7-0.4-3.8-1.1l0.8-1.4c0.5,0.2,0.9,0.4,1.4,0.6
		s1,0.2,1.6,0.2c1,0,1.7-0.3,2.2-0.8s0.8-1.2,0.8-2V19h-2.1c-1.5,0-2.7-0.4-3.5-1.2s-1.2-2-1.2-3.6c0-1.7,0.5-3,1.6-4
		s2.5-1.5,4.2-1.5h2.8v8.6h1.7c0.1,0,0.1,0,0.1,0.1v1.5c0,0.1,0,0.1-0.1,0.1h-1.6V19.5z M43.1,17.3v-7h-0.9c-1.3,0-2.2,0.3-2.9,1
		c-0.7,0.7-1,1.6-1,2.8c0,1.1,0.2,1.9,0.7,2.4c0.5,0.5,1.2,0.8,2.2,0.8H43.1z"/>
	<path d="M46.4,19c-0.1,0-0.1,0-0.1-0.1v-1.5c0-0.1,0-0.1,0.1-0.1h8.9v-3.9c0-1.1-0.3-1.8-0.9-2.3s-1.6-0.7-2.9-0.7h-3.6V8.6
		c0.5-1,1.1-1.9,1.9-2.8s1.7-1.7,2.7-2.5c1-0.7,1.9-1.3,2.9-1.6l0.7,1.6c-1.3,0.5-2.6,1.3-3.8,2.3c-1.2,1-2.1,2-2.6,3h1.8
		c1.8,0,3.3,0.4,4.2,1.1c1,0.8,1.5,1.8,1.5,3.3v4.2h2.7c0.1,0,0.1,0,0.1,0.1v1.5c0,0.1,0,0.1-0.1,0.1L46.4,19L46.4,19z"/>
	<path d="M59.6,19c-0.1,0-0.1,0-0.1-0.1v-1.5c0-0.1,0-0.1,0.1-0.1h2.8V2.9h1.9V19H59.6z"/>
	<path d="M68.5,2.9h1.9V19h-1.9V2.9z"/>
	<path d="M80.3,17.3h2.1V2.9h1.8v10.4c0.7-1.6,1.5-2.8,2.5-3.6s2.1-1.2,3.4-1.2c1.6,0,2.8,0.4,3.6,1.3c0.8,0.9,1.2,2.2,1.2,4.1v3.4
		h2.8c0.1,0,0.1,0,0.1,0.1v1.5c0,0.1,0,0.1-0.1,0.1H80.4v-1.7H80.3z M93.1,17.3v-3.4c0-1.3-0.3-2.3-0.8-2.9
		c-0.6-0.6-1.4-0.9-2.6-0.9c-1.1,0-2.1,0.4-3,1.3c-0.9,0.9-1.8,2.3-2.5,4.1v1.7L93.1,17.3L93.1,17.3z"/>
	<path d="M97.5,19c-0.1,0-0.1,0-0.1-0.1v-1.5c0-0.1,0-0.1,0.1-0.1h9.1c-0.5-0.5-1-1.8-1.3-3.9c-0.2-1.2-0.5-2-0.9-2.5
		s-1-0.7-1.8-0.7c-1,0-2,0.3-3.1,0.8l-0.7-1.5c0.6-0.4,1.2-0.7,1.8-0.8c0.6-0.2,1.3-0.2,2-0.2c0.9,0,1.6,0.2,2.2,0.5
		c0.6,0.3,1,0.8,1.4,1.4c0.3,0.6,0.6,1.5,0.8,2.6c0.3,2.2,0.8,3.7,1.5,4.4h1.4c0.1,0,0.1,0,0.1,0.1V19c0,0.1,0,0.1-0.1,0.1H97.5V19z
		 M102.8,6.7c-0.4,0-0.7-0.1-0.9-0.3c-0.2-0.2-0.3-0.5-0.3-0.9s0.1-0.7,0.3-0.9c0.2-0.2,0.5-0.3,0.9-0.3s0.7,0.1,0.9,0.3
		c0.2,0.2,0.3,0.5,0.3,0.9s-0.1,0.7-0.3,0.9C103.5,6.6,103.2,6.7,102.8,6.7z"/>
	<path d="M109.6,19c-0.1,0-0.1,0-0.1-0.1v-1.5c0-0.1,0-0.1,0.1-0.1h2.8V2.9h1.9V19H109.6z"/>
	<path d="M118.5,2.9h1.9V19h-1.9V2.9z"/>
</g>
</svg>
