<?xml version="1.0" encoding="utf-8"?>
<!-- Generator: Adobe Illustrator 22.0.1, SVG Export Plug-In . SVG Version: 6.00 Build 0)  -->
<svg version="1.1" id="Layer_1" xmlns="http://www.w3.org/2000/svg" xmlns:xlink="http://www.w3.org/1999/xlink" x="0px" y="0px"
	 width="111.7px" height="30px" viewBox="0 0 111.7 30" style="enable-background:new 0 0 111.7 30;" xml:space="preserve">
<g>
	<path d="M4.2,26.3c0-0.3,0.1-0.6,0.4-0.9C4.8,25.2,5.1,25,5.5,25s0.6,0.1,0.9,0.4s0.4,0.5,0.4,0.9s-0.1,0.6-0.4,0.9
		s-0.5,0.4-0.9,0.4s-0.6-0.1-0.9-0.4C4.3,27,4.2,26.7,4.2,26.3z M7.8,26.3c0-0.3,0.1-0.6,0.4-0.9C8.5,25.1,8.7,25,9.1,25
		s0.6,0.1,0.9,0.4c0.2,0.2,0.4,0.5,0.4,0.9s-0.1,0.6-0.4,0.9c-0.2,0.2-0.5,0.4-0.9,0.4s-0.6-0.1-0.9-0.4C7.9,26.9,7.8,26.7,7.8,26.3
		z"/>
	<path d="M11.2,24.2H2.6l1.8-3c0.1,0.3,0.4,0.5,0.6,0.6S5.6,22,5.8,22h4.1L11.2,24.2z M10.4,24.2l-4.9-8.6c-0.9-1.5-1.1-2.8-0.7-3.7
		c0.4-1,1.1-1.8,2-2.4c0.4-0.3,0.8-0.6,1-0.9C8,8.3,8.2,7.9,8.2,7.4L15.4,20H13l-5-8.7c-0.5,0.3-0.8,0.7-1,1.4s0,1.3,0.4,2l5.5,9.6
		L10.4,24.2L10.4,24.2z M16.9,19.9h-3.3v-2.1h3.3V19.9z"/>
	<path d="M20.6,7.2c0-0.3,0.1-0.6,0.4-0.9c0.2-0.2,0.5-0.4,0.9-0.4s0.6,0.1,0.9,0.4c0.2,0.2,0.3,0.5,0.3,0.9S23,7.8,22.7,8.1
		c-0.2,0.2-0.5,0.4-0.9,0.4s-0.6-0.1-0.9-0.4C20.7,7.8,20.6,7.5,20.6,7.2z"/>
	<path d="M25,13.6v5.9c0,0.3-0.3,0.4-0.9,0.5h-8v-2.1h6.8v-2.7L25,13.6z M18.7,13.6c0-0.9,0.3-1.6,0.9-2.3c0.6-0.6,1.4-0.9,2.2-0.9
		s1.6,0.3,2.2,0.9c0.6,0.6,0.9,1.4,0.9,2.3c0,0.9-0.3,1.6-0.9,2.3c-0.6,0.6-1.4,0.9-2.2,0.9s-1.6-0.3-2.2-0.9
		C19,15.2,18.7,14.4,18.7,13.6z M20.8,13.6c0,0.3,0.1,0.6,0.3,0.8c0.2,0.2,0.5,0.3,0.8,0.3s0.6-0.1,0.8-0.3c0.2-0.2,0.3-0.5,0.3-0.8
		s-0.1-0.6-0.3-0.8c-0.2-0.2-0.5-0.3-0.8-0.3s-0.6,0.1-0.8,0.3C20.9,13,20.8,13.3,20.8,13.6z"/>
	<path d="M26.1,16.8c0-0.9,0.3-1.6,0.9-2.3s1.4-0.9,2.2-0.9s1.6,0.3,2.2,0.9c0.6,0.6,0.9,1.4,0.9,2.3c0,0.9-0.3,1.6-0.9,2.3
		C30.8,19.7,30,20,29.2,20s-1.6-0.3-2.2-0.9C26.4,18.4,26.1,17.6,26.1,16.8z M32.4,20.8c0,0.9-0.2,1.7-0.7,2.2s-1.1,0.8-1.8,0.9
		c-0.7,0.1-1.4,0.1-2-0.1s-1.2-0.6-1.5-1.1c1.1,0.3,1.9,0.4,2.5,0.2s0.9-0.4,1.1-0.8s0.3-0.8,0.3-1.2v-3.8l2.1-0.5V20.8z M28.2,16.8
		c0,0.3,0.1,0.5,0.3,0.8c0.2,0.2,0.5,0.3,0.8,0.3s0.5-0.1,0.8-0.3c0.2-0.2,0.3-0.5,0.3-0.8s-0.1-0.5-0.3-0.8
		c-0.2-0.2-0.5-0.3-0.8-0.3s-0.6,0.1-0.8,0.3C28.3,16.2,28.2,16.5,28.2,16.8z M32.4,16.8l-3.2-3.2c0.4,0,0.9,0,1.6-0.1
		s1.2-0.4,1.5-0.9L32.4,16.8L32.4,16.8z M34.5,17.8v2.1h-5.3l1.1-2.1H34.5z"/>
	<path d="M41.7,6.7c-0.1-0.5-0.3-1-0.7-1.3c-0.6-0.5-1.3-0.7-2.3-0.5c-0.2,0-0.5,0.1-0.8,0.3c-0.3,0.2-0.5,0.3-0.7,0.5l-0.9-3.2
		c0.2,0.1,0.5,0.1,0.8,0.2s0.6,0,0.9,0c0.8-0.1,1.6-0.2,2.4,0c0.8,0.1,1.5,0.5,2.1,1c0.9,0.8,1.4,1.8,1.5,2.9s-0.1,2.2-0.8,3.2
		l-2.7,3.9h8c1.2,0,2,0.2,2.6,0.6c0.6,0.4,0.9,0.9,1.1,1.6s0.3,1.3,0.3,2h3V20H33.7v-2.1h16.7c0-0.6-0.1-1.1-0.4-1.5
		c-0.2-0.4-0.8-0.6-1.6-0.6H36.1c0.5-0.6,1-1.4,1.6-2.3c0.6-0.9,1.2-1.7,1.8-2.5s1.2-1.8,2-2.9C41.7,7.7,41.8,7.2,41.7,6.7z"/>
	<path d="M59.3,2.9v16.5c0,0.3-0.3,0.4-0.9,0.5h-3.8v-2.1h2.6V3.4L59.3,2.9z"/>
	<path d="M62.5,2.9v15.3c0,0.5,0.3,0.7,0.8,0.7s0.9-0.1,1.2-0.2c-0.1,0.4-0.4,0.7-0.8,1c-0.4,0.2-0.9,0.4-1.4,0.4s-1-0.1-1.3-0.4
		c-0.4-0.3-0.6-0.7-0.6-1.4V3.4L62.5,2.9z"/>
	<path d="M72.2,13.6h12c1.2,0,2,0.2,2.6,0.6c0.6,0.4,0.9,0.9,1.1,1.6c0.2,0.7,0.3,1.3,0.3,2h2.6v2.1h-23l1.3-2.1h17
		c0-0.6-0.1-1.1-0.4-1.5s-0.8-0.6-1.6-0.6h-12L72.2,13.6L72.2,13.6z M71.2,18.9V3.4l2.1-0.5v16H71.2z"/>
	<path d="M92.7,10.4c0-0.3,0.1-0.6,0.4-0.9c0.2-0.2,0.5-0.4,0.9-0.4s0.6,0.1,0.9,0.4c0.2,0.2,0.4,0.5,0.4,0.9s-0.1,0.6-0.4,0.9
		c-0.2,0.2-0.5,0.4-0.9,0.4s-0.6-0.1-0.9-0.4C92.9,11,92.7,10.7,92.7,10.4z"/>
	<path d="M94,17.8c-0.3-0.2-0.6-0.4-0.9-0.8s-0.6-0.7-0.7-1l1.2-2.3c0.8,1.2,1.6,2.1,2.6,2.9c1,0.8,2,1.1,3,1.1h5.2l-1.3,2.1H89.9
		v-2.1L94,17.8L94,17.8z"/>
	<path d="M99.3,13.6c0,1-0.1,1.7-0.4,2.1c-0.3,0.4-0.7,0.7-1.1,0.8s-0.8,0.1-1.2,0.1c-0.4-0.1-0.7-0.1-0.9-0.1
		c0.8-0.1,1.2-0.4,1.3-1c0.1-0.5,0.1-1.2,0.1-1.9V3.4l2.1-0.5L99.3,13.6L99.3,13.6z"/>
	<path d="M107.6,2.9v15.3c0,0.5,0.3,0.7,0.8,0.7s0.9-0.1,1.2-0.2c-0.1,0.4-0.4,0.7-0.8,1c-0.4,0.2-0.9,0.4-1.4,0.4s-1-0.1-1.3-0.4
		c-0.4-0.3-0.6-0.7-0.6-1.4V3.4L107.6,2.9z"/>
</g>
</svg>
