<?xml version="1.0" encoding="utf-8"?>
<!-- Generator: Adobe Illustrator 22.0.1, SVG Export Plug-In . SVG Version: 6.00 Build 0)  -->
<svg version="1.1" id="Layer_1" xmlns="http://www.w3.org/2000/svg" xmlns:xlink="http://www.w3.org/1999/xlink" x="0px" y="0px"
	 width="110.9px" height="30px" viewBox="0 0 110.9 30" style="enable-background:new 0 0 110.9 30;" xml:space="preserve">
<g>
	<path d="M15.6,18.9c0,1.7-0.6,3.1-1.8,4.1c-1.1,0.9-2.4,1.3-4.1,1.3c-1.9,0-3.4-0.7-4.5-2C4.4,21.3,4,20,4,18.6
		c0-1.3,0.3-2.4,1-3.3L6.5,15c-0.7,1.1-1.1,2.3-1.1,3.5c0,1.3,0.4,2.4,1.3,3.2c0.8,0.8,1.8,1.2,3.1,1.2c1.4,0,2.5-0.4,3.3-1.3
		c0.7-0.7,1-1.6,1-2.8V6.4l1.5-0.8C15.6,5.6,15.6,18.9,15.6,18.9z"/>
	<path d="M19.6,20.1V6.4l1.5-0.8V20h-1.5V20.1z"/>
	<path d="M35,18.7v1.4h-2.4c0,1-0.3,1.9-1,2.6c-0.6,0.8-1.4,1.2-2.4,1.5c-0.4,0.1-0.7,0.2-1.2,0.2c-0.9,0-1.7-0.2-2.5-0.6v-1.3
		c0.8,0.4,1.5,0.6,2.3,0.6c0.6,0,1.2-0.1,1.6-0.4c0.5-0.2,0.9-0.6,1.2-1.1s0.5-1,0.5-1.4L29.2,20c-1.7-0.1-2.9-0.6-3.7-1.6
		c-0.7-0.8-1-1.9-1-3.3c0-1.6,0.4-2.9,1.3-3.7c0.7-0.8,1.7-1.2,3-1.2s2.3,0.4,3,1.2c0.6,0.7,0.9,1.6,0.9,2.7v4.6
		C32.7,18.7,35,18.7,35,18.7z M31.1,14.2c0-1.8-0.8-2.6-2.4-2.6c-0.9,0-1.6,0.3-2,0.9C26.2,13.1,26,14,26,15.1
		c0,2.2,1.1,3.4,3.3,3.5c0.7,0,1.3,0.1,1.9,0.1v-4.5H31.1z"/>
	<path d="M48.7,18.7h0.8v1.4h-0.8c-1.2,0-2.2-0.1-3-0.4c-0.7-0.3-1.4-0.8-2-1.5c-1.9,1.3-4.1,1.9-6.6,1.9h-2.5v-1.4h2.5
		c3.3,0,5.8-1.1,7.6-3.3c-1.3-2.5-2.9-3.8-4.8-3.8c-1.3,0-2.5,0.6-3.8,1.9V12c1.2-1.2,2.5-1.8,3.8-1.8l0,0c2.3,0,4.4,1.6,6.1,4.7
		v0.9c-0.5,0.6-1,1.1-1.5,1.5c0.5,0.5,1,0.8,1.6,1C46.8,18.6,47.6,18.7,48.7,18.7z M40.4,22.4c0.6,0,0.9,0.3,0.9,0.9
		s-0.3,0.9-0.9,0.9s-0.9-0.3-0.9-0.9C39.5,22.7,39.8,22.4,40.4,22.4z"/>
	<path d="M56.2,18.7H57v1.4h-1c-1.3,0-2.4-0.5-3-1.4c-0.7,0.9-1.7,1.4-3,1.4h-1v-1.4h0.8c1.6,0,2.5-0.9,2.5-2.6v-4.9l1.5-0.8V16
		C53.7,17.9,54.6,18.7,56.2,18.7z M51.3,7.6c-0.6,0-0.9-0.3-0.9-0.9s0.3-0.9,0.9-0.9s0.9,0.3,0.9,0.9S51.9,7.6,51.3,7.6z M53.8,7.6
		c-0.6,0-0.9-0.3-0.9-0.9s0.3-0.9,0.9-0.9s0.9,0.3,0.9,0.9S54.4,7.6,53.8,7.6z"/>
	<path d="M56.5,20.1v-1.4h0.6c1.7,0,2.6-0.9,2.6-2.6V6.4l1.5-0.8V16c0,1.3-0.4,2.3-1.1,3c-0.7,0.7-1.6,1-2.8,1h-0.8V20.1z"/>
	<path d="M65.3,20.1V6.4l1.5-0.8V20h-1.5V20.1z"/>
	<path d="M95.1,18.7v1.4h-1c-1.3,0-2.2-0.4-2.9-1.2c-0.5,0.8-1.4,1.2-2.6,1.2h-14l0.7-1.4h3V6.4l1.4-0.8V15c1.7-3.2,4.1-4.8,6.9-4.8
		c1.7,0,3,0.6,4,1.7c0.8,1,1.3,2.2,1.3,3.7v0.6c0,1.7,0.8,2.5,2.5,2.5C94.4,18.7,95.1,18.7,95.1,18.7z M90.4,15.6
		c0-1.3-0.4-2.3-1.2-3c-0.7-0.7-1.5-1-2.5-1c-1.7,0-3.3,0.8-4.7,2.5c-1,1.3-1.8,2.8-2.3,4.6h8.8c0.7,0,1.2-0.2,1.5-0.5
		s0.4-1,0.4-1.8V15.6z"/>
	<path d="M94.7,20.1v-1.4h2.5c3.3,0,5.8-1.1,7.6-3.3c-1.3-2.5-2.9-3.8-4.8-3.8c-1.3,0-2.5,0.6-3.8,1.9V12c1.2-1.2,2.5-1.8,3.8-1.8
		l0,0c2.3,0,4.4,1.6,6.1,4.7v0.9c-2.2,2.8-5.2,4.2-9,4.2h-2.4V20.1z M100.9,7.6c-0.6,0-0.9-0.3-0.9-0.9s0.3-0.9,0.9-0.9
		c0.6,0,0.9,0.3,0.9,0.9C101.8,7.2,101.5,7.6,100.9,7.6z"/>
</g>
</svg>
