<?xml version="1.0" encoding="utf-8"?>
<!-- Generator: Adobe Illustrator 19.2.0, SVG Export Plug-In . SVG Version: 6.00 Build 0)  -->
<svg version="1.1" id="Layer_1" xmlns="http://www.w3.org/2000/svg" xmlns:xlink="http://www.w3.org/1999/xlink" x="0px" y="0px"
	 width="650px" height="557px" viewBox="0 0 650 557" style="enable-background:new 0 0 650 557;" xml:space="preserve">
<style type="text/css">
	.st0{fill:#B2B2B2;fill-opacity:0.15;}
</style>
<g>
	<path class="st0" d="M338.2,38.9c-2.1,0-4.4-0.1-6.5-0.4c-4.8-0.6-9.5-1.8-14-3.5c-14.9-5.5-28.1-16-41.6-26.2
		c-3.5-2.6-6.8-5.2-10.3-7.7h-1.2c3.7,2.6,7.4,5.4,11.1,8.2c13.4,10.3,26.7,20.9,41.6,26.4c4.6,1.7,9.3,2.9,14.2,3.5
		c2.2,0.3,4.4,0.4,6.6,0.4c24.1,0,47.1-15.3,63.1-33.5c1.5-1.6,2.8-3.2,4.1-4.9h-0.9c-1.2,1.5-2.5,3-3.8,4.5
		C384.8,23.7,362,39,338.2,38.9z"/>
	<path class="st0" d="M275.5,22.5C289,31,301.6,39,316.1,42.8c4.4,1.2,8.9,1.9,13.7,2.1c1,0.1,2,0.1,3,0.1
		c24.7,0,49.5-14.7,66.6-31.4c4.1-3.9,7.8-8.1,11.4-12.3h-0.9c-3.5,4.1-7,8-11,11.8c-17.1,16.6-41.7,31.3-66.2,31.3
		c-1,0-1.9,0-2.9-0.1c-4.7-0.2-9.2-1-13.5-2.1c-14.4-3.7-26.9-11.7-40.4-20.1c-12-7.6-24.3-15.8-37.6-19.5c-1.7-0.6-3.4-1-5.1-1.3
		h-4.9c3.3,0.3,6.6,1,9.8,1.9C251.2,6.7,263.5,14.9,275.5,22.5z"/>
	<path class="st0" d="M601.8,59.7c-7.8-18.2-12.4-38.8-17.1-58.5h-0.7c4.7,19.7,9.3,40.4,17.1,58.8c6.9,16,16.4,29.8,30.6,39.8
		c5.5,3.9,11.7,7.2,17.8,10.4v-0.8c-6-3.2-12-6.4-17.4-10.2C618.1,89.3,608.7,75.7,601.8,59.7z"/>
	<path class="st0" d="M572.1,97.5c6.8,15.8,16.7,27.2,30.2,35.8c9.3,5.9,19.7,10.4,28.4,17.4c7.3,5.8,13.7,11.8,17.3,20.2
		c0.7,1.6,1.2,3.2,1.7,4.9v-2.4c-0.3-0.9-0.6-1.9-1-2.8c-3.7-8.6-10.2-14.7-17.5-20.5c-8.8-7-19.3-11.6-28.5-17.5
		c-13.4-8.5-23.2-19.8-30-35.5c-8.3-19.3-12.2-41.2-16.2-61.7c-2.2-11.4-5.5-23.2-9.7-34.3H546c4.3,11.1,7.5,22.9,9.8,34.4
		C559.9,56.2,563.7,78.1,572.1,97.5z"/>
	<path class="st0" d="M577.9,90c6.8,15.9,16.6,27.8,30.3,36.6c9.3,6.1,20,10.7,28.9,17.5c4.7,3.5,9,7.2,12.5,11.5v-1
		c-3.5-4.1-7.7-7.6-12.1-11c-9-6.8-19.7-11.5-28.9-17.5c-13.5-8.8-23.3-20.6-30-36.3c-8.4-19.5-12.4-41.6-16.7-62.4
		c-1.8-8.6-4.2-17.5-7.2-26.1h-0.8c3,8.6,5.4,17.5,7.2,26.2C565.5,48.2,569.4,70.3,577.9,90z"/>
	<path class="st0" d="M604.2,45.6c7.1,18.9,17.1,35.8,33.4,47.5c3.7,2.7,7.8,5,11.9,7.3v-0.8c-4-2.2-7.9-4.5-11.5-7.1
		C621.9,81,612,64.1,604.9,45.4c-5.3-14.1-9.1-29.3-12.7-44.1h-0.7C595.1,16.1,598.9,31.4,604.2,45.6z"/>
	<path class="st0" d="M316.6,40.4c4.4,1.3,9,2.2,13.8,2.6c1.5,0.1,2.8,0.1,4.3,0.1c24.5,0,48.6-14.9,65.3-32.1
		c3.1-3.2,6-6.5,8.8-9.8h-0.9c-2.7,3.2-5.5,6.4-8.4,9.4c-16.6,17.1-40.6,31.9-64.8,31.9c-1.4,0-2.8-0.1-4.2-0.1
		c-4.8-0.3-9.3-1.2-13.7-2.6c-14.6-4.3-27.3-13.1-40.8-22.2c-8.7-6.1-17.6-12.2-26.9-16.5h-1.7c9.7,4.4,19.1,10.7,28.2,16.9
		C289.1,27.2,301.9,36.1,316.6,40.4z"/>
	<path class="st0" d="M290.1,16.4c13,10,26.5,18.7,42.1,20.9c2.6,0.3,5.1,0.6,7.6,0.6c24,0,46.4-15.5,62-34.3c0.7-0.8,1.3-1.7,2-2.5
		h-0.9c-0.6,0.7-1.1,1.4-1.7,2c-15.5,18.6-37.8,34-61.5,34c-2.5,0-5-0.1-7.5-0.6c-20.5-2.9-37.6-17.3-54.6-31
		c-1.9-1.5-3.7-3-5.6-4.4H271C277.3,6.2,283.7,11.4,290.1,16.4z"/>
	<path class="st0" d="M66.8,201.3c-1.7,0.1-3.5,0.1-5.2,0.1c-0.6,0-1.2,0-1.8,0c-21.8-0.5-42.8-9-59.4-21.2v0.8
		C17,193.3,38,201.7,59.8,202.2c0.6,0,1.2,0,1.8,0c1.7,0,3.5-0.1,5.2-0.1c14.3-0.9,28.4-5.2,40.7-12.5
		c-12.9,8.3-28.1,13.3-43.5,14.2c-1.5,0.1-3,0.1-4.5,0.1c-0.8,0-1.7,0-2.4-0.1c-20.8-0.6-40.8-8.8-56.6-20.4v0.8
		c15.8,11.6,35.8,19.6,56.5,20.2c0.8,0,1.7,0.1,2.5,0.1c1.5,0,3-0.1,4.6-0.1c14.5-0.8,28.9-5.2,41.2-12.6
		c-13.1,8.4-28.5,13.5-44.1,14.2c-1.3,0.1-2.6,0.1-3.9,0.1c-1,0-2.1,0-3-0.1c-19.8-0.8-38.7-8.5-53.7-19.5v0.8
		c15,11,34,18.6,53.7,19.3c1,0.1,2.1,0.1,3.1,0.1c1.3,0,2.6,0,3.9-0.1c14.8-0.8,29.3-5.2,41.9-12.8c-13.3,8.6-28.9,13.7-44.8,14.4
		c-1.1,0.1-2.1,0.1-3.2,0.1c-1.2,0-2.4,0-3.7-0.1c-18.6-0.9-36.7-8.1-50.9-18.6v0.8c14.3,10.4,32.2,17.5,50.9,18.4
		c1.2,0.1,2.4,0.1,3.7,0.1c1.1,0,2.2,0,3.3-0.1c14.9-0.6,29.6-5.1,42.3-12.7c-13.4,8.7-29.1,13.8-45.2,14.4c-0.9,0-1.8,0.1-2.7,0.1
		c-1.4,0-2.8-0.1-4.2-0.1c-17.6-1-34.5-7.7-48.1-17.5v0.8c13.5,9.7,30.5,16.4,48.1,17.3c1.4,0.1,2.8,0.1,4.3,0.1
		c0.9,0,1.8,0,2.7-0.1c15.1-0.6,29.9-5,42.7-12.7c-13.5,8.8-29.4,13.9-45.6,14.4c-0.7,0-1.4,0-2.1,0c-1.6,0-3.2-0.1-4.8-0.1
		c-16.5-1.1-32.5-7.4-45.2-16.4v0.8c12.8,9,28.7,15.2,45.2,16.3c1.6,0.1,3.2,0.1,4.8,0.1c0.7,0,1.4,0,2.1,0
		c15.4-0.4,30.5-5.1,43.6-13c-13.7,9-30,14.3-46.5,14.6c-0.5,0-1,0-1.5,0c-1.8,0-3.5-0.1-5.3-0.2c-15.5-1.1-30.3-6.9-42.4-15.3v0.8
		c12.2,8.3,27,14,42.4,15.1c1.8,0.1,3.5,0.2,5.3,0.2c0.6,0,1,0,1.6,0c15.5-0.3,30.9-5,44.1-13.1c-13.9,9-30.2,14.4-47,14.6
		c-0.3,0-0.7,0-1,0c-1.9,0-3.9-0.1-5.8-0.2c-14.4-1.2-28.2-6.5-39.6-14.2v0.8c11.5,7.6,25.2,12.8,39.6,14c1.9,0.1,3.9,0.2,5.9,0.2
		c0.3,0,0.7,0,1,0c15.7-0.2,31.2-5,44.6-13.1c-14,9.2-30.6,14.6-47.4,14.7c-0.1,0-0.3,0-0.5,0c-2.1,0-4.2-0.1-6.3-0.3
		c-13.3-1.2-26-6-36.8-13v0.8c10.8,6.9,23.5,11.6,36.7,12.8c2.1,0.2,4.2,0.3,6.4,0.3c0.1,0,0.3,0,0.6,0c16.1-0.1,31.8-5,45.5-13.3
		c-14.3,9.4-31.1,15-48.3,15l0,0c-2.3,0-4.5-0.1-6.8-0.3c-12.2-1.2-23.9-5.5-34-11.8v0.8c10.1,6.2,21.8,10.4,33.9,11.7
		c2.3,0.2,4.6,0.3,6.8,0.3l0,0c16.3,0,32.3-4.9,46.1-13.4c-14.3,9.4-31.1,15-48.3,15c-0.2,0-0.3,0-0.6,0c-2.3,0-4.5-0.1-6.8-0.4
		c-11.6-0.8-22.3-4.7-31.6-10.2v0.8c9.3,5.5,20,9.3,31.1,10.5c2.3,0.3,4.6,0.3,6.8,0.4c0.2,0,0.3,0,0.6,0c16.3,0,32.3-5,46.2-13.5
		C70.7,221.3,53.8,227,36.6,227c-0.3,0-0.8,0-1.1,0c-2.3,0-4.5-0.2-6.7-0.4c-10-1.2-19.8-4.6-28.3-9.4v0.8
		c8.6,4.8,18.2,8.1,28.2,9.3c2.3,0.3,4.6,0.4,6.8,0.4c0.3,0,0.8,0,1.1,0c16.5,0,32.7-5.1,46.6-13.8c-14.5,9.6-31.5,15.5-48.9,15.5
		c-0.6,0-1.1,0-1.7,0c-2.3-0.1-4.5-0.2-6.7-0.5c-9-1.1-17.7-4.1-25.5-8.3v0.8c7.8,4.1,16.5,7,25.4,8.2c2.3,0.3,4.5,0.5,6.8,0.5
		c0.6,0,1.1,0,1.7,0c16.5,0,32.7-5.2,46.7-14c-14.5,9.7-31.6,15.5-49,15.5c-0.8,0-1.5,0-2.2,0c-2.2-0.1-4.5-0.3-6.7-0.6
		c-7.9-1.1-15.6-3.6-22.7-7.2v0.8c7,3.5,14.7,6,22.6,7c2.2,0.3,4.5,0.5,6.8,0.6c0.8,0,1.5,0,2.2,0c16.7,0,33.1-5.4,47.2-14.3
		c-14.7,9.9-32,16-49.6,16c-0.9,0-1.8,0-2.8-0.1c-2.2-0.1-4.5-0.3-6.7-0.6c-6.9-1-13.6-3.1-19.8-6.1v0.8c6.2,2.9,12.9,5,19.8,6
		c2.2,0.3,4.5,0.6,6.8,0.6c0.9,0,1.9,0.1,2.8,0.1c16.9,0,33.2-5.5,47.4-14.4c-14.8,9.9-32,16.1-49.8,16.1c-1.1,0-2.1,0-3.2-0.1
		c-2.2-0.1-4.4-0.3-6.6-0.6c-5.9-0.9-11.6-2.6-17.1-5v0.8c5.4,2.3,11.1,4.1,16.9,5c2.2,0.3,4.5,0.6,6.7,0.7c1.1,0.1,2.2,0.1,3.3,0.1
		c17,0,33.6-5.7,48-14.8C60.5,232.4,43,238.7,25,238.7c-1.2,0-2.6,0-3.8-0.1c-2.2-0.1-4.4-0.3-6.6-0.7c-4.9-0.8-9.7-2.1-14.2-4v0.8
		c4.6,1.8,9.3,3.2,14.1,3.9c2.2,0.3,4.5,0.6,6.7,0.7c1.2,0.1,2.6,0.1,3.8,0.1c17.2,0,34-5.8,48.5-15.1
		c-15.1,10.2-32.7,16.8-50.8,16.8c-1.5,0-2.9-0.1-4.3-0.1c-2.2-0.1-4.4-0.4-6.6-0.8c-3.9-0.7-7.7-1.7-11.4-3.1v0.8
		c3.7,1.3,7.5,2.3,11.3,3c2.2,0.4,4.4,0.6,6.7,0.8c1.5,0.1,2.9,0.1,4.4,0.1c17.5,0,34.5-6,49.2-15.6c-15.3,10.5-33.2,17.3-51.6,17.3
		c-1.6,0-3.2-0.1-4.8-0.1c-2.2-0.1-4.4-0.4-6.6-0.8c-2.9-0.6-5.7-1.3-8.6-2.2v0.8c2.8,0.9,5.6,1.7,8.4,2.1c2.2,0.4,4.4,0.7,6.6,0.8
		c1.7,0.1,3.2,0.1,4.8,0.1c17.7,0,34.9-6.2,49.9-16c-15.3,10.6-33.4,17.5-52,17.5c-1.8,0-3.5-0.1-5.3-0.2c-2.2-0.1-4.4-0.5-6.6-0.9
		c-1.9-0.3-3.9-0.8-5.7-1.4v0.7c1.9,0.6,3.7,1,5.6,1.4c2.2,0.4,4.4,0.7,6.6,0.9c1.8,0.1,3.6,0.2,5.4,0.2c18.1,0,35.6-6.6,50.9-16.6
		c-15.8,11-34.3,18.3-53.2,18.3c-1.9,0-3.9-0.1-5.8-0.2c-2.2-0.2-4.4-0.5-6.6-0.9c-1-0.2-1.9-0.4-2.9-0.7v0.7
		c0.9,0.2,1.9,0.4,2.8,0.6c2.2,0.4,4.4,0.8,6.6,0.9c1.9,0.1,3.9,0.2,5.9,0.2c18.5,0,36.5-6.9,52.1-17.3
		c-16.2,11.3-35,19.1-54.4,19.1c-2.1,0-4.2-0.1-6.4-0.3c-2.2-0.2-4.4-0.6-6.5-1H0.5v0.7c2.1,0.5,4.4,0.8,6.6,1
		c2.1,0.2,4.3,0.3,6.4,0.3c19.1,0,37.5-7.3,53.5-18.2c-16.6,11.7-35.9,20-55.9,20c-2.3,0-4.6-0.1-6.8-0.3c-1.2-0.1-2.5-0.3-3.8-0.5
		v0.7c1.2,0.2,2.5,0.3,3.7,0.5c2.3,0.2,4.6,0.3,6.9,0.3c19.8,0,39-8,55.5-19.5c-17.2,12.4-37.2,21.2-57.9,21.2
		c-2.4,0-4.8-0.1-7.3-0.3c-0.3,0-0.6-0.1-0.9-0.1v0.7c0.3,0,0.6,0.1,0.8,0.1c2.5,0.3,4.9,0.3,7.4,0.3c20.6,0,40.5-8.7,57.7-20.9
		c-0.3,0.3-0.7,0.5-1,0.8c-17.6,12.7-38,22-59,22c-1.9,0-3.9-0.1-5.9-0.3v0.7c1.9,0.1,3.9,0.2,5.9,0.2c21.3,0,41.8-9.3,59.4-22
		c1.5-1,2.9-2.1,4.3-3.2c-19.2,15-42.2,26.9-66,26.9c-1.2,0-2.3-0.1-3.5-0.1v0.7c1.2,0.1,2.3,0.1,3.5,0.1c25.6,0,50.2-13.5,70.2-30
		c22.2-18.2,41-40.4,64.6-56.7c27.1-18.7,59.9-29,92.8-29c0.6,0,1.2,0,1.9,0c5,0.1,10,0.3,15.1,0.3c8.7,0,17.3-0.8,25-4.8
		c7-3.7,12.2-9.5,16.9-15.8c4.7-6.4,8.8-13.3,13.7-19.4c14.4-17.7,37.2-27.9,59.9-27.9c6.4,0,12.8,0.8,19,2.5
		c28.2,7.7,50.8,32.9,55.2,61.8c0.7,4.4,1,8.6,1,13.1c0,17.1-4.6,34.4-9.1,51.5c-4.6,17.2-9.1,34.3-9.2,50.8c0,9.5,1.5,18.9,5.4,28
		c2.8,6.5,6.7,10,11,12c6.6,3,14.1,2.8,20.3,4.3c3.1,0.8,5.9,2,8.1,4.3c2.2,2.3,3.8,5.6,4.6,10.7c0.6,4.2,1,8.1,1,11.8
		c0,9.7-2.1,17.7-5.1,26.1s-7,17-10.7,27.8c-1.5,4.4-2.3,8.5-2.3,12.3c0,9.2,4.1,16.4,10.4,22.1c9.3,8.5,23.2,13.5,34.7,16.5
		c11.5,2.9,20.8,3.7,20.8,3.7s1,0.1,2.8,0.3c12.5,1.2,64.2,6.2,91.6,11.4c12.6,2.3,24.7,6.6,36.1,12.3v-0.8
		c-11.4-5.7-23.5-9.9-36-12.2c-31.3-5.9-94.4-11.6-94.4-11.6s-0.3,0-0.8-0.1c-3.6-0.4-19.8-2.3-35.1-8.5c-7.7-3-15.1-7.2-20.5-12.6
		c-5.5-5.4-9-12.2-9-20.5c0-3.7,0.7-7.7,2.2-12.1c3.7-10.8,7.7-19.3,10.7-27.8c3-8.4,5.1-16.6,5.1-26.4c0-3.7-0.3-7.7-1-11.9
		c-1-6.9-3.7-10.8-7.3-13.1c-2.7-1.7-5.8-2.5-9.1-3c-5-0.8-10.4-1.1-15.3-2.9c-4.9-1.9-9.3-5.2-12.3-12.3c-3.9-9-5.3-18.3-5.3-27.7
		c0-16.4,4.6-33.5,9.1-50.6c4.6-17.2,9.1-34.5,9.2-51.7c0-4.4-0.3-8.8-1-13.1c-4.5-29.1-27.3-54.6-55.8-62.4
		c-6.2-1.7-12.7-2.5-19.1-2.5c-22.9,0-45.9,10.3-60.5,28.2c-5,6.1-9.1,13.1-13.7,19.4c-4.6,6.4-9.7,12-16.6,15.6
		c-7.5,3.9-16,4.7-24.7,4.7c-5,0-10.1-0.3-15.1-0.3c-0.6,0-1.2,0-1.9,0c-33.1,0-66,10.3-93.2,29.1c-19.8,13.7-36.3,31.6-54.2,47.8
		c16.4-15.1,31.1-31.8,48.2-45.7c2.4-1.9,4.8-3.8,7.3-5.7c21.6-15.8,47.3-26.1,74.2-29.1c5.5-0.6,11-0.9,16.6-0.9
		c1.1,0,2.2,0,3.2,0.1c5.7,0.1,11.6,0.6,17.4,0.6c7.9,0,15.6-0.8,22.6-4.1c7-3.4,12.2-8.8,17-14.8c4.8-6,9-12.6,14-18.4
		c2.9-3.3,6.1-6.4,9.7-9.3c14.6-11.7,33.7-18.2,52.4-18.2c5.7,0,11.4,0.6,16.9,1.9c17.3,4,32.4,14,42.8,27.6
		c6.6,8.6,11.3,18.4,13.4,29c1.2,5.7,1.7,11.5,1.7,17.3c0,0.6,0,1.1,0,1.7c-0.3,25.3-10.2,52.3-13.7,78.5c-0.8,5.5-1.2,11-1.2,16.5
		c0,10,1.5,20,5.7,29.6c3.2,7.4,7.8,11.1,13,13.1c5.1,2,10.7,2.4,15.7,3.5c3.7,0.8,7.2,1.8,9.9,4.1c2.8,2.3,4.8,5.8,5.9,11.5
		c1,5.1,1.4,9.8,1.4,14.2c0,2-0.1,3.9-0.3,5.8c-1.5,15.4-8.7,28-15.5,46.3c-1.8,4.9-2.6,9.4-2.6,13.5c0,6.1,1.8,11.3,4.8,15.8
		s7.2,8.2,12,11.3c9,5.9,20.1,9.5,28.9,11.9c4.4,1.2,8.2,1.9,11,2.6c1.4,0.3,2.5,0.5,3.2,0.7c0.3,0.1,0.6,0.1,0.8,0.2
		c0.1,0,0.1,0.1,0.1,0.1l0,0c0.1,0.1,0.1,0.1,0.2,0.1c0.1,0.1,0.2,0.1,0.3,0.1c0.6,0.1,1.6,0.3,3,0.6c10.4,1.7,42.7,5.4,69.3,9.3
		c7.5,1.1,14.5,2.2,20.4,3.3c12.4,2.3,24.4,6.3,35.7,11.9v-0.8c-11.3-5.6-23.3-9.5-35.6-11.8c-5.9-1.1-13-2.2-20.5-3.3
		c-16-2.3-34.2-4.6-48.3-6.4c-7-0.9-13.1-1.7-17.5-2.3c-2.1-0.3-3.9-0.6-5-0.8c-0.6-0.1-1-0.2-1.3-0.3c-0.1,0-0.2-0.1-0.3-0.1v-0.1
		c-0.1-0.1-0.1-0.1-0.3-0.1c-0.2-0.1-0.4-0.1-0.7-0.2c-1.2-0.3-3.5-0.8-6.4-1.4c-9-1.9-24.7-5.9-36.7-13.7c-4.7-3-8.8-6.7-11.8-11.1
		c-3-4.4-4.7-9.5-4.7-15.4c0-4,0.8-8.4,2.6-13.3c6.8-18.2,14-30.9,15.5-46.5c0.2-1.9,0.3-3.9,0.3-5.9c0-4.4-0.5-9.1-1.4-14.3
		c-1.1-5.8-3.2-9.5-6.1-11.9c-2.9-2.4-6.4-3.5-10.2-4.2c-5.1-1-10.6-1.5-15.6-3.4c-5-2-9.5-5.5-12.6-12.7
		c-4.1-9.5-5.6-19.3-5.6-29.3c0-5.4,0.5-10.9,1.2-16.4c3.5-26,13.3-53,13.7-78.5c0-0.6,0-1.1,0-1.7c0-5.9-0.5-11.7-1.7-17.5
		c-2.2-10.7-7-20.6-13.5-29.3c-10.5-13.7-25.8-23.8-43.2-27.9c-5.6-1.3-11.3-1.9-17.1-1.9c-18.9,0-38.1,6.6-52.9,18.4
		c-3.5,2.8-6.8,5.9-9.7,9.3c-5,5.8-9.3,12.4-14,18.4c-4.7,6-9.9,11.3-16.8,14.6c-6.8,3.2-14.4,4.1-22.3,4.1
		c-5.7,0-11.6-0.4-17.4-0.6c-1.1,0-2.2-0.1-3.3-0.1c-5.5,0-11.1,0.3-16.6,1c-26.9,3-52.8,13.4-74.4,29.3c-2.5,1.8-5,3.7-7.3,5.7
		c-14.4,11.7-27,25.3-40.4,38.3c14.1-14,27.1-29.1,41.9-41.9c2.3-2,4.7-3.9,7.1-5.8c21.1-16.3,46.5-27.3,73.3-30.3
		c5.1-0.6,10.3-0.9,15.4-0.9c1.5,0,3,0,4.5,0.1c6.4,0.2,13.1,0.8,19.5,0.8c7.1,0,14-0.7,20.4-3.5c7-3.1,12.3-8.1,17.1-13.8
		c4.8-5.7,9.2-11.9,14.2-17.3c3-3.2,6.3-6.1,9.8-8.8c15.4-11.6,35.4-18.3,54.8-18.3c5,0,9.9,0.4,14.6,1.3
		c17.3,3.2,32.3,12.1,42.9,24.5c6.7,7.8,11.7,17,14.3,27c1.5,5.9,2.3,11.9,2.6,18.2c0.1,1.3,0.1,2.6,0.1,3.9
		c0,23.6-8,49.7-10.9,74.8c-0.6,5.2-1,10.4-1,15.5c0,10.6,1.6,21.1,5.9,31.2c3.2,7.5,7.8,11.3,12.9,13.4c5.1,2.2,10.7,2.8,15.8,3.9
		c3.8,0.8,7.3,2,10.2,4.3c2.8,2.3,5,5.8,6.3,11.4c1.3,5.9,1.9,11.2,1.9,16.3c0,1.2-0.1,2.5-0.1,3.7c-1,15.6-8.5,28.7-15.7,46.9
		c-2.1,5.5-3.1,10.4-3.1,14.8c0,11.4,6.3,19.7,14.7,25.7c8.4,6,18.8,9.9,27.1,12.4c4.1,1.3,7.7,2.2,10.4,3c1.3,0.3,2.3,0.7,3,1
		c0.3,0.1,0.6,0.3,0.8,0.3c0.1,0.1,0.1,0.1,0.1,0.1c0,0.1,0.1,0.1,0.1,0.2c0.1,0.1,0.2,0.2,0.3,0.3c0.3,0.1,0.6,0.3,1.1,0.4
		c1.8,0.6,5.3,1.2,10,2c14.1,2.3,39,5.7,60.2,9c7.5,1.1,14.5,2.2,20.4,3.3c12.3,2.2,24.2,6,35.3,11.5v-0.8c-11-5.5-23-9.3-35.2-11.5
		c-5.9-1.1-13-2.1-20.4-3.3c-15.9-2.4-33.7-4.9-47.6-7c-7-1-12.9-2-17.1-2.8c-2.1-0.4-3.8-0.8-4.9-1c-0.6-0.1-1-0.3-1.2-0.4
		c-0.1-0.1-0.2-0.1-0.3-0.1c0-0.1-0.1-0.2-0.1-0.3c-0.1-0.2-0.3-0.3-0.6-0.4c-1-0.5-3.1-1-5.9-1.8c-8.5-2.3-23.5-6.6-34.8-14.6
		c-8.4-5.9-14.4-14-14.4-25.1c0-4.4,1-9.2,3-14.6c7.2-18.2,14.6-31.3,15.7-47.1c0.1-1.2,0.1-2.5,0.1-3.7c0-5.1-0.6-10.4-1.9-16.4
		c-1.2-5.7-3.5-9.4-6.5-11.8c-3-2.4-6.6-3.6-10.4-4.4c-5.2-1.2-10.7-1.7-15.7-3.9c-5-2.1-9.5-5.8-12.6-13.1
		c-4.3-10-5.9-20.4-5.9-30.9c0-5.1,0.3-10.2,1-15.4c2.9-25.1,10.9-51.2,10.9-74.9c0-1.3,0-2.6-0.1-3.9c-0.3-6.3-1-12.4-2.6-18.3
		c-2.6-10.2-7.7-19.4-14.4-27.3c-10.7-12.6-25.8-21.4-43.3-24.7c-4.8-0.9-9.8-1.4-14.8-1.4c-19.5,0-39.6,6.7-55.2,18.4
		c-3.6,2.7-6.9,5.7-9.9,8.8c-5.1,5.5-9.5,11.7-14.3,17.4c-4.8,5.6-10,10.6-16.9,13.6c-6.2,2.7-13.1,3.5-20.1,3.5
		c-6.4,0-13.1-0.6-19.5-0.8c-1.5-0.1-3-0.1-4.5-0.1c-5.2,0-10.3,0.3-15.5,0.9c-27.1,3-52.6,14.1-73.7,30.5c-2.4,1.9-4.8,3.8-7.1,5.8
		c-12.4,10.6-23.3,22.7-34.7,34.5c12.1-12.9,23.4-26.4,36.3-38.1c2.3-2,4.6-4,6.9-5.9c20.5-16.7,45.6-28.4,72.6-31.5
		c4.8-0.6,9.6-0.8,14.4-0.8c1.9,0,3.7,0.1,5.5,0.1c7.1,0.3,14.4,1.1,21.5,1.1c6.4,0,12.5-0.6,18.2-2.9c7-2.8,12.4-7.5,17.3-12.8
		c4.9-5.2,9.3-11.1,14.5-16.3c3-3,6.4-5.8,9.9-8.4C331.9,78.9,353,72.1,373,72.1c4.1,0,8.1,0.3,12.1,0.9c17.3,2.6,32.2,10.1,43,21.4
		c6.8,7.1,12.1,15.5,15.1,25c1.8,5.5,2.9,11.3,3.5,17.4c0.3,3,0.4,6.2,0.4,9.4c0,21.7-6.1,46.1-8.4,69.5c-0.5,4.8-0.8,9.5-0.8,14.3
		c0,11.3,1.7,22.3,6.2,33c3.2,7.5,7.8,11.4,12.9,13.7c5.1,2.3,10.7,3.2,15.9,4.4c3.8,0.9,7.4,2.1,10.3,4.4c2.9,2.3,5.2,5.8,6.6,11.3
		c1.7,6.6,2.5,12.4,2.5,18c0,0.7,0,1.3-0.1,2c-0.6,15.8-8.3,29.4-15.9,47.4c-2.6,6-3.7,11.5-3.7,16.2c0,10.5,5.3,18.3,12.7,24.2
		c7.7,6.1,17.4,10.2,25.2,12.9c3.9,1.4,7.3,2.5,9.7,3.4c1.2,0.4,2.2,0.8,2.8,1.2c0.3,0.1,0.6,0.3,0.7,0.5c0.1,0.1,0.1,0.1,0.1,0.1
		v0.1l0,0l0,0v0.1c0,0.2,0.1,0.3,0.2,0.5c0.2,0.2,0.6,0.4,1,0.6c1.6,0.7,4.9,1.5,9.5,2.5c13.7,2.8,38.5,6.6,59.9,9.9
		c7.4,1.2,14.4,2.3,20.4,3.3c12.2,2.1,24,5.7,34.9,11.2v-0.8c-10.9-5.4-22.7-8.9-34.7-11c-6-1-13.1-2.1-20.4-3.3
		c-15.7-2.4-33.2-5.1-46.9-7.5c-6.8-1.2-12.6-2.3-16.7-3.2c-2.1-0.5-3.7-0.9-4.8-1.3c-0.6-0.2-1-0.3-1.2-0.6
		c-0.1-0.1-0.2-0.1-0.3-0.2l0,0l0,0c0-0.1-0.1-0.3-0.1-0.4c-0.1-0.2-0.3-0.4-0.6-0.6c-0.5-0.3-1.2-0.7-2.2-1
		c-3.3-1.3-9.3-3.1-16-5.7c-6.6-2.6-14-6.1-20-11c-7.3-5.8-12.4-13.3-12.4-23.6c0-4.7,1.1-10,3.6-16c7.6-18,15.3-31.6,16-47.7
		c0-0.7,0.1-1.4,0.1-2c0-5.7-0.9-11.6-2.6-18.2c-1.4-5.7-3.8-9.3-6.8-11.7c-3-2.4-6.7-3.7-10.6-4.6c-5.2-1.2-10.8-2.1-15.8-4.4
		c-5-2.3-9.5-6.1-12.6-13.4c-4.5-10.6-6.1-21.6-6.1-32.7c0-4.7,0.3-9.5,0.8-14.2c2.3-23.4,8.4-47.8,8.4-69.6c0-3.2-0.1-6.4-0.4-9.5
		c-0.6-6.1-1.7-11.9-3.5-17.5c-3-9.5-8.4-18.1-15.3-25.3c-10.9-11.4-26-19-43.4-21.6c-4-0.6-8-0.9-12.2-0.9
		c-20.2,0-41.4,6.8-57.7,18.5c-3.7,2.6-7,5.4-10.1,8.4c-5.2,5.2-9.7,11.1-14.5,16.4c-4.8,5.2-10.2,9.9-17,12.6
		c-5.6,2.2-11.7,2.8-18,2.8c-7,0-14.4-0.8-21.5-1.1c-1.9-0.1-3.7-0.1-5.6-0.1c-4.8,0-9.6,0.3-14.4,0.8
		c-27.1,3.1-52.3,14.8-72.9,31.6c-0.5,0.4-1,0.8-1.5,1.2c2.5-2.6,4.8-5.3,6.8-8.2c19.3-15.5,42.5-26.5,67.8-29.4
		c4.5-0.5,9-0.8,13.5-0.8c2.1,0,4.4,0.1,6.5,0.1c7.8,0.4,15.8,1.5,23.5,1.5c5.6,0,11-0.6,16.2-2.3c7-2.5,12.4-6.8,17.3-11.7
		c5-4.9,9.5-10.4,14.8-15.3c3-2.8,6.5-5.5,10.2-7.9c17.3-11.6,39.6-18.6,60.3-18.6c3.1,0,6.1,0.1,9.1,0.5c17.3,1.9,32,8.1,43,18.2
		c6.9,6.4,12.5,14.2,16,23c2.1,5.2,3.5,10.7,4.4,16.6c0.8,4.9,1.1,10,1.1,15.3c0,19.8-4.4,42.2-6.1,63.7c-0.3,4.3-0.6,8.6-0.6,12.9
		c0,11.9,1.7,23.8,6.5,35.1c3.2,7.5,7.8,11.5,12.9,14.1c5.1,2.5,10.7,3.5,16,4.9c3.9,1,7.5,2.3,10.5,4.6c3,2.3,5.5,5.8,7,11.2
		c2,7,3.2,13.3,3.2,19.5c0,0.2,0,0.3,0,0.6c-0.1,16-8.1,30-16.1,48c-3,6.7-4.3,12.6-4.3,17.8c0,9.6,4.4,16.9,10.8,22.5
		c7,6.2,16,10.4,23.3,13.5c3.7,1.5,6.8,2.8,9.1,3.8c1.1,0.6,2.1,1,2.6,1.5c0.3,0.2,0.6,0.4,0.7,0.6c0.1,0.2,0.2,0.3,0.2,0.4l0,0l0,0
		v0.1c0,0.2,0.1,0.3,0.1,0.5c0.2,0.3,0.5,0.5,0.9,0.8c0.8,0.5,2,0.9,3.5,1.5c5.5,1.7,15.4,3.9,27.1,6.1c11.7,2.2,25.1,4.4,37.5,6.4
		c7.4,1.2,14.4,2.3,20.4,3.3c11.9,2.1,23.7,5.5,34.5,10.8v-0.8c-10.8-5.2-22.4-8.6-34.3-10.7c-6-1-13.1-2.1-20.4-3.3
		c-15.5-2.5-32.8-5.4-46.1-8.1c-6.7-1.3-12.4-2.6-16.4-3.7c-2-0.6-3.6-1.1-4.7-1.6c-0.6-0.2-1-0.5-1.2-0.7c-0.1-0.1-0.2-0.2-0.3-0.3
		c-0.1-0.1-0.1-0.1-0.1-0.1l0,0v-0.1c0-0.3-0.1-0.6-0.3-0.8c-0.3-0.5-1-0.9-1.8-1.4c-2.9-1.6-8.6-3.6-14.9-6.5
		c-6.4-2.8-13.4-6.6-19.1-11.6c-6.2-5.5-10.6-12.6-10.6-22c0-5.1,1.2-10.9,4.2-17.5c8-18,16-32,16.2-48.3c0-0.2,0-0.3,0-0.6
		c0-6.3-1.2-12.6-3.2-19.7c-1.5-5.5-4.1-9.1-7.2-11.5c-3.1-2.4-6.8-3.7-10.7-4.8c-5.3-1.4-10.8-2.4-15.9-4.8
		c-5-2.5-9.5-6.4-12.6-13.7c-4.8-11.2-6.4-22.9-6.4-34.8c0-4.3,0.2-8.6,0.6-12.8c1.8-21.5,6.1-43.9,6.1-63.8
		c0-5.4-0.3-10.6-1.1-15.5c-0.9-5.9-2.3-11.5-4.4-16.7c-3.5-9-9.1-16.8-16.2-23.3c-11.1-10.2-26-16.6-43.4-18.4
		c-3-0.3-6.1-0.5-9.2-0.5c-20.9,0-43.3,7-60.6,18.6c-3.7,2.5-7.1,5.1-10.2,8c-5.3,4.9-9.9,10.4-14.8,15.3
		c-4.9,4.9-10.2,9.1-17.1,11.5c-5,1.8-10.4,2.3-16,2.3c-7.7,0-15.7-1-23.5-1.5c-2.1-0.1-4.4-0.1-6.5-0.1c-4.5,0-9,0.3-13.5,0.8
		c-24.7,2.8-47.4,13.3-66.4,28.1c0.4-0.7,0.9-1.4,1.3-2.1c0.7-1.1,1.3-2.3,2-3.5c18-14.3,39.7-24.6,63.3-27.3
		c4.3-0.5,8.5-0.7,12.7-0.7c2.4,0,4.8,0.1,7.3,0.2c8.4,0.5,17.1,1.9,25.4,1.9c4.9,0,9.7-0.5,14.2-1.9c7-2.1,12.4-6.1,17.5-10.7
		c5-4.6,9.7-9.7,15.1-14.3c3.1-2.7,6.6-5.2,10.3-7.5c18.4-11.6,42.2-18.9,63.6-18.9c1.9,0,3.9,0.1,5.8,0.2
		c17.3,1.1,31.9,6.1,43.2,15.1c7,5.7,12.9,12.7,16.9,21c2.3,4.9,4,10.1,5.2,15.8c1.5,6.8,2.1,14.1,2.1,21.9c0,18-3,38.1-4.3,57.5
		c-0.3,3.8-0.4,7.5-0.4,11.3c0,12.7,1.7,25.3,6.8,37.4c3.2,7.5,7.8,11.7,12.8,14.4c5.1,2.7,10.7,3.9,16.1,5.4
		c3.9,1.1,7.5,2.4,10.6,4.8c3.1,2.3,5.7,5.7,7.3,11.1c2.3,7.2,3.7,13.5,3.8,20c0,0.3,0,0.5,0,0.8c0,15.9-8,30.2-16.3,47.8
		c-3.5,7.5-5,13.9-5,19.5c0,8.7,3.6,15.4,8.9,20.7c6.3,6.3,14.6,10.7,21.5,14c3.4,1.7,6.4,3,8.6,4.3c1,0.6,1.9,1.2,2.5,1.7
		c0.3,0.3,0.5,0.5,0.6,0.7c0.1,0.2,0.2,0.4,0.2,0.6v0.1l0,0v0.1c0,0.4,0.2,0.7,0.6,1c0.6,0.6,1.6,1.1,3,1.7c4.9,2.1,14.7,4.5,26.5,7
		c11.7,2.5,25.4,4.9,38.1,7c7.3,1.2,14.4,2.3,20.4,3.3c11.8,2,23.4,5.2,34,10.4v-0.8c-10.6-5.1-22.2-8.4-33.9-10.4
		c-6.1-1-13.1-2.1-20.4-3.3c-15.4-2.6-32.3-5.7-45.4-8.6c-6.6-1.5-12.1-2.9-16-4.2c-1.9-0.7-3.5-1.3-4.6-1.9
		c-0.6-0.3-0.9-0.6-1.2-0.8c-0.3-0.2-0.3-0.4-0.3-0.6l0,0l0,0v-0.1c0-0.3-0.1-0.6-0.3-1c-0.3-0.6-0.9-1.1-1.7-1.6
		c-1.4-1-3.4-2-5.8-3.2c-7.3-3.5-18.1-8.4-25.7-16c-5.2-5.2-8.7-11.8-8.8-20.2c0-5.5,1.5-11.9,4.9-19.2c8.2-17.6,16.4-32,16.4-48.1
		c0-0.3,0-0.5,0-0.8c-0.1-6.6-1.6-13-3.9-20.2c-1.7-5.5-4.4-9-7.5-11.5c-3.2-2.4-7-3.8-10.8-4.9c-5.4-1.5-11-2.7-16-5.3
		c-5-2.6-9.4-6.7-12.6-14c-5.1-11.9-6.8-24.4-6.8-37.1c0-3.7,0.1-7.5,0.4-11.3c1.2-19.3,4.3-39.4,4.3-57.5c0-7.8-0.6-15.2-2.1-22
		c-1.2-5.7-3-11-5.3-16c-3.9-8.4-9.9-15.5-17-21.2c-11.8-9.7-26.6-14.7-44-15.9c-1.9-0.1-3.9-0.2-5.9-0.2c-21.5,0-45.4,7.3-64,18.9
		c-3.7,2.3-7.2,4.8-10.4,7.5c-5.4,4.6-10,9.7-15.1,14.3c-5,4.6-10.4,8.4-17.2,10.6c-4.4,1.4-9.1,1.9-14,1.9
		c-8.2,0-16.9-1.3-25.4-1.9c-2.4-0.1-4.9-0.2-7.3-0.2c-4.2,0-8.5,0.2-12.8,0.8c-23.3,2.7-44.6,12.6-62.4,26.5
		c0.8-1.6,1.6-3.2,2.3-4.8c17.1-13.7,37.7-23.7,60.4-26.3c4-0.5,8-0.7,12-0.7c2.7,0,5.3,0.1,8,0.3c9.1,0.6,18.4,2.3,27.3,2.3
		c4.2,0,8.3-0.3,12.2-1.5c7-1.9,12.5-5.5,17.6-9.7c5.1-4.2,9.9-9,15.3-13.3c3.2-2.5,6.7-4.8,10.4-7C336.9,72.5,362.5,65,384.6,65
		c0.7,0,1.4,0,2.1,0c17.3,0.4,31.8,4.2,43.2,12c7.2,5,13.3,11.3,17.7,19c2.6,4.6,4.6,9.5,6.1,15c2.5,8.6,3.4,18.6,3.4,29.2
		c0,16-1.9,33.4-2.7,50.3c-0.1,3.1-0.2,6.3-0.2,9.4c0,13.5,1.7,27.1,7.1,39.9c3.2,7.5,7.7,11.9,12.8,14.7c5.1,2.8,10.7,4.2,16.2,5.9
		c3.9,1.2,7.7,2.6,10.8,5c3.2,2.4,5.8,5.7,7.7,11c2.5,7.1,4.2,13.5,4.5,20c0,0.6,0.1,1.2,0.1,1.9c0,15.7-8.1,30.1-16.5,47.2
		c-4.1,8.3-5.8,15.3-5.8,21.3c0,7.7,2.8,13.8,7.3,18.9c5.6,6.4,13.3,11,19.5,14.5c3.2,1.8,5.9,3.3,7.9,4.7c1,0.7,1.8,1.3,2.3,1.9
		c0.6,0.6,0.8,1.1,0.8,1.6v0.1l0,0v0.1c0,0.4,0.2,0.8,0.5,1.2c0.6,0.7,1.6,1.3,3,2c4.8,2.3,14.4,5.1,25.9,7.7
		c11.5,2.7,24.9,5.2,37.4,7.4c7.3,1.2,14.3,2.3,20.4,3.3c11.7,1.9,23.1,5,33.6,10.1v-0.8c-10.5-5-21.9-8-33.5-9.9
		c-6.1-1-13.1-2.1-20.4-3.3c-15.2-2.6-31.8-5.9-44.6-9.1c-6.4-1.6-11.9-3.2-15.7-4.7c-1.9-0.8-3.5-1.5-4.4-2.1
		c-0.5-0.3-0.9-0.6-1.1-0.9c-0.2-0.3-0.3-0.6-0.3-0.7l0,0l0,0v-0.1c0-0.7-0.3-1.4-1-2.1c-1-1.2-2.8-2.3-5-3.7
		c-6.7-4-17.6-9.3-24.8-17.5c-4.3-5-7-10.8-7-18.4c0-5.9,1.7-12.8,5.7-21c8.4-17.1,16.6-31.6,16.6-47.5c0-0.6,0-1.2-0.1-1.9
		c-0.3-6.6-2-13.1-4.6-20.2c-1.9-5.3-4.6-8.8-7.9-11.3c-3.2-2.5-7-3.9-11-5.1c-5.5-1.7-11-3-16-5.8s-9.4-7-12.6-14.4
		c-5.4-12.7-7-26.1-7-39.6c0-3.1,0.1-6.3,0.2-9.4c0.8-16.9,2.7-34.4,2.7-50.3c0-10.6-0.8-20.6-3.4-29.4c-1.6-5.5-3.7-10.5-6.2-15.1
		c-4.4-7.8-10.6-14.2-17.9-19.2c-11.6-7.9-26.2-11.7-43.6-12.2c-0.7,0-1.4,0-2.1,0c-22.2,0-47.9,7.6-67.7,19.3
		c-3.8,2.2-7.3,4.6-10.5,7.1c-5.5,4.3-10.2,9.1-15.3,13.3c-5,4.1-10.5,7.7-17.3,9.5c-3.8,1-7.9,1.4-12,1.4c-8.8,0-18.1-1.7-27.2-2.3
		c-2.7-0.2-5.4-0.3-8.1-0.3c-4,0-8.1,0.2-12.1,0.7c-22.4,2.6-42.7,12.3-59.7,25.7c0.6-1.5,1.2-3,1.7-4.4
		c16.4-13.5,36.3-23.3,58.2-25.9c3.8-0.4,7.7-0.7,11.4-0.7c2.9,0,5.8,0.1,8.6,0.3c9.7,0.8,19.8,2.8,29.1,2.8c3.5,0,7-0.3,10.3-1
		c7-1.6,12.5-4.8,17.7-8.6c5.2-3.8,10-8.2,15.5-12.2c3.2-2.3,6.8-4.5,10.6-6.6c20.6-11.4,47.1-19.3,69.5-19.8c1,0,2.1,0,3.1,0
		c16,0,29.4,2.6,40.3,9c7.3,4.2,13.7,9.8,18.5,17c2.8,4.2,5.2,8.8,7.1,14.2c3.9,10.6,5,23.8,5,37.8c0,13.5-1,27.9-1.5,41.9
		c-0.1,2.3-0.1,4.8-0.1,7.1c0,14.6,1.7,29.1,7.5,42.8c3.2,7.5,7.7,12,12.8,15c5.1,3,10.8,4.6,16.2,6.4c3.9,1.3,7.7,2.8,11,5.2
		c3.2,2.4,6,5.7,8,10.9c2.7,7.1,4.7,13.4,5.2,20c0.1,1,0.1,1.9,0.1,2.9c0,15.5-8.1,30.1-16.8,46.8c-4.8,9.2-6.8,16.8-6.8,23.3
		c0,6.6,2.1,12.1,5.7,16.8c4.8,6.4,11.9,11.2,17.7,15.1c2.9,1.9,5.5,3.6,7.3,5.1c0.9,0.8,1.7,1.5,2.1,2.1c0.5,0.7,0.8,1.3,0.8,1.9
		v0.1l0,0v0.1c0,0.4,0.2,0.9,0.5,1.2c0.6,0.8,1.5,1.5,2.9,2.3c4.7,2.7,14.1,5.7,25.3,8.5c11.3,2.9,24.5,5.6,36.9,7.8
		c7.3,1.3,14.3,2.3,20.4,3.3c11.5,1.9,22.9,4.8,33.2,9.7v-0.7c-10.4-4.8-21.6-7.7-33.1-9.6c-6.1-1-13.1-2.1-20.4-3.3
		c-15.1-2.7-31.4-6.1-43.9-9.7c-6.3-1.7-11.6-3.5-15.3-5.2c-1.9-0.8-3.3-1.7-4.4-2.4c-0.5-0.3-0.8-0.8-1.1-1
		c-0.2-0.3-0.3-0.6-0.3-0.9v-0.1l0,0c0-0.1,0-0.1,0-0.2c0-0.8-0.3-1.5-0.9-2.3c-1-1.3-2.6-2.6-4.7-4.1c-6.2-4.4-16.3-9.9-22.5-18.2
		c-3.5-4.6-5.5-9.8-5.5-16.3c0-6.4,2-13.9,6.7-23c8.6-16.6,16.9-31.4,16.9-47.1c0-1,0-2-0.1-3c-0.5-6.8-2.5-13.1-5.2-20.2
		c-2-5.2-4.9-8.7-8.2-11.2c-3.4-2.5-7.2-3.9-11.2-5.2c-5.5-1.8-11.1-3.4-16.1-6.3c-5-3-9.4-7.3-12.6-14.7c-5.8-13.6-7.5-28-7.5-42.5
		c0-2.3,0.1-4.8,0.1-7.1c0.5-14,1.5-28.4,1.5-41.9c0-14.2-1.1-27.3-5-38.1c-1.9-5.4-4.3-10.1-7.2-14.3c-4.8-7.3-11.3-12.9-18.7-17.2
		c-11.1-6.4-24.6-9-40.6-9c-1,0-2.1,0-3.1,0c-22.5,0.5-49.1,8.4-69.8,19.9c-3.8,2.1-7.4,4.3-10.6,6.6c-5.6,4-10.4,8.4-15.5,12.2
		c-5.2,3.8-10.6,7-17.4,8.5c-3.2,0.8-6.6,1-10.2,1c-9.3,0-19.3-2-29.1-2.8c-2.9-0.2-5.8-0.3-8.7-0.3c-3.8,0-7.7,0.2-11.5,0.7
		c-21.8,2.6-41.4,12.2-57.7,25.3c0.5-1.4,0.9-2.8,1.3-4.2c15.9-13.4,35.1-23.3,56.6-25.8c3.7-0.4,7.3-0.6,10.9-0.6
		c3.1,0,6.1,0.1,9.3,0.4c10.4,1,21.1,3.4,30.9,3.4c2.8,0,5.7-0.2,8.4-0.7c7-1.3,12.6-4.1,17.8-7.6c5.2-3.5,10.2-7.5,15.8-11.2
		c3.3-2.1,6.9-4.2,10.7-6.1c20.9-10.8,47.4-19.1,69.5-20.4c3.7-0.2,7.2-0.3,10.6-0.3c12.7,0,23.5,1.7,32.9,6.1
		c7.5,3.5,14.2,8.4,19.3,15c3.1,3.9,5.7,8.2,8,13.4c5.7,12.9,7,30.2,7,48.6c0,10.3-0.4,21-0.6,31.4c0,1.4-0.1,2.8-0.1,4.2
		c0,15.7,1.6,31.6,7.9,46.4c3.2,7.5,7.7,12.2,12.8,15.3c5.1,3.2,10.8,4.9,16.3,6.8c4,1.4,7.8,2.9,11.2,5.4c3.3,2.4,6.2,5.7,8.4,10.8
		c3,7,5.2,13.3,5.9,20c0.1,1.3,0.2,2.6,0.2,3.9c0,15.3-8.2,30.1-17.1,46.3c-5.5,10.2-7.9,18.4-7.9,25.4c0,5.6,1.6,10.4,4.2,14.6
		c4.1,6.5,10.5,11.4,15.8,15.5c2.6,2.1,5,3.9,6.8,5.6c0.8,0.8,1.5,1.7,2,2.4c0.5,0.8,0.7,1.5,0.7,2.2c0,0.1,0,0.1,0,0.2l0,0v0.1
		c0,0.5,0.1,1,0.4,1.4c0.6,0.8,1.5,1.7,2.8,2.6c4.6,3,13.7,6.2,24.8,9.3c11,3.1,24,5.9,36.3,8.2c7.3,1.3,14.2,2.3,20.4,3.4
		c11.4,1.8,22.5,4.6,32.7,9.3v-0.8c-10.2-4.7-21.3-7.4-32.7-9.3c-6.1-1-13.1-2-20.4-3.4c-14.9-2.7-30.9-6.4-43.2-10.2
		c-6.1-1.9-11.3-3.8-15-5.7c-1.8-0.9-3.2-1.8-4.2-2.6c-0.5-0.4-0.8-0.8-1.1-1.2c-0.2-0.3-0.3-0.7-0.3-1v-0.1l0,0c0-0.1,0-0.1,0-0.3
		c0-0.8-0.3-1.7-0.8-2.6c-0.9-1.5-2.4-3-4.4-4.6c-5.7-4.8-14.9-10.6-20.2-19c-2.6-4.1-4.1-8.7-4.1-14.2c0-6.8,2.3-14.9,7.9-25.1
		c8.8-16.2,17.1-31.1,17.1-46.7c0-1.3-0.1-2.6-0.2-3.9c-0.6-6.8-2.9-13.2-5.9-20.2c-2.1-5.1-5.1-8.6-8.6-11
		c-3.5-2.5-7.3-4.1-11.3-5.5c-5.6-1.9-11.2-3.7-16.2-6.8c-5-3.1-9.4-7.6-12.6-15c-6.3-14.7-7.9-30.5-7.9-46.1c0-1.4,0-2.8,0.1-4.2
		c0.1-10.4,0.6-21.1,0.6-31.4c0-18.4-1.2-35.8-7-48.9c-2.3-5.2-5-9.6-8.1-13.5c-5.3-6.6-12.1-11.6-19.6-15.2
		c-9.5-4.5-20.4-6.2-33.1-6.2c-3.4,0-6.9,0.1-10.6,0.3c-22.2,1.4-48.8,9.6-69.8,20.4c-3.9,2-7.5,4-10.8,6.2
		c-5.7,3.7-10.6,7.7-15.8,11.2c-5.2,3.5-10.7,6.3-17.5,7.5c-2.6,0.5-5.4,0.7-8.2,0.7c-9.8,0-20.4-2.4-30.9-3.4
		c-3.1-0.3-6.2-0.4-9.3-0.4c-3.7,0-7.3,0.2-11,0.6c-21.3,2.5-40.4,12.2-56.2,25.3c0.3-1.3,0.7-2.6,1-3.9
		c15.4-13.5,34.1-23.5,55.4-26c3.5-0.4,7-0.6,10.4-0.6c3.2,0,6.6,0.2,9.7,0.5c11,1.1,22.3,4,32.7,4c2.2,0,4.4-0.1,6.4-0.4
		c6.9-1,12.6-3.5,18-6.6c5.3-3.1,10.4-6.8,16.1-10.2c3.3-2,7-3.9,10.9-5.7c21.1-10.2,47.7-18.6,69.5-21c6.7-0.7,12.9-1.2,18.6-1.2
		c9.3,0,17.5,1.1,24.9,3.8c7.6,2.8,14.6,7,20.2,13c3.3,3.5,6.3,7.6,8.9,12.6c8.5,16,9.3,40.3,9.3,64.8c0,5.2-0.1,10.4-0.1,15.5
		c0,0.1,0,0.2,0,0.3c0,17.2,1.5,34.7,8.4,50.9c3.2,7.6,7.7,12.3,12.8,15.6c5.1,3.3,10.8,5.2,16.4,7.3c4,1.5,7.9,3.1,11.3,5.5
		c3.5,2.5,6.4,5.7,8.7,10.7c3.2,7,5.7,13.2,6.5,20c0.2,1.6,0.3,3.2,0.3,4.7c0,15.3-8.3,30.2-17.3,46.1c-6.4,11.3-9.3,20.2-9.3,27.6
		c0,4.6,1,8.6,3,12.2c3.4,6.6,9.1,11.6,14,16c2.4,2.1,4.6,4.1,6.1,6c1.6,1.9,2.5,3.6,2.5,5.2c0,0.1,0,0.2,0,0.3l0,0v0.2
		c0,1,0.6,2,1.6,3c1.7,1.7,4.8,3.5,8.9,5.3c12.2,5.5,33.2,11,52.6,14.6c7.2,1.4,14.2,2.4,20.4,3.4c11.3,1.8,22.2,4.4,32.3,9v-0.8
		c-10.1-4.6-21.1-7.1-32.3-8.8c-6.2-1-13.2-2-20.4-3.4c-14.7-2.8-30.5-6.7-42.4-10.8c-6-2.1-11-4.1-14.6-6.1c-1.8-1-3.2-2-4.1-2.9
		c-1-1-1.4-1.8-1.4-2.6v-0.1l0,0c0-0.1,0-0.2,0-0.3c0-1.9-1-3.7-2.7-5.7c-2.4-2.8-6.1-5.9-9.9-9.5c-3.8-3.5-7.5-7.6-10.1-12.4
		c-1.9-3.6-2.9-7.5-2.9-11.9c0-7.3,2.8-16,9.2-27.3c9-15.9,17.4-30.9,17.4-46.4c0-1.6-0.1-3.2-0.3-4.8c-0.8-7-3.4-13.3-6.6-20.2
		c-2.3-5-5.4-8.4-8.9-11c-3.5-2.5-7.5-4.1-11.5-5.6c-5.7-2.1-11.3-4-16.2-7.3s-9.4-7.9-12.6-15.3c-6.9-16.1-8.3-33.5-8.3-50.7
		c0-0.1,0-0.2,0-0.3c0-5.1,0.1-10.3,0.1-15.5c0-24.6-0.8-48.8-9.4-65.1c-2.6-5-5.6-9.1-9-12.7c-5.7-6.1-12.8-10.3-20.5-13.1
		c-7.5-2.8-15.8-3.9-25.1-3.9c-5.8,0-12,0.4-18.8,1.2c-22,2.3-48.5,10.8-69.7,21.1c-3.9,1.9-7.6,3.8-10.9,5.8
		c-5.7,3.4-10.8,7.1-16,10.2c-5.3,3-10.8,5.5-17.7,6.5c-2.1,0.3-4.2,0.4-6.4,0.4c-10.3,0-21.5-2.8-32.7-3.9
		c-3.2-0.3-6.6-0.5-9.8-0.5c-3.5,0-7,0.2-10.5,0.6c-21.1,2.5-39.7,12.4-55,25.6c0.3-1.2,0.6-2.6,0.8-3.8c15-13.7,33.4-24,54.5-26.5
		c3.4-0.4,6.7-0.6,9.9-0.6c3.5,0,6.8,0.2,10.2,0.6c11.7,1.3,23.7,4.6,34.6,4.6c1.5,0,3-0.1,4.5-0.2c6.9-0.7,12.6-2.8,18-5.5
		c5.4-2.8,10.5-6.1,16.3-9.2c3.4-1.8,7.1-3.5,11-5.3c21.3-9.5,47.9-18.3,69.5-21.5c9.8-1.5,18.6-2.5,26.5-2.5
		c6.1,0,11.8,0.6,17.2,2.1c7.7,2.1,15,5.5,21.1,11c3.6,3.2,6.8,7,9.8,11.7c5.8,9.3,8.8,22,10.3,36c1.5,14,1.7,29.5,1.9,44.4
		c0.3,17.5,1.8,35.4,8.8,51.9c3.2,7.6,7.7,12.4,12.8,16c5.1,3.5,10.8,5.6,16.5,7.8c4.1,1.6,8,3.2,11.5,5.7c3.5,2.5,6.6,5.7,9,10.6
		c3.5,6.9,6.2,13.1,7.2,20.1c0.3,1.9,0.3,3.7,0.3,5.5c0,15.3-8.4,30.3-17.6,45.8c-7.5,12.5-10.8,21.9-10.8,29.8
		c0,3.6,0.7,6.8,1.9,9.9c2.7,6.6,7.7,11.8,12,16.4c2.1,2.3,4.1,4.4,5.6,6.5c1.5,2,2.3,3.9,2.3,5.7c0,0.1,0,0.3,0,0.4l0,0
		c0,0.1,0,0.1,0,0.2c0,1.1,0.6,2.2,1.5,3.3c1.7,1.9,4.7,3.9,8.7,5.8c11.9,5.9,32.5,11.7,51.7,15.5c7.2,1.4,14.2,2.4,20.4,3.4
		c11,1.7,22,4.1,31.9,8.6v-0.8c-9.9-4.4-20.8-6.8-31.8-8.5c-6.2-1-13.2-2-20.3-3.4c-14.6-2.8-30-6.9-41.7-11.3
		c-5.9-2.2-10.8-4.4-14.3-6.6c-1.7-1.1-3.1-2.1-4-3.2s-1.4-2-1.4-2.8v-0.1l0,0c0-0.1,0-0.3,0-0.4c0-2.1-1-4.1-2.4-6.1
		c-2.2-3.1-5.6-6.4-9-10.1c-3.3-3.7-6.6-7.9-8.6-12.6c-1.2-3-1.9-6.1-1.9-9.7c0-7.7,3.2-17.1,10.7-29.5
		c9.3-15.5,17.7-30.7,17.7-46.2c0-1.9-0.1-3.7-0.4-5.6c-1-7-3.8-13.4-7.3-20.3c-2.4-4.9-5.7-8.3-9.3-10.8c-3.6-2.6-7.6-4.2-11.7-5.8
		c-5.7-2.2-11.3-4.4-16.3-7.7c-5-3.5-9.3-8.1-12.6-15.7c-7-16.4-8.6-34.2-8.8-51.7c-0.2-14.9-0.3-30.4-1.9-44.5s-4.5-26.9-10.4-36.3
		c-3-4.8-6.3-8.6-9.9-11.9c-6.1-5.5-13.5-9-21.3-11.1c-5.5-1.5-11.2-2.1-17.3-2.1c-8,0-16.7,1-26.6,2.5c-21.7,3.2-48.3,12-69.7,21.6
		c-3.9,1.7-7.7,3.5-11.1,5.3c-5.8,3.1-10.9,6.4-16.3,9.1c-5.4,2.7-11,4.8-17.8,5.5c-1.5,0.1-3,0.2-4.4,0.2
		c-10.8,0-22.7-3.3-34.5-4.6c-3.4-0.4-6.8-0.6-10.3-0.6c-3.3,0-6.7,0.2-10.1,0.6c-21,2.5-39.2,12.6-54.2,26c0.2-1.2,0.4-2.4,0.6-3.7
		c14.6-14,32.7-24.5,53.8-27c3.2-0.4,6.4-0.6,9.6-0.6c3.6,0,7.1,0.2,10.6,0.7c12.4,1.5,25,5.4,36.4,5.4c0.9,0,1.7,0,2.6-0.1
		c6.9-0.4,12.6-2.1,18.2-4.5c5.5-2.3,10.7-5.3,16.6-8.1c3.5-1.7,7.2-3.2,11.2-4.9c21.6-8.9,48.1-18,69.5-22.1
		c12.8-2.5,23.6-4.4,33.4-4.4c3.6,0,7,0.3,10.4,0.8c7.9,1.4,15.4,4.1,21.9,9c3.9,2.9,7.4,6.4,10.7,11c6.5,9,10,21.5,12,35.7
		s2.6,29.8,3,45c0.5,17.7,2.2,35.8,9.3,52.6c3.2,7.6,7.7,12.6,12.8,16.2c5.1,3.7,10.8,6,16.6,8.4c4.1,1.7,8.1,3.4,11.7,5.9
		c3.6,2.5,6.8,5.7,9.3,10.5c3.7,6.8,6.7,13.1,7.9,20.1c0.3,2.1,0.5,4.2,0.5,6.3c0,15.3-8.4,30.5-18,45.6
		c-8.6,13.7-12.5,23.6-12.5,32.1c0,2.6,0.4,5.1,1.1,7.5c2,6.5,6.4,11.9,10.2,16.9c1.9,2.4,3.7,4.7,5,6.9s2.1,4.3,2.1,6.3
		c0,0.2,0,0.3,0,0.6l0,0c0,0.1,0,0.2,0,0.3c0,1.2,0.6,2.4,1.5,3.6c1.7,2.1,4.6,4.2,8.5,6.3c11.6,6.3,31.7,12.5,50.7,16.3
		c7.1,1.5,14.1,2.5,20.4,3.4c10.9,1.7,21.7,3.9,31.5,8.2v-0.8c-9.8-4.3-20.6-6.6-31.4-8.1c-6.3-0.9-13.2-1.9-20.3-3.4
		c-14.4-2.9-29.5-7.2-41-11.8c-5.7-2.3-10.6-4.8-14-7.1c-1.7-1.2-3-2.3-3.9-3.5c-0.9-1.1-1.3-2.1-1.3-3.2c0-0.1,0-0.1,0-0.2l0,0
		c0-0.2,0-0.3,0-0.6c0-2.2-0.9-4.4-2.2-6.7c-2-3.4-5-6.9-7.9-10.8c-2.9-3.9-5.7-8.1-7.1-12.8c-0.7-2.3-1.1-4.8-1.1-7.3
		c0-8.3,3.9-18.1,12.4-31.7c9.5-15.2,18-30.5,18-46c0-2.1-0.1-4.3-0.5-6.4c-1.2-7.2-4.3-13.5-7.9-20.3c-2.6-4.8-5.9-8.1-9.6-10.7
		c-3.7-2.6-7.7-4.3-11.9-5.9c-5.8-2.3-11.4-4.6-16.4-8.2c-5-3.6-9.3-8.4-12.6-16c-7.1-16.6-8.8-34.7-9.3-52.3c-0.4-15.1-1-30.9-3-45
		c-2-14.2-5.6-26.9-12.2-36c-3.3-4.6-6.9-8.2-10.8-11.1c-6.6-4.9-14.3-7.7-22.2-9.1c-3.4-0.6-6.9-0.8-10.5-0.8
		c-9.9,0-20.7,1.9-33.5,4.4c-21.4,4.1-48,13.3-69.6,22.2c-4,1.7-7.7,3.2-11.3,4.9c-5.9,2.8-11.1,5.8-16.6,8.1
		c-5.5,2.3-11.1,4.1-17.9,4.5c-0.8,0.1-1.7,0.1-2.6,0.1c-11.3,0-23.8-3.9-36.3-5.4c-3.5-0.4-7.1-0.7-10.8-0.7
		c-3.2,0-6.4,0.2-9.7,0.6c-20.9,2.5-39,12.8-53.5,26.6c0.2-1.2,0.3-2.3,0.5-3.5c14.3-14.3,32.2-25.2,53.2-27.7
		c3.1-0.3,6.2-0.6,9.3-0.6c3.7,0,7.4,0.3,11,0.8c13.1,1.7,26.3,6.2,38.3,6.2c0.2,0,0.4,0,0.6,0c13.8-0.2,23.2-5.6,35.1-10.6
		c3.5-1.5,7.3-2.9,11.3-4.4c21.9-8.3,48.4-17.7,69.5-22.7c15.5-3.7,27.9-6.8,39.3-6.8c1.5,0,3,0.1,4.6,0.2c7.9,0.6,15.9,2.7,22.8,7
		c4.1,2.6,8,5.8,11.6,10.2c7.1,8.6,11.3,21.1,13.8,35.4c2.6,14.2,3.4,30.2,4.1,45.5c0.8,17.9,2.6,36.3,9.9,53.2
		c3.2,7.7,7.7,12.8,12.8,16.6c5,3.8,10.8,6.4,16.6,8.8c4.1,1.7,8.2,3.6,11.9,6.1c3.7,2.5,7,5.7,9.7,10.4c3.9,6.8,7.3,13,8.5,20.1
		c0.4,2.3,0.6,4.6,0.6,7c0,15.3-8.6,30.6-18.2,45.4c-9.7,14.9-14.4,25.2-14.4,34.4c0,1.7,0.2,3.5,0.6,5.2c1.3,6.5,5,12.1,8.3,17.2
		c3.3,5.1,6.3,9.8,6.2,14.2c0,0.2,0,0.5,0,0.7l0,0c0,0.1,0,0.2,0,0.3c0,1.2,0.5,2.6,1.5,3.9c1.6,2.3,4.5,4.5,8.3,6.8
		c11.3,6.8,31,13.3,49.7,17.1c7.1,1.5,14.1,2.5,20.4,3.4c10.8,1.6,21.4,3.7,31.1,7.9v-0.8c-9.7-4.1-20.3-6.3-30.9-7.8
		c-6.3-0.9-13.3-1.9-20.3-3.4c-14.2-2.9-29-7.4-40.2-12.4c-5.6-2.5-10.3-5-13.6-7.5c-1.7-1.2-2.9-2.5-3.8-3.7
		c-0.9-1.2-1.3-2.3-1.3-3.5c0-0.1,0-0.2,0-0.3l0,0c0-0.3,0-0.5,0-0.8c0-4.8-3-9.5-6.4-14.6c-3.3-5.1-6.9-10.6-8.2-17
		c-0.3-1.7-0.5-3.3-0.5-5c0-8.9,4.6-19.1,14.4-34c9.7-14.9,18.4-30.3,18.4-45.9c0-2.3-0.2-4.8-0.6-7.1c-1.3-7.3-4.7-13.5-8.6-20.3
		c-2.8-4.7-6.1-8-9.9-10.6c-3.7-2.6-7.9-4.4-12-6.1c-5.9-2.5-11.5-5-16.5-8.7c-5-3.7-9.3-8.8-12.6-16.3c-7.2-16.8-9-35.2-9.8-53
		c-0.6-15.3-1.5-31.3-4.1-45.6s-6.7-26.9-14-35.7c-3.7-4.4-7.6-7.7-11.7-10.3c-7-4.4-15.1-6.4-23.1-7c-1.5-0.1-3-0.2-4.6-0.2
		c-11.5,0-24,3.2-39.5,6.9c-21.1,5-47.7,14.4-69.6,22.7c-4,1.5-7.9,3-11.4,4.4c-11.9,5-21.2,10.4-34.8,10.6c-0.2,0-0.4,0-0.6,0
		c-11.7,0-25-4.5-38.2-6.2c-3.7-0.5-7.4-0.8-11.1-0.8c-3.1,0-6.1,0.2-9.3,0.6c-20.9,2.5-38.7,13.2-53,27.3c0.1-1.1,0.3-2.3,0.4-3.4
		c14-14.7,31.7-26,52.8-28.6c3-0.3,5.9-0.6,8.9-0.6c3.9,0,7.7,0.3,11.4,0.8c13.3,1.9,26.7,6.8,38.8,7.1c0.6,0,1.1,0,1.7,0
		c12.9,0,22.2-4.4,33.8-8.6c3.6-1.3,7.5-2.6,11.5-4c22.1-7.7,48.7-17.3,69.5-23.3c17.6-5,31.1-9.7,44-9.8c0.2,0,0.5,0,0.7,0
		c7.9,0,15.8,1.4,22.9,5c4.4,2.2,8.6,5.2,12.5,9.4c7.8,8.2,12.6,20.7,15.5,35.1c3,14.4,4.3,30.5,5.2,46.1c1,18.1,3,36.8,10.4,53.9
		c3.2,7.7,7.7,12.9,12.8,16.9c5,4,10.8,6.7,16.7,9.3c8.4,3.7,16.5,7.5,22.1,16.5c4.1,6.7,7.7,12.8,9.2,20.1c0.6,2.6,0.8,5.1,0.8,7.7
		c0,15.3-8.7,30.7-18.6,45.4c-5.5,8.1-9.6,14.7-12.4,20.6c-2.8,5.9-4.2,11-4.2,16c0,0.9,0.1,1.9,0.1,2.8c0.7,6.4,3.7,12.2,6.5,17.5
		c2.8,5.4,5.4,10.4,5.4,15.3c0,0.3,0,0.6,0,0.9l0,0c0,0.1,0,0.3,0,0.3c0,1.4,0.5,2.8,1.4,4.1c1.6,2.4,4.4,4.8,8,7.3
		c11,7.2,30.2,14,48.8,18c7,1.5,14,2.5,20.3,3.4c10.6,1.5,21.1,3.5,30.7,7.5v-1.2c-9.5-4-20-5.9-30.5-7.5
		c-6.3-0.9-13.3-1.9-20.3-3.4c-14.1-3-28.5-7.7-39.4-12.8c-5.5-2.6-10-5.3-13.3-8c-1.6-1.4-2.8-2.7-3.7-4c-0.8-1.3-1.2-2.6-1.2-3.7
		c0-0.1,0-0.2,0-0.3l0,0c0-0.3,0-0.6,0-1c0-5.1-2.7-10.2-5.5-15.5c-2.8-5.4-5.7-11-6.4-17.3c-0.1-0.9-0.1-1.8-0.1-2.7
		c0-4.9,1.4-9.9,4.1-15.7c2.8-5.8,6.9-12.5,12.4-20.5c9.9-14.6,18.7-30.2,18.7-45.7c0-2.6-0.3-5.2-0.8-7.8
		c-1.5-7.4-5.1-13.6-9.3-20.3c-5.7-9.3-14.1-13.1-22.4-16.8c-5.9-2.6-11.6-5.3-16.6-9.2c-5-3.9-9.3-9-12.6-16.6
		c-7.3-17-9.3-35.6-10.3-53.7c-0.9-15.5-2.1-31.8-5.2-46.2c-3-14.4-7.8-27-15.7-35.4c-4-4.3-8.2-7.3-12.7-9.5
		c-7.3-3.7-15.3-5-23.2-5c-0.2,0-0.5,0-0.7,0c-13.1,0.1-26.6,4.8-44.1,9.8c-20.9,5.9-47.4,15.7-69.5,23.3c-4.1,1.4-7.9,2.7-11.5,4
		c-11.7,4.3-20.9,8.5-33.6,8.5c-0.6,0-1.1,0-1.7,0c-11.9-0.3-25.3-5.2-38.7-7.1c-3.8-0.6-7.7-0.8-11.5-0.8c-3,0-5.9,0.1-9,0.6
		c-21,2.5-38.7,13.6-52.6,28.1c0-0.1,0-0.1,0-0.2c0.1-1,0.2-2.1,0.3-3.1c13.7-15.2,31.3-27,52.6-29.6c2.9-0.3,5.8-0.5,8.6-0.5
		c3.9,0,7.9,0.3,11.7,0.9c13.3,2,26.6,7.1,38.7,8c1.5,0.1,3,0.1,4.5,0.1c11.5,0,20.4-3.2,31.4-6.6c3.7-1.1,7.5-2.3,11.7-3.6
		c22.4-7,49-17.1,69.5-23.8c17.7-5.8,30.9-11.7,44.1-12.9c2.1-0.2,4.2-0.3,6.4-0.3c6.1,0,12.4,1,18.1,3.2c4.6,1.9,9.1,4.6,13.4,8.6
		c8.4,7.9,13.8,20.3,17.3,34.7c3.5,14.4,5.2,30.9,6.3,46.6c1.3,18.3,3.5,37.3,10.8,54.6c3.3,7.7,7.7,13.1,12.7,17.2
		c5,4.1,10.8,7,16.8,9.8c8.4,3.9,16.8,7.7,22.7,16.6c4.4,6.6,8.2,12.8,9.9,20.1c0.6,2.8,0.9,5.5,0.9,8.3c0,15.3-8.8,30.9-18.9,45.3
		c-6.1,8.7-10.9,15.7-14.1,21.9c-3.2,6.2-4.9,11.7-4.9,17.2c0,0.1,0,0.1,0,0.3c0.1,6.4,2.4,12.2,4.7,17.9c2.3,5.6,4.6,11,4.6,16.2
		c0,0.4,0,0.8-0.1,1.2c0,0.1,0,0.3,0,0.4c0,2.9,1.9,5.9,5,8.8c4.8,4.4,12.5,8.8,21.7,12.6c9.2,3.9,19.8,7.2,30.2,9.5
		c7,1.5,14,2.6,20.3,3.4c10.4,1.5,20.8,3.3,30.2,7.2v-0.8c-9.5-3.9-19.8-5.7-30.1-7.1c-6.4-0.9-13.3-1.9-20.2-3.4
		c-13.9-3-28-7.9-38.7-13.4c-5.3-2.8-9.8-5.6-12.8-8.5c-1.5-1.5-2.8-2.8-3.6-4.3c-0.8-1.4-1.2-2.8-1.2-4c0-0.1,0-0.3,0-0.4
		c0-0.4,0.1-0.8,0.1-1.2c0-5.5-2.3-10.8-4.6-16.4c-2.3-5.6-4.6-11.4-4.6-17.6c0-0.1,0-0.1,0-0.2c0-5.4,1.7-10.7,4.8-16.9
		c3.2-6.1,7.9-13.1,14.1-21.8c10.2-14.4,19.1-30.1,19.1-45.6c0-2.8-0.3-5.7-0.9-8.4c-1.7-7.5-5.5-13.7-9.9-20.4
		c-6-9-14.5-13-22.9-16.9c-6-2.8-11.7-5.6-16.6-9.7s-9.3-9.3-12.6-16.9c-7.4-17.2-9.5-36-10.8-54.4c-1.1-15.8-2.8-32.3-6.3-46.8
		c-3.5-14.5-8.9-27.1-17.5-35.1c-4.4-4.1-8.9-6.8-13.6-8.7c-5.9-2.3-12.2-3.3-18.4-3.3c-2.1,0-4.3,0.1-6.4,0.3
		c-13.3,1.3-26.6,7.2-44.3,13c-20.6,6.8-47.2,16.9-69.5,23.8c-4.1,1.3-8,2.4-11.7,3.6c-10.9,3.4-19.8,6.6-31.1,6.6
		c-1.5,0-2.9-0.1-4.4-0.1c-11.9-0.8-25.2-5.9-38.7-8c-3.9-0.6-7.9-0.9-11.9-0.9c-2.9,0-5.8,0.1-8.7,0.6
		c-21.1,2.6-38.7,14.2-52.3,29.1c0.1-1,0.1-2.1,0.2-3.1c13.3-15.7,30.9-28,52.3-30.6c2.8-0.3,5.6-0.5,8.4-0.5c4.1,0,8.1,0.3,12.1,1
		c13.3,2.1,26.5,7.5,38.6,8.8c2.7,0.3,5.3,0.5,7.8,0.5c10,0,18.4-2.3,28.4-4.9c3.7-1,7.7-1.9,11.8-3.1c22.7-6.4,49.2-16.8,69.5-24.4
		c17.7-6.6,30.9-13.7,44.2-16.1c3.7-0.7,7.5-1.1,11.4-1.1c4.7,0,9.5,0.6,14,2c4.9,1.5,9.7,3.9,14.3,7.7c9.1,7.5,15.1,19.9,19.1,34.4
		s6.1,31.1,7.4,47.2c1.5,18.5,3.8,37.7,11.3,55.2c3.3,7.7,7.7,13.2,12.7,17.5c5,4.3,10.8,7.4,16.9,10.3c8.5,4.1,17,8,23.1,16.6
		c4.7,6.6,8.7,12.7,10.6,20.1c0.7,3,1,5.9,1,8.9c0,15.4-8.9,31.1-19.3,45.2c-6.4,8.7-11.5,15.6-15.2,21.8
		c-3.7,6.2-5.9,11.7-6.4,17.4c-0.1,0.8-0.1,1.7-0.1,2.4c0,5.8,1.7,11.4,3.3,16.9s3.3,10.8,3.3,16c0,0.6,0,1-0.1,1.6
		c0,0.1,0,0.3,0,0.5c0,3.1,1.8,6.2,4.9,9.3c4.6,4.6,12.2,9.3,21.1,13.3s19.3,7.5,29.7,9.7c7,1.6,14,2.6,20.3,3.5
		c10.3,1.4,20.5,3.1,29.8,6.8v-0.8c-9.3-3.7-19.5-5.4-29.7-6.8c-6.4-0.8-13.3-1.9-20.2-3.4c-13.7-3-27.6-8.1-38-13.9
		c-5.2-2.9-9.5-5.9-12.5-9c-3-3-4.7-6.1-4.7-8.8c0-0.1,0-0.3,0-0.5c0.1-0.6,0.1-1.1,0.1-1.7c0-5.4-1.7-10.7-3.3-16.2
		c-1.7-5.5-3.3-11-3.3-16.6c0-0.8,0-1.6,0.1-2.3c0.5-5.6,2.6-11,6.3-17.1c3.7-6.1,8.8-13.1,15.1-21.7c10.4-14.2,19.4-30,19.4-45.6
		c0-3-0.3-6.1-1.1-9c-1.9-7.6-6-13.7-10.6-20.4c-6.3-8.8-14.9-12.8-23.4-16.9c-6-2.9-11.7-5.9-16.7-10.2c-5-4.2-9.3-9.7-12.6-17.3
		c-7.5-17.4-9.7-36.5-11.3-55c-1.3-16-3.4-32.7-7.4-47.3c-4-14.6-10-27.1-19.3-34.7c-4.7-3.9-9.5-6.4-14.5-7.9
		c-4.6-1.5-9.4-2.1-14.2-2.1c-3.9,0-7.7,0.4-11.5,1.1c-13.5,2.5-26.7,9.5-44.3,16.1c-19.9,7.8-46.4,18.2-69,24.6
		c-4.1,1.2-8.1,2.1-11.8,3.1c-9.9,2.6-18.3,4.8-28.2,4.8c-2.5,0-5-0.1-7.7-0.4c-11.9-1.4-25.1-6.7-38.5-8.8c-4-0.6-8.1-1-12.2-1
		c-2.8,0-5.6,0.1-8.4,0.5c-21.3,2.6-38.8,14.7-52.2,30.2c0.1-1,0.1-2,0.2-3c4.6-5.8,9.9-11.2,15.6-15.8c10.4-8.4,22.7-14.3,36.6-16
		c2.8-0.3,5.5-0.5,8.1-0.5c4.2,0,8.3,0.4,12.4,1.1c13.3,2.3,26.4,7.9,38.5,9.7c4.1,0.6,8,1,11.7,1c8.4,0,16.1-1.5,24.9-3.3
		c3.7-0.8,7.7-1.7,11.9-2.7c22.9-5.7,49.4-16.5,69.5-24.9c17.7-7.5,30.7-15.6,44.3-19.2c5.1-1.4,10.5-2.2,15.9-2.2
		c3.5,0,7,0.3,10.4,1.2c5.2,1.2,10.2,3.3,15.2,7c9.8,7.1,16.4,19.5,20.9,34.1s6.9,31.5,8.5,47.7c1.8,18.7,4.2,38.2,11.8,55.9
		c6.6,15.5,17.4,22.5,29.6,28.6c8.6,4.3,17.3,8.2,23.7,16.8c4.9,6.5,9.2,12.6,11.2,20.2c0.8,3.1,1.2,6.3,1.2,9.5
		c0,8.2-2.6,16.6-6.6,24.7c-0.3,0.6-0.6,1-0.8,1.6c-3.4,6.6-7.7,12.9-12.2,18.9c-6.6,8.6-12.1,15.4-16.2,21.5
		c-4.1,6.1-6.8,11.6-7.9,17.5c-0.3,1.9-0.5,3.7-0.5,5.6c0,10.4,4.4,20.6,4.4,30.6c0,0.8,0,1.5-0.1,2.2c0,0.2,0,0.4,0,0.6
		c0,3.2,1.7,6.6,4.8,9.9c4.5,4.9,11.8,9.7,20.6,14c8.8,4.2,19,7.7,29.2,10.1c7,1.6,13.9,2.6,20.3,3.5c10.2,1.4,20.2,3,29.4,6.6v-0.8
		c-9.2-3.5-19.2-5.1-29.3-6.5c-6.4-0.8-13.3-1.9-20.2-3.5c-13.6-3.1-27.1-8.4-37.2-14.4c-5-3-9.3-6.2-12.2-9.4
		c-2.9-3.2-4.6-6.4-4.6-9.4c0-0.2,0-0.3,0-0.6c0.1-0.8,0.1-1.5,0.1-2.2c0-10.2-4.4-20.4-4.4-30.6c0-1.8,0.1-3.7,0.5-5.5
		c1-5.8,3.7-11.2,7.8-17.3s9.6-12.9,16.2-21.5c3.2-4.1,6.1-8.4,8.8-12.8c-0.2,0.6-0.4,1.1-0.6,1.7c-0.4,1-0.8,2.1-1.2,3.2
		c-0.2,0.6-0.5,1.1-0.7,1.6c-6.8,8.5-12.6,15.2-17.1,21.3c-4.6,6.1-7.9,11.6-9.5,17.7c-0.8,3.2-1.2,6.4-1.2,9.7
		c0,9,2.3,18.1,2.3,27.1c0,1,0,2.1-0.1,3.1c0,0.2,0,0.5,0,0.7c0,3.5,1.7,7,4.6,10.4c4.4,5.2,11.5,10.2,20,14.6
		c8.6,4.4,18.6,8,28.7,10.4c6.9,1.7,13.8,2.6,20.3,3.5c10,1.3,20,2.8,28.9,6.2v-0.8c-9-3.4-18.9-4.9-28.9-6.1
		c-6.4-0.8-13.3-1.8-20.2-3.5c-13.4-3.2-26.7-8.6-36.5-14.9c-4.9-3.2-9-6.5-11.8-9.9c-2.8-3.4-4.4-6.8-4.4-9.9c0-0.2,0-0.4,0-0.6
		c0.1-1,0.1-2.1,0.1-3.2c0-9.1-2.3-18.3-2.3-27.1c0-3.2,0.3-6.4,1.2-9.5c1.6-5.9,4.8-11.3,9.4-17.4c4.2-5.6,9.5-11.7,15.6-19.3
		c-0.1,0.1-0.1,0.2-0.1,0.3c-0.1,0.2-0.1,0.3-0.3,0.6c-0.1,0.3-0.3,0.6-0.6,0.8s-0.4,0.6-0.6,1c-3.2,3.6-6.1,6.9-8.6,10
		c-5,6.1-8.8,11.5-11,17.7c-1.8,5-2.3,10.2-2.3,15.5c0,6.9,0.8,14,0.8,21.1c0,1.7-0.1,3.2-0.1,4.9c0,0.3,0,0.6,0,0.8
		c0,3.6,1.6,7.3,4.4,10.9c8.4,10.8,27.6,21.1,47.7,26c6.9,1.7,13.8,2.6,20.3,3.5c9.9,1.2,19.6,2.6,28.5,5.9V400
		c-8.9-3.2-18.7-4.6-28.5-5.9c-6.5-0.8-13.4-1.8-20.2-3.5c-13.3-3.2-26.2-8.8-35.7-15.4c-4.8-3.2-8.8-6.8-11.5-10.4
		c-2.8-3.5-4.3-7.1-4.3-10.5c0-0.3,0-0.5,0-0.8c0.1-1.7,0.1-3.3,0.1-5c0-7.1-0.8-14.2-0.8-21.1c0-5.2,0.5-10.4,2.3-15.3
		c1.7-4.6,4.2-8.8,7.5-13.2c-1.5,2.2-2.7,4.4-3.7,6.8c-3.8,8.5-4,17.9-4,27.5c0,1.5,0,3,0,4.4c0,3.7-0.1,7.4-0.3,11.1
		c0,0.3,0,0.6,0,0.9c0,3.8,1.6,7.7,4.3,11.5c8.1,11.4,26.8,22,46.5,26.9c6.8,1.7,13.7,2.7,20.2,3.5c9.7,1.2,19.3,2.5,28.1,5.6v-0.8
		c-8.8-3.1-18.4-4.4-28-5.5c-6.5-0.8-13.4-1.7-20.2-3.5c-13.1-3.2-25.7-9-35-15.9c-4.6-3.4-8.5-7-11.2-10.8c-2.7-3.7-4.1-7.5-4.1-11
		c0-0.3,0-0.6,0-0.9c0.3-3.7,0.3-7.5,0.3-11.2c0-1.5,0-3,0-4.4c0-9.6,0.3-18.9,3.9-27.2c1.2-2.8,2.8-5.5,4.7-8.1
		c-0.3,0.6-0.6,1.1-1,1.7c-6.9,13.1-5.9,28.9-7,44.6c0,0.3-0.1,0.7-0.1,1c0,4,1.5,8,4.1,12c7.9,11.9,26,22.9,45.4,27.9
		c6.8,1.7,13.7,2.7,20.2,3.5c9.5,1.2,19.1,2.3,27.7,5.3v-0.8c-8.7-3-18.2-4.1-27.6-5.2c-6.6-0.8-13.4-1.7-20.2-3.5
		c-12.9-3.3-25.2-9.3-34.3-16.4c-4.6-3.5-8.2-7.4-10.8-11.3c-2.6-3.9-4-7.8-4-11.6c0-0.3,0-0.7,0-1c1-15.8,0.1-31.4,6.9-44.3
		c0.7-1.3,1.5-2.6,2.3-3.9c-6.6,12.7-7.2,28-8.2,43.5c0,0.4-0.1,0.8-0.1,1.2c0,8.3,5.7,16.9,14.6,24.4c8.9,7.4,20.9,13.6,33.8,17
		c6.8,1.8,13.7,2.8,20.2,3.5c9.4,1.1,18.7,2.1,27.3,5v-0.8c-8.6-2.8-17.9-3.9-27.2-5c-6.6-0.8-13.5-1.7-20.2-3.5
		c-12.7-3.3-24.7-9.5-33.5-16.9c-8.8-7.3-14.4-15.9-14.4-23.8c0-0.4,0-0.8,0.1-1.2c1.1-16.4,1.7-32.5,9.4-45.5
		c-5.9,12.1-7.5,26.3-8.4,40.8c0,0.5-0.1,0.9-0.1,1.4c0,8.6,5.5,17.7,14.1,25.3c8.6,7.7,20.4,14.1,33,17.5
		c6.7,1.8,13.6,2.8,20.2,3.5c9.3,1,18.4,2,26.9,4.7v-0.7c-8.4-2.7-17.6-3.7-26.8-4.7c-6.6-0.8-13.5-1.7-20.1-3.5
		c-12.6-3.4-24.2-9.7-32.7-17.3c-8.6-7.6-13.9-16.4-13.9-24.8c0-0.4,0-0.9,0.1-1.3c1-14.8,2.6-29.4,8.8-41.5
		c-4.9,11.1-6.9,23.8-7.8,36.8c-0.1,0.5-0.1,1-0.1,1.5c0,9,5.2,18.4,13.6,26.3c8.4,7.9,19.8,14.5,32.3,18c6.7,1.9,13.6,2.8,20.2,3.5
		c9,1,18.2,1.9,26.5,4.4v-0.7c-8.3-2.5-17.3-3.4-26.3-4.4c-6.6-0.7-13.5-1.7-20.1-3.5c-12.4-3.5-23.8-9.9-32-17.8
		s-13.4-17.1-13.4-25.8c0-0.5,0-1,0.1-1.5c0.8-12.2,2.7-24.2,7-34.7c-3.5,9.3-5.3,19.5-6,30c-0.1,0.6-0.1,1.2-0.1,1.7
		c0,9.4,5,19.1,13.1,27.2c8.1,8.2,19.3,14.9,31.6,18.4c6.6,1.9,13.5,2.8,20.2,3.5c8.9,1,17.8,1.8,26,4.1v-0.7
		c-8.2-2.3-17.1-3.2-25.9-4.1c-6.6-0.7-13.5-1.6-20.1-3.5c-12.2-3.5-23.3-10.2-31.3-18.2c-8-8.1-12.9-17.6-12.9-26.7
		c0-0.6,0-1.1,0.1-1.7c0.6-8.8,2-17.5,4.6-25.7c-1.9,6.8-3.1,13.8-3.6,21c-0.1,0.6-0.1,1.3-0.1,1.9c0,9.7,4.8,19.7,12.6,28.2
		c7.8,8.4,18.7,15.3,30.9,18.9c6.6,1.9,13.5,2.8,20.2,3.5c8.8,0.9,17.5,1.7,25.6,3.9v-0.7c-8.1-2.2-16.8-3-25.5-3.9
		c-6.7-0.7-13.5-1.6-20.1-3.5c-12-3.5-22.8-10.4-30.5-18.7c-7.7-8.4-12.4-18.2-12.4-27.7c0-0.6,0-1.2,0.1-1.9
		c0.5-6.7,1.5-13.3,3.2-19.5c-1.1,4.8-1.9,9.9-2.2,14.9c-0.1,0.8-0.1,1.5-0.1,2.2c0,10.1,4.6,20.4,12.2,29.1
		c7.6,8.7,18.1,15.7,30.1,19.3c6.6,1.9,13.5,2.8,20.2,3.5c8.6,0.9,17.3,1.5,25.1,3.7v-0.7c-7.9-2.1-16.6-2.8-25.1-3.6
		c-6.7-0.7-13.5-1.6-20-3.5c-11.9-3.5-22.3-10.6-29.8-19.1c-7.5-8.6-12-18.8-11.9-28.6c0-0.7,0-1.5,0.1-2.1c0.3-5.6,1.2-11,2.6-16.4
		c-0.8,3.8-1.3,7.7-1.6,11.7c-0.1,0.8-0.1,1.7-0.1,2.5c0,10.4,4.4,21.1,11.7,30c7.3,8.9,17.5,16.2,29.4,19.8
		c6.6,2,13.4,2.9,20.2,3.5c7.6,0.8,15.2,1.2,22.2,2.8c0.8,0.2,1.7,0.3,2.5,0.6v-0.7c-0.8-0.2-1.5-0.3-2.3-0.6
		c-7.2-1.5-14.8-2.1-22.3-2.8c-6.8-0.6-13.6-1.5-20-3.5c-11.7-3.5-21.8-10.7-29-19.5c-7.3-8.8-11.5-19.3-11.5-29.6
		c0-0.8,0-1.6,0.1-2.4c0.3-5,1.1-9.9,2.3-14.8c-0.7,3.3-1.1,6.7-1.4,10.2c-0.1,0.9-0.1,1.9-0.1,2.8c0,21.5,16.5,43.8,39.8,51
		c6.5,2.1,13.4,2.9,20.2,3.5c7.6,0.7,15.2,1.2,22.3,2.7c0.7,0.1,1.4,0.3,2,0.5v-0.7c-0.6-0.1-1.2-0.3-1.9-0.4
		c-7.2-1.5-14.8-2-22.4-2.7c-6.8-0.6-13.6-1.5-20-3.5c-23-7.2-39.4-29.3-39.3-50.4c0-0.9,0-1.8,0.1-2.7c0.3-4.6,1-9.2,2.1-13.7
		c-0.6,3-1,5.9-1.2,9c-0.1,1-0.1,2.1-0.1,3.1c0,22.2,15.7,45,38.6,52.3c6.5,2.1,13.3,3,20.2,3.6c7.6,0.7,15.2,1.1,22.3,2.6
		c0.6,0.1,1,0.2,1.6,0.3V364c-0.5-0.1-1-0.2-1.5-0.3c-7.2-1.5-14.8-1.9-22.4-2.6c-6.8-0.6-13.6-1.5-20-3.5
		c-22.6-7.3-38.1-29.8-38.1-51.7c0-1,0-2.1,0.1-3c0.3-4.4,1-8.6,2-12.8c-0.5,2.7-0.9,5.5-1,8.2c-0.1,1.2-0.1,2.3-0.1,3.5
		c0,22.8,14.8,46.1,37.4,53.5c6.4,2.1,13.3,3,20.2,3.6c7.6,0.7,15.3,1,22.4,2.5c0.3,0.1,0.8,0.1,1.1,0.2v-0.7
		c-0.3-0.1-0.6-0.1-1-0.2c-7.2-1.5-14.8-1.8-22.4-2.5c-6.8-0.6-13.7-1.5-20-3.5c-22.2-7.3-36.9-30.4-36.9-52.9
		c0-1.2,0.1-2.3,0.1-3.5c0.3-4.1,1-8.2,1.9-12.2c-0.5,2.5-0.8,5-1,7.5c-0.1,1.3-0.1,2.6-0.1,3.9c0,23.4,14,47.2,36.2,54.8
		c10.2,3.5,21.7,3.5,32.6,4.6c3.6,0.3,7.2,0.8,10.6,1.5v-0.7c-3.4-0.7-7-1.1-10.5-1.5c-10.9-1-22.3-1.1-32.4-4.6
		c-21.8-7.3-35.7-30.9-35.7-54.1c0-1.3,0.1-2.6,0.1-3.9c0.2-3.5,0.8-6.9,1.5-10.3c3.4-3.5,7.2-7.2,11.2-11.3c3.2-3,6.6-6.1,10.1-9.6
		c3-2.6,6.1-5.5,9.2-8.6c2.9-2.5,5.8-5.1,8.8-8c2.8-2.3,5.7-4.9,8.5-7.7c2.6-2.2,5.3-4.6,7.9-7c0.1-0.1,0.2-0.2,0.3-0.3
		c2.2-1.8,4.4-3.7,6.6-5.7c0.6-0.5,1.1-1,1.6-1.5c1.8-1.5,3.5-3,5.2-4.5c0.9-0.8,1.8-1.7,2.7-2.6c1.4-1.1,2.8-2.3,4.1-3.5
		c0.2-0.2,0.4-0.4,0.7-0.6v-2.9c-0.7,0.5-1.5,0.9-2.1,1.4c0.6-0.8,1.2-1.7,1.7-2.6c0.1-0.1,0.3-0.2,0.5-0.3v-1.9
		c-0.3,0.5-0.6,1-1,1.5c-1.4,0.8-2.8,1.6-4.3,2.3c2.2-4.1,4-8.4,5.2-12.6v-2.8c-1.2,5.5-3.5,10.8-6.4,16c-1.5,0.8-3,1.7-4.6,2.5
		c3.4-7.2,5.5-14.7,5.5-22.1c0-4.7-0.8-9.4-2.7-13.9c-3.5-8.5-9.7-14.6-16.8-20.5c-8.6-7.2-18.9-11.7-28-17.4
		c-13.3-8.2-23.2-19.1-29.9-34.7c-8.2-19.1-11.9-40.7-15.7-61c-2.7-14.3-6.8-29.1-12.6-42.5h-0.8c5.9,13.3,9.9,28.2,12.7,42.5
		c3.8,20.3,7.5,41.9,15.7,61.2c6.8,15.7,16.9,26.7,30.2,35c9.2,5.7,19.4,10.2,27.8,17.3c7,5.9,13.2,11.9,16.6,20.2
		c1.8,4.4,2.6,9,2.6,13.6c0,7.6-2.2,15.3-5.8,22.7c-1.7,0.9-3.2,1.7-4.9,2.6c2.6-6.3,4.1-12.8,4.1-19.1c0-4.6-0.8-9-2.5-13.4
		c-3.3-8.4-9.3-14.5-16.1-20.4c-8.3-7.4-18.4-11.9-27.4-17.3c-13.1-7.9-23.1-18.3-29.8-33.9C553,93.3,549.5,71.9,546,51.8
		c-3.2-17.3-8.1-35.4-15.8-50.6h-0.8c7.7,15.1,12.7,33.4,15.8,50.8c3.6,20.1,7.1,41.5,15.3,60.5c6.8,15.7,16.9,26.2,30.1,34.2
		c9,5.5,19.1,10,27.3,17.3c6.7,6,12.7,12,15.9,20.2c1.7,4.3,2.4,8.7,2.4,13.1c0,6.6-1.7,13.3-4.4,19.7c-1.7,1-3.5,1.9-5.2,2.8
		c1.9-5.4,3-10.9,3-16.4c0-4.4-0.7-8.7-2.3-12.9c-3.1-8.3-8.9-14.4-15.4-20.4c-8.1-7.5-18-11.9-26.9-17.3
		c-13-7.7-23.1-17.5-29.8-33.1c-8.1-18.7-11.4-39.8-14.7-59.7c-2.9-17.5-7.7-35.9-15.2-51.2c-1.3-2.6-2.7-5.2-4.1-7.6h-0.8
		c1.5,2.5,3,5.2,4.3,7.9c7.5,15.2,12.2,33.6,15.1,51c3.3,19.9,6.7,41,14.8,59.9c6.7,15.7,17,25.7,30,33.4c9,5.3,18.9,9.7,26.8,17.2
		c6.5,6.1,12.2,12.1,15.3,20.2c1.5,4.1,2.3,8.4,2.3,12.6c0,5.6-1.2,11.3-3.3,16.9c-1.9,1-3.7,2.1-5.5,3.2c1.5-4.6,2.2-9.3,2.2-14
		c0-4.2-0.7-8.4-2.1-12.4c-3-8.2-8.5-14.3-14.7-20.4c-7.8-7.7-17.5-12.1-26.5-17.2c-12.8-7.5-23.1-16.8-29.7-32.3
		c-7.9-18.6-11.2-39.3-14.2-59c-2.7-17.3-7-35.4-14.1-50.6c-2.6-5.9-5.8-11.5-9.4-16.3h-0.9c3.7,4.9,7,10.5,9.8,16.6
		c7,15.1,11.3,33.2,14,50.4c3,19.8,6.3,40.5,14.3,59.2c6.7,15.7,17.1,25.1,30,32.6c8.9,5.2,18.6,9.5,26.3,17.1
		c6.2,6.1,11.7,12.2,14.6,20.2c1.5,3.9,2.1,8.1,2.1,12.2c0,4.8-0.9,9.7-2.4,14.5c-1.9,1.2-3.9,2.3-5.8,3.6c1.1-4,1.7-8,1.7-12
		c0-4-0.6-8-1.9-11.9c-2.8-8.1-8.1-14.2-14.1-20.4c-7.5-7.9-17.1-12.2-26-17.2c-12.7-7.2-23-16-29.6-31.5
		c-7.9-18.4-10.9-38.9-13.7-58.4c-2.5-17.1-6.4-34.9-12.9-50.1c-4.3-9.7-9.7-18.4-16.4-24.9h-1c6.9,6.4,12.4,15.2,16.8,25.3
		c6.5,15,10.4,32.9,12.9,49.9C532,96,535,116.5,543,135c6.7,15.6,17.1,24.7,29.9,31.8c8.8,5,18.4,9.3,25.8,17.1
		c5.9,6.2,11.2,12.2,13.9,20.2c1.3,3.8,1.9,7.7,1.9,11.7c0,4.1-0.7,8.4-1.9,12.6c-1.9,1.2-3.7,2.5-5.5,3.8c-0.2,0.1-0.4,0.3-0.6,0.5
		c0.9-3.6,1.4-7.2,1.4-10.8c0-3.8-0.6-7.6-1.7-11.3c-2.6-8-7.7-14.1-13.4-20.4c-7.3-8.1-16.6-12.4-25.4-17.1
		c-12.6-6.9-22.9-15.3-29.6-30.7c-7.8-18.2-10.7-38.4-13.3-57.7c-2.2-16.9-5.8-34.5-11.8-49.5c-6-15.1-14.5-27.4-26.5-33.6
		c-0.2-0.1-0.3-0.2-0.6-0.3h-1.6c0.6,0.3,1.2,0.6,1.8,0.9c11.7,6,20.2,18.2,26.1,33.1c6,14.9,9.5,32.5,11.8,49.4
		c2.6,19.3,5.5,39.6,13.3,57.9c6.7,15.6,17.2,24.1,29.8,31c8.8,4.8,18.1,9,25.3,17c5.7,6.3,10.7,12.4,13.3,20.2
		c1.2,3.7,1.7,7.4,1.7,11.1c0,3.8-0.6,7.6-1.5,11.5c-2.2,1.7-4.3,3.5-6.4,5.3c0.8-3.5,1.3-7.1,1.3-10.7c0-3.7-0.5-7.3-1.6-10.8
		c-2.4-7.9-7.3-14-12.7-20.4c-7-8.3-16.2-12.4-24.9-17.1c-12.5-6.6-22.9-14.5-29.5-29.8c-7.7-18-10.4-37.9-12.8-57
		c-2-16.6-5.2-34-10.7-49s-13.3-27.3-24.7-33.8C478,6.6,472.3,5,466.5,4.5c-1.4-0.1-2.8-0.2-4.2-0.2c-8.2,0-16.5,2.1-24,5.3
		c-14.2,5.9-26.9,16.3-44.5,25.5c-19.5,10.2-46.1,21.6-69.4,26.1c-4.3,0.8-8.4,1.4-12.2,1.8c-5.3,0.6-10.2,1-15.1,1
		c-7,0-14-0.8-21.9-2.7c-12-2.9-24.9-9-38.3-11.5c-4.3-0.8-8.6-1.3-13-1.3c-2.6,0-5.1,0.1-7.7,0.5c-14.2,1.7-26.4,8.1-36.6,17
		c-5.7,5-10.8,10.7-15.3,16.9c0.1-0.8,0.1-1.7,0.1-2.6c4.6-6.9,9.9-13.3,15.9-18.8c10-9,22-15.5,36.1-17.3c2.6-0.3,5-0.5,7.5-0.5
		c4.5,0,8.8,0.5,13.1,1.4c13.3,2.6,26.1,9,38.2,12.4c10.4,3,19.1,4.1,28.5,4.1c3,0,6-0.1,9.2-0.3c3.9-0.3,8.1-0.7,12.4-1.4
		c23.7-3.9,50.2-15.8,69.6-26.7c17.7-10.1,30.4-21.5,44.6-28.6c2.6-1.2,5.2-2.3,7.9-3.4h-1.9c-2.1,0.8-4.2,1.7-6.2,2.8
		c-14.4,7.1-26.9,18.6-44.6,28.6c-19.3,10.9-45.8,22.9-69.3,26.7c-4.4,0.7-8.5,1.1-12.4,1.4c-3.2,0.2-6.1,0.3-9.1,0.3
		c-9.3,0-18-1.2-28.3-4.1c-12-3.5-24.9-9.7-38.3-12.4c-4.4-0.9-8.8-1.4-13.3-1.4c-2.5,0-5,0.1-7.5,0.5c-14.2,1.7-26.4,8.3-36.5,17.4
		c-5.8,5.2-10.9,11.4-15.4,18c0.1-0.8,0.1-1.7,0.1-2.4c4.5-7.3,9.9-14.2,16-20c9.9-9.3,21.8-16,35.9-17.7c2.5-0.3,4.9-0.4,7.3-0.4
		c4.6,0,9,0.5,13.3,1.5c13.3,2.8,26,9.3,38.1,13.3c12.6,4.1,23.1,5.9,35.1,5.9c1,0,2,0,3,0c4-0.1,8.1-0.3,12.6-1
		c24-3.2,50.4-15.5,69.6-27.3c15.8-10,27.7-21.4,40.6-29.6h-1.3c-12.6,8.1-24.3,19.2-40.1,28.9c-19.1,11.7-45.6,24-69.3,27.2
		c-4.4,0.6-8.6,0.8-12.5,0.9c-1,0-2,0-3,0c-11.9,0-22.3-1.7-34.9-5.9c-12-3.9-24.9-10.5-38.2-13.3c-4.4-1-8.9-1.5-13.5-1.5
		c-2.4,0-4.9,0.1-7.4,0.5c-14.3,1.7-26.4,8.5-36.3,17.8c-5.9,5.6-11,12.1-15.5,19.1c0-0.8,0.1-1.5,0.1-2.3
		c4.5-7.7,9.8-15.1,16.1-21.2c9.7-9.5,21.7-16.3,35.8-18.1c2.4-0.3,4.8-0.4,7.1-0.4c4.6,0,9.1,0.6,13.5,1.5c13.2,2.9,26,9.7,38,14.2
		c13.5,5,24.9,7.6,38.4,7.9c0.8,0,1.7,0,2.5,0c3.3,0,6.7-0.1,10.3-0.6c24.2-2.6,50.6-15.3,69.6-27.9c13.3-8.8,23.5-18.7,34-27.1
		h-1.1c-10.3,8.2-20.4,17.9-33.3,26.5C376.4,40,350,52.7,326.1,55.3c-3.5,0.3-7,0.5-10.2,0.5c-0.8,0-1.7,0-2.5,0
		c-13.4-0.3-24.7-2.8-38.2-7.9c-12-4.5-24.8-11.3-38.1-14.2c-4.5-1-9-1.6-13.7-1.6c-2.3,0-4.8,0.1-7.2,0.4
		c-14.3,1.8-26.4,8.6-36.2,18.2c-6,5.9-11.2,12.8-15.5,20.2c0-0.7,0.1-1.4,0.1-2.1c4.4-8.3,9.8-16,16.2-22.5
		c9.6-9.7,21.5-16.7,35.6-18.5c2.3-0.3,4.7-0.4,7-0.4c4.7,0,9.3,0.6,13.7,1.7c13.2,3,25.8,10.1,37.9,15.1c13.5,5.6,25.1,9,38.8,9.9
		c2,0.1,4.1,0.2,6.2,0.2c2.2,0,4.4-0.1,6.7-0.3c24.5-1.7,50.9-14.8,69.7-28.2c11-7.9,20-16.6,28.7-24.6h-1
		c-8.6,7.9-17.3,16.4-28.1,24c-18.7,13.3-45,26.5-69.3,28.4c-2.3,0.2-4.5,0.3-6.6,0.3s-4.1-0.1-6.1-0.2c-13.5-0.9-25.1-4.3-38.5-9.9
		c-12-5-24.7-12-38.1-15.1c-4.5-1-9.1-1.7-13.9-1.7c-2.3,0-4.7,0.1-7,0.4c-14.4,1.8-26.4,8.8-36,18.6c-6.1,6.2-11.4,13.6-15.7,21.4
		c0-0.6,0.1-1.2,0.1-1.9c4.4-8.8,9.7-17.1,16.4-24c9.5-9.9,21.3-17.1,35.5-18.9c2.3-0.3,4.6-0.4,6.8-0.4c4.8,0,9.4,0.6,14,1.7
		c13.2,3.2,25.8,10.4,37.8,16c13.5,6.2,25.3,10.6,39.2,12c2.9,0.3,5.9,0.5,9,0.5c1.3,0,2.7,0,4-0.1c24.7-1.3,51-14.8,69.6-29.1
		c9.2-7,16.9-14.7,24.3-22.1h-1c-7.3,7.3-14.8,14.7-23.8,21.6C378.2,37,352,50.5,327.5,51.8c-1.4,0.1-2.7,0.1-4,0.1
		c-3.1,0-6.1-0.2-9-0.5c-13.7-1.5-25.4-5.7-39-11.9c-12-5.5-24.7-12.8-37.9-16c-4.6-1.1-9.3-1.7-14.1-1.7c-2.3,0-4.6,0.1-6.9,0.4
		c-14.4,1.8-26.3,9-35.9,19.1c-6.3,6.6-11.5,14.4-15.7,22.7c0-0.6,0.1-1.1,0.1-1.7c4.2-9.3,9.7-18.2,16.4-25.6
		c9.3-10.2,21.1-17.5,35.3-19.3c2.3-0.3,4.5-0.4,6.7-0.4c4.8,0,9.5,0.6,14.1,1.8c13.2,3.3,25.7,10.8,37.7,16.9
		c13.5,6.8,25.5,12,39.5,14c3.7,0.6,7.4,0.8,11.4,0.8c0.6,0,1.2,0,1.9,0c24.9-0.7,51.2-14.6,69.6-29.6c7.7-6.3,14.3-13,20.6-19.7h-1
		c-6.1,6.5-12.6,13.1-20,19.1c-18.4,14.8-44.6,28.8-69.3,29.4c-0.6,0-1.2,0-1.9,0c-3.9,0-7.7-0.3-11.3-0.8c-13.9-2-25.8-7.3-39.3-14
		c-12-6-24.6-13.5-37.8-16.9c-4.6-1.2-9.4-1.9-14.3-1.9c-2.2,0-4.5,0.1-6.8,0.4c-14.4,1.8-26.3,9.3-35.8,19.5
		c-6.4,7-11.7,15.3-15.8,24.1c0-0.5,0.1-0.9,0.1-1.4c4.1-9.9,9.6-19.3,16.5-27.1c9.2-10.4,20.9-18,35.2-19.8
		c2.2-0.3,4.4-0.4,6.6-0.4c4.9,0,9.7,0.7,14.3,1.9c13.2,3.5,25.6,11.1,37.6,17.7c13.5,7.3,25.7,13.5,39.9,16.1
		c4.3,0.8,8.7,1.2,13.3,1.2l0,0c25.2-0.1,51.5-14.4,69.6-30.2c6.4-5.5,11.9-11.3,17.3-17.2h-0.9c-5.2,5.7-10.6,11.4-16.7,16.7
		c-18.1,15.7-44.2,30-69.2,30l0,0c-4.6,0-9-0.5-13.3-1.2c-14.1-2.6-26.2-8.7-39.7-16c-12-6.6-24.4-14.3-37.8-17.7
		c-4.7-1.2-9.5-1.9-14.4-1.9c-2.2,0-4.4,0.1-6.6,0.4c-14.5,1.8-26.3,9.4-35.6,20c-6.5,7.4-11.7,16.2-15.8,25.5c0-0.3,0.1-0.7,0.1-1
		c4-10.6,9.5-20.6,16.5-28.9c9-10.6,20.7-18.3,35-20.1c2.2-0.3,4.4-0.4,6.4-0.4c5,0,9.7,0.7,14.4,2C251,12,263.4,19.9,275.4,27
		c13.5,7.9,25.9,14.9,40.3,18.2c4.4,1,8.8,1.6,13.5,1.7c0.5,0,1,0,1.5,0c25,0,50.4-14.6,68.1-30.8c5.1-4.7,9.7-9.7,14.2-14.8H412
		c-4.3,4.9-8.8,9.7-13.7,14.2c-17.5,16.2-42.9,30.6-67.6,30.6c-0.5,0-1,0-1.5,0c-4.7-0.1-9.1-0.8-13.4-1.7
		c-14.2-3.2-26.6-10.2-40.1-18.1c-12-7-24.4-15.1-37.7-18.6c-4.7-1.3-9.6-2-14.6-2c-2.1,0-4.4,0.1-6.6,0.4
		c-14.5,1.8-26.3,9.6-35.4,20.4c-6.6,7.8-11.8,17.1-15.7,26.9c0-0.2,0.1-0.4,0.1-0.6c3.8-11.2,9.3-22,16.5-30.8
		c9-10.9,20.6-18.7,34.9-20.6c0.5-0.1,1-0.1,1.5-0.1h-4.8c-13.1,2.6-23.8,10.1-32.1,20.2c-6.6,8.1-11.7,17.7-15.5,27.9
		c3.6-11.7,9-23.1,16.4-32.4c5.2-6.6,11.3-12,18.4-15.7h-1.5c-6.7,3.8-12.5,9-17.5,15.3c-6.2,7.8-11,17.1-14.6,26.9
		c3.4-11.4,8.5-22.4,15.4-31.4c3.1-4.1,6.6-7.7,10.4-10.8h-1.1c-3.6,3-6.9,6.6-9.9,10.4c-5.8,7.6-10.4,16.6-13.7,26
		c3.2-11,8-21.8,14.5-30.6c1.5-2.1,3.2-4,4.8-5.9H187c-1.6,1.7-3,3.5-4.5,5.5c-5.4,7.3-9.7,16-12.8,25c2.6-9,6.1-17.7,10.9-25.4
		c1.1-1.7,2.2-3.5,3.4-5h-0.8c-1.1,1.5-2.1,3.1-3.1,4.7c-6.9,11.2-11.4,24.6-13.8,37.8c-0.3,1.5-0.6,2.8-1,4.3
		c-0.1,0.5-0.2,1-0.3,1.5c-0.2,0.9-0.4,1.9-0.6,2.8c-0.2,1.1-0.5,2.1-0.7,3.2c-0.1,0.3-0.1,0.6-0.3,1c-0.4,1.7-0.8,3.3-1.1,5
		c-0.5,1.9-1,3.8-1.4,5.7c-0.6,1.9-1,3.9-1.5,5.9c-0.5,1.7-1,3.5-1.4,5.2c-0.1,0.2-0.1,0.5-0.1,0.7c-0.3,1.1-0.6,2.2-1,3.3
		c-0.2,0.9-0.5,1.7-0.7,2.6c-0.1,0.5-0.3,1-0.4,1.5c-0.5,1.6-0.9,3.2-1.3,4.8c-0.7,2.1-1.3,4.2-1.9,6.4c-0.7,2.1-1.4,4.3-2.1,6.4
		c-0.8,2.1-1.5,4.3-2.2,6.5c-0.8,2.1-1.6,4.4-2.3,6.6c-0.8,2.2-1.7,4.4-2.6,6.7c-0.9,2.3-1.9,4.5-2.8,6.8c-1,2.3-2,4.6-3,6.8
		c-1.1,2.3-2.1,4.8-3.2,7.1c-1.2,2.4-2.3,4.8-3.5,7.3c-1.3,2.5-2.6,5-3.9,7.5c-1.5,2.7-3,5.3-4.5,8c-1.8,3-3.6,6-5.5,8.9
		c-0.6,0.9-1.2,1.8-1.8,2.7c-12.1,5.9-25.6,9.1-39,9.5c-1,0-1.9,0.1-2.8,0.1c-26,0-51.5-9.7-73.5-24v0.8
		c22,14.2,47.4,23.8,73.5,23.8c1,0,1.9,0,2.8-0.1c13.1-0.3,26.3-3.5,38.2-9c-0.1,0.1-0.2,0.3-0.3,0.5c-10.4,5.3-22,8.6-33.6,9.7
		c-2.3,0.2-4.7,0.3-7,0.4c-0.6,0-1.3,0-1.9,0c-25.6,0-50.6-9.7-71.5-23.8v0.8c21,14,45.9,23.6,71.5,23.6c0.6,0,1.3,0,1.9,0
		c2.3-0.1,4.8-0.2,7.1-0.4c11.3-1.1,22.6-4.2,32.8-9.3c-0.1,0.1-0.2,0.3-0.3,0.4c-10.9,5.8-23.1,9.4-35.4,10.5
		c-2.3,0.2-4.7,0.3-7,0.3c-0.3,0-0.7,0-1,0c-25.1,0-49.4-9.5-69.6-23.5v0.8c20.2,13.8,44.5,23.3,69.6,23.3c0.3,0,0.7,0,1.1,0
		c2.3,0,4.8-0.1,7.1-0.3c12-1.1,23.8-4.5,34.5-9.9c-0.1,0.1-0.1,0.2-0.2,0.3c-11.3,6.3-24.2,10.2-37.2,11.3c-2.3,0.2-4.7,0.3-7,0.3
		c-0.1,0-0.1,0-0.3,0c-24.5,0-48.3-9.4-67.6-23.1v0.8c19.3,13.6,43.1,22.9,67.6,22.9c0.1,0,0.1,0,0.3,0c2.3,0,4.7-0.1,7.1-0.3
		c12.6-1,25.1-4.7,36.3-10.7c-0.1,0.1-0.1,0.1-0.2,0.3c-11.8,6.8-25.3,11-39,12.1c-2.2,0.1-4.4,0.3-6.6,0.3c-0.1,0-0.3,0-0.5,0
		c-23.3-0.3-46.3-9.5-64.7-22.8v0.8c18.4,13.2,41.3,22.2,65,22.4c0.1,0,0.3,0,0.5,0c2.2,0,4.4-0.1,6.6-0.3c13.3-1,26.5-5,38-11.4
		c-0.1,0.1-0.1,0.1-0.1,0.1C98.2,193.5,84,198,69.6,199c-1.9,0.1-3.9,0.2-5.9,0.2c-0.4,0-0.8,0-1.2,0c-22.7-0.3-44.8-9.2-62.2-22
		v0.8c17.5,12.7,39.4,21.5,62.2,21.8c0.4,0,0.8,0,1.2,0c1.9,0,3.9-0.1,5.9-0.2c14-1,27.7-5.2,39.7-12.2c0,0,0,0.1-0.1,0.1
		C96.7,195.6,81.9,200.4,66.8,201.3z M128,169c0.2-0.3,0.4-0.8,0.6-1.1c0.1-0.1,0.1-0.1,0.1-0.1C128.5,168.1,128.2,168.5,128,169z
		 M128.1,167.4c-0.1,0.1-0.1,0.1-0.1,0.1c0.6-1,1.2-2.1,1.7-3.2c0.1-0.1,0.3-0.3,0.3-0.4c-0.4,0.8-0.8,1.5-1.3,2.3
		C128.6,166.7,128.3,167,128.1,167.4z M131.1,165.1c0.1-0.1,0.2-0.2,0.3-0.3c-0.6,1-1.2,1.9-1.7,2.8
		C130.1,166.7,130.6,165.9,131.1,165.1z M161.8,83.9c-0.1,0.8-0.1,1.6-0.1,2.3c-0.3,0.4-0.6,0.8-0.8,1.2c0.1-0.8,0.1-1.5,0.2-2.3
		C161.3,84.7,161.5,84.3,161.8,83.9z M161.1,83.5c0.1-0.7,0.1-1.4,0.2-2.1c0.2-0.4,0.4-0.8,0.7-1.2c-0.1,0.7-0.1,1.5-0.1,2.1
		C161.6,82.8,161.4,83.2,161.1,83.5z M161.5,87.6c-0.1,0.8-0.1,1.7-0.2,2.5c-0.3,0.4-0.6,0.8-0.9,1.2c0.1-0.8,0.1-1.7,0.2-2.5
		C160.9,88.4,161.2,88,161.5,87.6z M161.3,91.5c-0.1,0.9-0.1,1.8-0.2,2.6c-0.3,0.4-0.6,0.8-1,1.2c0.1-0.9,0.1-1.7,0.2-2.6
		C160.7,92.3,160.9,91.9,161.3,91.5z M158.3,105.9c-0.1,1-0.3,2-0.3,3c-0.3,0.4-0.7,0.8-1,1.2c0.1-1,0.3-1.9,0.4-2.9
		C157.6,106.8,158,106.4,158.3,105.9z M157.5,105.9c0.1-0.9,0.2-1.9,0.3-2.8c0.3-0.4,0.6-0.8,1-1.3c-0.1,1-0.2,1.9-0.3,2.8
		C158.1,105.1,157.8,105.5,157.5,105.9z M157.8,110.2c-0.1,1-0.3,2.1-0.5,3.1c-0.3,0.4-0.8,0.8-1.1,1.2c0.1-1,0.3-2.1,0.5-3
		C157,111,157.4,110.6,157.8,110.2z M154.2,121.3c-0.2,1.1-0.5,2.2-0.7,3.3c-0.3,0.4-0.8,0.8-1.1,1.2c0.3-1.1,0.5-2.1,0.7-3.2
		C153.6,122.1,153.9,121.6,154.2,121.3z M153.5,121.2c0.2-1,0.4-2.1,0.6-3.1c0.3-0.4,0.7-0.8,1-1.2c-0.2,1-0.3,2.1-0.6,3.1
		C154.2,120.3,153.8,120.8,153.5,121.2z M153.3,125.9c-0.3,1.2-0.6,2.3-0.8,3.5c-0.3,0.3-0.8,0.8-1.1,1.1c0.3-1.1,0.6-2.3,0.8-3.4
		C152.5,126.7,152.9,126.3,153.3,125.9z M152.1,130.7c-0.3,1.2-0.7,2.4-1,3.7c-0.3,0.3-0.7,0.7-1.1,1c0.3-1.2,0.7-2.3,1-3.5
		C151.3,131.5,151.7,131,152.1,130.7z M150.6,135.7c-0.4,1.3-0.8,2.6-1.3,3.9c-0.3,0.3-0.7,0.6-1,1c0.4-1.2,0.9-2.5,1.2-3.7
		C149.9,136.4,150.2,136,150.6,135.7z M150.4,131.5c-0.3,0.3-0.7,0.8-1,1.1c0.3-1.1,0.6-2.1,0.8-3.2c0.3-0.4,0.7-0.8,1-1.2
		C150.9,129.2,150.7,130.4,150.4,131.5z M150,132.9c-0.3,1.2-0.7,2.3-1,3.5c-0.3,0.3-0.7,0.7-1,1c0.3-1.1,0.7-2.3,1-3.4
		C149.3,133.7,149.6,133.3,150,132.9z M148.4,137.9c-0.4,1.2-0.8,2.5-1.3,3.7c-0.3,0.3-0.7,0.6-1,1c0.4-1.2,0.8-2.4,1.2-3.6
		C147.8,138.6,148.1,138.2,148.4,137.9z M146.8,138.6c-0.3,0.3-0.7,0.7-1,1c0.3-1.1,0.7-2.2,1-3.3c0-0.1,0.1-0.1,0.1-0.1
		c0.3-0.3,0.6-0.7,0.9-1C147.5,136.3,147.1,137.5,146.8,138.6z M146,140.4c0.1-0.1,0.2-0.2,0.3-0.3c-0.4,1.2-0.8,2.4-1.3,3.6
		c-0.1,0.1-0.3,0.3-0.3,0.3c-0.2,0.2-0.3,0.4-0.6,0.6c0.4-1.2,0.8-2.3,1.2-3.5C145.5,140.9,145.7,140.6,146,140.4z M144.4,145.3
		c-0.5,1.3-1,2.6-1.6,3.9c-0.3,0.3-0.6,0.6-0.8,0.8c0.6-1.2,1-2.5,1.5-3.7C143.7,146,144,145.7,144.4,145.3z M145.6,144.1
		c0.3-0.3,0.6-0.7,1-1c-0.6,1.4-1.1,2.7-1.7,4c-0.3,0.3-0.6,0.6-0.9,0.8C144.6,146.6,145.1,145.4,145.6,144.1z M147.8,142
		c0.3-0.3,0.7-0.6,1-1c-0.5,1.3-1,2.7-1.6,4c0,0.1-0.1,0.1-0.1,0.1c-0.3,0.3-0.6,0.6-0.9,0.8C146.7,144.6,147.3,143.3,147.8,142z
		 M149.9,140c0.3-0.3,0.7-0.6,1-1c-0.3,1-0.8,2-1.2,3c-0.2,0.4-0.3,0.8-0.6,1.2c-0.3,0.3-0.6,0.6-1,0.8
		C148.9,142.7,149.4,141.3,149.9,140z M150.4,138.6c0.4-1.2,0.8-2.6,1.2-3.9c0.3-0.3,0.8-0.7,1.1-1c-0.4,1.3-0.8,2.6-1.3,4
		C151.1,137.9,150.7,138.2,150.4,138.6z M152,133.3c0.3-1.2,0.7-2.4,1-3.7c0.4-0.4,0.8-0.8,1.2-1.1c-0.3,1.2-0.7,2.5-1,3.7
		C152.8,132.6,152.4,133,152,133.3z M153.4,128.4c0.3-1.2,0.6-2.3,0.8-3.5c0.4-0.4,0.8-0.8,1.2-1.2c-0.3,1.2-0.6,2.4-0.8,3.6
		C154.2,127.7,153.8,128,153.4,128.4z M154.5,123.7c0.2-1.1,0.5-2.2,0.7-3.3c0.3-0.4,0.8-0.8,1.1-1.2c-0.2,1.1-0.4,2.3-0.7,3.4
		C155.3,122.8,154.9,123.2,154.5,123.7z M155.4,119c0.2-1,0.4-2.1,0.6-3.2c0.3-0.4,0.8-0.8,1.1-1.2c-0.2,1.1-0.3,2.1-0.6,3.2
		C156.2,118.2,155.8,118.6,155.4,119z M156,111.2c-0.3,0.4-0.6,0.8-1,1.2c0.1-0.9,0.3-1.9,0.4-2.8c0.3-0.4,0.6-0.8,1-1.2
		C156.3,109.3,156.2,110.2,156,111.2z M155.8,112.5c-0.1,1-0.3,2-0.5,3c-0.3,0.4-0.7,0.8-1,1.2c0.2-1,0.3-1.9,0.5-2.9
		C155.1,113.4,155.5,112.9,155.8,112.5z M154.2,113.5c-0.3,0.4-0.6,0.8-0.9,1.2c0.1-0.9,0.3-1.7,0.5-2.6c0.3-0.4,0.6-0.8,0.9-1.2
		C154.5,111.7,154.3,112.6,154.2,113.5z M153.9,115c-0.1,1-0.3,1.9-0.5,2.8c-0.3,0.4-0.6,0.8-1,1.2c0.2-0.9,0.3-1.9,0.6-2.8
		C153.3,115.7,153.6,115.3,153.9,115z M153.1,119.2c-0.2,1-0.4,2-0.6,3c-0.3,0.4-0.7,0.8-1,1.2c0.2-1,0.4-1.9,0.6-2.9
		C152.5,120,152.8,119.6,153.1,119.2z M152.2,123.6c-0.2,1-0.5,2.1-0.7,3.2c-0.3,0.3-0.7,0.8-1,1.1c0.3-1,0.5-2.1,0.7-3.1
		C151.6,124.4,151.9,124,152.2,123.6z M150.6,124.5c-0.3,0.3-0.6,0.8-0.9,1.1c0.2-0.9,0.4-1.9,0.6-2.8c0.3-0.4,0.6-0.8,0.9-1.2
		C151,122.5,150.8,123.5,150.6,124.5z M150.2,125.9c-0.2,1-0.5,2-0.8,3c-0.3,0.3-0.6,0.8-1,1.1c0.3-1,0.5-1.9,0.8-3
		C149.6,126.8,150,126.3,150.2,125.9z M149.1,130.5c-0.3,1.1-0.6,2.1-0.9,3.2c-0.3,0.3-0.7,0.7-1,1.1c0.3-1,0.6-2.1,0.9-3.1
		C148.5,131.2,148.8,130.8,149.1,130.5z M147.5,131.3c-0.1,0.1-0.1,0.1-0.2,0.2c-0.2,0.3-0.5,0.6-0.7,0.8c0.3-0.9,0.5-1.9,0.8-2.8
		c0.3-0.4,0.6-0.8,0.9-1.2C148,129.4,147.8,130.4,147.5,131.3z M147.1,132.9c-0.3,1-0.6,2-0.8,3c-0.3,0.3-0.6,0.7-0.9,1.1
		c0.3-1,0.6-2,0.8-3C146.4,133.7,146.8,133.3,147.1,132.9z M145.7,137.6c-0.3,1.1-0.7,2.1-1,3.2c-0.3,0.3-0.6,0.7-0.9,1
		c0.3-1,0.7-2.1,1-3.2C145.1,138.3,145.4,137.9,145.7,137.6z M144.1,142.4c-0.4,1.2-0.8,2.3-1.3,3.5c-0.3,0.3-0.6,0.6-0.9,0.9
		c0.4-1.1,0.8-2.2,1.2-3.4C143.5,143.1,143.8,142.8,144.1,142.4z M142.6,143.1c-0.3,0.3-0.6,0.7-0.8,1c0.3-1,0.7-2,1-3
		c0.3-0.3,0.6-0.7,0.9-1.1C143.3,141.1,142.9,142.1,142.6,143.1z M142,144.9c-0.4,1.1-0.8,2.2-1.2,3.3c-0.3,0.3-0.6,0.6-0.8,0.9
		c0.4-1,0.8-2.1,1.2-3.2C141.4,145.5,141.7,145.3,142,144.9z M141.3,148.6c0.3-0.3,0.6-0.6,0.9-1c-0.5,1.2-1,2.5-1.6,3.7
		c-0.3,0.3-0.6,0.6-0.8,0.8C140.3,151,140.8,149.8,141.3,148.6z M139.9,154.4c0.4-0.9,0.8-1.8,1.2-2.6c0.3-0.3,0.6-0.6,0.8-0.8
		c0,0,0,0.1-0.1,0.1c-0.6,1.4-1.4,2.8-2.1,4.1c-0.2,0.2-0.4,0.4-0.6,0.6C139.5,155.4,139.7,154.9,139.9,154.4z M142.5,151.3
		c0.3-0.6,0.6-1.2,0.8-1.7c0.3-0.3,0.6-0.6,0.9-0.8c-0.7,1.5-1.4,3-2.2,4.4c-0.2,0.2-0.5,0.4-0.7,0.6
		C141.7,153,142.2,152.2,142.5,151.3z M145.1,148.3c0.1-0.3,0.2-0.6,0.3-0.8c0.3-0.3,0.6-0.6,0.9-0.8c-0.7,1.5-1.5,3-2.2,4.6
		c-0.2,0.2-0.5,0.4-0.7,0.6C144.1,150.7,144.6,149.5,145.1,148.3z M147.7,145.5c0.3-0.3,0.6-0.6,0.9-0.8c-0.7,1.6-1.5,3.1-2.3,4.6
		c-0.2,0.2-0.5,0.4-0.7,0.6C146.3,148.5,147,147.1,147.7,145.5z M149.8,143.6c0.3-0.3,0.6-0.6,0.9-0.8c-0.8,1.6-1.5,3.2-2.3,4.8
		c-0.2,0.2-0.5,0.4-0.7,0.6C148.4,146.7,149.1,145.2,149.8,143.6z M150.4,142.2L150.4,142.2c0.6-1.4,1.1-2.8,1.6-4.2
		c0.3-0.3,0.7-0.6,1.1-1c-0.2,0.6-0.5,1.2-0.7,1.9c-0.3,0.8-0.7,1.7-1,2.5C151.1,141.7,150.7,142,150.4,142.2z M152.5,136.6
		c0.5-1.3,0.9-2.6,1.3-4c0.4-0.3,0.8-0.7,1.2-1c-0.4,1.4-0.9,2.8-1.4,4.1C153.2,136,152.9,136.4,152.5,136.6z M154.1,131.4
		c0.3-1.2,0.7-2.5,1-3.7c0.4-0.3,0.8-0.8,1.2-1.1c-0.3,1.3-0.7,2.6-1,3.9C154.9,130.7,154.5,131,154.1,131.4z M155.4,126.4
		c0.3-1.2,0.6-2.4,0.8-3.6c0.4-0.4,0.8-0.8,1.2-1.2c-0.3,1.2-0.6,2.5-0.8,3.7C156.2,125.7,155.8,126.1,155.4,126.4z M156.5,121.6
		c0.2-1.2,0.5-2.3,0.7-3.5c0.4-0.4,0.8-0.8,1.2-1.2c-0.2,1.2-0.4,2.3-0.7,3.5C157.3,120.8,156.9,121.2,156.5,121.6z M157.4,116.9
		c0.2-1.1,0.3-2.2,0.6-3.3c0.4-0.4,0.8-0.8,1.2-1.2c-0.1,1.1-0.3,2.3-0.6,3.4C158.2,116.1,157.8,116.5,157.4,116.9z M158.1,112.4
		c0.1-1,0.3-2.1,0.4-3.2c0.3-0.4,0.8-0.9,1.1-1.3c-0.1,1.1-0.3,2.1-0.4,3.2C158.9,111.6,158.5,112,158.1,112.4z M158.7,108
		c0.1-1,0.3-2,0.3-3c0.3-0.4,0.7-0.9,1.1-1.3c-0.1,1-0.2,2.1-0.3,3.1C159.5,107.1,159.1,107.6,158.7,108z M159.3,103.7
		c0.1-1,0.2-1.9,0.3-2.9c0.3-0.4,0.7-0.9,1-1.3c-0.1,1-0.2,2-0.3,3C160,102.8,159.6,103.2,159.3,103.7z M159.7,99.5
		c0.1-0.9,0.2-1.9,0.3-2.8c0.3-0.4,0.6-0.9,1-1.3c-0.1,1-0.1,1.9-0.2,2.8C160.4,98.6,160,99.1,159.7,99.5z M160,88.6
		c-0.2,0.3-0.5,0.8-0.7,1.1c0.1-0.7,0.1-1.4,0.2-2.1c0.2-0.3,0.4-0.8,0.6-1.1C160.2,87.2,160.1,87.9,160,88.6z M159.9,90.2
		c-0.1,0.8-0.1,1.6-0.2,2.3c-0.3,0.4-0.6,0.8-0.8,1.2c0.1-0.8,0.1-1.5,0.3-2.3C159.4,91,159.6,90.6,159.9,90.2z M159.6,94
		c-0.1,0.8-0.1,1.7-0.2,2.5c-0.3,0.4-0.6,0.8-0.8,1.2c0.1-0.8,0.2-1.7,0.3-2.5C159,94.8,159.3,94.4,159.6,94z M159.2,97.8
		c-0.1,0.9-0.2,1.8-0.3,2.7c-0.3,0.4-0.6,0.8-0.9,1.2c0.1-0.9,0.2-1.7,0.3-2.6C158.6,98.7,158.9,98.2,159.2,97.8z M158,94.9
		c-0.2,0.3-0.5,0.7-0.7,1c0.1-0.7,0.2-1.4,0.3-2.1c0.2-0.3,0.4-0.8,0.6-1.1C158.2,93.5,158.2,94.2,158,94.9z M157.9,96.5
		c-0.1,0.8-0.2,1.6-0.3,2.3c-0.3,0.3-0.6,0.8-0.8,1.1c0.1-0.8,0.2-1.5,0.3-2.3C157.4,97.3,157.6,96.9,157.9,96.5z M157.5,100.3
		c-0.1,0.8-0.2,1.7-0.3,2.6c-0.3,0.4-0.6,0.8-0.8,1.2c0.1-0.8,0.2-1.7,0.3-2.5C156.9,101.1,157.2,100.7,157.5,100.3z M157,104.2
		c-0.1,0.9-0.2,1.8-0.3,2.7c-0.3,0.4-0.6,0.8-0.9,1.2c0.1-0.9,0.3-1.7,0.4-2.6C156.4,105.1,156.7,104.7,157,104.2z M156,101.3
		c-0.2,0.3-0.5,0.7-0.7,1c0.1-0.7,0.2-1.4,0.3-2.1c0.2-0.3,0.4-0.7,0.6-1.1C156.2,99.9,156.1,100.6,156,101.3z M155.8,102.9
		c-0.1,0.8-0.2,1.6-0.3,2.3c-0.3,0.3-0.5,0.8-0.8,1.1c0.1-0.8,0.3-1.5,0.3-2.3C155.3,103.7,155.5,103.3,155.8,102.9z M155.2,106.8
		c-0.1,0.8-0.3,1.7-0.3,2.6c-0.3,0.3-0.6,0.8-0.8,1.1c0.1-0.8,0.3-1.7,0.4-2.5C154.7,107.6,154.9,107.2,155.2,106.8z M153.8,107.7
		c-0.2,0.3-0.4,0.7-0.7,1c0.1-0.7,0.3-1.4,0.4-2.1c0.2-0.3,0.4-0.7,0.6-1C154,106.3,153.8,107,153.8,107.7z M153.5,109.4
		c-0.1,0.8-0.3,1.6-0.4,2.3c-0.3,0.3-0.5,0.7-0.8,1c0.1-0.8,0.3-1.5,0.4-2.3C153,110.1,153.2,109.8,153.5,109.4z M152.8,113.4
		c-0.1,0.8-0.3,1.7-0.5,2.6c-0.3,0.3-0.6,0.8-0.8,1.1c0.1-0.8,0.3-1.7,0.5-2.5C152.2,114.1,152.5,113.7,152.8,113.4z M152,117.4
		c-0.1,0.9-0.3,1.8-0.6,2.7c-0.3,0.3-0.6,0.8-0.9,1.1c0.2-0.9,0.3-1.7,0.6-2.6C151.5,118.2,151.8,117.8,152,117.4z M150.5,118.3
		c-0.1,0.2-0.3,0.5-0.5,0.7c-0.1,0.1-0.1,0.2-0.2,0.3c0.1-0.8,0.3-1.5,0.5-2.3c0.2-0.3,0.5-0.7,0.7-1.1
		C150.9,116.7,150.7,117.6,150.5,118.3z M150.2,120c-0.2,0.8-0.3,1.7-0.6,2.5c-0.1,0.2-0.3,0.4-0.5,0.7c-0.1,0.1-0.2,0.3-0.3,0.4
		c0.2-0.8,0.3-1.6,0.6-2.4C149.7,120.8,149.9,120.4,150.2,120z M149.3,124.1c-0.2,0.9-0.4,1.8-0.6,2.7c-0.1,0.2-0.3,0.3-0.4,0.6
		c-0.1,0.2-0.3,0.3-0.4,0.6c0.2-0.9,0.4-1.7,0.6-2.6C148.7,124.9,149,124.5,149.3,124.1z M147.8,125c-0.2,0.3-0.5,0.6-0.7,1
		c0.2-0.8,0.3-1.5,0.6-2.3c0.2-0.3,0.5-0.7,0.7-1C148.2,123.4,148,124.3,147.8,125z M147.3,126.8c-0.2,0.8-0.4,1.7-0.6,2.6
		c-0.3,0.3-0.5,0.7-0.8,1c0.2-0.8,0.4-1.7,0.6-2.4C146.9,127.5,147.1,127.1,147.3,126.8z M146.3,131c-0.3,0.9-0.5,1.8-0.8,2.7
		c-0.3,0.3-0.6,0.7-0.8,1c0.3-0.9,0.5-1.7,0.8-2.6C145.7,131.7,146,131.4,146.3,131z M145.1,135.4c-0.3,1-0.6,1.9-0.9,2.9
		c-0.3,0.3-0.6,0.6-0.8,1c0.3-0.9,0.6-1.9,0.8-2.8C144.5,136.2,144.8,135.8,145.1,135.4z M143.6,136.2c-0.3,0.3-0.5,0.6-0.7,1
		c0.3-0.8,0.5-1.7,0.8-2.5c0.2-0.3,0.5-0.6,0.7-1C144.1,134.6,143.8,135.4,143.6,136.2z M143,138.1c-0.3,0.9-0.6,1.8-0.9,2.7
		c-0.3,0.3-0.5,0.6-0.8,0.9c0.3-0.9,0.6-1.7,0.9-2.6c0-0.1,0.1-0.1,0.1-0.1C142.6,138.6,142.8,138.4,143,138.1z M141.5,142.6
		c-0.3,1-0.7,1.9-1,2.9c-0.3,0.3-0.5,0.6-0.8,0.9c0.3-0.9,0.7-1.9,1-2.8c0.1-0.2,0.3-0.4,0.5-0.6
		C141.3,142.9,141.4,142.7,141.5,142.6z M140.1,143.3c-0.2,0.3-0.4,0.6-0.7,0.9c0.3-0.8,0.6-1.6,0.8-2.4c0.2-0.3,0.4-0.6,0.7-0.9
		C140.6,141.7,140.4,142.5,140.1,143.3z M139.7,147.4c-0.4,1-0.8,2.1-1.2,3.1c0,0,0,0.1-0.1,0.1c-0.2,0.3-0.5,0.6-0.7,0.8
		c0.4-1,0.8-2,1.2-3C139.3,148.1,139.5,147.8,139.7,147.4z M138.4,148c-0.2,0.3-0.5,0.6-0.7,0.8c0.3-0.9,0.7-1.7,1-2.6
		c0.2-0.3,0.5-0.6,0.7-0.9C139.1,146.3,138.7,147.2,138.4,148z M139.1,150.9c0.3-0.3,0.6-0.6,0.8-0.9c-0.5,1.2-1,2.4-1.6,3.6
		c-0.2,0.3-0.5,0.5-0.7,0.8C138.2,153.3,138.6,152.1,139.1,150.9z M138.9,154c0.3-0.3,0.5-0.6,0.8-0.8c-0.1,0.3-0.3,0.6-0.4,0.8
		c-0.6,1.1-1.1,2.2-1.7,3.3c-0.2,0.2-0.4,0.4-0.6,0.6c0.1-0.2,0.2-0.3,0.3-0.6C137.9,156.3,138.4,155.2,138.9,154z M136.6,157.1
		c-0.4,0.8-0.9,1.7-1.3,2.6c-0.2,0.2-0.3,0.3-0.6,0.6c0.7-1.2,1.3-2.5,1.9-3.8c0.2-0.3,0.5-0.5,0.7-0.8
		C137.1,156.2,136.9,156.7,136.6,157.1z M134,160.2c-0.3,0.6-0.7,1.3-1,1.9c-0.1,0.1-0.3,0.3-0.4,0.5c0.6-1.2,1.2-2.4,1.9-3.7
		c0.2-0.2,0.4-0.5,0.6-0.7C134.7,158.9,134.4,159.6,134,160.2z M131.4,163.2c-0.3,0.5-0.6,1-0.8,1.5c-0.1,0.1-0.2,0.2-0.3,0.3
		c0.6-1.1,1.2-2.3,1.8-3.5c0.1-0.2,0.3-0.4,0.5-0.6C132.2,161.7,131.8,162.5,131.4,163.2z M133.5,162.5c0.1-0.1,0.3-0.3,0.4-0.5
		c-0.9,1.5-1.8,3-2.8,4.4C132,165.2,132.8,163.8,133.5,162.5z M133.2,164.6L133.2,164.6c0.9-1.5,1.8-3,2.6-4.6
		c0.1-0.1,0.3-0.3,0.5-0.5C135.4,161.3,134.4,162.9,133.2,164.6z M135.5,162.5c1-1.5,1.9-3,2.7-4.6c0.2-0.2,0.3-0.3,0.6-0.6
		c-1,1.7-2,3.4-3.1,5C135.5,162.4,135.5,162.4,135.5,162.5z M137.7,160.3c-0.1,0.1-0.1,0.1-0.1,0.1c1-1.6,1.9-3.2,2.8-4.8
		c0.2-0.2,0.4-0.3,0.6-0.6C139.9,156.9,138.9,158.6,137.7,160.3z M139.9,158.5c-0.1,0.1-0.1,0.1-0.1,0.1c1-1.6,1.9-3.2,2.8-5
		c0.2-0.2,0.4-0.4,0.6-0.6c-1,1.7-2,3.4-3.1,5C140,158.3,139.9,158.3,139.9,158.5z M142,156.6L142,156.6c-0.1,0.1-0.1,0.1-0.1,0.1
		c1-1.7,2-3.3,2.9-5c0.2-0.2,0.4-0.3,0.6-0.6c-0.8,1.4-1.6,2.8-2.5,4.1C142.6,155.7,142.2,156.2,142,156.6z M143.9,154.9
		c0,0-0.1,0.1-0.1,0.1c1.1-1.7,2.1-3.5,3-5.2c0.2-0.2,0.4-0.3,0.6-0.6c-0.6,1-1.2,2.1-1.9,3.1C145.1,153.2,144.5,154.1,143.9,154.9z
		 M148.4,149.5c-0.8,1.3-1.7,2.6-2.6,3.9c0,0-0.1,0-0.1,0.1c0.1-0.2,0.3-0.4,0.4-0.7c1-1.5,1.9-3.1,2.7-4.7c0.2-0.1,0.4-0.3,0.6-0.5
		C149.1,148.2,148.8,148.9,148.4,149.5z M150.4,146c-0.2,0.2-0.5,0.3-0.7,0.6c0.8-1.5,1.5-3.1,2.2-4.7c0.3-0.3,0.6-0.5,0.9-0.8
		C152.1,142.7,151.3,144.4,150.4,146z M153.5,139.7c-0.3,0.3-0.6,0.5-1,0.8c0.2-0.4,0.3-0.9,0.6-1.3c0.4-1,0.8-2,1.1-3
		c0.3-0.3,0.7-0.6,1.1-0.9C154.7,136.7,154.1,138.2,153.5,139.7z M155.7,133.9c-0.3,0.3-0.8,0.6-1.1,0.9c0.5-1.4,0.9-2.7,1.3-4.1
		c0.4-0.3,0.8-0.7,1.2-1C156.7,131.1,156.2,132.6,155.7,133.9z M157.4,128.6c-0.4,0.3-0.8,0.7-1.2,1c0.3-1.2,0.7-2.6,1-3.9
		c0.4-0.3,0.8-0.8,1.2-1.1C158.2,125.9,157.8,127.2,157.4,128.6z M158.7,123.4c-0.4,0.3-0.8,0.8-1.2,1.1c0.3-1.2,0.6-2.5,0.8-3.7
		c0.4-0.4,0.8-0.8,1.2-1.2C159.4,120.9,159.1,122.1,158.7,123.4z M159.8,118.5c-0.4,0.4-0.8,0.8-1.2,1.2c0.2-1.2,0.4-2.3,0.6-3.6
		c0.4-0.4,0.8-0.8,1.2-1.2C160.3,116.1,160,117.2,159.8,118.5z M160.7,113.7c-0.4,0.4-0.8,0.8-1.2,1.2c0.2-1.1,0.3-2.3,0.5-3.4
		c0.4-0.4,0.8-0.8,1.2-1.2C161,111.4,160.8,112.5,160.7,113.7z M161.3,109.1c-0.4,0.4-0.8,0.8-1.2,1.2c0.1-1.1,0.3-2.2,0.4-3.3
		c0.4-0.4,0.8-0.9,1.2-1.3C161.6,106.9,161.4,108,161.3,109.1z M161.9,103.5c-0.1,0.3-0.1,0.7-0.1,1.1c-0.4,0.4-0.8,0.8-1.2,1.2
		c0.1-1,0.2-2.1,0.3-3.2c0.3-0.4,0.8-0.9,1.2-1.3C162,102.1,162,102.8,161.9,103.5z M162.3,100.2c-0.3,0.4-0.8,0.8-1.1,1.2
		c0.1-1,0.2-2,0.3-3c0.3-0.4,0.7-0.9,1.1-1.3C162.4,98.2,162.3,99.2,162.3,100.2z M162.6,96c-0.3,0.4-0.7,0.8-1,1.3
		c0.1-1,0.1-1.9,0.2-2.9c0.3-0.4,0.7-0.9,1-1.3C162.7,94,162.7,95,162.6,96z M162.8,91.8c-0.3,0.4-0.7,0.8-1,1.3
		c0.1-0.9,0.1-1.9,0.2-2.8c0.3-0.4,0.6-0.9,1-1.3C162.9,90,162.9,90.8,162.8,91.8z M163.1,87.7c-0.3,0.4-0.6,0.8-1,1.2
		c0.1-0.9,0.1-1.7,0.2-2.6c0.3-0.4,0.6-0.9,0.9-1.3C163.2,86,163.1,86.9,163.1,87.7z M163.2,83.8c-0.3,0.4-0.6,0.8-0.9,1.2
		c0.1-0.8,0.1-1.7,0.1-2.4c0.3-0.4,0.6-0.9,0.8-1.3C163.4,82.1,163.3,83,163.2,83.8z M163.4,80c-0.3,0.4-0.6,0.8-0.8,1.2
		c0.1-0.8,0.1-1.5,0.1-2.3c0.3-0.4,0.5-0.8,0.8-1.2C163.5,78.4,163.4,79.2,163.4,80z M586.1,240c0-3.2-0.4-6.5-1.2-9.7
		c-2.1-7.7-6.4-13.8-11.3-20.4c-6.6-8.7-15.4-12.7-24-16.9c-12.2-6.1-22.8-13-29.4-28.2c-7.5-17.6-9.9-37-11.7-55.7
		c-1.5-16.2-4-33.1-8.5-47.9c-4.6-14.7-11.1-27.1-21.1-34.5c-5-3.7-10.2-5.9-15.5-7.1c-3.5-0.8-7-1.2-10.5-1.2
		c-5.4,0-10.8,0.8-16,2.2c-13.7,3.6-26.7,11.7-44.4,19.3c-20.1,8.5-46.6,19.3-69.5,25c-4.2,1-8.2,1.9-11.9,2.7
		c-8.8,1.9-16.4,3.3-24.7,3.3c-3.7,0-7.5-0.3-11.6-0.9c-11.9-1.9-25.1-7.5-38.5-9.7c-4.1-0.7-8.2-1.1-12.5-1.1
		c-2.7,0-5.5,0.1-8.2,0.5c-14.1,1.7-26.5,7.7-36.9,16.2C173,80.3,168,85.4,163.4,91c0.1-1,0.1-1.9,0.1-2.9
		c4.6-6.1,9.9-11.8,15.7-16.7c10.3-8.6,22.4-14.7,36.4-16.4c2.6-0.3,5.2-0.5,7.9-0.5c4.3,0,8.5,0.4,12.6,1.2
		c13.3,2.4,26.3,8.2,38.4,10.6c5.9,1.2,11.3,1.7,16.4,1.7c6.8,0,13.3-0.8,20.5-2c3.8-0.6,7.9-1.3,12.2-2.3
		c23.1-5.1,49.7-16.3,69.5-25.6c17.7-8.4,30.6-17.6,44.4-22.3c6.4-2.2,13.2-3.6,20-3.6c2.3,0,4.8,0.2,7.1,0.6
		c5.5,0.9,10.8,2.8,16.1,6.1c10.4,6.8,17.6,19.1,22.6,33.8c5,14.7,7.8,31.8,9.6,48.3c2.1,18.9,4.6,38.7,12.3,56.6
		c6.6,15.5,17.3,23.1,29.7,29.4c8.6,4.4,17.5,8.5,24.2,16.9c5.2,6.4,9.7,12.5,11.9,20.2c1,3.3,1.4,6.7,1.4,10.1
		c0,4.5-0.8,9-2.1,13.6c-3,3.6-5.9,7.3-8.4,11.3C584.6,252.6,586.1,246.2,586.1,240z M619.5,232.7c-1.5,0.9-3,1.9-4.5,2.8
		c0.5-1,1-1.9,1.5-2.9c1.6-1,3.2-1.9,4.8-2.8C620.7,230.8,620.1,231.7,619.5,232.7z M622.4,229c1.5-0.8,2.9-1.7,4.4-2.6
		c-0.6,1-1.2,1.9-1.9,2.9c-1.4,0.8-2.8,1.7-4.1,2.6C621.4,231,621.9,230,622.4,229z M613.8,236.3c-1.7,1-3.2,2.1-4.9,3.1
		c0.5-1,0.9-1.9,1.3-2.8c1.7-1.1,3.4-2.2,5.1-3.2C614.9,234.3,614.4,235.3,613.8,236.3z M613.1,237.5c-0.6,1-1.2,1.9-1.8,2.9
		c-1.5,1-3,2-4.6,3c0.6-0.9,1-1.9,1.5-2.8C609.9,239.6,611.5,238.6,613.1,237.5z M605.5,244.3c-1.7,1.1-3.3,2.3-5,3.5
		c0.5-0.9,0.9-1.8,1.4-2.7c1.7-1.2,3.5-2.5,5.2-3.7C606.6,242.4,606,243.3,605.5,244.3z M598.4,250.2c-0.6,0.9-1.1,1.9-1.7,2.8
		c-1.8,1.3-3.5,2.7-5.2,4.1c0.5-0.8,0.9-1.6,1.4-2.4C594.7,253.1,596.6,251.6,598.4,250.2z M593.8,253c0.4-0.8,0.8-1.6,1.2-2.4
		c1.9-1.6,3.8-3.2,5.7-4.6c-0.5,0.9-1,1.9-1.5,2.8C597.4,250.1,595.5,251.5,593.8,253z M599.8,249.2c1.6-1.2,3.2-2.3,4.9-3.5
		c-0.6,1-1.2,1.9-1.8,2.8c-1.6,1.1-3.1,2.2-4.6,3.3C598.8,250.9,599.3,250,599.8,249.2z M601.3,244.6c-1.9,1.5-3.9,2.9-5.7,4.5
		c0.3-0.8,0.7-1.6,1-2.3c0.8-0.6,1.5-1.2,2.2-1.9c1.2-1,2.5-2,3.8-3C602.2,242.8,601.8,243.7,601.3,244.6z M596,246.4
		c-2.3,2.1-4.6,4.3-6.7,6.6c0.2-0.6,0.4-1.1,0.6-1.7c2.1-2.5,4.5-4.8,6.9-7.1C596.6,244.9,596.3,245.6,596,246.4z M595.4,247.8
		c-0.3,0.8-0.7,1.6-1,2.3c-0.1,0.1-0.3,0.2-0.3,0.3c-2.2,1.9-4.3,3.9-6.2,6.1c0.3-0.6,0.6-1.2,0.8-1.7
		C590.7,252.4,593,250,595.4,247.8z M593.6,251.8c-0.4,0.8-0.8,1.6-1.2,2.4c-0.9,0.8-1.9,1.6-2.8,2.5c-1.3,1.2-2.6,2.5-3.7,3.7
		c0.3-0.6,0.6-1.1,0.8-1.7C588.9,256.2,591.2,253.9,593.6,251.8z M590.1,257.1c0.4-0.4,0.9-0.8,1.3-1.2c-0.5,0.8-1,1.7-1.5,2.5
		c-1.7,1.4-3.2,2.8-4.7,4.4c-0.6,0.6-1.2,1.2-1.7,1.8c0.3-0.6,0.6-1,0.9-1.6C586.3,260.9,588.2,258.9,590.1,257.1z M585.8,263.2
		c1-1,1.9-1.9,3-2.8c-0.5,0.8-1,1.6-1.6,2.4c-2.2,1.9-4.3,3.9-6.3,6.1c-0.1,0.1-0.1,0.1-0.1,0.2c0.2-0.3,0.5-0.7,0.7-1.1
		C582.8,266.3,584.3,264.7,585.8,263.2z M587.7,263.3c1.6-1.4,3.2-2.7,4.8-4c-0.6,0.8-1.2,1.7-1.9,2.6c-1.5,1.2-3,2.5-4.5,3.7
		C586.7,264.7,587.2,264,587.7,263.3z M589.1,261.2c0.5-0.8,1-1.6,1.5-2.3c1.7-1.5,3.4-2.8,5.2-4.2c-0.6,0.9-1.2,1.8-1.8,2.6
		C592.3,258.5,590.6,259.8,589.1,261.2z M594.4,257.8c1.3-1,2.6-2,4-3c-0.6,0.8-1.3,1.7-1.9,2.4c-1.2,1-2.5,1.9-3.7,2.9
		C593.3,259.3,593.9,258.5,594.4,257.8z M595.7,255.9c0.6-0.8,1.1-1.7,1.7-2.6c1.5-1.1,3-2.2,4.5-3.2c-0.6,0.9-1.2,1.8-1.9,2.6
		C598.4,253.8,597.1,254.9,595.7,255.9z M603.3,249c1.3-0.9,2.6-1.8,3.9-2.7c-0.6,0.8-1.2,1.7-1.9,2.5c-1.2,0.9-2.5,1.8-3.7,2.7
		C602.2,250.7,602.8,249.8,603.3,249z M604.4,247.5c0.6-0.9,1.1-1.8,1.7-2.7c1.5-1,2.9-1.9,4.4-2.9c-0.6,1-1.2,1.9-1.9,2.8
		C607.1,245.6,605.8,246.5,604.4,247.5z M611.8,240.9c1.3-0.8,2.6-1.7,3.9-2.6c-0.6,0.9-1.3,1.7-1.9,2.6c-1.2,0.8-2.5,1.7-3.7,2.6
		C610.7,242.7,611.3,241.8,611.8,240.9z M612.7,239.5c0.6-0.9,1.1-1.9,1.7-2.8c1.5-0.9,2.9-1.8,4.4-2.7c-0.6,1-1.2,1.9-1.9,2.8
		C615.4,237.7,614.1,238.6,612.7,239.5z M620.1,233.3c1.3-0.8,2.6-1.6,3.9-2.4c-0.6,0.9-1.2,1.8-1.9,2.6c-1.2,0.8-2.5,1.7-3.7,2.5
		C619,235,619.5,234.1,620.1,233.3z M625.4,229.9c1.2-0.7,2.3-1.5,3.5-2.2c-0.6,0.8-1.2,1.6-1.9,2.3c-1.1,0.8-2.2,1.5-3.2,2.3
		C624.3,231.5,624.9,230.7,625.4,229.9z M626.3,228.5c0.6-0.9,1.2-1.8,1.7-2.8c1.3-0.8,2.6-1.6,4-2.3c-0.6,0.9-1.2,1.8-1.9,2.7
		C628.9,226.9,627.7,227.7,626.3,228.5z M633.5,222.5c1.2-0.7,2.3-1.5,3.5-2.1c-0.6,0.8-1.2,1.6-1.9,2.4c-1.1,0.8-2.2,1.5-3.3,2.2
		C632.4,224.2,632.9,223.4,633.5,222.5z M634.3,221.2c0.6-0.9,1.2-1.9,1.7-2.8c1.3-0.8,2.7-1.5,4-2.3c-0.6,0.9-1.2,1.8-1.9,2.7
		C636.8,219.7,635.6,220.5,634.3,221.2z M633,222.1c-1.4,0.8-2.8,1.7-4.1,2.5c0.6-1,1.1-1.9,1.6-2.9c1.5-0.8,3-1.7,4.4-2.5
		C634.2,220.1,633.6,221.1,633,222.1z M627.6,225.2c-1.5,0.9-3,1.8-4.6,2.6c0.5-1,1-2,1.5-3c1.6-0.9,3.2-1.8,4.8-2.7
		C628.7,223.2,628.1,224.3,627.6,225.2z M621.9,228.6c-1.7,1-3.2,1.9-4.9,2.9c0.5-1,0.9-2,1.3-3c1.7-1,3.4-2,5.1-3
		C623,226.6,622.5,227.6,621.9,228.6z M616,232.1c-1.7,1-3.5,2.1-5.2,3.2c0.4-1,0.8-1.9,1.1-2.8c1.8-1.2,3.6-2.3,5.5-3.5
		C616.9,230.1,616.5,231.1,616,232.1z M609.7,236.1c-1.9,1.2-3.7,2.5-5.6,3.8c0.3-0.9,0.6-1.7,1-2.6c1.9-1.4,3.8-2.8,5.8-4.1
		C610.5,234.1,610.1,235.1,609.7,236.1z M609.2,237.3c-0.4,1-0.9,1.9-1.4,2.9c-1.8,1.2-3.5,2.4-5.2,3.7c0.4-0.9,0.8-1.8,1.2-2.7
		C605.5,239.7,607.4,238.5,609.2,237.3z M603.1,240.6c-1.6,1.2-3.2,2.4-4.8,3.7c-0.4,0.3-0.8,0.7-1.2,1c0.3-0.8,0.6-1.5,0.8-2.2
		c1.7-1.5,3.5-3,5.2-4.4c0.3-0.3,0.6-0.5,1-0.8C603.8,238.9,603.5,239.7,603.1,240.6z M597.3,242.8c-2.3,2.1-4.6,4.4-6.8,6.8
		c0.2-0.6,0.3-1.1,0.6-1.7c2.1-2.5,4.5-4.9,6.8-7.2C597.8,241.3,597.5,242,597.3,242.8z M589.9,249.2c-0.2,0.6-0.3,1.1-0.6,1.7
		c-3,3.5-5.8,7.1-8.2,11C583.7,257.4,586.6,253.2,589.9,249.2z M588.6,252.8c-0.2,0.6-0.5,1.1-0.7,1.7c-2.7,3-5.2,6.3-7.5,9.7
		C582.9,260.2,585.7,256.4,588.6,252.8z M587,256.7c-0.3,0.6-0.6,1.1-0.8,1.7c-2.1,2.4-4.1,5-6,7.7
		C582.2,262.7,584.5,259.6,587,256.7z M584.8,261c-0.3,0.5-0.6,1-0.8,1.5c-1.4,1.6-2.8,3.3-4,5C581.4,265.4,583,263.2,584.8,261z
		 M581.5,266.5c-0.2,0.3-0.4,0.7-0.6,1c-0.5,0.6-0.9,1.1-1.4,1.7C580.2,268.3,580.8,267.4,581.5,266.5z M581.5,269.4
		c1.3-1.4,2.6-2.8,4-4.1c-0.6,0.8-1.1,1.5-1.7,2.3c-2,1.8-3.9,3.7-5.7,5.6C579.2,271.9,580.3,270.6,581.5,269.4z M577.1,275.4
		c1.2-1.5,2.6-2.9,3.9-4.3c-0.5,0.6-1,1.2-1.5,1.9c0,0,0,0.1-0.1,0.1c-0.9,0.9-1.8,1.8-2.6,2.7C576.9,275.7,577,275.6,577.1,275.4z
		 M582.3,271.8c-1.1,1-2.1,1.9-3.2,2.9c0.3-0.3,0.6-0.8,1-1.1c1.2-1.2,2.4-2.3,3.7-3.5C583.2,270.7,582.8,271.2,582.3,271.8z
		 M582.9,269.9c0.5-0.6,1-1.2,1.5-1.9c1.5-1.3,2.9-2.6,4.4-3.8c-0.6,0.8-1.2,1.5-1.9,2.3C585.5,267.6,584.1,268.8,582.9,269.9z
		 M588.2,266.5c-0.6,0.6-1.3,1.1-1.9,1.7c0.2-0.3,0.4-0.5,0.7-0.8c0.1-0.1,0.2-0.3,0.3-0.4c0.7-0.6,1.4-1.2,2.1-1.7
		C589,265.7,588.6,266.1,588.2,266.5z M593,262.3L593,262.3c0.1-0.1,0.3-0.2,0.3-0.3C593.3,262.1,593.1,262.3,593,262.3z
		 M593.3,260.9c-0.2,0.3-0.5,0.6-0.7,0.8c-1,0.8-2,1.7-3,2.4c0.5-0.6,1-1.3,1.5-1.9c1.1-0.9,2.2-1.7,3.3-2.6
		C594.1,260,593.7,260.5,593.3,260.9z M597.8,257.5c-0.7,0.6-1.4,1.1-2.1,1.7c0.4-0.5,0.8-1,1.2-1.5c0.8-0.6,1.5-1.2,2.3-1.7
		C598.8,256.5,598.3,256.9,597.8,257.5z M602.7,253.4c-0.2,0.2-0.5,0.4-0.7,0.6c0.1-0.1,0.3-0.3,0.3-0.4c0.2-0.2,0.5-0.3,0.7-0.6
		C602.9,253.1,602.8,253.3,602.7,253.4z M601.9,253.1c-1,0.8-2.1,1.6-3.1,2.3c0.6-0.7,1.1-1.5,1.6-2.1c1.1-0.8,2.2-1.6,3.3-2.4
		C603.1,251.6,602.5,252.3,601.9,253.1z M607.1,248.9c-0.1,0.1-0.2,0.2-0.3,0.3c-0.8,0.6-1.5,1.2-2.3,1.8c0.5-0.6,0.9-1.1,1.3-1.7
		c0.8-0.6,1.7-1.2,2.5-1.8C608,248,607.6,248.4,607.1,248.9z M611.4,245.4c-0.3,0.3-0.6,0.6-1,0.8c0.2-0.2,0.4-0.4,0.6-0.7
		c0.3-0.3,0.7-0.5,1-0.8C611.8,245,611.6,245.2,611.4,245.4z M610.5,245c-1,0.8-2.1,1.6-3.2,2.3c0.6-0.8,1.1-1.5,1.7-2.2
		c1.1-0.8,2.2-1.5,3.4-2.3C611.8,243.6,611.1,244.3,610.5,245z M615.4,241.3c-0.8,0.6-1.7,1.2-2.4,1.9c0.5-0.6,0.9-1.2,1.4-1.7
		c0.9-0.6,1.7-1.2,2.6-1.8C616.4,240.2,615.9,240.8,615.4,241.3z M619.9,237.7c-0.4,0.3-0.8,0.7-1.2,1c0.2-0.3,0.4-0.5,0.7-0.8
		c0.4-0.3,0.8-0.6,1.2-0.9C620.3,237.3,620.1,237.5,619.9,237.7z M618.9,237.5c-1.1,0.8-2.1,1.5-3.2,2.3c0.6-0.8,1.1-1.6,1.7-2.3
		c1.1-0.8,2.3-1.5,3.5-2.2C620.1,235.9,619.5,236.7,618.9,237.5z M623.6,233.9c-0.8,0.6-1.7,1.3-2.6,1.9c0.5-0.6,1-1.2,1.5-1.9
		c0.9-0.6,1.8-1.2,2.8-1.9C624.8,232.7,624.2,233.3,623.6,233.9z M628.1,230.4c-0.5,0.4-1,0.8-1.5,1.2c0.3-0.3,0.6-0.7,0.8-1
		c0.5-0.3,1-0.7,1.5-1.1C628.8,229.8,628.4,230.1,628.1,230.4z M631.8,226.6c-0.9,0.7-1.7,1.3-2.6,1.9c0.5-0.6,1-1.3,1.5-1.9
		c1-0.6,1.9-1.2,2.8-1.9C632.9,225.4,632.4,226,631.8,226.6z M636.3,223.1c-0.6,0.5-1.1,0.9-1.7,1.4c0.3-0.3,0.6-0.8,0.9-1.1
		c0.6-0.4,1.2-0.8,1.7-1.2C637,222.5,636.6,222.8,636.3,223.1z M639.8,219.5c-0.9,0.7-1.9,1.3-2.8,2c0.6-0.7,1-1.3,1.5-2
		c1-0.6,1.9-1.2,2.9-1.9C640.9,218.2,640.4,218.8,639.8,219.5z M639.6,217.9c0.6-0.8,1.2-1.7,1.7-2.6c1.2-0.7,2.4-1.4,3.6-2.1
		c-0.6,0.8-1.2,1.7-1.9,2.4C641.9,216.5,640.8,217.2,639.6,217.9z M644.3,216.1c-0.6,0.5-1.2,1-1.8,1.4c0.3-0.4,0.7-0.8,1-1.2
		c0.6-0.4,1.2-0.8,1.9-1.2C645,215.4,644.6,215.7,644.3,216.1z M649.4,210.5c-0.6,0.7-1.1,1.3-1.7,1.9c-0.9,0.7-1.9,1.3-2.8,1.9
		c0.6-0.7,1-1.4,1.6-2.1C647.5,211.8,648.4,211.2,649.4,210.5z M643.8,211.4c1.4-0.8,2.8-1.5,4.1-2.3c-0.6,1-1.2,1.9-1.9,2.8
		c-1.3,0.8-2.6,1.5-3.9,2.3C642.7,213.2,643.3,212.3,643.8,211.4z M638.2,214.3c1.5-0.8,3-1.6,4.4-2.3c-0.6,1-1.2,2-1.8,3
		c-1.4,0.8-2.8,1.6-4.2,2.4C637.2,216.3,637.7,215.4,638.2,214.3z M632.4,217.4c1.6-0.8,3.2-1.7,4.8-2.6c-0.6,1-1.1,2.1-1.7,3
		c-1.5,0.8-3,1.7-4.6,2.6C631.5,219.5,631.9,218.5,632.4,217.4z M626.2,220.8c1.7-1,3.5-1.9,5.1-2.8c-0.5,1-1,2.1-1.5,3.1
		c-1.7,0.9-3.2,1.8-4.9,2.8C625.4,222.8,625.8,221.9,626.2,220.8z M619.8,224.5c1.8-1.1,3.6-2.1,5.5-3.2c-0.4,1-0.8,2.1-1.3,3.1
		c-1.7,1-3.5,2-5.2,3C619.1,226.5,619.5,225.4,619.8,224.5z M613.2,228.7c1.9-1.2,3.8-2.5,5.7-3.7c-0.3,1-0.7,2-1.1,3
		c-1.9,1.1-3.7,2.3-5.5,3.5C612.6,230.6,612.9,229.6,613.2,228.7z M606.2,233.6c0.4-0.3,0.8-0.7,1.3-1c1.6-1.2,3.1-2.3,4.8-3.3
		c-0.3,1-0.6,1.9-1,2.8c-2,1.3-3.9,2.6-5.9,4.1C605.8,235.3,606,234.4,606.2,233.6z M605.3,234.3c-0.2,0.8-0.5,1.7-0.8,2.6
		c-0.6,0.5-1.2,0.9-1.8,1.4c-1.5,1.2-3,2.4-4.4,3.7c0.2-0.7,0.4-1.5,0.6-2.1C601,237.8,603.1,236,605.3,234.3z M179.7,66.4
		c10.2-8.8,22.2-15.1,36.3-16.9c2.6-0.3,5.1-0.5,7.7-0.5c4.4,0,8.6,0.5,12.8,1.2c13.3,2.6,26.2,8.6,38.3,11.5
		c8,1.9,15.1,2.7,22.1,2.7c4.9,0,9.9-0.3,15.2-1c3.9-0.4,7.9-1,12.3-1.8c23.4-4.5,49.9-16,69.5-26.2c17.8-9.2,30.5-19.5,44.5-25.4
		c7.5-3.1,15.6-5.2,23.8-5.2c1.4,0,2.8,0.1,4.1,0.2c5.7,0.6,11.4,2.1,17,5.4c11.1,6.4,18.9,18.6,24.4,33.4
		c5.5,14.8,8.7,32.2,10.7,48.8c2.3,19.1,5,39.2,12.8,57.3c6.6,15.5,17.3,23.5,29.8,30.2c8.7,4.6,17.8,8.8,24.7,16.9
		c5.5,6.4,10.2,12.4,12.6,20.2c1,3.5,1.5,7,1.5,10.6c0,3.8-0.6,7.7-1.6,11.5c-2.3,2.2-4.6,4.5-6.8,6.9c1.1-4.1,1.8-8.3,1.8-12.4
		c0-3.5-0.4-6.9-1.4-10.2c-2.2-7.8-6.8-14-12-20.4c-6.8-8.5-15.8-12.6-24.4-17c-12.4-6.4-22.9-13.7-29.4-29.1
		c-7.6-17.7-10.2-37.4-12.2-56.4c-1.8-16.4-4.6-33.6-9.6-48.4c-5-14.8-12.2-27.2-22.9-34.1c-5.4-3.5-10.8-5.4-16.4-6.3
		c-2.4-0.4-4.8-0.6-7.2-0.6c-6.8,0-13.7,1.5-20.2,3.7c-14,4.8-26.8,14.1-44.5,22.4c-19.8,9.1-46.4,20.2-69.5,25.3
		c-4.3,1-8.3,1.7-12.1,2.2c-7.3,1.2-13.7,2-20.4,2c-5.1,0-10.4-0.5-16.3-1.7c-11.9-2.4-25-8.2-38.4-10.6c-4.1-0.8-8.4-1.2-12.8-1.2
		c-2.6,0-5.2,0.1-7.9,0.5c-14.2,1.7-26.5,7.9-36.8,16.6c-5.6,4.7-10.7,10.2-15.2,16c0.1-0.9,0.1-1.8,0.1-2.8
		C168.5,77.6,173.8,71.6,179.7,66.4z M164.5,58.6c0.1-0.1,0.1-0.2,0.1-0.3c0,0.2,0,0.3-0.1,0.6c-0.1,0.1-0.1,0.2-0.1,0.3
		C164.5,58.9,164.5,58.8,164.5,58.6z M164.1,61.7c0.1-0.2,0.1-0.4,0.3-0.6c0,0.3-0.1,0.7-0.1,1c-0.1,0.2-0.2,0.4-0.3,0.6
		C164.1,62.4,164.1,62,164.1,61.7z M163.8,65c0.1-0.3,0.2-0.6,0.3-0.8c0,0.5-0.1,0.9-0.1,1.4c-0.1,0.3-0.3,0.6-0.4,0.8
		C163.8,65.8,163.8,65.4,163.8,65z M163.6,68.3c0.1-0.3,0.3-0.7,0.5-1c0,0.6-0.1,1.1-0.1,1.7c-0.1,0.3-0.3,0.6-0.5,1
		C163.5,69.4,163.5,68.8,163.6,68.3z M163.8,70.6c0,0.6-0.1,1.3-0.1,1.9c-0.2,0.3-0.4,0.7-0.6,1.1c0.1-0.6,0.1-1.2,0.1-1.9
		C163.5,71.4,163.6,71,163.8,70.6z M163.1,64.5c0-0.1,0.1-0.2,0.1-0.3c0,0.2-0.1,0.4-0.1,0.6c-0.1,0.1-0.1,0.2-0.1,0.3
		C163.1,64.9,163.1,64.7,163.1,64.5z M163.7,74.1c0,0.7-0.1,1.5-0.1,2.1c-0.2,0.4-0.5,0.8-0.7,1.2c0.1-0.7,0.1-1.5,0.1-2.1
		C163.2,74.8,163.5,74.5,163.7,74.1z M162.7,67.6c0.1-0.2,0.1-0.4,0.2-0.6c0,0.3-0.1,0.7-0.1,1c-0.1,0.2-0.2,0.4-0.3,0.6
		C162.7,68.3,162.7,68,162.7,67.6z M162.4,71c0.1-0.3,0.2-0.6,0.3-0.8c-0.1,0.5-0.1,1-0.1,1.4c-0.1,0.3-0.3,0.6-0.4,0.8
		C162.3,71.9,162.3,71.4,162.4,71z M162,74.3c0.1-0.3,0.3-0.6,0.5-1c-0.1,0.6-0.1,1.1-0.1,1.7c-0.1,0.3-0.3,0.6-0.5,1
		C161.9,75.4,162,74.9,162,74.3z M161.7,70.4c0-0.1,0.1-0.1,0.1-0.2c0,0.2-0.1,0.3-0.1,0.6c0,0.1-0.1,0.1-0.1,0.2
		C161.6,70.8,161.6,70.6,161.7,70.4z M161.7,77.8c0.2-0.3,0.3-0.8,0.6-1.1c-0.1,0.7-0.1,1.3-0.1,2c-0.2,0.3-0.4,0.7-0.6,1
		C161.6,79.1,161.6,78.5,161.7,77.8z M161.2,73.7c0.1-0.2,0.1-0.3,0.2-0.6c0,0.3-0.1,0.7-0.1,1c-0.1,0.2-0.1,0.3-0.3,0.6
		C161.1,74.3,161.1,74,161.2,73.7z M160.8,77c0.1-0.3,0.2-0.5,0.3-0.8c-0.1,0.5-0.1,0.9-0.1,1.4c-0.1,0.3-0.3,0.5-0.4,0.8
		C160.7,77.9,160.7,77.5,160.8,77z M160.8,79.5c-0.1,0.6-0.1,1.2-0.1,1.7c-0.1,0.3-0.3,0.6-0.5,0.9c0.1-0.6,0.1-1.1,0.2-1.7
		C160.5,80.1,160.7,79.8,160.8,79.5z M160.1,76.4c0-0.1,0-0.1,0.1-0.1c0,0.1-0.1,0.3-0.1,0.5c0,0.1-0.1,0.1-0.1,0.1
		C160,76.8,160.1,76.6,160.1,76.4z M160.5,83c-0.1,0.6-0.1,1.3-0.1,1.9c-0.2,0.3-0.4,0.7-0.6,1c0.1-0.6,0.1-1.2,0.2-1.9
		C160.2,83.7,160.3,83.3,160.5,83z M159.6,79.7c0.1-0.1,0.1-0.3,0.2-0.5c-0.1,0.3-0.1,0.7-0.1,1c-0.1,0.1-0.1,0.3-0.2,0.5
		C159.5,80.4,159.6,80.1,159.6,79.7z M159.1,83.1c0.1-0.2,0.2-0.5,0.3-0.7c-0.1,0.5-0.1,1-0.1,1.4c-0.1,0.2-0.3,0.5-0.3,0.7
		C159,84.1,159.1,83.6,159.1,83.1z M158.5,82.5C158.5,82.5,158.5,82.4,158.5,82.5c0,0.1,0,0.3-0.1,0.4c0,0,0,0.1-0.1,0.1
		C158.5,82.8,158.5,82.6,158.5,82.5z M158.6,86.6c0.1-0.3,0.3-0.6,0.5-0.9c-0.1,0.6-0.1,1.1-0.2,1.7c-0.1,0.3-0.3,0.6-0.5,0.9
		C158.5,87.7,158.5,87.2,158.6,86.6z M158.7,89.2c-0.1,0.6-0.1,1.3-0.2,1.9c-0.2,0.3-0.4,0.7-0.6,1c0.1-0.6,0.1-1.2,0.3-1.9
		C158.3,89.9,158.5,89.5,158.7,89.2z M157.9,85.8c0.1-0.1,0.1-0.3,0.2-0.4c-0.1,0.3-0.1,0.7-0.1,1c-0.1,0.1-0.1,0.3-0.2,0.4
		C157.8,86.5,157.8,86.2,157.9,85.8z M157.4,89.3c0.1-0.2,0.2-0.5,0.3-0.7c-0.1,0.5-0.1,0.9-0.2,1.4c-0.1,0.2-0.2,0.5-0.3,0.7
		C157.2,90.2,157.3,89.7,157.4,89.3z M156.7,88.9c0,0.1,0,0.1-0.1,0.2l0,0C156.7,89.1,156.7,89,156.7,88.9z M156.8,92.9
		c0.1-0.3,0.3-0.6,0.4-0.9c-0.1,0.6-0.1,1.1-0.2,1.7c-0.1,0.3-0.3,0.6-0.5,0.8C156.6,94,156.7,93.4,156.8,92.9z M156.1,92
		c0.1-0.1,0.1-0.2,0.1-0.3c-0.1,0.3-0.1,0.6-0.1,1c-0.1,0.1-0.1,0.3-0.2,0.4C156,92.7,156,92.4,156.1,92z M156.2,96.5
		c0.2-0.3,0.3-0.6,0.6-1c-0.1,0.6-0.1,1.3-0.3,1.9c-0.2,0.3-0.4,0.6-0.6,1C156,97.8,156.1,97.1,156.2,96.5z M155.4,95.5
		c0.1-0.2,0.2-0.4,0.3-0.6c-0.1,0.4-0.1,0.9-0.2,1.3c-0.1,0.2-0.2,0.4-0.3,0.6C155.3,96.4,155.3,96,155.4,95.5z M154.8,99.1
		c0.1-0.3,0.3-0.5,0.3-0.8l0.1-0.1c-0.1,0.6-0.1,1.1-0.3,1.7c-0.1,0.3-0.3,0.6-0.5,0.8C154.6,100.2,154.7,99.7,154.8,99.1z
		 M154.2,98.3c0.1-0.1,0.1-0.2,0.1-0.3c-0.1,0.3-0.1,0.6-0.1,0.9c-0.1,0.1-0.1,0.2-0.1,0.3C154,98.9,154.1,98.6,154.2,98.3z
		 M154.1,102.9c0.1-0.1,0.1-0.1,0.1-0.2c0.1-0.2,0.3-0.5,0.4-0.7c-0.1,0.6-0.2,1.2-0.3,1.9c-0.2,0.3-0.4,0.6-0.6,0.9
		C153.9,104.1,154,103.5,154.1,102.9z M153.4,101.9c0.1-0.2,0.2-0.3,0.3-0.6c-0.1,0.4-0.1,0.9-0.2,1.3c-0.1,0.2-0.2,0.4-0.3,0.6
		C153.3,102.8,153.3,102.3,153.4,101.9z M152.7,105.6c0.1-0.3,0.3-0.5,0.4-0.8c-0.1,0.6-0.2,1-0.3,1.6c0,0,0,0.1-0.1,0.1
		c-0.1,0.2-0.3,0.5-0.4,0.7C152.4,106.7,152.6,106.1,152.7,105.6z M152.1,104.7c0-0.1,0.1-0.1,0.1-0.2c-0.1,0.3-0.1,0.6-0.2,0.9
		c-0.1,0.1-0.1,0.1-0.1,0.3C152,105.3,152,104.9,152.1,104.7z M151.9,109.3c0.1-0.3,0.3-0.6,0.6-0.9c-0.1,0.6-0.2,1.2-0.3,1.9
		c-0.1,0.1-0.1,0.3-0.3,0.4c-0.1,0.1-0.2,0.3-0.3,0.5C151.7,110.5,151.8,109.9,151.9,109.3z M151.3,108.3c0.1-0.2,0.1-0.3,0.3-0.6
		c-0.1,0.4-0.1,0.8-0.3,1.2c-0.1,0.1-0.2,0.3-0.3,0.5C151.1,109.1,151.1,108.7,151.3,108.3z M151.1,113.2c0.2-0.3,0.4-0.7,0.6-1
		c-0.1,0.7-0.3,1.4-0.4,2.1c-0.1,0.2-0.3,0.4-0.4,0.6c-0.1,0.1-0.1,0.3-0.3,0.3C150.9,114.5,151,113.8,151.1,113.2z M150.4,112
		c0.1-0.3,0.3-0.5,0.4-0.8c-0.1,0.6-0.2,1.1-0.3,1.6c-0.1,0.2-0.3,0.5-0.4,0.7C150.2,113.1,150.3,112.5,150.4,112z M149.9,111.1
		c0-0.1,0.1-0.1,0.1-0.1c-0.1,0.3-0.1,0.6-0.2,0.8c0,0.1-0.1,0.1-0.1,0.2C149.8,111.7,149.8,111.4,149.9,111.1z M150,115
		c-0.1,0.6-0.3,1.2-0.4,1.9c-0.2,0.3-0.3,0.6-0.6,0.8c0.1-0.6,0.3-1.2,0.4-1.8C149.7,115.5,149.9,115.2,150,115z M148.9,114.7
		c0-0.1,0.1-0.1,0.1-0.1c0.1-0.1,0.1-0.2,0.1-0.3c-0.1,0.4-0.2,0.8-0.3,1.2c-0.1,0.1-0.1,0.3-0.3,0.5
		C148.7,115.6,148.9,115.2,148.9,114.7z M149.2,118.7c-0.1,0.7-0.3,1.5-0.5,2.1c-0.2,0.3-0.4,0.6-0.6,0.9c0.1-0.7,0.3-1.4,0.5-2.1
		C148.9,119.4,149,119.1,149.2,118.7z M148,118.5c0.1-0.2,0.2-0.4,0.3-0.6c-0.1,0.5-0.2,1-0.3,1.5c-0.1,0.2-0.3,0.4-0.4,0.6
		C147.8,119.6,147.9,119,148,118.5z M147.5,117.7L147.5,117.7c-0.1,0.1-0.1,0.3-0.1,0.6c0,0,0,0.1-0.1,0.1
		C147.3,118.1,147.4,117.9,147.5,117.7z M147.5,121.6c-0.1,0.6-0.3,1.2-0.4,1.8c-0.1,0.3-0.3,0.6-0.5,0.8c0.1-0.6,0.3-1.2,0.5-1.8
		C147.1,122.1,147.3,121.9,147.5,121.6z M146.4,121.4c0.1-0.1,0.1-0.2,0.2-0.3c-0.1,0.3-0.2,0.7-0.3,1.1c-0.1,0.1-0.1,0.1-0.1,0.3
		l-0.1,0.1C146.2,122.1,146.4,121.8,146.4,121.4z M146.5,125.5c-0.1,0.7-0.3,1.4-0.6,2.1c-0.2,0.3-0.4,0.6-0.6,0.9
		c0.2-0.7,0.3-1.4,0.6-2.1C146.1,126.1,146.3,125.8,146.5,125.5z M145.3,125.2c0.1-0.2,0.2-0.4,0.3-0.6c-0.1,0.5-0.3,1-0.4,1.5
		c-0.1,0.1-0.1,0.2-0.2,0.3c-0.1,0.1-0.1,0.1-0.1,0.2C145.1,126.2,145.2,125.7,145.3,125.2z M145.5,129.5c-0.2,0.8-0.4,1.5-0.6,2.3
		c-0.2,0.3-0.4,0.6-0.7,0.9c0.2-0.8,0.4-1.5,0.6-2.3C145.1,130.1,145.3,129.9,145.5,129.5z M144.6,128.5c-0.1,0.6-0.3,1.1-0.5,1.7
		c-0.1,0.1-0.1,0.2-0.2,0.3c-0.1,0.1-0.2,0.3-0.3,0.4c0.1-0.6,0.3-1.1,0.5-1.7C144.4,129,144.5,128.7,144.6,128.5z M143.7,128.1
		c0.1-0.1,0.1-0.1,0.1-0.2c-0.1,0.3-0.2,0.7-0.3,1c-0.1,0.1-0.1,0.2-0.1,0.3C143.5,128.8,143.6,128.5,143.7,128.1z M143.5,132.4
		c-0.2,0.6-0.3,1.3-0.6,1.9c0,0.1-0.1,0.1-0.1,0.1c-0.1,0.2-0.3,0.5-0.5,0.7c0.2-0.6,0.4-1.3,0.6-1.9
		C143.2,133,143.3,132.7,143.5,132.4z M142.5,132.1c0.1-0.1,0.2-0.3,0.3-0.5c-0.1,0.5-0.3,0.9-0.4,1.4c-0.1,0.1-0.2,0.3-0.3,0.5
		C142.2,133,142.4,132.6,142.5,132.1z M142.3,136.6c-0.2,0.8-0.5,1.5-0.7,2.2c-0.2,0.3-0.4,0.6-0.6,0.8c0.2-0.7,0.5-1.5,0.7-2.1
		C141.9,137.1,142.1,136.8,142.3,136.6z M141.2,136.1c0.1-0.2,0.3-0.4,0.4-0.6c-0.2,0.6-0.3,1.1-0.6,1.7c-0.1,0.2-0.3,0.4-0.4,0.6
		C140.8,137.2,141.1,136.6,141.2,136.1z M140.8,135c0-0.1,0.1-0.1,0.1-0.1c-0.1,0.3-0.2,0.6-0.3,0.9c0,0.1-0.1,0.1-0.1,0.1
		C140.6,135.7,140.7,135.3,140.8,135z M140.3,139.5c-0.2,0.6-0.4,1.3-0.6,1.9c-0.1,0.2-0.3,0.4-0.5,0.6c0.2-0.6,0.4-1.2,0.6-1.9
		C139.9,140,140.2,139.7,140.3,139.5z M139.4,139.1c0.1-0.1,0.1-0.2,0.2-0.3c-0.1,0.4-0.3,0.8-0.4,1.3c-0.1,0.1-0.1,0.2-0.2,0.3
		C139.1,139.9,139.3,139.5,139.4,139.1z M138.8,143.7c-0.3,0.7-0.5,1.5-0.8,2.1c-0.2,0.2-0.3,0.5-0.6,0.7c0.3-0.7,0.6-1.4,0.8-2.1
		C138.5,144.3,138.6,144,138.8,143.7z M137.5,150.2c-0.4,1-0.8,2-1.2,3c-0.2,0.3-0.4,0.5-0.6,0.8c0.4-1,0.8-1.9,1.2-2.8
		C137.1,150.7,137.3,150.4,137.5,150.2z M137.9,143.1c0.1-0.1,0.2-0.3,0.3-0.5c-0.2,0.6-0.4,1-0.6,1.6c-0.1,0.1-0.2,0.3-0.3,0.5
		C137.5,144.2,137.7,143.7,137.9,143.1z M136.2,150.7c-0.2,0.3-0.4,0.5-0.6,0.8c0.3-0.8,0.6-1.6,1-2.3c0.2-0.3,0.4-0.6,0.6-0.8
		C136.9,149.1,136.6,149.9,136.2,150.7z M136.7,146.9c-0.2,0.6-0.5,1.2-0.7,1.9c-0.1,0.2-0.3,0.3-0.4,0.5c0.2-0.6,0.5-1.2,0.7-1.8
		C136.4,147.3,136.6,147.1,136.7,146.9z M136,146.2c0-0.1,0.1-0.1,0.1-0.1c-0.1,0.3-0.3,0.8-0.4,1.1c-0.1,0.1-0.1,0.1-0.1,0.2
		C135.7,146.9,135.9,146.5,136,146.2z M136.9,153.5c0.3-0.3,0.5-0.6,0.8-0.8c-0.5,1.2-1,2.3-1.5,3.4c-0.2,0.2-0.4,0.5-0.7,0.7
		C135.9,155.7,136.4,154.6,136.9,153.5z M134.4,150.4c0.1-0.1,0.1-0.2,0.2-0.3c-0.2,0.5-0.4,1-0.6,1.5c-0.1,0.1-0.1,0.2-0.2,0.3
		C133.9,151.4,134.1,150.9,134.4,150.4z M134.6,151.9c0.1-0.2,0.3-0.4,0.4-0.6c-0.3,0.7-0.6,1.4-0.9,2.1c-0.1,0.2-0.3,0.3-0.4,0.6
		C133.9,153.3,134.2,152.6,134.6,151.9z M134.7,153.8c0.2-0.3,0.4-0.5,0.6-0.8c-0.4,0.9-0.8,1.8-1.2,2.7c-0.2,0.2-0.3,0.4-0.6,0.6
		C133.9,155.5,134.4,154.7,134.7,153.8z M134.7,156.1c0.2-0.3,0.4-0.6,0.6-0.8c-0.5,1.1-1,2.1-1.5,3.2c-0.2,0.2-0.4,0.4-0.6,0.6
		C133.7,158.2,134.2,157.1,134.7,156.1z M132.4,154.9c0.1-0.1,0.1-0.3,0.3-0.3c-0.3,0.6-0.5,1.2-0.8,1.8c-0.1,0.1-0.1,0.2-0.2,0.3
		C131.9,156,132.1,155.5,132.4,154.9z M132.5,156.7c0.1-0.2,0.3-0.4,0.4-0.6c-0.3,0.8-0.7,1.6-1.1,2.4c-0.1,0.1-0.3,0.3-0.4,0.5
		C131.8,158.2,132.1,157.4,132.5,156.7z M132.5,158.8c0.2-0.2,0.3-0.5,0.6-0.7c-0.5,1-1,2-1.5,3c-0.1,0.1-0.3,0.3-0.4,0.5
		C131.5,160.7,132,159.8,132.5,158.8z M130.3,158L130.3,158c-0.2,0.4-0.4,0.9-0.6,1.3l0,0C129.9,158.9,130.1,158.5,130.3,158z
		 M130.3,159.6c0.1-0.1,0.2-0.3,0.3-0.3c-0.3,0.7-0.6,1.4-1,2c-0.1,0.1-0.1,0.2-0.2,0.3C129.7,160.9,130,160.3,130.3,159.6z
		 M130.1,161.7c0.1-0.1,0.3-0.3,0.4-0.5c-0.5,0.9-0.9,1.9-1.4,2.8c-0.1,0.1-0.2,0.2-0.3,0.3C129.3,163.4,129.7,162.6,130.1,161.7z
		 M128,162.8L128,162.8c-0.1,0.3-0.3,0.6-0.5,1C127.7,163.4,127.9,163.1,128,162.8z M127.8,164.7c0.1-0.1,0.1-0.1,0.2-0.2
		c-0.4,0.8-0.8,1.6-1.3,2.4l-0.1,0.1C127,166.3,127.4,165.5,127.8,164.7z M127.2,167.4c0.1-0.1,0.1-0.1,0.2-0.2
		c-0.4,0.8-0.8,1.5-1.2,2.2c-0.1,0.1-0.2,0.3-0.3,0.4C126.3,169,126.8,168.1,127.2,167.4z M113.8,186.7c0.6-0.6,1.2-1.1,1.7-1.7
		c0.8-0.7,1.5-1.5,2.2-2.1c0.4-0.4,0.9-0.8,1.3-1.2c-5.1,5.5-10.2,11-15.2,16.6C107.3,194.3,110.5,190.5,113.8,186.7z"/>
	<path class="st0" d="M577.2,3c5.1,21.3,9.5,44.3,18.2,64.5c6.8,16,16.5,29.3,30.5,39c7.4,5.1,15.8,9.1,23.7,13.6v-0.8
		c-7.9-4.4-16.1-8.4-23.3-13.4C612.4,96.2,602.9,83,596,67.2c-8.6-20.1-13.1-43-18.2-64.4c-0.1-0.6-0.3-1.1-0.4-1.6h-0.7
		C576.9,1.8,577,2.4,577.2,3z"/>
	<path class="st0" d="M336.5,40.7c-1.8,0-3.6-0.1-5.4-0.3c-4.8-0.5-9.4-1.5-13.8-3c-14.7-4.9-27.8-14.6-41.2-24.2
		c-5.8-4.1-11.7-8.4-17.6-12h-1.3c6.3,3.8,12.4,8.1,18.6,12.6c13.5,9.6,26.5,19.3,41.4,24.3c4.5,1.5,9.1,2.6,14,3
		c1.9,0.2,3.7,0.3,5.5,0.3c24.3,0,47.8-15.1,64.2-32.8c2.2-2.4,4.4-4.9,6.4-7.4h-0.9c-1.9,2.3-3.9,4.6-6,6.9
		C383.9,25.7,360.5,40.7,336.5,40.7z"/>
	<path class="st0" d="M583.7,82.5c6.8,15.9,16.6,28.2,30.4,37.4c9.4,6.2,20.2,10.9,29.4,17.5c2.1,1.5,4.1,3.1,6.1,4.7v-0.9
		c-1.8-1.5-3.7-3-5.7-4.4c-9.3-6.7-20.2-11.4-29.4-17.5c-13.7-9.1-23.3-21.3-30.1-37.2c-8.5-19.7-12.6-42.1-17.2-63.1
		c-1.3-5.9-2.9-11.9-4.8-18h-0.7c1.9,6,3.5,12.1,4.8,18.1C571.1,40.2,575.2,62.7,583.7,82.5z"/>
	<path class="st0" d="M571.9,11.2C576.7,32.3,581,55,589.6,75c6.8,16,16.6,28.8,30.5,38.3c9.3,6.4,20.2,11,29.6,17.4v-0.8
		c-9.4-6.3-20.1-11-29.2-17.1c-13.7-9.4-23.4-22.1-30.2-37.9c-8.6-19.9-12.8-42.5-17.7-63.7c-0.8-3.2-1.6-6.5-2.5-9.8h-0.7
		C570.3,4.5,571.1,7.8,571.9,11.2z"/>
</g>
</svg>
