<svg xmlns="http://www.w3.org/2000/svg" viewBox="0 0 940 1329.4"><g opacity=".15"><path d="M371.2 365.5l21.3-12.3.2-.1v-24.9l-21.6-12.5-21.1 12.2-21.1-12.2-21.1 12.3-.2.1V353l21.6 12.5 21.1-12.2 20.9 12.2zm-20.6-36.8l20.6-11.9 20.6 11.9v23.7l-20.6 11.9-20.6-11.9v-23.7zm-1 23.7L329 364.3l-20.6-11.9v-23.7l20.6-11.9 20.6 11.9v23.7zM42.1 1175.2l21.3-12.3.2-.1v-24.9l-21.1-12.2V1102l20.8-12 .2-.1V1065l-21.6-12.5-21.3 12.3-.2.1v24.3L0 1101.1v25.5l10.3 5.9 10.3 5.9v23.7l-20.6 12v1.2l21.1-12.2 21 12.1zm20.6-36.7v23.7l-20.6 11.9-20.6-11.9v-23.7l20.6-11.9 20.6 11.9zm-41.1-73l20.6-11.9 20.6 11.9v23.7l-20.6 11.9-10.3-5.9-10.3-5.9v-23.8zm-10.8 66.2l-10.3-5.9V1102l20.6-11.9 10.3 5.9 10.3 5.9v23.7l-20.6 11.9-10.3-5.8zM126.6 1053.5l.2-.1v-24.9l-21.6-12.5-21.2 12.3-.2.1v24.9l21.6 12.5 21.2-12.3zM84.8 1029l20.6-11.9L126 1029v23.7l-20.6 11.9-20.6-11.9V1029zM147.5 1236.1l21.1 12.2 21.3-12.3.2-.1V1211l-21.6-12.5-21.1 12.2-21.1-12.2-21.3 12.3-.2.1v24.9l21.6 12.5 21.1-12.2zm.5-24.7l20.6-11.9 20.6 11.9v23.7l-20.6 11.9-20.6-11.9v-23.7zm-42.2 0l20.6-11.9 20.6 11.9v23.7l-20.6 11.9-20.6-11.9v-23.7zM84 663.4l-.2.1v24.9l21.6 12.5 21.3-12.3.2-.1v-24.9l-21.6-12.5L84 663.4zm41.9 24.5l-20.6 11.9-20.6-11.9v-23.7l20.6-11.9 20.6 11.9v23.7zM42.1 883.3L63.4 871l.2-.1v-24.3l20.8-12 .2-.1v-24.9L63.2 797l-21.1 12.2-21-12.2L0 809.2v25.5l20.6 11.9v24.3l21.5 12.4zm.5-73.2l20.6-11.9 20.6 11.9v23.7l-20.6 11.9-10.3-5.9-10.3-5.9v-23.8zm9.8 30.5l10.3 5.9v23.7l-20.6 11.9-20.6-11.9v-23.7l20.6-11.9 10.3 6zM.5 833.8v-23.7l20.6-11.9 20.6 11.9v23.7l-20.6 11.9L.5 833.8zM455 364.6v24.9l21.6 12.5 21.3-12.3.2-.1v-24.9l-21.6-12.5-21.3 12.3-.2.1zm1 .6l20.6-11.9 20.6 11.9v23.7l-20.6 11.9-20.6-11.9v-23.7zM929.7 467.8l-10.3-5.9v-23.7l20.6-11.9v-25.5l-10.3-5.9-10.3-5.9v-23.7l20.6-11.9v-1.2l-21.1 12.2-21.1-12.2-21.3 12.3-.2.1v24.3l-20.8 12-.2.1v25l21.6 12.5 21.1-12.2 20.6 11.9v23.7l-20.8 12-.2.1v25l21.6 12.5 21.1-12.2v-25.5l-10.6-6zm-32.3-42.4l-20.6 11.9-20.6-11.9v-23.7l20.6-11.9 10.3 5.9 10.3 5.9v23.8zm-9.8-30.5l-10.3-5.9v-23.7l20.6-11.9 20.6 11.9V389l-20.6 11.9-10.3-6zm10.8 30.5v-23.7l20.6-11.9 10.3 5.9 10.3 5.9v23.7L919 437.2l-20.6-11.8zm20.5 84.9l-20.6-11.9v-23.7l20.6-11.9 10.3 5.9 10.3 5.9v23.7l-20.6 12zM476.3 109l-.2.1V134l21.6 12.5 21.3-12.3.2-.1v-24.9l-21.6-12.5-21.3 12.3zm41.9 24.5l-20.6 11.9-20.6-11.9v-23.7l20.6-11.9 20.6 11.9v23.7zM539.5 291.5l-.2.1v24.3l-20.8 12-.2.1v25l21.6 12.5 21.1-12.2 21.1 12.2 21.3-12.3.2-.1v-24.9L582.5 316v-24.3l-21.6-12.5-21.4 12.3zm20.8 60.9l-20.6 11.9-20.6-11.9v-23.7l20.6-11.9 10.3 5.9 10.3 5.9v23.8zm42.1-23.7v23.7l-20.6 11.9-20.6-11.9v-23.7l20.6-11.9 20.6 11.9zm-21-12.8l-20.6 11.9-10.3-5.9-10.3-5.9v-23.7l20.6-11.9 20.6 11.9v23.6zM813.6 35.9l-21.1-12.2-21.1 12.2-21.1-12.2L729 36l-.2.1v24.3l-20.6 11.9-21.1-12.2-21.3 12.3-.2.1v24.9l21.1 12.2v23.7l-20.8 12-.2.1v24.9l21.6 12.5 21.3-12.3.2-.1v-24.3l20.8-12 .2-.1v-24.3l20.6-11.9 21.1 12.2 21.1-12.2 20.6 11.9v23.7l-20.8 12-.2.1v24.9l21.1 12.2v23.7l-20.8 12-.2.1v24.9l21.6 12.5 21.3-12.3.2-.1v-24.3l20.8-12 .2-.1v-24.9L835.2 170v-23.7l20.8-12 .2-.1v-24.3l20.8-12 .2-.1V73.3l20.6-11.9 20.6 11.9v24.3L940 110v-1.2L919.4 97V73.3L940 61.4V35.9L929.7 30l-10.3-6V.3l.5-.3h-2l.5.3V24l-20.6 11.9-10.2-5.9-10.3-6V.3l.5-.3h-2l.5.3V24l-20.6 11.9-10.2-5.9-10.3-6V.3l.5-.3h-1.5v24l-20.6 11.9zm84.8.9L919 24.9l10.3 5.9 10.3 5.9v23.7L919 72.3l-20.6-11.9V36.8zM666.6 97V73.3l20.6-11.9 20.6 11.9V97l-20.6 11.9L666.6 97zm41.2 73l-20.6 11.9-20.6-11.9v-23.7l20.6-11.9 10.3 5.9 10.3 5.9V170zm21-36.5l-20.6 11.9-10.3-5.9-10.3-5.9v-23.7L708.2 98l10.3 5.9 10.3 5.9v23.7zM749.9 97l-20.6 11.9L719 103l-10.2-6V73.3l20.6-11.9 10.3 5.9 10.3 5.9V97zm-9.8-30.5l-10.3-5.9V36.8l20.6-11.9L771 36.8v23.7l-20.6 11.9-10.3-5.9zM792 97l-20.6 11.9L750.9 97V73.3l20.6-11.9 10.3 5.9 10.3 5.9V97zm-9.7-30.5l-10.3-6V36.8l20.6-11.9 20.6 11.9v23.7l-20.6 11.9-10.3-5.9zM793 97V73.3l20.6-11.9 10.3 5.9 10.3 5.9V97l-20.6 11.9L793 97zm0 73v-23.7l20.6-11.9 10.3 5.9 10.3 5.9V170l-20.6 11.9L793 170zm41.2 73l-20.6 11.9L793 243v-23.7l20.6-11.9 10.3 5.9 10.3 5.9V243zm21-60.3v23.7l-20.6 11.9-10.3-5.9-10.3-5.9v-23.7l20.6-11.9 20.6 11.8zm0-49.2l-20.6 11.9-10.3-5.9-10.3-5.9v-23.7L834.6 98l10.3 5.9 10.3 5.9v23.7zm1-96.7l20.6-11.9 10.3 5.9 10.3 5.9v23.7l-20.6 11.9-10.3-5.9-10.3-5.9V36.8zm9.8 30.5l10.3 5.9V97l-20.6 11.9-10.3-5.9-10.2-6V73.3l20.6-11.9 10.2 5.9zm-21-36.5l10.3 5.9v23.7l-20.6 11.9-10.3-5.9-10.3-5.9V36.8l20.6-11.9 10.3 5.9zM476.3 473.9l-.2.1v25l21.6 12.5 21.3-12.3.2-.1v-24.9l-21.6-12.5-21.3 12.2zm41.9 24.5l-20.6 11.9-20.6-11.9v-23.7l20.6-11.9 20.6 11.9v23.7zM21.1 602.3L42.4 590l.2-.1V565L21 552.5 0 564.6v25.5l21.1 12.2zm0-48.7l20.6 11.9v23.7l-20.6 11.9L.5 589.2v-23.7l20.6-11.9zM560.3 36.8v23.7l-20.8 12-.2.1v24.9l21.6 12.5 21.3-12.3.2-.1V73.3L603 61.4l21 12.2 21.3-12.3.2-.1V36.8l20.6-11.9 21.1 12.2 21.3-12.3.2-.1V0h-1.5l.5.3V24l-20.6 11.9L666.6 24V.3l.5-.3h-2l.5.3V24L645 35.9 634.8 30l-10.3-6V.3l.5-.3h-2l.5.3V24l-20.6 11.9-10.2-5.9-10.3-6V.3l.5-.3h-2l.5.3V24l-20.6 11.9L540.2 24V.3l.5-.3h-1.5v24.6l21.1 12.2zm43.1 0L624 24.9l10.3 5.9 10.3 5.9v23.7l-20.6 12-20.6-11.9V36.8zm-42.1 0l20.6-11.9 10.3 5.9 10.3 5.9v23.7l-20.6 11.9-10.3-5.9-10.3-5.9V36.8zm9.8 30.5l10.3 5.9V97l-20.6 11.9L540.2 97V73.3l20.6-11.9 10.3 5.9zM581.6 145.5l-.2.1v24.9L603 183l21.3-12.3.2-.1v-24.9l-21.6-12.5-21.3 12.3zm41.9 24.5l-20.6 11.9-20.5-11.9v-23.7l20.6-11.9 20.6 11.9V170zM645.1 206.2l-21.3 12.3-.2.1v24.9l21.1 12.2v23.7l-20.8 12-.2.1v24.9l21.6 12.5 21.3-12.3.2-.1v-24.3l20.8-12 .2-.1v-24.9L666.6 243v-24.3l-21.5-12.5zM624.5 243v-23.7l20.6-11.9 20.6 11.9V243l-20.6 11.9-20.6-11.9zm41.1 72.9L645 327.8l-20.6-11.9v-23.7l20.6-11.9 10.3 5.9 10.3 5.9v23.8zm21.1-60.2v23.7l-20.6 11.9-10.3-5.9-10.3-5.9v-23.7l20.6-11.9 20.6 11.8zM392.3 37.1l21-12.2 21.1 12.2 21.3-12.3.3-.2V0h-1.5l.5.3V24l-20.6 11.9L413.8 24V.3l.5-.3h-2l.5.3V24l-20.5 11.9L371.7 24V.3l.5-.3h-1.5v24.6zM20.6 992.5v23.8L0 1028.1v1.2l21.3-12.3.3-.2v-24.9L0 979.5v1.1zM876.3 243.5l21.6 12.5 21.1-12.2 21 12.2v-1.2L919.4 243v-23.7l20.6-11.9v-1.2l-21.1 12.2-21.1-12.2-21.3 12.3-.2.1v24.9zm1-24.3l20.6-11.9 20.6 11.9V243l-20.6 11.9-20.6-11.9v-23.8zM623.8 437.4l-.2.1v24.9l21.6 12.5 21.3-12.3.2-.1v-24.9l-21.6-12.5-21.3 12.3zm41.8 24.5L645 473.8l-20.6-11.9v-23.7l20.6-11.9 20.6 11.9v23.7zM813.1 474.1V499l21.6 12.5 21.3-12.3.2-.1v-24.9l-21.6-12.5-21.3 12.3-.2.1zm1 .5l20.6-11.9 20.6 11.9v23.7l-20.6 11.9-20.6-11.9v-23.7z"/><path d="M897.9 133.2l-21.3 12.3-.2.1v24.9L898 183l21.1-12.2L940 183v-1.2L919.4 170v-23.7l20.6-11.9v-1.2l-21.1 12.2-21-12.2zm20.5 36.8l-20.6 11.9-20.5-11.9v-23.7l20.6-11.9 20.6 11.9V170zM834.4 291.5l-.2.1v24.9l21.6 12.5 21.3-12.3.2-.1v-24.9l-21.6-12.5-21.3 12.3zm41.9 24.4l-20.6 11.9-20.6-11.9v-23.7l20.6-11.9 20.6 11.9v23.7zM707.8 316.5l21.6 12.5 21.3-12.3.2-.1v-24.9l-21.6-12.5-21.3 12.3-.2.1v24.9zm1-24.3l20.6-11.9 20.6 11.9v23.7l-20.6 11.9-20.6-11.9v-23.7zM665.9 364.4l-.2.1v24.9l21.6 12.5 21.3-12.3.2-.1v-24.9l-21.6-12.5-21.3 12.3zm41.9 24.5l-20.6 11.9-20.6-11.9v-23.7l20.6-11.9 20.6 11.9v23.7zM708 218.5l-.2.1v24.9l21.6 12.5 21.3-12.3.2-.1v-24.9l-21.6-12.5-21.3 12.3zm41.9 24.5l-20.6 11.9-20.5-11.9v-23.7l20.6-11.9 20.6 11.9V243zM771.2 328l-.2.1v24.3l-20.8 12-.2.1v24.3l-20.8 12-.2.1V426l21.6 12.5 21.3-12.3.2-.1v-24.3l20.8-12 .2-.1v-24.3l20.8-12 .2-.1v-24.9l-21.6-12.5-21.3 12.1zm-.2 97.4l-20.6 11.9-20.6-11.9v-23.7l20.6-11.9 10.3 5.9 10.3 5.9v23.8zm21-36.5l-20.6 11.9-10.3-5.9-10.3-5.9v-23.7l20.6-11.9 10.3 5.9 10.3 5.9v23.7zm21.1-36.5l-20.6 11.9-10.3-5.9-10.3-5.9v-23.7l20.6-11.9 20.6 11.9v23.6z"/></g></svg>