<?xml version="1.0" encoding="utf-8"?>
<!-- Generator: Adobe Illustrator 19.2.0, SVG Export Plug-In . SVG Version: 6.00 Build 0)  -->
<svg version="1.1" id="Layer_1_copy_4" xmlns="http://www.w3.org/2000/svg" xmlns:xlink="http://www.w3.org/1999/xlink" x="0px"
	 y="0px" width="940px" height="1329.4px" viewBox="0 0 940 1329.4" style="enable-background:new 0 0 940 1329.4;"
	 xml:space="preserve">
<style type="text/css">
	.st0{fill:#EDEDED;}
</style>
<g>
	<path class="st0" d="M171.4,636.2c1.6,1.7,0.3,2.6-3.1,1.9c-3.4-0.7-7.5-2.6-9.1-4.3c-1.7-1.7-0.2-2.6,3.2-1.9
		C165.7,632.5,169.8,634.4,171.4,636.2z"/>
	<path class="st0" d="M216.3,682.8c1.6,1.7,0.3,2.7-3,2.3c-3.3-0.5-7.4-2.2-9.1-4c-1.7-1.7-0.3-2.7,3.1-2.3
		C210.6,679.3,214.7,681.1,216.3,682.8z"/>
	<path class="st0" d="M260.4,729.3c1.4,1.5,0.3,2.5-2.6,2.3c-2.9-0.2-6.4-1.6-7.9-3.2c-1.4-1.5-0.3-2.5,2.6-2.3
		C255.5,726.4,259,727.8,260.4,729.3z"/>
	<path class="st0" d="M304.9,775.9c1.3,1.4,0.3,2.5-2.3,2.5c-2.6,0-5.9-1.2-7.2-2.6c-1.3-1.4-0.3-2.5,2.4-2.4
		C300.3,773.4,303.5,774.5,304.9,775.9z"/>
	<path class="st0" d="M349.3,822.6c1.2,1.3,0.3,2.4-2.1,2.5c-2.4,0.1-5.3-0.9-6.6-2.2c-1.2-1.3-0.3-2.4,2.1-2.5
		C345.1,820.4,348.1,821.3,349.3,822.6z"/>
	<path class="st0" d="M393.7,869.4c1.1,1.2,0.3,2.3-1.8,2.6c-2.1,0.2-4.8-0.5-5.9-1.7c-1.1-1.2-0.3-2.3,1.8-2.6
		C389.9,867.4,392.6,868.2,393.7,869.4z"/>
	<path class="st0" d="M437.8,916.2c1,1.1,0.3,2.2-1.5,2.5c-1.8,0.3-4.2-0.3-5.2-1.4c-1-1.1-0.3-2.2,1.5-2.5
		C434.5,914.5,436.8,915.2,437.8,916.2z"/>
	<path class="st0" d="M481.5,963.3c0.9,1,0.4,2.1-1.1,2.4c-1.5,0.4-3.5-0.1-4.4-1.1c-0.9-1-0.4-2.1,1.1-2.4
		C478.6,961.8,480.6,962.3,481.5,963.3z"/>
	<path class="st0" d="M525,1010.5c0.7,0.8,0.4,1.6-0.6,2c-1.1,0.3-2.5,0-3.2-0.8c-0.7-0.8-0.4-1.7,0.6-2
		C522.9,1009.4,524.3,1009.7,525,1010.5z"/>
	<path class="st0" d="M568.8,1057.7c0.6,0.6,0.5,1.5-0.4,1.8c-0.8,0.3-2,0.1-2.6-0.6c-0.6-0.7-0.5-1.5,0.4-1.8
		C567,1056.8,568.2,1057,568.8,1057.7z"/>
	<path class="st0" d="M612.6,1105c0.5,0.5,0.5,1.2-0.1,1.5c-0.6,0.3-1.5,0.1-2-0.4c-0.5-0.5-0.5-1.2,0.1-1.5
		C611.2,1104.2,612.1,1104.4,612.6,1105z"/>
	<path class="st0" d="M656.4,1152.4c0.4,0.4,0.4,1,0,1.3c-0.4,0.3-1,0.1-1.4-0.3c-0.4-0.4-0.4-1,0-1.3
		C655.4,1151.8,656,1151.9,656.4,1152.4z"/>
	
		<ellipse transform="matrix(0.7374 -0.6754 0.6754 0.7374 -626.8996 787.8508)" class="st0" cx="699.9" cy="1200.2" rx="0.6" ry="0.8"/>
	<path class="st0" d="M744.2,1247.5c0.2,0.2,0.3,0.5,0.2,0.6c-0.1,0.1-0.4,0.1-0.6-0.1c-0.2-0.2-0.3-0.5-0.2-0.6
		C743.7,1247.2,744,1247.2,744.2,1247.5z"/>
	<path class="st0" d="M788.1,1295.1c0.1,0.1,0.2,0.3,0.1,0.3c0,0.1-0.1,0-0.2-0.1c-0.1-0.1-0.2-0.3-0.1-0.3
		C787.9,1295,788,1295,788.1,1295.1z"/>
	<path class="st0" d="M148.4,547.2c1.9,1.8,0.6,2.5-3.1,1.4c-3.7-1.1-8.2-3.5-10.2-5.4c-1.9-1.9-0.5-2.5,3.2-1.4
		C142,542.9,146.5,545.3,148.4,547.2z"/>
	<path class="st0" d="M192.3,589.2c1.8,1.7,0.5,2.5-2.9,1.6c-3.4-0.8-7.7-2.9-9.6-4.7s-0.5-2.5,2.9-1.6
		C186.2,585.3,190.5,587.4,192.3,589.2z"/>
	<path class="st0" d="M235.7,630.8c1.6,1.5,0.5,2.3-2.5,1.8c-3-0.6-6.8-2.3-8.4-3.9c-1.6-1.6-0.5-2.3,2.6-1.7
		C230.3,627.5,234.1,629.2,235.7,630.8z"/>
	<path class="st0" d="M279.6,672.3c1.6,1.5,0.5,2.5-2.5,2.1c-3-0.4-6.7-2-8.4-3.5c-1.6-1.5-0.5-2.5,2.5-2
		C274.3,669.2,278,670.8,279.6,672.3z"/>
	<path class="st0" d="M322.7,713.6c1.4,1.3,0.5,2.3-2.1,2.1c-2.6-0.2-5.8-1.4-7.2-2.8c-1.4-1.3-0.4-2.3,2.1-2.1
		C318.1,711,321.3,712.3,322.7,713.6z"/>
	<path class="st0" d="M365.9,754.9c1.3,1.2,0.5,2.2-1.9,2.2c-2.4,0-5.3-1-6.6-2.3c-1.3-1.3-0.4-2.2,1.9-2.2
		C361.6,752.7,364.6,753.7,365.9,754.9z"/>
	<path class="st0" d="M408.8,796.3c1.2,1.1,0.4,2.2-1.7,2.3c-2.1,0.1-4.8-0.7-6-1.9c-1.2-1.2-0.4-2.2,1.7-2.3
		C404.9,794.4,407.6,795.2,408.8,796.3z"/>
	<path class="st0" d="M451.4,837.9c1.1,1.1,0.4,2.1-1.5,2.4c-1.9,0.2-4.3-0.4-5.4-1.5c-1.1-1.1-0.4-2.1,1.5-2.3
		C447.9,836.2,450.4,836.8,451.4,837.9z"/>
	<path class="st0" d="M493.8,879.7c1,1,0.4,2-1.3,2.3c-1.7,0.3-3.9-0.2-4.8-1.2c-1-1-0.4-2,1.3-2.3
		C490.7,878.2,492.8,878.8,493.8,879.7z"/>
	<path class="st0" d="M531.6,922.7c0.8,0.9,0.3,1.9-1.1,2.3c-1.4,0.4-3.2,0-4-0.9c-0.8-0.9-0.3-1.9,1.1-2.3
		C529,921.4,530.8,921.8,531.6,922.7z"/>
	<path class="st0" d="M568.5,966.2c0.6,0.7,0.3,1.6-0.7,1.9c-1,0.4-2.3,0.1-2.9-0.6c-0.6-0.7-0.3-1.6,0.7-1.9
		C566.6,965.3,567.9,965.5,568.5,966.2z"/>
	<path class="st0" d="M605.4,1010.2c0.5,0.6,0.3,1.4-0.5,1.7c-0.8,0.3-1.8,0.1-2.3-0.5c-0.5-0.6-0.3-1.4,0.5-1.7
		C603.8,1009.4,604.9,1009.6,605.4,1010.2z"/>
	<path class="st0" d="M641.9,1054.8c0.4,0.5,0.3,1.2-0.2,1.5c-0.6,0.3-1.4,0.2-1.8-0.4c-0.4-0.5-0.3-1.2,0.2-1.5
		C640.7,1054.1,641.5,1054.3,641.9,1054.8z"/>
	<path class="st0" d="M678,1100.1c0.3,0.4,0.3,1-0.1,1.2c-0.4,0.3-1,0.1-1.3-0.3c-0.3-0.4-0.3-1,0.1-1.2
		C677.1,1099.6,677.7,1099.7,678,1100.1z"/>
	<path class="st0" d="M713.7,1146.1c0.2,0.3,0.3,0.7,0,1c-0.2,0.2-0.6,0.1-0.9-0.2c-0.2-0.3-0.3-0.7,0-1
		C713.1,1145.7,713.5,1145.8,713.7,1146.1z"/>
	<path class="st0" d="M749,1193c0.2,0.2,0.2,0.5,0.1,0.7c-0.1,0.1-0.3,0.1-0.5-0.1c-0.2-0.2-0.2-0.5-0.1-0.7
		C748.6,1192.7,748.9,1192.8,749,1193z"/>
	<path class="st0" d="M783.8,1240.8c0.1,0.1,0.1,0.3,0.1,0.3c0,0.1-0.1,0-0.2-0.1c-0.1-0.1-0.1-0.3-0.1-0.3
		C783.7,1240.7,783.8,1240.7,783.8,1240.8z"/>
	<path class="st0" d="M162.2,510.7c2.6,2.5,1.1,2.9-2.9,1.6c-4-1.3-8.9-3.8-11.5-6.3c-2.6-2.5-1.5-3.4,2.5-2.1
		C154.3,505.1,159.6,508.2,162.2,510.7z"/>
	<path class="st0" d="M205.8,549.9c2.2,2,1,2.7-2.8,1.6c-3.8-1.1-8.7-3.5-10.9-5.5c-2.2-2-0.9-2.7,2.9-1.6
		C198.8,545.5,203.6,547.9,205.8,549.9z"/>
	<path class="st0" d="M249.1,588c2.1,1.8,0.9,2.7-2.6,1.8c-3.6-0.8-8.2-3-10.3-4.9c-2.1-1.9-0.9-2.7,2.7-1.8
		C242.5,584.1,247,586.2,249.1,588z"/>
	<path class="st0" d="M292.2,625.5c2,1.7,0.9,2.6-2.5,2c-3.4-0.6-7.7-2.5-9.7-4.2c-2-1.7-0.8-2.6,2.5-2
		C285.9,621.9,290.3,623.8,292.2,625.5z"/>
	<path class="st0" d="M335,662.4c1.9,1.6,0.9,2.6-2.3,2.2c-3.2-0.4-7.3-2-9.1-3.6c-1.9-1.6-0.8-2.6,2.3-2.2
		C329.1,659.2,333.2,660.8,335,662.4z"/>
	<path class="st0" d="M377.5,699c1.8,1.5,0.8,2.6-2.1,2.5c-2.9-0.2-6.8-1.5-8.6-3.1s-0.8-2.6,2.2-2.4
		C371.9,696.1,375.7,697.5,377.5,699z"/>
	<path class="st0" d="M419.6,735.4c1.6,1.4,0.8,2.6-1.9,2.6c-2.7,0-6.3-1.1-8-2.6c-1.7-1.4-0.7-2.6,2-2.6
		C414.4,732.8,417.9,733.9,419.6,735.4z"/>
	<path class="st0" d="M461.2,771.8c1.5,1.3,0.8,2.6-1.8,2.8c-2.5,0.2-5.8-0.7-7.4-2.1c-1.5-1.4-0.7-2.6,1.8-2.8
		C456.4,769.5,459.6,770.4,461.2,771.8z"/>
	<path class="st0" d="M502,808.4c1.3,1.2,0.7,2.4-1.5,2.7c-2.1,0.3-5-0.4-6.3-1.6c-1.3-1.2-0.6-2.4,1.5-2.7
		C497.9,806.5,500.7,807.2,502,808.4z"/>
	<path class="st0" d="M542.6,845.3c1.2,1.1,0.6,2.4-1.3,2.8c-1.9,0.4-4.5-0.1-5.7-1.2c-1.2-1.1-0.6-2.4,1.3-2.8
		C538.8,843.6,541.4,844.2,542.6,845.3z"/>
	<path class="st0" d="M579.4,883.4c0.9,1.1,0.3,2.4-1.4,2.9c-1.7,0.5-3.8,0-4.7-1c-0.9-1.1-0.3-2.4,1.5-2.9
		C576.4,881.9,578.5,882.3,579.4,883.4z"/>
	<path class="st0" d="M611.1,923.1c0.7,0.9,0.3,2.1-1,2.6c-1.3,0.5-3,0.2-3.7-0.8c-0.7-0.9-0.3-2.1,1-2.6
		C608.8,921.9,610.4,922.2,611.1,923.1z"/>
	<path class="st0" d="M642.5,963.6c0.6,0.8,0.3,2-0.8,2.5c-1.1,0.5-2.5,0.3-3.1-0.6c-0.7-0.8-0.3-2,0.8-2.5
		C640.5,962.5,641.8,962.8,642.5,963.6z"/>
	<path class="st0" d="M673.1,1005.2c0.6,0.8,0.3,1.8-0.5,2.3c-0.8,0.5-2,0.3-2.6-0.5s-0.3-1.8,0.5-2.3
		C671.4,1004.2,672.5,1004.4,673.1,1005.2z"/>
	<path class="st0" d="M702.8,1048c0.4,0.6,0.3,1.4-0.3,1.8c-0.6,0.4-1.3,0.3-1.7-0.3c-0.4-0.6-0.3-1.4,0.3-1.8
		C701.6,1047.3,702.4,1047.4,702.8,1048z"/>
	<path class="st0" d="M731.9,1092.1c0.3,0.5,0.3,1.2-0.1,1.6c-0.4,0.4-1,0.2-1.3-0.3c-0.3-0.5-0.3-1.2,0.1-1.6
		C730.9,1091.5,731.5,1091.6,731.9,1092.1z"/>
	<path class="st0" d="M760.1,1137.7c0.3,0.4,0.3,1,0,1.3c-0.2,0.3-0.7,0.2-0.9-0.2c-0.3-0.4-0.3-1,0-1.3
		C759.4,1137.2,759.8,1137.3,760.1,1137.7z"/>
	<path class="st0" d="M787.3,1185c0.2,0.3,0.2,0.8,0.1,1c-0.1,0.2-0.4,0.1-0.6-0.2c-0.2-0.3-0.2-0.8-0.1-1
		C786.9,1184.6,787.2,1184.7,787.3,1185z"/>
	<path class="st0" d="M813.7,1234.2c0.1,0.2,0.2,0.5,0.1,0.7c-0.1,0.1-0.2,0.1-0.3-0.2c-0.1-0.2-0.2-0.5-0.1-0.7
		S813.6,1233.9,813.7,1234.2z"/>
	<path class="st0" d="M839,1285.3c0.1,0.1,0.1,0.3,0.1,0.3c0,0.1-0.1,0-0.1-0.1c-0.1-0.1-0.1-0.3-0.1-0.3
		C838.9,1285.2,838.9,1285.2,839,1285.3z"/>
	<path class="st0" d="M157.4,461.3c3.1,3,2.4,4.5-1.7,3.2c-4.1-1.3-10-4.8-13.1-7.8c-3.1-3-2.3-4.4,1.8-3.2
		C148.4,454.8,154.2,458.3,157.4,461.3z"/>
	<path class="st0" d="M207.8,509c3,2.8,2.3,4.1-1.7,3c-4-1.2-9.7-4.4-12.7-7.2s-2.2-4.1,1.8-2.9C199.1,503,204.7,506.2,207.8,509z"
		/>
	<path class="st0" d="M254.5,550.4c2.5,2.1,1.5,3-2.3,2c-3.8-1-8.9-3.5-11.4-5.6c-2.5-2.1-1.4-2.9,2.4-1.9
		C247,545.9,252,548.4,254.5,550.4z"/>
	<path class="st0" d="M297.4,585.6c2.4,1.9,1.4,2.8-2.2,2.1c-3.6-0.8-8.5-3-10.9-4.9c-2.4-1.9-1.3-2.8,2.3-2
		C290.2,581.5,295,583.7,297.4,585.6z"/>
	<path class="st0" d="M339.9,619.5c2.3,1.8,1.3,2.8-2.1,2.2c-3.4-0.5-8.1-2.5-10.3-4.3c-2.3-1.8-1.3-2.8,2.2-2.2
		C333.1,615.9,337.6,617.8,339.9,619.5z"/>
	<path class="st0" d="M382,652.6c2.1,1.7,1.3,2.7-2,2.4c-3.2-0.3-7.6-2-9.8-3.6c-2.1-1.7-1.2-2.8,2-2.4
		C375.6,649.3,379.9,650.9,382,652.6z"/>
	<path class="st0" d="M423.4,684.9c1.9,1.5,1.1,2.6-1.7,2.5c-2.9-0.1-6.8-1.4-8.7-2.9c-1.9-1.5-1.1-2.6,1.8-2.5
		C417.6,682.1,421.5,683.4,423.4,684.9z"/>
	<path class="st0" d="M464.6,716.9c1.8,1.4,1.1,2.6-1.6,2.7c-2.7,0.1-6.4-1-8.2-2.4c-1.8-1.4-1-2.6,1.7-2.7
		C459.2,714.4,462.8,715.5,464.6,716.9z"/>
	<path class="st0" d="M505.1,748.7c1.7,1.3,1,2.6-1.5,2.9c-2.5,0.3-5.9-0.6-7.6-1.9c-1.7-1.3-1-2.6,1.5-2.9
		C500,746.5,503.4,747.4,505.1,748.7z"/>
	<path class="st0" d="M544.7,780.7c1.5,1.2,0.9,2.5-1.3,2.9c-2.2,0.4-5.1-0.3-6.6-1.5c-1.5-1.2-0.9-2.5,1.3-2.8
		C540.3,778.8,543.2,779.5,544.7,780.7z"/>
	<path class="st0" d="M583.7,813c1.3,1.1,0.8,2.5-1.1,3c-2,0.5-4.7,0-6-1.1c-1.3-1.1-0.8-2.5,1.1-3
		C579.7,811.4,582.4,811.9,583.7,813z"/>
	<path class="st0" d="M621.9,845.9c1.2,1.1,0.8,2.4-1,3.1c-1.8,0.6-4.2,0.2-5.4-0.9c-1.2-1.1-0.8-2.4,1-3
		C618.3,844.5,620.7,844.8,621.9,845.9z"/>
	<path class="st0" d="M650.5,881.6c0.8,1,0.3,2.3-1.2,2.9c-1.4,0.6-3.2,0.3-4-0.7c-0.8-1-0.3-2.3,1.2-2.9
		C648,880.3,649.7,880.6,650.5,881.6z"/>
	<path class="st0" d="M677.7,918.5c0.7,0.9,0.3,2.2-0.9,2.9c-1.2,0.6-2.7,0.4-3.4-0.6s-0.3-2.2,0.9-2.9
		C675.5,917.3,677.1,917.5,677.7,918.5z"/>
	<path class="st0" d="M703.8,956.8c0.5,0.8,0.3,1.9-0.6,2.5c-0.9,0.6-2,0.4-2.6-0.4c-0.5-0.8-0.3-1.9,0.6-2.5
		C702.1,955.8,703.2,956,703.8,956.8z"/>
	<path class="st0" d="M728.8,996.7c0.5,0.7,0.3,1.8-0.4,2.4c-0.7,0.6-1.6,0.4-2.1-0.3c-0.5-0.7-0.3-1.8,0.5-2.4
		C727.4,995.8,728.4,995.9,728.8,996.7z"/>
	<path class="st0" d="M752.7,1038.4c0.4,0.7,0.3,1.7-0.3,2.2c-0.5,0.5-1.3,0.4-1.7-0.3c-0.4-0.7-0.3-1.7,0.3-2.2
		C751.6,1037.6,752.3,1037.7,752.7,1038.4z"/>
	<path class="st0" d="M775.2,1082.4c0.3,0.5,0.2,1.2-0.1,1.6c-0.3,0.4-0.8,0.3-1-0.3c-0.3-0.5-0.2-1.2,0.1-1.6
		C774.5,1081.7,775,1081.9,775.2,1082.4z"/>
	<path class="st0" d="M796.5,1128.6c0.2,0.4,0.2,1,0,1.3c-0.2,0.3-0.5,0.2-0.7-0.2c-0.2-0.4-0.2-1,0-1.3
		C796,1128,796.3,1128.1,796.5,1128.6z"/>
	<path class="st0" d="M816.4,1177.4c0.1,0.3,0.2,0.8,0.1,1c-0.1,0.2-0.3,0.1-0.4-0.2c-0.1-0.3-0.2-0.8-0.1-1
		C816,1176.9,816.2,1177,816.4,1177.4z"/>
	<path class="st0" d="M834.8,1229c0.1,0.2,0.1,0.6,0.1,0.7c0,0.1-0.1,0.1-0.2-0.2c-0.1-0.2-0.1-0.6-0.1-0.7
		C834.6,1228.7,834.7,1228.8,834.8,1229z"/>
	<path class="st0" d="M194.4,455.1c3.5,3.4,3.1,5.2-1,4.1c-4.1-1.1-10.3-4.8-13.8-8.2c-3.5-3.4-3-5.2,1.1-4.1
		C184.8,448.1,190.9,451.7,194.4,455.1z"/>
	<path class="st0" d="M244.8,502.8c3.4,3.1,3,4.8-0.9,3.8c-3.9-1-9.9-4.4-13.3-7.5c-3.4-3.1-2.9-4.8,1-3.7
		C235.6,496.4,241.4,499.7,244.8,502.8z"/>
	<path class="st0" d="M295.3,548.1c3.4,2.9,2.2,3.6-1.7,2.7c-3.9-0.9-9-3-12.4-6c-3.4-3-2.9-4.6,1-3.7
		C286.1,542.1,292,545.2,295.3,548.1z"/>
	<path class="st0" d="M337.6,581.2c2.6,2,1.9,3.1-1.7,2.4c-3.6-0.7-8.7-2.9-11.3-4.9c-2.6-2-1.8-3.1,1.8-2.4
		C330,577.1,335,579.2,337.6,581.2z"/>
	<path class="st0" d="M379.9,612.5c2.6,1.9,1.9,3.1-1.6,2.6c-3.5-0.5-8.6-2.4-11.2-4.4c-2.6-1.9-1.8-3.1,1.7-2.6
		C372.3,608.7,377.3,610.6,379.9,612.5z"/>
	<path class="st0" d="M421.5,642.3c2.5,1.7,1.8,3-1.6,2.7c-3.4-0.2-8.2-1.9-10.6-3.7c-2.5-1.8-1.7-3,1.6-2.7
		C414.3,638.9,419,640.6,421.5,642.3z"/>
	<path class="st0" d="M462.3,671.1c2.3,1.6,1.6,2.8-1.4,2.8c-3.1,0-7.4-1.3-9.7-2.9c-2.3-1.6-1.6-2.8,1.5-2.8
		C455.7,668.2,460,669.5,462.3,671.1z"/>
	<path class="st0" d="M502.6,699.1c2.1,1.5,1.6,2.8-1.3,3c-2.9,0.2-7-0.9-9.1-2.4c-2.1-1.5-1.5-2.8,1.4-3
		C496.4,696.6,500.5,697.6,502.6,699.1z"/>
	<path class="st0" d="M542.2,726.8c2,1.4,1.5,2.8-1.2,3.2c-2.7,0.4-6.5-0.5-8.5-1.9c-2-1.4-1.4-2.9,1.3-3.2
		C536.4,724.6,540.2,725.4,542.2,726.8z"/>
	<path class="st0" d="M580.7,754.4c1.8,1.3,1.3,2.7-1.1,3.3c-2.4,0.5-5.7-0.1-7.5-1.4c-1.8-1.3-1.3-2.8,1.1-3.3
		C575.6,752.6,578.9,753.2,580.7,754.4z"/>
	<path class="st0" d="M618.4,782.4c1.6,1.2,1.2,2.8-1,3.5c-2.2,0.7-5.3,0.2-6.9-1.1c-1.6-1.3-1.2-2.8,1-3.4
		C613.7,780.7,616.8,781.2,618.4,782.4z"/>
	<path class="st0" d="M654.9,811c1.4,1.1,1.1,2.7-0.8,3.4c-1.9,0.8-4.6,0.4-6-0.7c-1.4-1.2-1.1-2.7,0.8-3.4
		C650.8,809.6,653.5,809.9,654.9,811z"/>
	<path class="st0" d="M686.1,841.6c0.9,1.2,0.3,2.8-1.3,3.7c-1.7,0.8-3.8,0.5-4.7-0.7c-0.9-1.2-0.3-2.8,1.4-3.7
		C683.1,840.1,685.2,840.4,686.1,841.6z"/>
	<path class="st0" d="M710.4,874.7c0.8,1.1,0.3,2.6-1.1,3.5c-1.4,0.8-3.1,0.6-3.9-0.5c-0.8-1.1-0.3-2.6,1.1-3.5
		C707.8,873.4,709.6,873.6,710.4,874.7z"/>
	<path class="st0" d="M733.4,909.4c0.7,1.1,0.3,2.6-0.9,3.5c-1.2,0.9-2.7,0.7-3.4-0.4c-0.7-1.1-0.3-2.6,0.9-3.5
		C731.2,908.2,732.7,908.3,733.4,909.4z"/>
	<path class="st0" d="M754.9,946.2c0.5,1,0.2,2.4-0.7,3.1c-0.9,0.8-2.1,0.6-2.6-0.3c-0.5-1-0.2-2.4,0.7-3.1
		C753.2,945.1,754.3,945.2,754.9,946.2z"/>
	<path class="st0" d="M774.9,985.1c0.4,0.9,0.2,2.3-0.5,3c-0.7,0.7-1.7,0.6-2.1-0.3c-0.5-0.9-0.2-2.3,0.5-3
		C773.5,984.1,774.5,984.2,774.9,985.1z"/>
	<path class="st0" d="M793.2,1026.9c0.3,0.8,0.2,1.9-0.3,2.5c-0.5,0.6-1.2,0.5-1.5-0.3c-0.3-0.8-0.2-1.9,0.3-2.5
		C792.2,1025.9,792.9,1026.1,793.2,1026.9z"/>
	<path class="st0" d="M809.9,1071.4c0.3,0.7,0.2,1.8-0.2,2.3c-0.4,0.5-0.9,0.4-1.1-0.4c-0.3-0.7-0.2-1.8,0.2-2.3
		C809.1,1070.5,809.6,1070.7,809.9,1071.4z"/>
	<path class="st0" d="M824.6,1119.4c0.2,0.6,0.1,1.3-0.1,1.7c-0.2,0.4-0.5,0.2-0.7-0.3c-0.2-0.6-0.1-1.3,0.1-1.7
		C824.2,1118.7,824.5,1118.8,824.6,1119.4z"/>
	<path class="st0" d="M837.5,1170.8c0.1,0.5,0.1,1.1,0,1.4c-0.1,0.3-0.3,0.1-0.4-0.4c-0.1-0.5-0.1-1.1,0-1.4
		C837.2,1170.2,837.4,1170.3,837.5,1170.8z"/>
	<path class="st0" d="M848.4,1226.2c0.1,0.4,0.1,0.9,0.1,1.1c0,0.2-0.1,0.1-0.2-0.3c-0.1-0.4-0.1-0.9-0.1-1.1
		C848.2,1225.6,848.3,1225.8,848.4,1226.2z"/>
	<path class="st0" d="M175.7,393.6c3.9,4.2,3.6,6.7-0.6,5.6c-4.3-1.1-10.9-5.4-14.9-9.6c-3.9-4.2-3.6-6.7,0.7-5.6
		C165.3,385.1,171.8,389.4,175.7,393.6z"/>
	<path class="st0" d="M225.5,445.1c3.8,3.8,3.6,6-0.4,5c-4.1-1-10.5-4.9-14.3-8.7c-3.8-3.8-3.5-6,0.5-5
		C215.3,437.4,221.7,441.3,225.5,445.1z"/>
	<path class="st0" d="M275.4,493c3.8,3.5,3.7,5.6-0.3,4.7c-4-0.9-10.4-4.5-14.2-8c-3.8-3.5-3.6-5.6,0.4-4.7
		C265.4,485.9,271.6,489.5,275.4,493z"/>
	<path class="st0" d="M325,537.5c3.7,3.2,3.6,5.2-0.2,4.5c-3.8-0.7-9.9-3.9-13.6-7.1c-3.7-3.2-3.5-5.2,0.3-4.4
		C315.4,531.2,321.4,534.4,325,537.5z"/>
	<path class="st0" d="M370.6,574.4c2.9,2.1,2.5,3.4-1,2.9c-3.5-0.5-8.7-2.7-11.7-4.8c-2.9-2.1-2.4-3.4,1.1-2.9
		C362.6,570.2,367.7,572.3,370.6,574.4z"/>
	<path class="st0" d="M412.2,603.8c2.8,1.9,2.4,3.2-1,2.9c-3.3-0.3-8.3-2.1-11.1-4.1c-2.8-1.9-2.3-3.2,1.1-2.8
		C404.5,600.1,409.5,601.9,412.2,603.8z"/>
	<path class="st0" d="M453.3,631.2c2.6,1.7,2.2,3-0.9,2.9c-3.2-0.1-7.9-1.6-10.6-3.4c-2.6-1.8-2.2-3,1-2.9
		C446,628,450.7,629.5,453.3,631.2z"/>
	<path class="st0" d="M493.8,657c2.5,1.6,2.1,2.9-0.9,3c-3,0.1-7.5-1.1-10-2.7c-2.5-1.6-2.1-2.9,1-3
		C486.9,654.3,491.3,655.5,493.8,657z"/>
	<path class="st0" d="M533.5,681.7c2.4,1.5,2,2.9-0.8,3.2c-2.8,0.3-7.1-0.7-9.5-2.2c-2.4-1.5-1.9-2.9,0.9-3.2
		C526.9,679.3,531.1,680.3,533.5,681.7z"/>
	<path class="st0" d="M572.1,705.8c2.1,1.3,1.8,2.8-0.7,3.3c-2.5,0.5-6.4-0.2-8.5-1.6c-2.1-1.4-1.8-2.8,0.8-3.2
		C566.2,703.8,570,704.5,572.1,705.8z"/>
	<path class="st0" d="M609.7,729.6c1.9,1.2,1.6,2.7-0.7,3.3c-2.3,0.6-5.7,0.1-7.6-1.1c-1.9-1.2-1.6-2.7,0.7-3.3
		C604.5,727.9,607.8,728.4,609.7,729.6z"/>
	<path class="st0" d="M646.3,753.6c1.7,1.2,1.5,2.7-0.6,3.5c-2.1,0.8-5.2,0.4-7-0.8c-1.8-1.2-1.5-2.7,0.6-3.5
		C641.5,752.1,644.6,752.4,646.3,753.6z"/>
	<path class="st0" d="M681.6,778.1c1.5,1.1,1.3,2.7-0.5,3.5c-1.8,0.9-4.5,0.6-6.1-0.5s-1.3-2.7,0.5-3.5
		C677.3,776.9,680,777.1,681.6,778.1z"/>
	<path class="st0" d="M715.6,803.7c1.4,1.1,1.1,2.7-0.5,3.7c-1.6,0.9-4,0.8-5.4-0.3c-1.4-1.1-1.2-2.7,0.4-3.7
		C711.7,802.5,714.2,802.6,715.6,803.7z"/>
	<path class="st0" d="M738.8,832.8c0.8,1.1,0.4,2.8-1,3.7c-1.4,1-3.2,0.8-4-0.3c-0.8-1.1-0.4-2.8,1-3.7
		C736.3,831.5,738,831.7,738.8,832.8z"/>
	<path class="st0" d="M759.9,863.8c0.7,1,0.3,2.6-0.8,3.5c-1.1,0.9-2.6,0.8-3.3-0.2c-0.7-1-0.3-2.6,0.9-3.5
		C757.8,862.7,759.2,862.8,759.9,863.8z"/>
	<path class="st0" d="M779.3,897.1c0.6,1,0.2,2.6-0.7,3.5c-1,0.9-2.2,0.8-2.8-0.2c-0.6-1-0.2-2.6,0.8-3.5
		C777.5,896,778.8,896,779.3,897.1z"/>
	<path class="st0" d="M796.7,933.1c0.4,0.9,0.2,2.4-0.6,3.2c-0.7,0.8-1.7,0.7-2.1-0.2c-0.4-0.9-0.2-2.4,0.6-3.2
		C795.3,932,796.3,932.1,796.7,933.1z"/>
	<path class="st0" d="M812.3,972c0.3,0.9,0.1,2.3-0.5,3.1c-0.6,0.8-1.4,0.7-1.7-0.3c-0.3-0.9-0.1-2.3,0.5-3.1
		C811.2,970.9,811.9,971.1,812.3,972z"/>
	<path class="st0" d="M825.6,1014.5c0.2,0.8,0.1,2-0.3,2.6c-0.4,0.6-0.9,0.5-1.2-0.3c-0.2-0.8-0.1-2,0.3-2.6
		C824.8,1013.6,825.4,1013.7,825.6,1014.5z"/>
	<path class="st0" d="M836.8,1060.8c0.2,0.8,0.1,1.9-0.2,2.4c-0.3,0.6-0.7,0.4-0.8-0.4c-0.2-0.8-0.1-1.8,0.2-2.4
		C836.2,1059.8,836.6,1060,836.8,1060.8z"/>
	<path class="st0" d="M845.5,1111.4c0.1,0.6,0,1.4-0.1,1.8c-0.2,0.4-0.4,0.2-0.4-0.4c-0.1-0.6,0-1.4,0.1-1.8
		C845.2,1110.7,845.4,1110.8,845.5,1111.4z"/>
	<path class="st0" d="M851.8,1166.7c0,0.5,0,1.2-0.1,1.5c-0.1,0.3-0.2,0.1-0.2-0.4c0-0.5,0-1.2,0.1-1.5
		C851.7,1165.9,851.8,1166.1,851.8,1166.7z"/>
	<path class="st0" d="M204.2,378.9c4.2,4.8,4.1,7.9-0.3,6.9c-4.4-1-11.5-5.7-15.8-10.6c-4.3-4.9-4-8,0.4-7
		C193,369.3,200,374.1,204.2,378.9z"/>
	<path class="st0" d="M252.5,431.8c4.1,4.3,4.1,7-0.1,6.1c-4.2-0.9-11-5.1-15.2-9.4c-4.2-4.3-4.1-7.1,0.2-6.2
		C241.6,423.3,248.3,427.5,252.5,431.8z"/>
	<path class="st0" d="M300.8,480c4,3.8,4.1,6.3,0.2,5.6c-3.9-0.7-10.5-4.4-14.5-8.3c-4.1-3.9-4.1-6.4-0.1-5.6
		C290.4,472.5,296.8,476.2,300.8,480z"/>
	<path class="st0" d="M349.3,524.1c4,3.5,4.2,5.9,0.4,5.3c-3.8-0.5-10.2-3.9-14.3-7.4c-4-3.6-4.1-5.9-0.3-5.3
		C339,517.3,345.3,520.6,349.3,524.1z"/>
	<path class="st0" d="M397.3,564.5c3.9,3.1,3.3,4.3-0.2,4c-3.6-0.3-8.8-1.9-12.7-5.1c-3.9-3.2-4.1-5.5-0.5-5.1
		C387.5,558.6,393.5,561.4,397.3,564.5z"/>
	<path class="st0" d="M438.5,593c3.1,2,3,3.6-0.3,3.5c-3.3-0.1-8.6-1.9-11.7-4c-3.1-2.1-2.9-3.6,0.4-3.5
		C430.2,589.2,435.3,590.9,438.5,593z"/>
	<path class="st0" d="M479.1,618.7c3,1.8,2.9,3.3-0.3,3.4c-3.2,0.1-8.2-1.4-11.2-3.3c-3-1.9-2.8-3.4,0.4-3.4
		C471.2,615.5,476.2,616.9,479.1,618.7z"/>
	<path class="st0" d="M519.1,642.3c2.8,1.6,2.7,3.2-0.3,3.4c-3,0.3-7.8-0.9-10.7-2.6c-2.8-1.7-2.7-3.2,0.4-3.4
		C511.6,639.6,516.3,640.7,519.1,642.3z"/>
	<path class="st0" d="M558.1,664.4c2.6,1.4,2.5,3-0.3,3.4c-2.7,0.4-7.1-0.4-9.7-1.9s-2.4-3,0.3-3.4
		C551.2,662.1,555.5,663,558.1,664.4z"/>
	<path class="st0" d="M596.3,685.3c2.4,1.3,2.3,2.9-0.2,3.6c-2.6,0.6-6.7,0-9.1-1.3c-2.4-1.4-2.3-2.9,0.3-3.5
		C589.8,683.4,593.8,684,596.3,685.3z"/>
	<path class="st0" d="M633.3,705.7c2.3,1.3,2.2,2.9-0.2,3.8c-2.4,0.8-6.2,0.4-8.5-0.9c-2.3-1.3-2.1-3,0.3-3.7
		C627.3,704,631,704.4,633.3,705.7z"/>
	<path class="st0" d="M668.9,726c2,1.2,2,2.9-0.2,3.9c-2.1,1-5.6,0.7-7.6-0.5c-2-1.2-1.9-2.9,0.2-3.8
		C663.5,724.6,666.8,724.8,668.9,726z"/>
	<path class="st0" d="M703,746.8c1.8,1.1,1.7,2.9-0.2,3.9c-1.9,1-4.9,1-6.7-0.2c-1.8-1.1-1.7-2.9,0.2-3.9
		C698.3,745.6,701.2,745.7,703,746.8z"/>
	<path class="st0" d="M735.7,768.4c1.6,1.1,1.6,3-0.1,4.1c-1.7,1.2-4.4,1.2-6,0c-1.6-1.1-1.6-3,0.2-4.1
		C731.4,767.3,734.1,767.3,735.7,768.4z"/>
	<path class="st0" d="M762.8,792.5c1,1.2,0.6,3.1-0.8,4.3c-1.5,1.2-3.5,1.2-4.5-0.1c-1-1.2-0.6-3.1,0.9-4.3
		C759.8,791.3,761.8,791.3,762.8,792.5z"/>
	<path class="st0" d="M783.1,819.7c0.8,1.2,0.4,3.1-0.8,4.3c-1.3,1.2-3,1.2-3.8,0c-0.8-1.2-0.4-3.1,0.8-4.2
		C780.6,818.6,782.3,818.5,783.1,819.7z"/>
	<path class="st0" d="M801.3,849.4c0.6,1.1,0.3,3-0.8,4.1c-1.1,1.1-2.5,1.1-3.1,0c-0.6-1.1-0.3-3,0.8-4.1
		C799.3,848.2,800.7,848.2,801.3,849.4z"/>
	<path class="st0" d="M817.5,881.8c0.5,1.2,0.2,3-0.7,4.2c-0.9,1.1-2.1,1.1-2.7-0.1c-0.5-1.2-0.2-3,0.7-4.2
		C815.8,880.6,817,880.6,817.5,881.8z"/>
	<path class="st0" d="M831.3,917.8c0.4,1.1,0.1,2.9-0.6,3.9c-0.7,1-1.7,0.9-2-0.2s-0.1-2.9,0.6-3.9
		C830,916.6,830.9,916.6,831.3,917.8z"/>
	<path class="st0" d="M842.6,957.7c0.3,1.1,0,2.6-0.5,3.5c-0.6,0.9-1.2,0.8-1.5-0.3c-0.3-1.1,0-2.6,0.5-3.5
		C841.7,956.5,842.3,956.6,842.6,957.7z"/>
	<path class="st0" d="M851.3,1001.8c0.2,1.1,0,2.6-0.5,3.4c-0.4,0.8-0.9,0.6-1.1-0.5c-0.2-1.1,0-2.6,0.5-3.4
		C850.7,1000.5,851.2,1000.7,851.3,1001.8z"/>
	<path class="st0" d="M857.3,1050.9c0.1,0.9-0.1,2.2-0.4,2.9c-0.3,0.6-0.6,0.4-0.7-0.6s0.1-2.2,0.3-2.9
		C856.9,1049.7,857.2,1050,857.3,1050.9z"/>
	<path class="st0" d="M860.3,1105.3c0,0.9-0.1,2.1-0.3,2.6c-0.2,0.5-0.3,0.2-0.4-0.7c0-0.9,0.1-2.1,0.3-2.6
		C860.1,1104.1,860.3,1104.4,860.3,1105.3z"/>
	<path class="st0" d="M860.3,1165.6c0,0.7-0.1,1.6-0.2,1.9c-0.1,0.3-0.1,0-0.1-0.7c0-0.7,0.1-1.6,0.2-1.9
		C860.3,1164.6,860.3,1164.9,860.3,1165.6z"/>
	<path class="st0" d="M184.5,300c4.4,6.2,4.1,10.4-0.8,9.5c-4.9-0.9-12.5-6.6-17-12.8c-4.5-6.2-4.1-10.5,0.9-9.6
		C172.6,287.9,180.1,293.8,184.5,300z"/>
	<path class="st0" d="M230.5,361c4.5,5.6,4.4,9.3-0.3,8.4c-4.6-0.9-12.1-6.1-16.7-11.7c-4.5-5.6-4.3-9.4,0.4-8.5
		C218.6,350.1,226,355.4,230.5,361z"/>
	<path class="st0" d="M276.4,415.6c4.3,4.8,4.4,7.9,0.1,7.2c-4.2-0.8-11.2-5.2-15.5-10c-4.3-4.8-4.3-8.1,0-7.2
		C265.3,406.3,272.1,410.8,276.4,415.6z"/>
	<path class="st0" d="M322.9,464.5c4.3,4.3,4.5,7.2,0.5,6.6c-4-0.6-10.9-4.6-15.2-8.9c-4.3-4.3-4.5-7.3-0.4-6.6
		C311.9,456.3,318.7,460.3,322.9,464.5z"/>
	<path class="st0" d="M369.3,508.3c4.2,3.7,4.6,6.4,0.8,6.1c-3.7-0.4-10.2-3.7-14.5-7.5c-4.2-3.8-4.5-6.5-0.7-6.1
		C358.7,501.2,365.1,504.6,369.3,508.3z"/>
	<path class="st0" d="M415.4,547.6c4,3.2,4.6,5.8,1.1,5.7c-3.4-0.1-9.6-2.9-13.7-6.2c-4.1-3.3-4.5-5.9-1-5.7
		C405.4,541.6,411.4,544.3,415.4,547.6z"/>
	<path class="st0" d="M458.7,579.5c3.4,2.2,3.6,4.1,0.4,4.2c-3.2,0.1-8.5-1.6-11.9-3.8c-3.4-2.2-3.5-4.1-0.3-4.2
		C450.1,575.6,455.3,577.3,458.7,579.5z"/>
	<path class="st0" d="M499,604.4c3.2,1.9,3.4,3.6,0.4,3.9c-3,0.3-8.1-1.1-11.4-3c-3.2-1.9-3.4-3.7-0.3-3.9
		C490.7,601.2,495.8,602.5,499,604.4z"/>
	<path class="st0" d="M538.6,626.6c3.1,1.6,3.3,3.3,0.4,3.8s-7.7-0.6-10.8-2.3c-3.1-1.7-3.2-3.4-0.3-3.8
		C530.7,624,535.5,625,538.6,626.6z"/>
	<path class="st0" d="M577.1,646.6c2.8,1.4,3,3.1,0.4,3.7c-2.6,0.6-7.1-0.1-9.9-1.5c-2.8-1.5-3-3.1-0.3-3.6
		C569.9,644.6,574.3,645.2,577.1,646.6z"/>
	<path class="st0" d="M614.8,665.1c2.6,1.3,2.8,3,0.4,3.8c-2.5,0.8-6.7,0.4-9.3-1c-2.7-1.3-2.8-3-0.3-3.7
		C608,663.4,612.1,663.8,614.8,665.1z"/>
	<path class="st0" d="M651,682.6c2.4,1.1,2.5,2.8,0.3,3.8c-2.2,0.9-6,0.7-8.4-0.5c-2.4-1.2-2.5-2.9-0.3-3.8
		C644.9,681.3,648.6,681.5,651,682.6z"/>
	<path class="st0" d="M685.9,699.8c2.1,1.1,2.3,2.8,0.3,3.9c-2,1.1-5.4,1-7.5-0.1c-2.2-1.1-2.2-2.8-0.2-3.8
		C680.4,698.7,683.7,698.7,685.9,699.8z"/>
	<path class="st0" d="M719.3,717c2,1,2.1,2.9,0.3,4.1c-1.8,1.2-4.9,1.3-6.9,0.2c-2-1.1-2.1-2.9-0.2-4.1
		C714.3,716.1,717.3,716,719.3,717z"/>
	<path class="st0" d="M750.8,735.2c1.7,1,1.8,2.9,0.3,4.2c-1.6,1.3-4.3,1.4-6,0.4c-1.7-1.1-1.8-2.9-0.2-4.1
		C746.4,734.4,749.1,734.2,750.8,735.2z"/>
	<path class="st0" d="M780.3,754.7c1.5,1,1.4,3,0.1,4.3c-1.3,1.3-3.4,1.4-4.9,0.4c-1.5-1-1.6-2.9-0.2-4.2
		C776.6,753.9,778.9,753.7,780.3,754.7z"/>
	<path class="st0" d="M801.4,777.8c0.9,1.1,0.7,3.1-0.5,4.4c-1.2,1.3-2.9,1.5-3.8,0.3c-0.9-1.1-0.7-3.1,0.5-4.4
		C798.8,776.9,800.5,776.7,801.4,777.8z"/>
	<path class="st0" d="M819.9,803.5c0.8,1.2,0.5,3.2-0.6,4.6c-1.1,1.4-2.6,1.5-3.4,0.3c-0.8-1.2-0.5-3.2,0.6-4.6
		C817.6,802.4,819.1,802.3,819.9,803.5z"/>
	<path class="st0" d="M835.7,832.3c0.6,1.2,0.3,3.2-0.7,4.5c-0.9,1.3-2.2,1.4-2.8,0.2c-0.6-1.2-0.3-3.2,0.7-4.5
		C833.9,831.2,835.2,831.1,835.7,832.3z"/>
	<path class="st0" d="M849,864.9c0.4,1.2,0.1,3.1-0.7,4.3c-0.8,1.2-1.8,1.2-2.2,0c-0.4-1.2-0.1-3.1,0.7-4.3
		C847.6,863.7,848.6,863.7,849,864.9z"/>
	<path class="st0" d="M859.4,901.7c0.3,1.2,0,3-0.6,4c-0.6,1.1-1.4,1-1.6-0.2c-0.3-1.2,0-3,0.6-4
		C858.4,900.5,859.1,900.5,859.4,901.7z"/>
	<path class="st0" d="M866.8,943.3c0.2,1.1-0.1,2.8-0.6,3.7c-0.5,0.9-1,0.7-1.1-0.4c-0.2-1.1,0.1-2.7,0.6-3.7
		C866.2,942.1,866.7,942.2,866.8,943.3z"/>
	<path class="st0" d="M871.2,990.2c0.1,1.1-0.2,2.7-0.5,3.6c-0.4,0.8-0.7,0.6-0.8-0.6c-0.1-1.1,0.2-2.7,0.5-3.5
		C870.8,988.8,871.2,989.1,871.2,990.2z"/>
	<path class="st0" d="M872.2,1043.2c0,1-0.2,2.4-0.4,3c-0.2,0.6-0.4,0.3-0.4-0.7s0.2-2.4,0.4-3
		C872,1041.8,872.2,1042.1,872.2,1043.2z"/>
	<path class="st0" d="M869.7,1102.6c-0.1,0.9-0.2,1.9-0.3,2.4c-0.1,0.4-0.2,0.1-0.1-0.8c0.1-0.9,0.2-1.9,0.3-2.4
		C869.7,1101.4,869.8,1101.8,869.7,1102.6z"/>
	<path class="st0" d="M170.4,202.9c4.4,8.1,3.6,14-1.8,13.2c-5.5-0.8-13.6-7.8-18.2-15.9c-4.5-8.1-3.7-14.2,1.9-13.5
		C157.9,187.4,166,194.8,170.4,202.9z"/>
	<path class="st0" d="M212.8,275.6c4.5,7.2,4,12.3-1.1,11.4c-5.2-0.9-13.2-7.3-17.8-14.5c-4.6-7.2-4-12.5,1.2-11.7
		C200.4,261.7,208.3,268.3,212.8,275.6z"/>
	<path class="st0" d="M255.7,340c4.5,6.3,4.3,10.6-0.5,9.8c-4.8-0.8-12.4-6.5-17-12.8c-4.6-6.3-4.3-10.8,0.6-10
		C243.6,327.9,251.2,333.7,255.7,340z"/>
	<path class="st0" d="M299.3,396.9c4.5,5.5,4.6,9.3,0.1,8.6c-4.5-0.7-12-5.7-16.6-11.3c-4.6-5.6-4.6-9.6,0-8.8
		C287.4,386.2,294.7,391.4,299.3,396.9z"/>
	<path class="st0" d="M343,447c4.4,4.7,4.8,8.1,0.6,7.6c-4.1-0.5-11.2-4.7-15.8-9.6c-4.5-4.8-4.7-8.3-0.5-7.7
		C331.6,437.9,338.5,442.2,343,447z"/>
	<path class="st0" d="M386.8,490.8c4.3,4.1,4.9,7.1,1.1,6.9c-3.8-0.2-10.5-3.7-15-7.9c-4.4-4.2-4.8-7.3-1-7
		C375.9,483.2,382.5,486.8,386.8,490.8z"/>
	<path class="st0" d="M430.6,529.2c4.2,3.5,4.9,6.3,1.5,6.4c-3.4,0.1-9.8-2.7-14.1-6.3c-4.3-3.6-4.9-6.5-1.4-6.5
		C420.1,522.9,426.4,525.7,430.6,529.2z"/>
	<path class="st0" d="M474.1,562.7c4.1,3,4.5,5,1.3,5.4c-3.1,0.4-8.5-0.9-12.7-4c-4.2-3.1-4.9-5.9-1.7-6.2
		C464.1,557.6,470,559.8,474.1,562.7z"/>
	<path class="st0" d="M513.9,587.8c3.6,2.1,4.1,4.2,1.2,4.7c-2.9,0.5-8.3-0.7-11.8-2.9c-3.6-2.1-4-4.2-1.1-4.7
		C505.1,584.5,510.3,585.7,513.9,587.8z"/>
	<path class="st0" d="M553.1,609.3c3.4,1.7,3.9,3.7,1.2,4.4c-2.8,0.7-7.9-0.2-11.3-2c-3.4-1.8-3.9-3.8-1.1-4.4
		C544.8,606.7,549.7,607.6,553.1,609.3z"/>
	<path class="st0" d="M591.5,628c3.2,1.5,3.7,3.4,1.1,4.3c-2.6,0.9-7.4,0.3-10.7-1.3c-3.2-1.5-3.7-3.4-1-4.2
		C583.5,626,588.2,626.5,591.5,628z"/>
	<path class="st0" d="M628.5,644.7c3,1.3,3.4,3.1,1,4.1c-2.4,1-6.8,0.7-9.8-0.6c-3-1.3-3.4-3.1-0.9-4.1
		C621.2,643.2,625.6,643.4,628.5,644.7z"/>
	<path class="st0" d="M664.3,659.9c2.7,1.1,3.1,2.9,0.9,4.1c-2.2,1.1-6.2,1.1-8.9,0c-2.7-1.2-3.1-3-0.9-4.1
		C657.7,658.8,661.6,658.7,664.3,659.9z"/>
	<path class="st0" d="M698.7,674.2c2.5,1,2.9,3,0.9,4.3c-2,1.3-5.7,1.5-8.2,0.4c-2.5-1.1-2.8-3-0.8-4.2
		C692.6,673.4,696.2,673.2,698.7,674.2z"/>
	<path class="st0" d="M731.2,688.5c2.2,1,2.6,3,0.8,4.4c-1.8,1.4-5,1.7-7.3,0.7c-2.2-1-2.5-3-0.7-4.3
		C725.8,687.8,729,687.5,731.2,688.5z"/>
	<path class="st0" d="M761.8,703.4c1.9,1,2.2,3,0.7,4.5c-1.5,1.5-4.4,1.9-6.3,0.8c-1.9-1-2.2-3-0.7-4.5
		C757.1,702.8,759.9,702.4,761.8,703.4z"/>
	<path class="st0" d="M790.4,719.5c1.6,1,1.9,3.1,0.6,4.6c-1.3,1.5-3.7,1.9-5.4,0.9c-1.7-1-1.9-3.1-0.6-4.6
		C786.3,718.9,788.7,718.5,790.4,719.5z"/>
	<path class="st0" d="M814.7,738c1.2,1.1,1.2,3.3,0,4.8c-1.2,1.6-3,1.9-4.2,0.7c-1.1-1.1-1.1-3.3,0-4.8
		C811.7,737.2,813.6,736.9,814.7,738z"/>
	<path class="st0" d="M834.1,759.7c0.9,1.2,0.8,3.4-0.3,4.9c-1.1,1.6-2.7,1.9-3.6,0.7c-0.9-1.2-0.8-3.4,0.3-4.9
		C831.6,758.8,833.2,758.5,834.1,759.7z"/>
	<path class="st0" d="M850.9,784.5c0.7,1.3,0.5,3.6-0.5,5.2c-1,1.6-2.4,1.8-3.2,0.5c-0.7-1.3-0.5-3.6,0.5-5.2
		C848.7,783.5,850.1,783.2,850.9,784.5z"/>
	<path class="st0" d="M864.6,813.3c0.5,1.3,0.3,3.7-0.6,5.2c-0.9,1.5-2,1.6-2.6,0.3c-0.5-1.3-0.3-3.7,0.6-5.2
		C862.9,812.1,864.1,811.9,864.6,813.3z"/>
	<path class="st0" d="M875.2,846.6c0.4,1.4,0,3.7-0.7,5.1c-0.8,1.4-1.7,1.4-2,0c-0.4-1.4,0-3.6,0.7-5
		C873.9,845.2,874.8,845.2,875.2,846.6z"/>
	<path class="st0" d="M882.5,885.1c0.2,1.4-0.1,3.6-0.8,4.9c-0.6,1.3-1.3,1.1-1.5-0.3c-0.2-1.4,0.1-3.6,0.8-4.8
		C881.6,883.6,882.3,883.7,882.5,885.1z"/>
	<path class="st0" d="M886.3,929.4c0.1,1.4-0.3,3.4-0.8,4.5c-0.5,1.1-0.9,0.8-1-0.6c-0.1-1.4,0.3-3.4,0.7-4.5
		C885.8,927.7,886.2,928,886.3,929.4z"/>
	<path class="st0" d="M886.4,980.2c0,1.4-0.4,3.2-0.7,4.1c-0.3,0.9-0.6,0.5-0.6-0.8c0-1.4,0.3-3.2,0.7-4.1
		C886.2,978.5,886.4,978.8,886.4,980.2z"/>
	<path class="st0" d="M882.6,1038.1c-0.1,1.3-0.4,2.9-0.6,3.6c-0.2,0.7-0.3,0.2-0.2-1c0.1-1.3,0.4-2.9,0.6-3.6
		C882.6,1036.3,882.7,1036.8,882.6,1038.1z"/>
	<path class="st0" d="M874.7,1103.6c-0.2,1.3-0.4,2.8-0.6,3.3c-0.1,0.6-0.1,0,0.1-1.3c0.2-1.3,0.4-2.8,0.6-3.3
		C875,1101.7,874.9,1102.3,874.7,1103.6z"/>
	<path class="st0" d="M203.1,169.3c4.4,9.6,3.2,16.5-2.7,15.9c-5.9-0.7-14.5-8.8-19-18.2c-4.5-9.5-3.2-16.9,2.8-16.3
		C190.3,151.2,198.8,159.7,203.1,169.3z"/>
	<path class="st0" d="M241.7,247.5c4.4,8.3,3.6,14.1-1.8,13.4c-5.4-0.8-13.6-7.9-18.2-16.1c-4.6-8.2-3.7-14.5,1.9-13.7
		C229.2,231.7,237.2,239.2,241.7,247.5z"/>
	<path class="st0" d="M281.3,316.1c4.5,7.2,4.1,12.3-1,11.5c-5.1-0.8-13-7.1-17.7-14.3c-4.6-7.2-4.1-12.6,1.1-11.8
		C269,302.2,276.8,308.9,281.3,316.1z"/>
	<path class="st0" d="M321.4,375.9c4.5,6.1,4.4,10.5-0.2,9.9c-4.6-0.6-12.2-6-16.8-12.2c-4.6-6.2-4.4-10.8,0.4-10.1
		C309.5,364.1,317,369.7,321.4,375.9z"/>
	<path class="st0" d="M362.2,427.6c4.5,5.3,4.7,9.1,0.4,8.7c-4.3-0.4-11.6-5-16.3-10.4c-4.6-5.4-4.8-9.4-0.3-8.9
		C350.5,417.5,357.7,422.3,362.2,427.6z"/>
	<path class="st0" d="M402.9,471.9c4.3,4.3,4.8,7.7,1,7.6c-3.8-0.1-10.6-3.7-15-8.2c-4.5-4.5-4.8-8-0.9-7.7
		C392,463.8,398.6,467.6,402.9,471.9z"/>
	<path class="st0" d="M443.8,509.8c4.2,3.6,5,6.7,1.6,6.9c-3.4,0.3-9.8-2.5-14.1-6.3c-4.4-3.7-5-6.9-1.4-7
		C433.4,503.3,439.6,506.2,443.8,509.8z"/>
	<path class="st0" d="M484.5,541.8c4.1,3,5,5.9,2,6.5c-3,0.7-9-1.3-13.2-4.4c-4.2-3.1-5-6.1-1.9-6.6
		C474.6,536.8,480.4,538.8,484.5,541.8z"/>
	<path class="st0" d="M524.5,568.3c3.9,2.3,4.8,4.9,2,5.8c-2.8,0.9-8.3-0.4-12.2-2.8c-3.9-2.4-4.7-5-1.9-5.8
		C515.2,564.7,520.6,566,524.5,568.3z"/>
	<path class="st0" d="M563.2,590.1c3.6,1.9,4.5,4.1,1.9,5.1c-2.6,0.9-7.7,0.2-11.4-1.7c-3.7-1.9-4.4-4.2-1.8-5.1
		C554.6,587.5,559.6,588.3,563.2,590.1z"/>
	<path class="st0" d="M601.1,608.4c3.4,1.5,4.2,3.6,1.8,4.6c-2.4,1.1-7.1,0.7-10.5-0.9c-3.4-1.5-4.1-3.6-1.7-4.6
		C593.1,606.5,597.7,606.9,601.1,608.4z"/>
	<path class="st0" d="M637.9,623.8c3.2,1.2,3.9,3.2,1.7,4.5c-2.3,1.2-6.7,1.1-9.9-0.2c-3.2-1.3-3.9-3.3-1.6-4.4
		C630.4,622.5,634.8,622.6,637.9,623.8z"/>
	<path class="st0" d="M673.3,637.3c2.9,1,3.6,3,1.5,4.3c-2,1.3-6.1,1.5-9,0.4c-2.9-1.1-3.6-3-1.5-4.3
		C666.5,636.4,670.4,636.2,673.3,637.3z"/>
	<path class="st0" d="M707.1,649.5c2.6,0.9,3.2,2.8,1.4,4.3c-1.8,1.4-5.5,1.8-8.1,0.9c-2.6-1-3.2-2.9-1.3-4.3
		S704.5,648.6,707.1,649.5z"/>
	<path class="st0" d="M739.1,661.2c2.3,0.8,2.9,2.8,1.2,4.3c-1.6,1.5-4.8,2-7.2,1.1c-2.3-0.9-2.9-2.8-1.2-4.3
		C733.6,660.9,736.8,660.4,739.1,661.2z"/>
	<path class="st0" d="M769.1,673.2c2,0.8,2.5,2.8,1.1,4.5s-4.2,2.2-6.2,1.3c-2-0.9-2.5-2.8-1.1-4.4
		C764.3,673,767.1,672.4,769.1,673.2z"/>
	<path class="st0" d="M796.8,686.2c1.7,0.9,2.2,2.9,1,4.6c-1.2,1.6-3.6,2.2-5.3,1.3c-1.7-0.9-2.2-2.9-1-4.5
		C792.7,685.9,795,685.3,796.8,686.2z"/>
	<path class="st0" d="M822,700.8c1.5,1,1.8,3.2,0.8,4.9c-1,1.7-3,2.3-4.5,1.3c-1.5-1-1.9-3.2-0.9-4.8
		C818.5,700.4,820.6,699.8,822,700.8z"/>
	<path class="st0" d="M843.5,718.3c1.2,1.1,1.3,3.4,0.3,5.1c-1,1.8-2.7,2.3-3.8,1.1c-1.1-1.1-1.3-3.4-0.3-5.1
		C840.6,717.8,842.3,717.2,843.5,718.3z"/>
	<path class="st0" d="M861.7,739.2c0.9,1.1,0.8,3.4,0,5.1c-0.9,1.7-2.3,2.1-3.1,0.9c-0.9-1.2-0.8-3.4,0-5
		C859.5,738.5,860.9,738.1,861.7,739.2z"/>
	<path class="st0" d="M888.9,1036.9c-0.2,1.4-0.6,3.1-0.8,3.8c-0.2,0.7-0.2,0.1,0-1.3c0.2-1.4,0.6-3.1,0.8-3.8
		C889.1,1034.9,889.1,1035.5,888.9,1036.9z"/>
	<path class="st0" d="M204.5,32.1c3.8,12,1.1,22.1-5.1,21.8c-9.5-0.5-16.7-12.7-19.7-21.4c-4.1-12.1-1.2-22.8,5.2-22.3
		C194.6,10.8,201.6,23.2,204.5,32.1z"/>
	<path class="st0" d="M237.1,125.2c4.1,10.7,2.4,19.4-3.8,19.8c-6.2,0.4-14.7-7.7-19-18.5c-4.3-10.8-2.5-20,3.9-20.3
		C224.6,105.9,233.1,114.6,237.1,125.2z"/>
	<path class="st0" d="M271.3,207.5c4.2,9.4,3.1,17.3-2.5,17.9c-5.7,0.6-14-6.3-18.4-15.8c-4.5-9.5-3.2-17.8,2.7-18.4
		C258.9,190.7,267,198.1,271.3,207.5z"/>
	<path class="st0" d="M306.7,279.8c4.4,8.2,3.8,15.3-1.4,16.1c-5.2,0.8-13.2-5.1-17.8-13.4c-4.6-8.3-3.8-15.8,1.6-16.5
		C294.4,265.3,302.3,271.6,306.7,279.8z"/>
	<path class="st0" d="M343.1,342.8c4.5,7.1,4.3,13.5-0.4,14.5c-4.8,1-12.5-3.9-17.2-11.1c-4.7-7.2-4.4-13.9,0.6-14.8
		C331,330.4,338.6,335.6,343.1,342.8z"/>
	<path class="st0" d="M379.9,397.3c4.4,5.9,4.6,11.4,0.4,12.5c-4.2,1-11.3-2.8-15.9-8.8c-4.6-6-4.7-11.7-0.3-12.7
		C368.5,387.3,375.5,391.4,379.9,397.3z"/>
	<path class="st0" d="M417.7,444c4.4,5,5,10,1.2,11.1c-3.8,1.1-10.7-1.9-15.3-7c-4.6-5.1-5-10.2-1.1-11.3
		C406.5,435.7,413.2,439,417.7,444z"/>
	<path class="st0" d="M455.6,483.8c4.4,4.2,5.2,8.5,1.8,9.7c-3.4,1.2-9.9-1.2-14.4-5.4c-4.5-4.2-5.2-8.7-1.7-9.9
		C444.9,477.1,451.2,479.6,455.6,483.8z"/>
	<path class="st0" d="M493.6,517.4c4.3,3.5,5.4,7.2,2.3,8.4c-3,1.2-9.2-0.5-13.6-4c-4.4-3.5-5.4-7.3-2.2-8.5
		C483.4,512,489.3,513.9,493.6,517.4z"/>
	<path class="st0" d="M531.4,545.5c4.1,2.8,5.3,5.7,2.6,7c-2.7,1.3-8.3,0.2-12.4-2.6s-5.3-6-2.5-7.2
		C521.8,541.5,527.3,542.7,531.4,545.5z"/>
	<path class="st0" d="M568.7,567.3c3.9,2.1,5.2,4.9,2.9,6.4c-2.4,1.5-7.6,0.9-11.6-1.2c-4-2.2-5.2-5.1-2.8-6.4
		C559.7,564.7,564.8,565.3,568.7,567.3z"/>
	<path class="st0" d="M605.3,585.3c3.7,1.6,5,4.2,3,5.9c-2.1,1.6-6.8,1.6-10.5-0.2c-3.8-1.7-5-4.3-2.9-5.9
		C597,583.6,601.6,583.7,605.3,585.3z"/>
	<path class="st0" d="M641.2,600c3.5,1.3,4.9,3.8,3.1,5.6c-1.8,1.8-6.2,2.1-9.8,0.7c-3.6-1.4-4.9-3.9-3-5.6
		C633.3,599,637.7,598.7,641.2,600z"/>
	<path class="st0" d="M675.7,612.5c3.1,1,4.5,3.4,2.9,5.2c-1.5,1.8-5.4,2.4-8.6,1.3c-3.2-1.1-4.4-3.4-2.9-5.2
		C668.8,612.1,672.6,611.5,675.7,612.5z"/>
	<path class="st0" d="M709.1,623.3c2.9,0.9,4.2,3.2,2.8,5.1c-1.4,1.9-4.9,2.7-7.9,1.7c-3-1-4.2-3.2-2.8-5.1
		C702.7,623.2,706.2,622.4,709.1,623.3z"/>
	<path class="st0" d="M740.8,633.3c2.6,0.8,3.8,3.1,2.6,5.1c-1.2,2-4.4,2.8-7,2c-2.7-0.9-3.8-3.1-2.5-5
		C735.1,633.3,738.2,632.4,740.8,633.3z"/>
	<path class="st0" d="M770.7,643.1c2.3,0.8,3.4,3.1,2.3,5.1c-1.1,2-3.9,2.9-6.2,2.1c-2.4-0.8-3.4-3.1-2.3-5
		C765.6,643.3,768.4,642.3,770.7,643.1z"/>
	<path class="st0" d="M798.6,653.7c2,0.8,2.9,3.1,1.9,5.1c-1,2-3.4,2.9-5.5,2c-2-0.9-2.9-3.1-1.9-5.1
		C794.1,653.8,796.5,652.9,798.6,653.7z"/>
	<path class="st0" d="M824.1,665.7c1.7,0.9,2.4,3.3,1.6,5.2c-0.9,2-3,2.8-4.7,1.9c-1.7-0.9-2.4-3.2-1.6-5.2
		C820.2,665.7,822.3,664.8,824.1,665.7z"/>
	<path class="st0" d="M846.7,680.3c1.4,1.1,1.9,3.5,1.1,5.4c-0.8,1.9-2.5,2.5-3.9,1.5c-1.4-1.1-1.9-3.5-1.1-5.4
		C843.5,679.9,845.3,679.2,846.7,680.3z"/>
	<path class="st0" d="M866,698.3c1.1,1.2,1.5,3.7,0.9,5.4c-0.6,1.8-2.1,2.2-3.2,1c-1.1-1.2-1.5-3.6-0.9-5.4
		C863.5,697.6,864.9,697.1,866,698.3z"/>
	<path class="st0" d="M891.6,1040.6c-0.3,1.7-0.7,3.7-1,4.4c-0.2,0.7-0.1-0.1,0.2-1.8c0.3-1.7,0.7-3.6,0.9-4.4
		C892,1038.1,891.9,1038.9,891.6,1040.6z"/>
	<path class="st0" d="M274.7,78.2c3.6,11.9,0.7,21.9-5.6,21.8c-9.5-0.2-16.7-12.2-19.5-20.9c-3.9-12-0.8-22.7,5.7-22.4
		C264.9,57.1,271.9,69.3,274.7,78.2z"/>
	<path class="st0" d="M303.5,163.5c3.9,10.5,2.1,19.2-4.1,19.8c-6.2,0.6-14.7-7.2-18.8-17.9c-4.2-10.6-2.2-19.9,4.2-20.4
		C291.3,144.6,299.6,153,303.5,163.5z"/>
	<path class="st0" d="M334,238.7c4.1,9.2,2.9,17.1-2.7,18c-5.6,0.9-13.8-5.7-18.2-15.1c-4.3-9.3-3-17.8,2.9-18.5
		C321.9,222.4,329.9,229.5,334,238.7z"/>
	<path class="st0" d="M365.7,304.5c4.2,7.9,3.6,15-1.5,16c-5,1.1-12.8-4.3-17.2-12.3c-4.4-8-3.7-15.5,1.6-16.5
		C353.9,290.8,361.5,296.6,365.7,304.5z"/>
	<path class="st0" d="M398.6,361.7c4.2,6.7,4.1,13-0.3,14.2c-4.5,1.3-11.8-3.1-16.2-9.8c-4.5-6.8-4.2-13.4,0.5-14.6
		C387.2,350.3,394.3,355,398.6,361.7z"/>
	<path class="st0" d="M432.4,411c4.3,5.6,4.6,11.2,0.6,12.6c-3.9,1.4-10.8-2-15.3-7.7c-4.5-5.7-4.6-11.6-0.5-12.9
		C421.4,401.7,428.1,405.3,432.4,411z"/>
	<path class="st0" d="M466.9,453.1c4.2,4.7,4.9,9.7,1.5,11.2c-3.5,1.5-9.9-1-14.4-5.8c-4.4-4.8-5-9.9-1.3-11.4
		C456.3,445.6,462.6,448.4,466.9,453.1z"/>
	<path class="st0" d="M501.9,488.8c4.2,3.9,5.2,8.3,2.1,9.9c-3.1,1.6-9.1-0.3-13.5-4.2c-4.4-4-5.2-8.5-2-10
		C491.7,482.9,497.6,484.9,501.9,488.8z"/>
	<path class="st0" d="M536.9,518.9c4.1,3.1,5.3,7,2.7,8.6c-2.6,1.6-8.2,0.4-12.4-2.8c-4.2-3.2-5.3-7.1-2.5-8.7
		C527.4,514.4,532.9,515.7,536.9,518.9z"/>
	<path class="st0" d="M572,542.5c3.9,2.2,5.3,5.4,3,7.1c-2.3,1.8-7.5,1.3-11.5-1c-4.1-2.3-5.3-5.5-2.9-7.2
		C563,539.8,568.1,540.2,572,542.5z"/>
	<path class="st0" d="M606.7,560.3c3.7,1.7,5.2,4.6,3.3,6.5c-2,1.9-6.7,2-10.5,0.2c-3.8-1.8-5.2-4.7-3.2-6.5
		C598.4,558.6,603,558.6,606.7,560.3z"/>
	<path class="st0" d="M640.9,574.7c3.5,1.3,5,4,3.4,6c-1.7,2-6,2.5-9.6,1.1c-3.6-1.4-5-4.1-3.3-6
		C633.2,573.8,637.4,573.4,640.9,574.7z"/>
	<path class="st0" d="M674.5,586.4c3.3,1.1,4.9,3.6,3.5,5.7c-1.5,2.1-5.4,2.9-8.8,1.8c-3.4-1.1-4.9-3.7-3.4-5.7
		C667.2,586.1,671.1,585.3,674.5,586.4z"/>
	<path class="st0" d="M706.9,596.3c3.1,0.9,4.6,3.3,3.4,5.5c-1.2,2.2-4.8,3.2-8,2.2c-3.1-0.9-4.6-3.4-3.3-5.5
		C700.3,596.4,703.8,595.4,706.9,596.3z"/>
	<path class="st0" d="M738.1,605.2c2.7,0.7,4.1,3.1,3.1,5.2c-1,2.1-4.2,3.2-6.9,2.4c-2.8-0.8-4.1-3.1-3.1-5.2
		C732.3,605.5,735.4,604.4,738.1,605.2z"/>
	<path class="st0" d="M767.9,613.5c2.5,0.7,3.8,3,2.9,5.2c-0.9,2.1-3.7,3.3-6.2,2.5c-2.5-0.7-3.8-3-2.8-5.1
		C762.7,614,765.4,612.8,767.9,613.5z"/>
	<path class="st0" d="M796,622.3c2.2,0.7,3.3,3,2.5,5.2c-0.8,2.1-3.2,3.2-5.4,2.5c-2.2-0.7-3.3-3-2.5-5.1
		C791.4,622.7,793.8,621.6,796,622.3z"/>
	<path class="st0" d="M822.1,632.1c1.9,0.8,2.9,3.2,2.2,5.2c-0.7,2.1-2.8,3.1-4.7,2.3c-1.9-0.8-2.9-3.1-2.2-5.2
		C818,632.4,820.2,631.3,822.1,632.1z"/>
	<path class="st0" d="M846,643.9c1.6,0.9,2.3,3.4,1.7,5.5c-0.6,2-2.4,2.8-4,1.9c-1.6-0.9-2.4-3.3-1.8-5.3
		C842.5,643.9,844.3,643,846,643.9z"/>
	<path class="st0" d="M865.8,659.9c1.2,1.2,1.8,3.7,1.3,5.6c-0.5,1.9-2,2.5-3.2,1.4c-1.2-1.2-1.8-3.7-1.3-5.6
		C863.1,659.4,864.6,658.7,865.8,659.9z"/>
	<path class="st0" d="M339.5,118.9c3.3,11.6,0.3,21.6-6.1,21.7c-9.4,0.1-16.5-11.6-19.1-20c-3.7-11.8-0.4-22.4,6.3-22.3
		C330.2,98.4,337,110.2,339.5,118.9z"/>
	<path class="st0" d="M364.6,196.7c3.6,10.2,1.7,18.9-4.5,19.8c-6.1,0.9-14.4-6.5-18.4-16.9c-4-10.4-1.8-19.7,4.6-20.4
		C352.9,178.5,361,186.5,364.6,196.7z"/>
	<path class="st0" d="M391.2,264.9c3.8,8.8,2.6,16.6-2.9,17.8c-5.5,1.2-13.3-4.9-17.4-13.8c-4.1-8.9-2.7-17.2,3.1-18.3
		C379.8,249.6,387.4,256.1,391.2,264.9z"/>
	<path class="st0" d="M419.6,324.3c4,7.6,3.4,14.7-1.5,16.2c-4.9,1.4-12.4-3.5-16.7-11.2c-4.3-7.7-3.5-15.3,1.7-16.6
		C408.2,311.4,415.6,316.7,419.6,324.3z"/>
	<path class="st0" d="M449.1,375.7c4.1,6.4,4,12.8-0.3,14.5c-4.3,1.6-11.4-2.2-15.7-8.7c-4.3-6.6-4.1-13.3,0.5-14.8
		C438,365.1,445,369.3,449.1,375.7z"/>
	<path class="st0" d="M479.6,419.8c4.1,5.4,4.5,11.1,0.8,12.9c-3.8,1.8-10.4-1-14.8-6.5c-4.4-5.5-4.6-11.5-0.6-13.2
		C469,411.3,475.5,414.4,479.6,419.8z"/>
	<path class="st0" d="M511,457.3c4.2,4.5,5,9.6,1.7,11.6c-3.3,2-9.5-0.1-13.9-4.7c-4.4-4.6-5-9.9-1.6-11.8
		C500.7,450.6,506.9,452.8,511,457.3z"/>
	<path class="st0" d="M542.9,489.1c4.1,3.7,5.2,8.2,2.4,10.2c-2.8,2-8.5,0.7-12.8-3c-4.3-3.7-5.3-8.4-2.3-10.4
		C533.2,484,538.8,485.4,542.9,489.1z"/>
	<path class="st0" d="M575.2,515.6c4,3,5.4,6.2,3.1,8.3c-2.4,2.1-7.7,2.3-11.9-0.8c-4.2-3.1-5.5-7.2-3-9.3
		C565.9,511.8,571.2,512.6,575.2,515.6z"/>
	<path class="st0" d="M607.6,533.7c3.9,1.9,5.5,5.2,3.5,7.5c-2,2.3-6.9,2.5-10.9,0.5c-4-2-5.5-5.4-3.4-7.6
		C598.9,531.9,603.8,531.8,607.6,533.7z"/>
	<path class="st0" d="M639.9,548c3.7,1.4,5.4,4.5,3.7,6.9c-1.7,2.4-6.2,3-10,1.5c-3.8-1.5-5.4-4.6-3.6-6.9
		C631.8,547.2,636.2,546.6,639.9,548z"/>
	<path class="st0" d="M671.9,559.4c3.6,1.1,5.3,4,3.9,6.5c-1.4,2.5-5.6,3.5-9.3,2.3c-3.7-1.2-5.4-4.1-3.8-6.5
		C664.2,559.3,668.3,558.2,671.9,559.4z"/>
	<path class="st0" d="M703.1,568.8c3.3,0.9,5,3.6,3.8,6c-1.2,2.5-4.9,3.7-8.2,2.8c-3.3-0.9-5-3.6-3.8-6
		C696.2,569.1,699.9,567.9,703.1,568.8z"/>
	<path class="st0" d="M733.6,576.7c3,0.7,4.7,3.3,3.7,5.8c-1,2.5-4.3,3.8-7.4,3.1c-3.1-0.8-4.7-3.4-3.7-5.8
		C727.3,577.3,730.5,576,733.6,576.7z"/>
	<path class="st0" d="M762.9,583.9c2.8,0.7,4.4,3.2,3.5,5.7c-0.8,2.5-3.8,3.9-6.6,3.2c-2.8-0.7-4.4-3.2-3.5-5.7
		C757.2,584.7,760.1,583.2,762.9,583.9z"/>
	<path class="st0" d="M790.8,591.2c2.5,0.7,4,3.2,3.3,5.7c-0.7,2.4-3.3,3.8-5.8,3.1c-2.5-0.7-4-3.2-3.3-5.6
		C785.7,592,788.3,590.5,790.8,591.2z"/>
	<path class="st0" d="M817.2,599.3c2.2,0.7,3.6,3.3,3,5.7c-0.6,2.4-2.9,3.7-5.1,2.9c-2.2-0.8-3.6-3.3-3-5.7
		C812.7,599.9,815,598.6,817.2,599.3z"/>
	<path class="st0" d="M841.7,609c1.9,0.8,3,3.4,2.5,5.7c-0.5,2.3-2.5,3.4-4.4,2.6c-1.9-0.9-3-3.4-2.5-5.6
		C837.8,609.4,839.8,608.2,841.7,609z"/>
	<path class="st0" d="M863.1,622.1c1.5,1.2,2.3,4,1.8,6.2c-0.4,2.2-2,3-3.4,1.8c-1.5-1.2-2.3-3.9-1.8-6.1
		C860.1,621.7,861.7,620.9,863.1,622.1z"/>
	<path class="st0" d="M910.6,976.7c-0.4,2.2-0.9,4.7-1.2,5.7c-0.3,1-0.3,0,0.1-2.2c0.4-2.2,0.9-4.7,1.2-5.6
		C911,973.6,911,974.5,910.6,976.7z"/>
	<path class="st0" d="M379.8,74.4c2.6,12.5-1.5,23-8.4,23c-10-0.1-16.8-12.9-18.9-22c-3-12.7,1.4-24,8.6-23.7
		C371.3,52.1,377.8,65,379.8,74.4z"/>
	<path class="st0" d="M399,154.3c3,11,0.1,20.3-6.5,21.1c-6.6,0.8-14.8-7.3-18.2-18.6c-3.4-11.2-0.3-21.2,6.7-21.8
		C388,134.5,396,143.3,399,154.3z"/>
	<path class="st0" d="M420.3,224.6c3.3,9.7,1.2,18.1-4.8,19.3c-6,1.2-13.8-5.6-17.5-15.4c-3.6-9.9-1.4-19,5-19.9
		C409.4,207.6,417,215,420.3,224.6z"/>
	<path class="st0" d="M443.4,286c3.5,8.3,2.1,15.9-3.1,17.4c-5.3,1.5-12.7-3.9-16.5-12.3c-3.8-8.4-2.3-16.6,3.3-17.9
		C432.6,271.9,439.9,277.8,443.4,286z"/>
	<path class="st0" d="M468.3,339.2c3.7,7.1,3,14.2-1.7,16c-4.7,1.8-11.8-2.4-15.8-9.7c-4-7.3-3.1-14.8,1.8-16.4
		C457.6,327.4,464.6,332.1,468.3,339.2z"/>
	<path class="st0" d="M494.4,385c3.8,5.9,3.7,12.2-0.3,14.2c-4,2-10.6-1.1-14.6-7.2c-4-6-3.8-12.6,0.5-14.5
		C484.1,375.6,490.6,379.1,494.4,385z"/>
	<path class="st0" d="M521.8,424.1c3.9,4.9,4.3,10.6,0.8,12.8c-3.5,2.2-9.6,0-13.7-5c-4.1-5.1-4.4-11-0.7-13.1
		C511.8,416.7,517.9,419.1,521.8,424.1z"/>
	<path class="st0" d="M550,457.1c3.8,4,4.7,9.1,1.8,11.4c-2.9,2.3-8.6,1-12.6-3.1c-4.1-4.1-4.8-9.4-1.7-11.6
		C540.6,451.5,546.2,453.1,550,457.1z"/>
	<path class="st0" d="M579.1,484.8c3.9,3.3,5,7.9,2.6,10.4c-2.5,2.5-7.8,1.8-11.8-1.6c-4-3.4-5.1-8.1-2.5-10.5
		C570,480.7,575.2,481.5,579.1,484.8z"/>
	<path class="st0" d="M608.7,505.7c3.8,2,5.3,5.7,3.2,8.3c-2,2.6-6.9,2.9-10.9,0.8c-3.9-2.1-5.3-5.9-3.2-8.4
		C600.1,504,604.9,503.7,608.7,505.7z"/>
	<path class="st0" d="M638.8,520.3c3.7,1.5,5.3,4.9,3.6,7.5c-1.7,2.6-6.2,3.5-10,1.9c-3.8-1.6-5.4-5-3.6-7.6
		C630.7,519.5,635.1,518.8,638.8,520.3z"/>
	<path class="st0" d="M668.8,531.8c3.5,1.2,5.3,4.3,3.9,6.9c-1.4,2.7-5.5,3.9-9.1,2.6c-3.6-1.2-5.3-4.4-3.8-7
		C661.3,531.7,665.3,530.6,668.8,531.8z"/>
	<path class="st0" d="M698.6,540.8c3.3,0.9,5.1,3.8,4,6.5c-1.1,2.7-4.9,4.1-8.3,3.2c-3.4-0.9-5.2-3.9-4-6.5
		C691.6,541.3,695.3,539.9,698.6,540.8z"/>
	<path class="st0" d="M727.9,548.2c3.1,0.7,4.9,3.5,4,6.2c-0.9,2.7-4.3,4.3-7.5,3.5c-3.2-0.8-5-3.5-4-6.2
		C721.5,549.1,724.8,547.5,727.9,548.2z"/>
	<path class="st0" d="M756.4,554.6c2.9,0.6,4.7,3.3,3.9,6c-0.7,2.7-3.8,4.3-6.7,3.7c-3-0.7-4.7-3.3-3.9-6
		C750.5,555.7,753.5,554,756.4,554.6z"/>
	<path class="st0" d="M784,560.8c2.7,0.6,4.3,3.3,3.7,5.9c-0.6,2.6-3.3,4.3-6,3.6c-2.7-0.6-4.4-3.3-3.7-5.9
		C778.6,561.9,781.3,560.2,784,560.8z"/>
	<path class="st0" d="M810.2,567.7c2.4,0.6,3.9,3.2,3.4,5.8c-0.5,2.5-2.8,4-5.2,3.4c-2.4-0.7-3.9-3.2-3.4-5.7
		C805.6,568.6,807.9,567,810.2,567.7z"/>
	<path class="st0" d="M835,575.6c2.1,0.7,3.5,3.4,3.1,5.9c-0.4,2.5-2.4,3.8-4.5,3.1c-2.1-0.8-3.5-3.4-3.1-5.8
		C830.9,576.3,832.9,574.9,835,575.6z"/>
	<path class="st0" d="M858,585.6c1.8,0.9,2.8,3.7,2.4,6.1c-0.3,2.3-1.9,3.2-3.7,2.3c-1.8-0.9-3-3.5-2.6-5.8
		C854.5,585.9,856.3,584.7,858,585.6z"/>
	<path class="st0" d="M877,601c1.3,1.3,2.2,4.2,1.9,6.4c-0.3,2.2-1.6,2.9-3,1.7c-1.3-1.3-2.2-4.1-1.9-6.3
		C874.3,600.5,875.6,599.7,877,601z"/>
	<path class="st0" d="M438.3,112.2c2.2,12.1-2.2,22.6-9.2,22.9c-9.9,0.3-16.5-12.1-18.4-20.9c-2.6-12.4,2-23.7,9.4-23.7
		C430.2,90.5,436.6,103,438.3,112.2z"/>
	<path class="st0" d="M453.7,184.2c2.6,10.7-0.5,19.9-7.1,21c-6.6,1.1-14.6-6.5-17.7-17.4c-3.1-10.9,0.3-20.9,7.4-21.8
		C443.3,165.2,451.1,173.6,453.7,184.2z"/>
	<path class="st0" d="M471.3,247.3c2.9,9.2,0.7,17.5-5.2,19.1c-5.9,1.5-13.4-4.5-16.7-13.9c-3.3-9.4-0.8-18.4,5.4-19.7
		C461,231.4,468.4,238.1,471.3,247.3z"/>
	<path class="st0" d="M490.9,302c3.2,7.8,1.7,15.4-3.4,17.3c-5.1,1.9-12.3-2.8-15.8-10.8c-3.5-8-1.9-16.2,3.6-17.8
		C480.8,289,487.7,294.2,490.9,302z"/>
	<path class="st0" d="M512.4,349.2c3.4,6.6,2.6,13.5-1.9,15.7c-4.5,2.2-11.2-1.3-14.9-8.1c-3.7-6.8-2.8-14.1,2-16.1
		C502.4,338.6,509,342.6,512.4,349.2z"/>
	<path class="st0" d="M535.4,389.4c3.6,5.5,3.4,11.8-0.5,14.3c-3.9,2.5-10.2,0-14-5.7c-3.9-5.7-3.5-12.3,0.6-14.6
		C525.7,381.1,531.8,383.9,535.4,389.4z"/>
	<path class="st0" d="M559.8,423.5c3.7,4.6,4,10.3,0.8,13c-3.3,2.7-9.2,1.2-13.2-3.5c-3.9-4.7-4.2-10.8-0.6-13.3
		C550.3,417.1,556.1,418.9,559.8,423.5z"/>
	<path class="st0" d="M585.1,452.2c3.7,3.7,4.5,8.9,1.8,11.7c-2.7,2.8-8.2,2.1-12.1-1.7c-3.9-3.8-4.7-9.2-1.7-12
		C576,447.5,581.4,448.5,585.1,452.2z"/>
	<path class="st0" d="M611.3,476.1c3.7,3,5,6.6,2.8,9.5c-2.3,2.9-7.4,4-11.3,1c-3.9-3.1-5-8-2.6-10.8
		C602.7,472.9,607.6,473.1,611.3,476.1z"/>
	<path class="st0" d="M638.8,491.2c3.7,1.7,5.2,5.5,3.4,8.5c-1.9,3-6.5,4-10.4,2.2c-3.9-1.8-5.3-5.7-3.3-8.7
		C630.4,490.4,635.1,489.5,638.8,491.2z"/>
	<path class="st0" d="M666.6,502.8c3.7,1.3,5.4,4.9,3.9,8c-1.5,3.1-5.9,4.5-9.7,3.1c-3.8-1.4-5.5-5-3.8-8
		C658.7,502.9,663,501.5,666.6,502.8z"/>
	<path class="st0" d="M694.5,512c3.5,1,5.3,4.2,4.1,7.3c-1.2,3.1-5.1,4.7-8.7,3.7c-3.6-1-5.4-4.3-4.1-7.3
		C687.2,512.7,691.1,511.1,694.5,512z"/>
	<path class="st0" d="M722.3,519.2c3.3,0.7,5.2,3.8,4.2,6.9c-1,3-4.5,4.9-7.9,4.1c-3.4-0.8-5.3-3.9-4.2-6.9
		C715.5,520.3,719,518.5,722.3,519.2z"/>
	<path class="st0" d="M749.7,525.2c3.1,0.6,5,3.6,4.3,6.6c-0.8,3-4,4.9-7.2,4.3c-3.2-0.7-5.1-3.6-4.3-6.6
		C743.4,526.5,746.6,524.6,749.7,525.2z"/>
	<path class="st0" d="M776.5,530.6c2.9,0.6,4.8,3.5,4.2,6.4c-0.6,3-3.5,4.9-6.5,4.3c-3-0.6-4.8-3.5-4.2-6.4
		C770.7,532,773.6,530.1,776.5,530.6z"/>
	<path class="st0" d="M802.3,536.4c2.6,0.6,4.4,3.4,3.9,6.3c-0.5,2.8-3,4.6-5.6,4c-2.7-0.6-4.4-3.4-3.9-6.2
		C797.2,537.6,799.7,535.8,802.3,536.4z"/>
	<path class="st0" d="M827.1,543c2.4,0.7,4,3.5,3.6,6.3c-0.4,2.8-2.6,4.4-5,3.7c-2.4-0.7-4.1-3.5-3.7-6.3
		C822.4,544,824.7,542.3,827.1,543z"/>
	<path class="st0" d="M850.4,551.4c2.1,0.8,3.5,3.7,3.2,6.3c-0.3,2.6-2.2,4-4.3,3.2c-2.1-0.8-3.6-3.6-3.3-6.2
		C846.4,552,848.3,550.5,850.4,551.4z"/>
	<path class="st0" d="M871.2,563.5c1.6,1.3,2.7,4.3,2.4,6.8c-0.2,2.5-1.7,3.4-3.3,2.1c-1.6-1.3-2.7-4.3-2.4-6.7
		C868.1,563.2,869.6,562.2,871.2,563.5z"/>
	<path class="st0" d="M482,70.9c0.9,8.6-2.3,23.3-11.9,23.8c-10,0.5-16.6-13.5-17.9-22.8c-1.3-8.9,1.9-24.7,12.2-24.7
		C474.6,47.1,481,61.2,482,70.9z"/>
	<path class="st0" d="M491.3,144.4c1.8,11.4-2.5,21-9.7,22c-7.2,1-15-7.3-17.2-19c-2.2-11.7,2.3-22.1,10-22.8
		C482.1,123.9,489.6,133,491.3,144.4z"/>
	<path class="st0" d="M503.3,208.8c2.2,9.9-1.2,18.8-7.6,20.3c-6.5,1.5-14-5.3-16.6-15.5c-2.6-10.2,1-19.8,7.9-21
		C493.9,191.4,501.1,198.9,503.3,208.8z"/>
	<path class="st0" d="M517.6,264.8c2.5,8.5,0.1,16.6-5.6,18.5c-5.7,1.9-12.8-3.3-15.7-12.1c-2.9-8.7-0.3-17.5,5.8-19.1
		C508.2,250.4,515,256.3,517.6,264.8z"/>
	<path class="st0" d="M534,313c2.8,7.2,1.2,14.6-3.8,16.8c-5,2.3-11.7-1.6-14.9-9c-3.2-7.4-1.4-15.3,4-17.4
		C524.7,301.4,531.2,305.9,534,313z"/>
	<path class="st0" d="M552.4,354.3c3.1,6,2.1,12.8-2.2,15.4c-4.3,2.6-10.6-0.1-14-6.3c-3.4-6.2-2.3-13.4,2.3-15.8
		C543.2,345.1,549.3,348.3,552.4,354.3z"/>
	<path class="st0" d="M572.4,389.3c3.2,4.9,2.9,11-0.7,13.9c-3.6,2.9-9.5,1.2-13-3.9c-3.5-5.1-3.1-11.6,0.8-14.2
		C563.4,382.4,569.2,384.4,572.4,389.3z"/>
	<path class="st0" d="M593.9,418.6c3.4,4,3.6,9.7,0.5,12.8c-3.1,3.1-8.6,2.4-12.2-1.8c-3.6-4.2-3.8-10.1-0.5-13.1
		C585.1,413.5,590.5,414.5,593.9,418.6z"/>
	<path class="st0" d="M616.6,443c3.4,3.2,4.2,8.4,1.6,11.7c-2.6,3.3-7.6,3.3-11.3-0.1c-3.7-3.4-4.3-8.8-1.5-11.9
		C608.1,439.6,613.2,439.8,616.6,443z"/>
	<path class="st0" d="M640.7,461.1c3.6,2,4.8,6.2,2.7,9.5c-2.1,3.3-6.9,4.5-10.6,2.4c-3.8-2-4.9-6.4-2.6-9.7
		C632.4,460.1,637.1,459.1,640.7,461.1z"/>
	<path class="st0" d="M665.9,473.3c3.5,1.4,5,5.3,3.3,8.7c-1.7,3.4-6.1,4.9-9.8,3.4c-3.7-1.5-5.1-5.5-3.3-8.8
		C658,473.3,662.4,471.9,665.9,473.3z"/>
	<path class="st0" d="M691.6,482.8c3.4,1,5.1,4.5,3.7,7.8c-1.4,3.3-5.3,5.1-8.9,4c-3.5-1.1-5.2-4.7-3.7-7.9
		C684.3,483.5,688.2,481.8,691.6,482.8z"/>
	<path class="st0" d="M717.6,490.1c3.3,0.8,5.1,4,4,7.3c-1.1,3.3-4.7,5.3-8.1,4.5c-3.4-0.8-5.2-4.1-4-7.4
		C710.7,491.3,714.3,489.3,717.6,490.1z"/>
	<path class="st0" d="M743.6,495.9c3.2,0.6,5,3.7,4.2,7c-0.9,3.2-4.2,5.3-7.4,4.7c-3.2-0.6-5.1-3.8-4.2-7
		C737.1,497.3,740.4,495.2,743.6,495.9z"/>
	<path class="st0" d="M769.2,501c2.9,0.5,4.8,3.5,4.1,6.6c-0.6,3.1-3.6,5.2-6.6,4.6c-3-0.6-4.9-3.5-4.1-6.6
		C763.3,502.5,766.3,500.5,769.2,501z"/>
	<path class="st0" d="M794.3,506c2.7,0.5,4.5,3.5,4.1,6.5c-0.5,3-3.1,5-5.9,4.4c-2.8-0.6-4.6-3.4-4.1-6.5
		C788.9,507.4,791.6,505.4,794.3,506z"/>
	<path class="st0" d="M818.7,511.7c2.5,0.6,4.2,3.5,3.8,6.3c-0.4,2.9-2.7,4.7-5.2,4c-2.5-0.6-4.2-3.4-3.8-6.3
		C813.9,512.9,816.2,511.1,818.7,511.7z"/>
	<path class="st0" d="M842,518.7c2.2,0.7,3.7,3.6,3.5,6.3c-0.3,2.7-2.3,4.3-4.5,3.5s-3.8-3.5-3.5-6.2
		C837.8,519.6,839.8,518,842,518.7z"/>
	<path class="st0" d="M864,527.8c1.9,0.9,3.1,4,2.9,6.6c-0.2,2.5-1.7,3.5-3.7,2.6c-1.9-0.9-3.3-3.7-3.1-6.2
		C860.4,528.3,862.1,526.9,864,527.8z"/>
	<path class="st0" d="M882.9,542.5c1.5,1.4,2.6,4.5,2.3,7c-0.2,2.4-1.6,3.3-3.1,1.9c-1.5-1.4-2.6-4.5-2.4-6.9
		C879.9,542,881.3,541.1,882.9,542.5z"/>
	<path class="st0" d="M534.2,105.5c0.6,8.9-3.3,22.4-12.9,23.3c-9.8,0.9-16.2-12.3-17.1-21.3c-1-9.2,3-23.9,13.2-24.3
		C527.5,82.9,533.6,96.1,534.2,105.5z"/>
	<path class="st0" d="M540,171c1.3,10.7-3.3,20-10.4,21.3c-7.1,1.3-14.5-6.1-16.3-17.1c-1.8-11,3.1-21.2,10.7-22.2
		C531.7,152,538.7,160.3,540,171z"/>
	<path class="st0" d="M548.7,228c1.7,9.1-1.8,17.6-8.1,19.5c-6.3,1.8-13.3-4-15.5-13.4c-2.2-9.4,1.6-18.7,8.4-20.2
		C540.2,212.3,546.9,218.9,548.7,228z"/>
	<path class="st0" d="M560.1,277.1c2.2,7.8-0.5,15.7-6.2,18c-5.6,2.3-12.4-2.1-15-10.2c-2.6-8.1,0.3-16.7,6.4-18.7
		C551.4,264.2,557.9,269.3,560.1,277.1z"/>
	<path class="st0" d="M573.6,319.1c2.5,6.6,0.6,13.8-4.3,16.5c-4.9,2.7-11.3-0.3-14.2-7.2c-2.9-6.8-0.8-14.6,4.5-17.1
		C564.8,308.9,571.1,312.6,573.6,319.1z"/>
	<path class="st0" d="M589.1,354.7c2.8,5.4,1.6,12-2.6,15c-4.2,3-10.2,1.2-13.3-4.4c-3.1-5.6-1.9-12.7,2.7-15.5
		C580.4,347,586.3,349.4,589.1,354.7z"/>
	<path class="st0" d="M606.5,384.5c3,4.4,2.5,10.5-1.1,13.9c-3.6,3.3-9.3,2.5-12.6-2.1c-3.3-4.6-2.7-11.1,1.2-14.2
		C597.9,378.9,603.5,380.1,606.5,384.5z"/>
	<path class="st0" d="M625.4,409.3c3.1,3.5,3.2,9.1,0.2,12.7c-3,3.6-8.3,3.6-11.7-0.1c-3.4-3.7-3.5-9.6-0.1-13
		C617.1,405.5,622.3,405.7,625.4,409.3z"/>
	<path class="st0" d="M645.6,429.6c3.2,2.8,4.1,7,1.5,10.7c-2.5,3.7-7.7,5.5-11.1,2.6c-3.5-3-4-8.4-1.3-12
		C637.6,427.4,642.4,426.8,645.6,429.6z"/>
	<path class="st0" d="M668,442.7c3.4,1.7,4.5,6,2.4,9.7c-2.1,3.7-6.7,5.4-10.3,3.7c-3.6-1.7-4.7-6.2-2.4-9.8
		C659.9,442.6,664.6,441,668,442.7z"/>
	<path class="st0" d="M691.2,452.6c3.4,1.2,4.8,5.2,3.1,8.9c-1.7,3.7-6,5.7-9.6,4.5c-3.6-1.3-5-5.3-3.1-9
		C683.5,453.3,687.8,451.4,691.2,452.6z"/>
	<path class="st0" d="M714.9,460.3c3.3,0.9,4.9,4.5,3.6,8.1c-1.4,3.6-5.2,5.8-8.7,4.9c-3.5-0.9-5.1-4.6-3.6-8.2
		C707.7,461.6,711.6,459.5,714.9,460.3z"/>
	<path class="st0" d="M739.1,466.2c3.2,0.7,5,4.1,3.9,7.6c-1.1,3.5-4.6,5.9-8,5.2c-3.3-0.7-5.1-4.1-3.9-7.7
		C732.2,467.8,735.8,465.6,739.1,466.2z"/>
	<path class="st0" d="M763.3,471.2c3.1,0.6,4.9,3.8,4,7.2c-0.8,3.4-4,5.7-7.2,5.1c-3.1-0.6-5-3.8-4.1-7.2
		C757,473,760.2,470.7,763.3,471.2z"/>
	<path class="st0" d="M787.3,475.8c2.9,0.5,4.7,3.7,4.1,7c-0.6,3.3-3.5,5.6-6.5,5c-3-0.5-4.9-3.7-4.1-7
		C781.5,477.5,784.4,475.3,787.3,475.8z"/>
	<path class="st0" d="M810.9,480.8c2.7,0.6,4.4,3.6,4,6.8c-0.5,3.2-3.1,5.2-5.8,4.6c-2.7-0.6-4.6-3.6-4-6.8
		C805.6,482.3,808.3,480.2,810.9,480.8z"/>
	<path class="st0" d="M833.9,486.9c2.4,0.7,4.1,3.7,3.7,6.7c-0.4,3-2.6,4.8-5.1,4.1c-2.5-0.7-4.2-3.7-3.8-6.6
		C829.1,488.1,831.5,486.2,833.9,486.9z"/>
	<path class="st0" d="M855.9,494.7c2.2,0.9,3.7,3.9,3.4,6.7c-0.3,2.8-2.2,4.3-4.4,3.5s-3.8-3.8-3.5-6.6
		C851.7,495.5,853.8,493.9,855.9,494.7z"/>
	<path class="st0" d="M876.2,506.1c1.8,1.4,3.1,4.7,2.8,7.4c-0.3,2.7-1.9,3.7-3.7,2.4c-1.8-1.4-3.1-4.6-2.9-7.3
		C872.7,505.8,874.4,504.7,876.2,506.1z"/>
	<path class="st0" d="M581.7,68c-0.3,9.7-5.8,23.3-16.1,23.9c-10.5,0.6-16.2-13.6-16.3-23.1c-0.2-10.1,5.5-24.9,16.5-25
		C576.5,43.9,582,58.1,581.7,68z"/>
	<path class="st0" d="M581.6,134.4c0.3,11.4-5.7,21-13.5,22.1c-7.9,1.1-15-7.1-15.9-18.9c-0.7-9.3,3.7-21.9,13.9-23.1
		C574.2,113.6,581.3,123,581.6,134.4z"/>
	<path class="st0" d="M584.7,192.1c0.8,9.9-4.1,18.8-11.2,20.5c-7.1,1.7-14.1-4.8-15.4-15c-1.3-10.3,3.9-20.1,11.5-21.4
		C577.2,174.9,583.9,182.3,584.7,192.1z"/>
	<path class="st0" d="M590.6,242c1.3,8.4-2.5,16.6-8.8,18.8c-6.3,2.2-13-2.6-14.8-11.3c-1.8-8.7,2.3-17.7,9.1-19.6
		C582.8,228,589.2,233.6,590.6,242z"/>
	<path class="st0" d="M599,284.6c1.8,6.9-1.2,14.4-6.7,17.1c-5.5,2.7-11.8-0.7-14-7.9c-2.2-7.2,0.9-15.4,6.8-17.7
		C591.1,273.7,597.2,277.7,599,284.6z"/>
	<path class="st0" d="M610,320.7c2.1,5.7,0,12.6-4.8,15.7c-4.8,3.1-10.8,1-13.3-5c-2.5-6-0.3-13.5,4.9-16.3
		C602,312.3,607.9,314.9,610,320.7z"/>
	<path class="st0" d="M623.1,350.8c2.4,4.6,1.1,10.9-3.1,14.4c-4.2,3.4-9.8,2.4-12.6-2.4c-2.8-4.9-1.3-11.7,3.2-14.8
		C615.1,344.8,620.7,346.2,623.1,350.8z"/>
	<path class="st0" d="M638.2,375.8c2.7,3.7,2,9.5-1.6,13.2c-3.6,3.7-8.9,3.7-11.8-0.2c-3-3.9-2.2-10.1,1.6-13.6
		C630.2,371.7,635.5,372.1,638.2,375.8z"/>
	<path class="st0" d="M654.9,396.2c2.8,2.9,2.7,8.3-0.3,12.2c-3,3.9-8,4.7-11.1,1.6c-3.1-3.1-2.9-8.8,0.3-12.5
		C647.1,393.8,652.1,393.3,654.9,396.2z"/>
	<path class="st0" d="M673.6,411.4c3.1,1.9,3.6,6.5,1,10.5c-2.5,4-7.3,5.7-10.6,3.8c-3.3-1.9-3.8-6.8-1-10.7
		C665.7,411.1,670.5,409.6,673.6,411.4z"/>
	<path class="st0" d="M693.9,422.2c3.2,1.4,4,5.6,1.9,9.5c-2.1,3.9-6.5,6-9.9,4.6c-3.4-1.4-4.3-5.8-2-9.7
		C686.3,422.7,690.7,420.8,693.9,422.2z"/>
	<path class="st0" d="M715.2,430.5c3.2,1,4.3,4.8,2.6,8.6c-1.7,3.8-5.8,6.1-9.1,5.1c-3.3-1-4.5-5-2.6-8.8
		C707.9,431.7,712,429.5,715.2,430.5z"/>
	<path class="st0" d="M737.1,436.8c3.1,0.7,4.4,4.3,3.1,7.9c-1.4,3.7-5,6.1-8.3,5.3c-3.2-0.8-4.6-4.4-3.1-8
		C730.3,438.4,734,436.1,737.1,436.8z"/>
	<path class="st0" d="M759.6,441.8c3,0.6,4.5,3.9,3.4,7.5c-1.1,3.6-4.5,6-7.6,5.4c-3.1-0.6-4.7-4-3.5-7.6
		C753.1,443.6,756.5,441.2,759.6,441.8z"/>
	<path class="st0" d="M782.2,446.4c2.9,0.5,4.5,3.7,3.6,7.1c-0.9,3.4-3.9,5.7-6.9,5.2c-3-0.5-4.6-3.7-3.7-7.1
		C776.2,448.2,779.3,445.9,782.2,446.4z"/>
	<path class="st0" d="M804.8,451c2.7,0.5,4.3,3.6,3.6,6.8c-0.7,3.2-3.4,5.4-6.2,4.8c-2.8-0.5-4.4-3.6-3.7-6.8
		C799.3,452.7,802.1,450.5,804.8,451z"/>
	<path class="st0" d="M827,456.5c2.5,0.6,4,3.6,3.5,6.7c-0.5,3-2.9,5-5.5,4.3c-2.5-0.6-4.2-3.6-3.6-6.6
		C822,457.8,824.5,455.8,827,456.5z"/>
	<path class="st0" d="M848.7,463.3c2.3,0.8,3.7,3.8,3.3,6.6c-0.4,2.8-2.6,4.5-4.8,3.7c-2.3-0.8-3.8-3.7-3.4-6.6
		C844.2,464.2,846.5,462.5,848.7,463.3z"/>
	<path class="st0" d="M869.6,472.2c2.1,1,3.3,4.3,3,7c-0.3,2.7-2.1,3.8-4.2,2.8c-2.1-1-3.5-4-3.2-6.7
		C865.6,472.6,867.5,471.2,869.6,472.2z"/>
	<path class="st0" d="M888.6,486c1.7,1.4,2.8,4.6,2.4,7.1c-0.3,2.5-1.9,3.4-3.6,2c-1.7-1.4-2.8-4.6-2.5-7.1
		C885.3,485.6,887,484.6,888.6,486z"/>
	<path class="st0" d="M628.2,99.3c-0.8,9.7-6.9,21.7-16.9,22.8c-10.2,1.1-15.6-11.7-15.3-20.8c0.3-10.2,6.6-23.4,17.4-23.9
		C623.7,77,628.9,90,628.2,99.3z"/>
	<path class="st0" d="M625.5,157.7c-0.2,10.5-6.5,19.7-14.3,21.1c-7.8,1.5-14.4-6-15-16.6c-0.5-8.5,5.5-20.8,14.7-22.1
		C619,138.9,625.7,147.2,625.5,157.7z"/>
	<path class="st0" d="M626.1,208c0.4,9-4.9,17.5-12,19.6c-7.1,2.1-13.8-3.4-14.7-12.8c-0.9-9.4,4.7-18.9,12.3-20.5
		C619.3,192.7,625.7,199,626.1,208z"/>
	<path class="st0" d="M629.5,251.1c1,7.4-3.2,15.2-9.5,17.8c-6.3,2.6-12.6-1.2-14-9c-1.4-7.8,3-16.4,9.8-18.6
		C622.4,239,628.5,243.6,629.5,251.1z"/>
	<path class="st0" d="M635.8,287.4c1.5,6.2-1.8,13.3-7.4,16.5c-5.6,3.1-11.7,0.7-13.6-5.8c-1.9-6.5,1.6-14.4,7.6-17.1
		C628.4,278.1,634.4,281.2,635.8,287.4z"/>
	<path class="st0" d="M644.7,317.7c1.9,5-0.6,11.7-5.6,15.2c-5,3.5-10.9,2.4-13.1-3c-2.2-5.3,0.3-12.6,5.7-15.8
		C637.1,310.9,642.9,312.6,644.7,317.7z"/>
	<path class="st0" d="M655.9,342.6c2.2,4,0.5,10.2-3.9,14c-4.4,3.9-10,3.8-12.5-0.5c-2.5-4.3-0.8-10.9,3.9-14.5
		C648.1,338.1,653.6,338.6,655.9,342.6z"/>
	<path class="st0" d="M669.1,362.9c2.5,3.1,1.4,8.9-2.4,13c-3.8,4.2-9.1,5-11.9,1.6c-2.8-3.4-1.7-9.5,2.4-13.4
		C661.2,360.2,666.5,359.8,669.1,362.9z"/>
	<path class="st0" d="M684.1,379.1c2.7,2.4,2.4,7.4-0.9,11.8c-3.3,4.3-8.6,6.4-11.5,3.8c-3-2.6-2.5-8.3,1-12.5
		C676.2,378,681.4,376.7,684.1,379.1z"/>
	<path class="st0" d="M701.1,391c2.9,1.6,3,6.3,0.3,10.5c-2.8,4.2-7.5,6.4-10.7,4.7c-3.2-1.7-3.4-6.5-0.4-10.7
		C693.3,391.3,698.2,389.3,701.1,391z"/>
	<path class="st0" d="M719.5,399.9c3,1.2,3.6,5.5,1.3,9.6c-2.3,4.2-6.8,6.6-10,5.4c-3.2-1.2-3.9-5.7-1.4-9.8
		C711.9,401,716.5,398.7,719.5,399.9z"/>
	<path class="st0" d="M738.9,406.9c3,0.9,3.9,4.8,2,8.8c-1.9,4-6,6.6-9.2,5.7c-3.2-0.9-4.2-4.9-2.1-8.9
		C731.7,408.5,735.9,406,738.9,406.9z"/>
	<path class="st0" d="M759.2,412.4c3,0.7,4.1,4.3,2.6,8.2c-1.6,3.9-5.3,6.5-8.4,5.8c-3.1-0.7-4.4-4.4-2.7-8.2
		C752.4,414.2,756.2,411.7,759.2,412.4z"/>
	<path class="st0" d="M780.1,417.1c2.9,0.6,4.2,4,2.9,7.7c-1.3,3.7-4.7,6.2-7.7,5.6c-3-0.6-4.4-4-3.1-7.7
		C773.6,419,777.1,416.5,780.1,417.1z"/>
	<path class="st0" d="M801.2,421.6c2.8,0.6,4.2,3.8,3.2,7.3c-1,3.5-4.1,5.8-7,5.3c-2.9-0.6-4.4-3.8-3.3-7.3
		C795.2,423.4,798.4,421,801.2,421.6z"/>
	<path class="st0" d="M822.4,426.6c2.6,0.6,4,3.8,3.2,7.1c-0.8,3.3-3.6,5.4-6.3,4.8c-2.7-0.6-4.2-3.8-3.3-7.1
		C816.9,428.1,819.8,426,822.4,426.6z"/>
	<path class="st0" d="M843.4,432.8c2.4,0.8,3.8,3.9,3.2,7c-0.7,3.1-3.2,4.9-5.7,4.1c-2.5-0.8-4-3.9-3.3-6.9
		C838.4,433.9,841,432.1,843.4,432.8z"/>
	<path class="st0" d="M864,440.8c2.3,1,3.6,4.2,3.1,7.1c-0.6,2.9-2.9,4.4-5.2,3.5c-2.3-1-3.8-4.1-3.2-7
		C859.3,441.4,861.7,439.8,864,440.8z"/>
	<path class="st0" d="M883.7,451.9c2,1.3,3.1,4.6,2.6,7.3c-0.5,2.7-2.5,3.8-4.4,2.4c-2-1.3-3.2-4.6-2.7-7.3
		C879.7,451.7,881.7,450.5,883.7,451.9z"/>
	<path class="st0" d="M680.7,65.2c-1.9,11.3-10.6,23.4-21.7,24.4c-10.9,1-15.9-13.3-14.8-22.9c1.4-11.2,9.2-24.6,21.3-24.8
		C677.1,41.6,682.4,55,680.7,65.2z"/>
	<path class="st0" d="M672.8,123.5c-1.3,10.5-9,20.6-19.4,23c-9.3,2.2-15.3-6.7-14.5-18.2c0.7-10.3,7.3-21.3,18.3-22.8
		C667.1,104.1,674.1,112.6,672.8,123.5z"/>
	<path class="st0" d="M668.5,173.8c-0.7,9.7-8.1,18.7-17.3,21.8c-8.9,3-14.5-4.1-14.4-14.1c0.1-10,6.2-18.8,15.7-21.1
		C662,158.1,669.2,164.6,668.5,173.8z"/>
	<path class="st0" d="M667,217c0.1,7.8-6.5,16.6-14.8,20.1c-8.3,3.5-13.4-1.8-14-10.1c-0.5-8.3,4.2-16.2,12.9-19.2
		C659.9,204.8,667,209.2,667,217z"/>
	<path class="st0" d="M668.8,253.6c0.6,6.5-4.9,14.6-12.5,18.6c-7.6,4-12.6,0.3-13.7-6.6c-1.1-6.9,2.5-14,10.6-17.7
		C661.2,244.3,668.1,247.1,668.8,253.6z"/>
	<path class="st0" d="M673.2,284.2c1.1,5.3-3.4,12.8-10.3,17.2c-6.8,4.3-11.9,2.1-13.4-3.5c-1.6-5.7,1.1-12.3,8.5-16.3
		C665.3,277.4,672.1,278.8,673.2,284.2z"/>
	<path class="st0" d="M679.9,309.6c1.5,4.2-2,11-7.9,15.4c-5.9,4.4-10.9,3.7-12.8-0.8c-1.9-4.5,0-10.5,6.4-14.8
		C671.9,305.1,678.3,305.4,679.9,309.6z"/>
	<path class="st0" d="M689,330.1c1.9,3.3-0.7,9.4-5.7,13.9c-5,4.5-10.1,5-12.4,1.5c-2.3-3.5-0.8-9.2,4.7-13.6
		C681.1,327.5,687.1,326.8,689,330.1z"/>
	<path class="st0" d="M700.2,346.6c2.2,2.5,0.5,8.1-3.6,12.6c-4.2,4.5-9.4,6.1-12,3.4c-2.5-2.7-1.5-8.2,3.2-12.7
		C692.5,345.4,698,344,700.2,346.6z"/>
	<path class="st0" d="M713.7,359.5c2.6,1.9,1.6,6.8-2.1,11.2c-3.7,4.4-8.5,6.5-11.3,4.6c-2.8-1.9-2-7.2,1.8-11.5
		C705.8,359.5,711.1,357.7,713.7,359.5z"/>
	<path class="st0" d="M729.1,369.6c2.7,1.4,2.1,5.8-1.2,10.1c-3.3,4.2-7.7,6.7-10.5,5.3c-2.9-1.4-2.9-6.1,0.6-10.3
		C721.4,370.4,726.5,368.2,729.1,369.6z"/>
	<path class="st0" d="M746,377.3c2.8,1,2.6,5.1-0.4,9.2c-3,4.1-7,6.8-9.9,5.7c-3-1-3.6-5.3-0.5-9.5
		C738.4,378.7,743.3,376.3,746,377.3z"/>
	<path class="st0" d="M763.9,383.4c2.8,0.8,2.9,4.5,0.3,8.4c-2.6,3.9-6.2,6.6-9.2,5.8c-3-0.8-4-4.7-1.3-8.7
		C756.5,385.1,761.1,382.7,763.9,383.4z"/>
	<path class="st0" d="M782.7,388.6c2.8,0.6,3.2,4.1,0.9,7.8c-2.2,3.7-5.6,6.3-8.5,5.7c-2.9-0.6-4.2-4.3-1.9-8
		C775.6,390.3,779.9,387.9,782.7,388.6z"/>
	<path class="st0" d="M802,393.3c2.7,0.6,3.3,3.9,1.4,7.3c-1.9,3.4-4.9,6-7.8,5.4c-2.8-0.6-4.3-4.1-2.3-7.6
		C795.4,394.9,799.3,392.7,802,393.3z"/>
	<path class="st0" d="M821.7,398.2c2.6,0.6,3.4,3.8,1.8,7c-1.6,3.2-4.4,5.5-7.1,4.9c-2.7-0.6-4.2-4-2.6-7.2
		C815.5,399.6,819.1,397.5,821.7,398.2z"/>
	<path class="st0" d="M841.4,404.1c2.4,0.7,3.3,3.8,2.1,6.7c-1.3,3-3.8,5-6.3,4.2c-2.5-0.7-4-3.9-2.6-6.9
		C835.9,405.2,839,403.3,841.4,404.1z"/>
	<path class="st0" d="M861.1,411.4c2.3,0.9,3.2,3.9,2.2,6.7c-1,2.8-3.4,4.4-5.7,3.5c-2.3-0.9-3.7-4-2.6-6.8
		C856.1,412,858.9,410.5,861.1,411.4z"/>
	<path class="st0" d="M880.4,420.8c2.1,1.1,3.1,4.2,2.3,6.9c-0.8,2.6-3,3.8-5.1,2.7c-2.1-1.1-3.3-4.2-2.5-6.8
		C876,421,878.4,419.7,880.4,420.8z"/>
	<path class="st0" d="M726.6,89.7c-2.2,11.1-11.2,20.4-22.3,22.8c-10.2,2.1-17.8-9.5-15.9-18.5c2.3-11,10.9-22.9,22.8-23.9
		C721.9,69,728.7,79.7,726.6,89.7z"/>
	<path class="st0" d="M718.7,138.9c-1.6,10.3-10.4,19.1-20.4,21.9c-9.8,2.7-17.6-3.5-16.4-13.8c1.3-10.9,10-20.8,20.8-23
		C712.8,122,720.3,129.3,718.7,138.9z"/>
	<path class="st0" d="M713.4,181.5c-0.7,8.2-8.8,17.1-18,20.4c-9.3,3.3-16.9-0.9-16.3-9.4c0.7-9.9,8.9-18.6,18.3-21.4
		C706.9,168.3,714.1,173.3,713.4,181.5z"/>
	<path class="st0" d="M711,217.9c-0.2,6.9-7.3,15.3-15.9,19.2c-8.6,3.9-15.9,1.5-16.2-5.8c-0.2-7.4,7-16.6,16.1-20.1
		C704.1,207.8,711.2,211,711,217.9z"/>
	<path class="st0" d="M711.2,248.7c0.3,5.7-5.9,13.6-13.8,17.9c-7.9,4.3-15,3.3-15.8-2.8c-0.8-6.1,5.5-14.7,13.9-18.7
		C703.8,241.2,710.9,243,711.2,248.7z"/>
	<path class="st0" d="M713.5,274.6c0.8,4.7-4.4,11.9-11.6,16.5c-7.1,4.6-13.9,4.7-15.1-0.2c-1.2-4.9,4-12.8,11.6-17.1
		C706,269.4,712.7,269.9,713.5,274.6z"/>
	<path class="st0" d="M718,296c1.1,3.7-3.1,10.3-9.4,15.1c-6.3,4.7-12.7,5.7-14.3,1.8c-1.6-3.9,2.6-11.1,9.3-15.6
		C710.4,292.6,716.8,292.2,718,296z"/>
	<path class="st0" d="M724.3,313.5c1.4,2.9-1.9,8.9-7.3,13.6c-5.4,4.7-11.2,6.4-13.1,3.4c-1.9-3,1.2-9.4,7.1-14.1
		C716.8,311.8,722.8,310.6,724.3,313.5z"/>
	<path class="st0" d="M732.4,327.5c1.7,2.3,0.3,7.7-4.4,12.4c-4.7,4.7-10.8,6.8-13,4.5c-2.2-2.3,0.1-8.1,5.1-12.8
		C725.2,327,730.7,325.3,732.4,327.5z"/>
	<path class="st0" d="M745.7,338.7c2.5,1.7,1,6.6-3.3,11.2c-4.3,4.5-9.8,7-12.5,5.3c-2.7-1.7-1.4-6.9,3.1-11.4
		C737.4,339.2,743.2,337,745.7,338.7z"/>
	<path class="st0" d="M760.4,347.6c2.6,1.3,1.5,5.7-2.4,10.1c-3.9,4.3-9.2,6.9-12,5.7c-2.8-1.3-1.9-6,2.1-10.3
		C752.2,348.7,757.8,346.3,760.4,347.6z"/>
	<path class="st0" d="M776.1,354.8c2.7,1,1.9,5.1-1.5,9.2c-3.5,4.1-8.4,6.7-11.3,5.8c-2.8-1-2.3-5.2,1.3-9.3
		C768.2,356.2,773.5,353.8,776.1,354.8z"/>
	<path class="st0" d="M792.7,360.7c2.7,0.8,2.3,4.5-0.8,8.4c-3,3.9-7.7,6.4-10.5,5.7c-2.8-0.8-2.7-4.6,0.5-8.5
		C785.2,362.3,790,359.9,792.7,360.7z"/>
	<path class="st0" d="M810,366c2.6,0.7,2.5,4.2-0.1,7.8c-2.6,3.6-6.9,6-9.7,5.3c-2.8-0.7-2.9-4.2-0.1-7.9
		C802.8,367.6,807.3,365.3,810,366z"/>
	<path class="st0" d="M827.6,371.2c2.6,0.7,2.7,4,0.4,7.4c-2.3,3.4-6.2,5.6-8.9,4.9c-2.7-0.7-3-4-0.6-7.4
		C820.9,372.7,825.1,370.5,827.6,371.2z"/>
	<path class="st0" d="M845.5,377c2.4,0.8,2.7,3.9,0.9,7c-1.9,3.1-5.4,5-7.9,4.3c-2.5-0.8-3.1-3.9-1.1-7
		C839.4,378.1,843.1,376.2,845.5,377z"/>
	<path class="st0" d="M863.4,383.8c2.3,0.9,2.8,4,1.2,6.9c-1.6,2.9-4.7,4.5-7,3.6c-2.4-0.9-3.1-4-1.4-6.9
		C857.8,384.5,861.1,382.8,863.4,383.8z"/>
	<path class="st0" d="M881.1,392.1c2.1,1.1,2.7,4.2,1.4,6.9c-1.3,2.7-4,4.1-6.2,3c-2.2-1.1-3-4.2-1.6-6.9
		C876.1,392.4,878.9,391,881.1,392.1z"/>
	<path class="st0" d="M771.9,107.3c-2.5,10.6-12.5,19-23.1,21.2c-10.6,2.3-18.3-4.5-16.3-15c2.1-11.2,12.1-20.8,23.5-22.3
		C766.7,89.7,774.1,97.7,771.9,107.3z"/>
	<path class="st0" d="M763.7,148.5c-2.1,9.8-11.7,17.4-21.2,20.3c-10.1,3.1-18-1.7-16.6-10.6c1.6-10.4,11.2-19,21.5-21.3
		C757.8,134.5,765.4,140.4,763.7,148.5z"/>
	<path class="st0" d="M757.8,184.3c-0.9,7.1-9.4,15.5-19.1,19.2c-9.6,3.7-17.3,0.6-16.4-6.7c1.1-9.5,10.3-17.2,19.2-20.1
		C751.4,173.5,758.7,177.2,757.8,184.3z"/>
	<path class="st0" d="M754.4,214.8c-0.4,6-8.1,13.9-17.2,18.1c-9,4.2-16.3,2.9-16.3-3.6c0.1-6.4,7.8-15.1,17.2-18.9
		C747.6,206.7,754.9,208.8,754.4,214.8z"/>
	<path class="st0" d="M753,240.8c0,4.9-6.8,12.3-15.1,16.9c-8.3,4.6-15.3,4.4-15.7-0.9c-0.4-5.3,6.3-13.3,15-17.6
		C745.9,235,753,235.9,753,240.8z"/>
	<path class="st0" d="M753.4,262.7c0.4,4-5.5,10.7-12.9,15.5c-7.5,4.7-14.1,5.4-14.9,1.2c-0.8-4.2,4.9-11.6,12.8-16.1
		C746.2,258.9,753,258.7,753.4,262.7z"/>
	<path class="st0" d="M755.7,280.8c0.7,3.2-4.3,9.5-11,14.3c-6.7,4.8-12.9,6.3-14,2.9c-1.1-3.3,3.6-10.1,10.8-14.8
		C748.6,278.6,755,277.6,755.7,280.8z"/>
	<path class="st0" d="M759.5,295.9c1,2.5-3.2,8.2-9,13c-5.8,4.8-11.5,6.7-12.9,4.1c-1.4-2.6,2.4-8.7,8.7-13.4
		C752.6,294.9,758.6,293.3,759.5,295.9z"/>
	<path class="st0" d="M767.7,308.1c2.3,2-0.4,7.1-5.7,11.8c-5.3,4.6-11.4,6.9-13.9,4.9c-2.4-2-0.1-7.5,5.3-12.1
		C759,308.1,765.4,306.2,767.7,308.1z"/>
	<path class="st0" d="M780.3,318.2c2.4,1.5,0.2,6.2-4.6,10.6c-4.9,4.4-10.7,6.9-13.2,5.4c-2.6-1.5-0.7-6.5,4.3-10.9
		C771.7,318.8,777.9,316.6,780.3,318.2z"/>
	<path class="st0" d="M793.9,326.4c2.4,1.2,0.7,5.5-3.7,9.7c-4.4,4.2-9.9,6.7-12.5,5.5c-2.6-1.2-1.2-5.7,3.4-9.9
		C785.6,327.5,791.4,325.2,793.9,326.4z"/>
	<path class="st0" d="M808.2,333.4c2.4,1,1.1,4.8-2.8,8.7c-3.9,3.9-9,6.3-11.6,5.4c-2.6-0.9-1.6-4.9,2.5-8.9
		C800.4,334.7,805.8,332.4,808.2,333.4z"/>
	<path class="st0" d="M823.3,339.5c2.4,0.9,1.4,4.4-2,8c-3.4,3.6-8.2,5.9-10.8,5.1c-2.6-0.8-1.9-4.5,1.7-8.1
		C815.9,340.9,820.9,338.7,823.3,339.5z"/>
	<path class="st0" d="M839,345.3c2.4,0.8,1.7,4.1-1.3,7.5c-3,3.3-7.4,5.5-9.9,4.7c-2.5-0.8-2.1-4.2,1.1-7.6
		C832,346.6,836.6,344.5,839,345.3z"/>
	<path class="st0" d="M854.8,351.4c2.2,0.8,1.8,3.9-0.7,7c-2.6,3.1-6.5,4.9-8.8,4.1c-2.4-0.8-2.2-3.9,0.5-7
		C848.4,352.4,852.5,350.6,854.8,351.4z"/>
	<path class="st0" d="M870.8,358c2.1,0.9,1.9,3.9-0.3,6.7c-2.2,2.8-5.7,4.4-7.9,3.6c-2.2-0.9-2.3-3.9,0-6.8
		C864.9,358.7,868.7,357.1,870.8,358z"/>
	<path class="st0" d="M886.7,365.8c2,1,2,4,0.1,6.7c-1.9,2.6-5,4-7.1,3c-2.1-1-2.3-4-0.3-6.6C881.4,366.1,884.7,364.8,886.7,365.8z"
		/>
	<path class="st0" d="M827.5,79.4c-3.2,10.8-14.5,18.5-25.6,20.2c-11.4,1.7-19.2-5.5-16.5-16.2c2.9-11.5,14.1-20.6,26-21.3
		C822.9,61.4,830.3,69.9,827.5,79.4z"/>
	<path class="st0" d="M817.1,118.8c-2.9,10.1-13.9,17.3-24,19.7c-11.1,2.7-19.1-2.6-17-11.6c2.5-10.8,13.4-19,24.3-20.8
		C811.7,104.2,819.4,110.7,817.1,118.8z"/>
	<path class="st0" d="M809,153.1c-2.5,9.4-13.3,16.1-22.4,19.1c-10.7,3.5-18.8-0.1-17.2-7.8c2.1-10.1,12.7-17.5,22.6-20
		C802.9,141.6,810.8,146.2,809,153.1z"/>
	<path class="st0" d="M802.7,182.9c-1.1,6.2-10.3,14.1-20.6,18.1c-10.2,4.1-18.2,1.9-17.1-4.4c1.6-9.1,11.9-16.1,20.6-19
		C796.1,174.1,803.8,176.7,802.7,182.9z"/>
	<path class="st0" d="M798.3,208.5c-0.7,5.2-9.1,12.7-18.7,17.1c-9.6,4.5-17.1,4-16.7-1.6c0.3-5.6,8.7-13.8,18.6-17.9
		C791.4,202.1,799,203.3,798.3,208.5z"/>
	<path class="st0" d="M795.7,230.4c-0.3,4.3-8,11.3-16.9,16.1c-9,4.7-16.1,5.2-16.2,0.6c-0.1-4.6,7.4-12.3,16.7-16.7
		C788.6,225.9,796,226.1,795.7,230.4z"/>
	<path class="st0" d="M794.5,249c0,3.5-6.8,10-14.9,14.8c-8.2,4.8-15,6.1-15.4,2.4c-0.4-3.7,6.1-10.7,14.6-15.4
		C787.4,246.1,794.5,245.5,794.5,249z"/>
	<path class="st0" d="M795,264.5c0.3,2.9-5.7,8.9-13.2,13.8c-7.5,4.9-13.9,6.7-14.6,3.7c-0.7-3,4.9-9.5,12.8-14.3
		C787.9,262.9,794.7,261.6,795,264.5z"/>
	<path class="st0" d="M796.6,277.6c0.5,2.3-2.1,7.9-8.9,12.7c-6.8,4.8-15,6.9-16,4.6c-0.9-2.3,3.8-8.3,10.9-13.1
		C789.7,277,796.1,275.3,796.6,277.6z"/>
	<path class="st0" d="M806.8,288.8c2.2,1.9-1.3,6.9-7.5,11.4c-6.2,4.5-12.9,6.9-15.2,5.1c-2.3-1.8,0.7-7.2,7.1-11.7
		C797.5,288.9,804.7,286.9,806.8,288.8z"/>
	<path class="st0" d="M818.3,298.1c2.2,1.5-0.8,6.1-6.4,10.4c-5.7,4.3-12,6.7-14.4,5.3c-2.4-1.5,0.1-6.3,6-10.7
		C809.3,298.8,816.1,296.6,818.3,298.1z"/>
	<path class="st0" d="M830.6,306.1c2.3,1.3-0.3,5.4-5.4,9.5c-5.2,4-11.1,6.4-13.6,5.2c-2.5-1.2-0.3-5.6,5-9.7
		C821.9,307.1,828.3,304.9,830.6,306.1z"/>
	<path class="st0" d="M843.4,313.4c2.3,1.1,0.2,4.9-4.4,8.6c-4.6,3.7-10.1,6-12.5,5c-2.4-1-0.7-5,4-8.7
		C835.3,314.4,841.2,312.3,843.4,313.4z"/>
	<path class="st0" d="M856.9,320c2.2,1,0.5,4.5-3.6,7.9c-4.1,3.4-9.2,5.5-11.6,4.6c-2.4-0.9-1-4.6,3.2-8.1S854.7,319,856.9,320z"/>
	<path class="st0" d="M870.7,326.5c2.2,1,0.8,4.3-2.9,7.4c-3.6,3.2-8.3,5-10.6,4.1c-2.3-0.9-1.3-4.3,2.5-7.5
		C863.6,327.3,868.6,325.6,870.7,326.5z"/>
	<path class="st0" d="M884.6,333.5c2,1,1,4.1-2.2,7c-3.2,2.9-7.3,4.5-9.5,3.5c-2.2-0.9-1.4-4.1,1.9-7
		C878.1,334.1,882.6,332.5,884.6,333.5z"/>
	<path class="st0" d="M898.6,341.2c1.9,1.1,1.1,4.1-1.6,6.8c-2.7,2.7-6.5,4-8.6,2.9s-1.5-4.1,1.3-6.8
		C892.7,341.4,896.7,340.1,898.6,341.2z"/>
	<path class="st0" d="M872.5,92.8c-3.5,10.2-15.7,16.5-26.1,18.4c-11.9,2.2-20.1-3.5-17.4-12.5c3.3-10.9,15.2-18.3,26.4-19.4
		C867.3,78.1,875.3,85,872.5,92.8z"/>
	<path class="st0" d="M862.9,125.2c-3.2,9.5-15.3,15.6-25,18.2c-11.7,3.1-20-0.9-17.9-8.5c2.9-10.3,14.7-17.1,25.1-19.1
		C857,113.4,865.2,118.5,862.9,125.2z"/>
	<path class="st0" d="M854.9,153.6c-2.9,8.8-14.7,14.7-23.5,17.6c-11.3,3.8-19.7,1.2-17.9-5.1c2.5-9.4,14-15.9,23.5-18.4
		C848.4,144.5,856.7,148,854.9,153.6z"/>
	<path class="st0" d="M848.5,178.4c-1.2,5.3-11.1,12.6-22,16.9c-10.9,4.2-19.1,2.9-17.8-2.3c2-8,14.2-15.2,21.8-17.6
		C841.4,171.9,849.7,173.2,848.5,178.4z"/>
	<path class="st0" d="M843.4,200c-0.8,4.4-10,11.3-20.2,15.9c-10.2,4.5-17.9,4.7-17.3,0c0.6-4.7,9.4-12.4,19.9-16.6
		C836.3,195.1,844.3,195.6,843.4,200z"/>
	<path class="st0" d="M840,218.5c-0.5,3.7-9,10.2-18.7,15c-9.7,4.7-17.1,5.7-16.9,1.8c0.2-3.9,8.3-11.1,18.3-15.6
		C832.6,215.2,840.5,214.8,840,218.5z"/>
	<path class="st0" d="M837.4,234.6c-0.2,3-7.9,9.1-16.8,13.8c-8.9,4.7-15.9,6.2-15.9,3.1c-0.1-3.2,7.1-9.7,16.3-14.3
		C830.2,232.6,837.7,231.6,837.4,234.6z"/>
	<path class="st0" d="M836.2,248.2c0,2.5-7,8.1-15.1,12.7c-8.2,4.6-14.7,6.6-15,4c-0.3-2.6,6.1-8.6,14.6-13.2
		C829.1,247.2,836.2,245.7,836.2,248.2z"/>
	<path class="st0" d="M840.3,260.1c1.9,2.1-3.1,7.3-10.7,11.8c-7.6,4.5-15.1,6.6-17.2,4.5c-2.1-2.1,2.3-7.7,10.1-12.2
		C830.3,259.7,838.4,258,840.3,260.1z"/>
	<path class="st0" d="M849.5,270.7c1.9,1.8-2.4,6.4-9.4,10.6c-6.9,4.2-14,6.4-16.1,4.7c-2.1-1.7,1.7-6.7,8.8-10.9
		C840,270.8,847.6,268.9,849.5,270.7z"/>
	<path class="st0" d="M859.7,279.8c2,1.5-1.9,5.8-8.3,9.7c-6.4,3.9-13.1,6.1-15.2,4.7c-2.2-1.4,1.2-6,7.7-10
		C850.5,280.2,857.7,278.3,859.7,279.8z"/>
	<path class="st0" d="M870.4,288.1c2,1.3-1.4,5.1-7.1,8.7s-11.9,5.6-14.1,4.4c-2.2-1.2,0.7-5.3,6.6-9
		C861.7,288.7,868.4,286.8,870.4,288.1z"/>
	<path class="st0" d="M881.7,295.7c1.9,1.2-0.9,4.7-6.2,8c-5.2,3.3-11,5.2-13.1,4.1c-2.1-1.1,0.3-4.8,5.7-8.2
		C873.5,296.3,879.7,294.6,881.7,295.7z"/>
	<path class="st0" d="M893.2,303.2c1.9,1.1-0.6,4.3-5.2,7.3c-4.6,3-9.9,4.7-11.9,3.6c-2-1,0-4.4,4.8-7.5
		C885.7,303.6,891.4,302.1,893.2,303.2z"/>
	<path class="st0" d="M929.4,71.1c-4,10.2-17.5,15.6-28.1,16.9c-12.8,1.6-21.3-4.6-18.3-13.4c3.9-11,16.9-17.5,28.4-17.9
		C924.1,56.3,932.3,63.6,929.4,71.1z"/>
	<path class="st0" d="M919.4,100.9c-3.8,9.6-17.3,15-27.5,17.1c-12.8,2.6-21.7-1.8-19-9.4c3.6-10.5,16.7-16.6,27.6-18
		C913.2,88.9,922,94.4,919.4,100.9z"/>
	<path class="st0" d="M910.7,127.4c-3.6,9-16.9,14.3-26.4,16.9c-12.6,3.4-21.6,0.5-19.4-5.9c3.3-9.8,16.3-15.7,26.4-17.8
		C903.8,117.9,912.8,121.8,910.7,127.4z"/>
	<path class="st0" d="M903.3,150.8c-3.3,8.4-16.5,13.7-25.3,16.5c-12.4,4-21.3,2.3-19.6-3c3-9,15.8-14.8,25.1-17.3
		C895.9,143.6,905.1,146.1,903.3,150.8z"/>
	<path class="st0" d="M897.1,171.5c-3.4,7.5-15.1,12.6-24.2,16c-12,4.4-20.9,3.7-19.5-0.7c2.7-8.3,15.2-13.9,23.8-16.7
		C889.3,166.1,898.8,167.9,897.1,171.5z"/>
	<path class="st0" d="M892,189.7c-0.9,3.9-11.3,10.5-22.7,15.1c-11.5,4.6-19.8,5.3-19.1,1.1c0.8-4.2,10.6-11.5,22.2-15.8
		C884,185.9,892.9,185.8,892,189.7z"/>
	<path class="st0" d="M887.6,205.8c-0.7,3.3-10.3,9.4-21.1,14.1c-10.8,4.7-18.8,5.9-18.3,2.5c0.5-3.4,9.5-10.2,20.4-14.7
		C879.6,203.2,888.3,202.5,887.6,205.8z"/>
	<path class="st0" d="M884.5,219.9c-0.4,2.8-9.4,8.5-19.6,13.2c-10.2,4.6-17.8,6.3-17.6,3.5c0.2-2.9,8.5-9.1,18.9-13.7
		C876.5,218.3,885,217.1,884.5,219.9z"/>
	<path class="st0" d="M882.2,232.2c-0.3,2.4-5.4,7.9-14.9,12.4c-9.5,4.5-20.1,6.3-20,3.9c0-2.4,7.6-8.2,17.4-12.7
		C874.4,231.3,882.5,229.8,882.2,232.2z"/>
	<path class="st0" d="M889.3,243.7c1.7,2.1-4.5,7-13.3,11.3c-8.8,4.2-17.1,6.2-19,4.1c-1.9-2,3.5-7.4,12.6-11.7
		C878.6,243.1,887.6,241.6,889.3,243.7z"/>
	<path class="st0" d="M897.4,253.9c1.7,1.8-3.9,6.4-12.1,10.3c-8.2,4-16.1,5.9-18,4.2c-2-1.7,2.9-6.6,11.4-10.7
		C887.1,253.7,895.7,252.1,897.4,253.9z"/>
	<path class="st0" d="M905.9,263.4c1.7,1.6-3.2,5.7-10.7,9.3c-7.5,3.6-14.8,5.5-16.8,4c-2-1.5,2.4-5.9,10.1-9.6
		C896.1,263.3,904.1,261.8,905.9,263.4z"/>
	<path class="st0" d="M914.8,272.2c1.7,1.4-2.7,5.2-9.5,8.5c-6.8,3.3-13.5,5-15.5,3.7s1.9-5.3,8.9-8.7
		C905.7,272.2,913.1,270.7,914.8,272.2z"/>
</g>
</svg>
